<?xml version="1.0" encoding="UTF-8"?>
<svg id="_レイヤー_2" data-name="レイヤー 2" xmlns="http://www.w3.org/2000/svg" viewBox="0 0 499.41 368.43">
  <defs>
    <style>
      .cls-1 {
        fill: #4ca6ad;
      }
    </style>
  </defs>
  <g id="_レイアウト" data-name="レイアウト">
    <g>
      <path class="cls-1" d="m349.12,136.26c.44.17.88.34,1.33.51.31-.39.64-.8,1.06-1.34,1.54.59,3.12-.42,4.77.03.45.12,1.03-.09,1.52-.25.54-.17.99-.13,1.49.16.22.13.7.16.82.02.54-.6,1.11-.77,1.94-.73.62.03,1.18-.43,1.98-.16.66.22,1.53-.2,2.31-.34.64-1.28,1.86-.55,2.79-.79-.1.26-.2.51-.39.99,1.33-.52,2.46-1.21,3.77-1.25.51-.02,1.05-.19,1.53-.1.67.12,1.2-.06,1.81-.28.78-.29,1.66-.29,2.43-.61.79-.32,1.58-.2,2.36-.29,1.02-.11,2.07.04,3.04-.59.35-.23,1.02.1,1.51,0,.48-.1.93-.63,1.36-.59,1.59.13,3-.41,4.42-.97.34-.14.78-.28,1.1-.17.37.12.65.5,1.05.05.74-.84,1.81-1.03,2.79-1.36.86-.29,1.79-.21,2.67-.71.73-.41,1.87.05,2.5-.88,1.33.13,2.61-.87,3.98-.13.24.13.59.21.82-.16.59-.97,1.66-.88,2.54-.93,1.32-.06,2.67.21,3.8-.74,2.2.13,4.29-.78,6.5-.72.57.02,1.27-.24,1.71-.61.86-.71,1.8-.91,2.86-1.08,1.53-.25,3.09-.61,4.48-1.25,1.6-.74,3.26-.61,4.89-.8,1.23-.14,1.33-.05,1.93-.63.65.42,1.15,1.24,2.12.35.39-.36,1.18-.51,1.75-.44,2.61.33,5.05-1.03,7.65-.69.28.04.64-.05.87-.22.52-.39,1.06-.63,1.73-.64.95-.02,1.81-.36,2.71-.65,1.16-.37,2.34-.74,3.64-.81,1.39-.08,2.86-.43,4.22-.81,1.46-.41,3.16-.15,4.42-1.31.13-.12.56.09.85.14.39.07.98.31,1.13.15,1.04-1.14,2.8-.66,3.86-1.82.45-.48,1.32-.58,2-.84.68-.26,1.42-.4,2.04-.76.83-.47,1.82-.44,2.58-.81.73-.36,1.37-.71,2.22-.87,1.11-.21,2.22-.66,3.22-1.21.67-.36,1.5-.28,2-.65.83-.63,1.8,0,2.63-.64.67-.53,1.66-.86,2.51-.88.87-.02,1.53-.01,2.27-.64.54-.45,1.5-.04,2.25-.73.63-.58,1.73-.48,2.71-.25.2.16.46.34.67.56,1.68,1.78,1.67,1.26,1.03,3.82.08.18.14.38.25.54.41.59.84,1.17,1.26,1.75-.68.71-.06,1.53-.17,2.29-.06.39.14.82.12,1.23-.06,1.03.23,2.04.27,3.02.04.95-.69,1.91-.99,2.89-.33,1.07-.91,2.24-.73,3.25.2,1.17-.5,2-.5,2.98,0,1.4-.88,2.54-.96,3.9-.01.26-.26.59-.5.73-.53.31-.81.75-.53,1.28.53.97-.08,1.8-.13,2.69-.14,2.33-1.07,4.4-1.66,6.51.17.4.39.75.45,1.12.01.09-.5.22-.71.41-.49.45-.39.9.12,1.28-.14,1.22-1.4,2.14-.89,3.52.04.12-.19.35-.31.51-.84,1.12-1.23,2.4-1.44,3.77-.06.39-.61.71-1.1,1.25-.12.9.11,2.15-.71,3.25-.28.37-.41,1.07-.27,1.5.49,1.51-.85,2.8-.41,4.27-1.02,1.17-.77,2.75-1.33,4.07-.45,1.05-.64,2.27-1.29,3.17-.71.99-.12,2.32-1.1,3.16-.16.14-.07.58-.08.89-.02.41.1.87-.05,1.21-.3.66-.74,1.24-1.13,1.86.76.59.23,1.37.22,2.04,0,.71-.54,1.47-.42,2.12.23,1.19-.77,2.07-.49,3.31.21.92-.33,2-.48,3.02-.08.57.06,1.18-.07,1.73-.14.6-.5,1.14-.73,1.72-.11.28-.27.76-.15.89,1.03,1.04.47,1.85-.24,2.72-.15.18,0,.59,0,.89.01.61.16,1.23.18,1.8.04,1.01-.31,2.04-.5,3.07-.04.21-.05.42-.11.62-.3.9-1.56,1.31-1.39,2.36.16,1,.04,1.84-.42,2.71-.18.35-.22.8-.26,1.2-.33,3.23-1.27,6.32-2.43,9.33-.47,1.23-1.24,2.4-2.39,3.17-1.05.7-1.65,1.86-2.81,2.47-.47.25-.64,1.02-1.03,1.49-.33.41-1.02-.19-1.37.39-.26.43-.56.83-.83,1.25-.26.4-.62.48-1.07.44-.16-.02-.48.13-.5.24-.14.87-.81,1.13-1.47,1.47-.35.18-.73.51-.88.86-.43,1-1.3,1.34-2.19,1.64-.55.18-.89.49-1.11,1-.28.65-.76.95-1.5.82-.54-.09-1.2,0-1.37.51-.48,1.39-1.97,1.49-2.81,2.4-.78.84-1.58,1.71-2.49,2.39-.55.4-1.35.47-2.2.74-.24.4.39,1.67-1.02,1.54-.6-.05-.99.23-1.36.61-.43.44-.82,1.09-1.34,1.25-.93.27-1.44,1.15-2.45,1.31-.65.1-1.21.72-1.84,1.04-.55.28-1.28.35-1.69.75-.56.54-1.12.43-1.73.39-.51-.04-1.14-.32-1.51-.12-1.7.94-3.69.64-5.41,1.4-.47.21-1.07.26-1.4.59-.52.53-.87.7-1.57.26-.47-.29-.7.62-1.25.63-.94.02-1.87.13-2.81.14-1.24.01-2.49-.09-3.65.51-.17.09-.45.17-.58.09-1.33-.85-2.87-.19-4.29-.61-1.28-.38-2.71-.22-4.05-.45-2.2-.38-4.39-.23-6.57.07-1.76.25-3.49.72-5.23,1.01-2.71.46-5.24,1.4-7.82,2.24-.79.26-1.62.42-2.44.5-1.04.11-1.7,1.27-2.86.96-1.35.88-2.97.86-4.46,1.3-1.4.41-2.67,1.29-4.22,1.18-.8,1.08-2.45.28-3.23,1.48-.12.19-.57.21-.87.22-.54.01-1.26-.89-1.58-.01-.36.97-1.04.4-1.53.6-.97.39-1.98.68-2.98,1-.88.28-1.89-.2-2.73.46-.22.17-.66.27-.89.17-2.13-.94-4.04.46-6.07.57-1.3.07-2.61.57-3.97.54-.38,0-.85.13-1.14.37-.36.31-.64.37-1.09.23-.48-.15-1.15-.35-1.5-.14-1.43.86-3.1.4-4.56.98-.47.19-1.04.22-1.55.15-1.7-.22-3.23.29-4.75.94-.26.11-.56.23-.84.22-1.16-.04-2.29.07-3.42.35-1,.25-2.02.43-3.04.53-2.06.21-3.96,1.15-6.06,1.16-.19,0-.37.11-.55.18-.76.27-1.66.38-2.24.87-.92.79-1.49.29-2.06-.33-.72.47-1.28.95-1.93,1.23-.74.32-1.58.26-2.36.66-.63.32-1.53-.59-2.31.23-.57.6-1.67-.04-2.29.77-.08.1-.72-.27-1.12-.36-.6-.13-.61.36-.76.91-1.62-.28-3.23.06-4.68.83-.88.46-1.94-.17-2.67.55-.72.72-1.59.28-2.35.47-1.71.44-3.41.96-5.08,1.55-.27.1-.73.21-.87.07-.87-.84-.95.27-1.85.67-.32.04-1.14.24-1.95.23-.78,0-1.45.12-2,.69-.53.54-1.42-.03-1.76.32-1.02,1.07-2.28.83-3.48.87-.89.03-1.56.22-2.21.91-.36.39-1.13.48-1.73.55-1.02.11-1.98.29-2.85.91-.3.21-.77.19-1.14.31-1.16.37-2.49.21-3.5.98-.92.7-2.15-.13-2.96.71-.67.69-1.72.52-2.38,1.17-1.62-.31-2.73,1.47-4.42,1.04-.3-.08-.78.29-1.08.57-.43.39-.88.44-1.43.43-.37,0-.81.17-1.09.41-.86.72-1.76,1.2-2.87.69-.6-.28-1.07.09-1.45.28-1.67.83-3.43,1.62-4.68,3-.84.93-1.61,1.5-2.87,1.48-.34,0-.91.31-1.01.6-.35,1.1-1.21,1.28-2.15,1.53-1.28.34-2.45,1.02-3.58,1.71-.53.32-1.06.63-1.6.92-1.46.77-3.28.85-4.39,2.29-1.56-.01-2.64,1.1-3.86,1.78-.95.53-1.89,1.02-2.89,1.46-1.14.5-2.16,1.27-3.29,1.81-.98.47-1.85,1.21-3.01,1.29-.13,0-.22.3-.35.43-.87.86-1.81,1.57-3.09,1.7-1.73.17-3.26,1-4.86,1.56-2.03.71-3.84,2.01-6.14,1.98-.62,0-1.15.81-1.94.65-1.2.87-2.66.96-4.03,1.35-1.39.39-2.77.72-4.19.99-.99.19-1.99.53-2.85,1.03-.58.34-.91.26-1.37-.03-.16-.1-.53-.18-.58-.1-1.07,1.52-2.94.62-4.27,1.44-.66.41-1.54.49-2.42.48-.91-.01-1.83.37-2.73.64-1.01.3-1.98.61-3.05.09-.31-.15-.85-.06-1.17.12-1.15.66-2.35.77-3.65.68-.81-.05-1.6.09-2.36.59-.56.37-1.38.36-2.09.5-.41.08-.88,0-1.24.18-1.91.93-4.04.97-6.04,1.58-1.68.51-3.34,1.28-5.18,1.12-.19-.02-.4.12-.59.19-3.52,1.29-7.21,1.8-10.85,2.59-2.14.47-4.27,1.06-5.9,2.73-.34.35-.9.49-1.5.8,1.11,1.59,1.72,3.31,2.35,5.02.24.66.83,1.2,1.03,1.87.25.87-.15,1.81.25,2.73.17.39-.11,1.02-.29,1.5-.37.97-.81,1.92-1.3,3.06-.58.1-1.32.12-1.96.37-.67.26-1.22.8-1.87,1.13-.65.34-1.33.69-2.04.82-2.08.37-3.88,1.28-5.57,2.49-.33.23-.76.33-1.15.48-.59.23-1.26.33-1.75.68-1.36.97-2.9,1.55-4.41,2.18-1.15.48-2.23.99-3.22,1.81-.93.77-2.43.72-3.16,1.91-1.61.25-2.45,1.86-4.02,2.25-.66.16-1.29.71-1.78,1.24-1.52,1.63-3.39,2.66-5.45,3.41-.19.07-.47.17-.51.31-.55,2.02-2.75,1.57-3.92,2.65-.9-.26-1.26.63-1.9.91-.55.24-1.23-.16-1.74.44-.6.71-1.69.34-2.29.73-.88.56-1.81.36-2.66.7-.83.33-1.63.29-2.44-.04-.96.56-2.2-.6-3.07.5-1.55.11-3.08.54-4.66.36-.39-.04-.78-.34-1.15-.31-.34.03-.65.34-.99.51-.09.04-.2.07-.29.06-2.86-.23-5.15-.05-7.32.63-.8.25-1.55.59-2.44.35-.31-.08-.74.26-1.1.44-.18.09-.34.36-.5.35-1.61-.06-2.83,1.12-4.36,1.33-1.11.15-2.26.7-3.31.53-1.31-.21-2.63-.8-3.75-1.53-1.38-.9-2.56-2.11-3.83-3.19-.19-1.15-1.27-1.6-1.91-2.4-.26-.32-.6-.62-.75-.99-.26-.65-.4-1.34-.58-2.02-.82-.14-1.1-.79-1.52-1.42-.74-1.11-1.52-2.17-2.81-2.82-2.1-1.06-3.45-3.02-4.97-4.72-3.67-4.12-7.22-8.36-10.79-12.57-1.76-2.07-3.48-4.18-5.23-6.26-.6-.71-1.21-1.42-1.85-2.1-.78-.84-1.73-1.55-2.05-2.73-.79-.44-.86-1.49-1.75-1.92-.6-.28-1.14-.9-.98-1.77.02-.09-.04-.26-.11-.28-1.5-.57-1.74-2.29-2.89-3.17-.58-.44-1.19-.87-1.03-1.75.02-.09-.06-.27-.11-.28-1.52-.28-1.42-1.92-2.3-2.74-.74-.68-.83-1.95-2.11-2.18-.29-.05-.52-.61-.7-.97-.5-1.04-1.04-2.05-2.01-2.75-.13-.09-.25-.37-.2-.5.27-.75-.2-1.11-.65-1.59-.56-.6-1.09-1.3-1.41-2.05-.35-.83-.55-1.67-1.13-2.44-.46-.61-.55-1.5-1.12-2.18-.23-.27.18-1.02.07-1.49-.11-.47-.61-.84-.77-1.31-.31-.94.18-2.14-.92-2.84.02-.82.29-1.75,0-2.45-.37-.88-.07-1.37.42-1.94.07-.08.17-.24.15-.26-.83-.81.56-1.13.41-1.82-.08-.37-.09-.92.13-1.16.52-.59,1.31-.97,1.78-1.6.55-.73,1.11-1.22,2.05-1.18l1.88-1.68c.44-1.04,1.1-1.78,2.36-1.7.57.04.97-.25,1.37-.63.92-.86,1.97-1.5,3.31-1.39.09,0,.2-.07.29-.11.93-.35,1.71-1.15,2.89-.69.35.14,1-.2,1.39-.49.82-.61,1.58-.35,2.34.08.42-.55.7-1.13,1.16-1.47.38-.28.97-.36,1.47-.4,2.38-.21,4.08-1.61,5.48-3.34,1.09-1.35,2.51-2.47,3.12-4.19,1.04-.73,1.8-1.68,2.26-2.87.07-.19.31-.34.33-.53.38-2.94,2.8-4.21,4.78-5.83.31-.25.8-.3,1.07-.58.6-.64,1.34-1.25,2.13-1.17,1.15.11,2.18-.62,3.3-.3,1.01.28,2.01.53,3.06.11.26-.11.67-.11.91.02,1.54.82,3.2.76,4.86.77.51,0,1.18.08,1.48.4.88.92,2.03.89,3.11,1.13,2.11.47,4.02,1.63,6.19,1.88,1.64.19,3.14.62,4.55,1.54.87.57,1.95.71,3.03.31.48-.18,1.03-.3,1.53-.25,2.1.19,4.17-.13,6.25-.25,1.1-.07,1.94-.4,2.88-.87,1.58-.8,3.07-1.71,4.51-2.7.86-.59,1.55-1.37,2.74-1.22.24.03.64-.19.76-.41.62-1.06,1.92-1.14,2.68-1.99.81-.89,2.03-1.06,3.04-1.59,1.92-1,3.83-2.01,5.75-3.02.45-.89,1.59-.34,2.14-1.03,1.44-.25,2.48-1.35,3.89-1.78,1.43-.44,2.79-1.32,4.09-2.1,1.25-.75,2.7-1.2,3.76-2.2.59-.56,1.39,0,1.96-.75.45-.59,1.35-.98,2.12-1.14.7-.15,1.2-.92,2.01-.59.85-1.18,2.53-.66,3.47-1.73.31-.35.92-.5,1.42-.61,1.7-.38,3-1.43,4.29-2.5.56-.46,1.15-.91,1.67-1.41.43-.42.58-1.16,1.38-1.14.96.02.87-1.07,1.5-1.42.45-.25.81-.69,1.28-.9,1.45-.67,2.56-1.7,3.59-2.89.63-.73,1.13-1.67,2.36-1.79.52-.05.97-.74,1.45-1.14.43-.35.32-1.2,1.12-1.22.09-1.17,1.19-1.65,1.82-2.71-.25-2.21-.67-4.59-.73-6.98-.03-1.15-.79-1.87-.97-2.92-.63-3.65-.75-7.35-1.41-10.99-.37-2.05-.61-4.13-1.1-6.15-.21-.87-.95-1.6-1.36-2.44-.62-1.27-1.71-2.13-2.73-3.01-.86-.75-1.92-1.37-3.15-1.24-1.17.13-2.01-.39-2.8-1.14-.61-.57-1.28-1.07-1.9-1.62-.81-.71-1.11-1.64-1.11-2.7,0-1.5-.28-2.96.4-4.49.6-1.34,1.14-2.63,2.21-3.67.44-.43-.32-1.49.75-1.7,1.11-2.61,3.19-4.56,4.71-6.9.39-.61.9-1.15,1.37-1.7.2-.23.47-.4.67-.64.2-.24.49-.51.51-.78.1-1.7,1.61-2.62,2.16-4.1.97-2.62,1.58-5.35,2.46-7.99.62-1.88,1.27-3.75,1.87-5.63.09-.28.07-.63,0-.92-.36-1.53.09-2.89.77-4.23.42-.84.79-1.71,1.19-2.57-.47-1.2.28-2.1.85-2.97.62-.96.81-2.19,1.8-2.91.08-.06.16-.16.17-.26.27-1.82,1.6-3.08,2.42-4.61.34-.63.86-1.18,1.14-1.84.24-.57,1.01-.23,1.16-.84.1-.4.27-.78.41-1.17.03-.1.03-.22.09-.3.77-.97,1.59-1.91,2.32-2.92.67-.93.46-2.26,1.34-3.14.35-.35.51-.88.79-1.31.73-1.14,1.27-2.41,2.4-3.26.53-.4-.15-.66-.14-1.24.82-1.03,1.75-2.25,2.32-3.72.25-.66.69-1.25.78-2,.05-.41.13-.9.38-1.18,1.27-1.39,1.11-3.01,1.03-4.72-.1-2.18-.08-4.4.25-6.55.29-1.86.05-3.74.44-5.59.27-1.28.67-2.41,1.64-3.3.38-.35.69-.79,1.09-1.13,2.71-2.3,4.93-5.08,7.47-7.55,1.05-1.02,2-2.14,3.12-3.08,1.32-1.11,2.24-2.53,2.97-4,.7-1.41,1.54-2.68,2.36-4,.88-1.43,1.69-2.85,3.04-3.89.14-.11.3-.47.24-.54-.69-.84.41-1.49.2-2.26-.06-.2-.13-.4-.26-.56-.25-.33-.49-.7-.82-.92-.67-.45-1.04-.98-.95-1.83.04-.4-.01-.95-.26-1.2-1.9-1.91-2.09-4.52-2.94-6.86-.03-.09-.01-.21-.02-.38.36-1.63,1.4-2.95,2.41-4.29,1.18-1.57,2.79-2.86,3.17-4.94,1.13-.65,1.08-1.96,1.67-2.91.58-.93-.63-1.97.36-2.9.66-.62,1.06-1.52,1.55-2.3.11-.17.08-.41.16-.6.44-1.15.83-2.33,1.36-3.44.55-1.14,1.83-1.61,2.54-2.71.65-1.01,1.79-1.71,3.07-2.07,1-.28,1.98-.68,2.88-1.19,1.38-.76,2.67-1.6,4.38-1.42.37.04.78-.6,1.23-.82.35-.17.79-.14,1.17-.27.29-.1.53-.42.82-.45.92-.1,1.87,0,2.77-.18.87-.18,1.67-.78,2.53-.88,1.56-.19,3.1-.31,4.49-1.14,2.76-.4,5.24-1.77,7.98-2.3,1.94-.38,3.78-1.25,5.68-1.86,1.29-.42,2.63-.7,3.9-1.16,1.35-.48,2.71-.97,3.95-1.67,1.74-.98,3.84-1.15,5.39-2.51,2.51-.07,4.7-1.7,7.33-1.42,1.42.15,2.91-.14,4.34-.39,2.82-.49,5.62-.24,8.37.32,1.51.31,2.91,1.27,4.41,1.44,1.58.19,2.86,1.23,4.45,1.25.28,0,.56.26.82.44,2.24,1.53,4.45,3.08,6.71,4.58,1.16.77,2.15,1.65,2.6,3.01.32.99,1.22,1.4,1.99,1.93.72.5,1.26,1.07,1.52,1.93.16.51.38,1.02.1,1.51-.47.81-.38,1.59-.05,2.41.29.72.12,1.37-.21,2.09-.29.62.61,1.39-.23,2.19-.63.6-.23,1.59-.1,2.42.03.17-.1.49-.23.54-1.11.46-1.13,1.68-1.71,2.5-.57.81-1.44,1.19-2.06,1.87-.7.77-1.26,1.67-1.87,2.51-.06-.07-.11-.16-.19-.21-.05-.03-.13,0-.2.02.14.03.29.07.43.1-.69.77-1.37,1.54-2.15,2.42.11.28.26.63.43,1.04-1.62,2.54-2.63,5.34-3.42,8.27-.25.93-.28,1.63.25,2.32.88,1.17.6,2.84,1.73,3.88.09,2.06.71,4.11.14,6.17-.11.39-.31.8-.59,1.09-2.16,2.27-3.68,5.06-6,7.2-.53,1.83-2.25,3.02-2.67,4.91-.1.46-.52.6-.82.87-.82.75-1.94,1.22-2.32,2.44-.09.28-.64.49-1.02.58-.38.09-.8,0-1.22-.02-.17.61-.31,1.11-.37,1.35-1.26.57-2.41.37-3.25,1.09-1.41-.57-2.49.45-3.71.78-.61.16-1.24.48-1.82.4-1.06-.13-1.66.74-2.56.9-.88,1.17-1.94.77-3.11.3-.19.47-.37.95-.56,1.42-.19.48-.25,1.09-.59,1.41-1.78,1.72-2.42,4.15-3.89,6.06-.75.98-1.22,2.21-1.6,3.4-1.26,3.86-2.71,7.67-3.41,11.7-.91,1.68-.97,3.58-1.47,5.37-.21.74-.28,1.45-.07,2.16.34,1.1.58,2.13.24,3.35-.18.62.28,1.54.69,2.17.52.81.66,1.73.69,2.57.04,1.13.39,1.96,1.12,2.76.41.44.57,1.09.91,1.61.59.92.03,2.03.66,3.02.52.82.54,1.96.77,2.96.05.2.12.45.05.62-.44,1.02.25,1.98.1,3-.09.61-.16,1.29.02,1.86.6,1.85.09,3.58-.72,5.14-.48.91-1,1.86-1.23,2.8-.22.91-1.17,1.73-.6,2.81-1.12,1.26-.54,2.97-1.16,4.39-.31.71,0,1.64-.95,2.14-.26.14-.32.72-.38,1.12-.12.82-.25,1.65-.24,2.48.02,1.18-.08,2.27-.78,3.29-.37.54-.56,1.24-.72,1.89-.14.59-.16,1.22-.16,1.82,0,1-.04,1.97-.64,3.02.81-.25,1.48-.56,2.18-.63.64-.06,1.16-.3,1.74-.53,1.02-.4,2.26-.15,3.1-1.13.12-.14.4-.22.58-.19,1.68.27,3.04-.56,4.32-1.4.72-.47,1.56-.46,2.23-.85.67-.4,1.32-.58,2.08-.55.2,0,.53-.02.59-.14.67-1.43,2.2-1.03,3.29-1.42,1.12-.4,2.06-.89,2.98-1.73.4.06,1.05.37,1.36.16,1.14-.76,2.35-1.13,3.68-1.27.14-.01.24-.52.41-.94.67.16,1.35.39,2.06.46.59.06,1.32-.28,1.78-.03.77.41,1.33.47,2.17.13.59-.24,1.42.18,2.14.14,1.24-.07,2.55-.08,3.51-1.02.75-.73,1.84.01,2.59-.77.62-.65,1.51-.59,2.37-.59,1.45,0,2.79-.79,4.31-.59.42.06.91-.45,1.38-.67.27-.13.65-.41.82-.32,1.11.6,1.72-.46,2.53-.75.55-.2,1.02-.52,1.63-.68,1.58-.42,3.22-.76,4.53-1.97.59-.54,1.4-1.27,2.43-.66.63-.37,1.44-.6,1.84-1.14.78-1.05,2.17-.54,2.99-1.39.09-.09.54.18.99.33.45-.16.25-1.17,1.16-1.29,1.02-.13,2-.59,3.02-.83.98-.24,1.79-1.17,2.94-.68,1.26-.49,2.52-.93,3.9-1.11,1.18-.16,2.34-.69,3.44-1.18.63-.28,1.2-.24,1.79-.08.38.11.77.55,1.09.48.77-.16,1.52-.5,2.25-.8.28-.12.53-.52.77-.5,1.63.14,3.04-.86,4.6-.85,1.27.01,2.24-.87,3.51-.87,1.11,0,2.27,0,3.34-.49.59-.27,1.2-.31,1.84-.1,1.22.41,2.25-.1,3.47-.88.44.17,1.01.39,1.73.66-.02.02.23-.17.48-.36l-.1-.06c.43.48.61.21.72-.25l-.04.1Zm-48.1,68.03c-.05-.08-.08-.17-.15-.23-.04-.03-.14,0-.21,0,.14.04.27.09.41.13-.28.52-.55,1.03-.88,1.64.57.54.42,1.55,1.23,2.03.68.04,1.19-.15,1.35-.92.08-.39.17-.86.42-1.13,1.32-1.41,1.74-3.24,2.4-4.77-1-2.25-2.84-1.35-4.42-1.61-.07.39-.18.68-.16.96.08,1.3.46,2.59.02,3.89Zm-45.88-127.01c2.44-1.42,5.23-1.78,7.86-2.63,1.37.3,2.33-.5,3.46-1.09,1.88-.98,3.72-1.89,4.77-3.85.09-.17.34-.24.49-.38,1.09-1.05,2.56-1.88,2.36-3.75.96-.94.99-2.55,2.45-3.17.52-.22,1.09-.84,1.2-1.36.21-.97.91-1.33,1.57-1.81.33-.24.62-.56.92-.84.5-.47,1.42-2.42,1.37-2.96-.12-1.23-.26-2.47-.38-3.7-1.13-1.25-1.05-3.11-2.38-4.33-.71-.65-1.21-1.78-1.33-2.76-.12-1.01-.46-1.79-1.06-2.54.16-1.23-.73-1.87-1.47-2.59-.14-.14-.28-.33-.3-.51-.2-1.77-2.26-2.32-2.62-3.99-2.15-1.97-4.26-3.99-6.47-5.89-1.96-1.68-3.15-4.46-2.9-7.4.39-.03.91-.22,1.17-.04.48.34.94.84,1.17,1.38.23.54.17,1.21.23,1.76.52.37,1.07.6,1.35,1,.86,1.21,1.83,2.27,3.13,3.02.15.09.32.35.3.51-.09.96.62,1.22,1.26,1.57.36.2.93.36,1.02.66.5,1.6,2.03,2.34,2.94,3.59.6.81.74,2.15,1.94,2.34,1.01.16,2.07.02,3.1,0,.2,0,.4-.1.74-.2.2-.21.46-.55.78-.81.7-.56.93-1.2.96-2.15.04-1.23.75-2.54,1.86-3.01,1.08-.46,1.53-1.33,2.27-2.01,2.66-2.43,3.4-5.66,3.88-8.99.09-.64-.35-1.37-.62-2.04-.14-.35-.43-.64-.65-.97.52-.42.91-.74,1.36-1.11-.7-.77-1.35-1.55-2.07-2.25-.82-.8-1.78-1.46-2.55-2.3-1.21-1.32-3.01-1.83-4.2-3.16-1.88-.6-3.74-1.27-5.64-1.78-2.11-.57-4.34-.21-6.47-.79-.44-.12-1,.26-1.51.33-.61.09-1.26.24-1.84.11-1.53-.35-3.1-.46-4.61-.31-1.42.15-2.91-.44-4.27.35-1.59-.32-3.09.02-4.59.54-.47.16-1.04.06-1.56.08-.63.02-1.25.07-1.88.03-.87-.05-1.19.82-1.86,1.03-.97.29-2.01.35-2.96.7-1.07.39-2.04.22-3.04-.15-.31.88-.77,1.46-1.74,1.59-1.03.13-2.04.38-3.05.63-.97.25-2.09.1-2.85.98-1.65-.36-3.04.53-4.55.9-.87.21-1.79-.07-2.67.6-.67.51-1.88,0-2.5.94-1.3-.12-2.37.86-3.6.86-1.74,0-3.24.97-4.84,1.1-1.7.14-2.99,1.62-4.78,1.18-.2-.05-.56.28-.74.52-.68.88-1.58,1.21-2.66,1.35-.82.11-1.59.53-2.4.76-1.46.42-2.64,1.19-3.51,2.47-.75,1.12-1.62,2.16-2.44,3.25.31,1.35.36,2.75,1.26,3.86.29.36.75.51,1.11.25.76-.54,1.38-1.5,2.2-1.71,1.92-.48,3.22-1.86,4.82-2.8.26-.15.56-.38.81-.35.61.08,1.14.35,1.73-.22.5-.48,1.39-.09,1.98-.69.36-.37.95-.35,1.45.02.12.09.41.08.53-.01,1.96-1.43,4.13-.51,6.21-.56.18,0,.37.18.55.28.44.23.54,1.04.14,1.34-.25.18-.53.39-.82.43-1.95.27-3.91.61-5.87.69-1.2.05-2.26.18-3.17.99-.66.58-1.4.92-2.3.77-.58-.1-.93.32-1.39.52-.65.28-1.48.23-1.78,1.03-.33.92-1.46.13-1.83.93-.39.84-1.12,1.1-2,1.24-.44.07-.65.82-1.29.74-.97-.13-.54.95-1.07,1.25-.44.25-.73.72-1.34.69-.3-.01-.67.07-.89.26-1.33,1.16-2.62,2.35-3.93,3.54-.19,1.24-1.53,1.69-1.94,2.79-1.9,1.15-1.78,3.18-2.13,4.98-.07.35.14.89.4,1.15.82.8,1.68,1.57,2.62,2.23,1,.7,1.97.54,2.8-.38.33-.37.61-.84.73-1.32.4-1.52.86-3,1.75-4.32.28-.42.35-.97.51-1.46,1.92.19,2.76-1.58,4.48-2.44,1.1.88,2.52-.42,3.94.21.31.14.87-.03,1.19-.24,1.21-.78,2.32-.68,3.33.29.5.47.88.4,1.32-.02.13-.13.37-.3.49-.26,1.49.53,3.08.38,4.59.71.94.2,3.09.29,4.08,0,.46-.13.76-.07,1.13.18.23.15.62.26.85.17,1.25-.51,2.46-.18,3.66.14,1.53.41,3.04.64,4.65.47,1.01-.11,2.07.13,3.1.27.83.11,1.78.09,2.43.52.76.5,1.55.19,2.3.46.72.25,1.62-.04,2.44-.02.52.01,1.05.27,1.55.21,1.09-.13,1.8,1.01,2.99.72,1.17-.28,2.13.69,3.21,1.02.83.25,1.53.39,2.4.21,1-.2,2.11-.35,3.07-.11.6.15.98.41,1.65.1.43-.19,1.18.38,1.67.24.89-.26,1.6-.09,2.41.25,1.06.44,2.33.5,3.26,1.11,1.01.67,1.73,1.78,2.59,2.69.29.3.57.67.94.82,1.4.58,1.59,1.83,1.83,3.07.1.5.11,1.08.38,1.46.91,1.22.56,2.61.68,3.93-.64.82.24,1.28.51,2.1-.29.83-.67,1.8-.96,2.8-.33,1.13-1.26,1.62-2.14,2.18-.46.3-1.17-.07-1.07-.59.31-1.6-.42-2.58-1.57-3.3-1.74.17-2.83,1.06-3.79,2.23-.72.88-1.61,1.64-2.35,2.5-.68.79-1.26,1.66-1.88,2.49.1,1.61-1.39,1.92-2.08,2.48-.74,1.8-.79,3.51-1.79,4.94-.19.27.21.95.34,1.45-.19-.03-.38-.08-.57-.09-.17,0-.34.05-.51.08.03.18,0,.41.11.52.11.11.44.17.51.1.17-.18.25-.45.37-.68Zm-126.65,262.65c.44.67.48.17.56-.19.71-.45,1.67.07,2.34-.64.15-.15.62-.1.89,0,.96.36,1.84.41,2.58-.44,1.19.04,2.21-.36,3.07-1.19.13-.13.4-.18.59-.17.62.03.94-.29,1.19-.81.27-.57.59-1.11.77-1.44-.26-1.06-.49-1.83-.63-2.63-.16-.91-.86-1.71-.53-2.72.05-.14-.1-.49-.21-.52-1.06-.25-1.44-1.04-1.78-1.97-.09-.25-.7-.43-1.08-.46-1.43-.08-2.46.9-2.91,1.93-.69,1.57-2.05,2.56-2.85,4.01-.62,1.11-1.66,1.42-2.67.71-1.42-1-3.1-1.15-4.85-1.9-.44-.96-.95-2.09-1.48-3.26-.49-.46-1.48-.33-1.69-1.19-.32-1.32-1.29-2.09-2.29-2.86-2.38-1.83-4.5-3.95-6.81-5.86-.38-.31-.48-1.05-.87-1.23-1.34-.6-1.97-1.73-2.61-2.91-.18-.35-.52-.68-.86-.86-.71-.36-1.05-1.01-1.46-1.6-.41-.6-.71-1.29-1.18-1.83-1.18-1.33-2.43-2.59-3.64-3.9-1.27-1.37-2.41-2.89-3.83-4.09-1.32-1.12-1.94-3-3.83-3.49-.16-.04-.3-.29-.38-.48-.7-1.53-2.33-2.39-2.89-4.03-.08-.25-.42-.53-.68-.57-.86-.16-1.05-.97-1.56-1.46-.41-.41-.23-1.26-.98-1.43-.86-.19-.82-1.34-1.42-1.5-1.15-.31-1.65-1.25-2.32-1.97-1.37-1.5-2.06-2.15-4.07-3.18-.17-.09-.44-.28-.42-.38.15-.68-.21-.97-.77-1.07-.83-.15-1.68-.22-1.84-1.3-1.14-.3-2.18-.7-2.51-2.02-.04-.16-.29-.37-.46-.37-1.43-.07-2.15-1.25-3.05-2.05-1.42-1.25-2.89-2.27-4.8-2.51-.51-.07-1.1,0-1.43-.49-.76-1.11-2.12-1.08-3.15-1.68-.71-.41-1.6-.93-2.31-.8-1.22.21-1.97-.57-2.91-.9-.25-.09-.33-.66-.5-1.02-.61.08-1.29.21-1.98.26-1.01.07-1.33-.83-1.81-1.34-.02-2.21-.73-4.51,1.34-6.13.55-.07,1.1-.04,1.58-.21,1.97-.72,3.43.09,4.75,1.46.87.9,1.78,1.76,2.62,2.69,1.18,1.3,2.47,2.15,4.37,1.9,1.32-.17,2.67.36,4.03.12,1.53.68,2.85-.24,4.24-.58.19-.05.35-.45.41-.71.03-.15-.15-.43-.31-.5-1.03-.5-2.12-.89-3.12-1.45-1.63-.91-3.15-2.03-5.12-2.2-.45-.04-.84-.67-1.31-.78-.41-.1-.93.31-1.35.23-.79-.15-1.35-1.07-2.3-.76-1.11.36-1.63-1.01-2.56-.88-.97.14-1.6-.49-2.29-.85-.88-.47-1.63.41-2.42-.02-.27-.14-.66-.1-.89-.28-.81-.65-1.82-.68-2.69-.59-.88.1-1.69-1.06-2.57-.07-.07.08-.43.02-.57-.09-.6-.44-1.2-.51-1.64.13-.63.93-1.57.19-2.33.5-.46.54-.81,1.33-1.41,1.61-1.62.77-2.66,1.94-3.22,3.62-.13.38-.41.75-.71,1.03-.52.48-.58,1.1-.65,1.72-.11.93-.23,1.86-.26,2.8-.03.93.37,2.01.02,2.76-.5,1.06.48,1.71.29,2.61-.14.64.09,1.21.56,1.72.34.38.61.86.81,1.33.24.54.02,1.01-.53,1.38-1.94-.23-2.43-2.32-3.81-3.26-.89.43-1.43,1.01-1.68,1.85l.05-.1c-.2.47-.26,1.11-.61,1.39-.99.79-.99,1.74-.77,2.83.19.95.77,1.91,0,2.9-.11.14.09.62.27.85,1.04,1.34.29,2.25-.67,3.14-1.51-.8-1.84-2.17-1.96-3.69-.09-1.16.25-2.24.36-3.35.13-1.22.02-2.45.42-3.66.28-.84-.88-1.77-1.56-1.21-.75.61-1.53.59-2.33.7-1.23.18-2.56.1-3.67.56-1.45.6-2.83.58-4.29.39-.92.98-2.14,1.28-3.36,1.61-1.53.41-3,.99-3.99,2.31-.55.73-1.33.98-2.13,1.25-1.16.39-1.94,1.17-2.44,2.29-.29.65-.62,1.22-1.17,1.78-.66.67-1.22,1.69-1.13,2.76.09,1.11-.22,2.34.85,3.21.85.69.37,1.53.14,2.31,1.08,1.5,2.2,2.97,2.55,4.85.03.18.13.45.26.5.95.32.57,1.5,1.29,1.95-.13,1.07,1.11,1.44,1.21,2.44.12,1.21.9,2.13,1.8,2.85,1.43,1.14,1.72,3.3,3.63,3.98.35,1.75,2.03,2.6,2.76,4.02.66,1.3,2.1,2.04,2.34,3.59.04.26.33.58.58.68,1.06.43,1.56,1.44,2.09,2.26.64.98,1.35,1.79,2.25,2.49-.32,1.76,1.52,1.33,2.2,2.1.88.99,2.1,1.61,2.68,2.97.34.78,1.17,1.56,1.97,1.89,1.71.7,2.59,2.03,3.41,3.59.37.09.77.19,1.17.28.71.16.3.9.67,1.25,1.01.98,2.56,1.54,2.54,3.31,1.38.98,2.16,2.55,3.4,3.61,1.4,1.19,2.25,2.68,3.15,4.18.21.35.38.84.71,1,1.01.5,1.4,1.54,2.13,2.26.74.73,1.33,1.53,1.42,2.64.02.2.43.41.7.54.28.14.47.23.6.58.76,1.97,2.33,3.37,3.6,4.99,1.23,1.55,2.54,3.01,4.14,3.9,1.19.06,2.22.11,3.25.15.41.02.9.14,1.22-.03,1-.53,2.17-.64,3.06-1.52,1.18-1.17,2.78-1.94,3.86-3.17,1.04-1.19,2.83-.7,3.68-2.04.07-.11.38-.12.56-.08,1.92.38,3.93.18,5.78,1.08,1.2.58,2.49,1.05,3.79,1.39,2.84.75,5.2.47,8.62-.73.31-.11.76.16,1.15.25-.08.05-.19.09-.25.16-.03.04,0,.14,0,.21.05-.14.09-.28.14-.42.81-.22,1.61-.53,2.43-.65,1.44-.22,2.81-.72,4.07-1.32,1.83-.87,3.21-2.53,5.16-3.27.45-.91,1.36-1.26,2.15-1.77,1.1-.71,1.87-1.98,3.4-1.97.94-.82,1.89-1.62,2.8-2.46.4-.38.6-.96.28-1.42-.28-.4-.75-.73-1.21-.9-.35-.13-.84-.04-1.22.09-.93.3-1.84.45-2.75-.02-.88.56-1.73-.47-2.61-.06-2.65-.32-5.35-.28-7.96-1.03-.7-.2-1.42-.18-1.98-.78-.18-.19-.57-.32-.84-.29-1.3.14-2.49-.08-3.56-.89-.14-.1-.44-.14-.58-.06-.66.41-1.19.09-1.76-.2-.56-.28-1.15-.68-1.73-.69-1.35-.04-2.28-.82-3.28-1.36-.01-.8.39-1.29.93-1.17,1.71.39,3.55-.14,5.18.8.33.19.81.13,1.21.22,1.91.44,3.9.51,5.72,1.31.57.25,1.15.45,1.74.64.38.13.83.38,1.16.27,1.31-.43,2.42-.02,3.59.51.93.42,1.96.63,2.95.93.58-.55,1.3-.42,2-.49,1.13-.12,2.25-.39,3.39-.48.46-.04.94.23,1.44.37.44-.46.68-1.32,1.67-.96.26.1.65.16.86.04.91-.53,1.75-1.2,2.87-.46.06.04.32-.16.45-.29.29-.29.55-.6.84-.94.45.2.82.36,1.28.56.57-.53,1.17-1.08,1.73-1.59.92-.23,1.94.77,2.65-.38.82-.1,1.64-.2,2.46-.31Zm96.53-196.98l-.06-.03c.35.52,1.64.09,1.3,1.3,1.1,1.27.68,2.52-.14,3.69-.3.43-.75.77-.69,1.33.31,2.89-.77,5.81.16,8.7.06.19.09.46,0,.62-.66,1.26-.22,2.45.25,3.6.29.72.22,1.41.25,2.13.03.76-.1,1.39-.42,2.08-.37.79.2,1.45,1.04,1.28.74-.16,1.39-.24,2.12.13.83.43,1.74.69,2.51.98,1.89-.67,3.68-1.26,5.43-1.95,1.18-.46,1.55-1.55,1.68-2.7.07-.61.05-1.24.12-1.85.09-.72.19-1.45.36-2.16.14-.59.68-1.28.5-1.72-.37-.95.58-1.07.71-1.58.29-1.2.42-2.44,1.04-3.54-.12-2.2,1.58-4.12.98-6.39-.02-.08.06-.2.1-.29.7-1.96,1.47-3.89,2.08-5.88.42-1.39.62-2.84.92-4.26-.79-2.19.35-4.61-.78-6.76.34-1.67-.72-3-1.09-4.49-.36-1.45-.25-3.05-1.38-4.26-.19-.2-.24-.6-.22-.9.11-1.59-.12-3.06-.94-4.48-.32-.56-.31-1.39-.24-2.08.09-.86-.03-1.66-.28-2.47-.15-.49-.37-1.1-.22-1.52.44-1.18-.15-2.25-.26-3.34-.25-2.47-1.02-4.88-.73-7.42.08-.67-.36-1.4-.56-2.1.38-.84.38-.86-.42-1.16-.56-2.41-2.08-4.43-2.68-6.84-.38-1.52-.56-1.47-.28-3.45.73-.22,1.29.22,1.57.71.49.86,1.16,1.59,1.21,2.79.06,1.26,1.5,2.21,1.37,3.74-.03.35.59.85,1.01,1.11.3.18.81.16,1.16.04.37-.13.85-.43.94-.76.43-1.51,1.5-2.47,2.65-3.38.67-.54,1.14-1.17,1.23-2.08.04-.37.53-.67.63-1.05.28-1.04,1.38-1.55,1.65-2.5.36-1.27,1.09-2.24,1.92-3.2.55-.64,1.1-1.32,1.1-2.22-.02-2.06.94-3.81,1.78-5.56.7-1.47,1.06-3.17,2.49-4.22.1-1.13.8-1.86,1.65-2.5-.12-1.2.87-1.83,1.39-2.71.21-.36.44-.74.54-1.13.31-1.26.97-2.29,1.88-3.2.36-.36.66-.82.87-1.29.37-.83.93-1.36,1.81-1.62.4-.12.76-.41.61-.92-.2-.7.13-1.21.49-1.74.52-.76,1.03-1.52,1.55-2.29-.95-1.44-2.19-2.38-3.31-3.37-1.32-.17-2.59-.09-3.74-.74-.67-.38-1.38-.26-2.13-.14-1.85.31-3.77.39-5.57-.08-1.59-.42-3.2-.78-4.76-1.29-.69-.22-1.36-.46-2.14-.21-.47.15-1.03.01-1.55-.03-.93-.08-1.93-.02-2.78-.35-.96-.38-2.16.53-2.92-.61-.92-.06-1.88,0-2.76-.23-.8-.21-1.72.01-2.32-.3-.95-.49-1.86-.05-2.76-.34-2.19-.71-4.56.31-6.74-.68-.24-.11-.62,0-.9.1-1.03.38-1.98.3-3.05.01-1.07-.28-2.26-.03-3.3-.71-.27-.18-.8.06-1.21.07-.51,0-1.07.1-1.53-.06-.73-.25-1.39-.35-2.13-.09-.27.1-.77.12-.89-.03-.65-.82-1.29,0-1.92-.04-.62-.04-1.25.08-1.87.08-2.13,0-3.8.74-4.85,2.69-.29.54-1.03.96-.84,1.6.27.9-.31,1.33-.69,1.92-.56.88-1.4,1.78-1.47,2.72-.1,1.37-.89,1.95-1.79,2.61-.12.09-.03.43-.13.58-1.07,1.5-1.49,3.31-2.36,4.91-.89,1.64-1.91,3.2-2.86,4.8-.58.98-1.37,1.92-1.65,2.98-.35,1.33-1.55,1.94-2.1,3.08-.58,1.2-1.37,2.34-2.3,3.29-1.01,1.04-2,2.02-2.43,3.46-.08.26-.4.56-.67.64-.91.26-1.33.82-1.46,1.74-.09.61-.55,1.2-.52,1.78.04,1.05-1.08.78-1.4,1.48-.72,1.59-1.68,3.06-2.85,4.4-.37.43-.49,1.12-.62,1.72-.32,1.39-1.17,2.67-.93,4.19-.86.82-.65,1.83-.66,2.88-.01,1.32-.03,2.78-.69,3.91-.88,1.51-.78,3.53-2.39,4.66-.12.09-.11.39-.13.6-.11,1.2-.66,2.19-1.45,3.08-.2.22-.44.51-.45.77-.03,1.14-.82,1.87-1.32,2.77-.51.92-.91,1.86-1.69,2.6-.29.28-.55.66-.66,1.04-.8,2.8-2.94,4.93-3.84,7.67-.21.64-.62,1.05-1.31,1.2-1.39.31-2.03,1.38-2.44,2.61-.46,1.38-.89,2.77-1.8,3.95.27.94-.77.73-1.05,1.19-.38.62-.19,1.39-.69,2.03-.35.45-.45,1.18-.45,1.79,0,.78-1.37.63-.98,1.65.13.33-.05.82-.19,1.19-.55,1.48-1.12,2.93-.41,4.55.18.42-.02,1.03-.11,1.54-.1.55,0,.98.39,1.41.32.35.09.74-.15,1.13-.14.22-.19.68-.06.85.42.55.23.92-.14,1.36-.19.23-.43.64-.35.83.71,1.52-.43,2.8-.44,4.33.56.08,1.19.29,1.78.21,1.33-.18,2.64-.52,3.97-.79.57-.11,1.07-.11.95.71.2,0,.43.09.58.01.27-.13.49-.36.73-.55.43.09.85.15,1.25.27.61.17,1.19.45,1.8.56,1.08.2,2.06.23,2.41-1.22.21-.85,1.47-.61,1.88-1.53.19-.43,1.22.03,1.69-.54,1.35.88,2.82-.21,4.07.35.82-.59,1.54-1.03,2.16-1.57.98-.85,1.58-1.92,1.65-3.26.04-.67-.08-1.33-.66-1.65-1.63-.9-1.16-2.17-.83-3.55.27.15.42.21.55.31.72.58,1.39,1.21,2.14,1.73.93.64.69,1.64.93,2.5.03.09.12.17.2.23.43.36.62.79.59,1.37-.12,2.2.37,4.31.95,6.48.75.18,1.63.21,2.3.6,1.01.59,2.05.84,3.17,1.11,1.32.32,2.66.41,3.96.72,1.39.33,2.69.99,4.06,1.44,2.07.68,4.24,1.07,6.19,2.13.1.06.35-.11.5-.21.06-.04.11-.24.09-.26-1.06-.76-.68-1.92-.67-2.88.02-1.31-.31-2.66.31-3.93-.36-1.05.18-2.07.12-3.09-.06-1.09.28-2.07.44-3.1.15-.99.49-1.99-.02-2.98.76-.81.9-1.79.88-2.86,0-.21.61-.52.98-.61.18-.04.62.26.67.48.51,2.01,1.06,4,.38,6.13-.21.65-.09,1.42-.56,2.04-.49.66-.2,1.4-.2,2.12,0,.8-.52,1.67-.36,2.4.2.87-.08,1.65.02,2.47.09.8-.37,1.56-.1,2.42.23.75.19,1.59.28,2.52.73.27,1.48.72,2.27.83,1.86.24,3.63.68,5.33,1.47.37.17.92.35,1.21.2,2.01-1.04,3.42,1.14,5.25.92.56,1.24,1.61,1,2.66.94.5-.03,1.06.12,1.5.36.3.16.44.61.69.99.3-.04.75,0,1.12-.16.35-.15.86-.46.89-.75.16-1.29.77-2.6-.02-3.9-.61-1.01.51-2.28-.47-3.25-.12-.12-.16-.43-.1-.59.56-1.43.14-2.83.03-4.26-.08-.97-.24-2.14.44-2.95.74-.87.08-1.72.26-2.55-.72-.82-.35-1.72-.25-2.64.1-.9-.21-1.85.26-2.71.56-.04,1.09-.07,1.61-.1Zm170.33,100.59c1.21-.24,2.36-.68,3.68-.36.98.24,2.08.05,3.12.02.59-.02,1.27-.33,1.76-.13,1.36.53,2.68.16,4.02.07,2.22-.14,4.38.1,6.28,1.39.5.34.97.73,1.46,1.1,1.62-.61,3.14-.64,4.69-.15.68.21,1.64.44,2.15.13,1.1-.66,2.23-.33,3.32-.5.82-.13,1.67-.04,2.5-.05.6-1.05,1.7-.53,2.53-.84.66-.24,1.24-1,1.85-.99.98.02,1.7-.5,2.51-.79.85-.3,1.62-.8,2.6-.72.25.02.54-.27.8-.43.72-.42,1.44-.84,2.14-1.27,1.78-1.09,3.62-2.1,4.89-3.84.96-1.32,1.36-2.99,2.79-4.04.4-.29.54-1.13.56-1.73.05-1.24-.07-2.5-.11-3.74-.03-.91-.05-1.83-.07-2.85.58-.21,1.05-.5,1.54-.52,1.24-.07,2.5.11,3.72-.06,1.13-.15,2.21-.81,3.38-.5,1.42.38,2.24-1.07,3.52-1.02.1,0,.22.03.31,0,1.01-.28,5.97-2.52,6.91-3.26.56-.44,1.47-.37,1.74-1.21,2.2-.43,3.47-2.11,5.11-3.67-1.08-.47-.84-1.18-.49-1.87.24-.46.63-.83.87-1.29.2-.37.23-.8-.18-1.13-.15-.12-.35-.42-.31-.47.64-.8.2-1.88.65-2.68,1.18-2.07,1.15-4.6,2.61-6.56.17-.23.17-.6.2-.91.03-.51-.06-1.04.05-1.53.09-.41.41-.77.57-1.06-.32-.25-.75-.46-.72-.57.18-.71.46-1.39.7-2.08-.65-.61-.27-1.38-.21-2.04.19-1.98.44-3.95.8-5.9.28-1.51-.09-3.18,1.03-4.51.15-.17.08-.64-.03-.9-.66-1.51.5-2.79.47-4.21,1.02-.84,1.1-1.94.93-3.14-.03-.19.01-.47.13-.59.95-.95.95-2.3,1.47-3.4.3-.63,1.03-1.12.74-1.91-.37-1.01.98-1.4.73-2.27-.23-.79.21-1.43.31-2.14.12-.84.23-1.71.79-2.34.66-.75-.46-1.27-.09-2.02.36-.72.34-1.63.67-2.38.55-1.23.46-2.59,1.03-3.86.57-1.28,1.46-2.53,1.31-4.07,1.38-1.5,1.62-3.48,2.17-5.32.05.08.09.18.16.24.04.03.13,0,.2,0-.13-.05-.27-.11-.4-.16,0-.62,0-1.24,0-1.86,0-.61-.2-1.34.05-1.82.39-.73-.26-1.13-.24-1.7.05-1.74-.14-3.49.36-5.19-.5-.98.2-1.82.33-2.73.13-.93.21-1.88.5-2.76.66-1.97,1.52-3.88,2.14-5.86.53-1.66.94-3.38,1.22-5.1.39-2.4-.17-4.77-.44-7.14-.03-.3-.19-.6-.34-.86-.28-.5-1.37-.59-1.9-.16-.24.19-.51.64-.65.6-1.06-.32-1.74.76-2.55.74-1.12-.03-1.93.79-2.95.75-1.06-.04-1.57,1.04-2.5,1.15-2.31.27-4.46.95-6.42,2.23-.15.1-.44.15-.58.07-.83-.5-1.29.13-1.89.52-.86.56-1.8,1.02-2.89.67-.43-.14-.8-.07-1.12.29-1.21,1.33-2.89,1.56-4.53,1.84-.41.07-.79.07-1.15.35-.56.45-1.17.84-1.71,1.21-.87-.04-1.65-.04-2.29-.53-.33.43-.58.76-.73.95-1.17.05-2.32-.17-3.22.21-1.4.58-2.85.53-4.27.8-.11-.2-.15-.68-.47-.13.17.01.35.02.52.04-.16.78-.79.9-1.43.96-1.19.11-2.5-.4-3.48.72-1.03.1-2.08.11-3.09.32-1.07.23-1.98,1.08-3.17.92-.1-.01-.22-.06-.31-.03-1.73.53-3.52-.2-5.26.28-.18.05-.43-.02-.6-.13-.75-.46-1.34-.08-2.01.25-.71.35-1.51.48-2.24.84-1.16.59-2.35.5-3.45-.12-.14.28-.28.78-.42.78-2.45.04-4.51,1.53-6.9,1.77-.76.71-1.72.53-2.62.71-.8.16-1.57.67-2.44.88-1.91.45-3.87.6-5.81.74-1.62.12-3.15.93-4.82.58-1.22,1.1-2.78.75-4.2.98-1,.16-2.12.04-2.93.64-.64.47-1.23.59-1.97.69-1.13.14-2.4.25-3.29.85-1.08.73-1.97.41-2.99.18-.64.83-1.19,1.67-2.54,1.38-.77-.17-1.65.07-2.45.26-.46.11-.85.51-1.27.79-.89-.67-1.74-.28-2.59.1-.55.24-1.06.46-1.73.18-.43-.18-1.1-.17-1.5.04-.94.5-2.05.06-2.96.79-.99.8-2.23.1-3.36.19-.1,0-.22.02-.29.08-.98.89-2.14.55-3.26.51-.52-.02-1.24-.22-1.52.03-.82.74-1.83.33-2.7.66-.96.37-1.89.64-3.03.28-.74-.23-1.62.51-2.58.5-1.54,0-3.09.24-4.57.8-.47.18-1.04.31-1.52.23-.84-.14-1.65-.36-2.47,0-.69.31-1.49-.52-2.1.15-.79.86-1.56-.14-2.33.07-.2.05-.44.06-.59.18-1.13.92-2.48,1.03-3.82.86-.83-.11-1.38.5-2.08.52-.81.02-1.63-.23-2.45-.25-.4-.01-.81.19-1.21.32-.89.29-1.73.75-2.74.39-.45-.16-.7.29-1.01.58-.29.27-.73.59-1.06.55-.75-.1-1.43-.1-2.1.3-.73.43-1.67-.05-2.39.55-.79.65-1.62-.29-2.41-.01-.77.27-1.21,1.17-2.17,1.16-.72,0-1.48,0-2.17.18-1.11.3-2.16.93-3.28,1.08-1.26.17-2.43.28-3.43,1.21-.29.27-1.16-.11-1.49.15-1.44,1.12-3.38,1.24-4.76,2.28-1.06.8-2.27,1.04-3.35,1.66-1.25.71-2.91.57-3.86,1.91-.09.13-.4.21-.58.18-1.26-.19-2.23.34-3.08,1.2-1.12-.26-1.9.45-2.74.97-.09.05-.2.07-.3.08-2.24.19-4.09,1.36-6.06,2.27-1.11.51-1.85,1.27-2.38,2.18.01.25-.02.38.03.45.59.86,1.01,2.02,1.83,2.49,1.08.62.22,2.14,1.51,2.47.24.06.5.43.59.7.47,1.6,1.08,3.25.72,4.9-.28,1.3-.07,2.72-.87,3.92-.19.29-.07.79-.05,1.2.03.52.31,1.13.13,1.54-.57,1.28.05,2.4.26,3.59.22,1.22.09,2.53,1.02,3.71.35.18.82.41,1.27.67,1.78,1.04,3.74,1.77,5.38,3.08,1.37,1.11,2.7,2.24,3.83,3.62.48.59.05.92-.06,1.25.86,1.11,1.67,2.16,2.45,3.18.46.08.87.21,1.28.23,1.89.07,3.41.73,4.27,2.54.05.11.37.1.56.15l-.1-.06c.18.09.38.27.55.24.72-.13,1.44-.29,2.14-.49.76-.22,1.29.78,2.04.38.88-.48,1.1.87,1.89.62.14-.25.38-.74.41-.73,1.31.54,2.88.08,4.06,1.09.29.25.76.59,1.04.51,1.75-.49,3,.35,4.29,1.32.46.35,1.14.54,1.74.58,1.87.14,3.74.17,5.5.23,1.13-.78,1.99-1.82,3.44-1.56.7-.47,1.49-.58,2.29-.76.77-.18,1.4-.85,2.15-1.17.84-.36,1.37-.91,1.65-1.76.76-2.34,2.22-4.26,3.88-6.02,1.79-1.9,3.69-3.69,5.75-5.3,1.48-1.15,3.03-2.29,4.23-3.71,1.6-1.9,3.62-3.18,5.75-4.13,2.6-1.16,4.95-3.11,8.01-3.09,1.3-1.33,3.14-.65,4.66-1.24.68-.27,1.45.05,2.03.56.13.12.26.4.21.53-.11.27-.34.7-.52.7-1.48.03-2.91.2-4.3.73-2.64,1-5.31,1.95-7.96,2.93-1.08.4-2.07.93-3,1.65-1.82,1.39-3.69,2.73-5.65,3.91-3.73,2.25-6.55,5.49-9.57,8.51-.36.36-.73.77-.56,1.38-.14.13-.27.26-.41.39l.27.1c.01-.18.03-.35.04-.53.54-.27,1.14-.48,1.62-.82,1.93-1.38,3.82-2.83,5.75-4.2.47-.33,1.08-.47,2.01-.86-.82,1.11-1.59,1.61-2.34,2.17-.8.59-1.89.92-2.17,2.07-.47.24-.94.47-1.68.84,1,.05,1.5-.13,1.56-.9.39-.03.78-.06,1.48-.12-.55.75-1.13,1.2-1.22,1.74-.17,1-1.05.79-1.57,1.18l.26.72c-1.5,1.58-3,3.17-4.38,4.64.05.43.21.81.09.94-1.63,1.9-3.3,3.77-5.07,5.78.45-.05.68,0,.85-.1,1.55-.85,3.08-1.73,4.62-2.6,1.37-.78,2.58-1.75,3.63-2.94,2-2.27,4.05-4.49,6.11-6.7.78-.83,1.64-1.6,2.48-2.36.12-.1.42-.11.57-.03.1.05.11.32.12.5,0,.09-.08.2-.14.27-1.9,2.09-3.81,4.18-5.71,6.28-.48.52-.94,1.06-1.75,1.97.87-.25,1.26-.34,1.63-.46.29-.1.45-.8,1.01-.05-.81.45-1.61.87-2.38,1.34-.89.54-1.85,1.02-2.61,1.72-.62.58-1.65.97-1.58,2.17.36-.02.71.05.97-.08,1.5-.72,3.18-1.05,4.52-2.14.38-.31.95-.4,1.45-.52.13-.03.4.16.46.31.05.14-.03.46-.15.53-1.17.68-2.34,1.37-3.55,1.98-.84.42-1.75.7-2.6,1.11-.49.23-.81.66-.77,1.32.29,0,.63.11.87,0,1.24-.56,2.5-1.08,3.65-1.79.83-.52,1.67-.87,2.61-1,.48-.06,1.01-.06,1.35.43-.07.09-.11.23-.2.26-3.44,1.3-6.52,3.29-9.71,5.08-.89.5-1.85,1.05-2.45,1.83-1.25,1.6-2.93,2.66-4.45,3.99.69.72,1.49.68,2.23.22.62-.38,1.13-.93,1.69-1.41,1.52-1.28,3.08-2.51,4.86-3.43,1.95-1,3.99-1.89,5.79-3.11,1.38-.93,3.1-1.35,4.15-2.76,2.92-1.82,5.84-3.66,8.77-5.45.67-.41,1.4-.37,2.05.15-.09.74-.65,1.04-1.23,1.3-.86.39-1.79.64-2.59,1.12-2.7,1.6-5.35,3.27-7.64,5.44-1.2,1.14-2.65,2.04-3.56,3.47.35.34.62.81.96.88.47.08,1.1,0,1.47-.27,1.39-1.01,3-1.51,4.57-2.07,1.7-.61,3.24-1.46,4.63-2.61,2.5-2.06,5.01-4.1,7.52-6.15.34-.28.69-.64,1.28-.3-1.55,1.5-3.05,2.94-4.55,4.4-.14.14-.23.34-.32.52-.02.04.07.13.15.26.26-.08.62-.09.82-.27,2.33-2.07,5.03-3.7,7.16-6.01.42-.46.89-.93,1.43-1.22,1.4-.73,2.56-1.71,3.63-2.85.58-.62,2.64-1.54,3.67-1.75-.21.67-.23,1.38-.6,1.79-1.59,1.78-2.94,3.8-5,5.12-1.23.79-2.34,1.69-3.25,2.87-.49.64-1.04,1.33-2.03,1.35-.22,0-.47.34-.64.58-1.25,1.74-3,2.54-4.89,2.7-.86.69-1.51,1.5-2.35,1.81-1.5.55-2.26,1.82-3.22,2.88-.48.53-.74,1.23-1.44,1.6-.67.35-.42,1.38-1.24,1.72-.83.34-.79,1.78-2.01,1.73,0,1.2-1.69,1.26-1.68,2.48-.71.59-1.43,1.17-2.13,1.78-2.67,2.32-4.84,5.16-7.69,7.3-1.75,1.31-3.36,2.8-4.9,4.36-.51.52-.58.49-1.83.4.19-1.44,1.04-2.44,2.08-3.4,1.48-1.38,3.49-2.34,3.91-4.63.03-.16.31-.26.45-.41,2.27-2.57,4.8-4.88,7.29-7.23.45-.42,1-.75.96-1.48-1.76-.2-2.77,1.36-4.27,1.79-1.63.47-2.96,1.52-4.39,2.38-1.33.8-2.08,2.34-3.63,2.91-.71-.76-1.47-.49-2.29-.19-.4.15-.79-.07-.83-.67.74-.65,1.52-1.34,2.33-2.04-.42-.18-.74-.33-1.08-.47q1.02-1.52.92-1.96c-.71-.38-1.42-.76-2.22-1.19-.86.46-1.76.94-2.69,1.43-.06-.36-.1-.56-.15-.85-.68.02-1.37.05-2.1.08-.16,1.08-.26,2.13-.5,3.14-.14.59-.45,1.16-.78,1.67-.11.18-.52.17-1.03.32.23-.79.44-1.35.55-1.93.21-1.12.36-2.25.54-3.37-.79-2.07.06-3.88.91-5.68.75-1.6,1.19-3.28,1.45-5.26-.57.4-.92.73-1.33.92-.47.22-1.01.28-1.49.47-.68.27-1.4.5-1.99.92-.97.69-1.87,1.41-3.11.62-.51.3-1.02.6-1.53.91-.78-.64-1.68-1.01-1.95-1.99,1.17-1.19,2.79-1.06,4.16-1.6.16,0,.18.57.45.11-.17,0-.34,0-.5,0-.21-.57-.42-1.13-.61-1.65-1.58-.36-2.99-.66-4.4-1.01-.65-.16-.9-.78-.68-1.49.18-.57.54-.83,1.16-.78.38.03.85.22,1.13-.36-.42-.4-.79-.99-1.31-1.2-1.25-.5-2.56-1.12-3.85-1.13-1.14,0-2.02-.37-2.92-.85-.36-.19-.64-.45-1.1-.37-2.15.38-4.34-.21-6.49.23-.06-.07-.11-.16-.18-.21-.04-.03-.12-.02-.18-.03.13.05.27.09.4.14-.36,1.06-1.32,1.9-1.1,3.19.04.23-.24.65-.47.76-1.07.48-1.2,1.64-1.98,2.56,1.96-.74,3.61-.49,5.07.86.71.66,1.6.9,2.58.96.91.05,1.92-.01,2.52.95.9.14,1.83.2,2.7.45.55.16,1.02.63,1.52.96.7-1.06,1.63-.51,2.51-.38q-.13,1.47-1.86,2.71c-.96-.09-1.9-.19-2.84-.28-.84-.07-1.61-.17-2.27-.86-.4-.42-1.1-.59-1.67-.82-1.14-.47-2.39-.77-3.42-1.41-1.18-.73-2.47-.21-3.6-.65-.75-.29-1.41-.31-2.12-.07-.83.28-1.75.39-2.39-.17-.88-.77-1.71-.49-2.7-.23-.35,1.74-.38,3.54.3,5.21.69,1.71.57,3.67,1.71,5.24.25.34.11,1,.06,1.51-.04.41-.39.88-.26,1.19.51,1.23-.25,2.2-.5,3.28-.08.33-.89,4.04-.88,4.37.01.41.11.84.03,1.23-.33,1.5-2.12,4.11-3.37,5.08-1.21.93-2.65,1.29-4.09,1.46-.99.12-1.71.44-2.5,1.06-.92.73-1.87,1.7-3.35,1.36-.37-.09-.96.36-1.31.7-1.91,1.81-3.46,3.89-4.81,6.16-1.05,1.76-1.52,3.84-2.99,5.37-.12.13-.2.4-.16.58.29,1.18-.44,2-.97,2.89-.13-.13-.2-.56-.46-.1l.48.04c-.34,1.24-1.17,2.24-2.01,3.1-.62.64-1.15,1.16-1.12,2.08-1.12,1.26-.88,3.28-2.39,4.32-.18.99-.14,2.09-1.24,2.65-.17,1.39-1.2,2.12-2.22,2.83-1.04.73-1.44,1.7-1.26,3.09.7.04,1.41.09,2.12.11,1.99.07,3.9-.54,5.88-.64,2.59-.12,5.24,0,7.64-1.29,2.57-.02,4.85-1.15,7.23-1.9.82-.26,1.61-.32,2.45-.38.56-.04,1.07-.57,1.64-.68.7-.14,1.43-.07,2.15-.1.41-.36.34-1.34,1.29-.97,1.15-.72,2.65.12,3.79-.89.24-.21.97.24,1.48.24.63,0,.82-.96,1.6-.81.65.13,1.34-.61,1.99.05.74-.32,1.46-.79,2.24-.9.56-.08.91-.43,1.36-.55.42-.11.93.14,1.42.24.66-.54,1.18-1.56,2.3-.75.64-.73,1.74-.15,2.31-.68.73-.69,1.5-.73,2.31-.56.8.17,1.29-.06,1.95-.55.71-.52,1.72-.7,2.62-.89,2.51-.53,5.05-.89,7.55-1.49.81-.2,1.7-.87,2.64-.14.13.1.53-.15.8-.24.48-.17,1.01-.57,1.41-.47,1.03.26,1.83-.33,2.73-.47.92-.14,1.86-.1,2.74-.55.55-.28,1.17-.51,1.78-.6.91-.13,1.87-.23,2.77-.11.97.13,1.63-1.09,2.64-.48,2.45-.31,4.86-1.01,7.37-.68.39.05.62-.71,1.06-.38.9.67.66-.28.92-.56.11-.12.35-.13.53-.19.3.93.76.62,1.24.17.44-.41.95-.45,1.44-.18.85.47,1.76-.59,2.61.11.06.05.45-.1.5-.23.26-.73.81-.68,1.45-.8,1.04-.19,2-.44,3.05-.03.33.13.8-.08,1.2-.19.91-.25,1.6-1.51,2.76-.59.92-.99,2.31-.71,3.4-1.23,1.19-.56,2.57-.62,3.66-1.42,2.97-.5,5.23-2.31,7.46-4.13.73-.6,1.37-1.26,2.34-1.47.4-.09.82-.28,1.12-.55.63-.59,1.3-.84,2.19-.97.87-.13,1.62-.92,2.49-1.24.54-.2,1.21-.05,1.82-.06.35.39.56.4.55-.2Zm-221.17-44.7c.03,1.16-.59,1.95-1.46,2.6-.9.67-1.8,1.36-2.7,2.04-.16,1.46-1.57,1.88-2.4,2.77-.61.65-1.59.94-2.23,1.57-.72.72-1.17,1.7-1.85,2.45-1.61,1.78-3.28,3.51-4.96,5.23-2.5,2.55-4.77,5.26-6.88,8.15-2.21,3.04-4.29,6.19-7.12,8.75-1.16,1.05-2.11,2.32-3.26,3.37-1.08.99-2.23,1.93-3.47,2.68-.76.46-1.75.58-2.66.75-1.01.19-1.98.26-2.96.79-.87.47-2.03.44-3.06.52-.66.05-1.19.31-1.73.63-1.2.71-2.49,1.09-3.77.91-.55.55-.93,1.09-1.46,1.4-.4.24-.98.16-1.48.25-.31.06-.7.08-.88.27-1.19,1.27-2.9,1.61-4.34,2.42-1.58.88-2.86,2.33-4.89,2.34-.39,0-.86.55-1.15.95-.32.44-.6.93-1.17.91-1.02-.04-1.71.55-2.55.94-1.42.66-2.55,1.78-4.01,2.3-2.26.81-4.2,2.28-6.44,3.16-.58.23-1.16.41-1.75.5-.81.12-.55,1.09-1.13,1.32-1.74.71-3.32,1.71-4.92,2.66-.24.14-.62.13-.92.1-.48-.05-.43.29-.52.58-.25.77-1.24.49-1.63,1.18-.35.62-.91,1.14-1.43,1.65-.21.2-.58.37-.86.34-1.17-.12-1.87.81-2.8,1.19-.82.34-1.59.84-2.32,1.35-.85.6-1.63,1.3-2.46,1.94-.24.19-.52.34-.79.5-.63.37-1.35.64-1.86,1.13-.72.69-1.65.07-2.37.58-.39.28-1.04.25-.96,1.05.21.15.46.32.7.49,1.53,1.09,3.05,2.19,4.58,3.28.17,1.35,1.57,1.22,2.31,1.88.84.76,1.81,1.46,2.84,1.91,2,.88,3.91,1.95,5.95,2.78,2,.83,4.08,1.8,5.56,3.46,1.59,1.78,3.39,3.38,4.78,5.33,2.71,3.82,5.39,7.67,8.05,11.52.59.85,1.05,1.8,1.64,2.66,1.96,2.83,4.35,5.36,5.96,8.44.14.27.39.5.63.69.57.45,1.12,1.12,1.77,1.25,1.07.22.68,1.37,1.48,1.76,1.1.54,2.08,1.34,3.1,2.01-.14.38-.25.68-.41,1.09.49.16.99.29,1.46.47.62.23.55.8.59,1.3.96.08,1.37.85,1.85,1.51.94,1.27,2.04,2.33,3.77,2.85.35-.11.87-.21,1.34-.42.96-.41,2-.73,2.83-1.34,1.01-.74,2.2-.39,3.27-.86,2.9-1.28,2.48-.29,8.02-4.57.16-.12.4-.28.55-.24,1.03.25,1.46-.64,2.13-1.07.79-.5,1.62-.95,2.44-1.42,1.28.29,2.03-.88,3.14-1.14,1.21-.28,2.36-.86,3.51-1.37.52-.23.92-.93,1.58-.28.64-.24,1.15-.66,1.97-.54,1,.15,2.07,0,3.1-.11.7-.07,1.47.07,2.07-.55.19-.2.6-.37.86-.32,1.05.22,2.01.19,2.86-.55,2.41.15,4.72-.65,7.12-.69.73-.01,1.41-.22,2.09.21.46.29.75-.29,1.05-.31.99-.07,1.89-.98,2.96-.31.37.23.84.2,1.13-.19.39-.53,1-.46,1.41-.34,1.2.34,2.26.09,3.3-.45.8-.41,1.58-.45,2.39-.02.14.08.39-.04.59-.07.46-.41.92-.82,1.1-.98,1.08-.14,1.86-.07,2.47-.36.68-.32,1.35-.49,2.08-.61.82-.13,1.62-.39,2.41-.65,1.7-.56,3.41-1.06,5.19-.67.25-.39.46-1,.67-1,1.92.04,3.54-1.46,5.51-1.03,1.09-.56,2.49-.47,3.35-1.56.17-.21.59-.45.8-.38,1.39.46,2.32-.86,3.53-.87.9,0,1.4-.79,2.26-.88.54-.06,1.01-.66,1.52-1.01.42-.29.82-.73,1.28-.8,1.35-.21,2.47-.85,3.62-1.51,1.25-.72,2.85-.79,3.8-2.07,1.42-.39,2.56-1.3,3.79-2.04.71-.43,1.4-1.15,2.14-1.22.94-.08,1.49-.67,2.16-1.07,1.17-.69,2.31-1.47,3.6-1.88,1.39-.44,2.52-1.42,3.95-1.77.37-.09.67-.46,1.03-.6.45-.18,1.04.13,1.4-.44.89-1.4,2.7-1.5,3.77-2.64,1.62.03,2.49-1.27,3.54-2.13,1.35-1.11,2.93-2,3.9-3.54.64-1,1.5-1.68,2.54-2.25.8-.44,1.46-1.16,2.13-1.8.19-.18.35-.52.33-.77-.12-1.33.54-2.53.51-3.89-.04-1.88.53-3.7,1.85-5.19.24-.27.27-.73.36-1.11.09-.4.05-.83.18-1.21.43-1.28,1.02-2.52,1.35-3.83.32-1.28.78-2.53,1-3.83.02-.12.3-.2.6-.39.4.55,1.08,1.08,1.17,1.69.12.82.69,1.72,0,2.59-.18.23-.23.59-.27.89-.16.99-.64,1.87-.76,2.91-.11.99-.81,1.91-1.19,2.88-.41,1.05-.77,2.12-1.07,3.2-.05.16.31.49.54.66.11.08.4-.01.55-.11.17-.11.35-.29.39-.47.6-2.58,3.36-4.12,3.36-6.99,0-.17.19-.38.35-.51.6-.5.65-1.41,1.11-1.84.88-.82.46-2.03,1.17-2.81.42-.46.8-.98,1.28-1.37.71-.58.03-1.49.38-1.89,1.16-1.35,1.1-3.1,1.82-4.45-1.18-2.28-1.87-2.02-3.55-1.07-.09.05-.15.14-.23.22.18.84.37,1.65-.95,1.68-.21,0-.59.38-.6.59-.04,1.23-1.09,1.75-1.74,2.53-.68.82-1.95.31-2.26-.91-.08-.3-.12-.47-.38-.66-.89-.64-.9-.95,0-1.32.99-.41,1.87-.9,2.57-1.74.32-.39.78-.71,1.24-.9.62-.25,1.05-.63,1.42-1.17.4-.59.9-1.12,1.36-1.68.87.21,1.25-.65,1.92-.91.94-.38,1.74-1.25,2.69-1.44,1.2-.24,1.98-.99,2.92-1.57.97-.6,2.02-1.14,3.22-.94.71.12.79-.62,1.21-.76.44-.15,1,.09,1.49.01.25-.04.42-.46.67-.62.39-.25.94-.35,1.21-.68.35-.44.73-.57,1.24-.76,2.19-.85,4.32-1.86,6.48-2.81.37-1.02.52-2.13,1.12-2.92.83-1.1.04-2.25.45-3.32.29-.76.2-1.69,1.11-2.14.08-.04.12-.41.04-.48-.69-.63-.3-1.39-.26-2.08.04-.73.05-1.33-.34-2.04-.28-.52.19-1.41.12-2.11-.05-.46-.37-1.02-.75-1.29-.68-.49-.73-1.43-1.63-1.82-.7-.3-1.18-1.11-1.76-1.7-.85.07-1.18,1.22-2.16,1.08-.98-.14-1.81.11-2.57.8-.34.31-.96.45-1.45.44-.92-.02-1.62.31-2.26.91-.26.24-2.65.77-3.06.74-.16,0-.32-.04-.48-.07-.13,1.55-1.45,1.15-2.36,1.44-.65.21-1.4.02-1.92.75-.26.37-.89.5-1.38.67-.48.17-1.03.18-1.48.4-.39.18-.68.77-1.04.8-1.41.11-2.51.78-3.71,1.47-1.19.69-2.32,1.36-3.09,2.46-1.08-.31-1.54-1.2-2.16-1.88-.76-.83-1.9-.83-2.76-1.4-.19-.13-.3-.59-.24-.86.15-.74.49-1.34,1.31-1.62,1.68-.58,3.34-1.24,5.18-1.05.39.04.79-.17,1.2-.21,2.22-.21,4.21-1.16,6.28-1.88,1.09-.38,2.18-.78,3.31-1.01.7-.14,1.51.21,2.17.01.77-.22,1.38-.88,2.3-.81.35.03.79-.22,1.07-.47,1.04-.95,2.66-.69,3.63-1.79.11-.12.39-.09.59-.15.8-.22,1.61-.44,2.41-.66.58-1.1,1.63-.63,2.51-.77.2-.03.4-.15.56-.28,1.03-.88,2.04-1.77,3.05-2.67.04-.04-.02-.17-.02-.26-.08-.96.69-1.61.91-2.45.26-.99.27-2.03.76-2.97.13-.26.23-.71.1-.92-.52-.82-.19-1.59-.05-2.41.35-2.17-.56-4.11-1.21-6.09-.09-.28-.35-.52-.58-.72-2.04-1.76-3.89-3.76-6.54-4.69-.77-.27-1.41-.96-2.18-1.13-.88-.19-1.84-.02-2.77.03-.41.02-.82.23-1.22.21-1.59-.1-2.97,1.08-4.47.87-1.13-.16-.73.79-1.35,1.11-1.22,0-2.53.19-3.54,1.34-.31.35-.94.41-1.43.59-.89.32-1.78.61-2.47,1.31-.2.2-.58.44-.81.38-1.08-.29-1.83.13-2.47.94-2.06.42-3.76,1.77-5.83,2.16-.31.06-.63.18-.92.14-.87-.13-.95.68-1.38,1.11-.48-.07-.98-.15-1.39-.21-.42.39-.74.94-1.16,1.03-1.83.41-3.68.71-5.53.99-1.09.17-2-.1-3.2-.81.3-.32.58-.6.85-.91.72-.81.59-1.77-.35-1.88-1.43-.18-2.69-1.12-4.26-.77-.69.16-1.35-.87-1.13-1.53.39-1.19.93-2.25,2.02-3.02,1.16-.82,2.44-1.23,3.79-1.45.9-.15,1.94.19,2.75-.11,1.01-.39,2.07-.53,3.04-.5,1.27.04,2.44-.27,3.65-.45,1.24-.18,2.49-.33,3.73-.45.62-.06,1.28-.16,1.87-.04,1.21.26,2.3-.12,3.39-.43,1.29-.37,2.44-1.24,3.92-.95.24.05.55-.23.82-.38,3.03-1.7,6.17-3.07,9.56-3.19,1.27-1.19,1.29-3.06,2.85-3.88.3-.16.53-1.15.33-1.44-.59-.84-.24-1.69-.05-2.36.43-1.53.52-3.03.21-4.51.35-.15.54-.23.79-.33-.06-.8.16-1.81-.23-2.42-1.37-2.14-2.15-4.76-4.66-6.06-.81-.42-1.61-.96-1.72-2.05-.01-.15-.3-.39-.46-.39-1.52,0-2.75-.89-4-1.31-.38.25-.79.62-.87.56-.95-.7-1.94.18-2.9-.14-.35-.12-.93-.13-1.14.07-.79.79-1.6.14-2.37.16-.93.71-1.84,1.4-3.12,1.24-.25-.03-.54.18-.8.31-.65.33-1.26.79-1.95.98-1.52.43-3.04.81-4.17,2.02-.12.13-.4.21-.58.18-1.11-.21-1.83.74-2.77.9-1.12.2-2.2.38-3.08,1.15-.08.07-.18.12-.28.14-2.12.32-4.03,1.24-6.02,1.97-.72.27-1.59,0-2.08.96-.16.31-.98.5-1.45.41-1-.18-1.2.68-1.75,1.1-.41-.3-.76-.66-1.37-.32-.59.33-1.46.34-1.85.8-.71.85-1.6.27-2.34.57-.57.24-1.19.3-1.67.8-1.12,1.18-2.93.91-4.18,1.89-.38.3-1,.47-1.49.42-1.28-.12-2.22.43-3.08,1.26-.55.54-1.14.75-1.95.75-1.03,0-2.06.27-3.08.46-.29.05-.67.15-.81.36-.56.8-1.42.86-2.23.97-.72.1-1.47-.05-1.98.68-.52.76-1.44.64-2.19.88-.22,1.22-1.34,1.14-2.15,1.52-.46.21-.84.6-1.23.93-.55.47-1.09.96-1.63,1.44-.44.22-.81-1.11-1.17-.08-.03.1-.02.25-.09.29-1.89,1.28-3.67,2.8-5.71,3.74-2.26,1.04-4.13,3-6.87,3.02-.53,0-1.05.89-1.58.9-.75,0-1.44.15-2.15.28-.2.03-.5.04-.56.16-.65,1.23-1.95.97-2.97,1.37-.46.18-.86.53-1.29.8-1.41.89-2.64,2.07-4.06,2.85-1.63.89-3.3,1.68-4.75,2.88-.12.09-.54-.19-.9-.33Zm-22.81,18.4c1.01-.48,1.72-1.01,2.49-1.12,1.22-.18.88-1.61,1.81-1.93.05-.89,1.34-.94,1.27-1.9.66-.51,1.32-1.02,1.99-1.53.24-.19.58-.3.74-.54,1.22-1.86,3.3-2.87,4.59-4.7.41-.59.97-.93.9-1.79-.05-.59.26-1.21.4-1.77-.33-.59-.97-1.21-.87-1.66.27-1.15-.63-2.08-.47-3.04.18-1.13-.21-2.05-.44-3.05-.14-.59,0-1.25,0-1.87-.04-1.43,1.26-2.6.79-4.14-.06-.19.39-.48.49-.77.16-.48.23-.99.32-1.49.11-.61.05-1.33.36-1.82.67-1.06.61-2.18.57-3.32-.03-.92-.1-1.85-.07-2.77.04-.92-.07-1.97,1.23-2.21.03,0,.06-.2.03-.29-.32-1.07.11-2.01.48-2.98.23-.62.03-1.35.42-1.95-.55-1.3.31-2.37.72-3.49-.48-.44-.84-.84-1.26-1.13-.42-.29-.92-.49-1.38-.72-2.03-1-3.74-2.28-4.15-4.72-.05-.29-.23-.55-.41-.96-.4.07-.84.03-1.16.21-2.18,1.2-4.3,2.53-6.74,3.21-1.05,1.09-2.65,1.14-3.93,1.99-.17,1.68-.28,3.35-.53,5-.28,1.83-.4,3.77-1.12,5.43-.67,1.55-.97,3.18-1.54,4.74-.18.48-.35,1.04-.28,1.53.53,3.61.32,7.32,1.5,10.84.39,1.16.16,2.51,1.08,3.51.63,2.52.39,5.14.91,7.68.08.39-.02.85-.15,1.24-.52,1.54.74,3.07.02,4.62-.04.09.24.32.36.49.43.62.54,1.3.57,2.07.06,1.63.29,3.26.48,5.13Zm74.03-45.95c-1.12-.63-2.1-1.2-3.1-1.75-.46-.25-.93-.5-1.43-.67-1.08-.38-2.21-.63-3.26-1.07-1.13-.47-2.48-.13-3.49-1.14-.31-.32-1.38.17-1.76-.14-1-.81-2.13-.61-3.21-.78-.41-.06-.85-.1-1.22-.27-1.39-.67-2.88-.95-4.39-1.11-.7-.7-1.54.11-2.27-.2-1.33-.55-2.75-.98-3.95-1.75-.74-.47-1.43-.77-2.26-.94-1.29-.27-2.69-.18-3.75-1.29-.27-.28-.98-.11-1.49-.17-.4-.05-.84-.05-1.19-.22-.55-.27-1.01-.85-1.56-.94-.53-.09-1.09.33-1.74.01-.63-.31-1.44-.28-2.07-.59-1.4-.7-2.77-1.38-4.41-1.2-.37.04-.82-.15-1.16-.37-.99-.65-2.2-.72-3.21-1.21-1.07-.52-2.19-.53-3.28-.79-1.09-.26-2.21-.44-3.32-.51-.47-.03-1.01.22-1.43.48-.71.44-.64,1.23.08,1.76.32.23.66.43.93.6-.06,1.49-1.83,1.05-2.14,2.12-.07.91.2,1.67.73,2.37.52.68,1.33.82,1.84.13.5-.68.88-1.48,1.86-1.48.36,0,.71.25,1.06.39-.12.98-.22,1.8-.33,2.75,1.65-.05,2.81,1.33,4.46,1.13.25-.03.56.25.82.42,2.24,1.39,4.63,2.31,7.29,2.47.63.04,1.26.1,1.87.26.75.21,1.11,1.11,2.19.96.84-.11,1.78.45,2.66.75.97.33,1.91.92,2.89.98,1.23.08,2.04.87,3.06,1.25,2.07.77,4.19,1.29,6.39,1.53.72.08,1.41.34,2.12.52.53,1.15,1.45.7,2.38.75,1.21.06,2.44.51,3.59.95.72.27,1.39.56,2.11.22,1.9-.91,4.02-.96,6-1.58.88-.28,1.6-1.06,2.62-.89,1.29-.94,3.09-.53,4.47-1.75Zm-57.21,29.74c1.21-.42,1.18-.44,2.13-1.53.47-.54,1.04-1.01,1.62-1.43,1.59-1.16,3.25-2.21,4.79-3.44.79-.63,1.36-1.53,1.98-2.26-.02-.88.1-1.75-.1-2.54-.36-1.46-.45-2.86.08-4.28.06-.16.05-.45-.06-.55-.74-.73-.29-1.57-.28-2.37,0-.51.02-1.04-.11-1.53-.45-1.73-.53-3.49-.48-5.25.03-1.08-.33-2-.82-2.94-.63-1.22-1.51-2.22-2.46-3.26-1.24.2-2.42.4-3.69.61-.22.89-.59,1.69-.59,2.49,0,.87-.04,1.63-.59,2.34-.18.23-.35.61-.29.87.18.76,0,1.35-.37,2.04-.32.59-.31,1.38-.4,2.09-.05.4-.15.97.05,1.17.58.56.32,1.06.23,1.69-.27,1.87-.99,3.58-1.71,5.3-.16.38-.5.96-.36,1.14.9,1.16-.09,2.19-.11,3.28-.02.83-.18,1.76.15,2.46.43.93.61,1.72.12,2.62-.14.26-.17.44.05.77.5.78.82,1.66,1.21,2.5Zm31.78-24.86c-2.78-1.42-5.75-1.75-8.4-2.98-.26-.12-.63.03-.92-.05-1.51-.41-3.05-.75-4.5-1.34-.87-.35-1.7-.76-2.64-.92-1.01-.16-2.01-.42-2.98-.63-.14.31-.29.5-.28.68.16,2.79-.5,5.65.63,8.38.16.4-.09,1.01-.25,1.5-.21.64.75.94.38,1.65-.6,1.13-.14,2.41-.4,3.57-.23,1.05.7,2.03.09,3.08-.08.13.33.5.41.78.47,1.66.64,1.72,1.81.68.3-.27.63-.53.98-.74,1.25-.75,2.52-1.47,3.78-2.2,2.78-1.62,5.09-4,8.26-4.98.37-.11.67-.49.98-.77.61-.54,1.29-.93,2.02-1.31,2.19-1.13,2.13-1.55,1.36-3.73-.07-.19-.17-.37-.32-.69Zm-54.54-14.83c-1.43,1.26-2.32,2.29-2.7,3.26-.43,1.09-.96,1.95-2.13,2.54-1.01.51-.56,2.17-1.58,2.89-.34.24-.76.39-1.05.68-.35.35-.64.77-.88,1.21-.14.26-.04.65-.18.9-.42.72-.95,1.37-1.36,2.09-.39.69-.58,1.52-1.04,2.15-.32.43-.64.73-.61,1.33.02.62-.12,1.24-.15,1.86-.02.3-.03.85.07.87,1.04.28.77,1.64,1.73,1.99.68.25,1.31.64,1.96.98,1.29.68,2.57.76,3.73-.03,3.02-6.16,5.98-12.23,6.12-19.39-.99-.69-1.43-2.03-1.92-3.33Zm14.33-4.19c-.63-.11-1.09-.24-1.56-.26-.83-.04-1.7.14-2.47-.07-1.28-.36-2.43.49-3.68.22-.22-.05-.59.22-.76.44-.96,1.3-1.6,2.66-.35,4.32,1.14-.03,2.14-.52,3.1-1.16.6-.4,1.19-.92,1.86-1.1,1.47-.4,2.56-1.31,3.86-2.4Zm103.32,34.84c-.48-.38-.99-.84-1.63-.44-1.26.78-2.64.99-4.08,1.05-1.24.05-2.17.7-2.82,1.69-.18.27-.13.83.03,1.14.19.36.74.56,1.07.24.79-.76,1.72-1.06,2.77-1.15,1.7-.15,3.03-1.13,4.42-1.98.14-.08.16-.36.24-.56Zm87.1,27.1c.15.09.22.18.27.17,2.2-.63,4.15-1.75,5.98-3.1.33-.24.59-.56.49-1.04-.06-.33-.54-.27-1.29.12-.55.29-1.09.6-1.67.8-1.63.58-2.76,1.73-3.79,3.05Zm-7.72-11.44c-2.64.57-4.42,1.85-6.34,4.07,1.9-.94,3.28-1.6,4.65-2.3.27-.14.52-.35.73-.58.27-.29.5-.62.95-1.19Zm-8.23,8.32c.13.11.26.22.39.32.5-.33,1.04-.61,1.49-.99.73-.61.75-.87.32-1.9-.08-.18-.23-.38-.39-.45-.11-.04-.39.1-.46.24-.47.91-.9,1.84-1.34,2.77Zm12.69,3.62c-1.61.73-1.97,1.03-3.43,2.86,1.82-.14,2.75-1.36,3.43-2.86Zm-69.12-179.67c.04.07.08.15.12.22.7-.06,1.39-.12,2.09-.17.66-.05.74-.45.64-1.07-.97.35-1.91.68-2.85,1.01Zm63.46,172.28c1.16.28,1.55-.32,2.08-.66-.33-.01-.63.04-.91.14-.28.1-.55.24-1.17.52Zm113.93,19.75c-.08-.04-.19-.14-.23-.12-.15.08-.28.2-.42.31.08.04.19.13.24.11.15-.07.28-.19.41-.29Zm-89.71-22.27c.19,0,.37.02.56-.02.07-.01.12-.14.17-.21-.09-.03-.21-.12-.27-.09-.17.08-.31.21-.46.32Zm-139.24-39.46c.02.2.02.37.07.53.02.07.16.1.24.14.03-.17.11-.36.07-.51-.02-.08-.24-.11-.39-.16Zm42.08-115.37c-.09-.05-.2-.15-.25-.13-.17.08-.31.21-.46.32.09.03.2.12.26.09.16-.07.3-.19.44-.29Zm-122.45,105.22l-.25-.05.05.21.2-.16Zm257.7-31.72c-.23.21-.19.35.12.37.04,0,.09-.16.14-.25-.09-.04-.18-.08-.26-.13Zm-69.77,89.83l-.06.19.19-.04-.13-.15Zm-131.36-70.2l-.17-.04.02.14.14-.1Zm249.4,79.84c-.07-.04-.16-.12-.22-.1-.06.02-.09.13-.13.2.07.04.16.12.22.1.06-.02.09-.13.13-.2Z"/>
      <path class="cls-1" d="m348.54,136.46c.02-.54.22-.58.57-.21l.04-.1c-.24.08-.48.16-.72.25l.1.06Z"/>
      <path class="cls-1" d="m387.72,193.34c.04-1,.44-1.35.94-1.53,2.07-.73,4.03-1.68,5.99-2.71,2.02-1.07,4.27-1.71,6.45-2.47,1.11-.39,2.12-.9,3.01-1.65,1.35-1.15,2.75-2.27,3.97-3.55.84-.89,1.63-1.89,1.91-3.18.17-.81.41-1.65.81-2.37,1.32-2.37.75-4.62-.4-6.78-1.42-2.68-2.92-5.29-5.44-7.18-1.24-.93-2.26-2.15-3.43-3.18-.62-.54-1.36-.93-2.03-1.37-.23.22-.46.34-.47.48-.26,2.17-1.37,3.7-3.55,4.52-.79-.51-1.05-1.42-.66-2.32.43-1.01.7-2.05,1.61-2.92,1.19-1.14.98-2.69-.12-3.91-.08-.09-.52-.02-.53.03-.22.99-.61,2-.53,2.97.08.92-.28,1.5-.89,1.81-1.16.58-1.93,1.54-2.79,2.43-1.44,1.48-3.24,2.24-5.42,2.55.35-1.89,2-2.42,3.13-3.36,1.11-.93,2.4-1.64,3.84-2.6.2-1.59.43-3.45.68-5.3.07-.51.14-1.03.3-1.52.27-.85,1.74-1.28,2.34-.63.77.83,1.69,1.56,1.99,2.77.22.91.61,1.78,1.02,2.91,2.25,1.48,4.7,3.07,7.12,4.69,1.48.99,2.96,1.99,4.35,3.09.72.57,1.26,1.36,1.77,1.93.01.87-.63.95-.98,1.34-.19.78.58,1.3.66,1.95.1.8.28,1.36,1,1.78.18.1.23.56.24.86.03,1.43-.56,2.85.12,4.3.17.36-.12,1.05-.38,1.48-1.09,1.79-2.22,3.54-3.38,5.29-.41.62-3.43,2.91-4.4,3.42-.27.14-.59.2-.82.39-2.51,2.02-5.52,2.94-8.49,4-.98.35-1.94.79-2.83,1.32-1.73,1.03-3.6,1.63-5.7,2.26Z"/>
      <path class="cls-1" d="m382,164.52c-2.98,1.38-5.69,2.49-8.66,2.55-1.02.02-1.88.71-2.98.37-.86-.26-1.84-.13-2.77-.16-2.92-.12-5.79.22-8.63.92-.3.07-.61.13-.92.18-.55.1-1.05-.02-1.42-.45-.3-.34-.05-1.28.53-1.62.76-.45,1.34-1.41,2.45-1.02,1.82-.52,3.71-.36,5.56-.58.3-.04.64-.03.92.08,2.42.93,4.95.52,7.43.56,1.11.02,2.24-.43,3.34-.72,1.6-.42,3.18-.62,5.14-.11Z"/>
      <path class="cls-1" d="m387.45,182.01c0,.6.07,1.13-.02,1.63-.04.22-.38.4-.61.55-.03.02-.27-.2-.35-.35-.61-1.07-1.1-2.24-1.84-3.2-1.29-1.68-2.97-2.86-5.12-3.28-.18-.03-.44-.49-.38-.66.08-.24.4-.53.65-.56,1.3-.18,2.5.2,3.45,1.07,1.23,1.11,2.38,2.31,3.51,3.52.34.36.5.88.73,1.29Z"/>
      <path class="cls-1" d="m345.33,172.72c.02-.5-.08-.88.05-1.02,1.82-1.81,3.95-3.06,6.5-3.5.14-.02.41.14.47.28.06.14-.02.46-.13.52-1.36.73-2.75,1.4-4.11,2.13-.82.43-1.61.92-2.78,1.6Z"/>
      <path class="cls-1" d="m340.11,176.87c.21.59-.15.98-.51,1.34-.12.11-.37.08-.56.12,0-.17-.09-.42-.02-.49.37-.34.78-.62,1.18-.93l-.09-.05Z"/>
      <path class="cls-1" d="m352.57,200.88c.63-.29.88-.43,1.15-.51.14-.04.31.02.47.04-.16.1-.31.24-.48.29-.23.07-.48.08-1.13.18Z"/>
      <path class="cls-1" d="m340.2,176.92c-.08-.92.7-.73,1.28-.77l-1.37.72.09.05Z"/>
      <path class="cls-1" d="m307.94,199.12c.06-.18.07-.42.19-.52.11-.1.35-.06.53-.08-.08.13-.13.32-.25.38-.16.1-.38.11-.57.15l.1.06Z"/>
      <path class="cls-1" d="m343.47,173.95c.02.06.07.17.05.18-.16.1-.33.24-.5.25-.34.02-.4-.16-.11-.34.15-.09.37-.06.55-.09Z"/>
      <path class="cls-1" d="m395.45,243.61l-.71.25c.11-.19.22-.38.32-.57.13.11.26.21.38.32Z"/>
      <path class="cls-1" d="m240.68,192.44c.45,1.22.26,1.74-.76,2.6-.38.32-1.22.06-1.21-.42,0-.7.05-1.43.25-2.09.09-.28.63-.57.97-.57.3,0,.61.38.74.48Z"/>
      <path class="cls-1" d="m173.6,133.25c.73-1.15,1.82-2.01,1.4-3.46-.06-.21.26-.53.41-.8.42-.72.9-1.41,1.23-2.16.27-.61.18-1.32,1.03-1.66.47-.19.33-.9.4-1.42.13-1.07,1.1-1.72,2.23-1.58.4.05.54.44.35.69-.43.57-.03,1.17-.18,1.7-.2.69-.41,1.52-.9,1.97-1.18,1.08-1.23,2.61-1.7,3.92-.38,1.07-.55,2.17-1.33,3.06-.08.09-.04.39.04.52.38.59.09,1.07-.39,1.2-.41.12-1.19.21-1.3-.43-.13-.78-.88-.83-1.31-1.55Z"/>
      <path class="cls-1" d="m226.81,136.27c-1.07-.15-1.31-.75-1.16-1.38.18-.77.57-1.49.91-2.33.72.17,1.41.33,2.08.49.23,1.61-1.2,2.13-1.82,3.22Z"/>
      <path class="cls-1" d="m225.01,142.96c.02-.18-.03-.39.06-.52.09-.12.3-.18.47-.22.07-.02.17.08.25.12-.1.14-.17.33-.3.42-.15.1-.36.11-.54.17,0,0,.06.03.06.03Z"/>
      <path class="cls-1" d="m238.19,95.34l.47,1.3q-.85-.45-.47-1.3Z"/>
      <path class="cls-1" d="m43.52,290.27c.51.65,1.75.84,1.37,2.14-.04.15.34.52.6.64.44.2.59.4.53.92-.04.36.1.96.36,1.11,1.2.68,2.24,1.42,2.33,2.95,0,.09.09.25.16.26,1.49.19,1.48,1.6,2.06,2.52.99,1.57,1.55,3.38,2.86,4.78.39.42.82,1.26.25,2.01-.17.23-.39.48-.05.79.22.21.41.47.56.73,1.11,1.92,1.1,1.92.93,4.07-.06.72-.11,1.46-.01,2.18.28,2.2.31,2.2-.4,4.16.18.28.48.54.46.77-.05.51-.51,1.07-.37,1.48.34,1.06.3,2.03.02,3.07-.08.29.33.71.58,1.22-.57.65-1.17,1.35-1.8,2.02-.21.22-.52.55-.75.53-1.46-.15-2.38,1.14-3.7,1.31-.61.08-1.24.13-1.85.11-.52-.01-1.04-.2-1.56-.2-2.64.02-3.38-.16-5.3-.92-1.82-.72-3.26-1.77-4-3.65-.22-.56-.62-1.04-.94-1.57.39-.62.72-1.36,1.64-.63.15.12.39.23.58.2,3.27-.47,6.28-1.4,7.97-4.61,1.13-2.14,2.22-4.28,2.36-6.77.04-.72.21-1.45.41-2.15.62-2.17.42-4.36.1-6.53-.1-.67-.59-1.29-.89-1.94-.14-.29-2.19-3.13-2.37-3.35-.32-.39-.59-.81-.88-1.22-.34-.48-1.01-.72-.91-1.52.1-.82-.91-.71-1.22-1.23-.11-.18-.34-.36-.32-.52.16-1.27-.85-2.07-1.24-3.12-.42-1.14-.7-2.34-1.74-3.26-.82-.73-.64-1.97,0-2.89.27-.39,1.15-.47,1.27-.07.16.56.47.86.93,1.16.32.21.66.61.7.97.15,1.18.94,1.99,1.49,2.94.14.25-.12.72-.2,1.11Zm4.73,36.38l.19.06-.04-.19-.15.14Z"/>
      <path class="cls-1" d="m29.37,304.37c.1-.61.11-1.26.34-1.81.12-.29.63-.5.99-.58.19-.04.56.25.68.47.8,1.48.81,2.9-.38,4.23-.26.29-.35.76-.62,1.03-.15.15-.6.19-.8.08-.72-.43-.59-1.26-.77-1.94-.14-.52-.08-1.03.35-1.42.08-.07.17-.12.25-.18.06.08.11.17.19.23.04.03.13,0,.2,0-.15-.04-.29-.07-.44-.11Z"/>
      <path class="cls-1" d="m31.1,314.75c1.02-1.03,1.9-1.21,3.02-.4-.1.33-.22.69-.38,1.2.42.56.88,1.19,1.35,1.81-.66.73-1.47.79-2.34.86-1.04-.83-.91-2.23-1.65-3.47Z"/>
      <path class="cls-1" d="m28.49,297.01c.32-.67.63-1.38.98-2.06.14-.28,1-.29,1.11-.02.23.55.47,1.12.55,1.71.07.52-.2.98-.75,1.22-.57.24-.98.07-1.35-.38-.13-.16-.31-.27-.53-.47Z"/>
      <path class="cls-1" d="m31.43,278.18l.4.1c-.07,0-.15.03-.19,0-.07-.05-.11-.13-.17-.21,0,0-.05.1-.05.1Z"/>
      <path class="cls-1" d="m129.15,339.8c-.24.08-.47.16-.71.24.06-.6.3-.68.71-.24Z"/>
      <path class="cls-1" d="m278.86,28.05c-.43-.81-.91-1.47-1.14-2.21-.24-.76-.23-1.6-.31-2.41-.07-.68.34-1.19,1.06-1.21.24,0,.68.22.71.39.21,1.17.51,2.3.9,3.43.22.65.16,1.71-1.22,2.01Z"/>
      <path class="cls-1" d="m265.26,14.47c-.2.92-.4,1.82-.64,2.89-.72.39-1.52.82-2.49,1.35-.11-.37-.15-.62-.26-.83-.4-.78-.51-1.47.29-2.13.9-.74,1.75-1.49,3.09-1.28Z"/>
      <path class="cls-1" d="m236.42,21c.5-.14.99-.31,1.5-.41.42-.08.86-.05,1.02.45.09.28.15.65.03.89-.38.75-.81,1.43-1.88,1.29-.59-.08-1.21.13-1.82.2,0,0,.11.05.11.05-.13-.59-.32-1.18-.37-1.77-.02-.25.21-.6.44-.76.34-.25.76-.24,1.09.12-.08.14-.6.1-.19.45.02-.17.05-.34.07-.5Z"/>
      <path class="cls-1" d="m272.42,18.29c.07-.52.14-1.13.23-1.81,1.13.09,2.01.61,2.75,1.36.18.19.29.58.24.85-.08.44-.45.65-.92.69-.92.08-1.61-.33-2.3-1.08Z"/>
      <path class="cls-1" d="m268.07,14.54c.97-.51,1.97-.19,2.33.54.19.38-.22,1.22-.62,1.18-.5-.05-1.01-.15-1.46-.35-.21-.09-.36-.48-.39-.75-.03-.27.12-.56.14-.61Z"/>
      <path class="cls-1" d="m229.4,22.86c-.02.99,1.26,1.58-.13,2.63-.42-.22-1.04-.55-1.58-.83-.07-1.53,1.07-1.2,1.71-1.8Z"/>
      <path class="cls-1" d="m235.27,23.41c-.05.13-.1.27-.16.4.01-.06,0-.15.04-.19.06-.07.15-.11.23-.16,0,0-.11-.05-.11-.05Z"/>
    </g>
  </g>
</svg>