<?xml version="1.0" encoding="UTF-8"?>
<svg id="_レイヤー_2" data-name="レイヤー 2" xmlns="http://www.w3.org/2000/svg" viewBox="0 0 592.34 195.66">
  <defs>
    <style>
      .cls-1 {
        fill: #ddd4c6;
      }
    </style>
  </defs>
  <g id="_背景モチーフ" data-name="背景モチーフ">
    <g>
      <g>
        <path class="cls-1" d="m450.88,186.46c-.17-.31-.47-.31-.77-.34-.99-.08-1.92-.41-2.87-.71-.41-.13-.57-.56-1-.59-.34-.03-.68-.1-1.01-.19-.15-.04-.34-.14-.41-.27-.18-.36-.43-.35-.73-.21-.42.19-.74.13-1.11-.21-.32-.3-.79-.49-1.23-.62-.73-.21-1.48-.34-2.22-.47-.28-.05-.34-.33-.5-.41-.29-.16-.66-.22-1.01-.23-.85-.02-1.64-.18-2.3-.75-.2-.17-.37-.2-.63-.14-.2.05-.5.02-.66-.1-.71-.56-1.57-.8-2.42-.9-.72-.09-1.25-.55-1.92-.72-.59-.16-1.29-.22-1.76-.75-.09-.1-.31-.13-.47-.13-.9,0-1.47-.1-2.23-.62-.45-.31-.85-.6-1.45-.5-.2.03-.52-.09-.63-.24-.38-.55-.97-.42-1.42-.35-.4.06-.63.12-.89-.23-.22-.3-.55.07-.82-.05-.48-.22-1.03-.35-1.42-.67-1.16-.94-2.55-1.08-3.93-1.32-.46-.08-.96-.18-1.33-.44-.33-.23-.87.11-1.05-.43-.03-.08-.19-.18-.29-.17-1.12.1-1.99-.67-3.01-.91-.5-.12-.96-.43-1.45-.63-.48-.2-.98-.37-1.47-.55-.12-.7-.98-.3-1.23-.85-.14-.31-.46.05-.61-.06-.65-.45-1.57-.46-2.02-1.28-.11-.21-.48-.34-.75-.37-.47-.06-.94-.02-1.42-.03-.35,0-.71,0-1.06-.04-.56-.07-.94-.54-1-1.17-.05-.53-.12-1.05-.14-1.58-.02-.48-.07-.94-.4-1.33-.42-.49-.39-1.24-.96-1.64-.08-.06-.13-.21-.13-.32.02-.7-.33-1.22-.72-1.75-.16-.23-.23-.53-.31-.81-.15-.51-.27-1.02-.41-1.53-.06-.23-.26-.51-.19-.66.46-.91-.23-1.58-.44-2.34.16-.29.35-1.13.48-1.39.22-.46-.05-.81-.16-1.19-.2-.66-.73-1.03-1.31-1.3-.31-.14-.69-.11-.97-.37-.55-.51-1.27-.6-1.97-.65-.39-.03-.81.16-1.17.08-.45-.1-.8-.02-1.19.14-.21.09-.46.12-.69.1-.53-.04-1.04-.08-1.53.24-.22.14-.57.07-.87.1-.41.05-.87,0-1.21.18-.52.27-.9.07-1.25-.19-1.22.76-1.22.79-2.69.74-.77-.02-1.53-.18-2.24.27-.13.08-.38.09-.51.02-.36-.21-.65-.18-.94.11-.28.28-.6.32-.97.17-.21-.08-.48-.16-.67-.1-.78.28-1.56.46-2.39.26-.15-.03-.37.03-.49.13-.67.54-1.46.71-2.29.81-.27.03-.54.2-.78.35-.72.41-1.49.76-2.11,1.28-.37.31-.7.58-1.18.68-.18.48-.64.65-1.05.83-.45.21-.79.52-1.06.91-.23.33-.31.67-.29,1.12.04.73-.32,1.47-.05,2.24.03.09-.22.27-.28.42-.1.27-.31.62-.21.82.29.6-.15,1.15-.02,1.71.13.57-.15,1.03-.33,1.53-.05.15-.05.38.04.5.28.41.19.77-.04,1.16-.11.19-.3.54-.24.61.39.41-.1.77,0,1.14.06.22.17.45.16.67-.02.44-.06.9-.2,1.32-.15.47.37.73.25,1.17-.07.28-.01.59-.01.96.39.55,1.14.97,1.15,1.83.45.53.74,1.25,1.45,1.48.98.33,1.54,1.11,2.01,1.89.84,1.42,1.96,2.46,3.42,3.19.14.07.28.11.42.16-.04.17-.06.28-.1.42.86.02,1.08.8,1.52,1.3.18.2.13.56.5.65.69.18.96,1.01,1.77,1.1.81.09,1.6.38,2.4.56.22.05.49.04.69-.05,1.03-.47,2.04-.96,2.65-1.99.15-.25.27-.51.38-.78.25-.59.44-1.2.77-1.78.31-.55.4-1.22.87-1.7.18-.18.15-.26-.17-1.02.17-.34.41-.69.51-1.08.09-.33.11-.74-.02-1.04-.19-.43.12-.78.05-1.19-.1-.6-.33-1.2-.16-1.83.03-.13-.08-.32-.17-.46-.16-.25-.34-.49-.2-.81.04-.1.07-.25.02-.33-.18-.29-.4-.56-.59-.85-.19-.28-.03-.64-.28-.94-.17-.2-.14-.56-.26-.82-.15-.31-.33-.62-.55-.89-.44-.55-.87-1.11-1.37-1.6-.44-.43-1.04-.67-1.48-1.13-.08-.08-.23-.08-.31-.16-.38-.36-.69-.86-1.14-1.08-.47-.23-.94-.45-1.38-.74-.35-.23-.28-.59.15-.79.59-.27.9-.24,1.72.18.29.15.61.08.77-.18.13-.2.21-.42.33-.61.39-.64.22-1.53.93-2.03.06-.04.05-.21.05-.32,0-.88.49-1.4,1.22-1.78.07-.04.04-.29.05-.47.73-.42,1.45-.91,2.4-.91.23,0,.46-.32.73-.52.37.14.75.29,1.07.41.34-.19.65-.49.95-.49.52,0,.97-.57,1.52-.16.43-.16.87-.32,1.3-.48.74.43,1.4-.5,2.16-.14.07.03.25-.19.38-.29,0,0,1.07-.31,1.07-.3.2.2.44.37.6.59.13.19-.14.59-.44.67-.62.18-1.24.37-1.87.49-.53.1-.79.71-1.43.63-.52-.06-1.06.1-1.58.04-.41-.05-.72.36-1.18.11-.39-.21-.76.22-1.13.38-.44.19-.83-.19-1.34.05-.63.3-1.74.75-2.06,1.28-.86,1.43-1.5,2.9-1.31,4.67.11.97.43,1.79.81,2.66.21.47.79.62.78,1.27,0,.42.32.85.55,1.25.13.24.52.44.5.62-.05.39.12.51.4.66.28.15.39.43.43.74.08.64.27,1.25.48,1.86.18.52.2,1.14.14,1.69-.06.55.24,1.02.16,1.55-.02.15.12.32.21.54-.25.44-.82.86-.34,1.5-.08.4-.16.8-.23,1.2-.09.58.09.76.71.91.83.2,1.72.19,2.44.83.31.28.87.33,1.33.39,1.9.28,3.73.9,5.63,1.17.66.47,1.18,0,1.54-.39.8-.85,1.54-1.77,2.15-2.77.55-.9.86-1.93,1.14-2.95.09-.34.05-.71.46-.86-.12-.17-.24-.34-.36-.5.22-1,.21-.99-.05-1.86-.27-.9-.59-1.76-1.37-2.36-.04-.03.05-.22.06-.26-.68-.51-1.34-1-2-1.49-.61.06-.59-.96-1.27-.76-.52.16-.91-.42-1.31-.31-.7.19-1.25-.08-1.85-.28-.61-.21-1.21-.42-1.83-.61-.33-.1-.47-.32-.51-.64-.06-.43.16-.74.54-.73.24,0,.49-.02.7.04,1,.31,2,.66,3.06.68.17,0,.34.09.49.18.4.24.77.55,1.19.74.37.17.79.2,1.18.3.43.11.65.45.87.8.62-.05.84.55,1.28.8.28.17.46.51.74.69.31.21-.1.41.19.65.13.05.39.14.65.24-.19.53.32.85.38,1.29.14,1.04.47,2.05.49,3.11,0,.23.06.51-.04.7-.35.72-.3,1.49-.38,2.2-.57.81-1.19,1.53-1.63,2.36-.72,1.35-1.87,2.24-3.01,3.15-.38.31-.81.43-1.29.19-.28-.14-.47.36-.8.15-.2-.13-.42-.23-.64-.31-.28-.1-.56-.24-.85-.23-1.41.01-2.71-.47-4.03-.84-.4-.11-.76-.28-1.19-.22-.21.03-.47-.04-.66-.15-.75-.44-1.48-.25-2.2.03-.44.17-.84.42-1.29.66-.32,1.16-1.01,2.09-1.93,2.87-.14.11-.26.28-.42.33-.7.19-1.14.78-1.74,1.12-.1.06-.22.13-.33.12-.98-.05-2.01.26-2.92-.4-.18-.13-.43-.31-.62-.28-.79.12-1.35-.36-1.96-.69-.64-.35-1.15-.86-1.27-1.6-.07-.41-.26-.43-.56-.39-.49-.69-1.25-1.03-1.91-1.52-.75-.55-1.56-1.09-1.82-2.04-.72,0-.82-.06-.99-.52-.08-.22-.08-.59-.2-.63-.68-.22-.71-1.1-1.4-1.29-.45-.12-.88-.43-1.32-.43-.56,0-1.15.06-1.67.38-.6.37-1.18.77-1.89.92-.21.04-.43.21-.57.39-.59.73-1.33.85-2.2.7-.34-.06-.19.29-.19.56-.86-.21-1.71-.21-2.55,0-.21.05-.5.05-.66-.05-.47-.31-.88-.2-1.33.04-.3.16-.56.11-.69-.26-.02-.05-.09-.14-.1-.13-1.31.46-1.93-.9-2.98-1.12-.11-.02-.28-.32-.24-.41.19-.45-.29-.61-.35-.92-.05-.26-.03-.54-.09-.82-.07-.37.22-.84.08-1.15-.22-.48-.11-.93-.14-1.39-.03-.41-.06-.82.16-1.21.06-.11-.05-.31-.09-.47-.17-.64-.22-1.27-.04-1.91.04-.16.11-.33.07-.48-.26-1.02-.54-2.03-.83-3.04-.08-.29-.26-.68-.53-.63-.29.05-.69-.13-.8,0-.45.53-1.22.25-1.67.81-.31.4-.82.68-1.3.89-.68.31-.84,1.15-1.56,1.39l-1.4.79c-.08-.05-.21-.09-.25-.16-.19-.37-.54.03-.8-.22-.58.74-1.26,1.35-2.01,1.9-.46.33-1.01.54-1.32,1.12-.24.44-.93.51-1.12,1.06-.59.24-.92.72-1.21,1.25-.83.28-1.07,1.22-1.79,1.63-.25.14-.48.37-.64.61-.54.85-1.5,1.27-2.11,2.06-.16.21-.52.26-.85.42-.45-.14-.98-.22-1.43-.46-.51-.28-1.07-.36-1.5-.12-.64.35-1.27-.13-1.87.17-.56.28-1.16.16-1.75.18-.47.01-.9.09-1.36.28-.86.36-1.8.56-2.7.82-.22.07-.5.09-.65.24-.49.49-1.06.3-1.63.2-.07.22-.11.39-.18.55-.04.09-.18.23-.19.23-.48-.33-.89-.04-1.34.12-.38.13-.8.13-1.19.25-.27.08-.48.04-.58-.2-.05-.12.06-.31.08-.47.03-.17.06-.35.04-.52-.03-.39.11-.68.4-.93.71-.61,1.05-1.59,1.92-2.06-.03-.36.11-.62.33-.91.38-.5.86-.78,1.37-.88.06-.27.03-.55.16-.68.24-.24.61-.35.86-.59.13-.12.12-.39.2-.7.31-.33.96-.36,1.31-.93.25-.41.84-.61,1.24-.94.45-.37.88-.76,1.28-1.17.2-.21.36-.47.48-.73.16-.36.38-.56.77-.64.13-.03.3-.21.33-.35.07-.41.35-.6.67-.77.47-.25.92-.51,1.28-.94.17-.2.51-.26.77-.38.15-.07.44-.13.45-.21.06-.86.89-1.01,1.35-1.48.53-.54,1.19-.95,1.81-1.4.57-.41,1.14-.81,1.72-1.2.19-.13.4-.25.62-.33.33-.13.71-.16.99-.36.27-.19.39-.62.66-.79.43-.27.72-.49.7-1.09-.02-.53.37-.96.8-1.29.28-.22.56-.43.83-.67.26-.23.17-.54.09-.91-.37-.18-.77-.44-1.21-.57-.57-.17-.9-.51-1.1-1.04-.2-.55-.42-1.09-.63-1.63.14-.12.27-.24.4-.35-.43-.46.27-1.01-.11-1.5-.07-.09,0-.41.09-.47.51-.29.3-.83.4-1.23.19-.73.38-1.48.46-2.22.06-.51.64-.74.52-1.21-.16-.6.35-.84.54-1.24.17-.37.14-.79.27-1.11.18-.42.47-.79.53-1.28.06-.4.28-.8.28-1.19,0-.56.19-1.04.37-1.54.44-1.23.41-2.54.68-3.8.12-.57.16-1.16.23-1.74.01-.11-.1-.28-.06-.33.82-.88.61-2.15,1.18-3.09.45-.73,1.07-1.41,1.75-1.93.88-.68,1.77-1.3,2.32-2.3.03-.05.04-.13.08-.15,1.13-.6,1.67-1.79,2.59-2.59.38-.33.93-.57.9-1.23,0-.13.18-.31.33-.4.35-.21.8-.34.94-.76.13-.39.69-.39.67-.95-.01-.32.5-.56.56-1.01.03-.23.35-.44.56-.63.31-.27.67-.48.95-.77.11-.12,0-.43.1-.58.07-.11.33-.1.48-.18.1-.05.23-.16.23-.24-.03-.73,1.05-.8.94-1.57.56-.37.79-1.01,1.16-1.53.18-.26.44-.37.62-.57.5-.55,1.28-.88,1.4-1.76.03-.24.34-.48.57-.64.4-.28.76-.54.83-1.08.02-.13.2-.27.33-.36.29-.2.62-.34.88-.56.26-.22.22-.61.52-.88.42-.37.59-1,1.2-1.2.3-1.07,1.36-1.37,2.06-2.03.4-.39.98-.58,1.48-.87.54.41,1-.23,1.51-.13.52.1.99-.5,1.53-.07.06.05.24,0,.32-.05.97-.61,2.08-.73,3.18-.9.28-.04.55-.21.83-.26.28-.05.59-.08.86,0,.25.07.43.07.65-.07.34-.23.7-.43,1.06-.63.04-.02.11.02.16.02.88,0,1.67-.43,2.52-.54.37-.05.69-.1.96-.38.45-.46.95-.3,1.52-.12.19-.19.37-.42.61-.59.18-.12.46-.26.63-.2.44.15.71.18,1.05-.26.21-.28.71-.42,1.1-.48.88-.12,1.74-.27,2.55-.67.31-.15.72-.27,1.03-.19.72.18,1.3-.1,1.82-.47.46-.32.89-.49,1.46-.53.57-.03,1.13-.25,1.7-.38.36-.81,1.14-.71,1.81-.81.63-.09,1.26-.15,1.74-.64.26-.27.62-.28.94-.4.52-.19,1.16-.16,1.54-.72.1-.15.43-.24.63-.21.63.09,1.16-.09,1.7-.38.36-.19.77-.39,1.16-.39.56,0,.78-.53,1.23-.62.46-.1,1.01.02,1.38-.18.67-.37,1.41-.54,2.11-.8.58-.22,1.15-.5,1.83-.54.61-.03,1.19-.43,1.87-.39.39.02.84-.01,1.16-.2.36-.21.67-.47,1.11-.48.41,0,.92.14,1.2-.05.54-.38,1.11-.09,1.65-.26.5-.15,1.07-.04,1.52.3.23.17.41.49.74.24.25-.18,0-.43,0-.64,0-.72.2-1.37.8-1.83.17-.13.57-.05.57.17,0,.77.74,1.42.34,2.24-.21.43.11.96-.27,1.36.58.63.15,1.22-.03,1.85-.07.25.16.58.1.84-.1.44-.7.64-.62,1.21.07.49-.28.9-.34,1.34-.14,1.06-.7,1.84-1.37,2.58-.12.13-.21.28-.34.45.59.5,1.14,1,1.74,1.46.17.13.45.1.67.15l-.04-.04c.32.35.57.85.96,1.01.77.32,1.01,1.14,1.67,1.53.16.09.19.4.26.62.34,1.06.62,2.14,1.04,3.18.19.49.34,1.03.34,1.54,0,.85.53,1.54.36,2.4.43.04.65.07.88.07.29,0,.6-.08.88-.03.58.1,1.14.26,1.71.4.57.14,1.17-.09,1.74.25.22.13.61.13.86.03.63-.27,1.12.07,1.65.28.22-.1.44-.17.64-.29.33-.19.64-.26.99-.05.13.08.37.12.48.05.31-.19.64-.25,1-.3,1.1-.16,2.21-.29,3.07-1.15.21-.21.65-.28.99-.27.65,0,1.13-.3,1.49-.77.27-.35.53-.59.98-.68.34-.07.7-.19.96-.41.25-.2.34-.61.79-.43.03.01.11-.05.15-.09.32-.34.51-.82,1-.97.43-.14.88-.23,1.34-.35-.12-.35-.06-.61.23-.79.51-.32,1.09-.45,1.68-.51.57-.06,1.16-.07,1.69-.31.39-.18.78-.14,1.19-.05.47.11.87.03,1.3-.32.54-.43,1.24-.71,1.96-.58.39.07.69-.06,1.01-.14,1.13-.29,2.2-.79,3.41-.75.2,0,.41-.2.62-.31.16-.08.31-.24.47-.24.97,0,1.81-.44,2.7-.71.47.3.94.13,1.3-.15.4-.31.79-.4,1.3-.47.79-.11,1.56-.43,2.3-.77.76-.35,1.56-.5,2.34-.74.61-.19,1.29-.18,1.74-.75.05-.06.25-.09.32-.05.29.19.52.17.74-.11.07-.09.18-.2.28-.21,1.38,0,2.47-1.03,3.82-1.12l-.05-.05q.17.31.41,0l-.04.04c.42-.39.79-.89,1.39-.98,1.97-.29,3.79-1.07,5.66-1.7.34-.11.68-.26,1.02-.1.26.13.34,0,.54-.15.39-.3.79-.74,1.4-.49.29.12.41-.14.57-.29.63-.58,1.36-.83,2.23-.68.19.04.51-.06.62-.2.37-.49.88-.81,1.4-1.03.79-.34,1.2-.91,1.48-1.77-.99.02-1.94.19-2.89.32-.63.09-1.24.26-1.87.06-.16-.05-.39-.1-.52-.03-.99.55-2.12.09-3.13.48-.31.12-.72.1-1.06.01-.81-.2-1.61.11-2.4-.02-.78-.12-1.47.25-2.22.27-.29,0-.58.13-.87.12-.64-.02-1.33-.24-1.92-.09-.65.17-1.28.15-1.92.18-.7.04-1.43-.16-2.07.29-.69-.04-1.41.25-2.13-.1.06-.19.06-.39.16-.49.48-.47.97-.77,1.73-.57.47.12,1.06-.01,1.55-.18.53-.18,1.07.39,1.5-.01.44-.41.89-.05,1.34-.15.68-.16,1.4-.16,2.11-.17.94-.01,1.88.05,2.8-.26.16-.06.37-.1.52-.06,1.38.4,2.79-.41,4.16.16.93-.11,1.87-.21,2.8-.33.63-.08,1.25-.17,1.88-.24.63-.07,1.27-.11,1.9-.18.64-.06,1.28-.19,1.92-.19,1.03,0,1.97-.23,2.84-.79.29-.18.65-.26,1.08-.42.37-.46.86-.99,1.25-1.57.35-.53.61-1.14.89-1.72.09-.18-.23-.5-.43-.42-.79.32-1.62.27-2.43.4-.41.07-.78.1-1.19.06-.32-.03-.66.13-.95.19-.1-.12-.15-.16-.17-.21-.17-.58-.04-.91.48-.87.9.07,1.7-.35,2.6-.35.8,0,1.62-.28,2.42-.44.86-.18,1.69-.49,2.52-.77.22-.07.47-.19.6-.36.3-.42.71-.83.5-1.44-.15-.42-.64-.62-1.38-.51-.52.07-1.03.22-1.55.32-.69.13-1.42.15-2.07.38-.68.24-1.39-.24-2.04.23-.16.12-.49.11-.69.03-.99-.38-1.94-.31-2.92.03-.25.09-.57-.02-.88-.04.05-.18.05-.35.11-.37.69-.32,1.38-.63,2.08-.9.21-.08.49-.07.7,0,.63.24,1.22.3,1.88.03.36-.15.82-.09,1.23-.08.76.02,1.53.11,2.23-.33,1.24-.04,2.43-.47,3.67-.43.41.01.89.08,1.22-.1.46-.25.95-.33,1.4-.54.52-.24.97-.66,1.43-1.02.28-.22.49-.52.78-.71,1.7-1.12,2.97-2.64,4.1-4.29.28-.41.52-.75,1-.92.19-.07.38-.29.23-.57-.16-.31,0-.54.18-.8.16-.23.64-.19.55-.57-.09-.38.22-.5.34-.74.25-.47.4-1,.99-1.18,0-.49.32-.82.58-1.18.17-.23.31-.49.43-.75.21-.47.83-.6.88-1.23.04-.54.6-.82.85-1.28.16-.3.45-.52.69-.78.11-.13.3-.24.33-.39.13-.79,1.11-1.07,1.13-1.91.01-.5.15-.93.7-1.12.13-.05.25-.26.3-.42.2-.58.14-1.25.57-1.77.38-.46.48-1.05.68-1.59.24-.63.69-1.21,1.12-1.75.64-.8.89-1.77,1.27-2.68.03-.07-.09-.2-.16-.34-2.22.71-4.53,1.19-6.68,2.15-.37.17-.78.28-1.17.4-.47.15-.82.04-.87-.29-.05-.34.15-.47.45-.62,1.42-.74,2.92-1.2,4.49-1.46.12-.02.26.01.35-.05,1.26-.83,2.79-.81,4.16-1.31.89-.33.89-1.12.63-1.73-.08-.18-.34-.35-.54-.39-.28-.05-.6-.03-.87.05-.57.17-1.11.39-1.67.59-.27.1-.54.26-.82.31-.88.15-1.72.31-2.44.91-.3.25-.75.38-1.14.42-.82.09-1.49.59-2.28.77-.73.17-1.38.62-2.08.93-.7.31-1.41.59-2.11.89-1.4.61-2.82,1.18-4.18,1.86-.68.34-1.32.42-2.02.31-.02-.16-.08-.31-.04-.35.34-.32.71-.61,1.06-.92,1.05.04,1.74-.99,2.79-.96,1.41-1.02,3.13-1.34,4.68-2.04,1.27-.58,2.59-1.06,3.93-1.5,1.33-.44,2.62-1.01,3.95-1.5.49-.18,1.03-.25,1.53-.41,1.52-.47,2.93-1.21,4.35-1.91.33-.16.61-.33,1-.18.11.04.42-.07.43-.16.12-.62.61-.49,1.02-.6.44-.13.83-.45,1.26-.63,1.14-.46,2.34-.75,3.4-1.45.41-.27,1.02-.23,1.68-.36.16-.18.37-.47.63-.7.37-.32.61-.94,1.29-.68.28-.28.56-.56.85-.86.21.03.42.07.64.1.14-.28.14-.56-.1-.89-.57.06-1.18.15-1.8.18-.11,0-.23-.22-.38-.36,1.2-.29,2.32-.58,3.46-.83.34-.08.71-.1,1.06-.06.65.07,1.13-.21,1.59-.62.38-.35.81-.64,1.26-.99-1.11-.3-1.82-.28-3.78.08.17-.58.56-.86,1.08-.95.69-.12,1.39-.22,2.08-.31.47-.06.95-.05,1.41-.14.4-.08.77-.25,1.16-.38-.03-.21-.05-.43-.09-.69.34-.18.72-.32,1.03-.56.34-.26.71-.35,1.11-.47.35-.11.64-.5.89-.82.76-.95,1.34-1.45,2.5-2.04.47-.24.76-.66,1.08-1.05.11-.13.12-.43.23-.45.81-.19,1.11-1.01,1.78-1.38.61-.33,1.06-.92,1.84-.97.49-.03.53-.75,1.12-.76.41-.01.72-.32.91-.75.08-.18.39-.24.56-.4.39-.34.98-.26,1.31-.81.21-.35.83-.41,1.2-.7.51-.4,1.16-.6,1.56-1.15.12-.17.39-.23.61-.33.16-.07.43-.07.48-.18.26-.58.93-.46,1.3-.82.47-.45.92-.87,1.58-1.06.29-.08.49-.46.74-.7.64.36.78-.19,1.05-.54.09-.11.33-.23.43-.19.51.22.89-.09,1.06-.41.32-.6.87-.73,1.41-.94,1.03-.41,2.06-.79,2.95-1.48.18-.14.42-.27.64-.28.47-.02.88-.06,1.01-.62.02-.09.16-.21.26-.22.53-.09.93-.3,1.28-.77.26-.34.81-.45,1.2-.71.63-.43,1.27-.85,1.79-1.41.31-.33.68-.48,1.06-.6.53-.17,1.42-.51,1.63-.73.36-.37.56-.94,1.22-.9.35-.39.8-.67,1.08-1.15.28-.49.72-.85,1.4-.82.37.01.41-.61.83-.68-.15-.53.22-.73.6-.91.26-.13.53-.25.81-.33.32-.1.49-.3.55-.62.02-.1.09-.26.17-.28,1.09-.34,1.31-1.43,1.9-2.19.09-.12.03-.55-.1-.63-.56-.37-.97-1.03-1.82-.93-.44.06-.72-.33-.89-.74-.09-.21.05-.55.26-.57.57-.05,1.14-.26,1.71.14.42.29.91.55,1.48.31.07-.03.26.19.37.32.22.26.41.54.61.81-.06.24-.15.52-.18.81-.04.35.45.61.23.98-.18.29-.47.52-.69.79-.38.45-.72.93-1.12,1.36-.39.42-.84.79-1.24,1.19-.5.49-.9,1.06-1.54,1.43-.6.35-1.3.59-1.73,1.2-1.07.18-1.76.98-2.4,1.71-.71.81-1.43,1.45-2.47,1.78-.54.17-.85.77-1.44.96-.56.19-1.01.56-1.35,1.08-.19.28-.52.55-.84.62-.97.22-1.69.85-2.41,1.42-.51.4-1.31.27-1.6.97-1.01-.35-1.42.57-2.07.98-.34.22-.7.48-1.09.54-.49.08-.86.32-1.28.53-.39.19-.74.32-1.1.63-.5.45-1.03.97-1.77,1.1-.15.03-.28.18-.41.29-1.48,1.23-3.06,2.28-4.96,3.26-.24.12-.32.31-.44.51-.08.15-.23.33-.37.36-.58.13-1.13.33-1.61.68-.51.37-1.15.48-1.59,1.04-.34.44-.95.67-1.45.97-.14.09-.34.18-.48.14-.28-.07-.46.02-.58.24-.42.76-1.15,1.12-1.89,1.47-.43.2-.76.48-1.04.9-.35.51-.87.94-1.39,1.3-.83.58-1.44,1.35-2.04,2.15-.07.09-.19.13-.29.19-.06-.06,0-.34-.22-.13.09.03.18.06.27.09-.21.36-.59.32-.93.42-.33.1-.64.28-.94.46-.35.21-.21.78-.69.96-.31.12-.56.41-.82.65-.45.41-.7.93-.66,1.53-.35.13-.8-.26-.98.13-.31.69-1,.76-1.54,1.06-.12.07-.41-.09-.48-.02-.47.53-1.25.42-1.73.85-.46.4-1.26.49-1.31,1.3-.53.37-1.03.81-1.61,1.08-.42.2-.89.25-1.23.63-.1.12-.33.22-.47.19-.84-.18-1.32.45-1.81.89-.96.86-2.2,1.35-3.02,2.36-.15.18-.29.4-.49.51-1.44.77-2.33,2.12-3.39,3.28-.43.47-.74,1.03-1.12,1.55-.34.47-.71.93-1.04,1.41-.74,1.06-1.47,2.12-2.19,3.19-.23.34-.46.69-.62,1.07-.25.58-.14,1.33-.7,1.75-.51.39-.3,1.16-.89,1.47.1.71-.42,1.18-.73,1.68-.3.49-.59,1.01-.93,1.48-.37.51-.81,1.01-1.3,1.4-.35.27-.58.6-.75.96-.46.96-.99,1.87-1.84,2.54-.31.25,0,.54-.13.79-.49.94-.96,1.89-1.44,2.83-.36.69-.77,1.35-1.46,1.74-.44.25-.68.64-.9,1.04-.13.22-.21.4-.48.43-.35.04-.51.26-.51.6,0,.48-.22.68-.68.87-.45.19-.86.62-1.16,1.03-.42.58-.95,1.03-1.49,1.49-.74.64-1.38,1.4-2.07,2.1,0-.16.03-.38-.24-.16.09.04.19.08.28.12-.31.35-.57.76-.93,1.05-.69.55-1.45,1.01-1.87,1.85-.09.19-.37.28-.55.43-.28.22-.54.46-.82.68-.56.44-.63,1.27-1.35,1.6-.59.27-1.06.72-1.38,1.31-.77.16-1.1.76-1.43,1.39-.07.13-.27.24-.43.27-.38.08-.61.33-.86.59-.35.37-.61.84-1.21.96-.23.04-.4.4-.6.62-.22.25-.37.62-.85.43-.1-.04-.34.12-.43.25-.38.52-.83.81-1.5.73-.39-.05-.3.5-.57.53-.21.03-.44-.12-.63.12-.38.48-.89.73-1.49.88-.38.1-.77.3-1.08.55-.3.24-.62.32-.97.39-.46.09-.92.13-1.38.17-.34.03-.67.39-.98.64-.3.23-.64.02-.98.19-.5.26-1.2,0-1.61.57-.03.04-.1.07-.16.07-1.33.05-2.44.78-3.68,1.14-.87.25-1.84.19-2.57.9-.18.17-.56.13-.84.2-.79.2-1.55.43-2.29.84-.79.44-1.73.64-2.59.95-.72.26-1.46.47-2.13.82-.37.2-.67-.05-.99.06-.33.11-.66.28-1,.35-.97.19-1.82.73-2.82.88-.92.14-1.8.51-2.71.75-.39.1-.84.02-1.19.18-.56.26-1.36-.03-1.71.71-.68.16-1.36.37-2.05.47-.58.09-1.17.08-1.65.53-.15.14-.43.14-.66.17-.99.1-2.01.04-2.91.6-.14.09-.43-.09-.66-.1-.23,0-.59-.03-.66.09-.35.61-1.16.12-1.52.68-.04.06-.21.05-.32.06q-.89.07-1.38.93c.16.45.62.23.9.42.29.2.57.41.87.59.2.12.48.14.62.29.51.54,1.21.71,1.84,1,.59.27,1.15.57,1.83.56.19,0,.45.18.56.35.29.45.68.59,1.18.67.71.11,1.35.37,1.72,1.08.07.14.23.27.38.31.91.28,1.67.85,2.45,1.35.41.26.82.42,1.28.54,1.34.34,2.72.6,3.82,1.55.04.04.1.09.15.09.59.05,1.09.27,1.61.58.48.3,1.11.36,1.68.52.8.22,1.61.45,2.15,1.14.29.37.98.1,1.11.72,0,.04.21.1.29.07.49-.2.88.07,1.34.19,1.41.4,2.8.81,4.17,1.32.22.08.5.18.68.11.75-.3,1.35-.01,1.98.33.46.26.94.31,1.51.25.85-.08,1.75.11,2.6.28.36.07.65.18.99-.02.12-.07.33-.02.49.03.16.05.32.24.46.22.84-.11,1.61.17,2.41.29.72.1,1.46.29,2.25.11.61-.14,1.29-.02,1.94.06,1.45.18,2.9.3,4.38.23.74-.03,1.48-.15,2.23-.04.69.1,1.41.04,2.12.05.18,0,.38-.05.53.03,1.02.5,2.05.25,3.08.07.23-.04.54-.15.69-.05.56.37,1.14.04,1.69.15.6.13,1.15-.07,1.72-.16.32-.05.67.16,1.01.16.45.01.91-.01,1.34-.11.44-.1.81.05,1.21.15.15.03.35-.04.5-.11.4-.19.84-.23,1.21-.1.58.21,1.09.19,1.63-.11.18-.1.45-.07.67-.07.53.02,1.06.09,1.58.08.45,0,.9-.2,1.36.07.21.12.45-.04.59-.25.1-.14.17-.33.3-.42.36-.24,1.81-1.38,1.96-1.8.31-.85.91-1.47,1.46-2.12.56-.66,1.11-1.33,1.66-2,.3-.36.61-.76,1-1,.52-.31.94-.7,1.37-1.11.21-.2.45-.39.71-.53,1.22-.71,1.71-1.13,2.43-2.13.7-.25,1.25.03,1.79.55-.29.28-.54.66-.89.83-.5.25-.84.6-1.18,1.02-.25.31-.59.65-.95.73-.99.22-1.62.83-2.1,1.65-.16.27-.36.45-.63.59-.34.17-.52.45-.55.85-.01.15-.16.41-.26.41-1,.06-.9,1.14-1.48,1.56-.01.42-.28.67-.65.72-.67.08-.41.9-.92,1.09,0,.48-.19.9-.58,1.15-.37.23-.26.77-.74.93-.39.13-.1.59-.29.89-.38.59-.6,1.28-.98,1.87-.57.87-1.08,1.78-1.71,2.62-.41.55-.95,1.06-1.01,1.82,0,.06-.04.12-.07.16-.29.37-.56.75-.88,1.1-.32.35-.05.79-.2,1.11-.19.4-.1.98-.66,1.18.09.41-.11.77-.22,1.14-.07.22-.02.5-.12.69-.69,1.21-.73,2.58-1.01,3.89-.39.38.12.78-.03,1.17-.15.38-.28.77-.39,1.17-.04.16-.03.35.02.5.12.36-.05.7-.05,1.03,0,.33.16.63-.06.98-.1.16-.08.47,0,.65.22.46.28.96.05,1.37-.24.43.05.79-.03,1.18-.07.35-.15.69-.18,1.04-.04.41,0,.8-.15,1.22-.1.3.09.68.12,1.03.03.23.11.54,0,.69-.43.62-.27,1.22-.08,1.86.11.39.15.82.11,1.22-.05.5.01.93.3,1.34.06.09.12.25.08.33-.37.71.07,1.34.16,2.01.09.67.08,1.35.34,2,.1.26.11.57.11.86,0,2.42,0,2.43.79,4.53.32.85.21,1.81.64,2.65.07.14-.28.54-.21.61.79.89.86,2,1.04,3.08.03.16.13.37.26.45.69.41.63,1.2.87,1.8.49,1.25.99,2.51,1.54,3.73.24.53.47,1.08.71,1.61.1.22.32.42.31.63-.03,1.5,1.17,2.53,1.43,3.93.18.97,1.01,1.65,1.53,2.46.24.38.69.77,1.31.76.23,0,.47.3.7.47.5-.05,1.03-.1,1.55-.15.81-.07,1.52-.4,1.95-1.08.53-.84,1.28-1.55,1.54-2.67-.38-1.03-1.27-1.84-1.82-2.87-.47-.17-.37-.49-.26-.85.02-.08-.07-.28-.13-.29-.71-.14-.13-.7-.35-1,.55-.25,1.05-.19,1.43.28.4.5.89,1.01,1.09,1.6.23.7.8,1.16,1.05,1.82.66.23.48,1.24,1.26,1.37.33.59.69,1.18.99,1.79.11.23.19.42.46.46.68.12,1.09.68,1.65.99.1.62.79.02.99.49.13.31.27.6.67.75.58.23.8,1.02,1.54,1.1.6.06,1.1.41,1.59.74.08.05.23,0,.33.04.82.36,1.74-.03,2.58.36.25.11.67-.11.99-.22,1.44-.47,2.92-.27,4.39-.26.58,0,1.14.18,1.73,0,.4-.13.8.06,1.19.21.32.12.64-.32,1-.01.12.1.34.12.51.11.69-.03,1.34-.2,2.06.01.6.17,1.29-.16,1.92.15.04.02.14.02.15,0,.48-.89,1.13-.15,1.7-.2.55-.05,1.08-.31,1.67-.17.21.05.46-.09.69-.08.46.03.94.19,1.38.13.69-.11,1.36-.34,2.04-.55.92-.29,1.35-.93,1.24-1.88-.03-.29-.15-.56-.21-.79.05-.49.7-.69.4-1.32-.15-.3.08-.77.1-1.17.04-.75-.25-1.48-.15-2.24-.42-.37.06-.75-.02-1.16-.17-.92-.36-1.84-.63-2.74-.08-.27-.2-.62-.11-.84.16-.38.18-.64-.16-.92-.25-.2-.34-.56-.21-.81.28-.56,0-1.01-.12-1.51-.22-.92-.53-1.79-.98-2.62-.16-.3-.26-.64-.38-.97-.18-.5-.22-1.11-.55-1.48-.56-.63-.54-1.41-.74-2.12-.28-1.01-.29-2.1-.8-3.05-.08-.15-.03-.35-.07-.52-.07-.3.46-.63-.05-.92-.35-.2-.04-.6-.24-.92-.31-.5-.36-1.09-.12-1.7.13-.32,0-.67-.14-1.02-.23-.54-.36-1.12-.07-1.71.04-.09.06-.28,0-.32-.63-.41-.23-1.07-.39-1.6-.18-.57-.03-1.16.07-1.75.04-.24.03-.54.02-.81,0-.28-.16-.55-.2-.83-.16-1.16.23-2.29.23-3.45,0-.51.1-1.01,0-1.55-.1-.57.34-1.1.36-1.68.02-.52-.11-1.05-.12-1.57,0-.15.11-.35.24-.46.3-.27.39-.6.34-.96-.08-.52.07-.92.46-1.27.07-.06.12-.21.11-.31-.11-.69.24-1.23.52-1.8.08-.16.21-.32.22-.48.07-1.25.57-2.38.9-3.55.03-.11-.04-.28.02-.35.85-.97.65-2.41,1.46-3.36.34-.4-.04-.66.07-1.07.17-.19.41-.46.63-.73.11-.13.29-.29.29-.43-.05-1.21.79-2.07,1.17-3.11.2-.55.68-.97.68-1.61,0-.11.25-.21.35-.34.22-.27.42-.55.63-.83.3-.39.25-.92.63-1.33.36-.39.42-1.07.58-1.63.14-.51.24-1.03.34-1.55.03-.16.04-.34.01-.5-.05-.25-.05-.47.17-.64.32-.25.53-.03.77.15.18.14.37.27.59.43.11.69.19,1.37-.39,1.96-.14.14-.18.42-.21.64-.1.87-.37,1.71-.72,2.47-.41.9-.96,1.73-1.14,2.72-.75.26-.7,1.06-.96,1.61-.27.56-.51,1.11-.9,1.6-.07.09-.1.21-.14.32-.22.61-.31,1.27-.55,1.84-.24.58-.52,1.15-.76,1.74-.1.25-.03.45.03.68.04.15.05.39-.03.48-.64.69-.66,1.58-.86,2.42-.2.83-.39,1.66-.64,2.48-.36,1.21-.43,2.5-.62,3.76-.04.28-.02.59-.12.85-.32.93-.15,1.91-.37,2.86-.1.45-.04,1.04.1,1.48.16.52-.38,1.03.08,1.48-.32.55-.22,1.16-.18,1.74.03.51-.4,1.01-.04,1.53-.48.67-.03,1.34-.03,2.01,0,.71-.09,1.42.24,2.1.07.13,0,.34-.02.51-.03.29-.18.62-.09.86.41,1.09.28,2.29.76,3.36.18.39.28.78.07,1.19-.18.35.29.28.35.53-.1.16-.23.36-.4.63.14.2.34.41.45.66.12.26.1.6.25.84.28.45-.09.64-.29.97.6.97.71,2.14,1.06,3.22-.46.77.19,1.45.18,2.2,0,.67.26,1.35.42,2.02.18.74.5,1.48.51,2.22.01.68.35,1.33.15,2.02-.04.15-.02.39.08.51.55.68.27,1.44.28,2.18,0,.82-.18,1.66.23,2.44-.12.51,0,.99.09,1.5.09.51-.1,1.03-.28,1.55-.13.37-.06.82-.07,1.23-.02.7-.04,1.41-.06,2.15-.33.21-.65.37-.9.6-.26.23-.45.53-.68.83-.61.11-1.24.22-1.87.33-.11.02-.28-.07-.33-.02-.67.74-1.49.42-2.29.39-.74-.03-1.47.02-2.21.08-1.08.1-2.19-.06-3.31-.11-.32.49-.43.58-.75.45-.22-.09-.42-.2-.61-.33-.26-.18-.52-.18-.83-.15-.8.06-1.6.18-2.4-.03-.48.24-1.04-.42-1.49.14-.75-.06-1.49.13-2.28-.1-1-.3-2.07-.19-3.07.48-.39-.17-.82-.35-1.11-.48-.45.07-.81.24-1.1.16-.71-.19-1.51-.05-2.16-.5-.14-.1-.33-.15-.5-.15-.61-.02-1.15-.15-1.66-.51-.46-.32-1.19-.18-1.49-.82-.7-.27-1.41-.55-2.13-.83-.47.08-.96.52-1.45-.01-.52.07-1.06.08-1.56.22-.59.16-1.14.26-1.73.03-.13-.05-.32-.02-.47.02-.94.23-1.89.09-2.82.05-.33-.02-.65-.22-.97-.36-.21-.09-.44-.35-.6-.31-.68.18-1.02-.74-1.71-.48-.09.03-.38-.17-.4-.29-.06-.39,0-.8-.44-1.02-.34-.17-.67-.37-1-.55.12-.11.25-.23.37-.34-.36-.25-.92-.38-.71-1.03-.39-.37-.83-.65-1.4-.62-.35.02-.71.04-1.06.06-.34.01-.61-.27-1.01-.17-.29.08-.65-.13-.98-.16-.76-.07-1.46-.41-2.25-.39-.75.02-1.52.07-2.28-.15-.29-.09-.63.28-1,.02-.3-.21-1.83-.66-2.05-.52-.55.34-1.02-.06-1.53-.05-.45,0-.95.03-1.36-.3-.1-.08-.38-.06-.48.02-.59.51-.96.01-1.36-.25-.52.16-1.02.32-1.52.47-.54-.44-1.09-.1-1.64-.01-.06,0-.13.02-.18,0-.51-.32-1.01-.1-1.53-.01-.32.05-.72.12-.95-.27-.05-.09-.21-.22-.25-.2-.66.4-1.47-.11-2.07.27-.52.33-.56-.14-.81-.32-.66.17-1.34.44-2.02,0-.13-.08-.37-.1-.52-.05-1.02.38-2.1.2-3.14.36-.59.09-1.13.19-1.7,0-.1-.04-.25-.04-.35,0-.76.37-1.62.19-2.39.51-.93.38-1.93.54-2.84.92-.48.2-.91.04-1.34.14-.4.1-.75.37-1.15.44-.26.05-.55-.11-.83-.18-.27-.07-.45.05-.57.28l.05-.05c-.29-.05-.59-.16-.86-.13-.19.02-.33.37-.52.39-.7.07-1.41.05-2.12.08-.87.04-1.77-.17-2.59.31-.05.03-.12.04-.17.03-.46-.06-.93-.25-1.36-.17-.46.09-.91.27-1.38.17-.28-.06-.51-.14-.82-.01-.64.27-1.28.39-2.01.1-.46-.19-1.05-.12-1.58-.08-.49.04-.92.02-1.36-.26-.18-.12-.46-.16-.68-.12-.9.15-1.72-.24-2.58-.36-.17-.02-.39-.05-.49-.17-.31-.38-.66-.39-1.07-.22-.6-.3-1.28-.17-1.88-.35-.66-.19-1.26-.62-1.88-.94-.05-.03-.11-.05-.16-.07l.04.04Zm-54.83-71.15c-.04-.09.03-.34-.21-.15.08.03.17.07.25.1-.15.37-.48.69-.21,1.15.03.05-.06.18-.09.27-.12-.1-.28-.17-.36-.3-.11-.17-.16-.38-.24-.59-.3.13-.52.23-.78.34-.15.48-.33.97-.45,1.48-.03.13.09.36.21.45.12.08.37.1.48.02.43-.29.82-.64,1.17-.92.21.01.48.05.49.02.18-.62.23-1.24-.1-1.84-.02-.03-.11-.03-.17-.04Zm6.4.36c.09.06.21.1.27.18.51.64.5.64,1.01-.06.05-.07.2-.06.24-.07.26.32.5.61.79.97.23-.28.41-.5.59-.71l-.05.04c.3-.07.49-.41.92-.12.38.25.9.19,1.24-.26l-.02.02c.45-.37.9-.73,1.42-1.16-.41-.59-.77-1.1-1.14-1.6-.05-.07-.25-.1-.31-.06-.12.09-.2.24-.28.37-.02.03.02.11.03.16.03.15.27.27.07.44-.12.1-.38-.12-.41-.42-.07-.6-.26-1.15-.6-1.64-.12.02-.24.03-.35.06-.14.04-.27.09-.38.12-.11-.46-.21-.85-.29-1.17-.39-.1-.68-.15-.94-.25-.22-.08-.28-.53-.68-.32-.35,1.67.33,3.31.24,5.14-.53-1.1-.61-2.08-.63-3.08,0-.3.02-.6-.03-.89-.05-.29-.21-.54-.57-.63-.05.16-.15.34-.13.49.11.69-.18,1.43.22,2.09-.13.04-.26.09-.47.16-.02-.86-.03-1.63-.08-2.39,0-.12-.19-.26-.32-.33-.07-.04-.22.03-.31.09-.26.17-.44.41-.42.73.02.51.07,1.01.1,1.51-.66.03-.23-.72-.64-.84-.2.28-.4.56-.61.86-.19-.23-.32-.4-.52-.65-.18.31-.45.55-.45.8-.02.98-.16,1.98.06,2.94.83.14.82.13.85-.56.02-.34.14-.68.13-1.02,0-.34-.1-.67-.17-1.12.2.1.42.15.43.22.06.76.07,1.53.12,2.3.02.27.45.63.59.51.17-.14.38-.36.39-.55.02-.38-.1-.77-.13-1.16-.04-.4-.05-.8-.08-1.19.06,0,.11-.02.17-.02.21.88.42,1.76.63,2.64.4-.08.54-.32.6-.63,0,0-.05.05-.05.05Zm-61.85,41.21c-.12-.1-.27-.17-.37-.29-.25-.31-.56-.39-.64-.14-.22.71-.72,1.16-1.3,1.55-.04.03-.01.18,0,.27,0,.02.11.05.15.04.11-.03.21-.08.3-.14.15-.1.31-.15.32.1,0,.1-.07.25-.15.3-.15.08-.33.08-.5.13-.18.05-.35.14-.28.35.05.14.19.25.3.36.08.08.18.14.27.2.02.05.05.11.05.16-.07.64-.19,1.28-.19,1.91,0,.7.91.91.98,1.62,0,.08.13.14.25.27.14-.2.36-.38.38-.58.06-.46,0-.94.05-1.41.09-.93-.16-1.89.18-2.87.15.08.26.14.37.2-.2.33-.32.65.16.85l-.04-.06c-.09.21-.21.42-.28.63-.11.33-.06.38.51.6.26.1.48.44.39.7-.47,1.36-.24,2.76-.2,4.15,0,.28.15.67.59.63.06-.08.11-.12.12-.17.02-.11,0-.24.04-.35.12-.49.2-.5.65-.08-.11.11-.25.2-.33.33-.03.05.07.22.14.27.08.05.21,0,.32,0,0-.1,0-.21-.03-.31-.03-.11-.1-.21-.15-.32.98.41,1.21-1.01,2.09-.87.08.01.19-.12.26-.21.07-.09.11-.21.13-.32.04-.23.06-.46.11-.69.02-.07.1-.13.16-.21.11.25.21.47.36.82.43-.75.8-1.4,1.16-2.05.09-.06.24-.09.27-.17.22-.59.15-1.19.02-1.8-.36.1-.57.26-.61.58-.13.1-.31.18-.37.31-.12.26-.11.59-.26.82-.17.24.05.67-.41.79-.13-.8-.03-1.53.25-2.27.11-.28-.01-.57-.34-.73-.21-.1-.4-.26-.61-.35-.32-.14-.77.15-.76.49.02.52.2,1.06.1,1.55-.21,1.05-.18,2.08.02,3.12,0,.02-.09.1-.12.09-.1-.04-.25-.09-.26-.16-.06-.35-.1-.7-.1-1.05,0-1.36.01-2.71,0-4.07,0-.11-.08-.22-.15-.39-.33-.13-.71-.28-1.13-.44-.06-.2-.11-.43-.19-.65-.06-.16-.18-.32-.39-.23-.1.04-.19.13-.24.22-.17.28.13.74-.44.97.06-.81,0-1.56.18-2.31.1-.43.02-.52-.47-1-.14.48-.28.91-.41,1.35,0,0,.05-.04.05-.04Zm66.47-53.3c-.01-.05-.01-.12-.04-.16-.02-.03-.07-.03-.11-.05.07.05.13.11.2.16-.18.22-.31.54-.55.65-.75.34-1.42.79-2.13,1.2-.7.41-1.25,1.03-1.98,1.41-.3.15-.5.48-.75.73-.2.21-.36.47-.59.61-.29.18-.39.41-.43.72-.06.45.06.81.48,1.03.08-.08.2-.14.23-.23.12-.35.29-.7.63-.82.35-.12.78-.21,1.11-.11.4.12.68-.04,1.02-.11.16-.04.46-.05.5.03.34.66,1.19.5,1.59,1.03.45.6,1.42.66,1.59,1.55.71.31.96,1.15,1.67,1.46.52.84,1.31,1.58,1.18,2.69-.06.53.1.9.51,1.2.08.81.7.97,1.33,1.19.97.33,1.59-.47,2.39-.67,1.24-1.01,2.2-2.23,2.83-3.66-.22-.31-.4-.55-.57-.79.15-.25.29-.49.43-.74-.23-.23-1.27-2.15-1.22-2.56.07-.64-.4-1.1-.42-1.68-.01-.34-.18-.53-.46-.68-.57-.29-.62-.81-.57-1.33-.42-.33-.79-.76-1.25-.94-.47-.18-1.04-.11-1.56-.16-.11-.01-.2-.1-.31-.16-.17-.26.05-.94-.68-.64-.06.03-.21-.1-.29-.18-.47-.48-1-.8-1.72-.78-.26,0-.53-.18-.72-.25-.5.39-.92.71-1.34,1.04Zm-37.71,10.67h.81c.44.6.71,1.27,1.21,1.61.8.54,1.25,1.38,1.96,1.98.12.1.25.29.25.43-.02.59.39.96.61,1.43.24.52.61,1.01.52,1.66-.07.5.23.9.64,1.32.39.01.93.18,1.3,0,.56-.28.73.23,1.16.34.42-.76,1.23-.66,1.89-.57,1.16.16,2.18-.49,3.3-.43.11,0,.22-.08.32-.14.73-.38,1.46-.77,2.18-1.15.15-.08.44-.24.43-.25-.17-.38.08-.49.34-.66.11-.07.11-.32.15-.49.08-.28.06-.69.24-.81.6-.41.54-1.1.82-1.63.64-1.19.65-2.6,1.38-3.75-.05-.52.16-.89.58-1.21.15-.12.22-.41.24-.64.06-.89.3-1.71.81-2.45.31-.45.5-1.63.47-2.3,0-.16-.09-.38-.02-.48.38-.52.65-1.1.92-1.68.05-.1.16-.19.26-.23.16-.07.35-.17.49-.13.11.04.23.29.2.42-.18.96-.22,1.93-.36,2.89-.09.57-.31,1.13-.47,1.69-.46.19-.34.67-.49,1.01-.19.43-.27.9-.46,1.33-.26.58-.28,1.25-.75,1.77-.25.29-.38.73-.45,1.12-.05.32-.03.75.15.99.33.44,0,.9.19,1.34.53.23,1.03.27,1.34-.35.25-.51.89-.37,1.22-.81.18-.24.8-.11.7-.71h.79c.07-.06.12-.09.16-.14.57-.75.58-.73,1.59-1.2.45-.21,1.01-.35,1.13-1.01.03-.18.36-.47.49-.44.46.11.57-.28.83-.45.34-.22.71-.38,1.09-.58-.21-.98-.4-1.89-.59-2.77.3-.47.45-1,1.12-1.07.24-.02.54-.3.64-.54.14-.32.35-.44.64-.52.54-.15.96-.51,1.24-.96.4-.66.94-1.06,1.69-1.1.87-.05,1.18-.96,1.93-1.17.13-.32.26-.64.38-.92.12-.03.18-.05.24-.07.66-.25,1.32-.49,1.98-.75.64-.25,1.36.09,1.98-.31.08-.05.23.02.34.04.16.02.18.1.13.26-.03.08.02.19.05.28,0,.01.13.02.16-.01.5-.52,1.12-1.59,1.35-2.3.06-.17.1-.36.22-.48.45-.46.76-.91.28-1.55-.07-.09.01-.34.08-.48.6-1.27.63-1.52.27-2.86-.39-.07-.78-.17-1.19-.21-.44-.05-.92.23-1.32-.17-.03-.03-.12-.01-.17.01-.83.41-1.73.24-2.6.35-.17.02-.38,0-.51.08-.83.55-1.78.54-2.71.64-.21.02-.49.12-.61.28-.54.74-1.41.77-2.16,1.04-.65-.2-1.17.66-1.85.21-.59.27-1.17.55-1.77.8-.43.18-.89.28-1.33.44-1.05.37-2.1.75-3.15,1.12-.05-.08-.11-.17-.16-.25-.06.08-.11.17-.17.25-.36-.04-.71-.06-.98.23-.45.48-.93.86-1.63.86-.15,0-.33.14-.44.27-.31.34-.7.38-1.12.39-.35,0-.69.06-.97.34-.31.31-.72.42-1.14.37-.38-.05-.65.11-.97.28-.4.22-.87.31-1.31.46-.02-.05-.04-.11-.07-.16-.02-.02-.07-.03-.11-.04.07.05.15.1.22.14-.12.24-.35.41-.56.31-.53-.25-.96-.39-1.39.2-.14.19-.52.21-.8.28-.48.12-.99.06-1.43.41-.21.17-.55.19-.83.24-.52.09-1.05.12-1.5.48-.17.14-.43.16-.66.22-.56.15-1.12.28-1.68.42-.56.14-1.12.27-1.7.35-.56.07-1.07.46-1.61.69-.27.11-.56.22-.85.25-1.06.11-2.03.56-3.05.82-.52.13-.98.36-1.54.12-.17-.07-.45.03-.66.11-.27.1-.53.26-.78.4-1.1.61-2.23,1.11-3.51.57-.25-.1-.45,0-.67.07-.18.06-.39.01-.56.01-.07.24-.11.41-.18.65-1.05.32-2.09.74-2.53,1.93-.04.1-.14.2-.23.26-.91.62-1.46,1.51-1.83,2.44-.41.24-.94.14-.96.74,0,.15-.14.33-.26.43-.35.3-.78.51-1.08.85-.31.34-.61.76-.71,1.2-.13.53-.78.13-.89.65-.08.39-.28.77-.45,1.14-.07.16-.19.3-.3.44-.36.47-.72.93-1.08,1.39-.73.09-.69.89-1.14,1.24-.09.07-.18.18-.28.21-.34.09-.71.14-.42.64-.49.73-.86,1.6-1.51,2.14-.75.61-1.03,1.39-1.32,2.11-.43.28-.99.12-1.16.6-.16.45-.3.87-.69,1.19-.36.29-.56.85-.95,1-.57.23-.25.84-.65,1.07-.67.39-1.06,1.03-1.53,1.61-.44.54-.74,1.19-1.41,1.57-.3.17-.52.66-.59,1.04-.17.9-.89,1.69-.54,2.69-.15.44-.43.88-.44,1.32-.04,1.35-1.12,2.45-.86,3.86.02.13-.16.31-.25.46-.34.59-.33,1.35-.92,1.82.16.4.08.65-.36.82-.19.07-.39.31-.46.52-.49,1.31-.95,2.62-1.4,3.94-.06.16-.1.4-.02.51.31.45.09.86-.18,1.1-.5.43-.54,1-.72,1.55-.48,1.45-.39,2.77.72,3.91.12.12.2.28.28.39.6.15,1.16.3,1.74.45.22-.16.45-.34.7-.51,1.06-.71,2.26-1.23,3.03-2.33.12-.17.4-.22.59-.36.33-.24.68-.43.99-.71.69-.62.93-1.47,1.34-2.23.22-.4.37-.84.55-1.27.58-.13.03-.87.57-1.07.14-.05.23-.4.25-.61.02-.31.06-.61.3-.8.68-.53.95-1.27,1.2-2.05.08-.26.31-.48.5-.69.11-.13.37-.21.39-.33.08-.71.6-1.11,1.03-1.58.11-.12.19-.33.17-.49-.05-.44.13-.8.28-1.18.1-.26.15-.62.05-.86-.15-.36-.06-.66-.04-1,.02-.31-.21-.64-.06-.99-.38-.45.46-.39.31-.81-.3-.86-.34-1.72.43-2.42-.02-.68.33-1.25.62-1.83.05-.09.07-.24.02-.33-.21-.43.1-.58.35-.85.71-.77,1.53-1.46,2.08-2.35.46-.74,1.05-1.18,2.01-1.26-.28-.29-.28-.51-.04-.68.45-.33,1.17-.28,1.38-.98.03-.09.18-.19.28-.2.59-.02.92-.5,1.38-.74.57-.3,1.15-.69,1.75-.76.75-.09,1.16-.5,1.55-1.01.89-.1,1.76-.24,2.63-.27.91-.04,1.79-.32,2.73-.21.47.06.96-.44,1.49-.03.1.08.38.02.5-.06.43-.3.9-.23,1.37-.24.59-.01,1.18,0,1.77-.04,1.18-.07,2.2-.41,2.71-1.68-.07-.17-.2-.38-.23-.61-.13-.85-.65-1.45-1.14-2.1-.84-1.13-1.89-2.1-2.58-3.35-.07-.13-.29-.17-.46-.27.19-.3.38-.59.57-.89l-.04.04Zm56.25,50.52l-.04-.04c.19.51.85.27,1.13.75.27.47.97.29,1.37.67.2.19.55.21.78.37.76.54,1.51,1.11,2.2,1.63.29-.05.58-.2.74-.12.5.26,1.14.36,1.35,1.04.03.11.32.26.4.22.44-.24.8,0,1.16.17.37.17.7.45,1.08.58,1.75.63,3.63.89,5.3,1.79.98-.17,1.76.57,2.7.58.47,0,.89.1,1.34.27.47.17.83.64,1.46.45.53-.15.95.34,1.45.48.11.03.23.04.35.05,1.02.08,2.04.13,3.06.31.63.11,1.3-.03,1.95-.02,1,.01,1.87-.66,2.9-.49.24.04.53-.19.8-.29.94-.36,1.09-.36,2.2,0-.38.4-.73.8-1.11,1.16-.11.11-.33.23-.46.2-.78-.19-1.25.58-2,.57-.68,0-1.37.26-2.06.36-.95.14-1.91.19-2.88.21-.17,0-.44,0-.49-.11-.38-.69-1.03-.43-1.58-.5-.29-.03-.64.08-.88-.03-.91-.45-1.98-.27-2.86-.79-.2-.12-.42-.24-.64-.28-.4-.07-.89.05-1.2-.15-.42-.27-.79-.36-1.28-.33-.29.02-.61-.39-.9-.37-.45.03-.82-.15-1.17-.29-2-.82-4.09-1.4-6.02-2.37-.06-.08.04-.39-.23-.17.1.04.19.08.29.11-.07.29-.39.44-.5.25-.4-.69-.93-1.03-1.74-.96-.14.01-.29-.19-.45-.26-.38-.16-.76-.3-1.14-.45-.21-.09-.49-.13-.62-.29-.38-.51-.95-.65-1.47-.91-.32-.16-.88-.11-.93-.67-.43-.19-.87-.35-1.27-.57-.19-.1-.29-.35-.45-.5-.21-.19-.45-.35-.68-.52-.55.29-.81-.2-1.18-.42-.64-.39-1.47-.43-2-1.04-.06-.07-.23-.08-.34-.07-.58.06-1.02-.24-1.46-.54-.24-.16-.48-.42-.74-.46-.44-.07-.74-.32-1.07-.56-.38-.27-.78-.7-1.18-.71-.57-.02-.59-.36-.75-.69-.79-.08-1.06-1.01-1.92-1.08-.62-.06-1.19-.45-1.54-1.06-.21-.38-.59-.58-.99-.71-.63-.2-1.22-.39-1.52-1.09-.1-.22-.47-.42-.73-.44-.7-.06-1.15-.56-1.72-.83-.64-.31-1.29-.6-1.86-1-.36-.25-.7-.35-1.11-.44-.8-.17-1.59-.43-2.35-.71-.23-.09-.35-.46-.59-.58-.17-.08-.45.09-.66.06-.19-.03-.2-.42-.54-.31-.78.25-1.12-.44-1.6-.8q-1.23.44-1.78,1.68c-.09.2-.23.39-.33.56.16.38.55.61.38,1.11-.08.23.1.56.16.84.28,1.2.3,2.45.69,3.64.53,1.63,1.49,3.61,2.48,5.18.18.29.33.63.4.97.16.79.9,1.03,1.37,1.52.8-.02,1.2.67,1.8,1.01.19.11.35.33.55.37,1.44.34,2.7,1.05,3.94,1.83.25.15.5.29.76.42,1.44.73,3.04.85,4.56,1.25.15.04.34-.01.49-.07.22-.09.41-.2.52,0-.03.31-.13.57-.05.74.09.19.33.36.53.43.21.07.46,0,.69-.03.22-.02.48-.16.66-.09.91.36,1.87.57,2.74,1.08.93.55,1.9,1.14,3.08,1.07.38-.02.7.1,1.01.42.31.3.75.54,1.29.47.53-.07,1.04.09,1.54.31.54.23,1.12.37,1.7.51.54.13,1.13.14,1.53.62,1.11-.08,1.94.82,3.02.86.25.01.28.48.65.51,1.42.08,2.74.6,4.06,1.08.31.11.74,0,.92.41-.09.03-.18.06-.26.08.04.04.08.08.12.13l.1-.25c1.24.55,2.52.93,3.87,1.07.51.05.92.24,1.15.69.13.27.29.37.54.28.24-.09.45-.08.67.04.4.21.84.28,1.29.31.18.5.8.13,1.01.48.31.52.94.17,1.26.49.67.68,1.52.53,2.33.61.32.03.57.09.69.43.03.08.2.2.23.18.64-.4,1.11.16,1.65.3.68.18,1.35.41,2.02.64.66.23,1.35.25,2.02.49.64.23,1.46.01,2.08.27.66.27,1.32.24,1.98.35,1.44.22,2.89.19,4.34.21.44,0,.82-.36,1.35-.15.33.13.71-.25,1.18-.12.41.12.91-.07,1.37-.15.52-.09,1.05-.17,1.56-.32.67-.2,1.37-.4,1.98-.73.6-.32,1.43.25,1.87-.53.68.3,1.21-.26,1.83-.31v-.6c.82.06,1.67.13,2.26-.6.03-.03.11-.02.17-.02.53-.01,1.04-.21,1.55-.29.48-.08,1.02.09,1.53.04.34-.03.62.25,1.01.06.29-.14.68-.09,1.02-.06.35.03.69.12,1.03.21,1.08.31,2.18.33,3.3.27.81-.04,1.63-.14,2.45-.01.22.03.46-.04.69-.08.35-.06.69-.18,1.03-.19.59-.03,1.2-.09,1.76.05.66.17,1.26-.26,1.87-.07.89.27,1.76.07,2.6-.09.51-.09.91-.05,1.33.21.09.06.21.07.32.11.16-.07.32-.15.48-.22.21-.1.42-.2.65-.31.56.2,1.1.55,1.65.55.6,0,1.14.02,1.69.27.08.04.21-.05.32-.06.29-.02.67-.14.85,0,.54.41,1.04-.21,1.54.04.54.28,1.02-.17,1.55-.15.5.02.87-.35,1.14-.75.19-.29.35-.62.5-.94.29-.59.37-1.17.23-1.86-.18-.96-.68-1.9-.37-2.93.04-.13-.08-.32-.14-.48-.48-1.18-.99-2.35-1.14-3.64-.03-.22-.24-.42-.26-.64-.02-.27.19-.65.08-.81-.42-.56-.13-1.25-.47-1.82-.34-.56-.13-1.22-.17-1.84,0-.11-.01-.24-.08-.31-.26-.27-.39-.52-.2-.93.13-.29-.28-.62-.03-1,.28-.43-.4-.48-.41-.81.13-.21.25-.41.38-.61-.16-.1-.3-.19-.45-.29.06-.32.12-.65.18-.97.07-.4-.25-.75-.12-1.2.07-.23-.25-.57-.39-.86.2-.25.38-.47.55-.69,0-.55-.02-1.09,0-1.62.02-.53.03-1.06.12-1.58.09-.53-.29-1.01-.12-1.54.07-.22.07-.46.12-.69.11-.44-.14-.89.12-1.36.19-.35,0-.8-.03-1.21-.04-.43.21-.87-.07-1.32-.04-.07.24-.35.38-.55-.11-.47-.22-.97-.33-1.46.14-.1.42-.25.4-.3-.16-.5-.41-1-.16-1.52.24-.49-.28-1.06.2-1.5-.29-.55.04-.99.22-1.49.12-.34.23-.81.14-1.13-.18-.68.17-1.21.27-1.81.04-.22.17-.52.08-.65-.25-.37-.01-.65.04-.98.15-.89.78-1.68.57-2.67-.04-.19.14-.43.23-.64.27-.65.55-1.29.82-1.94.7-.34.48-1.3,1.13-1.68.1-.46.24-.89.71-1.1-.3-.84.58-1.37.57-2.14,0-.22.07-.45.05-.67-.06-.72-.25-1.4-.96-1.88-1.52-.24-3.12-.08-4.7-.04-.32,0-.62.08-.98.04-.97-.09-1.98-.12-2.94.05-.6.11-1.14.24-1.71,0-.4-.17-.79-.16-1.2,0-.27.1-.57.19-.85.19-1.06,0-2.13-.03-3.19-.05-.51-.38-1.06.08-1.53-.06-.6-.18-1.14.03-1.71.01-.35-.01-.7.08-1.06.08-2.19,0-4.38-.02-6.57-.04-.88,0-1.76.15-2.62-.1-1.44.45-2.91-.26-4.35.13-.05.01-.12,0-.18,0-1.65-.42-3.38-.37-5.02-.86-.15-.05-.34-.04-.47-.12-.7-.46-1.51-.61-2.3-.85-.78-.24-1.5-.69-2.29-.91-1.25-.36-2.47-.73-3.56-1.48-.24-.16-.55-.22-.81-.34-1.23-.55-2.54-.91-3.64-1.75-.65-.49-1.42-.89-2.2-1.12-.81-.23-1.36-.88-2.19-1.08-1.14-.27-1.99-1.17-3.11-1.55-.43-.14-.85-.43-1.17-.75-.47-.47-.93-.91-1.62-.98-.22-.62-1.03-.28-1.34-.82-.16-.29-.51-.43-.89-.52-.45-.11-.86-.38-1.28-.57-.63.3-.93-.32-1.37-.52-.52-.24-.94-.7-1.57-.71-.43-.52-1.08-.69-1.65-.99-.4-.21-.82-.4-1.26-.62-.39.16-.85.29-1.26.52-.35.21-.61.57-.95.79-.34.21-.85.21-1.09.48-.45.51-.97.64-1.58.63-.26,0-.45.09-.57.33l.04-.04c-.6-.02-.89.59-1.38.72-.59.15-1.1.35-1.54.76-.16.15-.39.28-.6.31-.75.1-1.51.14-2.26.24-.71.09-1.44-.05-2.14.17-1.76-.28-3.44.45-5.18.4-.11,0-.24.03-.33.08-.36.2-.71.43-1.07.62-.33.17-.69.3-1.09.47.39.22.7.39,1,.56l-.04-.04c.2.19.4.38.71.69-.17.11-.31.25-.47.29-.51.11-1.03.19-1.54.28-1.03-.54-2.08.23-3.11-.07-1.28.56-2.51.23-3.65-.27-.28.12-.63.32-.66.28-.24-.34-.49-.49-.9-.3-.09.04-.26.02-.32-.04-.65-.63-1.42-.5-2.17-.31-.47.12-.91.13-1.39.04-.89-.17-1.73-.77-2.71-.38-.12.05-.32-.12-.49-.18-.22-.07-.47-.24-.65-.18-.84.26-1.63.04-2.44-.15-.17-.04-.36-.05-.52-.01-.4.1-.77.3-1.17.35-.46.06-.94-.05-1.39.05-.28.06-.59.03-.82.12-.24.09-.38.42-.58.63-.08.08-.19.14-.3.18-1.1.39-2.2.77-3.1,1.55-.17.15-.42.21-.64.28-.45.15-.9.27-1.35.42-1.29.42-2.55.93-3.86,1.23-.68.16-1.35.44-2.04.47-.72.02-1.4.32-2.08.29-.82-.04-1.48.38-2.22.52-.29.05-.56.16-.85.02-.33.3-.69-.1-1.01.02-1.09.4-2.21.27-3.33.31-.47.02-.94-.04-1.38.22-.18.1-.51.11-.67,0-.49-.29-.9-.15-1.34.07-.47.24-.96.21-1.46.11-.11-.02-.27-.12-.33-.08-.36.26-.7.25-1.13.14-.35-.09-.83.24-1.16.12-.68-.24-1.3.21-1.91.04-.72-.2-1.35.16-2.03.15-.22,0-.47.13-.67.07-1.11-.32-2.13.28-3.2.33-.27.01-.54.23-.79.38-.4.24-.77.58-1.2.72-1.03.34-1.83,1.06-2.74,1.59-.4.23-.56.79-1.09.84-.55.05-.61.89-1.26.75-.2.29-.39.59-.59.88q-.59.85-1.62,1.31c.03.21.07.43.11.72-.13.11-.33.25-.48.42-.34.39-.66.8-.98,1.21-.22.28-.03.55.04.83.02.08-.09.22-.17.3-.23.22-.28.4-.15.75.15.39-.23.86.01,1.31-.39.86-.34,1.72-.03,2.58-.32.29.06.64-.08.95-.31.67.28,1.38-.08,2.07-.06.11.1.32.14.49.1.44-.1.84-.53.92-.39.07-.8.05-1.16.06-.44.65-.79,1.27-1.25,1.79-.46.51-.69,1.08-.82,1.73-.06.28-.11.59-.27.81-.25.37-.82.55-.61,1.16-.45.21-.56.71-.89,1.04-.16.15-.35.39-.34.58.04.77-.42,1.34-.69,1.99-.11.26-.25.54-.23.8.06.69.05,1.45.34,2.05.26.54.88.92,1.37,1.33.16.14.43.16.65.22.22.07.54.06.66.21.39.5.93.46,1.45.48.83.04,1.65.05,2.48.1.13,0,.26.19.39.29-.29.05-.65-.23-.9.16.35.16.67.24.85-.21.4.09.85.09,1.19.28.42.24.75-.24,1.18.01.63.37,1.37-.29,2.05.07.09.05.24.02.35,0,1.47-.35,2.84-1.03,4.36-1.21.21-.02.39-.25.59-.38.2-.12.42-.35.61-.33.62.07,1.01-.14,1.25-.71.03-.07.23-.14.31-.11.3.12.57.16.78-.12.3-.41.67-.63,1.19-.66.2-.01.46-.18.57-.36.23-.34.41-.72.55-1.1.14-.37.67-.51.55-1.07-.42-.23-.96-.4-1.3-.75-.46-.46-1.04-.12-1.57-.44-.22-.32-.49-.7-.77-1.1.35-.18.7-.36,1.02-.53.98.55,2.13.56,2.95,1.3.71-.34,1.22.2,1.82.38.1.03.23,0,.35-.01.33-.04.68-.04.97-.16.41-.17.72.31,1.19.05.3-.17.79-.02,1.2,0,.49.03.85-.36,1.3-.42.12-.02.27-.06.35,0,.54.35,1.05.01,1.51-.12.63-.18,1.28.11,1.88-.15.63-.28,1.29-.04,1.93-.14.79-.13,1.69.19,2.33-.57.06-.07.23-.11.33-.09,1.17.23,2.28-.66,3.46-.18.09.04.25-.02.33-.08.52-.42,1.22-.29,1.78-.6.57-.32,1.22-.01,1.85-.22.75-.25,1.56-.52,2.37-.11.47-.39,1.01.12,1.5-.12.74-.36,1.52-.26,2.26-.12.45.09.89.09,1.34.12.17,0,.37-.08.52-.03.55.19,1.16.33,1.62.68.41.31.77.64,1.28.81.24.08.37.46.6.62.36.26.7.62,1.26.34.2-.1.56.06.83.14.45.14.87.43,1.32.47.9.09,1.66.51,2.46.82-.04.18-.07.29-.11.48.29.04.57.05.84.11.22.05.53.1.63.25.45.71,1.28.73,1.9,1.14.54.35,1.14.61,1.71.92.08.55.69.41.9.68.31.39.73.56,1.09.85.7.58,1.79.66,2.15,1.69.04.12.34.12.45.24.27.28.65.26.95.42.29.16.49.48.76.69.66.5,1.33.95,2.2,1,.15,0,.38.11.43.24.19.39.57.37.88.52.52.26,1.1.35,1.59.75.43.35,1.07.42,1.46.88.75-.17,1.07.59,1.66.76.06.02.12.02.18.03Zm-64.22,10.04c-.51-.74-.99-1.51-.6-2.51.05-.12-.12-.32-.15-.49-.05-.29-.2-.64-.09-.85.37-.71.08-1.48.3-2.19.31-1.03-.12-2.12.25-3.15-.42-.92-.14-1.84.03-2.74.16-.8-.13-1.52-.33-2.24-.13-.45-.57-.76-1.09-.79-.29-.02-.6,0-.87.09-.94.34-1.93.48-2.86.87-1.03.43-2.09.82-3.17,1.07-.7.16-1.34.39-1.95.74-.65.37-1.48.4-2.03,1-.1.57-.25,1.14-.28,1.72-.01.26.28.54.07.83-.31.44-.29.88-.08,1.34.26.56.31,1.22.12,1.73-.24.67.12,1.12.26,1.66-.15.16-.29.31-.42.44.17.27.49.57.43.73-.22.58.26,1.13,0,1.65-.31.62.2,1.12.15,1.68-.02.17-.05.35-.1.52-.07.28-.19.56-.23.84-.04.33.36.63.11.99.2.2.46.36.58.6.22.43.57.66.99.62.99-.09,1.95.37,2.96.11.27-.07.63-.06.87.07.74.38,1.39.13,2.03-.19.74-.37,1.42-.86,2.18-1.18.93-.4,1.43-1.37,2.41-1.69.12-.04.18-.27.24-.43.08-.22.14-.44.26-.84Zm-36.04-5.73c.19.3.54.3.45.64-.04.17-.15.39-.08.51.17.33.21.57,0,.95-.5.96-1.21,1.52-2.28,1.65-.29-.15-.59-.31-.91-.47-.55.51-1.05,1.02-1.75,1.23-.3.65-.92,1.05-1.31,1.62-.09.14-.3.19-.42.32-.25.25-.45.55-.72.76-.27.21-.66.27-.88.5-.8.84-1.56,1.73-2.31,2.62-.21.25-.44.53-.34,1.03.57-.34,1.42.03,1.72-.88.01-.03.31.08.45.04.5-.14,1.13-.18,1.44-.51.43-.45,1-.13,1.4-.52.3-.29.81-.36,1.18-.2.91.37,1.78.18,2.57-.18.61-.27,1.15.32,1.71-.06.06-.04.29.01.3.05.11.48.48.14.7.25.3.16.59.35.78.46,1.28-.85,1.89-2.15,2.93-3.08.51-.46.87-1.1,1.27-1.68.35-.52.56-1.11,1.08-1.56.49-.43.66-1.21,1.12-1.71.5-.53.82-1.19,1.4-1.69.59-.51.94-1.31,1.39-1.99-.11-.51-.21-1.02-.32-1.53-.02-.11-.03-.24-.09-.34-.05-.09-.15-.2-.25-.23-.44-.15-.58-.52-.77-.89-.24-.45-.38-1.02-1.05-1.15-.29.13-.61.27-.92.43-.72.37-1.44.76-2.17,1.13-.37.78-1.12.98-1.83,1.27-.25.1-.57.34-.62.57-.1.46-.36.74-.74.91-.83.38-1.37,1.09-2.12,1.72Zm10.13-8.95c-.29.27-.63.58-.91.83-.04.49.34.54.49.76.19.29.27.64.43.95.08.15.22.28.34.4.29.3.48.59.51,1.06.02.36.41.69.61,1.04.23.4.6.82.61,1.23,0,.7.66.32.83.65.05.1.19.17.22.27.24.89.98,1.07,1.7,1.33.48-.75.34-1.4-.11-2.01-.25-.33-.7-.56-.81-.91-.13-.39-.23-.71-.59-.93-.11-.06-.17-.3-.16-.44.04-.4-.18-.7-.39-.94-.19-.22-.34-.34-.33-.68,0-.24-.32-.48-.45-.74-.18-.37-.08-.55.41-.93-.04-.6-.07-1.17-.11-1.75-.02-.23,0-.48-.1-.69-.05-.11-.3-.22-.42-.19-.37.11-.63.51-.55.8.08.34.22.66.32.98-.56.6-.97-.12-1.54-.11Zm62.95-46.35c-.49.13-.94.11-1.12.32-.75.86-.72,1.86-.33,2.96.55-.19,1.03-.35,1.45-.49.38-.92-.08-1.75,0-2.79Zm-5.33,3c-.18.35-.38.7-.56,1.06-.05.1-.09.24-.06.34.06.21.12.45.26.6.14.16.59-.1.7-.36.22-.51.21-1.03-.01-1.53-.03-.07-.2-.07-.34-.12Zm-44.48,43.56q-1,.55-.75,1.84c.95-.34.96-.36.75-1.84Zm42.6-40.38c.32-.29.54-.48.74-.69.17-.18.26-.41.08-.61-.1-.1-.33-.17-.47-.14-.26.07-.49.23-.76.36.13.34.23.6.41,1.07Zm-1.75.53c.16-.05.33-.11.49-.16.24-.08.39-.23.36-.5-.02-.22-.42-.33-.71-.2-.26.11-.29.32-.14.87Zm-48.71,43.32c-.51.54-.54.72-.18,1.09.04.04.25.02.26,0,.08-.36.2-.74-.07-1.08Zm.09-.43c.03-.62.06-1.01.07-1.4,0-.1-.09-.2-.17-.37-.3.56-.21,1.05.11,1.77Zm9.04-2.57c-.21-.12-.35-.27-.45-.24-.11.02-.23.2-.25.32-.02.18.1.33.31.25.12-.05.22-.18.39-.33Zm101.24-45.56c.09-.04.18-.08.27-.12-.02-.04-.05-.11-.06-.11-.11.04-.21.08-.31.13.03.03.07.07.1.1Zm-112.74,44.96c-.04-.1-.07-.2-.11-.3-.04.02-.12.06-.11.07.03.12.08.24.12.36.03-.04.07-.08.1-.13Zm74.57-57.22c-.04.11-.09.2-.1.3,0,.03.06.08.1.12.05-.07.13-.14.14-.22,0-.06-.08-.13-.13-.2Zm-24.57,17.15c-.02.1-.07.2-.05.28.03.17.13.18.18,0,.03-.09-.02-.19-.03-.29,0,0-.06,0-.09,0Zm3.63-12.55l-.07.09.11.02-.04-.1Zm57.31-.64l-.1-.07v.1s.1-.04.1-.04Zm-93.91,20.28s-.07-.09-.09-.09c-.14.04-.15.11-.01.16.02,0,.07-.05.1-.08Zm54.72-25.67l-.06.07.1.02-.04-.09Zm-6.48,15.32l.1.07.02-.11-.12.04Zm87.28-24.48l-.09-.06-.02.09.11-.03Zm17.38,69.24v.2s.07-.06.11-.09c-.03-.03-.06-.07-.11-.12Zm-9.97,22.94l.06-.08h-.1s.04.08.04.08Z"/>
        <path class="cls-1" d="m464.69,61.19c-.14.18-.25.42-.44.53-.82.47-1.61.96-2.26,1.66-.17.19-.52.25-.8.3-.36.06-.7.03-.56.59.03.1-.31.35-.51.43-.61.24-1.02.72-1.51,1.11-.45.36-1.03.55-1.53.86-.07.04,0,.3,0,.45-.6.45-1.28.8-1.8,1.38-.1.11-.43.02-.72.02-.36.47-.7,1.07-1.4,1.36-.3.12-.5.49-.77.72-.53.45-.96,1.04-1.66,1.29-.06.02-.12.04-.16.08-1.31,1.46-3.16,2.26-4.51,3.64-.56.57-1.37.88-1.71,1.7-.17.4-.97.12-1.07.76-.86.45-1.44,1.2-2.05,1.91-.51.59-1.08,1.1-1.74,1.44-.38.2-.65.46-.96.71-.35.29-.7.58-1.06.86-.37.29-.71.63-1.07.88-1,.67-1.72,1.61-2.61,2.39-.08.51-1.01.38-.83,1.09.01.04-.04.11-.08.15-.33.43-.97.4-1.27.92-.22.39-.49.76-.96.98-.98.45-1.66,1.31-2.4,2.05-.28.28-.62.54-.81.85-.23.37-.56.59-.83.88-.24.26-.51.51-.67.82-.37.72-.85,1.26-1.7,1.38-.33.05-.16.38-.26.52-.22.33-.52.74-.86.83-.59.15-.88.51-1.21.94-.42.54-.65,1.26-1.5,1.39-.21.03-.36.42-.53.65-.11.14-.21.39-.32.4-1.01.07-1.05,1.15-1.71,1.59-.08.06-.09.27-.17.29-.75.19-.98.99-1.59,1.33-.24.13-.55.15-.83.22l.04.04c-.13-.32-.27-.64-.42-1.01.32-.38.7-.69.9-1.09.2-.4.97-.29.78-.96.37-.28.71-.65,1.13-.83.49-.21.47-.76.91-1.02.65-.38,1.18-.95,1.81-1.37.32-.21.45-.52.68-.76.28-.29.6-.62.96-.73.46-.14.73-.3.77-.81,0-.12.22-.24.37-.32.44-.23.75-.58.92-1.04.1-.25.26-.36.51-.41.52-.13.5-.81.91-.99.46-.2.73-.57,1.08-.88.3-.26.14-.66.39-.89.21-.2.5-.32.7-.52.87-.92,2.11-1.45,2.77-2.61.71.04.83-.79,1.39-.97.15-.58.93-.71.98-1.38,0-.12.25-.23.39-.34.65-.51,1.24-1.14,1.97-1.5.71-.36.93-1.19,1.72-1.46.4-.14.64-.68,1.01-.97.35-.28.76-.41.99-.91.13-.3.66-.43,1.01-.64.2-.12.56-.25.55-.36-.05-.81.6-.91,1.1-1.18.1-.05.24-.11.27-.2.23-.61.78-.83,1.26-1.16.42-.3.67-.83,1.23-.96.68-1.05,1.99-1.42,2.68-2.45.47-.14.59-.86,1.26-.73.12.02.34-.3.46-.49.31-.5.57-1.04,1.3-.97.05,0,.1-.06.15-.09.59-.36.83-1.08,1.6-1.32.57-.18,1.07-.72,1.5-1.18.21-.23.38-.39.68-.47.22-.06.48-.16.61-.33.25-.3.34-.71.81-.84.35-.1.53-.66,1.03-.39.07-.22.15-.44.23-.68.94-.4.94-.4,1.65-1.19.19-.21.42-.41.63-.6.48-.42,1.1-.65,1.51-1.19.18-.24.61-.33.95-.43.24-.07.44-.14.54-.38l-.04.04c1.02-.37,1.63-1.27,2.43-1.92.12-.55.68-.61,1.02-.92.33-.32.57-.78,1.13-.75.73-.56,1.51-1.07,2.18-1.7.26-.25.52-.48.84-.6.83-.32,1.54-.86,2.21-1.4.79-.63,1.67-1.09,2.49-1.66.25-.18.54-.1.75-.2.24-.12.34-.47.56-.66.21-.19.47-.36.73-.47.97-.42,1.77-1.13,2.67-1.66.18-.11.33-.48.46-.46.65.1.77-.65,1.33-.75.48-.09.9-.5,1.33-.79.58-.4,1.15-.81,1.7-1.25.56-.45,1.57-.19,1.82-1.14.66-.37,1.33-.74,1.99-1.12.25-.15.54-.28.72-.5.33-.4.82-.43,1.2-.66.39-.23.63-.61,1.18-.62.32,0,.75-.2.92-.45.5-.75,1.29-.95,2.03-1.26.05-.02.11-.04.16-.07.39-.26.82-.48,1.15-.79.36-.34.97-.13,1.22-.63l-.04.05c.34-.13.66-.29.79-.66.21-.59.56-.17.94-.14.22-.18.52-.38.74-.65.16-.2.32-.36.57-.35.7.06,1.31-.22,1.74-.7.45-.5,1.3-.3,1.58-1.01.58-.26,1.16-.52,1.74-.78.47-.22.93-.49,1.42-.64.44-.14.92-.14,1.37-.2-.02-.24-.19-.52.19-.55.47-.04.96-.01,1.17-.59.03-.09.17-.17.28-.2.32-.1.74-.07.94-.27.27-.27.52-.42.87-.52.29-.08.54-.11.84-.07.09.01.18-.45.36-.55.49-.28.93-.7,1.61-.57.29.05.73-.12.94-.34.81-.86,1.89-1.18,2.94-1.55.28-.1.56-.14.7-.45.1-.23.25-.09.41-.04.14.04.37.05.46-.03.09-.08.05-.3.06-.49.33-.06.68-.13,1.02-.2.03-.15.05-.3.08-.45.35-.04.74.28,1.03-.28.15-.29.56-.58,1.06-.33.29.15.3-.1.33-.36.05-.36.48-.22.71-.36.36-.21.69-.45,1.07-.63.28-.14.73-.1.89-.3.3-.39.76-.29,1.1-.53.29-.2.62-.34.95-.48.38-.16.78-.27,1.15-.44.21-.09.38-.27.58-.38.82-.45,1.57-1.04,2.57-1.1.2-.01.4-.21.59-.33.5-.31.98-.66,1.61-.66.31,0,.56-.12.74-.4.06-.09.17-.18.27-.21.55-.14,1.13-.22,1.65-.42.49-.19.91-.65,1.39-.72.48-.07.57-.83,1.15-.53,1.31-.93,2.93-1.22,4.27-2.08.37-.24.8-.17,1.17-.3.77-.27,1.5-.63,2.24-.99.71-.35,1.59-.28,2.31-.73.74-.46,1.46-.93,2.41-.89.31.01.67-.23.93-.45.31-.26.59-.3.96-.19.11.03.29-.13.42-.23.09-.06.17-.26.2-.25.61.21.9-.5,1.46-.48.33.01.7-.13,1.01-.28.69-.34,1.4-.59,2.18-.55.38.02.66-.17.91-.47.22-.27.51-.48.75-.7.54.12.99.36,1.53-.07.37-.3.98-.33,1.49-.41.37-.05.68-.16.97-.38.14-.11.31-.28.44-.27,1.12.13,1.96-.74,3.02-.8.11,0,.29-.03.33-.1.39-.65,1.15-.5,1.71-.77.53-.25,1.11-.48,1.68-.52.54-.03.74-.51,1.18-.6.4-.08.84-.05,1.19-.23.44-.22.86-.36,1.34-.36.93-.89,2.35-.73,3.33-1.54.12-.1.38-.16.5-.1.63.32,1.15-.08,1.69-.22.62-.16,1.22-.42,1.84-.56.53-.12.92.12,1.05.67-.67.64-.67.63-1.53.88-.59.18-1.11.61-1.8.28-.27-.13-.56.16-.71.42-.2.34-.42.43-.84.44-.47.01-1.06,0-1.42.5-.05.07-.23.13-.24.11-.6-.89-.79.08-1.15.25-.05.03-.1.06-.16.07-.91.25-1.71.73-2.53,1.19-.22.13-.45.02-.57-.24.1-.03.36.1.21-.2-.05.08-.11.17-.16.25-.27.1-.56.17-.81.31-.26.14-.47.37-.72.52-.21.12-.6-.19-.68.3,0,.05-.2.12-.26.09-.49-.24-.91-.14-1.32.18-.22.18-.43.41-.69.5-.19.06-.44-.1-.67-.12-.11-.01-.24.03-.33.09-.95.62-2.18.53-3.13,1.18-.22.15-.57.11-.86.14-.93.11-1.82.28-2.63.85-.46.32-1.09.39-1.62.62-.36.15-.69.38-1.03.58-.69-.27-1.23.15-1.78.44-.29.15-.49.23-.8.09-.09-.04-.29.12-.42.22-.09.07-.13.26-.2.27-.91.03-1.57.79-2.46.84-.76.04-1.33.77-2.16.57-.06-.01-.19.11-.23.2-.32.73-.82.78-1.37.34-.89.93-1.46,1.27-2.62,1.37-.74.06-1.38.22-1.95.71-.58.5-1.47.4-2.03.97-.8.07-1.47.4-2.01,1.01-.04.04-.1.07-.16.08-.58.07-1.13.08-1.62.55-.4.39-1.13.29-1.54.78-.07.08-.36-.04-.49.03-.45.27-1.05.14-1.44.62-.16.2-.53.22-.8.32-.21.08-.53.12-.6.26-.3.66-.79.55-1.33.44-.15-.03-.36.05-.49.15-.24.17-.42.42-.66.59-.27.18-.39.69-.84.48-.42-.2-.35.7-.8.32-.48.21-.94.48-1.44.62-.87.24-1.59.7-2.23,1.32-.27.26-.53.48-.93.2-.06-.05-.23-.02-.3.04-.82.57-1.72.97-2.66,1.3-.21.07-.34.33-.55.44-.72.38-1.35.94-2.18,1.11-.99.2-1.86.7-2.69,1.24-.7.45-1.46.76-2.21,1.04-.73.27-1.41.55-2.01,1.08-.33.29-.82.49-1.26.56-.34.06-.63-.04-.76.42-.05.17-.36.38-.55.38-.64,0-1,.47-1.49.73-.91.49-1.74,1.27-2.91,1.17-.09,0-.21.24-.32.37-.04.05-.06.1-.09.15-.63-.42-.81.59-1.36.42-.11-.03-.22-.1-.34-.1-.38-.02-.45.09-.46.73-.27.08-.61.08-.82.25-.8.63-1.77.92-2.69,1.3-.35.15-.55.38-.83.56-.27.17-.72.06-.99.24-.43.29-1.02.41-1.25.94-.14.34-.4.4-.71.41-.37,0-.72.09-.95.39-.39.51-.89.74-1.52.76-.33,0-.56.2-.69.48-.21.42-.33.95-1,.62-.3.69-.99.74-1.57,1.01-.52.24-.96.66-1.43,1.01l.05.05c-.12-.25-.45-.39-.53-.18-.25.63-.78,1-1.18,1.48-.26.16-.71-.39-.84.24-.02.1-.13.24-.22.26-.97.17-1.54,1.01-2.39,1.4-.85.39-1.63.92-2.45,1.38-.6.33-1.11.8-1.79,1-.25.07-.46.33-.66.54-.56.6-1.13,1.19-1.93,1.44-.59.18-.82.85-1.39.96-.65.12-1,.61-1.42,1-.47.43-1.24.4-1.54,1.06-.6,0-.95.31-1.23.84-.15.28-.52.47-.83.63-.71.36-1.45.67-2.16.99-.23.24.31.58-.28.85-.63.29-1.2.66-1.9.76-.16.02-.31.15-.44.25-.06.05-.07.18-.08.27,0,.03.09.07.14.09.11.03.23.04.35.05l-.05-.05Z"/>
        <path class="cls-1" d="m544.04,12.49c.28-.09.64-.11.82-.3.61-.63,1.39-.86,2.18-1.09.45-.13.9-.24,1.31-.52.62-.42,1.48-.28,2.06-.86.09-.09.47.16.65.09.66-.23,1.35-.45,1.94-.82.59-.37,1.3-.33,1.88-.74.43-.31,1.05-.58,1.67-.27.07.04.26-.01.29-.07.34-.67,1.08-.35,1.58-.65.45-.27.96-.46,1.44-.68.8.38,1.15-.6,1.88-.62.62-.02,1.23-.38,1.83-.61.93-.34,1.96-.47,2.69-1.25.07-.07.22-.09.33-.1.98-.1,1.95-.24,2.86-.67.58.41.98-.05,1.42-.3.14-.08.33-.11.5-.12.22,0,.44.05.67.07.03,0,.06-.1.11-.13.55-.29,1.24-.22,1.75-.59.51-.38,1.05-.46,1.66-.46.69,0,1.38.03,1.96-.58.29-.3.85-.38,1.31-.46.46-.08.97.07,1.4-.07.47-.16.91,0,1.31-.06.39-.07.78-.19,1.19-.25.46-.07.92-.19,1.37-.32.56-.16,1.05.01,1.51.31.13.08.28.25.27.38,0,.12-.18.32-.31.34-.51.1-1.03.15-1.57.22-.16.2-.34.43-.56.72-.27-.15-.52-.29-.66-.36-.51.16-.94.35-1.38.43-.46.08-.94.07-1.41.1-.39.02-.72.43-1.18.12-.12-.08-.42.1-.64.18-.72.25-1.42.57-2.16.74-.73.17-1.42.47-2.2.51-.57.03-1.13.33-1.7.34-.55.01-.94.55-1.5.36-.68.52-1.55.41-2.29.68-1.05.38-2.05.9-3.06,1.36-.38.17-.73.41-1.12.52-.25.07-.55-.05-.83-.08-.26.52-.84.25-1.2.49-.64.43-1.24.89-2.09.75-.13-.02-.37.13-.42.26-.22.54-.75.08-1.02.36-.29.3-.58.2-.94.19-.56-.03-1.08.35-1.66.39-.03,0-.03.29-.05.46-.31.12-.63.24-1.04.4-.2-.13-.44-.28-.69-.44-.1.06-.21.1-.29.18-.27.27-.35.69-.87.75-.5.06-.96.41-1.46.47-.54.07-.97.29-1.44.52-.2.1-.46.08-.7.1-.46.04-.96-.05-1.22.5-.05.11-.31.14-.48.16-.68.05-1.24.31-1.75.77-.15.14-.5.26-.63.19-.41-.26-.74-.02-.94.2-.37.39-.77.72-1.27.88-.48.15-.94.45-1.51.21-.14-.06-.42.15-.6.28-.38.27-.67.68-1.21.67-.73.53-1.55.74-2.42.9-.47.09-1.04.18-1.36.71-.2.34-.7-.27-.89.18-.15.37-.49.28-.74.38-.33.13-.66.29-1.01.31-.68.05-1.23.29-1.75.73-.38.31-.81.68-1.42.41-.11-.05-.34.07-.45.17-.21.2-.34.49-.68.51-.03-.05-.05-.1-.08-.14-.02-.02-.06-.02-.09-.03.08.04.15.08.23.12-.13.11-.25.29-.4.32-1.32.34-2.49.96-3.63,1.68-.64.41-1.31.76-2.1.89-.5.08-1.02.32-1.42.63-.33.25-.66.14-.96.26-.37.15-.7.41-1.07.57-.32.14-.66.21-.99.31-.11.03-.24.05-.33.11-.35.22-.84.37-1,.69-.27.54-.79.24-1.13.52-.31.26-.72.4-.87.83-.02.05-.04.12-.08.15-.39.25-.99-.03-1.26.47-.24.46-.62.63-1.08.8-.88.33-1.73.74-2.55,1.19-.59.32-.99,1.03-1.8.93-.48.33-1.02.6-1.42,1.01-.45.44-.95.54-1.52.66-.43.09-.88.21-1.14.73-.24.48-.7.79-1.31.77-.16,0-.42.06-.47.17-.17.38-.66.27-.79.47-.32.5-.65.8-1.27.79-.21,0-.49.1-.63.26-.35.39-.76.5-1.25.54-.19.01-.38.22-.56.36-.38.28-.75.56-1.12.83-.61-.29-.7-.76-.53-1.39.91-.67,1.91-1.27,3.02-1.71.76-.3,1.55-.65,2.16-1.18.53-.46,1.36-.36,1.73-1.07.09-.17.54-.21.82-.2.65.02.72-.49.92-.9.52.13,1.03.3,1.38-.34.08-.15.43-.13.63-.23.31-.15.73-.27.89-.54.27-.45.54-.73,1.08-.66,1.05-1.04,2.63-1.28,3.64-2.42.21-.24.79.05,1.05-.37.7.01,1.11-.48,1.45-.96.26-.37.54-.6.97-.67.23-.04.5-.04.67-.17,1.26-.91,2.8-1.2,4.11-2,.64-.39,1.43-.46,2-1.02.47-.46,1.1-.16,1.62-.16.14-.32.21-.62.39-.83.1-.11.37.13.6-.12.19-.21.57-.23.84-.38.26-.14.46-.37.72-.51.31-.16.73-.19.95-.42.41-.44,1.02-.28,1.44-.61.43-.34.94-.38,1.45-.47.44-.07.95-.14,1.17-.65.02-.04.1-.06.16-.06.21,0,.46.1.63.02.18-.09.3-.33.44-.5.03.28.18.37.44.3.05-.01.11-.08.11-.12,0-.04-.06-.11-.1-.12-.16-.02-.32-.02-.48-.02.23-.38.59-.31.94-.26.16.02.37.17.47-.05.18-.4.54-.47.89-.45.5.03.91-.14,1.32-.38.5-.3,1.05-.47,1.62-.63.84-.24,1.63-.66,2.45-.98.42-.17.79-.57,1.31-.29.05.02.2-.08.25-.16.22-.34.54-.42.91-.4.26.02.44-.12.56-.35l-.04.04Zm9.11-2.42c-.16.06-.16.14,0,.21.02,0,.08-.06.11-.1-.04-.04-.07-.07-.11-.11Z"/>
        <path class="cls-1" d="m488.17,39.88c.49-.58,1-1.13,1.84-1.15.33-.72,1.21-.62,1.7-1.12.23-.23.62-.3.94-.44.58.43.83-.08,1.2-.46.65.22,1.3.46,1.67,1.15-.34.22-.92-.15-1.07.47-.83.28-1.64.65-2.48.8-.56.1-.99.3-1.4.66-.31.27-.68.48-.96.78-.22.24-.46.33-.76.37-.17.02-.42.07-.47.18-.39.85-1.25,1.01-1.95,1.4-.67.37-1.3.78-2.04,1.03-.77.26-1.47.73-2.19,1.12-.93.51-1.83,1.05-2.77,1.54-.28.15-.46.33-.58.61-.12.28-.34.4-.67.47-.99.2-1.81.8-2.65,1.31-.34.66-1.19.73-1.58,1.37-.09.15-.43.14-.64.22-.16.06-.39.12-.43.24-.24.67-.9.65-1.38.94-.34.21-.85.08-1.07.52-.17.36-.73.02-.9.55-.08.25-.55.43-.88.52-.49.13-.84.36-1.12.79-.19.29-.65.02-.89.37-.2.28-.5.5-.77.73-.26.23-.52.46-.8.67-.28.21-.58.39-.88.57-.25.15-.51.38-.78.4-.66.07-1.06.36-1.37.95-.13.25-.58.44-.9.47-.78.06-1.32.43-1.76,1.04-.17.23-.4.42-.63.58-.73.5-1.45,1.01-2.21,1.44-.65.37-1.22.89-2,1.07-.5.12-.95.47-1.41.72.03.14.05.25.09.43-.39.21-.79.44-1.21.63-.32.14-.66.23-.99.34.13.41-.18.58-.43.79-.04.04-.06.1-.1.14-.4.48-1.04.49-1.55.78-.48.28-.5.92-1.1,1.07-.55.14-1.01.53-1.59.72-.76.24-1.45.75-2.13,1.21-.27.18-.4.55-.59.84-.32.03-.61.05-.93.08-.54.82-1.22,1.53-2.13,1.99-1.01.52-1.69,1.44-2.49,2.05-.26.02-.53.03-.53.04,0,.7-.59.89-1.04,1.06-.7.26-1.28.57-1.61,1.27-.09.2-.27.41-.46.52-.82.46-1.34,1.13-1.65,2-.04.11-.12.21-.21.28-.44.36-.87.74-1.34,1.07-.78.54-1.12.84-1.53,1.54-.09.15-.15.32-.26.46-1.38,1.82-1.67,2.31-2.39,4.37-.14.41-.3.77-.75.96-.66-.77-.54-1.71-.44-2.59.06-.49.53-.92.29-1.49.37-.58.68-1.21,1.12-1.73.37-.43.88-.74,1.33-1.11.18-.15.41-.27.52-.46.22-.36.51-.63.83-.89.49-.4,1.06-.73,1.24-1.39.87-.52,1.51-1.24,2.08-2.08.27-.4.8-.6,1.1-1.09.22-.37.75-.55,1.12-.83.51-.38.96-.86,1.5-1.16,1.03-.56,1.95-1.23,2.76-2.07.04-.04.08-.09.13-.12.69-.42,1.38-.83,1.99-1.37.61-.53,1.3-.97,1.95-1.45.33-.24.7-.45.96-.75.38-.44.79-.69,1.37-.66.23.01.4-.1.57-.31.7-.82,1.67-1.28,2.56-1.82.61-.37,1.18-.77,1.72-1.23.31-.27.62-.58.99-.72.51-.2.91-.49,1.3-.87.28-.27.7-.39,1.06-.58.63.37.49-.48.89-.58.35-.09.55-.57.97-.71.51-.18.91-.53,1.27-.92.15-.17.35-.37.56-.4.75-.12,1.32-.55,1.77-1.07.33-.38.79-.19,1.11-.46.31-.27.68-.47,1.01-.72.33-.25.95-.05,1.05-.53.11-.51.71-.34.86-.79.13-.38.73-.05,1-.48.2-.34.57-.6.91-.84.33-.24.74-.37,1.07-.61,1.22-.9,2.59-1.51,3.89-2.27.2-.11.36-.27.54-.42.68-.55,1.3-1.19,2.2-1.38.84-.8,2.13-.96,2.83-1.97.8-.21,1.33-.88,2.07-1.23.68-.32,1.44-.57,1.9-1.25.74-.21,1.3-.77,1.98-1.09.37-.17.75-.3,1.07-.6.19-.18.53-.19.8-.28.05-.02,1.87-.91,1.91-.93.15-.09.3-.19.45-.28.33-.19.78.17,1.09-.26.2-.28.51-.48.77-.71.04.09.07.18.11.27l.09-.09c-.08-.04-.16-.09-.25-.13Z"/>
        <path class="cls-1" d="m533.2,116.88c-.69-.95-1.26-1.9-2.19-2.65-.78.16-1.58.12-2.36-.08-.17-.84.42-1.04.97-1.22.37-.13.79-.05,1.18-.08.48-.04,1,.27,1.49.46.15.06.27.23.38.37.36.44.75.87,1.06,1.34.23.36.49.65.86.87.36.21.76.4,1,.71.63.78,1.43,1.19,2.39,1.35.17.03.33.1.49.16.41-.83,1.16-.99,1.92-.89.47.06.9.29,1.34-.06.91.38,1.82-.23,2.76.02.52.14,1.14-.06,1.72-.12.11-.01.24-.05.33-.13.98-.84,2.33-.7,3.4-1.3.14-.08.35-.04.52-.01.44.08.82-.04,1.16-.31.64-.49,1.35-.58,2.15-.46.52.08,1.1.11,1.58-.05.93-.3,1.86-.23,2.8-.27.41-.02.83-.05,1.21-.18.62-.21,1.16-.13,1.69.21.59.38,1.2.7,1.88.89.38.11.65.42.93.69.46-.23.73.24,1.1.34.38.1.7.42,1.07.62.2.11.43.24.65.25.99.04,1.34.86,1.84,1.48.08.09.04.37-.04.48-.09.11-.3.15-.46.18-.11.02-.23-.04-.34-.09-.16-.08-.29-.2-.44-.29-.8-.46-1.75-.49-2.53-1.1-.66-.52-1.59-.71-2.42-1-.3-.1-.5-.25-.69-.49-.5-.62-.83-.72-1.65-.61-.17.02-.41.14-.5.07-.7-.55-1.36-.05-2.01.1-.53.12-1.01.2-1.56.13-.72-.09-1.48-.3-2.18.11-.84-.09-1.59.37-2.41.41-.43.02-.8.15-1.13.43-.17.14-.44.3-.63.27-.7-.13-1.23.21-1.82.48-.52.24-1.12.32-1.68.47-.55-.36-1.03-.03-1.49.19-.4.2-.74.24-1.17.1-1.14-.36-2.3-.06-3.46-.04-.2,0-.52.44-.49.67.02.23.12.45.16.67.06.32-.21.61-.48.49-.7-.33-1.66-.3-1.89-1.34-.03-.12-.39-.23-.6-.24-.39-.02-.67-.09-.84-.49-.13-.3-.45-.27-.76-.31-.56-.07-.95-.35-1.01-1.02-.04-.46-.44-.19-.8-.19Z"/>
        <path class="cls-1" d="m538.75,121.84c.73-.51.83-.53,1.15-.19.2.21.51.44.54.68.09.75.62,1.25.9,1.88.14.32.22.64.47.93.21.25.25.65.38.97.13.3.07.56-.04.85-.05.11.02.31.1.42.13.19.35.32.46.51.71,1.24,1.9,1.87,3.11,2.47.61.31,1.21.56,1.99.3.59-.2,1.29-.12,1.94-.06.59.05,1.12-.39,1.71-.17.4-.24.71-.65,1.23-.64.65-.59,1.31-1.17,1.92-1.79.13-.13.14-.44.11-.65-.02-.22-.16-.43-.24-.64.19-.37.39-.04.57-.04.23,0,.48.02.69.12.2.1.4.27.23.56-.13.22-.16.43,0,.66.19.28.15.53-.07.8-.18.23-.34.48-.46.74-.25.56-.7.77-1.28.74.04.18.07.3.1.42-.39.22-.83.39-1.16.69-.32.28-.71.42-1.01.65-.49.37-.88.9-1.24,1.41-.26.37-.53.62-.99.61-.06,0-.12,0-.18.02-.45.15-.59.76-1.14.77-.47,0-.94.03-1.41.03-.25,0-.45.06-.59.29-.05.08-.24.17-.25.15-.43-.47-1.28-.27-1.56-.99-.06-.15-.24-.36-.36-.36-.49.02-.7-.28-.85-.65-.15-.37-.5-.69-.32-1.15-.29-.28-.64-.51-.87-.84-.27-.37-.47-.81-.63-1.24-.28-.77-.52-1.56-.76-2.34-.1-.33-.08-.71-.51-.85-.06-.02-.12-.2-.09-.28.22-.55.03-1.01-.2-1.52-.49-1.06-.9-2.14-1.38-3.3Z"/>
        <path class="cls-1" d="m468.46,89.3c-.1-.45.14-.64.39-.76.43-.19.88-.44,1.33-.44.42,0,.78.14,1.05-.32.07-.11.31-.17.48-.17,1.48,0,2.9-.45,4.39-.44.86,0,1.78.25,2.6-.27.47.43,1.02-.1,1.51.13.44-.26.86-.42,1.43-.33.49.08,1.01-.11,1.53-.17.3-.04.59.13.68.44.04.14,0,.42-.1.47-.3.17-.67.4-.97.35-1.47-.23-2.87.39-4.32.26-.21-.02-.45.19-.66.16-1.59-.22-3.13.27-4.69.37-.93.06-1.85.33-2.76.55-.63.16-1.25.21-1.87.15Z"/>
        <path class="cls-1" d="m459.62,94.15c.04.33-.09.61-.36.74-.96.46-1.97.73-3.04.74-.34,0-.74-.19-1.03-.08-1.17.44-2.4.5-3.61.68-.34.05-.69.09-1.03.14-.69.09-1.41,0-2.08.34-.29.14-.69.08-1.04.08-.26,0-.55-.28-.46-.42.08-.13.19-.28.33-.34.69-.29,1.35-.71,2.16-.49.84-.29,1.69-.46,2.56-.62.47-.08.88-.27,1.36-.06.12.05.31-.08.47-.1,1.03-.16,2.04-.43,3.08-.45.41,0,.8-.04,1.2-.23.46-.21.49-.15,1.5.07Z"/>
        <path class="cls-1" d="m421.05,94.29c-.24-.29-.38-.41-.46-.56-.04-.09-.02-.28.04-.33.49-.34-.04-.97.3-1.25.61-.49.42-1.3.88-1.83.24-.27-.22-.56-.05-.81.39-.56.06-1.31.5-1.85.06-.07.04-.24,0-.34-.1-.25-.24-.49-.36-.73.32-.18.33-.4.17-.72-.17-.35-.04-.7.17-.99.08-.11.32-.19.45-.15.48.15.77.53.93.99.05.13-.04.32-.07.48-.04.17-.17.37-.12.5.31.77.05,1.49-.13,2.22-.08.33-.19.69-.13,1,.11.5.01.87-.27,1.28-.25.36-.44.75-.32,1.29.07.32-.2.8-.45,1.1-.25.29-.66.44-1.09.69Z"/>
        <path class="cls-1" d="m417.02,94.31c-.08-.51-.26-1,.02-1.53.16-.3.2-.67.29-1.01.08-.28.15-.56.24-.86-.1-.1-.33-.22-.34-.34-.02-.44.03-.89.08-1.32.02-.2.43-.35.58-.24.23.18.45.38.66.58.08.07.17.25.14.29-.44.53.13.98.13,1.48,0,.67-.48,1.34-.02,2-.17.62-.35,1.24-.51,1.86-.15.61-.56,1.12-.55,1.81,0,.47-.48.77-.85,1.05-.07.05-.23.03-.33,0-.5-.2-.76-.74-.46-1.13.33-.42.35-.93.56-1.36.17-.36.17-.63.13-.98-.01-.11.18-.24.28-.36.01.05.02.11.04.15.02.03.06.04.09.06-.06-.05-.13-.11-.19-.16Z"/>
        <path class="cls-1" d="m518.21,172.38c.16.22.38.43.48.69.11.27.08.58-.16.8-.22.19-.78.08-.93-.2-.19-.35-.34-.72-.52-1.09.11-.29.22-.61.36-.91.16-.35.44-.49.67-.34.27.17.41.41.26.73-.05.11-.11.21-.16.33Z"/>
        <path class="cls-1" d="m520.06,174.82c.22.12.47.26.72.39-.26.45.06.87.06,1.31,0,.19-.34.37-.53.3-.45-.19-.75-.46-.82-1-.06-.5.16-.75.57-1Z"/>
        <path class="cls-1" d="m521.7,177.92c.21.08.4.1.51.21.16.16.25.38.36.59.18.32.07.66-.31.84-.13.06-.4.06-.46-.02-.29-.36-.58-.75-.42-1.26.04-.13.2-.23.32-.35Z"/>
        <path class="cls-1" d="m553.71,125.14c-.54-.12-.88-.19-1.2-.29-.08-.02-.17-.15-.18-.25-.02-.1.02-.26.09-.31.36-.26.75-.49,1.19-.77.15.21.38.39.38.56,0,.32-.15.63-.27,1.05Z"/>
        <path class="cls-1" d="m551.23,123.04c.05-.36-.01-.71.14-.9.26-.32.88-.31,1.29-.07.4.24.3.58.15.94-.24-.16-.48-.31-.72-.47-.25.15-.5.29-.86.5Z"/>
        <path class="cls-1" d="m488.32,87.59c-.18-.14-.37-.21-.42-.34-.05-.14-.03-.36.05-.49.21-.33.55-.41.9-.28.14.05.31.18.34.31.04.13-.03.37-.13.45-.22.16-.49.24-.74.35Z"/>
        <path class="cls-1" d="m461.24,94.59c.14-.87.33-1.06.89-.87.26.08.51.21.76.32-.41.87-1.05.56-1.65.55Z"/>
        <path class="cls-1" d="m485.33,87.87c.03-.51,0-.8.07-1.07.06-.26.48-.37.74-.23.24.13.34.53.19.76-.03.05-.05.12-.1.14-.21.1-.43.19-.89.39Z"/>
        <path class="cls-1" d="m550.56,119.78c.36-.28.57-.12.75.12.03.04.05.1.07.15-.1.04-.22.13-.28.1-.19-.1-.35-.24-.54-.38Z"/>
        <path class="cls-1" d="m421.52,94.83c-.1.03-.21.07-.31.08-.04,0-.08-.06-.13-.09.1-.03.21-.08.31-.09.04,0,.08.07.13.1Z"/>
        <path class="cls-1" d="m471.86,100.01l.15-.25c.06.08.12.16.17.25l.04-.04c-.14,0-.27,0-.41,0l.05.05Z"/>
        <path class="cls-1" d="m461.9,61.55c-.07-.05-.13-.11-.2-.16.04.01.1.02.12.04.03.04.02.11.03.16l.04-.04Z"/>
        <path class="cls-1" d="m464.75,61.24c.04-.1.07-.2.11-.3.23.27-.1.17-.16.25l.05.05Z"/>
        <path class="cls-1" d="m487.47,45.89l-.15.29c-.19-.29.05-.23.2-.24l-.05-.05Z"/>
        <path class="cls-1" d="m496.06,39.13c-.08-.03-.17-.07-.25-.1.03-.03.06-.07.08-.1l.12.25.04-.05Z"/>
        <path class="cls-1" d="m544.08,12.45c-.07-.05-.14-.1-.21-.15.04,0,.11,0,.13.03.03.04.03.11.04.16l.04-.04Z"/>
        <polygon class="cls-1" points="521.8 180.28 521.76 180.16 521.86 180.18 521.8 180.28"/>
        <path class="cls-1" d="m450.83,186.41c-.05.08-.09.16-.14.24-.16-.26.1-.15.18-.2,0,0-.04-.04-.04-.04Z"/>
        <path class="cls-1" d="m474.29,188.24c.09.03.17.06.26.08l-.07.11c-.05-.08-.1-.16-.15-.24,0,0-.05.05-.05.05Z"/>
        <path class="cls-1" d="m414.19,166.85c.51.35.2,1.04.58,1.43.35.36.42.82.6,1.25.27.63.25,1.4.86,1.89.04.03-.02.3-.06.3-.15.02-.37.04-.44-.04-.3-.35-.55-.75-.84-1.11-.13-.16-.33-.27-.52-.42-.14.34-.24.59-.39.97-.63-.99-.94-1.98-1.16-2.99-.16-.72-.2-1.47-.29-2.2-.02-.17-.04-.36,0-.52.09-.33.23-.65.39-1.08.69.83.87,1.78,1.31,2.57-.05.02-.11.02-.16.05-.03.02-.02.08-.03.12.05-.07.1-.14.15-.2Z"/>
        <path class="cls-1" d="m420.98,118.15c.06-.06.11-.13.17-.19-.01.04-.02.09-.04.11-.05.03-.11.03-.16.04l.04.04Z"/>
        <path class="cls-1" d="m435.53,113.88c.09.04.18.08.27.12-.24.19-.2-.03-.23-.16l-.04.04Z"/>
        <path class="cls-1" d="m425.61,164.76c.05-.06.11-.12.16-.18-.01.04-.02.1-.05.12-.04.02-.11.02-.16.02,0,0,.04.04.04.04Z"/>
        <path class="cls-1" d="m393.9,98.19h.41c-.14.28-.28.27-.41,0Z"/>
        <path class="cls-1" d="m369.4,114.2c-.1-.05-.2-.09-.3-.14.27-.21.25,0,.25.18l.04-.04Z"/>
        <path class="cls-1" d="m342.68,162.59c-.02.81.15,1.62-.22,2.64-.14-.97-.17-1.71,0-2.45.01-.07.18-.1.27-.15l-.05-.04Z"/>
        <path class="cls-1" d="m342.73,160.79c-.1-.11-.29-.24-.27-.33.08-.43.22-.85.38-1.45.31.76.09,1.29-.17,1.82l.05-.04Z"/>
        <path class="cls-1" d="m342.68,160.83c.28.06.32.29.24.49-.12.3-.33.57-.24.92l.06-.05c-.11-.11-.26-.19-.31-.32-.15-.42.12-.75.3-1.09l-.05.04Z"/>
        <path class="cls-1" d="m340.54,157.25c.07.28.16.55.2.83.01.06-.11.2-.17.2-.09,0-.24-.07-.26-.14-.06-.32-.2-.69.27-.84l-.05-.05Z"/>
        <path class="cls-1" d="m340.93,159.77c.11-.1.21-.27.33-.3.22-.05.26.17.28.33.02.16,0,.33,0,.58-.26-.27-.46-.47-.66-.67,0,0,.04.06.04.06Z"/>
        <path class="cls-1" d="m346.59,160.79c.23.08.35.25.35.49.01.33.03.66.05.99-.12-.17-.31-.32-.34-.5-.07-.32-.04-.65-.06-.98Z"/>
        <path class="cls-1" d="m340.59,157.29c0-.14,0-.28,0-.42l-.05.04c.08.06.17.11.25.17-.09.05-.17.11-.26.16l.05.05Z"/>
        <path class="cls-1" d="m342.73,162.63c0-.14,0-.28.01-.42l-.06.05c.09.06.17.12.26.18-.09.05-.17.11-.26.16l.05.04Z"/>
        <path class="cls-1" d="m405.33,115.98c-.27-.04-.36-.22-.37-.46-.02-.44-.02-.89-.03-1.33h.41c.02.22.05.44.08.76.31-.41.27-.62-.12-.71-.03-.09-.06-.17-.1-.26-.08.09-.15.17-.23.26-.1-.13-.27-.25-.29-.39-.08-.56-.12-1.12-.17-1.69.11.02.28.02.29.07.09.28.14.56.2.85.04.17.09.38.31.33.13-.03.24-.19.36-.29.04-.04.07-.09.18-.21.24.76.15,1.47.08,2.18,0,.08-.15.17-.25.21-.34.14-.33.45-.39.73l.05-.04Z"/>
        <path class="cls-1" d="m402.25,114.04c.07.06.18.11.21.18.07.19.11.39.16.59,0,0-.09.05-.13.05-.24-.02-.36-.27-.31-.66,0-.05.05-.1.08-.16Z"/>
        <path class="cls-1" d="m407.45,115.63c-.09-.05-.26-.08-.27-.14-.06-.39-.18-.78.15-1.29.04.57.07,1.01.1,1.45,0,0,.02-.02.02-.02Z"/>
        <path class="cls-1" d="m404.59,111.44c-.06.06-.13.12-.19.18-.03-.1-.09-.2-.09-.3,0-.06.11-.12.17-.18.04.1.07.2.11.29Z"/>
        <path class="cls-1" d="m402.49,115.62c-.09-.05-.18-.09-.27-.14.29-.19.16.11.22.19l.05-.05Z"/>
      </g>
      <g>
        <path class="cls-1" d="m60.23,178.85c.65.16,1.25.28,1.94-.04.97-.44,2.01-.72,3.12-1.11.29.15.63.41,1.01.51.98.25,1.91,1.11,3,.3.53.09,1.12-.23,1.57.21.18.17.21.54.55.51.33-.03.65-.13,1-.21.34.27.34.26,1.33.47.59.12,1.19.23,1.75.43.27.1.36-.08.53-.13.32-.1.7-.38.93-.29.54.21.9-.22,1.37-.2.94.03,1.9.08,2.81-.34.18-.08.55.27.73.19.41-.18.77-.24,1.15,0,.96-.44,2.02-.17,3-.44.25-.07.54-.16.78-.11,1.34.3,2.66.49,3.99-.02.67.38,1.29-.09,1.94-.11.61-.01,1.16-.24,1.74-.41.55-.17,1.16-.14,1.77-.3,1.01-.27,2.1-.3,3.15-.34.45-.02.91.16,1.35.3.32.1.6.31.9.45.82.37,1.02.36,2.25.28.88-.06,1.77.09,2.64-.23.05-.02.22.3.39.54.48-.52,1.1-.73,1.8-.69.56.03,1.08-.08,1.56-.39,1.55.12,2.88-.64,4.3-1.06.48-.14,1.01-.15,1.47-.39.51-.26,1.03-.34,1.59-.26.48.07.95.07,1.4-.18.1-.06.3-.09.37-.03.56.43,1.29.3,1.87.58.58.27,1.3.37,1.63,1.07.04.1.22.18.34.19.54.04,1.17.14,1.57-.25.66-.64,1.57-.39,2.29-.8.17-.1.51.05.76.14.63.24,1.21.57,1.94.51.29-.02.66.2.89.41.58.54,1.17.63,1.87.26.23-.12.52-.2.78-.19,1.19.05,2.28-.24,3.32-.8.35-.19.76-.3,1.16-.36.31-.04.65.12.95.07.26-.04.48-.18.78-.08.38.13.81.34,1.17.27.77-.14,1.1.43,1.56.79,1.4-.26,2.61-1.1,4.03-1.24.33-.36.77-.04,1.11-.17.68-.26,1.18-.02,1.68.4.47.39.99.72,1.52,1.1.78-.19,1.63.13,2.39-.34.1-.06.32-.1.38-.04.73.7,1.57-.44,2.31.15.24.2.5.06.77-.01,1.21-.32,2.44-.42,3.54.31.4.26.76-.14,1.14.13.36.26.77.15,1.17-.04.16-.08.4-.08.58-.03.38.11.75.29,1.18.45,1.17-.36,2.39-.68,3.57-1.2.41-.19,1.01.21,1.51-.08.53.36,1.02.15,1.55-.05.5-.19,1.07-.4,1.57-.34.44.06.75-.15,1.12-.17.94-.03,1.88-.16,2.79.35.64.36,2.21.35,3.41.24.26-.02.54-.07.77.01.38.13.72.49,1.1.51.69.04,1.07.66,1.63.77.55.12,1.13-.34,1.77-.21.73.15,1.3-.27,1.83-.75.14.18.25.33.4.53.21-.2.4-.48.65-.57.22-.08.56-.03.78.09.5.26.56-.51.7-.39.57.52,1.18-.26,1.72.14.1.07.27.09.4.06.45-.1.9-.33,1.35-.33.38,0,.72.14,1.15,0,1.44-.43,2.82.13,4.21.42.16.03.25.29.4.42.47.39.98.7,1.55.92.69.27,1.3.31,1.91-.2.31-.26.7-.42,1.06-.61.38-.19.79-.27,1.17-.03.6.39.82-.07,1.1-.45.21.37.49.58.94.67.29.06.55.38.74.64.09.12,0,.39-.05.57-.14.44.17.6.43.79.78-.27,1.56-.49,2.29-.81.27-.12.44-.47.68-.75.17.05.37.07.54.16.4.2.91.28,1.13-.05.4-.59.99-.31,1.47-.44.71-.2,1.47-.27,2.11-.65.38-.23.76-.24,1.17-.28.53-.05,1.05-.21,1.62-.34.42.22.92.44,1.38.71.29.17.54.4.81.6.19.13.07.53.52.47.36-.05.75.14,1.13.22.56-.53,1.15-.04,1.72-.03.97.02,1.92-.02,2.76-.55.79-.5,1.71-.28,2.56-.46.52-.11,1.18-.38,1.7.14.71-.23,1.33.46,2.13.12.58-.25,1.35-.04,2.03-.09.6-.04,1.21.05,1.81-.24.34-.17.81-.16,1.2-.1.94.13,1.85.04,2.74-.25.46-.15.33.33.57.41.33-.18.67-.49,1.02-.51.45-.03.92.26,1.38.26.38,0,.76-.22,1.14-.34.52.46,1.01-.05,1.52-.05.48,0,.96.06,1.43.02.46-.03.92-.14,1.41-.22.14.17.15.67.65.38.05-.03.17-.03.17-.02.19.67.87.53,1.3.8.49.31.89-.17,1.37-.11.47.05.96-.01,1.43-.06.33-.03.72-.03.98-.19.8-.52,1.84-.47,2.57-1.16.17-.16.53-.24.76-.19.92.19,1.85.37,2.67.86.43.92,1.34,1.04,2.16,1.32.26.09.51.2.74.34.27.16.49.03.76,0,.53-.08,1.08-.05,1.62-.06.55,0,1.06.57,1.57.27.59-.35,1.15.2,1.75-.15.44-.26,1.09-.11,1.59-.29.47-.17.92-.26,1.4-.23.84.07,1.47-.78,2.35-.5.44-.44,1-.41,1.55-.4.51,0,1.02-.42,1.54-.03,1.47-.05,1.93.1,3.2,1.02-.06.18-.11.35-.18.56.27.29.55.59.81.87.75-.37,1.42-.7,2.08-1.03,1.17.5,2.38.94,3.45,1.65.26.17.67.36.93.27,1.02-.33,2.13-.09,3.11-.5.46-.19.91-.29,1.38-.3,1.34-.04,2.7.13,4.03-.23.15-.04.36.15.54.24l-.06-.06c.05.1.1.2.15.3.11-.1.22-.2.33-.3l-.05.05c.7.05.86.83,1.42,1.08.35-.52.74-.96,1.45-.55.1.06.26.1.35.07.93-.35,1.88-.24,2.83-.19.69.04,1.36.02,1.89.59.12.12.38.12.57.16,1.2.26,2.16,1.04,3.28,1.48.25.1.43.5.56.8.15.34-.15.64-.52.68-.66.08-1.22-.18-1.71-.54-.54-.4-.98-.85-1.78-.51-.29.13-.76-.19-1.16-.24-.49-.07-.95,0-1.26.48-.07.1-.28.24-.33.21-.94-.6-1.78.3-2.72.16-.85-.13-1.73.06-2.6-.26-.68-.25-1.41-.26-2.16.13-.6.31-1.33.71-2.09.26-.73.42-1.43.29-2.14-.08-.11-.06-.3-.06-.4,0-.71.43-1.39.42-2.07-.06-1.71.01-3.41.01-5.12.06-.25,0-.48.26-.74.31-.4.08-.84.14-1.17-.18-.7-.7-1.73-.71-2.51-1.24-.11-.07-.25-.13-.38-.12-.57.05-1.15.68-1.7.06-.47-.53-1.12-.42-1.65-.65-.43-.18-.65-.85-1.31-.71-1.61-.91-3.14-.42-4.59.38-.43.24-.82.45-1.31.45-.88,0-1.76.12-2.63-.17-.34-.12-.91.15-1.11-.04-.43-.41-.91-.39-1.4-.5-.52-.11-1.02-.34-1.53-.49-.52-.15-1.05-.27-1.57-.4-.33-.08-.68-.11-.97-.26-.46-.25-1-.3-1.37-.08-.6.36-1.2.25-1.79.21-.46-.03-.88-.07-1.34.05-.34.09-.75-.17-1.13-.17-.4,0-.79.17-1.2.21-.41.04-.82,0-1.23,0-.74,0-1.5-.14-2.21.17-.38.17-.6-.24-.95-.2-.34.04-.68.03-1.02,0-.87-.07-1.76.11-2.6-.33-.21-.11-.59-.12-.79,0-.71.42-1.47.27-2.21.3-1.09.04-2.19-.02-3.28.02-.87.03-1.75-.03-2.6.38-.4.19-.95.13-1.42.09-1.01-.07-2.06.07-3.02-.39-.89.36-1.67-.1-2.49-.33-.2.25-.2.69-.67.64-.07,0-.14.01-.2,0-1.73-.09-3.35.4-4.94.99-1.14.42-2.21.4-3.31-.22-.54-.31-1.28-.03-1.89-.29-.78.68-1.72.23-2.58.34-.54.07-1.1.16-1.55-.3-.52.1-1.04.29-1.56.27-1.6-.06-1.62-.12-2.43.3-.38.2-.65-.02-.96-.14-.27.19-.55.39-.83.58-.32-.13-.59-.33-.97-.13-1.15.63-2.38-.06-3.56.18-.92-.87-2.22-.52-3.26-1.04-.48-.24-1.01-.15-1.55.13-.81.42-1.73.69-2.66.56-.93-.13-1.85-.29-2.62-.94-.4-.34-.99-.46-1.41-.79-.68-.56-1.32-1-2.16-.32-1.57-.1-3.06.61-4.64.47-.06-.11-.13-.21-.19-.32-.03.05-.07.09-.1.14.12.04.23.08.35.12-.16.42-.56.49-.84.34-.77-.41-1.56-.37-2.38-.33-.95.04-1.91.18-2.81-.28-.89.25-1.69-.12-2.51-.36-.43.28-.77-.2-1.16-.15-.4.05-.79.17-1.18.25-.51-.6-1.1.06-1.69-.11-.84-.24-1.73-.24-2.59.16-.3.14-.77-.06-1.24-.11-.18.13-.45.34-.71.53-.37-.15-.76-.52-1.03.1-.13.3-.33.41-.64.32-.13-.04-.26-.2-.36-.18-.51.1-.92.53-1.49.45-.54-.08-1.07-.2-1.61-.21-.53-.01-1.08.05-1.6.17-.21.05-.35.08-.53-.03-.69-.4-1.4-.8-2.1-1.19-.11-.06-.32-.14-.38-.09-.51.45-1.05-.27-1.53.06-.58.39-1.4.09-1.89.67-.47.55-1.32.31-1.78.91-.18.23-.59.28-.9.4-.37.15-.89.19-1.1.47-.62.79-1.41.71-2.36.66-.18-.35-.38-.75-.59-1.16.38-.81-.15-1.23-.71-1.63-1,.34-2.39.52-3.48.38-.99-.13-1.97.06-2.73.58-1.02.7-2.13,1.17-3.2,1.76-.18-.13-.37-.22-.51-.37-.21-.23-.49-.42-.25-.85.15-.27.13-.66.12-1-.01-.53-.66-1.08-1.13-.9-1.12.44-2.41.48-3.36,1.34-1.04.28-2.06.67-3.17.59-.25-.02-.51-.17-.71-.34-.32-.27-.65-.42-1.07-.51-.57-.13-1.17-.24-1.66,0-.58.28-.99-.4-1.5-.11,0,0-.09-.1-.1-.17-.08-.33-.32-.48-.6-.35-.8.38-1.57.79-2.48.85-.22.01-.48.27-.64.48-.44.59-.88.79-1.56.32-.18-.12-.65.26-.91.19-.66-.2-1.27-.43-1.93-.05-.62-.47-1.14-.16-1.69.18-.16.1-.41.03-.6.09q-1.41.41-2.6-.43c-.63.17-1.19.34-1.66.95-.38.49-1.12.73-1.73,1-.42.19-.9.23-1.36.34-.54-.44-1.34-.24-1.86-.76-.37-.37-.92-.53-1.11-1.11-.1-.3-.37-.55-.59-.87-.86.07-1.74-.3-2.6.15-.1.05-.26.04-.36,0-1.09-.42-2.13-.12-3.17.22-.64.21-1.28.43-1.95.65-.57-.71-1.07-1.47-2.14-1.68-.6-.12-1.06.1-1.58.14-.47.04-.91.05-1.17.62-.19.43-.78.38-1.11.23-1.45-.62-2.96-.3-4.44-.34-.24,0-.49.13-.7.19-.22-.16-.15-.49-.59-.45-1.19.1-2.3.45-3.45.73-.25.43-.53.6-1.07.39-.19-.07-.56.29-1,.55-.22-.05-.59-.18-.97-.22-.34-.03-.74-.08-1.01.07-.51.28-.98.11-1.33-.12-.83-.55-1.7-.82-2.69-.82-.32,0-.64-.29-.96-.28-.31,0-.63.19-.91.36-.52.31-1.12.2-1.67.4-.57.2-1.17-.06-1.74-.35-.39-.19-.95-.15-1.4-.06-.48.1-.81-.65-1.31-.16-.07.07-.28.09-.38.04-.9-.47-1.87-.29-2.89-.34-.23.78-1,.8-1.58,1.1-.73-.22-1.26.3-2,.52-.54-.19-1.16-.48-1.81-.61-.73-.14-1.49-.09-2.23-.21-.7-.12-1.32.63-1.94.26-.61-.36-1.2-.2-1.79-.2-.94,0-1.92-.21-2.79.4-.13.09-.45.06-.58-.04-.36-.27-.75-.07-1.1-.14-1.12-.23-2.28-.42-3-1.27-.51.1-.9.26-1.28.23-1.17-.09-2.21.33-3.01,1.06-.76.69-1.67.81-2.52,1.17-.88.37-1.72.32-2.57,0-.23-.09-.36-.04-.53.07-.31.2-.64.15-.98.05-.31-.1-2.11-.05-2.43,0-.18.03-.38,0-.56-.04-.13-.03-.24-.16-.36-.17-.47-.02-.81.5-1.35.32-.44-.15-.97.07-1.36-.31-.48.35-.86.01-1.27-.17-.43-.2-.84-.48-1.26-.58-.25-.06-.54.17-.8.19-.61.03-1.24-.03-1.84.04-.53.07-1.03.32-1.56.4-.64.09-1.26.21-1.97.1-1.13-.19-2.33-.19-3.47-.07-.71.08-1.43.1-2.13.22-1.41.25-2.81.33-4.19-.14-.34.27-.47.76-1.09.74-1.16-.05-2.32,0-3.24-.83-.26.1-.45.18-.64.25-.28.1-.55.11-.68-.22-.15-.38-.41-.16-.64-.19-.16-.02-.38-.24-.4-.4-.02-.14.15-.36.29-.47.15-.12.36-.22.54-.21,1.14.04,2.3-.21,3.41.35.33.17.84.14,1.21.02,1.47-.48,3.06-.36,4.51-.94-.53-.52-1.14-.71-1.87-.67-.75.05-1.5.01-2.22.01-.4-.45-.35-.91-.23-1.38.43-.36.8-.58,1.44-.3.46.2,1.1-.06,1.61.08.72.2,1.4.43,2.14.17.71.38,1.49.08,2.29.28.26.19.57.43.89.67.4-.46.71.1,1.08.09.5-.02.95-.4,1.53-.1.39.2.94.09,1.41.11.54.03,1.1-.1,1.59.25,1.01-.46,2.16-.03,3.17-.47.48-.21.9,0,1.35.03.46.04.97-.23,1.47,0,.59-.37,1.31.3,1.91-.25.14-.13.58-.09.78.03.51.31.96.36,1.54.19.42-.13.92.04,1.25-.41.04-.06.26-.05.35,0,.36.19.72-.17,1.11.09.49.32.47-.59.88-.5.56.12,1-.29,1.57-.24.44.04.9-.26,1.36-.34.25-.04.54,0,.78.09.26.09.48.25.76.09.85-.46,1.72-.18,2.58-.03.33.06.66.17,1,.17.38,0,.78-.19,1.14-.12.38.08.71.39,1.08.55.54.23,1.06.58,1.69.08.22-.17.67-.13,1-.08.4.06.77.3,1.16.33.37.03.79-.2,1.14-.13.34.07.59.15.95-.01.28-.13.68-.12.97-.03,1.55.51,2.93.16,4.24-.7.34-.22.75-.35,1.04-.62.38-.36.79-.47,1.29-.48.26,0,.52-.14.75-.21.7.25,1.4.48,2.09.75.1.04.16.2.24.3-.11.06-.42-.04-.19.26.05-.1.09-.21.14-.31Zm134.06.83c.17.1.34.2.51.29.51.24.86.22,1.08-.03.24-.26-.11-.85-.66-1-.23-.06-.57-.04-.73.1-.14.12-.11.46-.15.7-.12.04-.42-.05-.2.26.05-.1.1-.21.15-.31Zm-76.37-1.87c-.27.9.23,1.39.69,1.87.13.14.36.24.55.24.16,0,.36-.13.49-.26.31-.31.59-.17.93.02.28-.35.57-.71.87-1.09-1.02-.96-2.16-1.1-3.54-.78Zm-82.97,4.66c.14-.1.26-.16.36-.26.43-.4.8-.94,1.51-.53.25-.2.52-.39.75-.62.05-.05,0-.27-.07-.36-.07-.09-.23-.18-.33-.16-.65.12-1.3.28-1.95.4-.39.07-.79.07-1.17.17-.41.1-.81.28-1.21.43.45,1.07,1.6.23,2.11.93Zm23.99-2.55c-.47-.45-.87.32-1.32.09-.61-.31-1.01.03-1.45.45.1.14.2.42.31.42.67.04,1.34.02,1.99.02.19-.39.33-.69.47-.99Zm217.83-.47c1.04.5,1.73.93,2.56.47.06-.86-.08-1.1-.69-1-.51.08-1,.28-1.87.53Zm-71.12.95c-.38-.49-.54-.69-.7-.89-.04-.05-.1-.1-.17-.11-.32-.09-.58.04-1.23.61.58.11,1.14.22,2.1.4Zm-97.42.72c-.75-.48-1.39-.05-2.05.23-.07.03-.13.24-.1.27.09.08.22.12.34.17.06.02.14.03.19,0,.54-.22,1.07-.45,1.61-.68Zm42.49-.52c-.07-.19-.07-.35-.15-.4-.25-.17-.53-.04-.6.25-.05.24.07.41.3.39.16-.01.31-.15.46-.23Zm67.81-1.5c-.1-.06-.21-.18-.31-.18-.12,0-.24.1-.36.16.11.07.22.18.33.18.11,0,.22-.1.33-.16Zm-104.54,1.68c-.07-.08-.14-.21-.21-.22-.11-.01-.23.07-.34.11.07.07.12.2.2.21.11.01.23-.06.36-.1Zm103.29-1.67s-.1-.13-.13-.13c-.2.06-.21.15-.01.23.03.01.1-.07.14-.11Z"/>
        <path class="cls-1" d="m297.56,180.14c.06-.11.12-.22.18-.33.06.11.13.22.19.32l.05-.05c-.16,0-.32,0-.48,0l.06.06Z"/>
      </g>
    </g>
  </g>
</svg>