<?xml version="1.0" encoding="UTF-8"?>
<svg id="_レイヤー_2" data-name="レイヤー 2" xmlns="http://www.w3.org/2000/svg" viewBox="0 0 402.83 170.95">
  <defs>
    <style>
      .cls-1 {
        fill: #ddd4c6;
      }
    </style>
  </defs>
  <g id="_レイアウト" data-name="レイアウト">
    <g>
      <path class="cls-1" d="m53.71,129.16c.09-.1.19-.28.27-.27.83.05,1.6-.05,2.21-.71.11-.12.36-.14.56-.16,2.34-.28,2.88-.47,4.55-1.42.46-.26,1-.41,1.52-.54.93-.23,1.83-.5,2.71-.88.86-.38,1.82-.47,2.64-1.02.48-.32,1.13-.4,1.7-.59.7-.22,1.51-.25,1.84-1.09.68-.28,1.35-.67,2.06-.83,2.05-.47,3.97-1.37,6.07-1.66.52-.07,1.01-.38,1.48-.64.42-.23.85-.37,1.31-.51,2.07-.63,4.04-1.56,6.17-2.02.46-.1.95-.24,1.33-.5.91-.63,1.81-1.13,2.98-1,.22.03.58-.17.7-.37.26-.42.63-.37,1.02-.43.35-.05.74-.04.93-.53.09-.24.53-.37.84-.49.63-.24,1.27-.43,1.91-.63.19-.72,1.14-.23,1.43-.92.13-.3.66-.49,1.04-.59,2.17-.54,4.12-1.83,6.41-1.99.4-.03.63-.19.77-.53.69-.02,1.02-.85,1.8-.76.26.03.62-.26.84-.49.53-.56,1.14-.94,1.87-1.19.95-.34,1.99-.5,2.78-1.23.13-.11.38-.1.58-.12.2-.01.43.08.58,0,1.04-.48,2.14-.89,3.06-1.55.59-.42,1.26-.59,1.85-.96.09-.05.32-.03.32-.05,0-.95.85-.7,1.33-.94.67-.33,1.38-.57,2.04-.91.64-.32,1.37-.16,2.04-.6.95-.62,2.09-.94,3.15-1.39.25-.11.54-.18.72-.36.88-.85,1.97-1.19,3.13-1.32.85-.1,1.57-.45,2.28-.88,1.1-.67,2.16-1.42,3.5-1.58.17-.02.39-.17.47-.32.34-.59.95-.75,1.5-1.01.54-.25,1.24-.06,1.65-.69.3-.46,1.07.06,1.39-.61.11-.24.6-.43.9-.41.91.07,1.58-.42,2.23-.9.64-.47,1.59-.45,2.01-1.27.03-.06.1-.1.16-.13,1.13-.42,2.26-.83,3.39-1.25.38-.14.75-.29,1.1-.48.3-.16.54-.43.84-.58.66-.33,1.34-.64,2.03-.89.95-.35,1.77-1.01,2.83-1.1.23-.02.5-.26.65-.47.55-.81,1.52-.86,2.26-1.32,1.03.11,1.74-.62,2.59-.98.62-.27,1.28-.55,1.81-.9.58-.39,1.25-.29,1.81-.69.53-.38,1.21-.58,1.86-.76.72-.2,1.22-.9,2.03-.88.72-.72,1.73-.75,2.63-.97.46-.11.65-.43.97-.63.01.06,0,.14.04.19.02.03.1.02.15.03l-.22-.18c.5-.73,1.39-.85,2.09-1.18.79-.37,1.57-.7,2.24-1.27.25-.21.57-.36.87-.51,2.13-1.03,4.37-1.82,6.45-2.98.57-.32,1.31-.26,1.81-.85.18-.21.62-.25.95-.29.88-.1,1.76-.15,2.43-.86,1.49.16,2.27-1.35,3.62-1.54.28-.04.5-.44.77-.63.67-.45,1.27-1.05,2.18-1,.62.03.82-.99,1.58-.66.77-.83,1.91-.94,2.83-1.48.92-.54,1.96-.88,2.94-1.33.37-.17.73-.37,1.07-.59.68-.44,1.34-.84,2.19-.95.51-.06.98-.43,1.46-.68.42-.22.81-.52,1.25-.67.58-.2,1.21-.23,1.78-.45.5-.19.63-.84,1.23-1.02.7-.21,1.21-.85,2.02-.9.31-.02.68-.22.89-.45.34-.38.77-.49,1.22-.67,1.36-.56,2.77-1.03,4.03-1.81.4-.25.71-.66,1.12-.85.34-.16.76-.12,1.12-.36.6-.4,1.31-.6,1.73-1.29.18-.3.66-.44,1.03-.61,1.23-.57,2.48-1.12,3.71-1.68.18-.08.44-.12.53-.27.31-.5.71-.8,1.31-.8.55,0,.65-.65,1.13-.76,1.08-.25,1.76-.95,2.18-1.96.09-.21.39-.37.62-.48.86-.41,1.7-.86,2.38-1.56.14-.14.37-.33.52-.3.78.15,1.05-.55,1.53-.87.62-.41.85-1.05.97-1.73.12-.66-.05-1.36.4-1.97.07-.1-.02-.4-.12-.55-.37-.58.03-1.04.18-1.54.05-.02.1-.04.14-.07.02-.02.03-.06.04-.09-.04.07-.08.14-.12.21-.11-.23-.33-.47-.32-.69.03-.61-.14-1.19.01-1.83.13-.54-.01-1.18-.17-1.74-.26-.95.09-1.87.04-2.81-.04-.78.02-1.58.02-2.38,0-.93.09-1.83-.13-2.76-.21-.84.02-1.75-.17-2.59-.26-1.13.29-2.32-.32-3.41.49-.44.03-1.02.19-1.45.24-.66-.05-1.19-.14-1.77-.04-.26-.3-.52-.27-.76.11-.82-.28-1.57-.28-2.36,0-.28.04-.53-.18-.75-.46-.46.03-1.24-.57-1.66.19-.62.06-1.2-.17-1.78-.04-.09.08-.25.15-.37.14-.25.26-.56.03-.76-.63-.54-.63-1.33-.85-2.03-.41-1.37-.82-2.74-1.24-4.17-.95.61-1.97.88-3.07.88-.24,0-.59.09-.71.26-.74,1.14-2.13,1.33-3.1,2.15-.41.34-1.04.24-1.59.09-.41-.11-.83-.07-1.14.24-1.11,1.1-2.56,1.53-3.96,2.05-.64.24-1.29.44-1.94.66-.19.06-.43.06-.59.17-1.5,1.09-3.24,1.7-4.87,2.51-.35.58-1.06.5-1.55.83-.45.3-.96.51-1.45.76-.54.28-1.08.6-1.63.86-.62.29-1.25.54-1.89.79-.51.19-1.05.3-1.54.53-.42.2-.75.57-1.16.77-1.04.51-2.1.96-3.16,1.44-.44.2-.92.33-1.3.6-1.02.74-2.19,1.09-3.35,1.51-.38.14-.79.25-1.12.48-.51.35-.97.73-1.64.76-.25.01-.54.16-.72.34-.38.38-.82.45-1.32.41-.36-.03-.71.07-.89.39-.33.6-.88.73-1.49.93-1.28.42-2.63.66-3.8,1.38-.11.07-.25.15-.37.15-1.35-.01-2.44.82-3.68,1.08-.63.13-.84.79-1.57.79-.64,0-1.31.37-1.9.71-.55.32-1.14.43-1.71.64-.13.05-.25.12-.35.21-1.15,1.06-2.64,1.38-4.06,1.86-.51.17-1.08.15-1.57.34-.5.19-.93.57-1.42.79-.48.22-.91.6-1.53.43-.17-.05-.44.24-.65.38-.68.46-1.33.92-2.18,1.07-1.4.24-2.65.98-4.05,1.28-.9.19-1.8.69-2.54,1.26-1.13.87-2.45,1.22-3.76,1.51-.58.13-.92.7-1.39.68-.64-.03-.98.33-1.44.61-.68.41-1.37.74-2.27.72-.76-.01-1.6.35-2.27.77-1.11.69-2.26,1.22-3.51,1.6-.49.15-1.07.27-1.22.93-.03.11-.17.26-.28.28-.92.16-1.65.78-2.64.91-1.32.17-2.59.76-3.88,1.16-.37.74-1.16.6-1.76.86-.49.21-.95.46-1.4.77-.57.4-1.38.45-2.08.69-.69.24-1.51.17-2.01.89-.1.14-.36.22-.55.22-.94-.02-1.69.49-2.5.84-.31.14-.63.38-.94.38-1.15,0-2.02.75-3.08,1.02-.98.25-1.82.9-2.72,1.36-1.87.96-3.77,1.88-5.86,2.28-.2.04-.45.07-.57.2-.67.69-1.6.79-2.43,1-1.79.45-3.54,1-5.27,1.65-.43.16-.92.17-1.38.25-.11.02-.29,0-.34.07-.6.9-1.69.81-2.54,1.16-1.04.43-2.12.86-3.27,1.1-1.08.23-2.09.91-3.07,1.5-.36.21-.69.37-1.09.49-.65.19-1.27.46-1.91.7-.32.12-.63.29-.96.36-.8.15-1.65.13-2.4.42-.68.26-1.26.77-2.02.95-.5.12-.91.55-1.4.74-1.25.49-2.59.74-3.79,1.38-.12.06-.25.12-.38.15-.74.14-1.47.26-2.21.39-.42.76-1.31.63-1.95.95-.9.45-1.93.6-2.9.92-.97.32-1.99.53-2.85,1.14-.2.14-.48.19-.73.27-.64.2-1.3.37-1.93.61-.39.16-.75.28-1.18.15-.16-.05-.48,0-.56.11-.51.71-1.31.71-2.02.85-.89.18-1.71.52-2.47.98-.49.3-1.01.38-1.54.49-.6.12-1.32-.1-1.71.7-.1.21-.6.25-.92.34-.68.2-1.39.24-2.07.56-.58.27-1.24.44-1.85.71-.93.41-1.91.69-2.77,1.27-.33.22-.76.4-1.15.41-.72,0-1.3.28-1.91.62-.51.29-1.25.09-1.63.71-1.19.22-2.27.8-3.43,1.1-.53.14-1.07.21-1.49.62-.13.13-.35.22-.54.25-.6.1-1.27,0-1.59.71-.53.08-1.07.12-1.59.26-.52.13-1,.41-1.52.52-.25.06-.51-.03-.76.16-.73.56-1.61.62-2.46.85-1.01.28-2.09.38-3.05,1-.92.6-1.92,1.27-3.16,1.19-.22-.01-.49.23-.7.4-.96.77-2.17.7-3.27.99-.11.03-.27-.05-.37-.13-.1-.08-.2-.21-.21-.33,0-.11.07-.3.16-.34,1.13-.48,2.25-.97,3.4-1.4,1.33-.5,2.56-1.2,3.82-1.83.79-.39,1.52-.92,2.48-.81.2.02.42-.02.61-.09.9-.31,1.77-.7,2.69-.95.92-.25,1.87-.36,2.64-.99.1-.09.24-.17.36-.19,1.58-.17,2.91-1.08,4.4-1.51.97-.28,1.92-.64,2.86-1.03,1.12-.47,2.29-.82,3.45-1.18.94-.3,1.85-.64,2.72-1.13,1.11-.62,2.27-1.14,3.52-1.44.64-.15,1.33-.32,1.82-.83.93.31,1.67-.38,2.52-.5.13-.02.29-.03.4-.1,1.69-1.1,3.67-1.44,5.52-2.14,1.13-.43,2.32-.73,3.47-1.13,1.08-.38,2.19-.61,3.24-1.18,1.11-.6,2.43-.85,3.69-1.16.74-.18,1.42-.44,2.11-.74.67-.29,1.42-.34,2.12-.65.66-.29,1.31-.76,2.11-.57.61-.45,1.39-.5,2.05-.91,1.04-.65,2.17-1.15,3.4-1.4.6-.12,1.16-.41,1.75-.59.58-.18,1.17-.38,1.76-.49,1.22-.21,2.4-.48,3.34-1.37.14-.14.34-.26.53-.29,1.37-.25,2.53-.96,3.74-1.61.47-.25,1.05-.29,1.54-.51,1.75-.78,3.53-1.41,5.43-1.74.78-.14,1.45-.75,2.33-.63.12.02.29-.05.38-.14.91-.85,2.12-.9,3.23-1.17.47-.12.93-.16,1.31-.51.14-.13.37-.23.56-.23,1.57,0,2.77-1.09,4.24-1.42.3-.07.55-.38.8-.62.71-.68,1.57-1.17,2.52-1.26.84-.08,1.38-.94,2.27-.7.56-.62,1.43-.33,2.06-.71.71-.43,1.46-.72,2.28-.86.48-.76,1.41-.49,2.07-.89.62-.37,1.43-.42,2.13-.68.51-.18,1.02-.41,1.45-.73.83-.62,1.67-1.12,2.75-1.27.55-.08,1.02-.62,1.57-.82.5-.19,1.09-.13,1.6-.3,1.16-.4,2.3-.85,3.42-1.34.49-.22.93-.57,1.34-.91.49-.41,1.01-.72,1.66-.69,1.17.05,1.96-.74,2.87-1.25.11-.06.21-.29.27-.28.95.29,1.52-.32,2.17-.82.24-.18.66-.11,1-.19,1.1-.27,2.3-.21,3.22-1.05.18-.16.51-.24.77-.23.52.03.92-.21,1.34-.44.88-.48,1.59-1.31,2.69-1.32.71-.84,1.77-1.05,2.73-1.3,1.2-.32,2.32-.78,3.44-1.29.19-.08.43-.08.58-.21,1.58-1.33,3.57-1.53,5.45-2.05.57-.16,1.06-.55,1.62-.78.87-.36,1.86-.53,2.62-1.04.8-.53,1.73-.69,2.52-1.23.77-.53,1.71-.82,2.58-1.21.69-.3,1.36-.64,2.07-.87.51-.17,1.06-.22,1.5-.6.19-.17.51-.29.75-.27,1.08.11,1.99-.37,2.93-.75.93-.37,1.92-.56,2.73-1.25.45-.39,1.08-.57,1.65-.81,1.51-.62,3.05-1.17,4.55-1.83,1.35-.59,2.67-1.22,4.08-1.67.24-.08.47-.26.65-.45.74-.76,1.71-1.09,2.65-1.46.88-.34,1.83-.52,2.58-1.17.1-.08.25-.1.38-.14.79-.21,1.58-.42,2.36-.64.72-.21,1.14-1,1.99-1.01.23,0,.51-.2.68-.39.67-.74,1.56-1.06,2.44-1.46,1.23-.56,2.43-1.21,3.64-1.8.79-.39,1.59-.79,2.5-.84.42-.02.76-.21.96-.65.19-.42.63-.51,1.05-.5.59.02,1.08-.23,1.51-.56,2.13-1.61,4.58-2.56,7.09-3.36,1.01-.32,2.11-.35,3.19-.23.58.06,1.03.35,1.32.87.59,1.07,1.08,2.18,1.3,3.4.06.33.04.73.21.98.68.95.63,2.04.74,3.12.07.71.02,1.48.55,2.09-.14,1.02.49,1.92.41,2.95-.03.43.37.87.44,1.33.06.44-.14.91-.08,1.35.12.87.39,1.73.49,2.6.04.36-.18.75-.33,1.27,0,.01.06.24.2.34.64.46.65,1.22.59,1.8-.1,1.07.18,2.15-.2,3.22-.27.76.13,1.64-.29,2.4.17.58.34,1.17.53,1.84-.2.52-.55,1.02-.31,1.81.24.78.52,1.66.19,2.59-.16.44.13,1.05.19,1.58.05.44-.46.87,0,1.32-.36,1.59-.19,3.26-.55,4.83-.23,1.05-.82,1.96-1.92,2.51-.9.45-1.66,1.14-2.64,1.48-.77.27-1.21,1.08-2,1.37-.04.01.11.52-.26.6-.19.05-.4.04-.65.07-.06,1.2-.01,2.37.28,3.52.24.93.51,1.83.4,2.81-.01.11.11.24.21.46.4-.02.85-.02,1.29-.06.84-.08,1.27.34,1.43,1.13.03.13.09.26.14.38-.15.22-.36.41-.44.65-.13.41.29.91.65.82.33-.09.65-.19.96-.32.9-.37,1.83-.45,2.8-.46,1.22-.01,2.45-.19,3.66-.4.6-.11,1.13-.35,1.79-.2.31.07.71-.31,1.08-.37.39-.07.8-.03,1.2,0,.28.03.3-.25.45-.3.6-.24,1.12-.65,1.87-.5.39.08.91-.43,1.27-.33.6.17.89-.1,1.25-.43.33-.3.74-.33,1.16-.22.67.17,1.32.2,1.85-.35,1.39,0,2.56-.84,3.94-1,1.05-.12,2.08-.54,3.11-.89,1.15-.39,2.31-.75,3.48-1.1,1.89-.56,3.78-1.13,5.68-1.67.97-.27,1.97-.45,2.93-.74.96-.29,1.9-.11,2.85-.09.75.02,1.51-.03,2.26,0,1.64.05,3.26.38,4.79.91,1.14.39,2.28.78,3.44,1.12.97.28,1.91.59,2.95.66,1,.07,1.96.53,2.95.77.82.2,1.58.78,2.52.37.19-.08.54.07.77.2.82.48,1.86.33,2.63,1.02.23.2.76.04,1.14.09,1.96.24,3.92.46,5.89.47.87,0,1.75-.1,2.62-.07.85.04,1.66.13,2.54-.07,1.05-.25,2.11.32,3.17.46.33.04.59.22.94.02.58-.33,1.18-.16,1.79-.02.56.13,1.14.57,1.72-.02.11-.1.4-.04.6-.03,1.26.11,2.54-.09,3.8.12.33.06.66.14.98.22,1.22.28,2.48.24,3.71.39.61.08,1.24.04,1.76.41.52.38,1.21-.01,1.71.41.48.41,1.03.23,1.57.21.18,0,.37.16.54.28.43.29.78.04,1.16-.16.06-.93.35-1.83.35-2.81,0-.68.43-1.4.78-2.03.41-.73.64-1.58,1.5-2.04.7-.37,1.05-1.16,1.78-1.6,1.11-.67,2.13-1.13,3.44-.65.63.23,1.3.37,1.95.55,1.9.51,3.8,1.07,5.73,1.41,1.87.33,3.78.63,5.67.03,1.23.17,2.42.07,3.54-.47.97.35,1.98-.36,2.99.16.45.24,1.06.18,1.6.26.13.02.3.07.37,0,.41-.36.79-.47,1.16.04,2.22-.49,4.12.52,6.06,1.32.63.26,1.28.48,1.91.74.95.39,2.04.63,2.78,1.26.8.69,1.73,1.06,2.57,1.63.73.49,1.42,1.06,2,1.71,1.04,1.16,2.31,2.13,2.94,3.62.16.37.44.69.68,1.02.83,1.16,1.7,2.29,2.47,3.48.28.42.31,1,.52,1.48.32.75.91,1.47.97,2.23.06.81.54,1.38.7,2.1.2.91.43,1.82.61,2.74.2,1.07.27,2.17.78,3.16.38.73-.11,1.6.46,2.32.47.58.25,1.46.77,2.04-.17.76.08,1.46.4,2.11.32.66.36,1.39.69,2.05.16.32-.05.82.11,1.14.2.38.26.76.35,1.16.37,1.57.75,3.13,1.02,4.72.1.6.21,1.24.08,1.81-.13.59.57,1.18-.05,1.73-.06.05-.02.24.02.35.13.31.39.61.41.93.05.73-.01,1.46-.04,2.2-.01.33-.17.71-.06.99.45,1.13.22,2.28.25,3.43.02.88.2,1.76.21,2.64,0,.66.2,1.33-.16,2.01-.15.27.14.76.19,1.15.06.44-.54.79-.14,1.33.33.44-.39.75-.32,1.06.21.96-.22,1.7-.58,2.5-.11.24-.17.56-.09.8.41,1.27-.46,2.35-.48,3.55,0,.06-.06.12-.11.17-1.07,1.09-1.25,2.43-1.16,3.88.02.31-.1.68-.26.95-.41.7-1.02,1.31-1.29,2.05-.26.71-.58,1.33-1.02,1.93-.27.37-.57.87-.54,1.29.07.89-.44,1.41-.96,1.94-.38.39-.71.8-1.04,1.23-.93,1.2-2.24,1.99-3.66,2.39-.86.24-1.9.06-2.74-.47-.68-.44-1.31-.96-1.98-1.42-.22-.15-.47-.26-.72-.35-.26-.09-.56-.07-.79-.19-2.48-1.31-5.16-.98-7.79-.92-.73.02-1.45.33-2.18.46-1.23.23-2.26.91-3.36,1.42-.44.2-.69.89-1.41.54-.35-.17-.92.32-1.19-.31-.8.25-1.36-.14-2.03-.54-.55-.33-1.26-.4-1.76-.92-.59-.63-1.47-.67-2.22-.97-.59-.23-1.12-.43-1.46-1.04-.19-.34-.56-.6-.86-.87-.99-.88-1.79-1.93-2.07-3.22-.25-1.18-1.32-1.91-1.53-3.08-1.24-1.53-1.53-3.45-2.12-5.24-.21-.63-.32-1.31-.59-1.93-.05-.12-.13-.27-.09-.37.52-1.36-.38-1.61-1.37-1.93-.57-.18-1.04-.61-1.7-.61-.25,0-.54-.12-.76-.27-.97-.68-1.99-1.2-3.21-1.19-.79-.57-1.76-.69-2.64-1.01-1.47-.53-3-.88-4.41-1.59-.34-.17-.71-.32-1.17-.2-.96.25-1.92-.07-2.79-.41-1.02-.4-2.07-.84-3.11-.93-1.01-.09-1.98-.38-2.99-.41-.33-.01-.69-.06-.99-.19-.36-.15-.65-.5-1.01-.57-.37-.07-.79.13-1.19.12-1.15-.01-2.27-.36-3.43-.17-.18.03-.4-.07-.56-.17-.23-.14-.42-.26-.74-.18-1.78.49-3.51,1.13-5.16,1.93-.96.47-1.76,1.28-2.63,1.95-1.35,1.04-2.67,2.12-3.89,3.32-.59.58-1.26,1.02-2.03,1.35-.68.29-1.32.7-1.94,1.12-.59.41-1.26.57-1.92.6-.41.01-.77,0-1.16.16-.86.36-1.74.61-2.72.52-.78-.07-1.56.38-2.38.16-.11-.03-.26.03-.37.09-1.69.91-3.57,1.27-5.34,1.92-1.25.46-2.62.67-3.71,1.6-.44.37-1.12.48-1.71.66-.85.25-1.71.5-2.58.64-.88.14-1.7.46-2.52.76-.63.24-1.22.62-1.94.28-.13-.06-.46.04-.55.17-.44.68-1.27.32-1.82.71-.11.08-.45-.24-.63-.19-.24.07-.39.37-.63.48-1.03.5-2.03,1.19-3.12,1.4-1.02.19-1.88.66-2.82.98-.88.31-1.8.46-2.68.82-.74.31-1.54.47-2.38.5-.84.03-1.7.15-2.55.34-.84.19-1.74-.04-2.62.23-.47.14-1.05-.07-1.57-.15-1.46-.22-2.82.36-4.23.52-.61.07-1.21.2-1.81.31-.2.04-.42.06-.59.16-1.45.88-3.05,1.07-4.7,1.08-1.37,0-2.7.23-4.02.53-.74.16-.74.18-1.84-.17-.12-.04-.23-.12-.34-.11-1.15.05-2.31.2-3.46.15-.93-.05-1.81-.33-2.51-1.13-.8-.9-1.72-1.73-2.7-2.43-.62-.44-.93-.97-1.13-1.63-.14-.46-.27-.91-.63-1.26-.27-.26-.18-.57-.14-.93.14-1.46-.39-2.15-1.82-2.37-1.02-.16-1.98-.42-2.86-.95.05-.01.12-.02.16-.05.03-.02.02-.08.03-.12-.05.07-.1.14-.15.2-.76-.44-1.25-1.25-2.15-1.5-.15-.04-.23-.29-.36-.43-.09-.1-.23-.17-.3-.28-.51-.8-.99-1.61-1.51-2.4-.62-.94-.9-1.94-.78-3.07.06-.57-.48-1.08-1.02-.99-.4.07-.78.22-1.17.36-.9.32-1.79.65-2.68.97-.91.32-1.87.04-2.8.21-.31.05-.66-.11-.99-.19-1.48-.35-2.8-1.03-4.01-1.94-2.12-1.6-2.31-1.74-3.34-3.51-.31-.53-.28-1.25-1.02-1.53-1.58,1.54-3.12,3.15-4.86,4.54-.15.12-.24.31-.36.47-.57.76-1.21,1.49-1.7,2.3-.53.88-1.59,1.02-2.19,1.77-.64.79-1.37,1.53-1.91,2.38-.86,1.34-2.16,1.85-3.61,1.92-1.28.07-2.59.07-3.87-.23-.26-.06-.54-.06-.82-.06-1.3,0-2.59-.02-3.89,0-1.21.01-2.43.01-3.64.08-1.09.06-2.2.08-3.24.35-1.56.4-3.09.13-4.62.09-1.09-.03-2.17-.28-3.26-.02-.13.03-.32-.14-.46-.24-.56-.4-.56-.41-1.37.34-.41-.04-.87-.15-1.33-.13-.47.02-.94.17-1.41.24-.47.06-.95.13-1.42.11-.5-.02-.95.02-1.36.32-.75.56-1.51.53-2.2.02-1.26.77-1.26.8-2.51.6-.54-.09-1.02-.3-1.54.11-.17.14-.52.09-.78.06-1.68-.2-3.24.23-4.72.96-1.03.51-2.05,1.05-3.09,1.54-.47.22-1,.3-1.47.52-.86.38-1.7.81-2.54,1.23-.61.3-1.18.72-1.83.88-.66.17-1.31.32-1.91.62-.83.4-1.81.36-2.59.97-.69.54-1.47.98-2.27,1.35-.79.37-1.53.88-2.45,1-.39.05-.8.19-1.13.41-.37.24-.7.4-1.14.28-.12-.03-.28,0-.39.06-2.53,1.33-5.28,2.14-7.82,3.43-.85.43-1.56,1.07-2.52,1.34-1.37.39-2.71.9-4.01,1.47-1.6.71-3.37,1.06-4.77,2.21-.15.13-.35.22-.55.28-.57.16-1.26.14-1.69.46-.57.43-1.19.61-1.81.86-.57.22-1.14.46-1.64.8-.76.52-1.71.37-2.48.78-.7.38-1.3.93-2.07,1.21-1.48.54-2.93,1.12-4.31,1.89-.4.22-.92.19-1.37.34-.71.24-1.49.42-2.06.86-.55.43-1.37.22-1.74.9-1.56.3-2.73,1.45-4.26,1.86-1.28.35-2.45,1.08-3.65,1.69-.96.49-2,.85-3.03,1.14-1.19.33-2.21,1.09-3.44,1.3-.18.03-.4.18-.48.34-.26.56-.78.74-1.27.98-1.27.63-2.49,1.42-3.96,1.54-1.21.76-2.71.86-3.9,1.69-.44.3-.96.52-1.47.7-1.93.69-3.6,1.87-5.41,2.79-.35.18-.65.48-.98.71-.27.19-.61,0-.94.22-.49.34-1.11.67-1.67.68-1.09,0-1.76,1.03-2.83,1.01-.11,0-.23.13-.34.21-.37.29-.6.86-1.13.79-.61-.09-.77.51-1.22.63-.39.11-.77.27-1.15.44-.44.2-.85.46-1.29.62-.31.11-.68.07-1.01.14-.26.05-.52.14-.75.26-1.67.89-3.48,1.5-5.37,1.8-.33.05-.66.16-.97.28-1.97.75-3.96,1.47-5.91,2.26-1.65.67-3.42.75-5.14,1.08-.37.07-.78-.13-1.19-.2-.2.19-.39.37-.62.58-.16-.07-.37-.1-.52-.22-.58-.45-.79-1.08-.83-1.79-.05-.68-.21-1.36-.21-2.03,0-.49-.05-.92-.29-1.35-.16-.29-.31-.7-.21-.97.27-.78.14-1.45-.25-2.13-.13-.23-.16-.53-.18-.8-.05-1.24-.4-2.42-.76-3.6-.33-1.09-.61-2.19-1-3.26-.2-.56-.31-1.15-.43-1.74-.11-.53-.19-1.06-.25-1.6-.05-.44-.1-.83-.32-1.27-.24-.49-.08-1.18-.09-1.79,0-.2.12-.46.03-.58-.41-.61-.93-1.17-.65-2-.52-.62-.31-1.43-.49-2.1-.21-.05-.37-.14-.46-.1-.68.32-1.38.6-2.01,1.01-.56.36-1.05.61-1.69.23-.17-.1-.41-.21-.57-.15-.77.26-1.31-.09-1.85-.56-.13-.11-.41-.17-.56-.11-.55.22-.84-.22-.95-.5-.47-1.25-1.56-2.22-1.66-3.66-.02-.31-.29-.61-.42-.92-.43-1.07-.92-2.12-.9-3.34,0-.51-.33-1.01-.41-1.53-.08-.53,0-1.08-.05-1.62-.01-.18-.19-.34-.29-.51l.06.05c-.33-.81-.86-1.55-.62-2.52.05-.22-.14-.5-.2-.76-.19-.79-.48-1.58-.54-2.38-.05-.68-.02-1.34-.41-1.94-.04-.06-.07-.12-.08-.19-.04-.67.36-1.36-.02-1.99-.32-.54-.54-1.06-.42-1.7.03-.18.03-.45-.08-.56-.52-.57-.57-1.2-.39-1.91.05-.18.07-.43-.02-.56-.49-.74-.16-1.56-.27-2.33-.06-.43-.08-.89.03-1.36.07-.32-.26-.74-.41-1.11-.02-.06-.02-.14-.05-.2-.27-.75.17-1.53-.24-2.33-.36-.7-.45-1.57-.56-2.38-.09-.65-.27-1.27-.44-1.9-.16-.6-.04-1.27-.34-1.91-.28-.59-.36-1.29-.49-1.94-.07-.33-.2-.72-.08-.99.36-.84-.11-1.68.18-2.56.26-.8.04-1.75.02-2.64,0-.14,0-.27-.02-.41-.08-1.5-.02-1.48.44-2.92.42-1.29,1.3-2.04,2.48-2.52.57-.23,1.17-.62,1.73-.58.61.04,1-.22,1.46-.45.17-.09.4-.13.59-.11,1.7.17,3.22-.51,4.72-1.1,1.08-.43,2.18-.73,3.29-1.03.85-.23,1.73-.33,2.52-.8.46-.27,1.01-.27,1.54-.09.44.15.67.42.58.7-.1.31-.35.36-.63.4-.72.09-1.47.11-1.98.77-.11.14-.36.27-.53.25-.52-.07-.96.4-1.36.31-.6-.13-.81.33-1.21.46-.44.15-.92.21-1.37.33-.91.26-1.85.47-2.73.82-1.21.48-2.47.73-3.74.83-.89.07-1.71.4-2.58.5-.64.08-1.06.44-1.23.95-.38,1.14-.97,2.22-.72,3.54.19,1.03.42,2.1.07,3.21-.18.6.31,1.43.09,2-.27.74.22,1.17.31,1.74.17,1.07.35,2.14.61,3.18.73,2.86,1,5.8,1.51,8.7.09.51-.36,1.1.19,1.58-.33.54.11,1.16-.17,1.73-.07.14-.02.45.1.56.31.31.31.71.45,1.06.21.51-.43,1.12.24,1.5.09.59.21,1.18.28,1.78.06.54.01,1.1.1,1.63.08.52.3,1.02.42,1.54.18.84.05,1.73.58,2.52.2.3.08.8.15,1.2.08.46.17.93.31,1.38.11.35-.06.69.26,1.1.38.47.53,1.19.27,1.9-.1.28.05.66.13.99.16.65.35,1.29.52,1.93.03.12-.01.28.05.38.58.9.98,1.85,1.27,2.91.23.87.91,1.62,1.4,2.42.03.06.07.12.12.16.69.61,3.15.92,3.91.4,1.24-.86,2.44-1.71,3.99-1.96.35-.06.63-.49.98-.66.92-.44,1.84-.93,2.81-1.21.89-.26,1.84-.32,2.77-.36.55-.02,1.08.02,1.58-.27.61.31,1.02-.18,1.51-.35.24-.08.52-.03.79-.05.97-.06,1.92.08,2.76-.8.69-.72,1.85-.78,2.81-1.09.19-.06.47.03.6-.07.58-.47,1.12-1.13,1.88-1.13.75,0,1.19-.66,1.89-.61.11,0,.28-.08.33-.18.45-.84,1.38-.87,2.1-1.09.71-.22,1.43-.43,2.07-.76,1.41-.72,2.92-1.08,4.4-1.56.38-.12.74-.33,1.18-.17.15.06.43-.01.56-.12,1.17-1.01,2.66-1.25,4.06-1.7l.14.11c-.06-.02-.13-.04-.19-.06Zm162.06-36.2c-.04-.15,0-.45-.29-.16l.33.12c-.1.28-.08.53.24.64.81.29,1.59-.13,2.39-.07,1,.07,1.92-.57,2.94-.34.85-.58,1.81-.89,2.79-1.13.11-.03.17-.21.29-.27.73-.37,1.17-1.17,1.85-1.47,1.27-.57,1.81-1.57,2.2-2.75.07-.22-.02-.5-.04-.76-1.07.18-2.1.06-2.99.63-.21.13-.54.17-.79.13-.66-.11-1.18.24-1.75.42-.56.18-1.17.26-1.7.5-.34.16-.6.51-.87.8-.32.34-.54.76-1.02.97-.54.24-1.03.53-1.32,1.17-.23.51-1.1.43-1.44,1.04-.14.25-.54.36-.82.53Zm-99.51,32.49c-.02-.06-.04-.12-.08-.17-.02-.02-.08-.01-.12-.02.08.04.17.09.25.13-.24.12-.46.28-.71.34-.65.16-1.38.12-1.74.85-1.12.28-1.98,1.11-3.12,1.39-1.1.27-2.2.74-3.16,1.34-1.06.66-2.35.71-3.36,1.44-.19.13-.53.06-.8.06-.38,0-.63.15-.82.48-.21.37-.55.53-.98.66-1.24.38-2.49.71-3.6,1.45-.42.28-.99.41-1.5.43-.39.01-.61.03-.77.42-.09.23-.29.48-.5.58-.43.2-.9.4-1.36.44-1.87.18-3.36,1.36-5.09,1.88-1.29,1.11-2.93,1.39-4.49,1.86-.25.08-.56.11-.72.28-.68.71-1.61.94-2.45,1.34-.9.43-1.88.66-2.74,1.23-.83.56-1.76.97-2.7,1.48-.33-.03-.84-.25-1.09-.08-.52.37-1.09.51-1.66.73-.61.23-1.14.69-1.69,1.08-.4.29-.78.53-1.31.37-.73-.21-.65.79-1.22.83-.14,0-.28.07-.4.04-.56-.13-.97.02-1.47.36-.78.52-1.69.88-2.58,1.22-.43.17-.97.06-1.39.24-.4.18-.67.64-1.06.86-.34.2-.78.35-1.17.32-.61-.03-1.03.21-1.49.53-.38.26-.86.37-1.29.58-1.51.73-3.27.89-4.57,2.11-.27.26-.75.3-1.15.41-.32.09-.69.09-.98.23-1.83.9-3.82,1.35-5.7,2.14-.37.15-.82.14-1.16.32-2.16,1.15-4.48,1.89-6.77,2.74-.76.28-1.55.46-2.3.76-1.66.65-3.42.73-5.07,1.09-.75-.48-1.43-.91-2.01-1.28,0-.47.08-.83-.01-1.14-.31-1.04-.62-2.08-.92-3.12-.23-.78-.5-1.53-.51-2.35-.97-1.48-.88-3.26-1.26-4.89-.34-1.44-.53-2.94-.78-4.42-.08-.5-.3-.9-.49-1.32-.33-.69-1.02-1-1.66-.72-.5.22-.97.51-1.43.8-.52.33-.92.75-1.15,1.38-.5,1.34-.45,2.67-.13,4.03.11.46.21.93.29,1.39.11.66.19,1.33.29,2,.1.67.39,1.37.27,2-.16.82.51,1.21.66,1.85.33,1.44.4,2.95,1.11,4.29.12.22.04.54.08.81.15.94.11,1.99.53,2.8.49.95-.27,2.02.52,2.87.16.17-.11.72.04.9.29.34.55.6.31,1.05.33.51,0,1.26.63,1.68,1.2-.11,2.44-.13,3.63-.35,1.73-.32,3.43-.78,5.14-1.19.2-.05.4-.12.56-.23,1.33-.87,2.85-1.29,4.35-1.67,1.06-.27,2.08-.61,3.1-.96,1.92-.66,3.82-1.39,5.72-2.11.44-.17.89-.37,1.25-.66,1.27-1,1.49-1.11,3.23-1.41.18-.03.44-.11.49-.24.16-.38.46-.51.8-.5.58.01,1.02-.21,1.51-.5,1.76-1.03,3.55-1.99,5.33-2.96,1.67-.91,3.48-1.52,5.09-2.54.22-.14.52-.14.79-.19,1.76-.33,3.37-.96,4.89-1.93,1.59-1.02,3.28-1.87,5.08-2.47.51-.17.95-.53,1.44-.73,1.26-.51,2.5-1.1,3.81-1.44,1.34-.35,2.57-.95,3.73-1.6,1.37-.77,2.89-1.2,4.22-2.05.45-.29.96-.48,1.54-.51.47-.02.97-.13,1.38-.36,2.32-1.28,4.75-2.31,7.17-3.36.81-.35,1.57-.78,2.34-1.22.74-.42,1.64-.6,2.44-.97,1.34-.62,2.88-.77,4.08-1.72.05-.04.13-.05.2-.05.6.03,1.03-.27,1.43-.68.49-.5,1.08-.73,1.8-.85,1.2-.19,2.28-.85,3.52-.96.19-.02.38-.14.55-.24.91-.54,1.74-1.22,2.87-1.31.23-.02.54-.24.63-.45.17-.39.48-.41.8-.52,2-.65,3.99-1.34,5.88-2.31.89-.46,1.83-.86,2.87-1.05.98-.18,1.92-.6,2.75-1.2.82-.6,1.63-1.26,2.73-1.31.18,0,.43-.13.51-.28.32-.57.92-.54,1.41-.72.56-.21,1.21-.24,1.74-.49,1.65-.78,3.26-1.62,4.89-2.45.08-.04.1-.2.19-.38-.39-.15-.82-.49-1.13-.4-.87.25-1.73-.09-2.59.08-.32.06-.75.14-.97-.02-.61-.45-1.18.09-1.75-.06-.68-.17-1.32-.04-1.99.17-1.02.33-2.06.4-3.17.27-1.11-.13-2.33-.08-3.32.67-.59.45-1.28.78-1.93.95-1.12.29-2.02,1.08-3.19,1.24-.45.06-.87.29-1.23.67-.42.45-2.06,1.1-2.66,1.27-.32.09-.63.25-.94.37-.44.17-.89.33-1.33.5Zm-64.12,25.85c.02.06.02.13.05.18.02.03.08.03.13.04-.08-.05-.16-.11-.23-.16.72-.5,1.55-.71,2.39-.96.83-.24,1.55-.97,2.38-1.09.76-.11,1.28-.84,2.09-.66,1.57-1.1,3.37-1.74,5.12-2.46,1.92-.79,3.77-1.78,5.88-2.08.36-.05.78-.3,1.01-.59.5-.63,1.14-.91,1.86-1.16,2-.68,3.97-1.43,5.78-2.53.34-.21.84-.21,1.11-.47.53-.5,1.19-.02,1.71-.35.52-.33,1.02-.68,1.55-.97.48-.26.99-.44,1.49-.65,1.6-.68,3.42-.86,4.72-2.19.09-.09.24-.18.36-.18.97.04,1.63-.92,2.68-.75.41.07,1-.18,1.3-.49.39-.38.95-.24,1.22-.49.6-.55,1.42-.49,2-.94,1.71-1.32,3.92-1.58,5.7-2.74.84-.1,1.51-.56,2.25-.93.77-.38,1.65-.56,2.48-.84.13-.04.26-.1.35-.19.91-.91,2.09-1.18,3.3-1.39.39-.06.76-.26,1.12-.43.43-.2.84-.45,1.26-.67,1.93-1,3.85-2.02,5.8-2.99.66-.33,1.08-.76,1.2-1.51-.58-.21-1.08-.49-1.6-.55-.36-.04-.74.34-1.12.35-.35.01-.63-.4-1.1-.15-.32.17-.82.17-1.17.05-.4-.13-.72-.23-1.16-.07-.29.11-.68.03-.99-.07-.48-.16-.9-.21-1.37.06-.21.12-.54.1-.79.05-1.69-.35-3.31.51-5,.24-.15-.02-.34.22-.53.29-.18.07-.42.16-.56.09-.55-.28-1.05-.03-1.59.04-.66.08-1.34-.11-2-.08-.66.02-1.33.26-1.98.23-.67-.03-1.32-.1-2,.03-.59.12-1.31-.41-1.77.37-.87-.23-1.72-.08-2.57.1-.11.02-.27-.06-.37-.13-.23-.18-.45-.27-.74-.14-.79.37-1.58.24-2.39.05-.32-.07-.74-.19-.99-.06-.79.42-1.59.05-2.38.17-.79.11-1.61-.02-2.42-.04,0,.13-.01.26-.02.51-.46-.06-.99.03-1.32-.2-.38-.26-.63-.42-1.07-.2-.23.11-.61-.02-.79.12-.65.52-1.13.15-1.64-.21-.65.75-1.63.85-2.44,1.25-.58.29-1.3.24-1.91.65-.6.4-1.33.63-2.03.87-.67.23-1.1.82-1.71,1.09-.59.26-1.28.31-1.92.46-.13.03-.3.08-.36.17-.55.86-1.31.43-2.03.33-.26.31-.51.62-.65.78-1.53.48-2.9.9-4.26,1.33-.38.12-.59.55-1.08.49-.43-.06-.89.05-1.32-.04-.31-.06-.58-.07-.65.22-.15.56-.54.75-1.04.84-.53.09-1.06.18-1.59.27-.66-.52-.82.43-1.35.47-.51.04-.99.42-1.5.61-.18.07-.47-.07-.58.03-.5.48-1.25.13-1.68.46-.92.69-1.97.9-3.03,1.14-.64.15-1.21.63-1.95.39-.78-.25-.96.99-1.75.78-1.19.49-2.38.98-3.56,1.49-.3.13-.56.36-.84.53-.23.14-.45.32-.7.36-.85.14-1.49.64-2.03,1.16-.67-.07-1.29-.52-1.73.27-.08.14-.36.15-.54.24-1.84.89-3.65,1.84-5.17,3.25-1.1,1.01-1.9,2.13-1.79,3.72,0,.14-.01.27-.03.41-.23,1.98-.27,3.94.54,5.83.13.3.13.66.21.99.16.64.17,1.3.23,1.95.05.62.48,1.24.83,1.81.24.4.11.79.19,1.18.2,1.01.92,1.57,1.91,1.43,1.07-.15,2.15-.33,3.17-.73.5-.2,1.03-.4,1.56-.47.68-.09,1.37-.08,1.83-.7,1.4-.48,2.7-1.22,4.07-1.75,2.09-.8,4.13-1.77,6.34-2.25.39-.09.8-.23,1.13-.46.8-.55,1.71-.82,2.61-1.1Zm91.26-33.31c.58-.19,1.15-.39,1.74-.56.32-.1.65-.22.97-.21.33.01.65.26.97.25.29-.01.56-.34.85-.35.93-.05,1.86-.02,2.79-.01.73,0,1.43-.03,2.16-.23.77-.2,1.63-.05,2.45-.06.2,0,.41,0,.61-.01.98-.07,1.95-.31,2.94-.24.86-.55,1.8-.62,2.8-.64.57-.01,1.19.01,1.73-.11,1.01-.23,1.98-.39,2.99-.04.16.06.42.02.56-.08.42-.29.87-.31,1.36-.33.67-.02,1.37-.08,2.01-.29,1.63-.52,3.29-.68,4.98-.59.34.02.69.18.96-.11.27-.3.54-.34.91-.24.67.19,1.34.07,2.02.07,1.27,0,2.51-.39,3.81-.15.77.14,1.67.15,2.38-.12,1.35-.52,2.64-.53,4-.16.29.08.68-.04.97-.18,1.67-.81,2.9-2.21,4.36-3.3.26-.7.85-1.01,1.45-1.36.52-.3.97-.73,1.44-1.1-.02-.88.91-.93,1.28-1.48.78-.1,1.15-.79,1.51-1.29.97-1.34,2.37-2.22,3.39-3.5.62-.78,1.47-1.39,2.21-2.06.93-.84,1.94-1.62,2.68-2.73.74-1.11,1.87-1.97,3.31-2.24.27-.05.5-.33.87-.58-1.35-.11-1.33-.07-1.93.18-1.06.44-2.14.81-3.21,1.21-1.12-.25-2.14.24-3.2.41-.6.09-1.11.48-1.79.33-.63-.14-1.32.35-1.98-.07-.1-.07-.37.06-.53.15-.74.44-1.67.46-2.33,1.1-.15.14-.52.06-.78.08-.26.01-.54-.04-.78.04-1.01.34-2.01.81-3.05.83-1.06.02-2.08.89-3.18.19-.07-.04-.25.09-.37.15-1.25.57-2.67.28-3.92.8-1.33-.27-2.53.18-3.72.68-.17.07-.43.11-.56.03-.69-.42-.97.23-1.43.51-.45-.05-1-.3-1.37-.13-1.12.5-2.08-.05-3.59-.23,1.03-.35,1.59-.66,2.18-.72.97-.1,1.85-.42,2.74-.75.44-.17.91-.35,1.37-.38,1.43-.09,2.77-.72,4.23-.59.13.01.29-.01.4-.08.9-.55,1.94-.54,2.91-.62,1.39-.11,2.39-.82,3.39-1.64.44-.36.51-.82.33-1.29-.27-.7-.65-1.35-.94-2.04-.28-.67-.26-1.34.3-1.89,1.06-1.06,2.12-2.12,3.19-3.17.89-.14,1.16-1.12,1.87-1.43,1.03-.45,1.75-1.27,2.66-1.85,1.34-.86,2.25-2.14,3.37-3.23.14-.14.26-.32.34-.5.62-1.28,1.48-2.42,2.15-3.68.22-.42.54-.81.66-1.25.4-1.45,1.38-2.46,2.42-3.44.29-.28.56-.75.88-.79,1.06-.13,1.89-.82,2.85-1.05,1.44-.35,2.85-.89,4.34-1.04,1.7-.18,3.21-1.15,4.95-1.13.05,0,.12-.06.15-.11.3-.47.88-.34,1.26-.58.47-.3.92-.39,1.45-.48.58-.09,1.17-.38,1.66-.72.61-.43,1.36-.21,1.94-.57.58-.36,1.1-.8,1.68-1.16.22-.14.52-.15.78-.22,1.39-.36,2.56-1.29,4.01-1.53.18-.03.31-.25.48-.37.27-.2.54-.44.84-.58,1.14-.54,2.33-.98,3.05-2.12.06-.1.25-.19.36-.18.79.11,1.14-.62,1.78-.85-.13-.72-.26-1.42-.41-2.22-1.02.37-1.91.7-2.81,1-.38.13-.82.14-1.18.31-.35.17-.61.62-.96.68-.67.12-1.28.27-1.9.63-.62.36-1.43.37-2.12.62-.58.21-1.14.38-1.77.39-.89.01-1.73.21-2.33.97-.1.13-.39.26-.51.2-.58-.26-1.06.05-1.57.19-.86.23-1.69.6-2.56.69-1.57.16-3.04.61-4.48,1.22-.54.22-1.08.61-1.74.18-.16-.1-.59-.01-.75.14-.75.69-1.69.77-2.62.93-.61.1-1.22.13-1.72.57-.11.1-.36.04-.54.06-.72.08-1.45.14-2.16.25-.33.05-.65.23-.98.28-1.34.22-2.53,1.02-3.94.96-.12,0-.3.07-.35.17-.5.87-1.44.93-2.24,1.25-.37.15-.87.2-1.09.47-.37.46-.89.6-1.35.86-.41.24-.88.37-1.28.63-.45.29-.83.56-1.45.44-.66-.14-.69.78-1.22.94-.12.04-.32-.08-.39-.02-.62.51-1.45.17-2.09.53-.75.42-1.72.42-2.3,1.19-.08.11-.39.11-.58.07-.27-.06-.45-.15-.66.18-.17.26-.48.48-.78.61-.74.33-1.49.63-2.26.88-.83.27-1.34,1.18-2.34,1.1-.15-.01-.39.19-.47.35-.3.59-.75.72-1.36.63-.35-.05-.61.18-.88.42-.45.4-.93.85-1.49,1.05-1.25.46-2.23,1.58-3.7,1.48-.04,0-.14.07-.13.11,0,.39-.13.68-.56.66-.65-.04-1.16.13-1.67.59-.38.34-.97.48-1.48.65-.42.14-.86.21-1.29.31-.27.68-.9.59-1.4.55-.71-.06-.93.78-1.62.73-.41-.03-.42.47-.61.73-.12.16-.25.37-.42.43-1.39.49-1.78,1.8-2.43,2.89-.22.37-.31.79-.11,1.18.49.95.45,1.95.35,2.97-.13,1.38.22,2.71.58,4.02.1.38.33.73.54,1.08,1.05,1.77,2.43,3.1,4.62,4.02-.06,0-.14,0-.19.03-.03.02-.04.08-.06.13.07-.07.14-.14.21-.21.6.54,1.26,1.04,1.78,1.65.47.56,1.07.86,1.69,1.11.74.3,1.56.39,2.32.66.96.35,1.98.65,2.8,1.22.67.47,1.46.69,2.09,1.22.18.15.54.22.75.15.46-.17.82-.05,1.12.26.39.41.82.7,1.4.77.67.08,1.22.44,1.8.76.65.36,1.4.56,2.03.95.82.5,1.55,1.14,1.76,2.15.02.11-.07.27-.16.36-.08.08-.28.15-.35.1-.53-.31-1.13-.57-1.53-1-.52-.57-1.28-.42-1.84-.83-.99-.75-2.13-1.18-3.37-1.36-.24-.03-.54-.18-.68-.36-.36-.5-.78-.65-1.4-.63-.43.01-.88-.28-1.31-.46-.38-.16-.74-.34-1.11-.52-.4-.2-.78-.61-1.18-.61-1.29,0-2.37-.64-3.45-1.15-1.2-.58-2.44-1.13-3.49-2.06-.71-.62-1.24-1.5-2.07-1.9-1.07-.52-1.84-1.31-2.61-2.14-.46-.49-.81-1.1-1.32-1.52-.52-.42-.86-.93-.96-1.52-.09-.54-.3-.8-.79-.91-.24-.92-1.06-.87-1.63-.72-.78.21-1.44.1-2.18-.08-.85-.2-1.73-.27-2.61.15-.53.25-1.17.27-1.82.4-.62-.39-1.31-.71-1.86-1.2-.7-.61-1.47-.81-2.36-.9-.57-.06-1.03-.1-1.54.24-.51.34-1.07.66-1.65.78-.56.12-1.06.26-1.41.71-.44.58-1.15.23-1.7.54-.93.52-1.77,1.3-2.93,1.33-.12,0-.28.11-.34.21-.37.7-.96.88-1.7.88-.24,0-.49.21-.72.35-.46.28-.77.74-1.38.82-.59.08-1.15.34-1.74.47-.74.16-1.46.3-2.02.88-.17.18-.48.31-.72.31-.81,0-1.37.47-2.01.84-.87.51-1.78.99-2.84,1.01-.45.61-1.27.48-1.78.85-.59.42-1.18.6-1.86.73-.24.05-.44.3-.67.45-.45.29-.9.59-1.37.85-1.19.65-2.49,1.07-3.62,1.84-.22.15-.5.34-.74.33-.9-.04-1.5.53-2.2.92-.29.16-.63.25-.95.37-1.92.7-3.77,1.58-5.54,2.59-.36.2-.69.47-1.07.59-.43.13-.82.57-1.34.26-.26.28-.5.5-.94.59-.85.17-1.71.33-2.45.89-.35.26-1.04.17-1.28.47-.44.54-1,.33-1.49.51-.54.19-1.07.29-1.57.67-.5.37-.98,1.15-1.89.7-.22-.11-.02.6-.47.69-1.84.35-3.4,1.38-5.04,2.19-.27.13-.43.47-.63.69.12.15.15.22.2.26,1.29,1,2.84.41,4.24.71.42.09.61-.16.92-.23.25-.06.54-.16.77-.09.57.16,1.06.04,1.59-.16.55-.21,1.13-.25,1.76-.1.49.12,1.19.07,1.58-.2.72-.5,1.15-.05,1.68.21l-.05-.05c.23.11.49.34.69.3.59-.12,1.2-.59,1.71-.49.79.16,1.46-.11,2.18-.16.4-.02.81.16,1.2.1.37-.06.7-.34,1.07-.48.18-.07.41-.05.61-.03,1.09.12,2.15.06,3.23-.16.36-.08.95-.03,1.13.21.53.67,1.19.53,1.82.47,1.35-.13,2.68-.36,4.03-.49.73-.07,1.41-.46,2.17-.33.52-.43,1.03.21,1.54.02.54-.19,1.07-.25,1.58,0,.6.29,1.26.31,1.79.09.87-.36,1.75.08,2.61-.21.2-.07.55.3.9.51.42-.75,1.02-1.2,1.96-.67.14.08.39-.02.58-.05,1.19-.17,2.38-.49,3.57.06.1.05.31.02.38-.05.49-.55,1,.07,1.51-.05.49-.11,1.05-.09,1.53.04.49.14.87.15,1.35-.09.54-.26,1.18-.37,1.63.26l-.19.07s.09-.08.13-.12Zm236.07,4.11c-.13.15-.36.31-.36.46-.02.65-.26,1.18-.67,1.67-.26.31-.42.71-.65,1.04-.23.33-.49.62-.82,1.03.56.1,1,.21,1.45.26.32.03.66-.08.98-.05.65.05,1.29.06,1.94.24,1.68.47,2.96,1.65,4.52,2.31,1.15,1.2,2.68,1.84,4.11,2.79,1.41-.86,3.14-1.29,3.96-2.97,1.15-.7,1.41-1.95,1.88-3.07.16-.37.22-.8.44-1.13.64-.96,1.35-1.88.86-3.15-.04-.11,0-.29.07-.39.37-.49.78-.95,1.13-1.45.36-.52-.13-1.25.38-1.76.05-.05.09-.11.11-.17.33-.99,1.36-1.75.98-2.98-.01-.04.05-.13.1-.17.43-.44.46-.92.29-1.51-.11-.36-.05-.81.04-1.19.18-.8.42-1.58.63-2.37.05-.19.2-.42.14-.56-.5-1.13.11-2.11.4-3.05-.18-.29-.42-.51-.45-.74-.07-.68-.05-1.36-.07-2.05-.02-.89.01-1.78-.06-2.66-.08-.94-.24-1.86-.17-2.83.07-.98-.29-1.94-.31-2.94-.01-.61.23-1.18.13-1.78-.16-.92-.29-1.85-.46-2.77-.18-.97.13-2.02-.56-2.91-.14-.18-.13-.54-.07-.78.1-.37.03-.69-.16-.97-.37-.52-.38-1.15-.58-1.71-.39-1.14-.41-2.37-.92-3.48-.27-.6-.36-1.29-.45-1.95-.1-.74-.31-1.44-.56-2.15-.48-1.33-.93-2.68-1.34-4.04-.66-2.16-1.36-4.31-2.64-6.19-.88-1.3-1.73-2.62-2.53-3.97-.35-.6-.88-1.01-1.45-1.42-.65-.47-1.36-.86-1.91-1.47-.55-.6-1.36-1.04-1.7-1.73-.35-.72-.84-1.13-1.43-1.55-.6-.42-1.12-1.01-1.77-1.29-.84-.36-1.51-.86-2.09-1.53.05-.02.1-.02.15-.05.02-.02.03-.06.04-.1-.05.07-.09.13-.14.2-.15-.22-.3-.43-.45-.65-.1-.15-.15-.37-.29-.44-.52-.27-1.08-.47-1.59-.74-.91-.49-1.91-.69-2.88-.97-.51-.14-1.08-.05-1.63-.04-.82,0-1.63-.03-2.41-.37-.28-.12-.65-.05-.98-.02-.32.02-.64.12-.97.15-2.28.17-4.35,1.11-6.47,1.84-.11.04-.18.18-.27.28.06.1.12.23.21.32.1.09.23.17.35.19.27.04.55,0,.81.06.71.16,1.44.31,2.05,1.07-1.17.15-2.15.2-3.16-.1-1.04-.32-2.12-.49-3.17-.78-.52-.14-1.12-.3-1.47-.66-.5-.51-1.15-.52-1.72-.8-.44-.22-.91-.28-.89-.92,0-.12-.23-.29-.39-.38-.41-.24-.91-.37-1.25-.68-.43-.38-1.06-.08-1.42-.55-.34-.45-.87-.28-1.32-.39-1.32-.31-1.33-.3-2.73.4-.49.24-1,.42-1.5.63.13.57-.43.58-.69.83-.33.34-.69.65-1.08,1.02-.2.65-.12,1.45-.66,2.06-.16.19-.21.5-.24.77-.09.73-.15,1.47-.22,2.26,1.05.49,1.96.27,2.86-.37.66-.47.95-1.26,1.48-1.79.99.23,1.52.87,1.98,1.53.5.72.89,1.5,1.68,2,.25.16.36.55.52.85.19.36.37.72.54,1.09.17.37.35.74.45,1.13.11.42.73.26.79.7-.15.12-.26.2-.41.33,1.22.74,1.21,2.22,1.99,3.25.34.44.38,1,.12,1.56-.05.12.15.35.22.53.35.81.73,1.6,1.01,2.43.12.35-.06.78.02,1.15.08.38.45.74.44,1.1-.02.61.71.77.65,1.42-.04.46.65.87.33,1.47.27.54.55,1.08.82,1.63.05.11.12.27.08.37-.19.56.1.9.47,1.24.3.28.65.66.45,1.06-.31.63.14.97.35,1.43.22.48.45.98.53,1.49.15,1,.29,1.97.73,2.91.27.59.38,1.31.33,1.96-.04.66.05,1.15.43,1.7.3.42.49,1.02.49,1.54,0,1.07.37,2.04.78,2.94.36.8.64,1.62.9,2.43.39,1.2,1.09,2.3,1.17,3.59.04.62.34,1.2.35,1.75,0,.65.26,1.14.47,1.68.26.66.35,1.41.07,2-.31.66-.19,1.15.02,1.74.18.51.46,1.1.35,1.57-.16.68-.26,1.27-.09,1.98.17.69,0,1.45.08,2.17.1.86.35,1.71.45,2.57.06.53-.22,1.18,0,1.59.26.48.48.93.57,1.46.15.93.32,1.86.47,2.8.25,1.54.21,2.55-.18,3.72-.1.29-.34.41-.64.39-.34-.02-.46-.24-.51-.53-.09-.47-.16-.94-.27-1.41-.19-.79-.42-1.57-.63-2.35-.89-.8-1.07-2.03-1.8-2.95-.43-.54-.78-1.06-1.46-1.36-.81-.35-1.56-.84-2.3-1.33-.91-.6-1.77-1.2-2.92-1.33-.45-.05-1.09-.14-1.42-.7-.04-.08-.46.06-.7.1-.02-.05-.04-.11-.08-.16-.02-.03-.06-.03-.1-.05.08.05.15.1.23.14.72,2.01.6,4.28,1.95,6.1.11.15.04.41.11.6.31.75.48,1.65,1.01,2.19.6.61.82,1.38,1.29,2,.5.66.87,1.37,1.25,2.1.44.85,1.06,1.57,1.9,2.05.88.5,1.8.92,2.68,1.45.86.52,1.86.84,2.82,1.18.65.23,1.44.35,1.98-.09.65-.53,1.79-.51,1.94-1.63.01-.1.18-.23.29-.25.55-.07.9-.45,1.06-.87.27-.7.95-1.09,1.2-1.78.27-.76.94-1.13,1.53-1.59.15-.12.23-.33.34-.5.64-.97,1.18-2,1.78-2.98.59-.96,1.39-1.81,1.73-2.94.21-.7.82-1.29,1-2,.21-.82,1-1.26,1.09-2.16.07-.71.44-1.39.71-2.08.26-.67.87-1.25.47-2.08-.06-.13.1-.38.19-.56.55-1.17.72-2.46,1.09-3.69.37-1.23.68-2.48,1.05-3.71.13-.45.35-.87.56-1.29.04-.08.25-.14.35-.1.1.03.25.2.24.29-.17,1.07-.32,2.14-.57,3.2-.3,1.26-.82,2.47-.99,3.74-.15,1.08-.51,2.11-.66,3.19-.12.84-.64,1.61-.74,2.49-.58.16-.52.73-.61,1.11-.35,1.48-1,2.79-1.72,4.12-.5.93-1.23,1.76-1.48,2.81-.15.6-.67.81-1.03,1.19l.05-.05Zm-93.8-4.06c.24-.13.47-.29.72-.39.38-.14.8-.2,1.16-.37.45-.21.89-.23,1.37-.26.32-.02.61-.57.94-.6.8-.08,1.41-.55,2.04-.91,1.51-.87,3.17-1.17,4.83-1.53.31-.07.74.09.96-.06.56-.39,1.17-.39,1.77-.39.84,0,1.64-.14,2.4-.45,1.07-.43,2.11-.94,3.18-1.39,1.27-.53,2.38-1.31,3.55-2.02,1.6-.96,3.04-2.05,3.95-3.73.16-.3.45-.53.59-.83.67-1.44,2.01-1.97,3.32-2.55.24-.11.53-.17.79-.17,1.37,0,2.73-.02,4.1.03,1.09.04,2.17.11,3.25.24,1.08.13,2.14.43,3.25.22.18-.04.4.07.59.15.93.4,2.02.28,2.92.87.3.2.82.2,1.2.1.56-.15,1.09-.15,1.56.14,1.26.77,2.74.8,4.08,1.29.6.22,1.34-.07,1.89.45.06.05.24-.03.37-.06.42-.09.73.02,1.13.25.61.36,1.33.53,2.02.75.32.1.67.19,1,.19.57,0,1.04.2,1.53.48,1,.59,2.05,1.04,3.23,1.23.78.13,1.6.46,2.24.93.54.39,1.04.67,1.66.61.75-.08,1.38.19,1.9.62.45.38.92.52,1.47.62.59.1,1.16.31,1.74.45,1,.24,1.99.5,2.99.68.6.11,1.24.02,1.84.15.65.14,1.26.44,1.83.65.5-.27.63-.64.58-1.07-.04-.33-.2-.66-.18-.99.04-.95.02-1.89-.25-2.82-.09-.32-.08-.69-.02-1.02.13-.68.14-1.33-.09-1.99-.11-.31-.1-.68-.07-1.01.07-.68.09-1.33-.23-1.99-.15-.31.19-.92.01-1.15-.63-.81-.44-1.84-.89-2.69-.22-.41-.35-.91-.35-1.37,0-.35.04-.62-.21-.91-.47-.52-.84-1.09-.55-1.86.03-.08-.05-.28-.13-.32-.6-.27-.64-.89-.77-1.38-.36-1.36-.39-2.82-1.23-4.04-.26-1.68-.86-3.27-1.25-4.91-.29-1.23-.32-2.53-1.09-3.62.05-1.29-.56-2.34-1.19-3.39-.07-.11-.16-.27-.13-.38.19-.64-.2-1-.56-1.43-.21-.24-.28-.61-.38-.93-.18-.58-.33-1.17-.51-1.75-.24-.78-.51-1.55-.73-2.33-.37-1.34-.3-2.82-1.24-3.99-.07-.09-.08-.27-.07-.4.02-.8-.8-1.43-.47-2.31.01-.03-.28-.17-.42-.27-.2-.15-.47-.27-.58-.47-.28-.53-.42-1.14-.75-1.64-.61-.94-1.42-1.65-2.62-1.77-2.32-.23-4.53-.96-6.81-1.38-.53-.1-1.06-.33-1.58-.33-.63,0-.92-.97-1.63-.51-.55.35-1.06-.12-1.6-.02-.25.05-.59.06-.78-.07-.71-.49-1.55-.35-2.32-.56-.71-.19-1.45-.33-2.19-.42-.8-.1-1.62,0-2.42-.2-.69-.18-1.44.27-2.14-.09-1.37.65-2.82-.4-4.2.21-1.14-.69-2.42.02-3.6-.37-.43-.14-1,.06-1.4-.14-.59-.29-1.02.19-1.57.1-.99-.16-2-.18-3.01-.22-.45-.02-.93.16-1.36.06-.72-.16-1.42-.53-2.17-.35-.86.21-1.52-.46-2.38-.41-1,.06-2.02-.21-3.03-.38-.93-.16-1.8-.65-2.78-.5-1,.16-1.77-.73-2.76-.59-1.09-.75-2.34-.39-3.52-.55-1.54-.2-3.09-.4-4.63-.6-.67-.09-1.36-.13-2.02-.27-1.22-.26-4.72-.5-5.88-.38-1.22.12-2.44.3-3.67.3-.67,0-1.32-.11-2.02.03-.63.13-1.3-.14-1.87.44-.34.35-.9-.36-1.32.07-.36.36-.83.45-1.28.61-.46.16-.88.3-1.38.3-.46,0-.92.16-1.38.29-.72.2-1.42.54-2.15.61-.66.06-1.18.44-1.82.56-.66.12-1.5-.41-1.99.43-.33-.05-.75-.25-.97-.12-1.1.63-2.36.66-3.53,1.03-.51.16-1.04.36-1.57.39-.68.03-1.29.63-2.01.25-.08.17-.16.34-.3.65-1.53-.22-3,.71-4.67.6-.7-.05-1.43.37-2.16.53-.74.15-1.46.01-2.21-.14-.68-.14-1.26.81-2.09.53-1.52.32-3,.74-4.24,1.76-1.36,1.12-2.77,2.14-4.43,2.85-1.12.48-2.22,1.02-3.35,1.49-1.36.57-2.59,1.45-4.13,1.58-.39.03-.77.28-1.13.47-1.03.54-2.02,1.17-3.25,1.12-.12,0-.3.06-.37.15-.59.8-1.62.66-2.38,1.1-.77.44-1.61.71-2.49.87-.39.07-.86.22-1.1.49-.64.71-1.5.89-2.32,1.19-1.99.71-3.9,1.55-5.68,2.71-.51.34-.95.63-1.25,1.16-.71,1.31-1.43,2.61-2.68,3.52-.1.08-.2.21-.23.33-.23,1.11-1.24,1.76-1.64,2.77-.23.59-.86.63-1.29.94-.52.36-.37,1.16-1.04,1.46-.74.34-1.55.67-2.1,1.22-.57.56-1.59.59-1.79,1.54-.91.08-1.29.93-1.97,1.33-1.02.61-1.76,1.47-2.44,2.32.11.49.14.92.31,1.28.16.36.4.77.72.95,1.56.88,3.15,1.68,5.05,1.35.33-.06.68-.05,1.03-.04.81.03,1.65.32,2.41-.08.84-.45,1.73,0,2.59-.31.69-.25,1.47-.36,2.2-.33.82.03,1.33-.66,2.11-.67.93-.01,1.73-.75,2.71-.51,1.33-.37,2.4-1.26,3.64-1.79.45-.19.51-.61.8-.85,1.09-.9,2.38-1.56,3.28-2.69.08-.1.22-.18.34-.22,1.16-.37,2.31-.87,3.5-1.06.88-.14,1.72-.38,2.58-.55.82-.16,1.59-.66,2.47-.44.3-.31.86.03,1.06-.32.32-.56.82-.38,1.26-.43.41-.05.82-.05,1.23-.1.13-.01.27-.07.38-.14,1.46-.87,3.18-1.13,4.65-1.99.94-.55,2.02-.63,3.12-.19.88.35,1.79.64,2.72.84,1.19.26,2.29.74,3.39,1.19.46.19.83.42,1.32.22.63-.25,1.19-.14,1.72.28.2.16.48.3.72.31,1.12.03,2,.78,3.06.96.37.67,1.06.59,1.65.63.62.05,1.11.29,1.6.61.62-.28,1,.15,1.46.45,1.27.81,2.58,1.51,4.13,1.67.39.04.78.2,1.16.34,1.41.52,2.84.99,4.34,1.09,1.49.1,2.98.23,4.48.04.54-.07,1.09-.03,1.64-.03,1.84,0,3.68.04,5.52.01.88-.01,1.79,0,2.62-.23,1.75-.49,3.65-.21,5.33-1.05,1.41-.04,2.6-.73,3.82-1.32,1.27-.61,2.52-1.25,3.79-1.88.32.87.35.9-.12,1.28-.76.61-1.53,1.24-1.83,2.17-.31.96-1.08,1.35-1.81,1.82-.28.18-.64.23-.93.4-1.45.85-2.96,1.26-4.65.94-.66-.12-1.42-.23-2.04-.04-1.39.42-2.72.11-4.05-.09-1.14-.17-2.28-.3-3.43-.31-1.28-.02-2.56-.14-3.84-.12-1.82.02-3.69.17-5.41-.7-.17-.09-.4-.08-.6-.09-1.29-.06-2.53-.53-3.84-.42-.32.03-.66-.14-.97-.27-1-.42-2.01-.81-2.97-1.31-1.06-.54-2.24-.54-3.35-.87-.36-.11-.81.03-1.21.12-.43.1-.68.78-.45,1.18.1.17.37.27.41.44.1.43.18.89.13,1.33-.02.17-.4.3-.61.45-.37-.37-.71-.67-1.01-1.02-.35-.41-.81-.81-.96-1.29-.19-.59-.58-.86-.99-1.21-.4-.34-.51-.91-1.03-1.22-1.2-.72-2.13-1.93-3.73-1.86-.11,0-.21-.18-.33-.23-.37-.16-.79-.24-1.11-.46-.67-.46-1.55-.13-2.13-.52-.86-.56-1.81-.51-2.71-.78-1.06-.32-1.84,0-2.65.57-.27.19-.57.36-.88.5-1.29.56-2.54,1.12-3.75,1.87-1.4.87-2.42,1.82-3.03,3.4-.62,1.6-1.72,2.89-3.36,3.7-.99.49-2.04.74-3.03,1.19-1.14.51-2.3.84-3.55.83-.25,0-.55.04-.63.38,0,.07-.01.16.02.2.47.59,1.04,1.11,1.39,1.76.35.64.97,1.21.86,2.03-.11.8.31,1.43.52,2.13.07.24,0,.53-.05.79-.07.4-.22.78-.27,1.18-.08.61-.02,1.25-.17,1.83-.14.57-.47,1.1-.71,1.64.91.55,1.33.61,1.61.08.79-1.48,2.29-2.31,3.22-3.66.22-.33.54-.7.89-.81.64-.19,1.02-.68,1.47-1.08,1.48-1.3,2.87-2.7,4.55-3.73.66-.41,1.22-.95,1.38-1.68.21-.98.82-1.7,1.28-2.53.33-.6.69-1.79.64-2.46-.02-.27-.12-.54-.1-.81.03-.5.18-.95.9-1.02.33.43.85.77.98,1.43.05.26.21.5.35.74.12.2.05.56.49.55.36-.26.74-.55,1.14-.81.39-.24.62-.59.9-.94.67-.83,1.89-.63,2.74-1.2.72.23,1.45-.06,2.16.05.2.03.41.08.58.18.82.47,1.71.89,1.57,2.08-.33-.1-.7-.12-.97-.3-1.02-.67-2.13-.19-3.18-.28-.49-.04-1,.34-1.51.5-.71.22-1.21.75-1.78,1.17-.54.4-1.02.88-1.58,1.38-.07.25-.16.58-.24.91-.73-.22-.57.6-.93.81-.35.21-.66.49-1.03.66-.33.15-.54.35-.74.65-.71,1.02-1.54,1.91-2.76,2.33-.18.06-.32.23-.47.36-.94.78-1.98,1.46-2.77,2.37-.46.54-1.24.42-1.51.92-.4.73-1.08,1-1.69,1.41-.21.14-.42.39-.5.63-.13.4-.29.67-.65.96-.57.45-1.01,1.08-1.45,1.68-.87,1.19-.95,2.82-.27,4.19.06.11.01.29.08.39.93,1.47,1.68,3.01,3.25,4.04,2.23,1.46,2.17,1.57,4.87,1.58.34,0,.68-.05,1.02-.07,0,.68.02,1.36-.03,2.04-.11,1.27-.08,2.46,1.03,3.35.14.11.13.39.24.56.5.73,1.03,1.41,1.92,1.73.37.13.68.43,1,.67.8.6,1.62,1.04,2.7.96.42-.03.93-.35,1.35.05,1.56.09,3.11.21,4.66-.12.39-.08.81-.11,1.21-.08.61.04,1.19.01,1.79-.15.56-.15,1.14-.26,1.75-.09.21.06.52-.09.74-.22.4-.24.75-.57,1.15-.81.83-.49,1.89-.04,2.72-.63.08-.05.25.05.38.04.53-.03,1.05-.11,1.58-.1.45,0,.69-.56,1.27-.33.48.18,1.08.08,1.62.06.26-.01.52-.18.78-.22.4-.07.8-.11,1.21-.12.68-.02,1.38-.09,2.04.02.78.13,1.19-.59,1.88-.65.41-.04.64.1.87.37.4-.24.82-.44,1.18-.72.38-.3.92.29,1.27-.33.26-.47.89-.17,1.34-.28.26-.07.61,0,.78-.14.79-.72,1.74-1.04,2.77-1.2,2.05-1.26,4.56-1.24,6.66-2.37.29-.16.66-.28.98-.26,1.44.08,2.73-.73,4.17-.66.15,0,.32-.22.48-.34l-.05.05Zm-73.2-8.45c1.09-.09,1.97-.2,2.85-.23.69-.02,1.34-.04,1.99-.35.55-.26,1.17-.34,1.76-.52.11-.03.25-.17.26-.27.04-.27-.18-.21-.36-.26-.3-.09-.47-.53-.28-.8.66-.96.66-2.05.75-3.14.03-.34-.02-.72.12-1,.3-.62.16-1.16-.02-1.77-.19-.63,0-1.35-.44-1.95-.67-.93-1.27-1.92-1.98-2.82-.28-.35-.72-.62-1.15-.8-1.21-.53-3.67.01-4.5,1.09-.39.51-.78.9-1.35,1.17-.36.17-.76.41-.97.73-.53.81-1.34,1.31-2.05,1.9-.42.35-.7.78-1.11,1.11-.38.3-.32.7-.4,1.1-.12.58.59.56.6.81.01.58.84.75.59,1.39.36.48.73.95,1.07,1.43.96,1.34,2.07,2.43,3.82,2.64.3.04.56.36.8.53Zm-49.55-20.13c-.28-1.07-.42-2.11.21-3.14.22-.36-.18-.82-.63-.76-.27.03-.57.03-.79.16-.88.5-1.76,1.01-2.58,1.6-.91.65-1.13.8-2.33,1.06-.2.04-.45.04-.58.16-.87.82-2.01,1.09-3.06,1.55-.36.15-.67.45-.95.74-.32.32-.23,1.02.14,1.26.45.29.92.56,1.44.87.29-.04.66-.02.95-.16,1.51-.68,3-.58,4.61.07.45-.34.93-.69,1.39-1.08.26-.22.43-.59.71-.71.75-.32,1.12-.93,1.45-1.61Zm69.18-32.29c1.85-.26,3.26-1.34,4.97-1.49.42-.04.79-.41.89-.97.27-1.55-.23-2.82-1.3-3.89-.16-.16-.57-.28-.73-.19-.89.47-1.7,1.12-2.8.98-.1-.01-.22.14-.33.22-.56.37-1.11.75-1.7,1.14-.09,1.46,1.02,2.63,1.02,4.21Zm-3.62-2.04c-1.18.21-2.06.51-2.9.98-.64.35-1.37.55-2.06.81-.12.05-.29.03-.37.11-1.01.95-2.27,1.44-3.53,1.94-.49.2-.63.69-.83,1.12-.09.2.17.62.38.62.66-.01,1.32-.02,1.98-.08.25-.02.54-.1.74-.25.74-.55,1.61-.74,2.47-.67.81.07,1.49-.26,2.13-.52,1.13-.46,2.2-1.03,3.4-1.35.79-.21.93-1.07.28-1.6-.52-.42-1.12-.75-1.69-1.12Zm-13.62,38.54c.13-.05.25-.09.37-.13-.05-.05-.1-.14-.14-.13-.12.02-.23.08-.35.12.04.05.08.1.12.14Zm121.21-37.63l-.08.13.12.02-.04-.15Z"/>
      <path class="cls-1" d="m111.7,81.85c.14-.12.29-.35.43-.35.99,0,1.78-.68,2.73-.74.57-.04.58-.83,1.28-.8.57.03,1.27-.15,1.69-.5.48-.41,1.07-.12,1.47-.45.79-.64,1.77-.94,2.58-1.5.7-.48,1.49-.61,2.17-.98,1.3.66,1.71,1.81,2.06,3,.06.19.07.41.06.61-.17,2.32.32,4.61.32,6.91,0,1.73.53,3.34.99,4.86.59.35,1.01.26,1.47.02,1.13-.59,2.23-1.27,3.32-1.46.61-.46.26-1.32,1.07-1.35-.08-.2-.11-.33-.19-.43-.4-.52-1.02-.97-.61-1.78.02-.05-.03-.13-.05-.2-.13-.51-.6-.86-.51-1.51.06-.45-.21-.97-.38-1.44-.24-.64-.53-1.26-.25-1.96.02-.06.06-.17.03-.19-.99-.77-.49-1.9-.65-2.85-.17-1-.08-2.04-.08-3.06,0-.83.36-1.36,1.17-1.72.74-.34,1.41-.73,2.27-.81,1.01-.1,1.95-.6,2.74-1.23.39-.3.76-.11,1.07-.28.41-.23.77-.56,1.15-.84.32-.24.61-.56.97-.7.48-.19.93-.54,1.54-.27.24.1.71-.03.93-.22.78-.67,1.59-1.14,2.67-1.12.39,0,.8-.18,1.16-.35.28-.14.51-.41.73-.59.96.3.86.94.64,1.71-.73.46-1.43,1.11-2.47,1.02-.19-.02-.48.02-.58.15-.59.75-1.43.59-2.21.76-.99.21-1.96.6-2.78,1.23-.5.38-1.02.69-1.65.75-.44.05-.63.33-.91.63-.51.55-1.34.83-2.02.8-1.09-.06-1.98.33-2.98.76-.33,1.17-.27,2.31.24,3.51.26.62-.04,1.44.41,2.08-.15,1.03.5,1.94.46,2.97-.02.57.2,1.18.45,1.71.18.4.28.71.12,1.15-.15.39.65.52.38,1.02.56.69.57,1.5.54,2.43-.15.12-.42.25-.55.46-.59.99-1.41,1.64-2.55,1.88-.49.1-.7.95-1.39.54-.49.2-.98.41-1.48.58-.89.3-1.43.06-2.12-.71-.75-.83-.92-1.9-1.21-2.88-.5-1.76-.77-3.58-.92-5.41-.17-1.98-.78-3.85-1.94-5.53-.64.13-1.03.79-1.71.57-.05-.02-.15,0-.19.04-1.08,1.2-2.68,1.24-4.04,1.83-1.06.46-2.15.82-3.12,1.49-.53.37-1.27.66-1.89.62-.64-.04-1.16.17-1.38.56-.37.63-1.04.62-1.5,1.01-.46-.08-.71-.38-.69-.84.02-.42.12-.84.61-.96.35-.09.56-.32.81-.55.66-.6,1.4-1.09,2.34-1.14.03.05.04.11.08.15.02.03.06.04.09.05-.08-.05-.15-.1-.23-.15Z"/>
      <path class="cls-1" d="m150.45,46.89c.33.34.63.62.89.93.71.87,1.15,1.86,1.06,3-.08,1.07-.21,2.14-.33,3.21-.05.43-.27.74-.6,1.02-.35.3-.58.78-.97.99-.59.32-1.25.6-1.91.68-1.03.13-1.81.95-2.88.93-.06,0-.15.03-.19.08-1.03,1.37-2.84,1.11-4.13,1.96-.41.27-1.01.22-1.5.1-.05-.11-.11-.18-.1-.23.15-.52.31-1.03.47-1.56.74-.12,1.46-.22,2.17-.35.7-.13,1.21-.93,2.06-.62.06.02.2-.16.31-.25.95-.79,2.06-1.26,3.24-1.57.33-.09.7-.14.96-.34.52-.4,1.36-.65,1.34-1.42-.02-.97-.37-1.9-1.31-2.39-.72-.38-1.5-.64-2.16-.91-1.11.37-2.08.67-3.04,1.01-.75.27-1.65.24-2.15,1.05-.1.15-.33.25-.52.31-.51.15-1.04.23-1.54.41-.57.21-1.11.75-1.64.72-.64-.03-.91.52-1.48.55-.52.03-1.02.35-1.53.53-.42.15-.83.29-1.25.42-1.55.49-2.95,1.33-4.47,1.87-.53.18-.93-.01-1.1-.69.82-.62,1.5-1.5,2.69-1.6.18-.01.35-.2.53-.29,2.3-1.19,4.8-1.92,7.16-2.98.31-.14.66-.21.94-.39,1.65-1.1,3.53-1.72,5.29-2.59.37-.18.74-.35,1.09-.55q2.05-1.14,4.59-1.03Z"/>
      <path class="cls-1" d="m99.03,69.48c.1.65.11,1.33.32,1.94.16.48.57.87.89,1.34,1.12-.26,2.24-.52,3.36-.78.13-.03.32,0,.39-.09,1.1-1.24,2.71-1.17,4.11-1.52,1.2-.3,2.33-.66,3.32-1.35.58-.41,1.19-.7,1.85-.83,1.14-.21,2.09-.8,3.13-1.23,1.11-.45,2.2-1.03,3.42-1.18.5-.06.95-.19,1.29-.55.39-.42.99-.37,1.38-.64.49-.34,1.01-.36,1.52-.51,1.08-.33,2.17-.54,3.17-1.18.75-.48,1.67-.92,2.7-.5.39.16.43-.27.63-.51.26-.32.82-.47,1.28-.54.75-.12,1.48-.21,2.03-.83.11-.12.38-.1.58-.11.48-.03.83.32.7.75-.11.38-.3.75-.45,1.12-.39.09-.73.14-1.04.24-.45.15-.93.28-1.32.53-.64.43-1.28.71-2.08.66-.68-.04-1.2.53-1.93.57-.63.04-1.23.37-1.8.81-.54.41-1.38.45-2.1.6-.82.16-1.57.39-2.19,1-.27.26-.71.39-1.1.49-.31.08-.69-.06-.98.05-1.27.5-2.54,1.01-3.76,1.6-.92.44-1.82.88-2.82,1.1-.2.04-.43.08-.57.21-1.04.97-2.44,1.08-3.69,1.52-.74.26-1.54.26-2.3.6-.65.3-1.34.66-2.13.61-.39-.02-.14.49-.39.58-.96.34-1.91.7-2.89.97-.82.22-1.67.28-2.55.32-.58-.96-1.25-1.82-1.02-3.04.06-.29-.14-.66-.29-.96-.84-1.68-.88-2.06.29-3.25.83-.84,1.79-1.68,3.24-1.19.03.15.17.41.1.51-.71.95-1.17,2.13-2.33,2.7-.02-.05-.03-.11-.06-.16-.02-.03-.07-.04-.1-.06.07.05.15.11.22.16Z"/>
      <path class="cls-1" d="m114.17,73.63c.77-.84,1.75-1.21,2.85-1.42.93-.17,1.89-.31,2.7-.87.31-.21.62-.17.97-.1.24.05.62.07.75-.07.82-.9,2.01-.78,3.03-1.12.58-.2,1.2-.18,1.57-.81.12-.2.46-.28.71-.39.67-.29,1.53-.07,2.05-.77.72-.15,1.44-.29,2.15-.44.63.72.68,1.15.08,1.45-.6.3-1.3.43-1.88.76-.47.27-1.1,0-1.45.54-.31.48-.94.18-1.29.5-.46.41-.86.78-1.56.84-.57.05-1.12.39-1.66.64-.43.2-.82.45-1.32.17-.14-.08-.39,0-.58.07-.84.28-1.67.58-2.49.89-.75.27-1.44.78-2.3.68-.38.62-1.12.62-1.67.96-.75-.32-1.22.2-1.76.56-.39.26-.86.42-1.31.56-1.35.44-2.77.72-3.77,1.86-1.19.29-2.18,1.18-3.46,1.19-.07,0-.14.01-.2.03-2.61.49-3.03.88-3.57,3.45-.05.24-.02.55.08.78.31.67.35,1.42.81,2.07.33.47.37,1.15.55,1.8-.66.41-1.29.3-1.87-.12-.52-.38-.41-.96-.31-1.52-.26-.35-.86-.34-.92-.96-.13-1.28-.21-2.57-.59-3.81-.07-.22,0-.53.09-.76.41-.93,1.05-1.55,2.14-1.66.88-.09,1.74-.29,2.51-.78.62-.4,1.4-.31,2.09-.67.55-.29,1.29-.22,1.72-.86.12-.17.48-.2.74-.24,1.02-.16,1.96-.51,2.84-1.08,1.1-.71,2.39-.97,3.61-1.4.02.05.03.11.06.15.02.03.06.03.1.05l-.21-.15Z"/>
      <path class="cls-1" d="m150.9,59c.38.02.78.58,1.49.28.49-.21.9.3.99.91.03.2.02.41.08.6.33,1.11.62,2.21.38,3.4-.04.18.27.42.42.65q-.69,1.61-2.31,2.42c-.1.05-.21.13-.27.23-.07.11-.08.26-.14.47-.75.11-1.53.09-2.3-.09-.17-.04-.43-.25-.42-.36.02-.23.14-.55.32-.65.76-.46,1.58-.78,2.49-.82.19,0,.39-.06.57-.12.4-.13.69-.63.52-.96-.41-.78-.74-1.64-1.32-2.27-.62-.68-1.42-1.26-2.53-.87-.5.18-1.08.25-1.62.24-1.24-.04-2.18.59-3.08,1.31-.64.51-1.29.97-2.15.98-.19,0-.39.1-.57.18-1.18.53-2.35,1.08-3.54,1.62-.33-.19-.62-.36-1.03-.6.36-.33.61-.75.94-.82,1.27-.29,2.18-1.32,3.47-1.61.61-.14,1.1-.77,1.69-1.1,1.84-1.04,3.87-1.64,5.87-2.29.63-.21,1.26-.43,2.05-.71Z"/>
      <path class="cls-1" d="m108.2,64.89c-.1-.48-.17-.81-.23-1.1.38-.52.94-.67,1.42-.8.93-.24,1.84-.44,2.58-1.11.14-.12.37-.14.57-.18,1.89-.33,3.57-1.24,5.36-1.85.82-.28,1.53-.8,2.46-.89.76-.08,1.48-.56,2.24-.82.14-.05.37.07.52.18.07.05.1.27.06.36-.27.54-.45,1.15-1.16,1.31-.59.14-1.16.35-1.74.5-.91.23-1.66.93-2.64.95-.37.78-1.08.55-1.73.67-1.12.22-2.23.59-3.28,1.05-.62.27-1.18.64-1.88.67-.6.95-1.69.54-2.55,1.07Z"/>
      <path class="cls-1" d="m21.86,84.78c1-.01,1.97-.24,2.85-.75.14-.08.47-.06.53.03.13.2.24.52.16.71-.12.29-.38.53-.63.75-.38.34-1.04.1-1.36.65-.05.08-.38.06-.55,0-.62-.2-.99-.61-1-1.39Z"/>
      <path class="cls-1" d="m105,85.15c.13.06.44.18.69.38.08.07.08.4,0,.51-.39.46-1.19.26-1.49.9-.23-.11-.51-.17-.68-.34-.19-.18-.28-.48-.08-.73.35-.43.74-.8,1.56-.72Z"/>
      <path class="cls-1" d="m133.32,67.68c-.21-.19-.39-.3-.38-.36.09-.45.19-.9.37-1.32.12-.29.72-.25,1.08.04.38.3.39.74.06,1.03-.37.32-.84.35-1.13.61Z"/>
      <path class="cls-1" d="m105.2,64.66c.18-.03.42.38.36.61-.2.75-1.01,1.13-1.72.76-.1-.05-.18-.39-.12-.48.3-.45.97-.81,1.47-.89Z"/>
      <path class="cls-1" d="m125.66,56.92c.64.72.66.93.15,1.13-.36.14-.71.42-1.12.22-.16-.08-.36-.22-.4-.38-.03-.13.1-.39.23-.46.33-.19.71-.32,1.15-.51Z"/>
      <path class="cls-1" d="m136.98,59.87c.12-.06.23-.15.35-.17.26-.03.57-.08.69.23.12.31-.11.52-.35.65-.25.14-.64-.15-.71-.52-.01-.06.01-.13.02-.2Z"/>
      <path class="cls-1" d="m5.61,131.96c-.04.09-.08.17-.11.26,0-.04,0-.09.02-.11.04-.04.1-.06.15-.09,0,0-.06-.05-.06-.05Z"/>
      <path class="cls-1" d="m232.21,118.04c.05-.2.04-.47.17-.58,1.14-.94,1.73-2.37,3.02-3.2.64-.41,1.31-.89,1.72-1.66.26-.49.77-.9,1.42-1.1.49-.15,1.07-.46,1.32-.87.42-.69,1.09-1.05,1.67-1.44,1.18-.79,2.12-1.83,3.2-2.69,1.02-.81,1.92-1.63,2.57-2.75.13-.22.38-.45.61-.5.8-.18,1.03-.82,1.28-1.44.2-.5.32-1.03.54-1.51.16-.34.17-.63,0-.96-.09-.18-.14-.38-.19-.58-.17-.68.74-1.43-.14-2.06-.16-.8-.58-1.49-.9-2.21-.3-.68-.64-1.32-1.12-1.89-.2-.24-.25-.61-.37-.92.21,0,.41-.01.62-.02,1.11-.03,1.83.57,2.18,1.53.16.44.34.86.55,1.28.91,1.87.97,2.35.72,4.61,2.1.1,4.21.24,6.06,1.5.16.34.3.72.51,1.07.17.3.33.56.26.94-.03.14.17.36.31.5.78.74.93,1.61.58,2.61-.11.31-.08.66-.1.99-.01.19.07.41,0,.58-.72,1.74-1.41,3.5-2.58,5.02-.46.59-.8,1.26-1.21,1.89-.18.28-.32.69-.58.8-.81.34-.83,1.18-1.39,1.72.72.8,1.03,1.66,1.23,2.62.19.91.59,1.79,1.02,2.64.33.64.18,1.3-.63,1.76-.27-.45-.64-.83-.73-1.26-.17-.89-.75-1.45-1.34-2.01-1.09-1.04-2.31-1.33-3.76-.37.22.22.38.43.58.57.5.35.75.82.69,1.4-.08.79.24,1.63-.3,2.48-.34-.26-.67-.48-.97-.74-.67-.56-.8-.52-1.5.23-.44.48-.86,1.02-1.7.85-.25-.05-.57.31-.88.44-.07.03-.26-.09-.32-.19-.06-.09-.07-.32,0-.36.8-.54,1.07-1.54,1.84-2.1.54-.39.92-1.02.85-1.57-.18-1.33.83-1.97,1.43-2.82.29-.41.92-.57,1.33-.91.35-.29.31-.92.88-1.05.06-.01.12-.07.16-.12.46-.64,1.28-.8,1.79-1.32.51-.52.68-1.39,1.21-1.87.93-.86,1.5-1.93,2.16-2.96.91-1.42,1.13-3.05,1.41-4.66.06-.37-.1-.8-.24-1.17-.35-.95-.75-1.89-1.15-2.88-.66-.18-1.3-.35-1.91-.52-1.61.79-3,1.7-4.01,3.18-.53.77-1.41,1.24-2.28,1.64-.36.83-.96,1.5-1.71,1.96-.52.32-.93.74-1.41,1.09-.52.37-.92.77-1.24,1.32-.15.26-.52.46-.82.54-.51.13-.81.37-1.01.86-.08.2-.4.36-.64.43-.32.09-.67.08-1,.11,0,.57-.13.98-.66,1.16-.47.15-.89.55-1.43,1.08-.57.56-.95,1.37-1.9,1.48-.14.02-.31.26-.36.42-.11.34-.21.63-.61.72-.19.04-.46.13-.52.28-.44,1.04-1.31,1.07-2.23,1Z"/>
      <path class="cls-1" d="m263.31,119.57c-.44.12-.87.23-1.31.35-.57-.64-.83-1.38-.95-2.08-.36-2.07-.6-4.16-.87-6.24-.03-.19.03-.41.09-.59.04-.1.19-.21.29-.21.11,0,.26.09.33.19.12.16.24.35.27.54.1.53.23,1.06.21,1.59-.08,1.54.47,2.94.88,4.37.2.7.67,1.33,1.07,2.09Z"/>
      <path class="cls-1" d="m325.26,91.92c.58-.27,1.21-.25,1.8-.11,2.19.53,4.44.74,6.65,1.15.2.04.41.06.59.14.1.04.24.24.22.28-.1.15-.25.36-.38.36-.68-.02-1.36-.07-2.03-.17-1.14-.17-2.28-.41-3.42-.59-1-.16-2.01-.28-3.01-.45-.28-.05-.46-.25-.42-.59Z"/>
      <path class="cls-1" d="m312.86,92.14c.45-1.32,1.41-1.54,2.32-1.84,1.13-.37,2.29-.2,3.44-.16.14,0,.37.24.38.38.01.15-.15.41-.29.46-.37.13-.77.21-1.16.23-1.15.07-2.27.19-3.31.78-.31.18-.78.09-1.37.14Z"/>
      <path class="cls-1" d="m254.98,93.17q.25.79.08,1.64c-.3-.17-.6-.29-.82-.5-.12-.11-.15-.38-.13-.57.06-.5.4-.65.87-.57Z"/>
      <path class="cls-1" d="m255.61,97.34c-.14-.03-.3-.02-.38-.1-.14-.13-.27-.3-.32-.48-.09-.32-.1-.68.24-.86.15-.08.41-.07.57,0,.34.17.4.49.3.84-.07.25-.11.52-.42.59Z"/>
      <path class="cls-1" d="m321.58,91.02c.7-.25,1.29-.21,1.8.36-.73.79-.85.77-1.8-.36Z"/>
      <path class="cls-1" d="m264.66,121.32c-.18.11-.36.29-.47.25-.17-.05-.37-.22-.43-.38-.05-.13.08-.35.18-.49.03-.04.27,0,.34.07.14.13.23.32.38.55Z"/>
      <path class="cls-1" d="m285.73,117.99c-.08-.05-.16-.1-.24-.14.04,0,.1,0,.12.03.04.05.05.11.07.17l.05-.05Z"/>
      <path class="cls-1" d="m387.54,97.74c-.87-1.25-.55-2.58-.57-3.85,0-.06.02-.14.05-.19.9-1.24,1.43-2.71,2.31-3.95.58-.83,1.44-1.46,2.55-1.55.13-.01.27-.04.4-.07,1.22.4,2.07,1.32,2.87,2.24.38.43.54,1.09.69,1.67.25.99.31,2.03.65,2.98.26.7-.07,1.19-.21,1.76-.02.08-.22.17-.33.16-.12,0-.27-.08-.34-.18-.11-.16-.2-.35-.25-.54-.47-1.92-1.95-2.85-3.58-3.6-.37-.17-.78-.24-1.19-.36-.67.12-1.4.33-1.69.98-.42.91-.99,1.8-.9,2.88.03.34.09.69.02,1.01-.05.22-.3.4-.48.63Z"/>
      <path class="cls-1" d="m396.13,104.69c.49,1.46.12,2.85-.35,4.07-.47,1.22-1.31,2.36-2.45,3.16-.4.28-.71.6-.99,1-.31.44-.76.77-1.14,1.16-.77-.14-.49.66-.82.93-.79.65-1.53,1.37-2.52,1.71-.1.03-.24-.05-.37-.08-.02-.12-.1-.29-.05-.35.74-.88,1.47-1.77,2.25-2.61.78-.85,1.62-1.65,2.44-2.46.19-.19.38-.41.62-.51.92-.39.93-1.59,1.82-1.99.11-1.07,1.01-1.95.77-3.12-.1-.48.21-.76.82-.88Z"/>
      <path class="cls-1" d="m362.7,55.29c1.13-.33,2.02-.04,3.01.42-.14.29-.27.56-.41.85-.74-.1-1.4-.18-2.06-.27-.54-.08-.61-.46-.54-1Z"/>
      <path class="cls-1" d="m364.79,57.35c.61.16,1.26.32,1.9.49,0,.27.07.52-.02.65-.09.14-.34.25-.52.25-.4,0-.8-.05-1.2-.11-.56-.08-.63-.51-.15-1.28Z"/>
      <path class="cls-1" d="m366.38,60.61c.53-.58,1.09-.63,1.69-.43.1.03.2.19.21.3.02.1-.05.3-.13.32-.37.12-.76.25-1.15.25-.2,0-.39-.26-.63-.43Z"/>
      <path class="cls-1" d="m385.34,117.75c.08.12.3.31.26.43-.09.33-.35.57-.72.56-.1,0-.27-.12-.3-.21-.09-.36.33-.81.76-.78Z"/>
      <path class="cls-1" d="m368.48,63.61c-.02-.36-.09-.61-.03-.83.02-.09.32-.1.5-.14.04.17.16.38.1.5-.07.16-.29.25-.57.46Z"/>
      <path class="cls-1" d="m396.16,100.49c-.07-.1-.19-.2-.19-.3-.02-.38.27-.71.55-.66.06,0,.11.07.15.13.2.28.1.53-.31.77-.06.03-.12.04-.19.06Z"/>
      <path class="cls-1" d="m370.31,65.6c.1.17.27.33.25.47-.01.11-.26.19-.41.28-.05-.18-.12-.35-.12-.53,0-.06.16-.12.28-.21Z"/>
      <path class="cls-1" d="m379.42,122.15c.07.05.14.1.21.15-.04-.01-.1-.01-.11-.04-.03-.04-.03-.11-.04-.16l-.05.05Z"/>
      <path class="cls-1" d="m102.71,119.28l.15-.19s-.02.09-.05.11c-.04.02-.1.02-.16.04l.05.05Z"/>
    </g>
  </g>
</svg>