<?xml version="1.0" encoding="UTF-8"?>
<svg id="_レイヤー_2" data-name="レイヤー 2" xmlns="http://www.w3.org/2000/svg" viewBox="0 0 354.78 213.53">
  <defs>
    <style>
      .cls-1 {
        fill: #ddd4c6;
      }
    </style>
  </defs>
  <g id="_レイアウト" data-name="レイアウト">
    <g>
      <path class="cls-1" d="m222.53,210.45c-.82-.44-1.67-.63-2.53-.36-.82-.58-1.46-1.28-2.27-1.79-.9-.56-1.46-1.53-2.2-2.28-.26-.27.04-.62-.3-.8-.22-.11-.44-.24-.63-.4-.49-.42-1.01-.81-1.42-1.29-.57-.68-1.06-1.42-1.55-2.16-.1-.15.2-.47-.2-.57-.55-.13-.86-.5-1-1.06-.06-.23-.22-.52-.42-.61-.48-.23-.55-.86-1.12-1.01-.42-.11-.19-.79-.68-.97-.24-.09-.36-.35-.32-.65.03-.18.15-.38-.07-.52-.79-.5-1.29-1.3-1.67-2.08-.36-.75-1.08-1.22-1.32-2.07-.21-.7-.98-1.12-1.23-1.9-.12-.37-.65-.59-.95-.92-.33-.37-.75,0-1.08-.17-.45-.24-.97-.24-1.41-.56-.81-.6-1.91-.72-2.58-1.59-.13-.18-.58-.12-.89-.15-.11-.01-.3.09-.32.05-.4-.62-1.02-.68-1.67-.8-.33-.06-.61-.65-.9-.64-.87.03-1.51-.7-2.41-.56-.4.06-.93-.13-1.26-.38-1.09-.85-2.6-.71-3.65-1.62-.95.07-1.68-.55-2.53-.81-.24-.07-.49-.15-.73-.21-.69-.14-1.44-.15-2.06-.44-.56-.26-1.32.07-1.72-.6-.36.2-.72.04-1.09.04-.42,0-.74-.07-.98-.42-.42.27-.62,0-.88-.29-.26-.29-.64-.44-1.06-.33-.67.18-1.11-.08-1.42-.67-.12-.22-.32-.41-.52-.56-.14-.11-.33-.2-.51-.21-.65-.02-1.27-.06-1.67-.68-.05-.08-.23-.13-.35-.12-.39.04-.78.11-.95-.38-.37-.06-.75-.1-1.12-.19-.41-.1-.46-.39-.25-.74-.82-.25-1.61-.47-2.37-.82-.81-.37-1.54-.87-2.35-1.19-.82-.31-1.42-.84-2.01-1.43-.6-.09-1.3.18-1.77-.48-.09-.12-.36-.11-.55-.16-.19-.04-.38-.12-.57-.1-.68.07-1-.45-1.47-.78-.4-.28-.98.24-1.44-.27-.23-.25-.8-.03-1.08-.41-1.01-.16-2.03-.28-3.02-.49-1-.21-2.03-.08-3.03-.31-1.46.4-2.91-.18-4.39-.03-.8.08-1.57-.01-2.37.33-.9.39-2.02.08-2.81-.5-.17-.13-.34-.27-.52-.41-.06.18-.1.3-.14.43-.1,0-.24.04-.31-.01-.35-.27-.71-.54-1.03-.85-.4-.4-.65-.98-1.41-.8-.19.04-.53-.17-.65-.36-.32-.53-.94-.72-1.27-1.15-.83-1.1-2.25-1.49-3.06-2.6-.04-.05-.1-.11-.15-.12-.73-.11-1.16-.73-1.77-1.03-.34-.17-.68-.38-1.04-.49-1.11-.35-2.13-.86-3.14-1.44-1.05-.6-2.19-1.04-3.32-1.5-.81-.33-1.45-1.03-2.4-1.08-.27-.02-.59-.29-.78-.53-.31-.39-.68-.46-1.15-.51-.55-.06-1.05-.34-1.51-.74-.56-.49-1.4-.61-1.9-1.23-.53-.04-.65-.61-1.04-.81-.73-.39-.88-1.38-1.81-1.59-.74-.17-1.19-.99-2.03-1.07-.14-.01-.25-.26-.39-.37-.52-.38-1.02-.8-1.57-1.11-.66-.38-1.33-.72-1.76-1.38-.16-.24-.41-.27-.68-.26-.12,0-.33-.02-.35-.07-.24-.85-1.14-.96-1.7-1.43-.7-.58-1.38-1.31-2.39-1.41-.18-.02-.43-.08-.52-.22-.48-.67-1.21-.89-1.89-1.22-.26-.13-.44-.38-.81-.35-.23.02-.53-.06-.72-.21-.59-.48-1.35-.67-1.94-1.17-.35-.3-.38-.25-.37-.83-.48-.29-.93-.62-1.44-.85-.45-.2-.81-.6-1.41-.53-.52.05-.98-.3-1.33-.7-.17-.19-.28-.42-.58-.45-.96-.11-.99-1.04-1.41-1.63.3-.61-.15-.76-.57-.96-.1-.05-.13-.33-.13-.51,0-.6-.33-1.03-.66-1.47-.69-.06-.87-.68-1.24-1.11-.75-.87-1.26-1.92-2.26-2.59-.53-.35-.38-1.06-.63-1.6-.49-.25-1.06-.39-1.33-1-.44-1-1.11-1.86-1.76-2.72-.8-.26-1.02-1.07-1.51-1.62-.5-.57-.97-1.19-1.54-1.69-.36-.31-.12-.73-.34-.97-.26-.28-.6-.49-.93-.69-.27-.17.22-.68-.36-.69-.43,0-.15-.35-.23-.53-.24-.59-.56-1.15-.85-1.71-.25-.46-.46-.93-.26-1.47.13-.37-.23-.56-.31-.86-.27-1.04-.36-2.14-.91-3.1.17-.42-.14-.56-.41-.73-.17-.1-.26-.24-.15-.47.12-.25.04-.46-.12-.7-.42-.63-.78-1.3-1.22-2.05-.6-.1-1.29.05-1.97-.29-.53-.27-1.25-.17-1.88-.22-.25-.02-.61.06-.73-.07-.49-.57-1.08.06-1.58-.18-.07-.03-.3.19-.31.17-.57-.7-1.28-.3-1.95-.27-.25.01-.52.02-.76-.05-.79-.24-1.66-.15-2.41-.58-.11-.06-.35.02-.48.1-.27.17-.63-.16-.86.18-1.24-.75-2.8.01-4.03-.84-.17-.12-.5-.05-.74-.01-.88.16-1.77.47-2.58-.22-.59.48-.89.04-1.23-.42-.44.06-.81.52-1.37.29-.46-.19-1-.22-1.51-.25-.52-.03-1.03,0-1.45-.39-.05-.05-.27-.02-.31.04-.26.35-.75-.1-.98.3-.34-.19-.66-.39-1.01-.56-.16-.08-.44-.18-.54-.11-.97.75-1.77.05-2.56-.18-.24-.07-.67.29-.72.23-.53-.63-1.16-.41-1.78-.25-.3.08-.49-.04-.6-.31.05-.09.34-.05.13-.26-.02.1-.04.2-.06.31-1.72-.14-3.45-.13-5.15-.51-.29-.06-.62.09-.92.07-.16,0-.31-.18-.46-.27.13-.06.41-.04.14-.29-.03.11-.06.21-.09.32-.57-.02-1.13.14-1.71-.08-.4-.15-.92-.05-1.29-.24-.54-.27-1.02.03-1.51-.03-.49-.06-.89-.62-1.43-.42-.5.18-.97-.07-1.48.06-.38.1-.85-.15-1.28-.23-.93-.16-1.85-.32-2.81-.36-.91-.03-1.89.08-2.78-.38-.25-.13-.65.2-1.04,0-.27-.14-.62-.11-.94-.16-.37-.06-.76-.23-1.11-.16-1,.19-1.89-.19-2.81-.39-.69-.15-1.33-.31-2.02.01-.11.05-.39-.05-.47-.17-.18-.27-.43-.35-.64-.18-.39.32-.7.21-1.02-.04-.43-.34-.67.1-1.02.23-.14-.27-.28-.55-.42-.82-.17.08-.33.16-.52.25-.21-.31-.48-.6-.63-.94-.13-.28-.27-.69-.16-.91.3-.58-.05-1.16.1-1.69.14-.48.48-.9.72-1.35.03-.05,0-.13,0-.19.08-.08.17-.16.25-.23-.05-.02-.09-.05-.14-.07-.02.11-.03.23-.05.34-.32.02-.57.15-.78.41-.19.24-.42.43-.64.65-.07-.12-.08-.42-.31-.11.11.02.22.05.34.07-.45.59-1.23.62-1.5.03-.15-.34-.26-.76-.19-1.1.11-.61.16-1.2.07-1.83-.05-.32.36-.68.34-1.02-.03-.63.11-1.13.61-1.52.22-.18.25-.43.19-.7-.27-1.13.36-2.08.62-3.11.41-.35.67-.75.54-1.32-.02-.1.06-.28.15-.34.62-.42.76-1.15,1.09-1.74.18-.33.9-.33.58-.98-.21-.42.37-.61.39-.99.03-.62.37-1.15.82-1.46.46-.32.36-.97.88-1.18.01,0-.1-.31-.19-.58.68-.79,1.42-1.65,2.16-2.51.07.08.13.17.2.24,0,0,.07-.04.11-.06-.12-.04-.23-.09-.35-.13.02-.06.03-.13.07-.18.36-.4,1.05-.48,1.14-1.18.01-.1.33-.16.51-.23.06.1.02.37.26.15l-.3-.08c.1-.22.16-.48.31-.67.18-.23.74.07.71-.58-.01-.3.41-.62.66-.92.24-.29.56-.54.75-.86.19-.32.27-.7.39-1.04.25.02.42.03.61.05.37-.52.86-1,1.09-1.58.25-.64.65-1.09,1.24-1.3.43-.15.62-.41.87-.74.26-.34.69-.56,1.05-.81.34-.24.7-.45,1.05-.67-.08-.16-.14-.27-.21-.4.55-.43,1.33-.33,1.89-.87.43-.42,1.18-.48,1.68-.85.49-.36.96-.61,1.55-.67.16-.02.32-.2.45-.32.41-.38.78-.63,1.15-.55.42.09.76.07,1.07-.22.35-.33.85-.52,1.23-.44.56.12.98.14,1.4-.26.09-.09.35,0,.53,0,.18,0,.46.1.53.01.7-.82,1.59-.35,2.33-.25.81.11,1.6.39,2.44.3.08,0,.19.15.28.23-.07.08-.4,0-.16.27.03-.1.06-.21.1-.31.65.19,1.26.38,2.01.26.85-.14,1.76.05,2.64.12.38.03.76.05,1.14.09.31.04.64.05.92.16.3.11.55.33.82.5.7-.44,1.42.1,2.13-.05.06-.01.09-.11.15-.12.11-.02.23-.04.33,0,.81.28,2.72.79,3.08.56.5-.32.76-.31,1.11.13.09.11.39.18.53.12.64-.25,1.11.12,1.62.38.35-.24.55-.53.45-.97-.15-.63-.33-1.24.15-1.84.13-.16.1-.5.06-.74-.11-.7-.27-1.39-.4-2,.23-.44.41-.78.58-1.12-.44-.65-.53-1.24.16-1.79.2-.16.16-.2-.34-.38-.22-.33.2-.53.21-.81.02-.32-.01-.66.1-.94.11-.28.36-.51.55-.75.06.1.01.41.28.15-.11-.03-.21-.06-.32-.09-.21-.41-.79-.8-.09-1.27.2-.76.7-1.47.35-2.32.25-1.04.42-2.11.78-3.11.15-.44.18-.84.24-1.27.04-.29.76-.34.28-.88-.13-.15.07-.59.12-.89.12-.69.41-1.31.77-1.9.05.12.03.38.28.16-.11-.03-.21-.06-.32-.1-.08-.56.11-1.01.57-1.35.39-.28.63-.63.55-1.15-.03-.17.01-.4.11-.53.75-1.04,1.12-2.29,1.85-3.34.5-.72.47-.74.59-1.77.17,0,.34,0,.51,0,.13-.43.25-.86.39-1.29.01-.04.08-.08.13-.08.12-.01.25,0,.45,0-.03-.39-.06-.76-.1-1.16.28-.32.56-.68.88-.98.38-.35.68-.7.85-1.22.15-.45.45-.94,1.03-1.08.11-.03.29-.14.29-.2-.12-1.14.89-1.61,1.43-2.3.79-.99,1.81-1.79,2.55-2.85.2-.29.5-.78,1.08-.62.06.02.18-.43.35-.56.42-.33.8-.65.82-1.23.42-.08.89-.17,1.11-.52.27-.43.47-.81,1.02-1.02.44-.17.6-.79,1.13-1.01.39-.16.63-.72,1.02-.82.54-.15.84-.57,1.3-.78.81-.38,1.42-1.13,2.34-1.32.13-.03.19-.3.31-.44.12-.13.3-.36.39-.33.43.12.65-.1.96-.35.48-.4,1.06-.69,1.61-1,.16-.09.4-.17.56-.12.66.22,1.19-.14,1.47-.57.42-.63,1.03-.58,1.57-.63.38-.04.74,0,1.08-.23.45-.31.94-.76,1.47-.66.65.13.86-.49,1.38-.55.61-.07,1.23-.03,1.83-.21.22-.07.56.23.84.36.11-.22.16-.42.28-.56.12-.14.37-.26.48-.05.23.43.45.59.86.2.11-.1.32-.11.49-.13,1.52-.2,3.07.11,4.59-.25.21-.05.53.04.71.18.33.26.54.17.82-.05.1-.08.36-.01.5.07.14.08.22.38.42.22.56-.44,1.07-.29,1.6.04.67.41,1.39.64,2.2.55.25-.03.57-.04.75.09.53.4,1.09.32,1.67.27.17-.01.4.06.53.18.35.33.67,0,.98.03.34.03.66.36.97.59.29.22.57-.39.82-.01.23.34.48.38.79.15.05-.04.12-.12.15-.11,1,.44,2.13.07,3.13.54.21.1.5.07.75.08.19,0,.48-.12.56-.04.84.82,1.9.41,2.85.59.81.15,1.62.31,2.43.46.62.11,1.19.39,1.86.34.21-.02.44.29.68.33.21.03.54-.22.65-.13.61.5,1.3.14,1.94.21.44.05.89.02,1.31.17.72.26,1.4.64,2.21.38.14-.05.35.12.53.19.18.08.35.23.52.24.57.02,1.17-.1,1.71.01.48.1.88.46,1.46.28.27-.08.62.11.93.15.82.12,1.58.5,2.43.45.3-.02.65.09.89.26.46.34.91.47,1.45.3.52-.16,1.03-.06,1.52.11.86.31,1.72.45,2.63.37.08,0,.17.16.26.24-.09.07-.18.14-.27.21.05.02.09.04.14.07.02-.1.05-.21.07-.31.7.3,1.39.62,2.18.58.47-.03.89-.44,1.42-.09.42.27.92.42,1.37.66.37.2.74.11,1.12.1.57-.01,1.22-.27,1.68.33,1.04.27,2.07.68,3.13.78.7.07,1.45.08,2.16,0,.7-.08,1.51-.22,1.67-1.19.04-.25.18-.48.28-.71-.19-.64-1.06-1.01-.74-1.86.02-.06-.12-.19-.2-.28-.2-.24-.46-.44-.62-.7-.46-.75-.93-1.5-1.3-2.3-.16-.34-.23-.7-.49-1.01-.14-.17-.2-.49-.15-.71.08-.38.22-.73-.11-1.07-.04-.04,0-.27.06-.3.44-.2.41-.66.46-.99.05-.31-.3-.66,0-1-.14-.73.14-1.39.37-2.05.08-.23.19-.51.38-.62.79-.48.98-1.27,1.19-2.07.31-.22.6-.48.93-.66.3-.16.62-.11.86.19-.1.07-.38.03-.15.28.03-.11.06-.21.09-.32.61.34,1.21-.37,1.82-.03.98-.61,1.95.03,2.92.08.6.03,1.19.44,1.85.35.61.67,1.51.49,2.26.76.78.27,1.6.45,2.27.63.54.18.42,1.17,1.19.67.49.24,1.2-.15,1.54.53.02.05.11.09.17.09,1.48,0,2.85.6,4.31.75,1.4.14,2.79.42,4.19.62.19.03.38,0,.57-.02.58-.07,1.17-.28,1.72-.19,1.07.19,2.17.02,3.23.34.67.2,1.4.16,2.08.34.97.26,1.96.41,2.8,1.13.71.61,1.76.77,2.39,1.58.18.24.51.41.8.51.56.2,1.02.5,1.46.89.41.37.97.56,1.47.82.57.3,1.16.55,1.7.89,1.35.85,2.77,1.6,4.03,2.59.39.31.93.5,1.02,1.1.02.11.13.24.23.29.57.29,1.13.63,1.73.83.92.31,1.87.51,2.44,1.41.54.11.95.37,1.1.93.72.26,1.42.72,2.19.59.66-.1,1.12.14,1.61.45.33.21.66.41.98.63.28.19.56.27.91.24.17-.02.45.05.5.16.21.45.63,0,.78.18.39.49.92.61,1.47.81.81.31,1.69.45,2.37,1.1.22.21.79.04,1.08.23.52.34,1.16.43,1.64.92.42.43,1.15.55,1.68.9.53.34.99.79,1.48,1.19.21-.17.45-.25.69-.05.38.32.65.85,1.29.67.4.31.8.63,1.21.91.15.1.38.21.53.17.57-.15.74.45,1.11.54.47.11.84.23,1.13.62.1.13.3.23.46.25.81.13,1.63.19,2.21.94.16.21.59.21.87.36.34.18.82-.16,1.07.26.3.51.83.23,1.2.43.33.17.74.33.94.62.32.46.82.5,1.19.51,1.01.03,1.84.52,2.73.85.58.21,1.04.73,1.75.52.09-.03.28.04.34.13.34.47.79.38,1.21.24.46-.15.48.66.92.4.35-.21.63,0,.91.09,1.22.35,2.43.76,3.63,1.16.3.1.61.2.88.37.44.28.84.53,1.42.48.42-.04.63.67,1.18.47.88.33,1.87.46,2.44,1.37.09.14.32.23.51.26.15.03.46-.12.46-.1.38.93,1.18,1.29,2.05,1.57.18.06.36.17.49.31,1.14,1.18,2.64,1.76,4.06,2.49.34.18.68.36,1.02.56,2.27,1.33,4.59,2.55,6.98,3.65.06.03.12.04.18.08,2.11,1.53,4.65,2.13,6.95,3.25.28.14.59.29.89.29.94.01,1.69.57,2.55.82.31.09.5.52.97.45.35-.05.74.28,1.07-.09.56.34,1.3-.14,1.83.42.1.11.36.07.55.11,1,.2,2.04.28,2.98.64.95.37,2.07.11,2.89.85.5.04,1.03-.05,1.5.23.88-.32,1.64.19,2.37.47.68.25,1.29.54,1.99.25.04.3.03.6.09.61.56.12,1.12.2,1.69.26,1.21.13,2.41.2,3.57.64.51.19,1.13.09,1.7.07.16,0,.36-.18.46-.33.32-.45.68-.9.88-1.4.39-.99.59-1.23,1.35-1.87.51-.43,1.25-.71,1.3-1.58.01-.25.36-.5.6-.7.74-.59,1.5-1.17,2.23-1.79.99-.84,2.11-1.28,3.33-1.3.58,0,1.14.17,1.62.52.67.49,1.26,1.1,2.14,1.2.09.01.2.16.24.27.12.33.35.48.68.61.71.28,1.39.66,2.09.98.65.29.99.99,1.69,1.19.19.43.55.51.96.43.56-.11,1.01.03,1.35.51-.11.07-.44.03-.15.3.03-.11.06-.23.09-.34.32-.02.62-.05.86.28.34.48.66.16,1.04-.13.27.24.55.49.83.74q.93-.42,1.75-.19c.06.02.14,0,.19.03.83.45,1.64.29,2.46-.04.14-.06.36.01.51.08.1.04.17.18.26.29.5-.21.93-.51,1.59-.3.77.24,1.63.23,2.45.33.4.05.75-.57,1.19-.08.35.39.65-.18,1.04-.08.41.1.89-.09,1.32-.03.67.1,1.43-.05,1.97.53.76-.44,1.41.24,2.17.19.83-.05,1.62.27,2.09,1.11.21.38.56.65,1.04.76.36.09.66.38.97.58-.06.28-.25.54.09.68.8.33,1.22.92,1.29,1.77.04.48.59.84.31,1.42-.07.14-.01.42.09.56.53.67.07,1.64.73,2.28-.28.57-.53,1.14-.27,1.83.22.58-.13,1.15-.37,1.65-.21.44-.33.82-.21,1.29.22.83.03,1.66.04,2.5.01.64-.03,1.28.04,1.91.07.64,0,1.28.04,1.91.04.61-.17,1.25.11,1.84-.12,1.28.09,2.57.26,3.81.26,1.9.32,3.8.47,5.7.13,1.64.06,3.31-.03,4.96-.06,1.08-.24,2.16-.51,3.21-.26.98-.4,1.97-.83,2.93-.41.9-.84,1.87-.85,2.92l-.9,2.07c-.1.16-.3.33-.28.49.04.62-.22,1.09-.64,1.5-.07,1.02-.73,1.76-1.29,2.5-.5.65-.78,1.43-1.31,2.06-.43.51-.94.98-1.16,1.65,0,.03-.24-.02-.41-.03-.76,1.17-1.66,2.25-2.71,3.21-.24.22-.48.46-.62.73-.33.66-.82,1.13-1.4,1.56-.2.14-.38.35-.48.57-.23.5-.67.75-1.08,1.04-.15.11-.46.17-.47.28-.11,1.27-1.66,1.63-1.78,2.88-.02.16-.22.41-.36.42-.77.06-.76.76-1.06,1.21-.49.75-.82,1.62-1.79,1.92-.15.05-.34.28-.35.44-.11,1.24-1.14,1.81-1.86,2.58-.47.5-1.11.83-1.4,1.51-.07.16-.28.33-.44.35-.68.07-1.1.54-1.6.9-.75-.08-.82.77-1.34.98-.1.04-.33-.09-.37-.04-.66.89-1.44,1.6-2.44,2.11-.21.1-.32.39-.44.56-.56.01-1.06.01-1.55.04-.64.03-1.29.11-1.75-.51-.07-.09-.21-.14-.32-.21-.43-.26-1.05-.11-1.36-.61-.31-.5-.84-.05-1.24-.31-.42-.27-.93-.43-1.43-.52-.55-.1-1.09-.44-1.69-.2-.11.04-.26,0-.38-.03-.45-.15-.82-.42-1.39-.22-.42.14-.98-.17-1.49-.21-.89-.08-1.78-.18-2.66.06-.63.18-1.25.16-1.9.1-.39-.03-.85-.36-1.25,0-.44.38-.86-.08-1.29-.01-.17.03-.43,0-.53-.11-.74-.79-1.75-1.29-2.23-2.35-.29-.64-.46-1.35-.8-1.93-.33-.57-.57-1.12-.68-1.75-.04-.24-.1-.53-.26-.69-.45-.48-.53-1.01-.38-1.61.06-.23-.02-.38-.23-.41-.31-.04-.49-.2-.45-.49.03-.26.02-.45-.07-.71-.19-.51.37-1.01.04-1.59-.24-.43-.3-.97-.44-1.45-.13-.44-.18-.86,0-1.32.12-.3-.03-.6-.21-.9-.19-.32-.44-.74-.37-1.06.16-.8-.03-1.52-.17-2.27-.03-.18.04-.37.06-.56.02-.25.12-.54.03-.74-.29-.63-.36-1.27-.39-1.95-.03-.64-.16-1.28-.33-1.9-.1-.36-.47-.67-.5-1.01-.05-.83-.76-1.31-.94-2.08-.17-.73-.57-1.41-.86-2.11-.48-.14-1-.21-1.44-.43-.37-.18-.65-.53-.98-.8-.42.42-.83-.09-1.25-.02-.83-.55-1.84-.46-2.75-.74-.71-.22-1.56,0-2.11-.7-.28.08-.58.28-.83.22-1.01-.22-2.01-.34-3.01-.08-.58.15-1.08-.31-1.7-.05-.44.19-1.01.07-1.52.08-.13,0-.3-.06-.37,0-.7.61-1.68.18-2.42.69-.33.23-.73.23-1-.2-.03-.05-.26-.06-.29-.01-.34.5-.88-.04-1.23.25-.38.32-.73.02-1.09.02-.44,0-.96.3-1.31.16-.56-.23-.82.17-1.21.3-.44.14-.87.07-1.33,0-.5-.07-1.06.01-1.33.56-.24.47-.69.18-1.01.31-.83.34-1.62.74-2.43,1.12-.48.23-.81-.08-1.16-.32-.08.17-.15.34-.23.51-.3.06-.3-.84-.83-.23-.19.21-.73.07-1.03.24-.51.29-1.09.03-1.62.41-.42.3-1.12.23-1.69.34-.19.04-.39.07-.55.17-.99.57-1.95,1.15-3.16,1.15-.27,0-.6.25-.81.48-.44.48-1.03.65-1.58.61-.62-.05-1.1.12-1.54.45-.45.34-1.02.32-1.5.59-.34.19-.85.06-1.5.07-.61.58-1.49,1.05-2.55,1.19-.55.07-1.17.16-1.55.69-.7.05-1.21.74-1.95.63-.7-.11-1.18.64-1.81.49-.89-.21-1.62.43-2.46.31-.06,0-.15-.07-.18-.05-1.06.91-2.67.46-3.7,1.46-.08.08-.24.1-.37.12-1.23.13-2.28.75-3.38,1.23-.11.05-.24.15-.33.13-.99-.28-1.72.28-2.53.68-1.07.52-2.2.9-3.15,1.65-.24.19-.59.23-.89.34-.59.24-1.31.14-1.76.72-.78-.17-1.27.37-1.85.72-.55.34-1.2.36-1.79.67-1,.54-2.14.84-3.23,1.21-.54.19-1.15.23-1.65.5-.46.25-.91.43-1.42.53-.29.06-.51.37-.79.52-.31.17-.55.59-1,.29-.28.25-.53.52-1,.36-.19-.07-.46.06-.68.15-.63.26-1.32.4-1.87.84-.24.19-.47.13-.72.09-.1-.02-.3.07-.3.1.08.69-.53.4-.78.48-.59.18-1.23-.08-1.86.13-.55.18-1.13.24-1.4.3-.63.02-.74-.82-1.21-.22-.04.05-.1.08-.16.1-.32.13-.62.02-.94-.04-.3-.06-.63.02-.94.07-.32.06-.62.05-.94-.04-.49-.14-1-.23-1.51-.23-.49,0-.96-.45-1.47-.1-1.01-.11-2.02-.2-3.02-.34-.29-.04-.56-.23-.84-.35-.52.59-1.07.12-1.62.06-.31-.04-.64,0-.94-.07-.73-.17-1.46.03-2.21-.23-.61-.21-1.34-.06-2.02-.03-.76.04-1.51.37-2.29.13-.54.71-1.51.05-2.1.66-.07.07-.26.02-.37.08-.53.25-1.11-.12-1.67.21-.43.25-.98.3-1.48.42-.57.14-1.13.25-1.7.38-.06.01-.12.04-.19.05-.57.08-.91.79-1.58.56-.58-.2-1.16.12-1.72.04-.55-.08-.97-.06-1.44.29-.2.15-.64.08-.92-.03-.37-.15-.68-.35-1,.04-.42-.1-.84-.21-1.27-.31-.16.18-.43.34-.17.63.21.23.4.56.67.64.56.18.9.65,1.37.93.37.23.68.51,1.14.64.46.14,1.02.22,1.33.7.63.02,1.23.34,1.88.2.33-.07.66-.06.92.15.47.37,1.11-.19,1.55.3.51-.02,1.02-.04,1.53-.07.19-.01.45-.13.56-.05.75.57,1.59.37,2.41.31.49.63,1.34.31,1.91.72.15.11.36.23.53.2.84-.12,1.61,0,2.41.3.75.27,1.61.21,2.41.39.35.08.75.28.96.56.58.78,1.33.97,2.28.77.67.85,1.66,1.34,2.42,2.12.9.92,1.68,1.91,2.37,2.97.47.72.97,1.38,1.72,1.78.71.38,1.19.91,1.54,1.64.18.37.61.63.93.93.48-.27.73.21,1.09.32.35.11.55.27.66.61.16.5.41.81.97.4.06-.04.26.03.32.1.47.63,1.18.92,1.8,1.34.23.15.41.28.49.54.09.27.26.38.55.44.63.14,1.25.29,1.84.54.31.13.42.65.94.48.53-.17.8.33,1.19.52.34.18.67.39,1.02.56.08.04.26-.03.33-.11.05-.05.02-.24-.04-.31-.26-.3,0-.56.15-.63,1.12-.52,1.94-1.45,2.95-2.12.5-.33,1.08-.66,1.61-.51.7.19,1.61-.09,2.1.74-.11.06-.4.03-.15.28.03-.11.06-.22.09-.32.59.2,1.25.24,1.75.69.14.13.33.22.51.27,1.01.25,1.94.62,2.81,1.21.52.35,1.16.45,1.83.43,1.02-.03,2.04.03,3.06-.18.53-.1.72-.45.84-.9,1.44.24,2.89.41,4.35.17.24-.04.5.05.74.12.56.15,1.08.28,1.69.19.54-.08,1.13.07,1.57.48.16.15.27.2.45.06.1-.08.22-.12.34-.17.06-.02.14-.03.18,0,.55.34,1.17.46,1.8.55.11.6.62.11.89.32.25.19.57.29.78.51.4.42.74.89,1.1,1.32-.04.39-.27.81.32.96.56.14.4.55.38.94.48.2,1,.33,1.26.97.2.49.48,1.04,1.12,1.22.14.04.21.3.31.46.22.32.38.72.68.93,1.1.79,1.5,2.02,2.07,3.15.12.23.2.48.28.72.11.33.85.02.67.71-.05.2.33.51.5.77.2.32.37.67.58.99.18.27.34.63.6.74.62.26.49.93.83,1.33.37.44.7.92.81,1.52.03.17.17.34.29.49,1.19,1.5,2.57,3.64,3.18,5.15.15.36.36.67.51,1.01.28.67.8,1.28.69,2.07-.07.51.5.69.51,1.18.01.43.12.95.38,1.27.34.42-.15.89.25,1.25.38.33.44.76.3,1.24-.02.06.11.21.2.23.61.13.47.69.63,1.07-.32.54.12.91.26,1.36.22.66.42,1.32.08,2.04-.18.39.01.81.14,1.24.12.41,0,1.01-.51,1.34-.13.08-.24.31-.23.46.08,1.05-.42,2-.5,3.01-.03.34-.18.56-.45.8-.3.27-.07.58.23.89-.49.48-.36,1.28-.99,1.76-.21.16-.38.62-.31.87.22.83-.26,1.45-.71,1.91-.55.57-.8,1.08-.68,1.85.03.16-.27.38-.42.57.17.07.34.15.48.21-.25.41-.52.81-.75,1.23-.23.42-.69.71-.57,1.34.07.35-.2.76-.63.87-.46.12-.58.36-.59.83,0,.26-.29.51-.45.76.41.37.11.66-.08.99-.15.27-.25.59-.31.89-.07.38-.78.38-.56.85.19.39-.08.59-.18.86-.13.36-.25.73-.44,1.06-.05.1-.32.08-.68.15-.16.09-.33.42-.53.73-.62.96-1.42,1.66-2.63,1.73-.33.02-.63.15-.69.54l.04-.07c-.7-.2-1.37-.22-1.98.26-.48.38-1.01.5-1.62.28-.15-.05-.44-.02-.5.08-.33.48-.9.07-1.18.3-.47.39-.85.1-1.27.04-.38-.06-.69-.05-1.06.14-.66.33-1.39.19-2.05-.08-.67-.27-1.1-.09-1.44.51-.16.27-.38.49-.58.74-.62-.26-.64.49-1.18.62-.39.02-.91-.53-1.46-.02-.5-.01-.99-.01-1.49-.04-.25-.01-.57.01-.73-.13-.57-.52-1.48-.45-1.94-1.15-.64-.17-1.1-.86-1.89-.61-.2.06-.51-.08-.71-.21-.42-.28-.8-.63-1.2-.94.1-.08.45-.04.13-.3-.03.11-.06.22-.09.33Zm-108.55-99.65c.08.07.04.4.29.14-.11-.02-.22-.05-.33-.07-.06-.23-.2-.35-.45-.31-.02-.26-.02-.59-.32-.63-.44-.07-.6-.49-.94-.62-.43-.17-.86-.27-1.12-.69.11-.06.42-.03.14-.29-.03.11-.06.22-.08.32-.38-.15-.76-.29-1.31-.5.24.78.43,1.41.65,2.12.6-.08,1.27-.12,1.92.25.27.15.72-.01,1.09-.03.08.21.21.34.46.3Zm-25.72,23.83c.68.27.62,1.05,1.04,1.51-.11.44-.26.94.27,1.18.46.21.56.91,1.2.84.37.83,1.49.3,1.9,1.06,1.05-.07,1.63.48,2.04,1.39.19.42.73.48,1.16.61.35.1.82.07.97.52.22.67.67.77,1.31.67.27-.04.63.15.86.35.38.32.97.33,1.19.85,2.03.78,3.68,2.17,5.51,3.28.36.21.63.38.74.79.03.12.3.26.45.25.59-.06.99.16,1.27.67.15.27.36.52.55.77.11.15.22.32.37.4.55.29,1.12.54,1.7.81.08-.33.15-.64.22-.94-.14-.15-.38-.74-.53-1.25-.07-.24-.18-.47-.3-.7-.21-.39-.45-.77-.67-1.16-.28-.5-.66-.97-.8-1.5-.13-.52-.49-.89-.68-1.36.33-.75-.73-.9-.66-1.4.1-.63-.2-.91-.59-1.25-.26-.23-.27-.56-.16-.9.05-.18.07-.36.09-.51-.29-.31-.76-.58-.76-.86,0-.52-.3-.81-.54-1.16-.28-.42-.72-.78-.87-1.24-.22-.67-.68-1.04-1.15-1.49-.69-.64-1.49-1.2-1.94-2.08-.34-.68-.63-1.38-1.14-1.96-.3-.34-.16-.73,0-1.15-.87-.55-.93-1.76-1.83-2.32-.02-.67-.47-1.13-.84-1.62-.42-.56-.76-1.24-1.3-1.66-.6-.46-.98-1.08-1.22-1.68-.31-.77-.73-1.32-1.38-1.77-.18-.13-.4-.44-.36-.62.08-.38-.08-.57-.29-.83-.61-.71-1.63-.99-2.03-1.92-.04-.08-.22-.12-.34-.14-.49-.08-.77-.37-1-.81-.22-.44-.45-1.01-.91-1.16-.77-.25-1.01-.9-1.43-1.44-.19-.24-.14-.44-.09-.7.11-.47-.6-.48-.6-.85,0-.38.18-.77-.12-1.1-.15-.17-.44-.23-.54-.41-.11-.2-.03-.5-.12-.72-.25-.58-.55-1.13-.83-1.69.3-.67-.15-1.12-.54-1.5-.45-.46-.98-.81-1.05-1.54-.02-.2-.31-.39-.5-.55-.3-.25-.62-.46-.87-.65-.74,0-1.38,0-2.02,0-.72.02-1.17-.42-1.47-.83-.95-.04-1.77-.11-2.59-.1-.42,0-.49-.36-.76-.51-.44.3-.88.47-1.45.31-.44-.12-.86-.23-1.24-.49-.12-.08-.42-.07-.49.02-.1.12-.14.4-.06.53.32.51.15,1.1.3,1.6.22.73-.47,1.55.28,2.19.05.04-.03.23-.05.36-.06.44-.13.89-.18,1.32-.05.36.34.78.54,1.18.03.06.05.13.05.19-.06.77.56,1.27.75,1.94.21.74.36,1.5.55,2.25.05.18.13.36.26.5.29.32.34.66.24,1.07-.13.58-.06,1.14.27,1.64.23.35.65.57.63,1.1-.02.57.66.77.81,1.24.21.63.84,1.05.95,1.61.13.66.43.62,1,.56.11.63.56,1.06,1.06,1.48.43.36.78.82,1.16,1.25.42.48.86.95,1.23,1.46.3.42.19,1.09.82,1.34.14.05.16.34.28.49.39.48.43,1.21,1.06,1.51.63.3.74.99,1.14,1.47.08.09.2.17.32.2.29.06.43.23.54.49.14.33.09.81.62.86.45.04.04.79.61.72.56.45.98.99,1.08,1.72-.08.07-.16.14-.25.2.04.02.08.04.12.06.02-.1.04-.21.06-.31Zm164.71,56.16c.15-.93.12-1.89.55-2.78.18-.37.19-.85.24-1.29.15-1.38.09-2.8.49-4.15.03-.1.03-.26-.03-.34-.34-.45-.2-.83.1-1.23.1-.14.15-.36.13-.53-.05-.62-.16-1.24-.19-1.87-.02-.61.03-1.22.05-1.76-.18-.23-.61-.09-.48-.52.05-.18.07-.38.05-.57-.28-2.13-1.25-3.99-2.27-5.83-.37-.67-.84-1.28-1.1-2-.78-.43-.68-1.35-1.1-1.96-.57-.83-.8-1.9-1.68-2.53-.1-.07-.22-.18-.25-.29-.21-.99-.74-1.75-1.57-2.32-.1-.07-.17-.2-.21-.32-.33-1.06-.92-1.94-1.75-2.67-.74-1.43-1.84-2.62-2.79-3.9-.23-.31-.43-.58-.34-1.02.03-.16-.27-.39-.42-.59-.18-.24-.92.08-.61-.63-.27-.26-.56-.51-.81-.79-.17-.19-.38-.41-.4-.63-.02-.28,0-.47-.35-.54-.39-.07-.31-.62-.53-.72-.81-.36-1.67-.61-2.51-.9-.51.54-.91,0-1.35-.13-.12-.03-.25-.02-.38-.01-.72.01-1.4-.12-2-.57-.24-.18-.48-.08-.69.1-.09.08-.27.18-.31.15-.63-.54-1.18-.06-1.75.12-.5.16-.68-.24-.98-.46-.42.38-.84.76-1.26,1.14-.32.28-.72.36-1.08.15-1.11-.66-2.35-.35-3.53-.51-.83.62-1.47-.58-2.29-.24-.16.07-.46-.13-.66-.26-.52-.34-.94-.86-1.64-.82-.73-.66-1.74-.76-2.54-1.25-.55-.34-1.13-.19-1.68-.3-.29-.06-.68.27-1,.47-.52.32-.64.78-.32,1.45,1.22.23,2.13,1.16,3.09,1.96.92.77,1.49,1.89,2.36,2.74.17.17.18.48.33.68.15.2.35.42.57.49.39.12.69.23.84.67.1.29.43.5.53.79.19.55.54.84,1.08,1,.28.08.36.32.27.62-.03.09.03.29.08.3.34.09.58.27.63.63.04.32.53.43.41.8-.17.56.42.31.53.53-.03.27-.06.53-.09.76.29.21.56.38.8.59.19.16-.25.7.37.64.62.62,1.38,1.12,1.67,2.01.55.4.22,1.46,1.18,1.57.07,0,.16.2.18.32.25,1.21.65,2.34,1.4,3.34.28.38.04.87.05,1.31,0,.49.76.8.52,1.34-.23.5.23.87.14,1.24-.13.49.04.89.1,1.33.08.51.22,1.01.24,1.52.02.5.03,1.04-.12,1.51-.18.57.13,1,.32,1.41.24.53-.26,1.06.03,1.47.3.41.31.76.27,1.24-.04.57.31,1.2.17,1.71-.18.66.04,1.06.34,1.56.11.17.03.49-.03.73-.07.24-.22.46-.34.68,1.33,1.12,1.02,1.09.46,2.24.43.64.78,1.3.54,2.12-.05.17-.09.42,0,.54.58.78.15,1.58.06,2.36-.6.51-.19,1.21-.29,1.77-.27.14-.5.25-.8.41.07,1.4-.68,2.63-1.09,3.96-.05.18-.17.36-.31.47-.45.37-.91.72-1.38,1.05-.15.1-.37.16-.55.15-.57-.05-1.13-.12-1.7-.22-.11-.02-.28-.16-.28-.24,0-.17.07-.41.19-.48.43-.25.89-.45,1.4-.69-.11-.4-.1-.86-.32-1.11-.42-.45-.43-1.27-1.22-1.39-1.8-1.54-1.89-1.58-3.47-1.64-.12-.22-.24-.44-.35-.66-1.18-.25-2.38-.41-3.53-.77-.65-.2-1.23-.63-1.96-.43-1.1-.34-2.22-.56-3.35-.75-.37-.06-.78-.19-1.06-.43-.51-.42-1.04-.5-1.62-.32-.57.17-1.03,0-1.36-.44-.19-.26-.42-.36-.65-.25-.42.21-.88.26-1.39.43.36.45.7.83.99,1.24.55.78,1.06,1.59,1.63,2.35.2.26-.1.51.06.69.6.66,1.23,1.28,1.84,1.93.17.18.34.39.45.61q.94,1.91,2.33,3.19c.18.17.41.37.46.58.11.56.43.85.9,1.13.31.18.54.57.69.91.27.6.73.95,1.22,1.36.71.6,1.21,1.44,1.78,2.2.05.07-.01.24-.02.38.77.04,1.55.06,2.11.7.91.19,1.49,1.02,2.38,1.23.66.16,1.16.5,1.56,1.03.29.38.65.57,1.18.46.73-.16,1.39,0,1.88.64.36.46,1.13.31,1.39.93.37.04.76.02,1.1.12.73.22,1.38-.13,2.07-.19.49-.05.49-.54.73-.82.16-.19.36-.41.59-.48.84-.27,1.26-1.02,1.74-1.6q.71.12,1.13-.7c.73-.19,1.47-.38,2.19-.57.08-.47.29-.68.73-.6.89-1.02,2.15-1.08,3.35-1.32.19-.04.39-.03.58-.03.27,0,.72.31.71.56,0,.23-.09.53-.26.67-.43.38-.88.79-1.51.79-.71,0-1.22.66-1.96.6,0,0-.08.28-.02.35.16.19.34.4.56.49.35.14.74.21,1.12.27.38.06.76.1,1.14.12.12,0,.27-.02.38-.08.37-.22.82-.2,1.17-.4.42-.23.68-.26.95.17.05.08.33,0,.51,0-.06-.16-.12-.31-.21-.54.37-.1.9-.09,1.06-.33.62-.92,1.95-1.4,1.84-2.8,0-.09.11-.24.2-.29.45-.24.5-.68.67-1.11.42-1.05.27-2.31,1.22-3.15.04-.03.03-.12.03-.19-.02-1.03.72-1.91.63-2.96.52-.7.27-1.65.76-2.34.54-.77.6-1.68.91-2.51-.21-.7.38-1.2.47-1.82.09-.08.18-.17.27-.25-.11-.03-.22-.07-.33-.1ZM106.65,21.97c.08.09.16.18.24.27.02-.05.04-.1.06-.15-.11-.02-.23-.04-.34-.05.07-.23.14-.47.2-.69-.75-.61-.76-.61-.94-1.17-.08-.24-.1-.52-.22-.74-.07-.14-.28-.2-.42-.31-.08-.06-.22-.18-.21-.21.08-.17.29-.46.3-.45.43.25.85-.33,1.35.07.66.54,1,1.29,1.46,1.95.66-.11,1.23-.21,1.8-.29.32-.05.65-.13.95-.08,1,.16,2.02.15,3,0,1.11-.17,2.16.28,3.25.17.44-.04.9.07,1.34.04,1.53-.13,3.07-.15,4.59-.02,1.65.14,3.32-.02,4.95.41.66.18,1.42.17,2.1.06.85-.14,1.65-.11,2.47.09.18.05.38.07.57.06.57-.04,1.13-.13,1.72.01.55.13,1.14.12,1.71.1.55-.02,1.09-.07,1.65-.17.96-.18,1.83.42,2.71.77.18.07.52.36.4.73-.4.23-.76.2-1.1-.04-.9-.63-1.93-.62-2.94-.54-.59.04-1.14.17-1.7-.09-1.41.16-2.8-.16-4.2-.23-.71-.04-1.38.16-2.11.04-1.38-.21-2.79-.22-4.19-.32-1.15-.08-2.3-.27-3.44-.24-2.3.06-4.58.05-6.88-.12-.94-.07-1.91-.14-2.88.06-.93.19-1.86.55-2.85.32-.16-.04-.41.47-.31.62.29.46.82.77.73,1.45-.02.12.3.44.6.22.22-.16.42-.26.71-.2.44.08.88.12,1.32.15.52.04.88-.53,1.42-.4.49.11.98.26,1.47.38.06.01.13,0,.19-.02.81-.28,1.64-.06,2.46-.06,1.21,0,2.42.11,3.6.28.9.13,1.75.18,2.64.03.5-.08.99-.16,1.53-.02.67.16,1.35-.02,2.03-.2.67-.18,1.32.44,2.06.27.3-.07.68.12.94,0,.63-.28,1.28-.18,1.83,0,1.03.35,2.01.24,3.04-.01.68.59,1.52.61,2.34.69.08.08.15.17.23.25l.12-.32c.82-.01,1.64.32,2.45-.03.34.19.7-.02,1.03.02.14.02.26.25.41.41.89-.24,1.79-.1,2.66-.19,1-.1,1.9.14,2.84.29.18.03.44.17.52.1.42-.38.87-.18,1.28-.07.47.13.83-.13,1.24-.19.7-.09,1.41.71,2.13.02.85.55,1.72.37,2.6.1.06.13.04.41.29.15-.11-.03-.22-.06-.33-.09.05-.45.36-.53.68-.36.4.21.79.39,1.25.46.47.07.88.39,1.43.2.39-.14.86-.07,1.3-.08.13,0,.25.03.38.05.15.15-.15.74.43.49.22-.1.39-.21.68-.2,1.79.03,3.55.27,5.3.57.31.05.62.15.93.23.35-.44.63-.1.98.03.23.09.57-.15.83-.1,1.62.35,3.28.09,4.91.37.41.07.86-.15,1.3-.04.01,0,.05-.1.12-.24-.27-.34-.61-.68-1.09-.56-.62.15-1.13-.15-1.69-.24-.38-.63-1.08-.61-1.67-.78-.8-.23-1.43-.81-2.22-1.06-.3-.1-.56-.32-.83-.49-.44-.28-.85-.58-.98-1.14-.04-.18-.2-.29-.45-.25-.63.1-1.06-.42-1.61-.58-.54-.15-1.13-.13-1.67-.27-.36-.09-.67-.31-1.1-.28-.43.03-.88-.16-1.3-.11-.41.05-.77.04-1.11-.17-.35-.22-.73-.19-1.1-.27-.99-.22-2.07-.07-2.95-.73-.17-.13-.5-.09-.75-.04-.41.07-.76.01-1.09-.23-.15-.11-.35-.22-.52-.2-1.3.16-2.5-.33-3.73-.59-.61-.13-1.21-.33-1.81.04-.08.05-.3.03-.35-.04-.48-.65-1.1-.82-1.87-.66-.17.04-.4-.03-.56-.12-.76-.43-1.59-.38-2.41-.41-.82-.03-1.64-.09-2.39-.46-.71-.35-1.47-.43-2.23-.24l-.14-.68c-.91.32-1.76-.03-2.63-.22-.62-.14-1.24-.22-1.86-.33-.51.61-1.06.19-1.6.06-.1-.02-.17-.17-.26-.26-.04-.05-.13-.13-.13-.13-.5.49-.88.18-1.26-.18-.28.28-.56.15-.87.02-.35-.14-.72-.31-1.09-.34-.34-.02-.72.19-.92-.28-.16.09-.32.22-.49.24-.17.03-.39,0-.54-.1-.26-.17-.48-.41-.74-.64-.33.15-.67.32-1.01.46-.48.2-.65-.31-.98-.44-.11-.04-.26-.01-.38.02-.82.19-1.58-.54-2.42-.15-.02.01-.13-.2-.22-.29-.09-.08-.22-.19-.31-.16-.23.07-.46.29-.67.27-.22-.02-.41-.36-.62-.38-.44-.03-.89.06-1.34.1-.17-.94-.34-.99-1.33-.43-.89-.15-1.78-.26-2.64-.45-.54-.12-1.06-.27-1.62-.1-.48-.47-1.24-.19-1.74-.63.12-.06.41-.04.14-.29-.03.11-.06.21-.08.32-.5-.07-1.05-.03-1.49-.23-.54-.24-1.04-.35-1.64-.38-1.14-.07-2.26-.38-3.4-.52-.39-.05-.5-.4-.79-.48-.43-.11-.89-.24-1.32-.19-.78.1-1.52.24-2.24-.21-.14-.09-.38-.09-.56-.05-.57.13-1.14.16-1.71.02-.48.47-1.09.11-1.63.25-1.45.39-2.92.31-4.38.04-.6-.11-1.18-.02-1.69.39-.29.24-.57.45-1.03.31-.44-.14-.9-.25-1.36.19-.28.27-.86.19-1.25.37-.35.16-.6.43-1.05.24-.51-.22-.68.52-1.18.5-.5-.02-.76.27-.98.75-.23.5-.77.32-1.22.15-.21.24-.38.54-.64.71-1.06.67-2.26,1.09-3.27,1.84-.55-.26-.85.07-1.08.49-.2.37-.95,0-.91.68-.44.38-.82.91-1.33,1.09-.67.23-.85.91-1.39,1.19-1.14.59-2.08,1.41-2.97,2.34-.61.64-1.37,1.12-1.85,1.92-.22.36-.68.57-.94.92-.31.41-.58.85-1.03,1.13-1.19.74-1.53,2.2-2.57,3.06.21.85-.45.93-.99,1.13-.39.14-.1.37-.09.58.01.24-.55.26-.36.53.34.46-.19.49-.26.73-.17.58-.47,1.02-.99,1.36-.18.12-.37.46-.33.66.1.53-.32.81-.43,1.2-.14.5-.32.88-.66,1.29-.47.57-.96,1.2-.9,2.07.02.27-.25.58-.42.86-.37.6-.76,1.2-1.07,1.69-.09.36.28.5.08.79-.22.31-.44.64-.59,1-.18.44.15,1.05-.48,1.33-.1.55-.21,1.1-.31,1.65-.03.19,0,.41-.09.55-.13.21-.44.34-.51.56-.08.26.12.64,0,.85-.43.8-.65,1.58-.24,2.45.04.09.04.24,0,.34-.19.54-.42,1.07-.59,1.61-.19.6-.02,1.23-.01,1.84,0,.52-.4.62-.56.93q.55.82-.39,1.65c.01.44.16.94,0,1.31-.22.54.04.83.28,1.2.06.09,0,.25,0,.38-.05.48-.33.89-.1,1.46.16.41-.13.98-.15,1.49-.02.51.07,1.02.09,1.53,0,.12-.07.24-.1.36-.17.6-.26,1.06-.1,1.24.34.38.28.85.38,1.28.03.15-.02.32-.03.48-.19-.02-.32-.03-.55-.06.08.46.03.98.25,1.31.36.53.32,1.07.24,1.6-.15.98,0,1.91.19,2.86.11.58.51,1.26-.22,1.76.18.12.35.24.49.34-.14.42-.27.78-.39,1.14.42.65-.39,1.53.39,2.13.06.05.07.26.03.35-.39.71.03,1.37.11,2.05.61.63.11,1.46.39,2.15-.27.64-.06,1.26.07,1.88.14.69.24,1.4.41,2.09.14.56.36,1.09.53,1.64.03.11.02.24.02.34-.1.23-.2.45-.29.65.24.22.43.39.62.57-.09.77-.15,1.53.41,2.18.4.46.13.8-.25,1.11-1.89-.31-1.9-.33-2.93-2.08-.35-.6-.78-1.15-1.15-1.74-.33-.53-1.06-.73-1.14-1.5-.08-.83-1.14-.45-1.45-1.06-.11-.22-.33-.41-.37-.64-.16-.79-.93-1.21-1.15-1.97-.05-.17-.21-.39-.36-.43-.63-.16-.88-.69-1.23-1.13-.15-.19-.32-.43-.54-.51-.54-.18-.43-.75-.73-1.05-.21-.07-.48.35-.6-.03-.15-.47-.52-.71-.81-1.05-.25-.29-.12-.75-.48-1.07-.55-.5-.85-1.3-1.75-1.36-.02,0-.07-.11-.05-.13.23-.39-.03-.57-.31-.74-.43-.25-1.24-.05-1.1-.96-.78-.13-1.2-.65-1.46-1.36-.04-.1-.19-.22-.3-.23-.73-.06-1.01-.74-1.53-1.08-.08-.05-.1-.19-.15-.29.24-.42.04-1.05.62-1.3,1.57.81,2.47,2.38,3.92,3.26-.04.2-.11.43-.09.44,1.33.57,2.52,1.29,2.87,2.84.67.19.8.89,1.23,1.31.04.04.11.07.17.1.24.1.58.12.68.3.1.17-.05.5.24.64.6.27.63,1.15,1.36,1.27.44.55.87,1.11,1.31,1.65.11.14.29.22.43.34.08.06.23.17.22.2-.15.35-.06.62.23.85.46.35,1.07.62,1.35,1.08.36.58.88.85,1.39,1.19.08.05.09.21.13.31.19.54.45,1.04.99,1.3.11.05.38-.05.46-.17.1-.15.07-.4-.16-.47-.29-.08-.71-.02-.43-.54-.29-.4-.16-.86-.04-1.24.15-.48.01-.77-.18-1.21-.36-.8-.55-1.7-.21-2.6.12-.31.11-.57-.11-.87-.18-.24-.32-.62-.27-.9.14-.8-.17-1.53-.27-2.28-.02-.18-.11-.37-.07-.53.15-.61.42-1.21-.12-1.77.26-.71,0-1.39-.15-2.08.08-.08.17-.15.25-.23-.1-.04-.21-.08-.31-.12.07-.31.23-.63.19-.92-.14-.89-.4-1.75-.14-2.67.05-.17,0-.4-.06-.57-.29-.75,0-1.52-.09-2.28.45-.73-.04-1.19-.47-1.67-.11.05-.22.11-.33.16-.33.16-.33-.58-.72-.26-.32.25-.66.03-.89-.11-.44-.25-.8-.7-1.32-.17-.35-.23-.69-.45-1.04-.67q-1.06.53-1.95.18c-.12-.05-.23-.17-.35-.16-.51.02-1.02.14-1.52.1-.5-.04-.88-.56-1.45-.43-.12.03-.26,0-.38.03-.55.1-1.12.39-1.54-.29-.03-.04-.36.03-.49.13-.33.26-.71.45-1.06.24-.74-.45-1.48-.77-2.36-.53-.84-.43-1.74-.4-2.64-.3-.12.01-.3-.02-.35-.09-.23-.32-.46-.26-.8-.16-.28.09-.62-.04-.94-.04-.32,0-.66.16-.94.07-.74-.23-1.41-.11-2.04.26-.26.15-.47.04-.7.07-.75.1-1.65,0-2.12.69-.45.64-.94.54-1.49.43-.08.04-.15.05-.19.09q-.96,1.06-2.5,1.29c-.18.03-.39.1-.5.23-.26.28-.42.81-.71.87-.47.11-.7.36-1.01.67-.34.35-.84.56-1.26.84-.15.1-.41.23-.4.34.04.73-1.14.46-.99,1.25-.48.42-.96.84-1.43,1.26-.18.16-.5.38-.47.54.13.82-.75.99-.95,1.58-.1.31-.44-.03-.82.16-.47.73-1.09,1.57-1.56,2.49-.33.64-1.13.89-1.26,1.66,0,.02-.22.01-.33-.01-.3-.08-.56.05-.57.32-.02.4-.36.49-.51.73-.2.31-.31.7-.38,1.07-.06.3-.22.43-.47.54-.16.08-.42.21-.43.32-.02.6-.47.87-.82,1.24-.24.26-.3.65-.57.95-.24.27-.14.83-.17,1.17-.4.52-.75.97-1.05,1.35.1.26.24.46.2.57-.09.22-.45.42-.42.57.15.71-.38.86-.9,1.17.01.32.12.73.03,1.08-.11.43-.38.81-.58,1.21-.03.06-.11.12-.1.16.05.16.12.32.21.54-.2.33-.38.77-.69,1.09-.43.44-.14,1.03-.34,1.43-.45.88.15,1.31.58,1.84.16.2.5.14.66-.06.58-.76.82-1.72,1.52-2.4.72-1.81,1.83-3.37,3.14-4.8.11-.12.18-.35.17-.51-.05-.6.21-.98.75-1.19.12-.05.3-.11.31-.19.09-.55.52-.85.84-1.22.08-.09.18-.23.17-.34-.12-.87.63-1.35.9-2.04.11-.28.53-.3.64-.67.54-1.79,1.95-2.96,3.12-4.3.13-.14.26-.34.42-.38.63-.16.92-.63,1.14-1.17.13-.33.43-.11.63-.18.36-.12.68-.34.99-.56.31-.22.58-.56,1-.54.41.02.62-.46,1.03-.36.54.13.51-.48.83-.63.06-.03.1-.1.16-.11.69-.15,1.34-.47,2.08-.28.61.16,1.24.27,1.85.39.38.72,1.25.16,1.72.66.42.44,1.04.03,1.46.36.47.36.95.63,1.55.73.57.1.73.89,1.38.91.36.53.93.73,1.5.69.58-.04.89.36,1.05.69.31.66.86,1.01,1.35,1.46.41.38.87.67,1.12,1.27.23.55.81.99,1.3,1.39.32.26.55.51.66.9.22.79.78,1.32,1.42,1.76.81.56,1.46,1.17,1.76,2.19.17.55.61,1.11,1.21,1.42.53.27.88.74,1.19,1.23.08.12-.22.34.02.47.28.15.73.19.83.4.15.31.1.7.58.75.17.66,1.02.77,1.19,1.4.2.73.99.78,1.38,1.29.15.2.43.4.44.61.06.94.94,1.47,1.11,2.34.08.42.45.39.74.49-.03.18-.05.35-.08.53.4.3.74.72,1.31.69.26-.29.52-.57.77-.84.5.21.65-.25.93-.48.27-.22.75,0,.92-.47.06-.16.24-.22.45-.27.99-.25,1.82-.79,2.7-1.31,1.15-.69,2.19-1.49,3.27-2.33-.06-.23-.05-.59-.21-.69-.56-.37-.04-.97-.36-1.38-.11-.13-.17-.35-.16-.52.06-1.07-.06-2.15.1-3.22.07-.49-.2-.96-.03-1.46.2-.6.25-1.27.55-1.81.35-.63-.1-1.27.21-1.88.2-.39.2-.87.36-1.29.08-.22.38-.36.45-.58.09-.29-.05-.72.11-.92.37-.46-.43-.84-.05-1.15.45-.37.38-.93.67-1.35.13-.19.18-.53.1-.73-.18-.48.04-.87.16-1.3.2-.74.55-1.45.3-2.25-.03-.11-.02-.28.04-.37.52-.8.38-1.73.53-2.61.15-.87.17-1.79.73-2.56.16-.23.09-.61.18-.91.27-.9.15-1.93.89-2.68.15-.68.77-1.23.57-2.01l-.04.06c.1-.15.27-.3.27-.45.02-.38-.03-.73.22-1.08.66-.95,1.01-2.01.99-3.18,0-.43.28-.69.59-.92.05.15.04.4.29.15-.11-.03-.22-.06-.33-.09.17-1.25.33-2.5.51-3.75.04-.28.3-.38.52-.5.15-.08.36-.27.34-.38-.1-.52.3-.78.49-1.16.03-.07-.11-.22-.17-.33.58-.51,1.17-1.02,1.78-1.55-.27-.1-.44-.16-.61-.23.04-.08.08-.14.1-.2.19-.46.78-.48,1-.84.22-.37.27-.83.4-1.26.68-.35.66-1.2,1.16-1.63.47-.41.14-.65.02-.89.26-.4.5-.76.72-1.13.71-1.19,1.38-2.41,2.86-2.8-.12-.24-.22-.45-.31-.63.46-.59.94-1.1,1.29-1.69.35-.59,1.08-.92,1.14-1.7.77-.7,1.05-1.72,1.67-2.52.08-.1.11-.25.21-.32.21-.14.45-.23.68-.34l.2.28s.05-.09.07-.13c-.1-.03-.21-.05-.31-.08.05-.11.08-.28.17-.32.46-.23.94-.43.98-1.06,0-.11.16-.31.21-.3.83.15,1-.9,1.73-.95.23-.01.5-.16.67-.32.65-.64,1.46-1.01,2.23-1.46.22-.13.51-.21.63-.4.49-.76,1.32-.97,2.05-1.29.75-.32,1.4-.86,2.28-.91.51-.03,1.07-.08,1.49-.33,1.26-.74,2.56-1.09,4.01-.84.48-.48,1.23-.03,1.73-.53.16-.16.53-.31.69-.23.59.29.93-.33,1.42-.3.5.04.98.2,1.51.12.61-.09,1.25-.06,1.86,0,.3.03.64.43.86.36.38-.13.71-.09,1.07-.05Zm212.24,77.82c-.07-.1-.06-.4-.29-.12.11.02.22.04.32.06-.65,1.02-1.38,1.98-2.22,2.85-.08.09-.24.2-.23.28.12.69-.19,1.08-.84,1.25-.05.52-.63.76-.68,1.24-.03.34-.07.61-.38.82-.33.22-.19.7-.58.95-.28.19-.39.64-.6.95-.21.31-.49.59-.7.9-.24.36-.44.75-.66,1.13-.69-.2-.39.48-.62.7-.28.26-.54.55-.8.83-.09.09-.18.21-.2.33-.08.65-.42,1.04-1.04,1.25-.13.05-.21.28-.3.44-.16.27-.28.57-.46.83-.6.82-1.17,1.64-1.45,2.64-.07.24-.19.52-.38.65-.6.42-.98,1.01-1.38,1.58-.19.27-.43.28-.83-.01-.15-.11-.25-.28-.41-.46.18-.47.27-1.01.57-1.39.27-.34.67-.56.86-1,.17-.39.44-.73.66-1.1.19-.32.49-.62.53-.96.05-.42.15-.71.51-.94.84-.53,1.16-1.47,1.66-2.26.15-.25.38-.61.15-.9-.29-.36-.52.05-.8.14-.34.1-.72,0-.92.44-.07.15-.27.26-.44.35-.24.12-.53.14-.71-.08-.11-.13-.17-.39-.12-.55.21-.61.46-1.2,1.2-1.39.3-.08.57-.29.85-.43.33-.16.66-.32,1.02-.49-.1-.34-.11-.63-.26-.82-.54-.7-1.11-1.38-1.7-2.04-.04-.05-.32.1-.43.14-.68-.31-1.31-.63-1.97-.89-.66-.25-1.34-.44-2.01-.65-1.19-.38-2.43-.62-3.45-1.44-.06-.05-.22.04-.42.08.11.76.38,1.54.29,2.27-.1.8.08,1.53.17,2.28.09.75.41,1.52-.19,2.23-.06.08-.07.29-.01.37.51.62-.04,1.53.57,2.13.07.07.09.24.06.34-.17.54.03,1.01.27,1.47.51.99.81,2.11.75,3.17-.08,1.41.28,2.65.77,3.91.44,1.14.77,2.31.72,3.56,0,.17.02.36.09.52.41.93.63,1.97,1.42,2.7.11.84.78,1.1,1.43,1.37.65-.29.64-.27,1.04-.16,1.11.33,2.23.69,3.27-.23.13-.11.37-.11.55-.16,1.09-.27,1.93-.97,2.78-1.64.24-.73,1.08-.62,1.52-1.08.61.16.98-.28,1.25-.64.52-.7,1.2-1.11,1.96-1.47.45-.22.95-.47,1.24-.85.31-.41.68-.56,1.12-.67.5-.13,1-.24,1.44-.35.95-1.2.93-1.24,2.05-1.78.75-.36,1.56-.58,2.1-1.28.07-.09.21-.14.33-.16,1.4-.23,2.12-1.58,3.38-2.04,1.09-1.35,2.65-2.24,3.58-3.74.23-.37.63-.65.85-1.03.26-.44.54-.93.57-1.41.03-.62.55-1.02.61-1.52.16-1.26.8-2.27,1.44-3.29.07-.11.31-.12.5-.18-.06,1.35-.3,2.57-.88,3.74-.31.62-.46,1.32-.67,1.99-.05.18-.15.45-.08.54.39.43.36.9-.08,1.13-.56.29-.37.74-.47,1.15-.39.31-.83.59-1.17.96-.4.43-.89.7-1.33,1.05-.49.39-.89.88-1.5,1.13-.17.07-.41.17-.47.31-.35.85-1.28,1.02-1.84,1.64-.51.56-1.3.78-1.78,1.4-1.28.57-2.5,1.26-3.59,2.15-.14.12-.33.19-.51.27-.35.16-.76.19-.97.58-.16.32-.38.38-.76.37-.33,0-.73.26-.99.51-.46.45-.94.84-1.53,1.13-.38.18-.63.61-.95.93-.8.79-.9,1.65-.29,2.69.6.04,1.23.08,1.87.12,1.19.08,2.28.35,2.94,1.49.16.28.39.52.62.74.4.4.89.5,1.43.31.18-.06.37-.13.51-.24.55-.44,1.23-.8,1.6-1.36.48-.73,1.41-.54,1.92-1.23.39-.53,1.19-.71,1.55-1.34.68-.2,1.25-.54,1.58-1.19.83-.37,1.29-1.05,1.52-1.89.08-.28.23-.38.48-.51.63-.33,1.03-.93,1.49-1.45-.18-.59.26-.9.52-1.32.28-.45.77-.67,1.06-1.07.33-.45.6-.94.9-1.41.05-.08.17-.19.24-.18.43.08.57-.2.64-.53.05-.25.07-.47.32-.65.71-.52,1.03-1.46,1.92-1.79.05-.42.37-.64.65-.91.23-.22.4-.5.59-.76.23-.31.51-.61.64-.96.16-.43.72.02.85-.53.09-.39.65-.67.73-1.06.13-.64.68-.7,1.04-1.02.18-.16.28-.42.4-.64.11-.22.13-.57.31-.67.72-.42.94-1.21,1.42-1.8.37-.45.68-.94,1.01-1.42.32-.46.28-1.15.9-1.43.4-1.13,1.23-2.06,1.54-3.24.19-.73.32-1.48.88-2.09.22-.24.19-.71.26-1.07.08-.37.11-.76.22-1.12.7-2.34.82-3.03.91-5.23.02-.51.12-1.02.08-1.53-.03-.38.07-.58.39-.76.07-.04.04-.34,0-.51-.04-.17-.22-.34-.2-.49.21-2.12.18-2.63-.33-4.64-.14-.56-.25-1.14-.37-1.7-.36-1.77-.72-3.54-1.07-5.31-.16-.82-.32-1.65-.46-2.47-.06-.38-.15-.77-.09-1.14.23-1.45.4-2.95.97-4.3.74-1.75,1.04-3.54,1.08-5.42.03-1.31-.38-2.53-.58-3.79-.03-.17-.2-.33-.32-.47-.3-.33-.64-.64-.94-.97-.31-.34-.64-.52-1.14-.59-.49-.07-1.21-.17-1.13-1-.36-.47-.78-.83-1.42-.8-.69.03-1.39.03-2.08.08-.42.03-.48-.37-.73-.54-.25.19-.48.37-.85.33-1.39-.14-2.75-.52-4.17-.3-.64.1-1.22-.32-1.81-.56-.55.36-1.11.52-1.8.36-.4-.09-.86.07-1.38.13.14.26.18.45.3.56.68.61.9,1.39.91,2.25,0,.16-.1.43-.22.47-.22.07-.57.11-.71,0-.69-.58-1.41-1.15-1.95-1.86-1.06-1.39-2.54-1.94-4.15-2.15-.58-.07-1.11.01-1.53-.5-.06-.07-.36.05-.55.09-.07-.09-.12-.23-.21-.27-.09-.04-.23,0-.34.04-.05.02-.07.1-.11.15.11.03.23.09.34.09.12,0,.24-.05.37-.08.11.83.97,1.32,1.02,2.19.55.59.76,1.46,1.55,1.85.14.07.23.31.28.49.09.37.26.79.18,1.13-.13.58.19.96.43,1.37.23.38.54.71.76.99-.02.3-.14.62-.02.76.31.37.52.72.32,1.21.53,1.15.99,2.34,1.4,3.54.1.29.34.55.56.78.35.38.81.68,1.07,1.1.62.99,1.73,1.29,2.6,1.9.28.2.71.18,1.12.27.51-.9.7-1.93,1.56-2.57.09.2.16.31.2.43.32,1.27-.23,2.41-.54,3.58-.17.65-.61,1.12-1.17,1.5-.41.28-.82.41-1.25.14-.41-.26-.83-.35-1.28-.19-.45.16-.87-.32-1.31-.06-.11.06-.22.14-.29.19-.33-.21-.68-.38-.96-.62-.23-.2-.58-.51-.55-.73.07-.53.04-.88-.57-.95-.03-.8-.76-1.45-.43-2.34.17-.46-.53-.86-.2-1.4.05-.08-.02-.27-.09-.36-.8-1.02-.68-2.32-1.03-3.48-.08-.28.03-.62.05-.93-.4-.32-.79-.63-1.19-.95.08-.69.24-1.33-.31-1.86-.24-.23-.31-.57-.13-.89.19-.33.16-.65-.16-.83-.6-.33-.95-.88-1.24-1.44-.42-.81-.98-1.49-1.61-2.11-.57-.55-1.05-1.11-1.22-1.91-.04-.21-.31-.49-.5-.52-.59-.1-.85-.43-1.08-.96-.2-.45-.61-.8-.92-1.2-.33-.44-1.12-.42-1.13-1.16-.3-.07-.74-.04-.88-.23-.48-.66-1.14-.63-1.82-.79-.53-.13-.78.11-1.18.26-.69.26-1.29.53-1.66,1.2-.05.1-.22.12-.32.2-.46.34-.94.65-1.05,1.31-.05.31-.38.55-.72.57-.53.04-.68.32-.88.79-.21.49-.78.82-1.19,1.22-.06-.12-.05-.39-.29-.13.11.03.21.06.32.08-.23.39-.41.8-.7,1.14-.12.14-.44.09-.65.18-.17.07-.32.22-.46.35-.18.16-.14.59.07.68.41.17.85.45,1.25.41.7-.07,1.22.28,1.7.49.64-.21,1.17-.42,1.72-.57.48-.14.72-.52,1-.87.25-.31.04-.56-.05-.85-.04-.12.17-.32.27-.5.72.22,1.28.54,1.35,1.39.02.22.21.49.41.62.35.24.4.55.49.92.08.35.1.82.66.95.19.05.24.69.44.75.52.14.65.54.91.9.23.31.44.61.61.97.15.32.47.56.71.83-.54.6-.53.59-.22.96.22.27.74.38.48.91.25.28.54.53.74.85.21.33-.23.72.06,1.11.16.22.12.58.24.84.35.74.69,1.5,1.12,2.2.31.51.63.97.34,1.6-.06.12.05.37.16.51.46.61.54,1.29.39,2-.06.28-.04.48.14.7.15.2.38.5.32.67-.27.84.12,1.65.02,2.48-.14,1.19-.23,2.38-.34,3.58-.03.32-.12.63-.13.95,0,.28.47.46.2.82.23.29.1.71.28.96.32.45-.07.69-.17,1.03-.03.09.11.21.12.33.03.57.08,1.13.07,1.7-.01.5-.01,1.09-.41,1.41-.4.33-.34.64-.25,1.01.06.26.11.51-.17.67-.22.12-.45.21-.58.27-.39,1.47-.14,2.93-.85,4.21.41.5.08.79-.3,1.07-.06-.09-.03-.38-.27-.13.1.02.21.04.31.07-.15.73-.3,1.47-.47,2.2-.02.1-.16.18-.24.27-.22,0-.45.02-.59.02-.16.46-.25.9-.45,1.27-.23.42-.57.79-.86,1.18Zm-208.36,44.99c.69.22.44,1.02.87,1.41.38.34.41.75.26,1.23-.11.34.42.6.22,1.04-.27.61.26.72.64.93.09.05.13.21.16.34.25,1.2,1.07,1.93,2.07,2.53.53.32,1.08.58,1.57,1.02.43.39,1.16.44,1.73.71.15.07.18.38.27.6,1.05.15,2.15.22,2.86,1.25.09.13.33.14.5.23.45.25.95.45,1.32.79.66.61,1.42,1.02,2.26,1.27.61.18,1.01.78,1.7.81.7.03,1.16.59,1.59.99.75.7,1.64,1.15,2.47,1.71.42.28.77.72,1.22.87,1.5.49,1.75,1.09,3.06,2.66.36.43.75.85,1.2,1.18.22.16.66,0,.91.14.55.32,1.05.73,1.56,1.11-.12.06-.38.06-.13.29.03-.11.06-.21.08-.32.36.15.71.3,1.07.46.47-.37.82.02,1.22.17.23.08.51.09.74.03.62-.15,1.23-.34,1.67-.88.25-.31,1.93-1.14,2.17-1.13.7.04,1.43,0,2.09.17,1.55.42,3.14.67,4.63,1.28.66.28,1.33.43,2.04.52.5.07,1.06.18,1.44.47.49.38,1.03.5,1.58.65,1.04.29,2.05.59,2.83,1.42.29.3.8.57,1.2.56.81-.03,1.47.38,2.17.48.52.65.98,1.25,1.87,1.23.23,0,.47.19.7.31.5.27,1.1.45,1.46.85.5.56,1.24.29,1.74.68.1.08.21.15.32.21.67.38,1.35.75,2.02,1.13.23.66.79-.13,1.12.28.72.9,1.8,1.14,2.84,1.41.36.1.68.08,1,.42.48.51,1.11.86,1.91.66.28-.07.63.09.93.19.5.16.99.23,1.51.09.5-.13,1-.17,1.53,0,.21.06.56-.03.71-.18.45-.46,1-.61,1.59-.6.78,0,1.31-.88,2.16-.59.01,0,.08-.1.09-.16.05-.52.45-.63.83-.6.45.04.83.14,1.26-.18.38-.28.98.03,1.4-.38.22-.22.57-.53.78-.47.46.12.71-.21,1.06-.3.43-.11.91-.12,1.17-.58.76-.24,1.51-.52,2.34-.45-.05.73-.33,1.26-.89,1.49-.77.31-1.4.86-2.22,1.1-.39.12-.75.46-1.19.58-.41.12-.69.5-1.24.42-.37-.06-.81.24-1.2.41-.4.17-.87-.25-1.24.14-.56-.25-.62.22-.82.62.47.5,1,.97,1.61,1.32.97.56,1.86,1.3,3.04,1.48.27.04.52.34.76.55.43.38.8.86,1.28,1.14.36.21.86.15,1.29.24.43.09.9.15,1.28.36.38.21.63.67,1.01.88.37.2.95.08,1.23.34.59.52,1.4.59,1.97,1.14.58.56,1.52.23,2.14.78.11.09.36,0,.54.04,1.19.23,2.36.61,3.6.52.12,0,.27.04.36.12.42.36.89.47,1.42.4.31.54.88.18,1.3.36.67.28,1.53,0,2.07.69.61-.6,1.33.44,1.95-.13.25.34.53.35.94.26.23-.05.56.26.83.43.27.17.52.38.63.47.7.05,1.27-.05,1.7.15,1.53.69,3.2.84,4.76,1.42.7.26,1.39.73,2.23.46.15-.05.41.04.53.16.66.64,1.52.57,2.28.71.87-.49.61-1.53,1.12-2.19.07-1,.15-2.01.21-3.01,0-.05-.1-.09-.12-.15-.13-.36-.25-.71-.37-1.07.09-.06.17-.11.26-.17l-.17-.11c-.01.11-.03.21-.04.32-.32-.04-.53-.37-.37-.51.44-.41.45-.84.36-1.37-.08-.46-.37-.8-.56-1.19-.18-.36.33-.86-.17-1.23-.09-.06-.17-.26-.13-.34.31-.65-.02-1.26-.05-1.89-.03-.62,0-1.24-.33-1.82-.08-.13.01-.37.04-.55.06-.42-.24-.79-.14-1.23.03-.16-.06-.39-.17-.53-.18-.23-.19-.43-.1-.7.11-.36.16-.74.24-1.15-.23-.12-.45-.23-.66-.34.12-.56.43-1.16.31-1.67-.23-.98.12-1.91,0-2.86-.54-.58-.89-1.22-.61-2.09-.28-.22-.58-.46-.86-.68.05-.2.18-.42.13-.57-.1-.29-.33-.53-.46-.81-.11-.23-.14-.5-.25-.73-.12-.27-.45-.48-.26-.85-.32-.46-.96-.68-.97-1.36-.4-.32-.81-.64-1.21-.96-.35-.28-.81-.49-1.03-.85-.47-.75-.81-1.58-1.62-2.06-.85-1.74-2.27-3.05-3.39-4.59-.61-.83-1.34-1.53-2.45-1.75-.54-.11-1.02-.5-1.53-.77-.02-.93-.92-.76-1.4-1.08-1.77-1.15-3.6-2.22-5.54-3.09-.45-.2-.81-.6-1.22-.92-.3.03-.62.06-1,.1-.29-.18-.65-.34-.93-.59-.6-.55-1.57-.72-1.8-1.68-.02-.09-.21-.2-.31-.19-.77.11-1.17-.31-1.57-.89-.28-.4-.79-.33-1.15.09-.2.24-.29.59-.77.57-.55-.7-1.17-1.42-1.7-2.2-.74-1.08-1.28-1.7-2.29-2.39-.08-.06-.11-.2-.16-.3.13-.13.27-.27.43-.43-.51-.28-1.16-.44-1.47-.86-.42-.55-1.26-.74-1.35-1.58-.01-.11-.29-.19-.44-.29-.84-.54-1.68-1.04-2.09-2.07-.18-.46-.54-.91-1.27-1.01-.72-.1-1.24-.82-1.75-1.27-.57.01-1.08.03-1.59.04-.62-.54-1.32-.4-2.02-.26-.3.06-.45-.11-.63-.32-.09-.11-.4-.19-.49-.12-.29.21-.55.22-.88.14-.49-.12-.99-.27-1.53-.15-.23.05-.55.02-.73-.11-.47-.35-.96-.29-1.48-.23-1.23.14-2.41.43-3.45,1.13-.49.33-.99.64-1.58.61-.36-.02-.48-.02-.66.37-.17.37-.7.56-.97.91-.3.4-.43.88-1.04,1.02-.22.05-.36.5-.53.76-.1.15-.18.39-.32.43-.56.19-.75.61-.95,1.12-.21.53-.59.99-.9,1.47-.41.63-1.1,1.07-1.27,1.86-.01.06-.07.13-.12.15-.11.04-.26.1-.36.06-.76-.3-1.07-1.08-.55-1.68.32-.37.36-.8.58-1.19.31-.55.7-1.06.99-1.6.33-.61.99-.82,1.34-1.37.35-.55.7-1.07,1.4-1.22.46-.72,1.17-1.16,1.8-1.7.23-.2.36-.52.58-.84-.6-.43-.93-1.11-1.68-1.28-.72-.74-1.63-1.25-2.29-2.06-.28-.34-.53-.7-1.03-.81-.23-.05-.51-.25-.6-.45-.35-.86-1.53-.92-1.75-1.91-.04-.17-.39.35-.72-.1-.35-.49-1.02-.74-1.55-1.1-.27.22-.54.2-.87.13-.37-.07-.55.3-.37.65.41.79,1.01,1.53,1.18,2.36.19.91.87,1.57.98,2.48.45.5.76,1.02.44,1.75-.08.18.11.48.19.72.16.45.34.9.52,1.35-.31.61.32,1.05.31,1.6-.02.76-.08,1.53.07,2.28.01.05-.02.13-.06.18-.58.73-.15,1.81-.86,2.5.04.52.08,1.06-.39,1.41-.5.38-.16,1.17-.79,1.48-.12.05-.18.32-.18.49.01.77.34,1.51.13,2.3-.04.15.07.38.16.54.21.36.45.71.7,1.09.1-.54.12-1.07.3-1.53.18-.47.57-.87,1.1-.95.2-.03.44.21.65.32-.29,1.02-.28,1.02.57,1.48.16.09.27.29.43.35.15.05.4.03.5-.06.26-.26.49-.32.86-.24.41.09.82-.13,1.26,0,.49.15,1.01.15,1.52.25.44.08.87.19,1.16.6.05.07.24.09.36.07.69-.1,1.23.1,1.71.65.22.26.69.31,1.05.45.61.24,1,.74,1.42,1.2.04.04.02.12.04.25-.32.25-.65.52-.94.76-.46-.12-.55-.57-1.03-.61-.4-.03-.78-.42-1.15-.68-.29-.2-.56-.45-.83-.67-.5.47-1.05.53-1.64.34-.36-.12-.74-.21-1.08-.38-.36-.18-.7-.31-1.1-.19-.44.13-.87.06-1.33-.04-.45-.1-.83.55-1.4.25-.13-.07-.38.04-.55.12-.14.07-.27.22-.35.36-.03.05.1.28.17.29,1.09.17,1.18,1.24,1.71,1.91.38.48-.14,1.11.22,1.64.09.13-.12.48-.2.72-.1.27-.39.35-.61.21-.65-.39-1.02-1-1.16-1.71-.17-.91-.9-1.34-1.48-1.9-.16-.16-.54-.11-.69-.27-.18-.19-.19-.55-.36-.76-.36-.45-.79-.84-1.15-1.29-.19-.23-.39-.34-.65-.28-.38.08-.5.35-.45.72.01.12-.03.24-.06.44-.54.19-1.09.68-1.74-.11.15-.48.31-1.01.53-1.54.24-.57.23-1.24.34-1.86.02-.12.09-.27.19-.33.56-.34.55-.9.72-1.45.23-.73.65-1.39.58-2.19,0-.12.04-.25.08-.36.13-.36.3-.7.41-1.07.11-.36.23-.75.23-1.12,0-.46.54-.78.32-1.24-.21-.45.19-.7.23-1.06.06-.51.15-1.01.2-1.51.07-.7-.43-1.38-.1-2.09-.44-.68-.18-1.48-.37-2.21-.18-.7-.34-1.38-.86-1.9-.2-.2-.24-.41-.16-.69.2-.66-.29-.88-.74-1.11.18-.61.15-1.13-.49-1.5-.2-.12-.35-.37-.47-.59-.14-.28-.16-.65-.36-.86-.2-.21-.52-.28-.76-.52-.53-.54-1.17-.97-1.78-1.46q-1.31.45-2.65.27c-.14.36-.19.78-.43,1.05-.54.6-.81,1.31-1,2.07-.05.18-.06.43-.19.53-.84.67-.52,1.65-.71,2.49.4.4.35.88.01,1.22-.57.57-.28,1.35-.57,1.98-.06.13.04.39.16.51.32.36.25.7,0,1.04-.2.28-.25.57-.2.91.04.29-.1.63.01.87.14.3.26.55.17.9-.12.43-.03.98-.27,1.29-.4.51.18.82.09,1.21-.1.44-.38.9-.31,1.31.15.87-.54,1.43-.62,2.18-.55.33-.52.82-.38,1.35.11.41-.03.7-.35,1.02-.33.34.02,1.04-.57,1.32.51.82,0,1.59-.1,2.38,0,.06,0,.14.03.19.58.77.21,1.71.46,2.55.17.57.33,1.08.73,1.54.41.48.81,1,1.07,1.57.22.48.41.91.85,1.25.34.26.63.65.82,1.05.17.35.23.67.72.78.25.06,0,.68.47.83.31.1.53.39.56.73.05.69.46,1.13.91,1.62.42.47.71,1.04,1.23,1.45.28.22.48.62.58.98.26.92,1.01,1.2,1.78,1.52.7.29,1.56.12,2.15.73.63.03,1.25.19,1.91.04.7-.16,1.06-.69,1.54-1.06,1.23.1,2.45-.24,3.62.2.21.31.42.62.66.98-.56.29-1.05.56-1.56.8-.08.04-.24-.05-.35-.1-.27-.14-.48-.3-.85-.06-.35.24-.85.25-1.28.38-.49.14-1.07.17-1.46.46-.43.32-.75.3-1.2.17-.17-.05-.42.21-.79.42-.24-.19-.57-.41-.82-.7-.27-.3-.51-.54-.97-.49-.23.02-.49-.12-.71-.24-.51-.28-.97-.61-1.3-1.12-.16-.25-.45-.41-.83-.19-.12.07-.52-.12-.6-.29-.27-.55-.26-1.28-1.08-1.43-.11-.02-.16-.33-.25-.5-.18-.34-.32-.7-.55-1-.7-.91-1.43-1.78-1.87-2.86-.04-.11-.16-.23-.26-.25-.36-.07-.56-.27-.63-.63-.16-.73-.59-1.3-1.2-1.67-.37-.22-.07-.69-.32-.77-.44-.13-.61-.36-.71-.78-.07-.29-.27-.6-.51-.78-.4-.3-.56-.65-.66-1.12-.07-.35-.36-.66-.57-1.01.09-.4.19-.84.29-1.29-.32-.68-.57-1.35-.43-2.17.14-.89.04-1.85-.53-2.58-.98-1.24-1.52-2.66-1.88-3.99-.72-.77-1.33-1.42-1.95-2.07-.18-.18-.35-.4-.57-.51-.45-.23-.42-.63-.38-1,.06-.57.33-1.15.27-1.7-.1-.93.02-1.76.45-2.58.17-.34.22-.73.33-1.1-.5-.47.13-.79.15-1.19.01-.19.04-.39.02-.58-.02-.26-.05-.52-.11-.76-.12-.42.34-.51.42-.79.04-.15-.02-.39-.12-.51-.27-.33-.44-.71-.21-1.06.55-.85.38-1.86.7-2.77.08-.22.05-.52-.01-.75-.28-1-.4-2.01-.26-3.04.02-.12-.06-.25-.1-.37.09-.06.18-.11.26-.17-.06-.04-.11-.08-.17-.12-.02.11-.03.21-.05.32-.26-.02-.54.02-.76-.07-.53-.23-1.01-.54-1.65-.31-.19.07-.5-.06-.72-.17-.29-.16-.57-.28-.91-.21-.52.1-.29-.39-.46-.62-.63.07-1.27.14-1.86.2-.55-.27-1.06-.54-1.59-.76-.65-.27-1.3-.54-1.98-.72-.33-.09-.53-.26-.77-.48-.37-.34-.86,0-1.3-.04-.17-.02-.34-.25-.51-.02-.11.15-.28.33-.28.5.04.94-.43,1.7-.84,2.48-.21.39-.22.41-.13,1.02.1.66-.09,1.24-.53,1.75-.11.12-.2.45-.14.5.48.39.2.82.1,1.22-.18.74-.51,1.45-.58,2.2-.05.62.19,1.27.29,1.9.04.24.05.49.07.66-.28.29-.73.38-.37.8.04.04-.01.23-.08.28-.71.52-.06,1,.04,1.51-.18.07-.37.13-.53.22-.08.05-.13.17-.19.25.57.37-.14.8.08,1.22.25.48-.07.83-.4,1.16-.06.07-.05.25-.02.36.23.88-.11,1.92.74,2.65.17.14.19.46.25.71.1.44.14.89.27,1.32.12.41.41.79.47,1.2.06.46.33.82.51,1.19.16.33.16.71.38.99.31.4.37.8.18,1.27-.02.06.09.21.18.27.27.18.46.33.44.75-.02.32.27.65.37,1,.09.32.16.63.47.8.43.23.65.61.75,1.07.08.37.18.73.4,1.07.17.27.26.69.24,1.01-.04.56.55.39.69.76.36.94.83,1.84,1.25,2.74-.16.15-.3.27-.46.42.31.24.62.46.91.72.14.12.37.33.33.42-.22.69.43,1.15.42,1.77,0,.13.01.26-.02.38-.16.53-.14.98.28,1.42.17.18-.12.45-.32.6-.22.17-.5.11-.65-.13-.13-.21-.2-.56-.38-.63-.47-.17-.57-.38-.44-.86.13-.51-.07-1.01-.36-1.44-.27-.4-.81-.67-.61-1.3-.17-.04-.36-.15-.5-.1-.52.19-.86.53-.8,1.16.02.17-.02.44-.13.51-.28.19-.41-.08-.6-.26-.17-.17-.43-.24-.7-.38.23-.36.04-.9.56-1.17.09-.05.13-.46.07-.49-.56-.32.06-.87-.27-1.21-.3-.31-.11-.58.07-.85.11-.16.15-.33,0-.52-.29-.36.27-.33.27-.55-.14-.43-.34-.83-.39-1.25-.07-.61-.38-1.05-.73-1.53-.76-1.04-1.4-2.13-1.53-3.47-.05-.48-.19-.97-.51-1.43-.47-.67-.46-1.59-1.02-2.25.18-.74-.12-1.38-.56-1.9-.48-.58-.41-1.17-.26-1.76-.38-.38-.9-.62-.77-1.24-.52-.47-.39-1.2-.7-1.77-1.05-1.99-2.33-3.83-3.76-5.56-.43-.52-.65-1.26-1.34-1.56-.02-.74-.65-1.17-.89-1.78-.21-.53-.55-.85-1.01-1.11-.57-.32-.97-.83-1.39-1.3.16-.41-.09-.73-.33-.98-.37-.39-.54-.84-.67-1.34-.09-.34-.17-.66-.67-.82-.39-.13-.89-.56-.62-1.21.04-.11.05-.32-.01-.36-.69-.48-.55-1.27-.74-1.93-.11-.37-.15-.79-.37-1.08-.33-.44-.46-.92-.55-1.43-.1-.57-.16-1.14-.65-1.57-.12-.1-.19-.4-.13-.53.22-.44-.09-.7-.27-1.01-.38-.66-.76-1.32-1.07-2.01-.08-.18.11-.49-.16-.66-1.16-.72-1.98-1.8-2.82-2.8-.69-.01-1.3.38-1.96.07-.12-.06-.37.05-.51.16-.49.37-1.1.33-1.65.49-.49.14-1,.25-1.5.36-.56.12-1.12.12-1.71.09-.5-.03-1.03.37-1.54-.09-.03-.03-.22.07-.31.15-.29.28-.61.07-.89.07-.16.36-.29.72-.47,1.05-.17.3.14.46.14.65.03.9.29,1.69.85,2.4.06.07.02.25-.02.36-.09.25-.11.46.05.72.2.32.49.7.45,1.02-.09.73.32,1.32.4,1.99.06.51.26,1.02.2,1.51-.07.6.64.99.32,1.62-.06.13-.02.39.07.5.37.42.37.95.48,1.44.15.63.23,1.26.02,1.9.35.61.75,1.2.76,1.94,0,.13,0,.32.08.37.4.29.21.82.5,1.16.37.44.66.96,1.07,1.36.48.46.39,1.18.84,1.62.33.32.31.75.47,1.12.2.47.59.8,1,1.12.18.14.24.45.34.68.31.67.62,1.28,1.26,1.79.62.49,1.07,1.23,1.74,1.74.24.19.49.49.55.77.29,1.39,1.57,2.36,1.66,3.82.33.32.58.68.59,1.17,0,.38.44.55.42,1.02-.02.35.5.71.18,1.18.1.05.2.12.31.14.21.05.33.13.26.38-.05.18-.04.37-.06.56.44.17.86.34.95.85-.08.07-.17.14-.25.21.05.02.09.05.14.07.02-.11.04-.21.06-.32Zm10.8-58.05c.55-.14,1.15-.14,1.61-.58.17-.16.46-.2.7-.28.53-.17,1.19,0,1.58-.57.63.17,1.08-.32,1.55-.55.37-.18.87.04,1.16-.41.07-.1.48.05.73.03.25-.02.57-.01.72-.16.41-.4.93-.4,1.43-.51.63-.14,1.26-.26,1.89-.39.73.51,1.13-.33,1.72-.41.06,0,.13-.04.19-.04.37.04.76.17,1.11.11.36-.07.66-.4,1.01-.49.35-.09.72-.3,1.12-.09.55.29.81-.15,1.11-.49.07-.08.19-.13.3-.2.22.11.45.22.72.36,1.11-.69,2.3-.98,3.57-.35.29-.65.34-.7.71-.77.57-.1,1.14-.19,1.71,0,.62.21.96-.63,1.6-.39.22.08.35-.33.66-.2.4.18.74-.02,1.06-.26.39-.29.7-.69,1.32-.54.53.13.78-.53,1.36-.58,1.01-.08,1.92-.6,2.88-.95.96-.35,2-.46,3-.71.3-.07.59-.23.85-.4.25-.16.46-.12.72-.04.16.05.44.07.53-.02.45-.5.94-.58,1.56-.35.2.07.55,0,.71-.14.3-.28.64-.42,1.02-.49.44-.76.88.04,1.32,0,.59-.51.6-.49,1.66-.64.24-.03.47-.17.7-.27.23-.1.45-.3.68-.32.51-.04,1.07.13,1.51-.03.53-.19.99-.56,1.58-.61.26-.02.52-.18.76-.13.73.15,1.36.1,1.94-.43.3-.28.71.11,1.09-.07.4-.19.84-.31,1.27-.38.37-.06.77.09,1.13.01.42-.1.8-.37,1.21-.53.61-.24,1.09-.94,1.89-.56.08-.42.29-.55.75-.56.35,0,.7-.27,1.05-.43.27-.13.56-.41.81-.38.54.07.57-.42.86-.61.58-.38,1.13-.84,1.77-1.1.33-.13.61-.22.92-.45.71-.52,1.33-1.18,2.12-1.59.06.15.08.41.31.12-.11-.02-.23-.05-.34-.07.11-.15.19-.38.34-.42.53-.17.87-.54,1.15-.98.78-1.26,1.62-2.47,2.74-3.47.43-.38.43-1.03.98-1.38.51-.32,1.01-.79.92-1.54.78-.95.89-2.23,1.56-3.24.31-.47.17-1.14.68-1.55.11-.09.14-.37.1-.54-.11-.48-.03-.93.31-1.26.73-.71.06-1.64.45-2.39-.3-.27-.39-.63-.5-1.01-.17-.58.63-.62.55-1.14-.03-.17.18-.45.1-.54-.37-.47.07-.94-.08-1.44-.3-.98-.43-2.01-.67-3.01-.12-.51.12-.83.43-1.11-.34-.87-1.47-1.32-1.29-2.47,0-.04-.17-.15-.27-.17-.4-.11-.66-.33-.86-.7-.42-.78-.88-1.54-1.34-2.31-.09-.16-.21-.34-.36-.41-.74-.36-1.5-.69-2.2-1-.15-.43-.27-.78-.38-1.1-.31.06-.54.17-.75.14-.24-.03-.5-.14-.7-.29-1.18-.94-2.54-1.64-3.69-2.63-.52-.46-1.16-.75-1.92-.81-.88-.07-1.75-.5-2.63-.51-.93-.01-1.72-.46-2.62-.54-.75-.07-1.54-.16-2.19-.66-.28-.22-.62-.13-.93-.08-.34.05-.59,0-.8-.35-.15-.25-.43-.16-.66.02-.14.12-.34.29-.46.27-.28-.06-.52-.18-.73-.32-.4-.27-.5.32-.8.25-.17-.04-.32-.17-.48-.26.09-.06.18-.12.26-.18-.06-.04-.13-.08-.19-.12-.02.11-.03.21-.05.32-.76-.03-1.55.05-2.29-.12-.55-.13-1.03-.55-1.58-.05-.94-.15-1.92-.09-2.83-.46-.71-.29-1.47-.36-2.24-.3-1.66.14-3.26-.29-4.89-.49-.66-.41-1.34-.34-2.05-.12-.24.08-.55.22-.75.14-.85-.36-1.64-.02-2.45.1-.24.03-.55,0-.73-.13-.48-.36-.98-.22-1.49-.2-.44.01-.86.21-1.34.05-.33-.12-.76-.39-1.06-.12-.47.41-.88-.11-1.25.03-.78.29-1.51.07-2.27.01-.57-.04-1.14-.24-1.72,0-.16.07-.44.09-.56,0-.97-.76-2.3.27-3.24-.65-.03-.03-.23.06-.32.13-.21.18-.42.2-.7.16-.81-.11-1.63-.12-2.44-.24-.81-.12-1.61-.38-2.39.11-.35-.15-.7-.29-1.1-.46-.53.08-1.11.28-1.67.22-.65-.07-1.3-.21-1.9.03-.72.28-1.42-.13-2.09.05-.61.16-1.14-.02-1.7-.14-.19-.04-.43-.19-.54-.11-.61.4-1.21.2-1.82.04-.29-.08-.49.09-.69.26-.41.34-1.02-.17-1.39.34-.02.03-.14.04-.18,0-.15-.12-.28-.25-.43-.39-.81.34-1.64.66-2.56.48-.18-.04-.39-.05-.57,0-2.06.5-4.23.53-6.18,1.5-.35.17-.81.09-1.21.28-.29.14-.69-.24-.68-.65,0-.29,0-.56-.27-.65-.95-.32-1.58-1.06-2.32-1.66-.15-.12-.25-.29-.37-.44-.43.38-.63-.22-.92-.22-1.02,0-1.91-.87-2.98-.41-.1.04-.27,0-.37-.07-.38-.27-.71-.28-1.19-.16-.44.11-.97-.15-1.43-.24-.26.42-.31.94-.98.75-.4-.11-.76.48-1.24.21-.05-.03-.2.1-.29.17-.55.37-1.18.27-1.75.24-.27.35-.42.75-.94.53-.16-.07-.45-.1-.55,0-.72.62-1.6.74-2.48.93-.47.1-.87.52-1.28.82-.36.26-.67.68-1.07.78-.57.15-.54.66-.77.92-.53.2-1.14.25-1.45.58-.76.79-1.64,1.39-2.57,1.93-.1.06-.24.19-.23.28.04.55-.58.31-.74.65-.16.33-.53.57-.62.91-.12.48-.58.47-.81.75.27.58-.2.65-.54.88-.24.16-.49.53-.48.79.02.52-.39.77-.51,1.14-.22.67-.88.93-1.15,1.51-1.1.66-1.39,1.99-2.35,2.76-.53,1.38-1.36,2.62-1.95,3.96-.5,1.14-1.16,2.15-1.92,3.1-.4.5-.92.84-.88,1.6.01.23-.33.53-.58.71-.4.3.18.72-.16.96-.77.54-.69,1.48-1.1,2.19-.03.05-.02.16,0,.19.42.28.28.64.16,1-.32.97-.64,1.94-.97,2.9-.06.18-.12.41-.26.49-.55.31-.44.73-.41,1.25.02.4-.35.81-.48,1.24-.1.36-.03.77-.15,1.12-.12.36-.33.7-.56,1.01-.3.4.33.81-.08,1.23-.25.26-.37.67-.49,1.04-.19.54-.45,1.1-.45,1.65,0,.67-.02,1.27-.49,1.79-.24.27-.17.56.05.86.16.22.07.47-.04.72-.28.67-.43,1.73-.42,2.36,0,.31.02.7-.15.91-.37.49-.07,1.02-.22,1.48-.15.46-.52.84-.77,1.27-.06.1.01.29-.06.37-.49.53.14,1.13-.13,1.68-.26.51-.48,1.04-.68,1.57-.06.16-.03.39.03.56.14.45-.38.45-.47.71.1.18.3.39.25.51-.21.54.08,1.19-.3,1.65-.4.48-.47,1.02-.5,1.6-.03.48-.4.99.12,1.43-.1.55-.34,1.12-.28,1.66.09.72-.3,1.51.32,2.19.18.2.18.62-.17.84-.06-.1-.02-.39-.27-.15.1.03.21.06.31.09.04.61.35.96.96.99.19.01.38-.07.57-.06.86.02,1.66.18,2.12.9.41-.1.79-.32,1.12-.26.49.09.96.34,1.41.58.13.07.2.33.2.5,0,.15-.13.38-.26.44-.45.2-.92.43-1.4.47-.33.02-.76-.08-1.02-.45-.08-.12-.34-.13-.53-.16-1.06-.18-2.13-.35-3.19-.52-.6.48-1.2.95-1.8,1.42-.23.18-.47.09-.73.03-.15-.04-.32.05-.51.09.1.16.17.27.25.4-.41.27-.67.8-1.22.82-.82.03-1.42.55-2.13.81-.63.23-.89.66-1,1.28.4.09.78.28,1.14.25.91-.09,1.82,0,2.65.27.91.3,1.95-.22,2.76.51.4-.27.63.05.96.19.32.13.75-.04,1.13-.03.38.01.81,0,1.14.15,1.26.57,2.68.2,3.93.72.11.04.26,0,.38-.03.53-.16,1,.16,1.5.2.36.03.57.6,1.02.3.45-.3.68.21,1.02.26.44.07.88.19,1.33.23.7.07,1.4.09,2.1.12.66.66,1.45.31,2.19.3.18,0,.36.12.54.19.66.27,1.35.36,2.03.5.66.13,1.33.4,2.01.54.43.09.87.08,1.31.12.48-.58,1.06-.23,1.6-.16.44.06.88.16,1.31.26.62.14,1.23.22,1.85.43,1.2.41,2.47.64,3.73.83.34.05.83,0,1.15-.34.34-.36-.15-.55-.16-.82,0-.16.12-.32.2-.48.03-.05.14-.08.14-.12,0-.18-.02-.35-.03-.53-.15.06-.3.12-.5.21,0-.51-.01-1-.02-1.49,0-.57-.01-1.13-.02-1.73-.2-.07-.44-.16-.68-.24-.36-.12-.74-.2-1.09-.36-.13-.06-.27-.3-.24-.44.03-.15.21-.34.36-.38.3-.07.63-.09.95-.07.63.05,1.26.13,1.9.21.24-.37.63-.69.63-1-.01-.61.7-.46.71-.75.03-.97,1.1-1.03,1.4-1.75.11-.26.42-.46.68-.64.57-.41,1.14-.82,1.74-1.19.64-.4,1.28-.97,1.98-1.1.73-.13,1.26-.44,1.8-.84.05-.03.14-.05.19-.02.64.4.88-.27,1.27-.49.3-.17.55-.33.89-.19.61.25,1.13-.08,1.66-.26.17-.06.22-.52.38-.57.29-.08.63.07.94.05.38-.04.76-.15,1.14-.24.5-.12,1-.24,1.49-.38.52-.15.99.34,1.51.1.32-.15.56.25.91.07.25-.13.57-.14.86-.19.3-.05.66.03.88-.12.4-.28.5.03.76.16.16.08.5-.24.78-.34.34-.13.74.34,1.06-.08.33-.44.87.16,1.2-.25.54.12.94.02,1.29-.5.35-.52.97-.49,1.54-.36.05.01.07.1.11.16-.1.07-.19.13-.29.2.04.03.08.06.13.09.03-.11.06-.22.09-.33Zm117.86,20.52c.4-.31.77-.67,1.33-.73.45-.05.89-.17,1.33-.26.44-.69.9-.08,1.36-.02.11-.8.86-.83,1.38-1.14.28.12.56.23.84.35.32-.42.54-.91,1.17-.93.75-.03,1.48-.46,2.27-.1.15.07.39,0,.57-.08.29-.11.55-.32.85-.39.3-.07.63.02.94-.03.48-.08.91-.32,1.4-.41.46-.08.67-.65,1.3-.65.45,0,.89-.44,1.34-.67.17-.09.36-.27.51-.24,1.12.22,1.92-.44,2.78-.96.21-.13.53-.23.74-.16.56.17.96-.24,1.44-.33.56-.1,1.14-.15,1.62-.56.14-.12.49.04.71-.03.29-.1.57-.45.83-.43.55.04,1.11-.33,1.62,0,.5.32.94.3,1.43-.03.26-.17.58-.26.88-.34.5-.13,1-.25,1.51-.33.43-.06.88,0,1.3-.08.47-.09.91-.29,1.37-.43.12-.04.26-.07.38-.04,1,.21,2.03-.18,3.02.21.12.05.37-.05.46-.17.22-.26.38-.44.79-.36.55.11,1.14-.22,1.71.1.1.05.37-.09.49-.22.48-.52.74.13,1.11.18.22-.23.44-.47.66-.71.41.06.87,0,1.15.19.53.38.79-.29,1.23-.19.37.09.79.18,1.13.08.53-.15.63.35.99.48.15-.07.31-.18.49-.23.23-.07.6-.22.7-.12.57.55,1.39.17,1.99.61.61.44,1.41-.07,2.05.33,1.25-.11,2.42.26,3.5.78.67.32,1.39.14,2.02.45,1.1-.22,2.03.29,2.87.85.99.65,2.06,1.04,3.17,1.38.31.09.61.18.92.28,1.27.42,2.52.96,3.9.51.18-.06.39-.09.57-.05,1.46.3,2.8-.27,4.16-.59.42-.1.81-.38,1.18-.62.94-.6,1.5-1.57,2.24-2.36.7-.74,1.21-1.64,1.85-2.43.06-.07.08-.22.05-.31-.17-.55,0-.98.43-1.32.7-.58.83-1.62,1.68-2.08.08-.04.09-.23.12-.35.27-1.28,1.01-2.36,1.54-3.52.4-.87.8-1.72.94-2.7.1-.69.26-1.38.31-2.09.61-.75.32-1.58.21-2.39-.04-.31-.06-.63-.02-.94.12-.93.2-1.86.2-2.8,0-.41-.12-.8-.01-1.23.09-.35-.13-.81,0-1.11.24-.52-.32-.77-.28-1.24.03-.39-.17-.83-.06-1.24.16-.56.1-1.08-.21-1.53-.38-.55.36-1.12-.09-1.65-.12-.14-.16-.34-.26-.49-.2-.31-.42-.61-.63-.91.16-.17.29-.31.41-.44-.26-.27-.53-.55-.79-.82.08-.78-.74-1.19-.79-1.93-.02-.23-.18-.55-.36-.64-.82-.4-1.01-1.31-1.64-1.85.24-.53.28-1-.26-1.38-.32-.22-.62-.48-.71-.88-.14-.6-.64-.77-1.12-.95-.83-.29-1.78-.13-2.56-.67-.09-.06-.26-.05-.37,0-.74.25-1.38.08-2-.36-.2-.14-.49-.3-.7-.26-.68.14-1.18-.22-1.73-.48-.47-.22-.97-.3-1.5-.16-.15.04-.42-.04-.5-.16-.29-.43-.52-.31-.95-.13-.45.2-.96-.11-1.41-.37-.33-.19-.73-.48-1.03-.42-.72.14-1.17-.3-1.71-.55l.06.04c-.15-.27-.39-.28-.66-.24-.57.09-1.14.27-1.62-.29-.09-.11-.36-.06-.54-.09-.62-.09-1.26-.11-1.85-.3-1.22-.38-2.48-.53-3.72-.8-.57-.12-1.1-.2-1.52-.67-.14-.16-.62-.27-.69-.19-.37.44-.66.11-.99-.01-.23-.09-.5-.08-.76-.09-.77-.02-1.53-.03-2.21-.52-.24-.18-.62-.15-.91-.28-.39-.18-.59.14-.89.29-1.17-.58-2.37-1.18-3.43-1.7-.47.11-.84.3-1.19.25-.63-.09-1.26-.27-1.86-.49-1.21-.43-2.39-.93-3.59-1.36-.91-.32-1.83-.59-2.76-.86-.55-.16-1.12-.25-1.68-.39-.5-.12-.99-.34-1.49-.36-.64-.03-.9-.73-1.52-.74-.57,0-.86-.51-1.28-.76-.75-.43-.88-1.46-1.77-1.68-1.49-1.31-3.04-2.57-4.47-3.94-1.12-1.08-2.27-2.02-3.81-2.44-.46-.12-.83-.57-1.26-.89-.14.05-.4.24-.6.19-.21-.05-.33-.38-.54-.49-.28-.14-.63-.14-.9-.28-.71-.37-1.59-.35-2.19-.96-.54.35-.96-.04-1.35-.28-.23-.14-.42-.27-.69-.25-1.42.11-2.62-.49-3.74-1.14-.2.08-.37.22-.52.2-.18-.02-.34-.18-.51-.26-.9-.41-1.97-.5-2.62-1.4-.08-.12-.36-.18-.52-.14-.46.1-.88.06-1.33-.06-1.47-.4-2.36-.84-3.9-1.82-.52-.33-1.16-.48-1.75-.7-.17-.06-.45,0-.53-.12-.28-.39-.6-.62-1.07-.75-.33-.09-.6-.53-.91-.54-.5-.02-.83-.23-1.16-.53-.91.05-1.54-.54-2.28-.92-.45-.24-.86-.47-1.26-.79-.38-.31-.9-.43-1.36-.64-.46-.2-.94-.38-1.39-.61-.51-.27-.99-.57-1.54-.78-.44-.17-.74-.67-1.12-1-.08-.07-.27-.12-.33-.08-.25.18-.41.26-.57-.1-.07-.16-.26-.3-.43-.36-.42-.15-.85-.22-1.25-.47-.37-.24-.85-.29-1.22-.52-.37-.22-.94-.11-1.12-.64-.4,0-.76-.07-1.16-.21-.68-.24-1.26-.88-2.1-.6-.11.04-.37-.13-.45-.27-.24-.4-.71-.48-1.01-.46-.94.07-1.57-.47-2.27-.92-.6-.39-1.18-.79-1.81-1.11-.51-.26-1.14-.31-1.59-.62-.43-.3-.85-.58-1.35-.65-.61-.08-.82-.75-1.46-.8-.57-.04-.83-.69-1.41-.9-.52-.19-1.12-.32-1.56-.67-.51-.4-1.31-.23-1.66-.9-.35-.66-1.13-.03-1.56-.51-.12-.13-.39-.11-.5-.24-.39-.48-.92-.69-1.47-.86-.63-.2-.89-.87-1.53-1.1-.38-.14-.72-.45-1.14-.6-.54-.19-1.16-.34-1.57-.71-.52-.47-1.15-.59-1.73-.76-.96-.28-1.88-.77-2.93-.7-.24.02-.5-.09-.73-.19-.81-.35-1.77-.23-2.48-.91-.14-.13-.49-.03-.74-.03-.19,0-.49.08-.55-.02-.48-.65-1.12-.43-1.74-.4-.18,0-.44-.02-.52-.13-.31-.43-.82-.49-1.21-.51-.47-.02-.96-.31-1.47,0-.16.1-.48-.01-.71-.09-.3-.1-.57-.28-.86-.41-.29-.13-.72.38-.93-.19-1.2-.19-2.28-.84-3.47-1.03-.66-.11-.98-.52-1.41-.89-.19.02-.39.03-.57.07-.52.13-1.02.19-1.34-.38-.81-.11-1.45-.89-2.38-.56-.11.04-.36-.11-.45-.24-.39-.54-.65-.13-.95.09-.43-.11-.87-.21-1.29-.34-.48-.15-.95-.34-1.5-.54-.15.14-.31.36-.52.47-.41.22-2.01,1.63-2.32,2.1-.35.53-.7,1.06-1.04,1.58.37.61.75,1.14.45,1.84-.07.16-.04.38,0,.57.27,1.26.53,2.52.83,3.77.05.22.23.46.42.59.3.21.45.42.3.77.41.49.77,1.01,1.07,1.58.16.29.58.43.86.67.57.5,1.27.84,1.7,1.53.22.36.72.54,1.05.84.26.24.25.9.87.52.44.7,1.14.97,1.89,1.23.39.14.7.53,1.04.81.14.12.24.31.39.4.49.27.99.68,1.49.7.68.01.92.62,1.49.77.87.24,1.76.37,2.61.63,1.38.42,2.73.67,4.17.25.68-.2,1.37,0,1.95.57.54.53,1.14.98,1.68,1.53.85.86,1.8,1.67,2.83,2.3,1.32.82,2.57,1.69,3.59,2.87.12.14.27.28.43.36,1.79.78,3.26,2.07,4.92,3.06.33.2.63.52.98.58.67.12,1.04.56,1.32,1.05.56,1,1.15,1.97,1.92,2.82,0,.52.55.43.79.68-.13.13-.26.27-.44.45.25.26.48.56.76.79.74.56.97,1.02.94,2.03.22.11.45.22.76.37.21.94.43,1.95.68,2.95.11.43.21.9.46,1.24.31.42.44.84.19,1.24-.3.5.59.73.19,1.22-.07.09.01.39.12.51.58.68.65,1.35.15,2.11-.13.2-.12.49-.17.73-.19.78-.37,1.13-1.03,1.96-.51.65-.84,1.44-1.54,1.94.39.36.13.64-.08.98-.23.39-.72.49-.87.98-.14.46-.38.95-.73,1.26-.39.35-.42.74-.51,1.17-.03.15-.25.29-.41.36-.35.15-.47.4-.44.76.01.12,0,.32-.06.35-.82.4-.85,1.65-1.91,1.81-.08.01-.14.32-.16.49-.03.26-.05.5-.27.68-.25.2-.56.41-.67.68-.38,1.01-1.37,1.26-2.1,1.82-.35.27-.79.43-1.15.68-.42.29-.8.65-1.19.97-.39.32-.75.73-1.34.48-.06.89-1.06.8-1.46,1.38-.27.39-.82.58-1.24.86-.63-.21-.98.56-1.58.45-.38.47-1.02.29-1.5.61-.46.32-1.05.45-1.58.67-.53.22-1.05.45-1.59.68-.14-.12-.32-.26-.49-.4-.22.24-.42.62-.55.6-.56-.09-.96.1-1.38.43-.18.14-.51.2-.74.14-.47-.11-.85,0-1.24.24-.16.09-.37.12-.56.14-.63.07-1.24.21-1.9.18-.56-.02-1.13.41-1.71.58-.22.06-.5,0-.74-.08-.27-.08-.5-.11-.68.14-.22.31-.48.38-.83.24-.43-.17-.65.32-1.04.35-.32.03-.65.09-.94.22-.38.17-.72-.21-1.1-.01-.68.35-1.37.67-2.07.97-.42.18-.85.32-1.31.08-.25-.13-.47-.04-.7.13-.25.19-.54.35-.84.43-1.05.28-2.18.22-3.13.86-.56-.28-.96.03-1.41.31-.25.15-.62.22-.91.16-.54-.11-.99-.13-1.4.34-.14.17-.45.21-.7.26-.7.15-1.34.41-1.92.85-.44.33-1.01.4-1.51.6-.46.18-1.03.29-1.5.18-.51-.12-.84.25-1.24.23-.47-.03-.89-.07-1.26.28-.68-.15-1.4.61-2.08-.09-.04-.04-.35.09-.46.21-.12.13-.15.34-.24.57-.27-.03-.52-.11-.76-.09-.51.04-1.03.1-1.52.22-.46.12-.83.43-1.41.32-.44-.08-1,.18-1.44.42-.65.35-1.28.57-2.02.34-.16-.05-.43-.03-.52.07-.42.51-1.02.49-1.58.62-.4.09-.77-.07-1.13-.05-.34.02-.66.34-.99.52-.05.03-.14.03-.19,0-.46-.19-.81,0-1.22.21-.39.2-.88.33-1.31.31-.59-.03-.88.64-1.38.56-.66-.1-1.09.33-1.54.58-.54.31-1.14-.1-1.63.34-.61.55-1.44.73-2.17.63-.65-.09-1.08.26-1.6.38-.55.14-1.17.07-1.63.54-.08.08-.25.17-.33.14-.57-.22-1.17.09-1.69-.02-.82-.18-1.51-.06-2.21.33-.25.14-.57.05-.87.2-.17.09-.55-.24-.83-.38-.26.22-.48.52-.85.36-.76-.35-1.53.33-2.28-.05-.57.6-1.45.43-2.1.88-.84.58-1.86.64-2.86.61-.17.55-.27,1.18-1.12.99-.18-.04-1.14.46-1.4.63-.21.14-.44.28-.68.34-.43.12-.88.19-1.26.26-.53,1-1.2,1.75-2.01,2.36-.64.48-1.17.99-1.08,1.88.03.31-.26.4-.4.59-.29.39-.67.82-.71,1.26-.07.74-.36,1.5-.03,2.28.24.56.37,1.17.55,1.77.67.31,1.41.52,2.03.99.14.11.34.23.49.21,1.11-.14,2.3.31,3.31-.46.28.12.55-.23.67-.16.62.36.94-.28,1.4-.37.33.17.53.11,1.52.07.5-.02.96.15,1.42-.27.18-.16.62-.08.93-.05.4.04.76.05,1.1-.22.08-.06.29-.11.33-.07.51.54.94.03,1.39-.08.38-.09.76-.23,1.05.16-.13.06-.43.04-.15.31.03-.11.07-.23.1-.34.25.04.57.19.72.08.37-.25.71-.19,1.1-.13.41.07.73-.55,1.21-.21,1.12-.34,2.29,0,3.42-.25.46-.1,1,.21,1.39-.26.48.12.96.32,1.37-.15,1.06.19,2.17-.24,3.2.33.13.07.37-.04.56-.07.07.08.15.17.22.25.02-.04.04-.09.06-.13-.11-.02-.22-.03-.32-.05.02-.33.26-.5.51-.43.88.24,1.73.27,2.56-.16.56-.29.97.23,1.46.3.2-.16.07-.67.61-.49.68.23,1.37-.41,2.08-.05.02.01.1-.07.15-.11.39-.32.82-.34,1.28-.17,1.03.39,2.02.22,2.96-.27.31-.16.58-.19.92-.15.32.04.65.03.96-.03.88-.17,1.75-.47,2.66-.13.51-.25,1.18.02,1.63-.49.07-.08.21-.14.32-.15.64-.02,1.29-.08,1.91,0,.46.07.9.12,1.33-.06.47-.19,1.01.34,1.45-.18.05-.06.39.02.49.13.18.21.35.34.64.31.56-.06,1.12-.09,1.71-.13.24-.57.25-.62.71-.51.34.08.66.07.94-.06.63-.3,1.24-.65,1.85-.98.77.51,1.35-.68,2.11-.24.57-.3,1.13-.65,1.8-.56.28.04.47-.1.68-.13.29-.04.54-.04.82-.21.31-.18.73-.18,1.11-.24.17-.03.41.07.52-.01.61-.45,1.35-.44,2.03-.59.74-.17,1.5-.39,2.28-.1.1.04.29,0,.37-.07.37-.37.81-.23,1.24-.24.62-.02,1.25-.08,1.87-.17,1.41-.22,2.81-.47,4.23-.07.11.03.27.06.36,0,.47-.3.96.03,1.46-.05.54-.09,1.13.18,1.7.25.63.08,1.3.26,1.89.13.67-.16,1.26.22,1.9.05.28-.07.43.25.48.5.05.24.03.49.03.65-.35.43-.8.3-1.13.46-.4.18-.75.52-1.16.68-.47.18-1.02.17-1.42.55-.52.49-1.11-.03-1.67.11-.43.11-.9.25-1.32.19-.89-.12-1.77-.31-2.67-.21-.3.03-.41-.25-.61-.38-.31-.19-.7-.24-1.06-.35-.44.5-.98.29-1.43.11-.86-.34-1.73-.39-2.64-.4-1.59-.01-3.07.24-4.32,1.31-.24.21-.49.4-.75.59-.27.2-.58.29-.91.17-.58-.23-.98-.03-1.34.43-.34.45-.78.66-1.36.45-.09-.03-.22.04-.33.08-.67.21-1.37.37-2.02.65-.68.29-1.39.49-2.03.95-.55.4-1.28.56-1.87.94-.76.5-1.61.8-2.69.94-1-.35-2.16-.75-3.31-1.14-.3-.1-.62-.22-.93-.24-1.03-.07-2.02-.37-3.01-.63-.57-.15-1.13-.24-1.72-.08-.53.14-1.09-.15-1.63.25-.37.28-.9.26-1.27-.06-.51-.44-.93.43-1.4.04-.33-.27-.61-.17-1.02-.07-.46.12-.97.12-1.44.32-.76-.35-1.52.2-2.28-.02-.06-.02-.23.1-.24.17-.1.65-.66.59-1.05.58-.5-.02-1-.16-1.51-.09-.53-.49-1.01.34-1.6.05-.28-.14-.75.12-1.11-.1-.4.44-.62,0-.89-.18-.56.68-1.03.08-1.53-.11-.06-.02-.12-.02-.25-.04-.48.35-.97.7-1.71.46-.53-.17-1.14-.13-1.71-.1-.3.01-.64.15-.88.33-.48.35-.68,0-.94-.29-.22.22-.45.44-.68.66-.29-.12-.58-.24-.91-.38-.61.83-1.11,0-1.65-.14-.52.13-.84.88-1.51.42-.13.58-.06,1.04.43,1.4.55.4,1.04.86,1.65,1.21.52.3.88,1.04,1.48,1.16.7.14,1.04.68,1.58.97.4.21.84.36,1.18.63.4.32,1,.26,1.3.74.52.01.68.53,1.03.75.43.27,1.06.36,1.32.73.41.56.87.67,1.47.7.23,0,.49.18.67.35.68.63,1.44.92,2.37.99.53.04,1.15.08,1.61.5.13.12.32.21.49,0,.23-.29.59-.31.88-.23,1.05.29,2.1.56,3.13.92.79.28,1.48.77,2.27,1.01.86.26,1.75.31,2.64.38.31.02.77.09.88.29.35.63.98.49,1.48.7,1.04-.36,1.99.3,3.01.3.5,0,1.04.42,1.48.32.71-.16,1.08.36,1.6.53.4.12.73.46,1.12.64.4.19.84.32,1.27.44.8.23,1.59.49,2.4.64.44.08.89-.09,1.26-.4.06-.05.24.02.36.04.54.1,1.03-.04,1.46-.35.22-.16.43-.3.7-.19.6.25,1.13-.08,1.7-.15.41-.55,1.24,0,1.66-.69.2-.34.74-.41,1.2-.3.62-.48,1.52.01,2.09-.62.13.13.26.26.39.39.26-.45.26-.42.74-.48.57-.06,1.14-.17,1.71-.25.41-.62,1.04-.19,1.56-.33.06-.02.13-.03.16-.07.46-.56,1.16-.48,1.76-.69.34-.67,1.29.12,1.61-.66.02-.06.25-.09.37-.06.55.15,1-.04,1.38-.4.35-.32.74-.48,1.2-.57,1.84-.36,3.67-.74,5.51-1.11.31-.06.65-.15.95-.09,1.07.21,2.03.04,2.91-.61.14-.1.37-.15.53-.11.79.21,1.52,0,2.28-.2.5-.13,1.02-.26,1.52-.22,1.17.09,2.29-.15,3.42-.38.45-.09.86-.05,1.32.02.68.1,1.41-.11,2.02.38.01.01.1-.07.15-.11.27-.25.55-.2.89-.13.61.13,1.26.26,1.86.18.66-.08,1.27-.19,1.84.24.49-.26,1.02-.27,1.57-.31.48-.04.94-.3,1.42-.39.6-.12.99-.84,1.72-.58.08.03.25-.08.31-.16.28-.47.67-.69,1.2-.89.62-.23,1.32-.47,1.68-1.14l-.04.07c.89-.14,1.72-.36,2.55-.83.99-.57,2.07-1.05,3.25-1.18.15-.02.3.06.47.1-.09.19-.11.35-.21.41-.6.36-1.21.7-1.82,1.05-.22.12-.52.18-.65.36-.45.64-1.16.99-1.67,1.52-1.05,1.08-2.27,1.86-3.53,2.63-.62.38-1.33.61-2.01.48-.68-.13-1.26.04-1.9.11-.95.11-1.84.61-2.84.39-.19-.23-.38-.61-.74-.39-.3.19-.52.22-.86.12-1.18-.33-2.38-.37-3.58-.08-.83.2-1.64.23-2.48-.03-.47-.15-.99-.17-1.48-.25-.52.5-1.28.13-1.85.52-.23.16-.63.25-.89.17-.47-.15-.9-.05-1.33.03-.63.11-1.27.24-1.89.4-.57.14-1.1.29-1.7.07-.73-.27-1.09.62-1.74.63-.13,0-.3.09-.38.03-.42-.3-.81.1-1.23.02-.44-.08-.89-.08-1.36-.12-.18.12-.44.22-.61.4-.46.46-.95.59-1.58.4-.21-.06-.6,0-.7.14-.39.55-1.12.33-1.52.73-.47.46-1.08.37-1.62.55-.66.22-1.33.45-2.03.7-.13-.09-.47-.37-.51-.33-.64.6-1.68.21-2.26.97-.08.11-.47-.02-.73-.03-.33.36-.77.68-.64,1.29.51.2,1.21.02,1.35.82.02.11.3.2.48.25.86.25,1.74.43,2.58.72.58.2,1.12.24,1.69.02.38-.15.73-.07,1.12.02.54.12,1.11.08,1.67.11.23-.39.73-.03.99-.38.28-.37.67.04,1.06-.13.84-.37,1.8-.43,2.59-.96.33-.23.69-.27,1.1-.22.62.08,1.25.06,1.87.08.95-.65,2.1-.53,3.14-.84.7-.21,1.38-.1,2.09-.03.86.08,1.73.22,2.59.24.79.02,1.5.07,2.19.46.16.09.37.09.55.16.44.18.84.22,1.25-.13.31-.27.69-.23,1.1-.11.8.25,1.62.4,2.42.66.38.12.58-.12.87-.19.28-.07.64.03.92.16,1.09.54,2.25.52,3.38.31.92-.17,1.93.28,2.76-.41.57,0,1.14,0,1.71.02.18,0,.39.11.52.04.33-.19.62-.45.93-.68.51.24.88-.16,1.2-.37.61-.42,1.26-.61,1.96-.75.94-.19,1.85-.42,2.57-1.12.08-.07.22-.07.32-.12.51-.22,1.02-.44,1.52-.68.46-.21.91-.44,1.37-.65.5-.23.95-.72,1.51-.64.81.13.8-.76,1.36-.91.36-.1.71-.46,1.03-.42.69.09,1.21-.23,1.82-.42,1.64-.49,1.67-.41,2.63-1.22.38-.32.83-.52,1.24-.44.53.1.66-.14.79-.51.39.12.74.13,1.05-.21.17-.18.41-.3.62-.45.63-.44,1.33-.63,2.1-.7.77-.07,1.52-.28,2.28-.43.61-.65,1.61-.42,2.26-.99.68-.59,1.6-.42,2.38-.73.31-.12.55-.38.82-.45.7-.18,1.27-.94,2.11-.55.56-.14,1.12-.28,1.67-.44.07-.02.1-.21.14-.32l-.04.07Zm-183.91-7.73c-.18-.03-.36-.09-.54-.08-1.11.06-1.71-.04-2.46-.32-.29-.11-.62-.09-.92-.15-.31-.06-.65-.08-.93-.21-.27-.13-.46-.44-.73-.56-.28-.12-.63-.07-.93-.17-.16-.05-.32-.24-.38-.41-.2-.61-.78-1.02-.87-1.69-.02-.15-.2-.37-.34-.41-.87-.22-.16-.87-.42-1.36-1.2-.7-2.1-1.85-3.05-2.97-.49-.59-1.06-1.11-1.6-1.67.03-.19.08-.43.11-.63-.09-.11-.12-.17-.17-.21q-1.33-.95-2.79-3.13c-.14-.21-.3-.55-.47-.57-.68-.07-.84-.74-1.29-1.07-.47-.35-.69-1.05-1.01-1.59-.1-.16-.15-.4-.3-.47-.79-.39-1.23-1.07-1.62-1.81-.29-.53-.77-.88-1.33-1.07-.32-.11-.6-.22-.69-.58-.11-.42-.42-.69-.81-.74-.43-.05-.7-.27-.99-.54-.23-.22-.45-.46-.73-.61-.79-.42-1.6-.8-2.4-1.19-.68.3-.69.32-1.01.15-1.13-.58-2.25-1.14-3.6-.92-.17.03-.4-.27-.62-.43-.21.12-.45.21-.63.38-.39.38-.81.6-1.38.5-.15-.03-.35.07-.48.16-.48.36-1.34.17-1.48,1.04,0,.01-.37-.09-.53-.03-.47.15-.43.92-1.08.92-.11,0-.22.27-.32.42-.11.15-.18.4-.31.43-.48.12-.73.45-1,.83-.48.68-.87,1.43-1.57,1.94-.14.1-.3.32-.29.47.02.67-.44,1.04-.81,1.48-.37.42-.8.85-.99,1.35-.16.44-.31.81-.71,1.08-.39.27-.63.64-.54,1.16.02.11,0,.29-.08.35-.75.63-1.34,1.35-1.49,2.37-.03.2-.33.37-.53.53-1.41,1.16-1.94,2.9-2.85,4.39-.03.05-.06.13-.05.18.16.69.1,1.37,0,2.06.33.3.33.64.21,1.05-.08.26.02.54.29.65.31.12.51.33.74.56.65.66,1.29,1.41,2.42,1.08.18-.05.46.2.67.34.25.16.45-.45.77.01.24.34.83-.15,1.16.25.04.04.12.08.18.07.34-.07.71-.1,1.02-.24.47-.2.37.48.73.42.57-.09,1.14-.21,1.7-.32.34-.06.63.01.85.3.05.06.24.09.31.04.4-.27.64-.19.95.2.34.42.85-.19,1.27.03.64.35,1.38.05,2.03.32.71-.28,1.39.06,2.09.09.63.03,1.31.04,1.86.29.69.31,1.37.02,2.05.21.7.19,1.29.57,1.93.84.12-.03.27-.03.36-.1.69-.54,1.35-.52,2.15-.16.62.28,1.36.31,2.05.44.1.02.25,0,.31-.08.34-.38.69-.18,1.06-.07.34.11.78-.13,1.02.34.11.21.29.16.45.02.31-.27.65-.34,1.07-.21.61.19,1.24.31,1.86.46.93.23,1.86.37,2.83.33.68-.03,1.37.22,2.08.05.21-.05.48.12.72.19,1.3.35,2.6.69,3.96.45.89-.16,1.78-.4,2.51.42.29-.06.58-.13.86-.19.43.69,1.13.06,1.68.35.36.19.91.02,1.28.2.52.26,1.15-.21,1.48.14.39.42.78.13,1.14.26.69.24,1.38-.3,2.09.05.73.37,1.51.05,2.27.06.37,0,.79.13,1.08.34.28.2.39.37.76.12.29-.19.75-.27,1.1-.21.75.14,1.47.41,2.21.63.17.05.42.15.5.08.45-.38.82-.18,1.23.06.36.21.73.22,1.07-.06-.44-.88-1.12-1.65-1.2-2.7-.02-.22-.27-.42-.41-.63-.32-.47-.65-.95-.97-1.42-.43-.09-.85-.2-1.29-.28-.43-.07-.88-.09-1.31-.16-.24-.04-.5-.11-.7-.24-.6-.4-1.09-.18-1.62.24-.47-.4-1.22-.31-1.63-.92-.06-.1-.4-.14-.5-.06-.59.43-1.05.18-1.48-.23-.3-.29-.56-.23-.82.02-.21.21-.42.27-.69.13-.22-.11-.45-.23-.57-.29-.4.15-.69.33-1,.37-.42.06-.29-.27-.25-.53Zm56.33,12.65c-.03.19-.14.43-.06.55.26.44.5.86.37,1.39.49.4.41,1.08.75,1.53.24.3.08.6.15.88.09.35.38.65.49,1,.07.22-.14.54-.05.73.13.27.45.44.62.7.3.48.66.97.8,1.5.17.66.47,1.15,1,1.58.28.22.58.61.58.93,0,.72.74.33.92.71.03.06.1.09.13.14.45.77.99,1.5,1.31,2.31.24.61.68.68,1.16.84.49-.27.68-.93,1.37-.97.21-.01.41-.28.59-.46.62-.6,1.01-1.24.76-2.21-.24-.91-.57-1.85-.32-2.84.07-.29-.17-.45-.27-.67-.3-.63-.56-1.28-.82-1.92-.02-.05.02-.12.05-.18.21-.58-.11-.94-.45-1.35-.45-.54-.94-1.11-1.15-1.75-.29-.88-.64-1.39-1.63-1.05-.06.02-.14.03-.19,0-.27-.14-.52-.39-.79-.43-.27-.03-.61.28-.86.21-1.46-.43-2.99-.57-4.44-1.17Zm32.56,9.79c-.29.51-.56.95-.78,1.4-.11.22-.18.48-.2.73-.04.57,0,1.14-.04,1.7-.03.48-.12.92.21,1.39.44.62-.71.88-.45,1.52.02.06,0,.13.03.19.19.48-.29.66-.49,1.06.09.44.31.95.26,1.44-.05.49.01.97.03,1.45.03.89-.09,1.78.02,2.65.15,1.21.47,2.4.73,3.6.05.25.1.52.23.73.44.76.89,1.5.89,2.43,0,.17.32.37.52.52.21.15.57-.03.56-.28-.03-1.31.29-2.52.94-3.65.06-.11.18-.29.15-.35-.43-.6.26-1.27-.03-1.74-.37-.59.06-.78.27-1.11-.34-.35-.47-.75-.36-1.24.11-.49.02-1.11.29-1.47.48-.66-.38-1-.19-1.57.2-.59.11-1.29.35-1.85.33-.78.57-1.51.33-2.36-.06-.21.07-.51.2-.72.27-.41.59-.79.91-1.2-.15-.27-.31-.54-.46-.8.03-.07.05-.13.08-.19.02-.03.27-.98.27-1.03.04-.48-.39-.51-.64-.52-.72-.03-1.4-.03-1.93-.65-.12-.14-.46-.1-.71-.11-.32,0-.63.03-.99.05Zm-53.19-6.22c.11-.06.22-.18.33-.17.67.08,1.09.54,1.51,1.01-.23.43.08.56.38.69.18.08.44.08.53.2.48.7,1.04.55,1.68.25,0-.19.07-.4.01-.56-.2-.54.11-1.26-.42-1.63-.63-.43-.15-1.06-.42-1.55-.47-.85-.36-1.88-.77-2.75-.63-.71-1.4-1.16-2.35-1.22-1.15-.07-2.26-.32-3.37-.59-.21-.05-.47.08-.78.15.75.93.58,1.97.68,2.98,1.12.46,1.72,1.61,2.84,2.06-.13.13-.26.26-.39.39.18.25.37.5.55.76Zm33.88,12.13c-.01-.2,0-.39-.04-.58-.32-1.34-.24-2.68.16-3.97.2-.64-.27-1.45.52-1.93.06-.03.05-.25,0-.36-.31-.84.07-1.65.11-2.47.02-.38.17-.74.23-1.12.06-.35.33-.67.13-1.03-.34-.22-.78.19-1.06-.3-.22-.38-.69.24-.99-.12-.37-.43-.96.18-1.34-.29-.09-.11-.34-.23-.45.11.22.42.39.92.7,1.3.42.51-.01,1.12.3,1.62.16.26.21.59.32.88.11.29.3.57.35.87.06.37-.07.79.05,1.13.14.41.41.78.44,1.22.02.31.03.63-.02.94-.11.67-.26,1.33-.38,1.98-.31.02-.55.04-.79.06-.09.49.02,1.01-.61,1.29-.39.17-.67.58-1,.88-.36.33-.45.99-.23,1.39.36.66.95,1.06,1.61,1.29.41.14.89.05,1.28-.24q.4-1.57.18-2.53c.17-.01.33-.02.52-.03Zm-31.5-20.92c-.87-.72-1.82-1.29-3.05-1.31-.49,0-.97-.28-1.45-.43-.24-.08-.48-.23-.72-.22-.73.02-1.36-.24-2-.55-.49-.24-.5-.21-.82.3.09,1.38,1.22,1.86,1.63,2.73.55.04,1.01-.02,1.43.11,1.28.4,2.62.49,3.92.81.11.03.24-.05.37-.09.33-.38.75-.71.69-1.35Zm216.69.17c-.07-.07-.13-.15-.2-.22-.03.05-.09.11-.08.15.03.1.1.2.16.29.04-.08.08-.15.12-.23Zm1.56-.05s-.09-.08-.13-.11c-.03.05-.09.09-.1.15-.04.21.13.41.21.28.05-.08.02-.21.02-.32Zm3.28-49.59s-.07.07-.1.11c.07,0,.15-.01.22-.02-.04-.03-.08-.06-.12-.09Zm-202.76,51.06l-.05.15h.13s-.08-.15-.08-.15ZM38.57,62.96l.14.05v-.14s-.14.08-.14.08Zm122.16,57.19l.12.05v-.11s-.12.07-.12.07Zm61.88-6.63l-.24.05s.08.08.12.08c.03,0,.07-.07.12-.13Zm87.75-8.63s-.1-.1-.12-.09c-.16.07-.15.15.02.19.03,0,.07-.07.1-.1Zm2.25,1.98l.06-.13h-.14s.08.13.08.13Zm-98.9,37.9l.05-.12h-.11s.07.12.07.12ZM113.21,23.63l-.12-.05v.12s.12-.07.12-.07Zm143.23,160.3l.12.05v-.13s-.12.08-.12.08Zm-28.38,10.5l.13.05v-.14s-.13.09-.13.09Z"/>
      <path class="cls-1" d="m244.71,210.71l.31.05s-.04.08-.06.13c-.07-.08-.14-.16-.21-.24l-.04.07Z"/>
      <path class="cls-1" d="m186.36,96.74c.33-.25.64-.62,1.03-.76.4-.15.72-.47,1.23-.47.4,0,.77-.32,1.26-.17.24.07.64-.11.86-.3.51-.42,1.29-.22,1.72-.8.05-.07.24-.03.37-.03.44,0,1.01.17,1.31-.04.58-.41,1.28-.55,1.85-.95.85-.59,1.74-1.1,2.8-1.15.15,0,.42.12.46.25.07.22.07.51-.03.71-.11.21-.35.37-.56.52-.39.28-.97.35-1.04.98-.78.28-1.39.82-2.04,1.31-.53.4-1.28.52-1.93.78-.29.12-.56.28-.85.41-.17.08-.38.24-.51.19-1.1-.41-2.13.58-3.22.12-.66.76-1.46.05-2.19.19-.22.05-.29-.1-.51-.79Z"/>
      <path class="cls-1" d="m300.93,56.24c-.03.1-.05.2-.08.31-.25-.25.06-.19.14-.27,0,0-.06-.04-.06-.04Z"/>
      <path class="cls-1" d="m203.68,109.64c-.1-.02-.21-.03-.31-.05l.06-.13c.07.08.14.16.21.25l.04-.07Z"/>
      <path class="cls-1" d="m239.22,107.19c-.11-.02-.21-.05-.32-.07.24-.26.21.03.28.14l.04-.07Z"/>
      <path class="cls-1" d="m88.83,96.8c.19.39.16.77-.13,1.07-.16.17-.41.31-.64.35-.44.06-.86-.29-1.32-.11-1.04-.68-2.39-.4-3.45-1.11-.38-.26-.99-.14-1.47-.28-.63-.18-1.28,0-1.89-.13-.61-.13-1.17-.53-1.84-.3-.43-.41-.97-.53-1.52-.65-.07-.02-.16-.22-.14-.32.02-.1.17-.18.26-.27l1.78-.07c1.29.34,2.65.13,3.95.44.74-.23,1.4.1,2.02.39.44.2.83.3,1.3.23.19-.03.44-.07.56.02.76.56,1.76.27,2.54.75Z"/>
      <path class="cls-1" d="m71.33,94.19c-.01.24-.23.46-.46.45-.62-.03-1.27-.07-1.77-.53-.08-.07-.13-.22-.11-.32.01-.11.09-.25.18-.3.16-.09.36-.17.54-.16.43.03.86.09,1.28.2.25.07.38.31.35.66Z"/>
      <path class="cls-1" d="m72.81,93.88c.41.11.82.23,1.23.34-.18.85-.44,1.11-.87.93-.53-.22-.62-.5-.36-1.27Z"/>
      <path class="cls-1" d="m336.49,62.77c.2-.92,0-1.87.64-2.59.12.02.25.01.34.07,1.07.63,1.23,1.1.78,2.14-.15.34-.31.68-.47,1.01l-.61.12c-.19-.22-.4-.45-.67-.75Z"/>
      <path class="cls-1" d="m339.99,67.55c-.67.12-1.2-.22-1.77-.4.14-.31.54-.48.42-.92-.06-.23-.07-.51,0-.73.04-.14.26-.25.42-.31.17-.06.43-.04.39.21-.08.56.55.84.49,1.38-.03.24.02.5.04.77Z"/>
      <path class="cls-1" d="m336.13,102.59c.21-.67.21-1.22.65-1.56.09-.07.24-.11.34-.08.1.03.21.15.25.26.24.6-.06,1.09-.41,1.52-.07.09-.44-.07-.83-.14Z"/>
      <path class="cls-1" d="m337.7,99.02c-.18.17-.34.32-.5.47-.06-.1-.16-.19-.17-.3-.02-.2.09-.35.3-.34.09,0,.19.08.37.17Z"/>
      <polygon class="cls-1" points="314.57 54.03 314.64 54.16 314.52 54.16 314.57 54.03"/>
      <path class="cls-1" d="m68.33,26.85c-.62.88-1.03,1.91-1.92,2.61-.1.08-.19.18-.26.29-.77,1.18-1.66,2.28-2.48,3.41-1.18,1.62-1.95,3.45-2.8,5.24-.08.17-.11.37-.2.54-1.08,1.98-1.56,4.19-2.36,6.28-.29.76-.74,1.5-.51,2.38-.29.99-.56,1.98-.88,2.96-.24.74-.5,1.45-.36,2.25.07.43-.09.9-.02,1.33.23,1.31-.79,2.46-.45,3.77.31,1.19.36,2.4.13,3.62-.07.37-.05.78.03,1.14.17.77.15,1.53.04,2.3-.1.7-.21,1.39,0,2.1.08.29-.03.63-.02.94.02.77-.28,1.52-.09,2.3.04.17-.06.37-.32.39-.24.02-.49-.21-.48-.47,0-.13,0-.26.02-.38.33-1.27.2-2.54-.04-3.8-.09-.45-.15-.9.02-1.34.26-.69.27-1.39.08-2.09-.2-.77-.06-1.54-.03-2.3.03-.78.07-1.54-.13-2.29-.19-.72-.12-1.4.12-2.08.3-.87.33-1.74.19-2.66-.14-.96.17-1.91.47-2.81.41-1.22.78-2.44.95-3.73.08-.56.28-1.12.54-1.62.55-1.04.8-2.17,1.08-3.29.26-1.01.59-1.95,1.16-2.82.17-.26.31-.56.4-.86.33-1.19.93-2.25,1.49-3.33.29-.57.5-1.22.91-1.69,1.32-1.5,2.39-3.2,3.74-4.67.55-.61,1.1-1.22,1.66-1.82.1.07.21.14.31.21Z"/>
      <path class="cls-1" d="m62.57,42.07c-.37-.57-.32-.92-.18-1.31.79-2.06,1.86-3.96,3.16-5.74.53-.73,1.09-1.45,1.54-2.23.81-1.41,1.97-2.54,2.99-3.77.57-.69,1.19-1.35,1.82-1.99.22-.22.52-.36.76-.56,1.11-.98,2.62-1.38,3.64-2.49.08-.09.22-.16.34-.18,1.09-.17,1.76-.97,2.45-1.7.83-.87,1.92-1.25,2.95-1.75.33-.16.62.03.84.31-.16.35-.3.75-.81.64-.25-.05-.55-.19-.72.04-.32.43-.96.34-1.22.87-.36.72-1.06,1.1-1.71,1.51-1.46.92-2.95,1.8-4.44,2.69-.66.4-1.28.81-1.75,1.46-.37.51-.85.97-1.36,1.36-.99.77-1.64,1.8-2.35,2.8-.78,1.1-1.42,2.29-2.4,3.26-.62.61-2.66,4.47-2.99,5.38-.15.42-.33.83-.56,1.4Z"/>
      <path class="cls-1" d="m122.03,18.43c.4,0,1.04,0,1.68.04,1.85.09,3.7.17,5.56.12.31,0,.65,0,.94.08,1.5.44,3.05.29,4.56.31.97.01,1.92.07,2.86.25.62.12,1.23.09,1.84.05,1.48-.11,2.93-.1,4.37.34.93.28,1.9.14,2.86.21.25.02.54-.14.76-.07,1.11.34,2.27.36,3.39.58.08.02.18.2.18.3,0,.09-.14.26-.2.26-.57-.04-1.13-.11-1.7-.16-1.27-.11-2.51-.45-3.81-.28-.43.05-.89-.05-1.33-.14-1.77-.35-3.56-.38-5.35-.39-.58,0-1.15-.05-1.72-.12-1.21-.15-2.38-.31-3.63-.13-1.04.15-2.16.03-3.23-.3-.6-.19-1.23-.3-1.89-.12-.56.15-1.14.12-1.73.03-.63-.1-1.29-.17-1.91-.1-.59.07-1.18-.18-1.71-.05-.63.15-1.28-.19-1.88.18-.02,0-.19-.15-.2-.25-.02-.1.04-.28.11-.31.3-.11.61-.18,1.16-.32Z"/>
      <path class="cls-1" d="m69.3,36.07c-.06.43-.15.8-.49,1.17-.52.56-.97,1.22-1.28,1.91-.46,1.01-.99,1.94-1.79,2.71-.42.41-.71.92-.76,1.52-.09,1.19-.67,2.18-1.28,3.17-.07.11-.23.2-.23.3-.02,1.65-1.03,3.01-1.31,4.58-.49.73-.53,1.59-.5,2.4.03.93-.32,1.76-.46,2.64,0,.06-.21.14-.31.13-.09-.02-.25-.15-.24-.23.14-2.49.29-4.98,1.5-7.25.12-.22.26-.48.26-.72-.06-1.55.89-2.77,1.37-4.13.13-.36.38-.68.46-1.05.27-1.32,1.04-2.35,1.86-3.34.2-.24.44-.41.5-.77.12-.71.41-1.32,1.03-1.79.4-.3.63-.8.96-1.2.07-.08.23-.12.35-.13.12,0,.24.06.37.09Z"/>
      <path class="cls-1" d="m106.25,16.34c.09-.24.12-.51.22-.54.36-.1.79-.26,1.12-.16,1.56.48,3.16.32,4.75.41.38.02.77.04,1.14.1.76.11,1.53.37,2.28.34.74-.04,1.51.08,2.23-.22.15-.06.37,0,.55.03,1.69.32,3.45.14,5.13.58,1.54-.2,3.04.22,4.56.34.7.06,1.38.14,2,.44,0,.48-.33.41-.53.42-.57.01-1.17.08-1.71-.07-1.75-.5-3.55-.33-5.32-.45-1.09-.07-2.15-.4-3.22-.43-1.08-.03-2.18.16-3.26.1-1.27-.07-2.53-.3-3.8-.46-.19-.02-.39-.13-.56-.09-1.3.28-2.54-.16-3.81-.23-.56-.03-1.12-.06-1.77-.1Z"/>
      <path class="cls-1" d="m103.19,12.11c-.14.16-.33.34-.48.55-.22.3-.55.43-.84.3-.9-.39-1.93-.49-2.69-1.18.01-.06.03-.12.04-.18l1.28-.64c.25.02.51,0,.75.06.36.11.62-.05.93-.29.68.4,1.37.89,2.25.85,2.76.87,5.66,1.06,8.44,1.85.91.26,1.89.29,2.83.45.24.04.46.19.71.29-.16.43-.53.39-.77.33-1.86-.46-3.78-.59-5.66-.93-2.27-.41-4.51-.88-6.79-1.46Z"/>
      <path class="cls-1" d="m20.56,68.73c.06-.42.03-.65.13-.76.52-.58,1.13-1.04,1.93-1.17.45-.08.9-.13,1.33-.25.52-.15,1.07-.15,1.51.08.7.36,1.48.38,2.18.69.41.18.91.26,1.23.54.96.85,2.26,1.21,3.13,2.19,1.15,1.29,2.46,2.42,3.69,3.64.54.54,1.08,1.09,1.37,1.83-.16.26-.4.42-.62.2-.54-.54-1.09-1.09-1.53-1.7-.49-.69-1.06-1.27-1.75-1.75-.57-.4-1.23-.73-1.45-1.49-.05-.15-.28-.26-.43-.38-1.18-.89-2.47-1.59-3.77-2.28-1.11-.59-2.32-.64-3.51-.74-.48-.04-1,.19-1.47.38-.59.24-1.14.57-1.95.98Z"/>
      <path class="cls-1" d="m36.34,77.76c.94.49,1.57.9,2.06,1.53.39.5.89.91,1.32,1.37,1.47,1.6,2.96,3.18,4.39,4.82.8.92,1.84,1.6,2.48,2.66.3.49.71.88.97,1.42.21.44.68.74,1.03,1.12.13.14.25.29.32.46.04.1,0,.32-.05.34-.15.06-.34.07-.51.04-.11-.02-.23-.13-.3-.23-1.81-2.48-3.97-4.66-6.03-6.92-.99-1.09-1.95-2.19-2.89-3.32-.49-.6-.98-1.19-1.6-1.65-.47-.35-.81-.79-1.19-1.64Z"/>
      <path class="cls-1" d="m151.08,21.76c1.74.11,3.32.33,4.91.22.5-.04,1.03-.01,1.52.1.46.1.88.07,1.33.04,2.1-.15,4.2.04,6.31.05.25,0,.5.1.75.16.14.03.31.37.22.45-.09.08-.2.2-.3.19-1.78-.07-3.55-.19-5.33-.23-1.02-.02-2.03.14-3.05.07-1.71-.12-3.44-.14-5.15-.24-.37-.02-.74-.19-1.1-.32-.06-.02-.05-.22-.11-.49Z"/>
      <path class="cls-1" d="m32.21,67.53c-1.25.11-2.09-.43-2.78-1.06-.46-.42-.93-.73-1.47-.71-.67.02-1.08-.24-1.45-.75-.12-.16-.38-.2-.67-.35.61-.26,1.12-.48,1.79-.76.78.39,1.69.84,2.6,1.3.93.47,1.54,1.22,1.99,2.33Z"/>
      <path class="cls-1" d="m12.5,76.72c-.08-.26-.19-.43-.16-.58.03-.18.15-.35.27-.5.7-.82,1.39-1.65,2.13-2.44.13-.14.45-.1.82-.16-.78,1.53-2.03,2.44-3.06,3.68Z"/>
      <path class="cls-1" d="m35.28,68.86c-.03.23-.08.48-.08.72,0,.15.32.29.11.44-.19.13-.51.25-.69.17-.67-.28-1.06-.84-1.28-1.52-.03-.1.01-.29.09-.34.14-.09.35-.18.48-.13.46.18.9.43,1.38.66Z"/>
      <path class="cls-1" d="m103.44,14.97c-.61-.16-1.18-.38-1.53-1.05.29-.09.57-.22.87-.28.3-.06.69-.14.88.16.25.42.18.85-.21,1.16Z"/>
      <path class="cls-1" d="m88.71,18.85c.03-.22.01-.37.07-.44.51-.56,1.17-.6,1.86-.51.04,0,.09.09.09.14,0,.11,0,.25-.05.33-.07.09-.2.15-.31.17-.54.11-1.08.21-1.66.32Z"/>
      <path class="cls-1" d="m72.82,31.22c-.16,1.28-.18,1.3-1.1,1.29.02-.69.64-.74,1.1-1.29Z"/>
      <path class="cls-1" d="m70.17,34.94c-.09-.21-.23-.39-.2-.54.06-.31.24-.6.61-.64.1-.01.26.04.31.12.05.09.06.28,0,.35-.2.24-.45.45-.72.71Z"/>
      <path class="cls-1" d="m19.83,69.07c-.11.21-.16.39-.27.53-.22.26-.5.37-.84.23-.04-.02-.09-.07-.1-.12-.04-.24.21-.51.61-.61.17-.05.37-.02.6-.03Z"/>
      <path class="cls-1" d="m49.57,92.31c.11.03.26.04.31.11.1.14.2.33.2.5,0,.13-.13.28-.25.37-.06.04-.27-.02-.31-.09-.1-.21-.17-.44-.2-.66,0-.06.16-.14.24-.22Z"/>
      <path class="cls-1" d="m147.43,22.2c-.03.05-.05.12-.09.15-.3.19-.8.07-.97-.26-.03-.05.09-.26.15-.26.24,0,.49,0,.73.07.09.02.13.19.19.3Z"/>
      <path class="cls-1" d="m38.11,77.9c-.21-.21-.42-.4-.6-.63-.04-.05.03-.3.09-.31.15-.04.39-.06.47.02.23.23.31.53.04.91Z"/>
      <path class="cls-1" d="m143.2,21.89c.26-.35.64-.34,1.02-.35.05,0,.16.06.16.08-.02.09-.04.23-.1.25-.35.12-.71.26-1.07.02Z"/>
      <path class="cls-1" d="m84,19.77c.19.23.29.36.39.48-.13.1-.25.23-.4.29-.04.02-.24-.15-.23-.22.01-.14.11-.28.24-.54Z"/>
      <path class="cls-1" d="m104.26,16.64c-.15-.24-.34-.41-.3-.5.05-.13.25-.23.4-.3.02-.01.21.19.2.26-.03.15-.15.29-.29.54Z"/>
      <path class="cls-1" d="m17.45,70.9c0,.12.02.31-.03.33-.15.07-.33.07-.5.1.03-.11.03-.24.1-.33.07-.1.19-.16.29-.22.02,0,.09.08.14.12Z"/>
      <path class="cls-1" d="m51.97,72.69c.03.14.06.29.1.43q-.37-.12-.1-.43Z"/>
      <polygon class="cls-1" points="31.68 75.36 31.75 75.47 31.63 75.48 31.68 75.36"/>
      <path class="cls-1" d="m65.27,60.08l-.31-.07c.24-.25.22.02.27.14l.04-.06Z"/>
      <path class="cls-1" d="m138.04,24.37c-.15.03-.29.06-.44.09q.14-.37.44-.09Z"/>
      <path class="cls-1" d="m85.67,19.22s.13.07.13.09c-.05.16-.14.18-.23.03,0-.01.07-.08.1-.12Z"/>
      <path class="cls-1" d="m224.14,153.36c-.48-.33-.95-.65-1.44-.98.56-.5,1.03-1.07,1.89-.91.09.12.21.26.33.41.31.4.34.49-.05.61-.45.14-.51.51-.73.88Z"/>
      <path class="cls-1" d="m226.52,155.25c-.56-.17-1.1-.33-1.63-.52-.09-.03-.17-.19-.18-.29,0-.1.08-.24.17-.28.58-.27,1.15-.62,1.84-.59.25.53.44,1.05-.2,1.69Z"/>
      <path class="cls-1" d="m220.12,195.6c.26.29.54.55.73.85.27.43,0,.88-.53.93-.29.03-.45-.13-.51-.4-.1-.51.11-.94.31-1.39Z"/>
      <path class="cls-1" d="m223.04,198.19c-.08.36-.14.67-.2.98-.39.24-.79.33-1.26.24.19-.85.6-1.32,1.46-1.21Z"/>
      <polygon class="cls-1" points="228.34 156.75 228.46 156.68 228.47 156.8 228.34 156.75"/>
      <path class="cls-1" d="m229.71,159.14c.08.05.13.08.17.11-.03.04-.07.08-.1.12-.02-.07-.04-.13-.07-.23Z"/>
      <path class="cls-1" d="m252.99,190.76c.03.15.07.29.1.44-.1-.03-.2-.06-.3-.09.07-.12.13-.23.2-.35Z"/>
      <polygon class="cls-1" points="221.17 198.64 221.07 198.69 221.07 198.59 221.17 198.64"/>
    </g>
  </g>
</svg>