<?xml version="1.0" encoding="UTF-8"?>
<svg id="_レイヤー_2" data-name="レイヤー 2" xmlns="http://www.w3.org/2000/svg" viewBox="0 0 233.46 171.77">
  <defs>
    <style>
      .cls-1 {
        fill: #987b5a;
      }
    </style>
  </defs>
  <g id="_レイアウト" data-name="レイアウト">
    <g>
      <path class="cls-1" d="m178.63,133.55c-1.56-.73-2.96-1.34-4.32-2.03-.85-.43-1.74-.77-2.4-1.58-.46-.57-1.19-.97-1.87-1.32-1.54-.79-3.09-1.54-4.53-2.55-.89-.63-1.85-1.25-2.83-1.69-1.03-.46-1.88-1.21-2.93-1.6-.19-.07-.37-.17-.53-.29-1.4-1.02-2.97-1.76-4.43-2.68-1.6-1.01-3.21-1.99-4.9-2.81-.04-.02-.07-.04-.1-.06-.35-.3-.71-.85-1.06-.84-.6.01-.86-.42-1.28-.61-.32-.14-.58-.4-.87-.61-.13-.1-.23-.25-.37-.3-.52-.17-1.15-.12-1.37-.8-.63-.02-.96-.53-1.42-.83-.54-.35-1.19-.51-1.74-.84-1.86-1.12-3.69-2.28-5.54-3.4-.96-.58-1.96-1.11-2.95-1.65-.56-.31-1.13-.59-1.69-.88-.07-.04-.21-.04-.22-.08-.27-.85-1.13-.84-1.73-1.2-1.65-.98-3.33-1.92-4.98-2.9-.74-.44-1.42-1-2.18-1.38-.8-.4-1.46-1.08-2.39-1.22-.11-.02-.22-.1-.31-.18-1.31-1.13-3.08-1.56-4.3-2.82-.06-.06-.13-.11-.2-.13-1.6-.38-2.78-1.55-4.22-2.24-.58-.27-1.11-.65-1.62-1.04-1.11-.85-2.36-1.45-3.61-2.05-.44-.21-.83-.51-1.23-.78-.13-.09-.22-.27-.35-.32-1.55-.62-2.77-1.81-4.25-2.49-1.99-.91-3.71-2.22-5.63-3.23-1.03-.54-2.06-1.08-3.08-1.63-.25-.13-.5-.26-.73-.42-1.08-.75-2.14-1.53-3.22-2.27-.26-.18-.63-.44-.86-.37-.87.26-1.45-.39-2.18-.57-.65-.16-1.27-.5-1.89-.77-1.37-.59-2.75-1.19-4.12-1.78-.14-.06-.27-.17-.42-.21-1.28-.33-2.47-.89-3.62-1.54-.34-.19-.82-.15-1.14-.35-1.41-.9-3.05-1.25-4.56-1.9-.59-.26-1.19-.51-1.75-.82-1.32-.74-2.92-.84-4.13-1.82-1.36.15-2.22-1.11-3.51-1.25-.45-.05-.94-.56-1.23-.99-.73-1.05-1.32-1.16-2.13-.2-.22.26-.38.5-.75.53-.19.02-.4.13-.54.26-.56.55-1.25.85-1.96,1.18-.49.22-.98.43-1.48.64-1.81.76-3.69.72-5.59.66-.44-.02-.89-.04-1.32-.08-1.34-.14-2.74-.05-3.91-.9-1.49.1-2.67-.75-3.92-1.36-1.27-.61-2.47-1.38-3.73-2.03-1.48-.76-2.68-1.83-3.78-3.05-.31-.35-.74-.63-1.15-.87-1.5-.87-2.51-2.23-3.64-3.48-1.25-1.4-2.47-2.83-3.67-4.28-.33-.4-.57-.88-.84-1.33-.64-1.06-1.27-2.1-2.12-3.04-.8-.89-1.25-2.08-1.88-3.13-.56-.93-1.16-1.84-1.72-2.77-.55-.91-1.06-1.83-1.61-2.74-.42-.7-.74-1.46-1.36-2.03-.26-.24-.44-.58-.6-.9-.3-.61-.41-1.33-1.11-1.71-.21-.11-.21-.56-.36-.82-.75-1.25-1.82-2.26-2.43-3.63-.4-.88-1.22-1.56-1.82-2.36-.38-.51-.65-1.11-1.02-1.62-.87-1.2-1.72-2.42-2.67-3.56-.36-.43-.32-.95-.66-1.41.92.34,1.78.35,2.64.05,1.45.41,2.98.16,4.43.46.71.15,1.39-.12,2.02.04.65.16,1.29.11,1.91.23,1.01.19,2,.03,3.01.06.2,0,.43-.06.6.01.83.37,1.7-.02,2.49.13,1.33.25,2.63-.18,3.95.05.59.1,1.2.1,1.79.09,2.29-.03,4.58-.09,6.87-.13,1.06-.02,2.13-.11,3.17.02.63.08,1.23.26,1.89.22.93-.06,1.86-.05,2.79.03,1.25.11,2.49.28,3.73.48,1.11.18,2.2.54,3.31.61,1.61.11,3.03.76,4.51,1.26.41.14.82.31,1.25.41,1.66.39,3.15,1.14,4.61,2,.44.26.95.42,1.42.63.15.06.32.1.45.19,1.26.87,2.57,1.67,3.73,2.65.73.62,1.49,1.25,2.1,2.01.63.78,1.25,1.58,1.83,2.4.49.69.86,1.46,1.37,2.12.96,1.27,1.28,2.78,1.63,4.25.22.96.11,2,.14,3,0,.04-.02.08-.02.12.01.73.19,1.46-.21,2.3.5-.2.83-.32,1.18-.46.81.55,1.78.95,2.35,1.67.63.8,1.55,1.07,2.26,1.69.87.76,1.79,1.48,2.71,2.19.42.32.92.52,1.34.84,1.54,1.2,3.06,2.43,4.6,3.64.59.46,1.23.86,1.84,1.31,1.02.76,2.03,1.52,3.03,2.3.89.69,1.76,1.41,2.67,2.08,1.2.88,2.46,1.67,3.62,2.58.41.32.63.9.99,1.45,1.11.65,2.35,1.39,3.59,2.12,1.29.75,2.6,1.48,3.88,2.23.55.33,1.07.71,1.62,1.04,1.19.72,2.39,1.43,3.59,2.14,1.33.77,2.68,1.51,4,2.3,1.25.75,2.45,1.58,3.7,2.33.55.33,1.23.47,1.71.87.87.73,2.02.99,2.83,1.84.32.34.95.38,1.39.64,1.2.71,2.37,1.47,3.56,2.19.55.33,1.15.6,1.71.91,1.64.93,3.15,2.1,4.79,2.99,1.14.62,2.21,1.45,3.51,1.78.11.03.21.11.32.18,1.28.84,2.54,1.7,3.83,2.51.82.51,1.69.94,2.53,1.42,1.15.65,2.31,1.29,3.45,1.96.72.42,1.4.91,2.12,1.33,1.31.78,2.66,1.51,3.96,2.31,1.92,1.17,4,2.04,5.81,3.41.79.6,1.76.96,2.62,1.48,1.42.86,2.82,1.77,4.23,2.66.31.19.59.49.93.56.91.2,1.55.82,2.31,1.27,1.25.73,2.53,1.43,3.79,2.15.77.45,1.52.93,2.29,1.39,1.16.69,2.33,1.37,3.48,2.06.41.25.8.53,1.22.77.49.27,1,.51,1.5.76.25.13.57.2.74.4.44.51,1.06.7,1.61,1.02.72.42,1.41.9,2.14,1.31,1.48.83,2.98,1.63,4.46,2.45.53.29,1.06.58,1.66.91.44-.58.86-1.17,1.04-1.93.52-2.15.52-4.29.05-6.45-.32-1.5-.92-2.87-1.68-4.18-.04-.07-.1-.13-.14-.2-.3-.6-.47-1.34-.94-1.76-.53-.48-.84-1.06-1.24-1.6-1.04-1.42-2.43-2.43-3.85-3.42-.69-.48-1.41-.94-2.18-1.3-.75-.36-1.56-.7-2.37-.82-1.54-.22-3.01-.77-4.6-.8-1.69-.03-6.29.42-7.59.92-1.09.42-2.22.72-3.33,1.08-.19.06-.41.1-.56.22-.79.66-1.74.52-2.64.49-1.35-.05-2.17-1.22-1.64-2.4.29-.66.89-1.11,1.63-1.31,1.68-.45,3.35-.98,4.92-1.65,1.83-.78,3.73-1.23,5.6-1.79,1.61-.48,3.21-1.03,4.84-1.43,1.71-.42,3.45-.69,5.17-1.04.54-.11,1.09-.23,1.62-.4,1.48-.47,3-.49,4.53-.61.48-.04.95-.24,1.42-.26,1.12-.04,2.25-.02,3.37-.03.36,0,.73-.04,1.09-.09.76-.11,1.52-.28,2.25.14.46.27.93-.09,1.38-.04,1.03.12,2.05.3,3.08.46.34.05.69.11,1.03.2.26.07.51.17.76.27.15.06.29.21.44.2,1.1-.02,1.92.83,2.96.98.15.02.31.1.43.19,1.09.78,2.17,1.58,3.26,2.36.66.48,1.21,1.06,1.61,1.78.11.19.31.34.46.5.19.21.42.39.55.63.72,1.39,1.42,2.79,2.12,4.19.09.18.15.39.17.58.07,1.05.57,1.98.86,2.97.18.61.21,1.26.3,1.89.04.28.07.55.11.83.09.59.26,1.18.03,1.79-.06.15.04.36.07.54.03.15.13.31.12.46-.06,1.11,0,2.25-.26,3.31-.19.78-.18,1.6-.55,2.38-.38.8-.36,1.8-.76,2.59-.57,1.13-.63,2.51-1.64,3.42-.09.08-.21.19-.21.29,0,1.05-.82,1.72-1.23,2.58-.47,1-1.26,1.86-1.97,2.73-.57.71-1.21,1.35-1.88,2.09.32.26.53.52.8.65.58.27,1.13.51,1.6,1.02.31.35.95.38,1.41.63,1.01.55,2,1.16,3,1.73.79.45,1.6.87,2.39,1.33.73.42,1.45.88,2.16,1.33,1.04.66,2.05,1.37,3.11,2.01.89.54,1.84.98,2.75,1.5.55.31,1.07.69,1.61,1.01,1.7,1.02,3.37,2.09,5.12,3.03,1.88,1.02,2.37,1.63,3.62,3.56.64.99.49,2.11,1.01,3.06-.14,1.48-.33,2.96-1.29,4.19-.17.21-.42.36-.65.52-.2.13-.47.19-.62.36-.79.9-1.91,1.17-2.98,1.44-.84.21-1.74.17-2.62.22-.15,0-.36-.05-.44-.16-.31-.41-.77-.39-1.19-.49-.26-.06-.68-.18-.73-.35-.2-.7-.82-.7-1.3-.96-1.39-.76-2.76-1.56-4.14-2.35-.83-.47-1.63-1-2.46-1.47-1.54-.88-3.14-1.68-4.53-2.84-.62-.51-1.5-.7-2.23-1.09-1.31-.71-2.71-1.33-3.87-2.25-.77-.62-1.67-.92-2.45-1.46-.86-.6-1.79-1.12-2.68-1.68-.84-.54-1.72-1.01-2.55-1.59-1.1-.78-2.35-1.33-3.52-2.01-.54-.31-1.07-.3-1.63-.1-1.17.42-2.32.93-3.53,1.22-1.1.26-2.2.53-3.33.67-1.11.14-2.23.21-3.34.33-1.27.15-2.54.05-3.81.13-1.65.11-3.33-.05-4.98-.23-1.51-.17-3-.5-4.49-.84-.98-.22-1.94-.54-2.87-.92-.79-.33-1.54-.78-2.28-1.22-.37-.22-.72-.49-1.03-.78-.89-.84-.75-2.23.37-2.86,1.22-.69,2.49-1.18,3.96-1.3,2.55-.2,5.07-.63,7.61-1,.73-.11,1.46-.29,2.17-.51.7-.23,1.38-.54,2.06-.85.16-.07.26-.27.52-.56ZM15.79,32.15c-.06.05-.13.09-.19.14.05-.05.1-.1.15-.16.04-.09.08-.17.12-.26-.05,0-.11,0-.16-.01.03.1.05.2.08.29Zm5.88,7.17s-.09.04-.14.06c0-.03,0-.07,0-.1.05,0,.11.02.16.02-.05-.02-.1-.05-.15-.07.05-.02.1-.05.15-.07,0,.05-.02.11-.02.16Zm11.04,6.56c.07-.03.17-.04.2-.1.04-.07.03-.17.04-.26-.04.05-.1.1-.13.16-.04.07-.05.14-.08.22-.02.07-.05.14-.05.22,0,.06.05.11.07.17.03-.08.08-.16.07-.23,0-.06-.08-.12-.13-.17Zm-.19,17.19c.13-.02.27-.05.4-.07l-.03-.09-.38.17c.02.07.03.13.06.19.01.03.05.05.08.08-.02-.03-.04-.06-.06-.1-.03-.06-.05-.13-.07-.19Zm166.85,54.86c-.09.02-.18.04-.04,0-.13.06-.04.02.05-.02-.01-.14-.03-.29-.04-.43-.01,0-.03,0-.04,0,.02.15.05.29.07.44ZM35.9,64.91c-.35-.24-.47,0-.57.27-.09.21-.18.43-.27.64.06.01.13.02.19.03.02-.23.04-.46.06-.69.26.06.51.1.56-.27.04-.07.08-.15.12-.22-.03-.01-.07-.02-.1-.03,0,.09,0,.18,0,.26Zm-3.42-34.12c-.08-.17-.16-.34-.24-.5-.05.04-.11.08-.16.13.13.12.27.25.4.37-.21.1-.42.2-.63.29-.21-.03-.48-.24-.52.19-.01.14-.02.31-.1.4-.79.9-1.2,1.95-1.36,3.11.43.19.53-.07.65-.35.27-.63.59-1.24.84-1.88.19-.48.31-.99.47-1.49.22-.09.44-.18.65-.27Zm173.76,96.59c.06-.12.12-.23.18-.35l-.11-.02c-.01.13-.02.26-.03.38-.01.23-.02.46-.03.68-.25.09-.63.11-.72.28-.71,1.33-1.79,2.43-2.36,3.83-.38.92-1.15,1.63-1.36,2.64-.07.07-.14.14-.21.21.03.01.07.03.1.04.02-.09.05-.18.07-.27.99-.47,1.67-1.21,2.07-2.24.25-.64.59-1.24.92-1.84.4-.74.95-1.39,1.08-2.26.02-.15.27-.26.41-.39,0-.23,0-.46,0-.69Zm-.9-8.19c-.2,0-.41,0-.81-.02.35.26.53.4.72.54-.27.05-.55.1-.91.16-.49.96-.93,1.98-1.51,2.93-.62,1.01-1.13,2.06-1.69,3.1-.19.35-.44.66-.63,1.01-.53,1-1.03,2.01-1.55,3.01-.21.39-.49.75-.64,1.16-.16.43-.57.76-.68,1.1-.38,1.16-.85,2.22-1.67,3.14-.15.17-.18.44-.25.67-.1.33-.13.71-.31.99-.43.64-.65,1.4-1.24,1.95-.31.29-.19.68.46.85.38-.39,1.07-.79,1.18-1.31.24-1.08.94-1.92,1.3-2.93.59-1.63,1.59-3.11,2.36-4.68,1.11-2.25,2.16-4.51,3.24-6.77.26-.54.5-1.08.76-1.62.37-.76.72-1.53,1.13-2.27.12-.22.42-.33.63-.49-.1-.19-.27-.39.08-.52-.03-.16-.05-.32-.08-.48-.05.02-.11.04-.16.06.08.14.17.28.25.42ZM68.48,53.46c.21-.04.59.09.36-.37-.13.13-.26.27-.39.4.02.05.04.11.06.16,0-.06-.02-.12-.03-.18Zm-53.08-11.65c.19-.19.52-.29.43-.68-.49.07-.44.39-.39.7-.42-.03-.54.17-.4.56-.29-.15-.56-.2-.57.24,0,.21.1.43.17.7.72-.17.62-.54.37-.96.44.03.54-.18.39-.56Zm188.32,87.9c.18-.42.45-.82.18-1.3.62-.06.65-.11.31-.6.29.17.48.16.63-.22.1-.25.38-.45-.05-.63.15-.05.37-.05.45-.16.58-.75,1.32-1.46,1.64-2.31.28-.74.75-1.32,1.12-1.98.69-1.22,1.5-2.36,2.26-3.54.41-.63.83-1.26,1.2-1.91.32-.56.66-1.13.83-1.74.21-.73.13-1.5-.38-2.15.04.92-.93,1.38-1,2.27-.01.16-.4.42-.58.74-.48.85-.69,1.82-1.25,2.63-.49.71-.97,1.44-1.38,2.2-.66,1.22-1.31,2.45-1.86,3.73-.32.75-.94,1.37-.99,2.23-.19.29-.37.58-.56.86-.11.2-.22.4-.32.6-.49.36-.47.8-.21,1.28l-.41-.07s0,.06-.01.1c.14,0,.28-.02.42-.03ZM21.67,50.38c0,.27-.01.54-.02.98.45-.5.19-.74.02-.99.19.03.37.07.66.12l-.16-.63c.77-.4.91-1.27,1.42-1.87.33-.39.53-.86.63-1.39.07-.37.25-.69.49-1.04.61-.86,1.04-1.85,1.52-2.8.47-.93.77-1.97,1.39-2.78.81-1.06.89-2.27,1.12-3.47.02-.12-.06-.25-.14-.58-.45.82-.8,1.44-1.13,2.07-.55,1.08-1.11,2.16-1.63,3.26-.59,1.25-1.12,2.52-1.69,3.77-.61,1.35-1.26,2.68-1.86,4.03-.11.24-.07.54-.09.81-.18.16-.36.33-.53.49Zm179.09,70.67c.07-.22.16-.44.21-.67.04-.18.02-.36.03-.55.37.05.47-.23.6-.49.88-1.71,1.77-3.42,2.67-5.12.09-.17.24-.36.41-.44.49-.26.63-.68.7-1.18.04-.26.17-.52.3-.75.4-.74.84-1.46,1.21-2.22.13-.27.11-.61.16-.91.67-.12.82-.32.84-1.16-.72.11-.83.6-.81,1.18-.14.06-.35.09-.42.2-.33.49-.65.99-.94,1.5-.93,1.65-1.85,3.3-2.72,4.98-.19.37-.63.72-.62,1.07,0,.77-.47,1.27-.82,1.81-.32.5-.49.98-.52,1.54-.27.36-.84.65-.27,1.2l-.5.21s.04.06.06.09c.15-.1.29-.2.44-.29ZM18.84,34.78c.05-.25.1-.5.14-.76.03-.18.04-.35.06-.53.65-.23.92-.73.99-1.37,0-.03-.05-.06-.07-.09.35-.08.54-.26.28-.68-.09.23-.17.47-.26.7-.18.12-.44.21-.53.38-.18.34-.26.72-.38,1.09q-.61.68-.23,1.27c-.13-.01-.26-.03-.4-.04,0,.04,0,.08,0,.11.13-.02.27-.05.4-.07Zm1.23,8.18c-.55.07-.79.38-.63.99.2-.34.4-.67.6-1.01,0-.12-.01-.24-.02-.35-.05.02-.11.03-.16.05.07.11.14.21.21.32Zm-6.03-8.19c-.29.1-.67.14-.4.69.31-.16.77-.16.35-.7.23-.15.65-.19.32-.75-.12.31-.2.54-.28.76Zm11.58-8.23c-.45.26-.62.7-.73,1.18-.8.81-1.34,1.79-1.82,2.81-.08.18-.17.36-.29.52-.3.41-.7,1.36-.8,1.95-.24.29-.49.58-.81.96.33.06.52.1.79.15,0-.43-.01-.79-.02-1.14.2-.12.48-.19.59-.37.51-.79.97-1.6,1.45-2.42.24-.41.47-.83.7-1.26.21-.39.46-.78.17-1.24.81-.26.85-.33.73-1.18l.22-.14s-.07-.03-.07-.03c-.04.06-.07.13-.11.2Zm-4.8,3.36q.7-.04.55-.95c-.24.43-.38.69-.53.96.03.15.06.29.09.44.04-.02.08-.03.12-.05-.08-.13-.15-.27-.23-.4Zm189.54,92.93c-.38.41-.78.82-.58,1.6.37-.57.91-.94.54-1.62.17-.21.57-.31.28-.9-.11.42-.18.67-.24.92ZM16.41,46.4c.88-.15.92-.21.81-1.09-.3.4-.56.75-.82,1.1.03.06.05.13.09.18.02.03.05.05.07.08-.02-.03-.05-.06-.06-.09-.03-.06-.06-.12-.09-.19Zm-5.75-13.63c-.63.31-.84.93-1.09,1.52.7-.28.85-.93,1.08-1.54-.02-.03-.03-.06-.04-.09,0-.03-.01-.05-.02-.08.02.07.05.13.07.2Zm75.95,43.85c-.66.2-.84.56-.65,1.39.64-.29.58-.86.62-1.4,0-.06-.01-.13-.02-.19.02.07.03.14.05.2Zm116.76,23.47c-.65.36-.71,1-.79,1.63.52-.42.81-.96.76-1.64.54-.03.84-.27.55-.93-.17.32-.35.63-.52.95ZM63.6,67.72c.58-.51,1.07-1.47,1.18-2.32.36-.09.39-.37.36-.67-.23.17-.54.3-.34.68-.64.65-1.13,1.37-1.18,2.32-.07.02-.17.02-.21.07-.07.07-.12.18-.15.28,0,.02.09.08.14.12.07-.09.15-.17.19-.26.03-.06,0-.15,0-.22Zm141.31,33.68c.19-.1.47-.16.57-.32.37-.6.7-1.23,1.02-1.86.05-.09-.03-.25-.06-.45q-1.09,1.17-1.49,2.65c-.04.13-.09.26-.13.39.04,0,.07,0,.11,0,0-.13,0-.27-.01-.4ZM75.44,60.83c-.56.04-.89.28-1.14.85-.48,1.08-1.13,2.1-1.72,3.17.1-.01.26.01.3-.05.5-.72.99-1.45,1.48-2.18.39-.57.41-1.37,1.05-1.8.55-1.1,1.11-2.21,1.66-3.31.13-.25.31-.52-.2-.69-.62,1.16-1.25,2.32-1.91,3.55.14.13.31.29.48.45Zm120.96,37.1c.2-.11.47-.18.59-.35.57-.82,1.11-1.66,1.68-2.53-.46-.12-.83-.26-1.07.27-.36.77-.77,1.51-1.14,2.27-.05.1-.02.24-.03.36,0,.07,0,.14,0,.22,0,.01.04.02.07.03-.03-.09-.07-.18-.1-.27Zm-4.27,37.56c-.28.31-.6.6-.84.94-.25.35-.38.8-.67,1.11-.32.35-.07.78-.37,1.2-.59.81-.96,1.79-1.38,2.72-.07.16.03.41.09.89.4-.44.69-.66.84-.96.38-.75.7-1.52,1.04-2.29.29-.65.49-1.35.87-1.95.35-.54.43-1.08.39-1.68.37.1.5-.12.6-.42.17-.47.37-.93.55-1.4-.56.03-.96.67-1.13,1.84Zm-4.88-6.68c-.33.45-.73.87-.96,1.36-.75,1.59-1.43,3.21-2.13,4.82-.49,1.15-.97,2.31-1.45,3.46.24-.01.37-.1.43-.21.63-1.2,1.42-2.36,1.83-3.64.26-.81.81-1.39,1.08-2.16.38-1.09.92-2.12,1.36-3.18.04-.1-.11-.28-.17-.43.13-.05.26-.1.38-.15,0,0,0-.01,0-.02-.12.05-.25.1-.37.16Zm-105.48-56.53c.89-1.11,1.17-2.55,2-3.72.63-.89.97-1.99,1.41-3.01.22-.5.39-1.03.52-1.57.05-.18-.09-.41-.19-.8-.29.35-.51.53-.62.76-.33.66-.64,1.33-.93,2-.86,1.98-1.71,3.97-2.56,5.95.17.16.29.28.4.39q-.69.24-.7,1.12c.31-.52.49-.83.67-1.13Zm100.35,64.5c-.65.07-.8.65-1.02,1.08-.51.99-1.14,1.91-1.63,2.93-.42.89-.88,1.77-1.39,2.7.37.1.67.17,1.06.28.31-.44.7-.86.95-1.35.3-.59.47-1.25.7-1.87.22-.59.31-1.28.68-1.75.49-.63.53-1.32.62-2.03.37-.29.74-.57.6-1.25-.37.42-.79.68-.57,1.26Zm16.46-34.74c.55-.21.91-.59,1.2-1.11.26-.47.67-.85.99-1.29.71-.97,1.41-1.95,2.19-3.02-.44-.27-.95-.59-1.37-.86-.76.35-1.13.8-1.13,1.53,0,.21-.17.43-.26.64-.34.75-.72,1.49-1,2.26-.19.52-.17,1.11-.69,1.47-.04.03.07.26.11.4q-.39.26-.2.7c.06-.26.11-.49.17-.72Zm-3.38,23.8c-.71.96-1.45,1.9-2.12,2.89-.97,1.44-1.9,2.9-2.82,4.37-.6.95-1.19,1.92-1.72,2.91-.56,1.03-1.04,2.09-1.56,3.14-.59,1.18-1.18,2.35-1.84,3.67.44-.04.67-.06.9-.07.96-.03,1.62-.41,1.79-1.44.03-.19.11-.4.22-.56.94-1.36,1.5-2.9,2.17-4.39.26-.58.72-1.07,1.01-1.64.6-1.18,1.13-2.39,1.73-3.57.28-.55.23-1.3.95-1.58.24-1.12.78-2.09,1.43-3.02.18-.26.1-.55-.18-.74.15-.03.34-.01.44-.1.11-.09.18-.28.2-.44,0-.04-.23-.11-.4-.19-.08.31-.14.53-.21.75Zm-105.42-47.4c.87.72,1.74,1.32,2.75,1.72.37.15.77.32,1.04.6.75.76,1.86.91,2.63,1.65.48.46,1.1.76,1.68,1.1.73.42,1.48.8,2.21,1.2.77.42,1.43,1.04,2.18,1.44,1.41.75,2.86,1.4,4.21,2.26.37.24.74.47,1.1.71,1.46.99,3.23,1.49,4.51,2.77.08.08.22.09.32.15.48.28.93.75,1.43.81.7.07,1.02.61,1.54.89.17.09.3.28.48.35,1.87.77,3.39,2.16,5.26,2.92.23.09.54.16.64.33.35.65,1.08.66,1.59,1.04.54.4,1.16.7,1.73,1.06,1.18.74,2.38,1.46,3.56,2.19,1.96,1.21,4,2.28,6,3.44,1.26.73,2.43,1.61,3.72,2.29.96.51,1.89,1.07,2.82,1.61.2.12.46.23.56.41.16.31.38.37.68.41.23.03.5.09.68.22,1.24.88,2.51,1.69,3.9,2.34,1.26.59,2.4,1.42,3.58,2.15.44.28.83.68,1.3.87,1.84.73,3.37,1.99,5.07,2.96.3.17.52.49.83.64.87.4,1.8.68,2.45,1.46.92.03,1.45.74,2.12,1.21.1.07.2.13.31.18,1.07.57,2.15,1.11,3.19,1.71.83.48,1.61,1.05,2.43,1.53.7.41,1.44.73,2.14,1.14,1,.59,1.94,1.27,2.96,1.82,1.05.57,2.13,1.08,3.06,1.86.49.41,1.07.73,1.63,1.05.38.22.8.37,1.19.57.67.34,1.33.7,1.95,1.03,2.6-1.74,5.18-3.47,6.65-6.41-.15-.1-.26-.21-.4-.27-.94-.43-1.94-.77-2.83-1.29-1.73-1.01-3.41-2.12-5.11-3.18-1.05-.66-2.11-1.31-3.19-1.93-.41-.24-.83-.45-1.24-.7-1.02-.65-1.9-1.56-3.14-1.84-.11-.03-.28-.08-.31-.17-.31-.71-1.08-.78-1.62-1.14-1.4-.94-2.94-1.66-4.4-2.52-1.05-.61-2.04-1.3-3.08-1.92-.52-.31-1.1-.51-1.61-.82-1.3-.79-2.57-1.62-3.86-2.43-.47-.29-.92-.6-1.4-.86-.38-.21-.81-.33-1.17-.56-.41-.26-.78-.61-1.17-.92-.71.38-.83-.46-1.27-.66-1.11-.51-2.14-1.2-3.19-1.84-.31-.18-.56-.45-.88-.62-1.45-.8-2.89-1.61-4.24-2.58-.42-.3-.9-.51-1.36-.77-.94-.53-1.9-1.03-2.82-1.58-1.37-.82-2.72-1.68-4.09-2.5-.64-.39-1.32-.71-1.97-1.08-1-.58-2-1.17-2.98-1.78-.44-.28-.82-.67-1.27-.92-1.16-.65-2.37-1.22-3.52-1.89-1.06-.62-2.08-1.32-3.11-1.98-.5-.32-.96-.72-1.5-.95-.96-.41-1.82-.99-2.7-1.53-1.11-.69-2.18-1.43-3.3-2.08-1.39-.81-2.92-1.42-4.22-2.36-1.59-1.15-3.46-1.85-4.94-3.14-1.07-.19-1.83-.93-2.64-1.54-1.48-1.1-3.36-1.53-4.75-2.77-1.58-.35-2.54-1.79-4.04-2.28-.07-.02-.16-.02-.23-.03-.56.54-1.12,1.08-1.67,1.63-.05.05-.09.14-.1.21-.08.66-.57,1.05-.96,1.51-1.06,1.28-1.68,2.73-1.81,4.41Zm-49.79-10.27c.19.24.28.46.43.52.38.14.77.23,1.17.29,1.04.15,2.12.15,3.11.45.86.26,1.65.06,2.48.06.75,0,1.38-.42,2.09-.45,1.58-.06,2.85-.9,4.13-1.63,1.44-.82,2.75-1.86,4.1-2.83.48-.34.76-.84.77-1.44.03-1.2.43-2.3.93-3.35.55-1.15,1.2-2.26,1.83-3.38,1.06-1.89,2.63-3.91,4.56-5.3.51-.37.84-.93.9-1.69.16-1.78.21-3.54-.01-5.33-.09-.74-.24-1.43-.55-2.1-.12-.25-.23-.52-.31-.79-.48-1.63-.8-2.21-2.02-3.61-.08-.09-.1-.22-.18-.31-.88-1-1.66-2.12-2.68-2.97-1.02-.84-1.98-1.75-3.21-2.39-1.09-.57-2.13-1.29-3.24-1.86-2.52-1.28-5.09-2.33-7.93-2.74-1.52-.22-2.99-.48-4.53-.31-.6.07-1.26.23-1.87-.17-.19-.13-.56-.05-.82,0-.7.16-1.41.32-2.09.55-1.1.38-2,1.05-2.55,2.09-.63,1.18-1.01,2.43-1.08,3.8-.06,1.09.17,2.11.48,3.1.36,1.15.68,2.39,1.93,3.04.45.23.8.65,1.2.98.88.7,1.8,1.38,2.46,2.31.75,1.05,1.89,1.83,2.22,3.18.03.11.14.19.22.29.55.67.71,1.56.48,2.25-.47,1.38-1.04,2.82-2.74,3.21-.12.03-.24.08-.32.16-.99.91-2.15.87-3.27.45-1.18-.45-2.47-.59-3.53-1.39-.35-.26-.71-.45-.99-.81-.24-.31-.61-.54-.95-.74-.52-.3-1.07-.57-1.62-.81-.48-.21-.96-.43-1.47-.54-1.35-.29-1.69-.09-1.97,1.22-.08.4-.02.89.14,1.28.72,1.72,1.75,3.25,3.21,4.44,1.84,1.49,3.89,2.61,6.08,3.49.4.16.78.62,1.13.59,1.08-.12,1.94.46,2.82.82,1.82.73,3.38,1.88,4.29,3.73.48.96.34,2.39-.43,3.12-.76.73-1.56,1.41-2.78,1.57Zm155.12,72.44c.27.29.45.57.7.73.85.55,1.69,1.12,2.6,1.54.6.28,1.11.6,1.6,1.05.45.41,1.09.61,1.62.93.74.44,1.43.95,2.18,1.37,1.35.75,2.86,1.24,3.96,2.4.07.08.21.09.32.14.65.29,1.32.54,1.95.88,1.42.75,2.59,1.93,4.17,2.39.07.02.14.09.2.14,1.27,1.08,2.78,1.77,4.19,2.61.29.17.68.24.9.48.66.71,1.63.92,2.36,1.53.73.61,1.67.97,2.52,1.42.32.17.67.4,1,.4,1.18,0,2.33-.19,3.38-.84,1.31-.82,1.87-2.01,1.61-3.47-.17-1.01-.58-2-.95-2.96-.15-.4-.51-.66-.95-.88-1.39-.72-2.76-1.5-4.08-2.34-1.39-.88-2.81-1.69-4.26-2.46-.32-.17-.62-.36-.92-.56-1.03-.7-2.05-1.42-3.07-2.13-.55.16-.71-.39-1.07-.58-.38-.21-.83-.32-1.21-.54-1.29-.74-2.56-1.52-3.83-2.28-.99-.6-1.97-1.21-2.97-1.8-1.3-.77-2.61-1.54-3.92-2.3-2.73,1.64-5.16,3.65-8.06,5.14Zm-6.2-11.37c1.19-.67,1.12-2.11,2.17-2.65.45-1.29,1.53-2.22,1.99-3.53.29-.82.78-1.57,1.16-2.36.64-1.32,1.25-2.65,1.9-3.97.73-1.47,1.6-2.87,2.21-4.39.72-1.8,1.68-3.47,2.55-5.18.4-.79.76-1.6,1.13-2.41.02-.05-.1-.18-.22-.36-.29.52-.47,1.04-.8,1.41-.95,1.08-1.4,2.47-2.31,3.6-1,1.23-1.62,2.77-2.39,4.18-.5.91-1.01,1.82-1.48,2.75-.46.92-.87,1.88-1.31,2.81-.27.58-.59,1.14-.85,1.72-.23.51-.39,1.07-.65,1.56-.3.57-.76,1.06-.99,1.64-.23.58-.87,1-.74,1.74.02.09-.11.21-.18.31-.58.89-1.08,1.81-1.16,3.09Zm3.11,11.76c.35-.31.68-.52.77-1.04.1-.53.46-1.01.71-1.52.46-.94,1.08-1.8,1.43-2.81.29-.82.76-1.58,1.16-2.35.28-.54.71-1.02.85-1.59.17-.65.75-1.01.94-1.56.42-1.22,1.2-2.25,1.68-3.45.53-1.33,1.38-2.56,2.06-3.85.97-1.84,2.01-3.64,2.98-5.48.76-1.44,1.63-2.81,2.34-4.28.46-.96,1.04-1.85,1.57-2.78.14-.24.22-.54.41-.71.51-.46.45-1.3,1.1-1.66,0-.78.53-1.34.85-1.98.03-.07-.07-.2-.16-.45-.4.5-.86.86-1.05,1.33-.9,2.13-2.46,3.91-3.3,6.07-.06.14-.2.25-.29.38-.33.48-.78.91-.94,1.44-.29.92-.9,1.67-1.26,2.56-.47,1.19-1.27,2.26-1.92,3.38-.4.69-.88,1.35-1.17,2.08-.55,1.41-1.31,2.71-1.98,4.05-.26.53-.68.98-.94,1.51-.47.95-.86,1.93-1.31,2.89-.3.64-.62,1.26-.94,1.89-.53,1.03-1.19,2-1.57,3.08-.44,1.28-1.56,2.22-1.73,3.61-.7.24-.4.73-.29,1.23ZM59.91,66.4c.34-.89.51-1.76.98-2.42.59-.83.95-1.74,1.44-2.61.39-.7.79-1.38,1.11-2.12.38-.87.93-1.67,1.4-2.5.1-.17.24-.33.32-.51.38-.84.74-1.7,1.13-2.54.45-.94.92-1.87,1.48-2.99-.36.13-.53.16-.64.25-.48.36-.95.73-1.41,1.12-.18.16-.35.34-.49.54-1.15,1.67-2.08,3.47-2.92,5.31-.53,1.16-1.03,2.36-1.76,3.39-.62.89-1.12,1.8-1.35,2.82-.15.69-.69,1.4-.23,2.2.3.02.58.03.93.05Zm119.82,68.54c-.06-.09-.12-.18-.18-.27-.79.24-1.6.43-2.37.74-.35.14-.67.49-.87.82-.98,1.62-1.97,3.24-2.84,4.92-.34.65-.99,1.32-.5,2.34.44-.03.9-.09,1.37-.1,1.05-.02,1.26-.17,1.58-1.01.14-.36.36-.69.54-1.04.19-.35.4-.7.57-1.06.37-.76.61-1.6,1.09-2.27.7-.96,1.06-2.05,1.6-3.07Zm19.14-36.53c-.07-.04-.14-.09-.22-.13-.09.06-.21.1-.27.19-.9,1.43-1.73,2.91-2.7,4.29-.85,1.21-1.64,2.45-2.45,3.69-.98,1.5-1.89,3.05-2.89,4.54-.69,1.04-.67,1.51.28,2.4.52-.65,1.15-1.24,1.54-1.97.52-.96,1.16-1.82,1.86-2.63.66-.77.95-1.73,1.5-2.56.33-.48.54-1.05.76-1.59.34-.84.63-1.71.98-2.55.51-1.23,1.06-2.45,1.59-3.67Zm-7.3,19.65c.09.04.18.09.26.13.4-.71,1.01-1.24,1.34-2.05.35-.86,1.07-1.57,1.56-2.39.46-.75.84-1.54,1.24-2.32.3-.57.53-1.18.88-1.72.96-1.49,1.78-3.04,2.54-4.63.44-.93.78-1.92,1.52-2.71.38-.41.54-1.04.79-1.58-.07-.06-.13-.12-.2-.18-.21.13-.5.2-.63.39-1.1,1.51-2.18,3.04-3.26,4.56-.16.23-.34.45-.53.67-1.23,1.42-1.78,3.19-2.56,4.85-.08.17-.09.38-.17.56-.64,1.39-1.43,2.71-1.97,4.15-.28.76-.55,1.52-.83,2.28ZM73.19,54.02c-.69.97-1.37,1.93-2.05,2.89-.04.06-.03.16-.06.23-.13.28-.25.57-.42.82-.56.82-1.27,1.53-1.46,2.58-.06.33-.35.63-.56.92-.19.25-.33.53-.48.78-.53.87-.85,1.84-1.38,2.67-.64,1-1.05,2.09-1.58,3.12-.58,1.14-.37,1.42.92,1.38.07,0,.14-.07.16-.08.24-.52.44-1,.67-1.46.44-.89,1.03-1.74,1.32-2.67.23-.72.72-1.26.99-1.95.51-1.3,1.29-2.49,1.93-3.73.42-.81.8-1.63,1.21-2.44.36-.71.75-1.4,1.13-2.1.22-.4.08-.69-.33-.96Zm138.74,55.01c-.69.47-1.02.82-1.18,1.39-.13.49-.42.94-.67,1.39-.17.31-.43.58-.6.9-.52.98-.83,2.05-1.51,2.99-.77,1.05-1.08,2.39-1.78,3.53-.9,1.47-1.55,3.09-2.28,4.67-.37.8-.91,1.51-1.24,2.33-.29.71-.49,1.49-.91,2.12-.8,1.2-1.19,2.61-2.01,3.8-.2.3-.48.61-.52.94-.13,1.1-.79,1.96-1.19,2.93-.31.75-.72,1.47-1.11,2.26.61.07.78-.3.95-.67.56-1.2,1.11-2.4,1.69-3.6,1.11-2.29,2.2-4.59,3.4-6.84.27-.5.41-1.03.67-1.53.45-.88.95-1.74,1.4-2.63.48-.94.93-1.9,1.41-2.85.36-.71.74-1.42,1.11-2.13.39-.73.75-1.48,1.16-2.2.41-.71.62-1.53,1.24-2.11.11-.11.29-.29.26-.39-.22-.72.44-1.1.63-1.65.28-.8.98-1.43,1.07-2.65ZM79.79,59.08c-.15.13-.27.19-.33.29-.17.28-.31.57-.46.85-1.01,1.99-1.64,4.18-3.08,5.95-.07.09-.14.22-.13.33.05.75-.41,1.3-.71,1.91-.55,1.12-1.09,2.25-1.63,3.38-.07.14-.13.31-.13.46,0,.15.07.37.17.41.16.07.42.09.56,0,.23-.15.54-.37.57-.6.09-.62.55-1,.81-1.5.72-1.4,1.2-2.93,2.25-4.15.05-.05.04-.15.06-.23.22-.98.78-1.82,1.26-2.68.49-.87,1.02-1.73,1.56-2.56.47-.72.42-1.08-.3-1.55-.13-.09-.26-.18-.46-.33Zm107.99,49.17c.33-.58.63-1.08.89-1.59.99-1.97,1.94-3.97,2.96-5.93.98-1.86,2.01-3.7,3.06-5.52.19-.33.21-.58.04-.94-1.13.14-1.61,1.07-1.93,1.89-.26.68-1.12,1.08-.93,1.94-.88.7-1.1,1.76-1.49,2.73-.08.19-.15.39-.28.54-.81.93-1.15,2.14-1.98,3.08-.46.52-.48,1.41-.83,2.06-.39.71-.28,1.21.48,1.73Zm-105.82-31.95c.94.68.97.67,1.34-.08.35-.73.7-1.46,1.06-2.19,1.29-2.6,2.6-5.2,3.88-7.81.12-.25.15-.54.22-.79-.89-.7-1.04-.72-1.54.09-.44.71-.68,1.55-1.16,2.22-.33.45-.45.99-.75,1.4-.4.55-.3,1.17-.49,1.73-.18.53-.31,1.1-.61,1.55-.81,1.2-1.2,2.6-1.95,3.88Zm107.27,34.01c.44-.9.87-1.81,1.33-2.7.36-.7.69-1.41,1.03-2.11.3-.6.48-1.27.86-1.85.25-.37.48-.76.66-1.16.34-.77.62-1.58.98-2.34.34-.72.69-1.45,1.12-2.11.45-.69.55-1.54,1.18-2.15.34-.33.38-.87.08-1.43-.22.15-.48.24-.57.42-.75,1.38-1.48,2.77-2.21,4.16-.37.71-.74,1.42-1.1,2.13-.6,1.2-1.18,2.41-1.78,3.61-.69,1.37-1.41,2.72-2.1,4.09-.38.76-.34.84.53,1.44Zm-105.25-48.11c-.6-.5-.91-.08-1.19.25-.4.5-.48,1.2-.82,1.69-.58.8-.72,1.82-1.41,2.55.17.72-.43,1.19-.75,1.63-.4.56-.41,1.22-.79,1.76-.77,1.08-1.32,2.3-1.86,3.52-.18.4-.21.76.32,1.09.31-.33.81-.62.86-.97.17-1.07.82-1.93,1.26-2.85.76-1.58,1.72-3.06,2.36-4.72.52-1.36,1.32-2.62,2.01-3.95Zm-7.98-6.01c-.08-.04-.17-.09-.25-.13-.12.1-.28.18-.35.31-.47.83-.9,1.68-1.37,2.51-.58,1.02-1.16,2.04-1.78,3.03-.7,1.11-1.62,2.12-2.11,3.31-.43,1.07-1.48,1.77-1.59,2.98-.6.35-.6,1.01-.78,1.57-.09.27-.08.64.3.66.23.01.57-.15.68-.34.63-1.1,1.19-2.23,1.82-3.33.59-1.02,1.06-2.1,1.7-3.11.52-.83,1.06-1.72,1.39-2.65.3-.85.74-1.59,1.17-2.36.44-.78.79-1.62,1.18-2.43Zm-38.4,10.96c.53.04,1.05.11,1.57.11.37,0,.8-.08.84-.53.1-.94.54-1.74.91-2.58.51-1.17.32-1.77-.7-2.47-.4-.27-.79-.13-.92.34-.31,1.15-.84,2.21-1.28,3.3-.23.58-.61,1.14-.41,1.85Zm-3.33-16.76c.49.79.77.82,1.28.05.04-.07.08-.14.12-.21.52-1.11,1.05-2.22,1.55-3.34.23-.51.33-1.1.63-1.57.43-.68.64-1.39.71-2.2-.23-.16-.45-.32-.76-.53-.21.32-.41.56-.54.84-.48,1.01-.9,2.05-1.44,3.02-.2.36-.33.69-.44,1.08-.27.92-.68,1.79-1.1,2.86Zm150.27,54.69c.79-1.23,1.6-2.2,2.08-3.31.83-1.92,1.98-3.63,3.07-5.39.43-.69.88-1.41,1.1-2.3-.77.14-1.3.29-1.59,1.05-.16.41-.42.85-.64,1.27-.44.83-.94,1.62-1.43,2.43-.39.63-.81,1.24-1.18,1.89-.47.83-.62,1.82-1.43,2.48-.24.2-.34.65-.38,1-.02.2.19.44.41.87Zm-5.93-3.64c.91.45,1.14.49,1.45.06.34-.47.65-.99.86-1.53.42-1.09.97-2.13,1.46-3.19.2-.43.44-.84.59-1.28.05-.15-.04-.48-.14-.52-.19-.08-.5-.08-.66.03-.28.21-.55.49-.72.8-.94,1.72-1.84,3.46-2.75,5.2-.07.13-.07.29-.09.42Zm-111.35-45.04c-.31.18-.64.26-.68.41-.3,1.06-1.25,1.7-1.63,2.74-.4,1.09-1.03,2.09-1.6,3.11-.68,1.23-1.1,2.59-1.99,3.7-.1.12-.22.29-.21.42.03.26.09.6.26.72.28.2.52-.03.65-.32.23-.51.44-1.03.72-1.51.76-1.32,1.32-2.74,2.06-4.07.52-.94.85-1.99,1.3-2.98.32-.7.69-1.38,1.12-2.22Zm121.35,38c-.75-.28-1.11.09-1.37.56-.96,1.73-1.9,3.47-2.86,5.2-.53.95-1.14,1.86-1.5,2.9-.06.18,0,.4,0,.6.1.04.21.08.31.12,1.73-3.14,3.42-6.3,5.42-9.38ZM15.59,28.47c-.9,1.06-1.98,1.91-2.57,3.13-.27.55-.8.97-1.14,1.5-.73,1.14-1.41,2.31-1.67,3.68.19.14.35.26.49.37.11-.08.2-.11.23-.17.7-1.63,1.9-2.99,2.53-4.69.36-.96,1.11-1.77,1.65-2.67.21-.35.33-.76.49-1.15Zm-7.18,5.3c1.36-2.56,2.64-4.97,3.91-7.39.05-.09.03-.23.03-.34,0-.03-.05-.05-.13-.14-2.02,2.03-3.5,4.38-4.31,7.22.08.1.22.29.49.65Zm63.47,38.03c.1.03.2.06.3.08.75-1.45,1.68-2.83,2.2-4.36.54-1.61,1.71-2.86,2.2-4.47.48-1.55,1.6-2.84,2.05-4.57-.53.2-.73.48-.9.87-.47,1.11-.98,2.21-1.52,3.29-.54,1.07-1.09,2.14-1.68,3.19-.93,1.64-1.65,3.4-2.44,5.11-.12.26-.14.57-.2.85Zm96.75,26.61c-.86.22-1.77.23-2.4.66-.73.51-1.21,1.38-1.77,2.07.1.14.14.25.19.26.95.27,1.72-.58,2.65-.46.59-.64,1.03-1.39,1.39-2.17.03-.06-.03-.16-.07-.36ZM32.14,58.39c-.88-.79-.91-.78-1.32.31-.04.11-.15.19-.19.3-.45,1.06-.91,2.12-1.35,3.18-.04.1-.01.23-.01.37.29.14.58.28.82.4.67-.33.39-1.26.77-1.42.74-.32.44-1.03.79-1.49.31-.39.32-1.01.5-1.66Zm-8.75-2.23c.16-.47.28-.89.46-1.29.34-.76.73-1.5,1.05-2.26.33-.79.22-1.1-.54-1.76-.36.61-.81,1.17-1.04,1.81-.26.72-.48,1.42-1.13,1.98.42.47.25,1.3,1.2,1.53Zm8.78-22.53c-.39.86-.67,1.54-1,2.2-.32.65-.76,1.24-1.03,1.91-.26.65-.78,1.27-.59,2.14.18-.14.3-.19.36-.29.67-1.04,1.29-2.11,2-3.11.59-.83.66-1.67.25-2.84Zm129.91,67.13c-.42,0-.64-.04-.81.03-.89.37-1.78.75-2.65,1.17-.23.11-.4.35-.58.51.22.54.53.74,1.05.78.47.04.86.03,1.26-.26.74-.55,1.13-1.35,1.74-2.23Zm3.6,41.12c.73-1.59,1.38-2.99,2.03-4.4-.72-.22-1.25-.01-1.52.54-.27.56-.52,1.12-.84,1.66-.25.42-.31.96-.49,1.55.16.13.4.32.82.66ZM28.14,61.49c1.11-1.29,1.56-2.75,2-4.31-.24-.13-.49-.28-.76-.42-.59,1.26-1.13,2.43-1.68,3.61-.21.45-.03.76.43,1.12Zm147.46,39.27c.3.03.58.12.63.04.39-.52.79-1.05,1.09-1.64.45-.88.8-1.81,1.21-2.71.17-.37.06-.6-.26-.78-1.21,1.49-1.85,3.22-2.67,5.08Zm8.3,39.2c1.81-2.28,3.37-4.56,4.46-7.25-.28.07-.47.06-.5.14-1.26,2.28-2.7,4.46-4.03,6.7-.04.07.03.22.07.42Zm-14.81,2.42l.22.09c.53-.93,1.02-1.9,1.61-2.79.56-.85,1.27-1.61,1.57-2.73-.58.06-.97.14-1.17.65-.12.32-.4.59-.45.92-.1.57-.8.83-.81,1.26,0,.78-.44,1.25-.81,1.81-.14.21-.11.53-.16.8Zm-77.91-74.95c-.58-.49-.85.03-1,.3-.55,1-1.02,2.04-1.49,3.08-.07.15.04.38.08.64,1.12-1.21,1.93-2.5,2.42-4.02Zm80.11,33.03c1.16-.14,1.21-1.05,1.59-1.58.36-.52.98-1.07.76-2.05-.39.29-.87.46-.96.75-.2.68-.64,1.19-.98,1.78-.17.29-.25.64-.42,1.11ZM6.63,30.8c1.19-.67,2.48-2.86,2.66-4.51-1.19,1.47-1.93,2.99-2.66,4.51Zm30.4,10.47c-.59-.03-.9-.05-1.2-.07-.41,1.17-.8,2.3-1.2,3.43.07.04.15.07.22.11.69-1.1,1.38-2.2,2.18-3.47Zm2.38,9.2c1.07-.59,1.81-1.89,1.84-2.76,0-.27.06-.6-.42-.59-.47,1.11-.94,2.23-1.42,3.35Zm167.52,78.59c.09.03.18.06.27.09.14-.29.21-.64.43-.85.94-.92,1.32-2.16,1.98-3.24.05-.09-.1-.3-.23-.63-.88,1.66-1.67,3.15-2.46,4.63Zm-21.95-34.39c-.6.47-1.01,1.03-1.24,1.76-.22.71-.88,1.27-.76,2.13.73-1.27,1.72-2.38,1.99-3.89Zm6.23,21.3c.66-.74.81-1.49.59-2.33-.27.72-1.3,1.21-.59,2.33ZM27.85,34.56c-.89.61-1.74,2.35-1.75,3.4.65-1.26,1.2-2.33,1.75-3.4Zm165.7,98.48c.31-.59.55-.92.65-1.29.1-.38.75-.58.37-1.17-.76.57-1.1,1.27-1.03,2.46ZM33.99,25.72c-1-.01-1.32.36-1.27,1.45.43-.49.79-.91,1.27-1.45Zm-18.3-.2c-.11-.04-.21-.07-.32-.11-.27.56-.53,1.13-.8,1.69.61-.4,1.24-.79,1.12-1.58Zm165.92,75.03c.62-.27.97-.51,1.1-.95.05-.16-.05-.37-.12-.82-.38.69-.62,1.13-.98,1.77ZM42.12,63.8c-.27.57-.5,1.07-.78,1.69.93-.43,1-.59.78-1.69ZM16.3,31.19c.54-.57.82-.97.97-1.74-.68.48-.9.91-.97,1.74Zm15.66-2.45c.18-.41.3-.7.49-1.14-.62.25-.93.46-.49,1.14Zm164.25,70.05c-.56-.19-.62-.11-.67.87.26-.33.46-.6.67-.87Zm3.88,17.24c-.17.2-.34.39-.62.71.63.04.84-.13.62-.71Zm4.66-13.56q-.65.08-.71.81c.28-.32.45-.52.71-.81Zm-23.42-.8c.25-.27.4-.44.63-.7-.66-.14-.71.13-.63.7ZM19.12,44.77c-.1-.03-.2-.06-.29-.08-.05.21-.1.43-.15.64.07.02.14.04.2.06.08-.21.16-.42.24-.62Zm5.65-4.73c.09.05.17.1.26.14.12-.28.24-.56.36-.85-.05-.02-.09-.03-.14-.05-.16.25-.32.5-.47.75Zm2.7,5.37c-.22.34-.37.49-.41.66-.03.12.08.28.13.41.14-.11.34-.19.39-.33.05-.15-.04-.35-.11-.74ZM3.74,25.49c.53.15.57-.21.56-.51,0-.08-.26-.16-.48-.29-.04.35-.06.57-.08.8Zm200.67,73.1c.26-.22.38-.28.44-.38.08-.12.14-.27.13-.41,0-.06-.21-.18-.27-.15-.13.06-.26.18-.31.31-.05.13,0,.29,0,.63ZM16.92,36.41q.91-.29.59-.73c-.14.18-.28.35-.59.73Zm.46-7.42c.07.04.14.08.2.12.08-.12.18-.23.22-.36.05-.13.03-.29.05-.43-.04,0-.09,0-.13-.01-.11.23-.23.46-.34.69Zm48.23,34.53c.1,0,.2,0,.3,0,0-.16,0-.32-.03-.47,0-.02-.18-.04-.18-.03-.04.16-.06.33-.09.5Zm102.61,75.24c.08.06.16.11.24.17.08-.11.19-.22.25-.35.05-.1.05-.23.08-.35-.07-.02-.13-.05-.2-.07-.12.2-.24.4-.36.6ZM24.67,31.48c.58-.1.69-.35.75-.65,0-.04-.08-.11-.21-.26-.16.27-.29.49-.53.91Zm46.81,35.1c-.08.36-.14.47-.12.56.02.11.11.2.17.3.05-.02.09-.05.14-.07l-.2-.78Zm-38.27-17.49c-.11.19-.22.38-.37.65.52-.03.71-.17.37-.65Zm-5.48-15.24c.08.05.16.1.24.15.1-.22.2-.43.31-.65l-.19-.1-.35.59Zm-14.37,2.22c-.07-.08-.12-.14-.16-.2-.06.07-.18.14-.18.22,0,.08.11.16.17.24.06-.09.12-.18.18-.26Zm174.91,94.24c.06,0,.12.02.19.03.03-.17.07-.35.08-.52,0-.02-.13-.04-.2-.07-.02.19-.04.38-.06.57Zm21.22-26.94c-.04-.06-.08-.12-.12-.18-.18.13-.35.25-.53.38l.1.15c.18-.12.37-.23.55-.35Zm-7.17,9.62c-.28.05-.69.01-.54.6.24-.26.39-.43.54-.6ZM14.53,33.43c.22.06.34.13.39.1.08-.05.11-.17.16-.26-.08-.05-.19-.15-.25-.13-.09.03-.16.15-.3.3Zm156.2,108.39c.08.05.16.11.24.16.11-.19.22-.38.34-.57-.05-.04-.11-.07-.16-.11-.14.17-.28.34-.41.51ZM17.5,47.96s.09-.01.13-.02c-.01-.16-.02-.31-.03-.47-.06,0-.12.02-.19.02.03.15.06.31.09.46Zm183.3,67.32s.09.02.13.04c.04-.12.07-.25.11-.37-.05-.01-.09-.03-.14-.04-.03.12-.06.25-.1.37ZM16.59,26.34s0,.06,0,.1c.05-.03.1-.05.14-.08.01-.01,0-.06,0-.09-.04.03-.09.05-.13.08Zm191.95,80.49c-.14-.07-.22-.13-.3-.13-.05,0-.16.1-.15.12.04.09.11.17.17.25.07-.06.15-.13.28-.24Zm-.81,7.21c-.08-.05-.13-.09-.19-.13-.04.09-.13.18-.12.26,0,.06.14.11.21.16.03-.1.06-.19.09-.28ZM18.14,46.39c0,.11,0,.22.03.3.02.04.13.04.2.05.01-.1.04-.2.03-.29,0-.02-.14-.03-.26-.06Zm-8.31-20.5c-.09-.12-.13-.17-.18-.23-.1.1-.21.2-.3.31,0,0,.11.14.13.13.12-.06.23-.14.35-.22Zm193.75,78.4s-.02-.06-.04-.1c-.02.03-.06.06-.05.08.01.04.05.08.07.12,0-.03,0-.07.01-.1Zm2.18-.94s.07.1.11.15l.36-.27c-.04-.05-.08-.1-.12-.16-.12.09-.23.18-.35.27ZM33.37,61.47c-.03.07-.07.11-.06.13.04.07.1.13.15.2l-.08-.33Zm174.09,40.05c-.07-.06-.15-.12-.22-.18-.06.13-.12.25-.18.38.13-.06.27-.13.4-.19ZM36.19,26.04s.03.08.05.12c.15-.07.31-.14.68-.31l-.73.18Zm147.09,108.6c-.1-.04-.21-.1-.23-.08-.07.08-.11.18-.16.27.06.03.16.1.18.08.08-.07.14-.17.21-.27Zm22.11-16.67c.53,0,.71-.11.55-.64-.19.23-.32.37-.55.64Zm-134.62-49.07l-.02-.09c-.05.04-.14.08-.15.13-.01.05.05.12.08.18.03-.07.07-.14.1-.21Zm110.4,33.16c-.07-.07-.15-.16-.17-.15-.09.04-.17.12-.25.19.06.06.15.18.17.17.09-.04.16-.13.24-.2Zm16.78,24.25c.04-.09.09-.19.14-.28-.1,0-.23-.06-.29-.01-.06.04-.05.18-.07.28.06,0,.13.01.22.02ZM12.27,37.1c.02.06.04.11.06.17.07,0,.18.02.2-.02.06-.09.09-.2.13-.3-.13.05-.26.1-.4.15Zm150.52,64.71s.05.1.07.15c.1-.06.2-.13.3-.19,0,0-.04-.08-.04-.08-.11.04-.23.08-.34.12ZM12.12,38.02c.07.01.14.03.21.04.01-.07.05-.16.02-.21-.02-.03-.15-.06-.19-.03-.04.03-.03.13-.04.2Zm8.23-1.91c-.05.05-.13.09-.15.15-.01.04.05.11.08.17.06-.04.15-.08.16-.13.01-.05-.06-.12-.09-.18Zm167.63,94.92s.09-.02.14-.02c-.02-.12-.05-.24-.07-.37-.04,0-.08.01-.12.02.02.12.04.25.06.37Zm7.2-2.07c-.01.06-.03.12-.04.18.07,0,.15.04.21.02.03-.01.03-.12.04-.18-.07,0-.14-.01-.22-.02Zm-115.9-64.15c.06.02.11.04.17.06,0-.04.03-.08.01-.11-.03-.05-.08-.09-.12-.14-.02.06-.04.13-.07.19Zm-50.9-32c.05-.06.12-.11.15-.17.02-.05-.04-.11-.06-.17-.07.06-.15.11-.21.18-.01.02.08.11.12.16Zm-13.55,7.6c-.03-.06-.07-.12-.1-.18-.06.03-.17.09-.17.1.03.09.09.17.13.26.05-.06.09-.12.14-.18Zm185.02,82.38c-.06-.02-.12-.05-.18-.05-.03,0-.08.07-.08.08.03.05.08.1.12.14.04-.06.09-.11.13-.17Zm-130.01-52.62c-.05.05-.09.11-.14.16.03.02.07.05.08.04.05-.04.09-.09.14-.14-.03-.02-.06-.04-.08-.06Zm-2.36-14.13s.06-.04.08-.07c-.05-.02-.09-.04-.14-.06-.01.03-.03.07-.04.1l.09.03ZM11.21,32.06c-.08-.01-.14-.03-.2-.03-.02,0-.06.08-.05.09.04.04.09.08.13.11.04-.06.08-.11.12-.18Zm15.74-4.65c-.07,0-.15-.02-.22-.03,0,.08-.04.16-.01.23.01.03.17.05.18.03.04-.06.04-.15.05-.22Zm179.29,88.66l.04.17c.12-.04.25-.09.37-.13,0,0-.01-.08-.02-.08-.13.01-.26.03-.39.04Zm3.23-10.58c-.04-.06-.08-.12-.13-.18-.04.05-.09.09-.12.15,0,.01.04.09.06.09.06,0,.12-.03.19-.05Zm-42.59,35.94c.09.02.19.05.29.06.01,0,.06-.16.04-.17-.09-.06-.19-.1-.29-.14-.01.07-.02.14-.04.25ZM22.63,46.17c.05-.06.12-.11.14-.17.01-.06-.04-.13-.06-.19-.07.06-.16.12-.2.19-.01.03.08.11.12.17Zm178.24,63.14s-.05-.06-.07-.09c-.03.06-.07.11-.09.18,0,.02.04.06.06.08.03-.06.06-.12.09-.17Zm-113.25-35.43c-.04-.06-.08-.13-.12-.19-.06.04-.11.09-.17.13.06.07.11.14.17.22.04-.05.08-.11.12-.16Zm94.84,65.24c-.05.05-.1.09-.15.13.04.05.12.15.13.14.07-.04.13-.1.19-.16-.06-.04-.12-.07-.17-.11ZM31.88,44.6l.06.05.02-.09-.08.04Zm138.62,98.11c-.03.06-.06.12-.09.19.03.01.08.05.1.04.06-.03.11-.09.16-.13-.05-.03-.11-.06-.16-.09Zm21.88-29.48c-.05-.05-.09-.11-.14-.16-.05.05-.16.12-.15.14.04.08.11.14.17.2.04-.06.08-.13.11-.19ZM33.85,60.53s.05-.01.05-.02c0-.04-.02-.08-.03-.12-.02,0-.05.01-.05.02,0,.04.02.08.03.12Zm53.61,14.16l-.02-.09c-.06.03-.12.05-.17.08-.01,0,0,.06,0,.09.06-.02.13-.05.19-.07Zm-.37.77c-.07-.01-.17-.06-.21-.03-.04.03-.03.14-.05.21.07,0,.16.04.21.01.04-.03.04-.13.05-.19Zm87.2,23.7c-.08,0-.17-.04-.22-.01-.05.03-.05.13-.07.2.08,0,.17.04.22.01.05-.03.05-.13.07-.2ZM34.39,47.76l-.02-.08-.08.06.1.02Zm168.66,63.64s-.08-.07-.1-.06c-.06.03-.12.09-.17.13.03.03.08.08.09.07.06-.04.12-.09.18-.14ZM32.65,60.23s-.07,0-.11,0c.01.05.02.1.03.15.03-.02.07-.03.1-.06.01-.01-.01-.05-.02-.08Zm2.88-.2s.02.07.04.08c.03,0,.07,0,.11-.01-.02-.04-.04-.08-.06-.12-.03.02-.06.04-.09.06Zm168.42,43.57s-.06-.03-.09-.05c-.01.06-.03.12-.03.18,0,.02.06.03.09.05.01-.06.03-.12.04-.18Zm-2.65-.25s.02.1.02.14c.01-.03.03-.05.03-.08,0-.02-.03-.04-.05-.07Zm-3.27-.1s-.04-.05-.05-.08c-.01.03-.04.06-.04.08,0,.03.03.05.05.08.01-.03.03-.05.04-.08ZM20.38,41.63s.02.06.04.07c.03,0,.07,0,.1,0l-.07-.12s-.05.04-.07.06Zm.26-.57c-.07,0-.14-.01-.2,0-.02,0-.04.06-.06.09.07.02.13.06.2.06.02,0,.04-.1.06-.15Zm181.88,58.56s-.07-.06-.08-.06c-.05.04-.09.08-.13.12.03.02.07.07.08.06.05-.04.09-.08.13-.13Zm-.53.19c-.06-.01-.12-.04-.18-.04-.02,0-.06.07-.06.08.04.04.09.07.13.11.04-.05.07-.1.11-.15Zm-4.51,24.62c-.05,0-.11.01-.16.02.03.01.06.03.08.03.03,0,.05-.03.07-.05ZM33.73,48.65c-.04-.06-.08-.12-.11-.18-.02.03-.07.07-.06.09.02.06.06.11.1.17.03-.03.05-.05.08-.08Zm164.59,76.57s-.06-.08-.08-.07c-.06.03-.12.07-.17.1.03.02.07.07.08.06.06-.02.11-.06.17-.1ZM24.76,35.21c-.06,0-.12-.02-.18,0-.02,0-.03.06-.05.09.06.03.12.05.18.08.02-.05.03-.11.05-.16Zm171.48,91.9s-.03-.06-.05-.09c0,.04-.02.09-.03.13.02-.01.05-.03.07-.04Zm-17.3-29.22c.02-.07.04-.13.05-.2,0-.01-.07-.04-.1-.05-.02.07-.04.14-.05.21,0,0,.07.03.11.04Zm.7-1.32s-.07,0-.1,0c0,.05,0,.09.01.14.03-.01.07-.02.09-.04.01-.02,0-.06,0-.08Zm15.16,33.24s.06-.04.07-.07c0-.03-.02-.06-.03-.1-.04.03-.08.07-.12.1.03.02.05.04.08.06Zm-12.2,3.69s-.05-.05-.07-.05c-.03,0-.07.02-.1.03.03.03.06.07.1.09,0,0,.05-.04.07-.07Zm-13.65,3.97c-.06,0-.12.02-.18.03.03.01.06.04.09.03.03,0,.06-.04.08-.06Zm-.86,2.24s-.02-.08-.04-.09c-.03-.01-.07,0-.11,0l.06.14s.06-.04.09-.06ZM21.62,28.66s-.05-.05-.07-.06c-.02,0-.04.04-.06.06.04.03.08.06.12.08,0-.03.01-.06.02-.09Zm145.92,112.14c-.07,0-.14,0-.2,0-.02,0-.03.06-.05.09.06.02.12.05.18.04.03,0,.04-.09.07-.14Zm-75.34-72.55s-.01-.08-.04-.09c-.03-.01-.07,0-.11,0,.02.05.04.1.06.15.03-.02.06-.04.09-.06ZM27.84,25.6s-.07.06-.06.08c.03.06.07.11.1.17.02-.03.06-.07.06-.08-.02-.06-.06-.11-.09-.16Zm-9.53,2.28s.07-.07.07-.08c-.04-.06-.08-.1-.12-.15-.02.03-.07.07-.06.08.03.05.08.1.12.15Zm78.76,44.06s0,.06,0,.1c.05-.01.09-.02.14-.03-.02-.03-.03-.07-.05-.08-.01-.01-.05.01-.08.02Zm86.58,68.31s-.05-.05-.07-.05c-.02,0-.04.04-.07.06.04.03.08.05.12.08,0-.03.01-.06.02-.09Zm-.63.84l.05.07v-.08s-.05.02-.05.02ZM18.63,27.1s0-.06,0-.09c0,0-.04,0-.07,0,0,.03,0,.06,0,.09,0,0,.04,0,.06.01Zm-2.54,13.32s-.06.03-.09.05c.04,0,.09.01.13.02l-.04-.07Z"/>
      <path class="cls-1" d="m78.35,81.23c0,.26-.02.55,0,.83.06,1.13-.12,2.09-1.24,2.75-.52.31-.81.99-1.21,1.51-.62.79-1.22,1.6-1.86,2.37-.39.47-.47,1.07-.83,1.58-1.24,1.75-2.28,3.63-3.27,5.53-.68,1.31-1.26,2.69-1.88,4.05-.26.56-.66,1.05-.75,1.74-.08.65-.53,1.24-.77,1.88-.23.63-.41,1.28-.59,1.93-.46,1.65-1.08,3.26-1.4,4.96-.26,1.4-1,2.73-1.16,4.13-.15,1.34-.82,2.56-.73,3.94.05.7-.12,1.41-.19,2.12-.08.72-.22,1.44-.22,2.16,0,.95-.24,1.88-.07,2.85.13.74.09,1.52.08,2.28-.02,1.13.15,2.23.28,3.35.2,1.65.72,3.17,1.12,4.75.28,1.08.71,2.1,1.15,3.08.32.7.61,1.56,1.38,2.02.1.06.22.13.27.22.82,1.68,2.57,2.26,3.94,3.27.41.3,1.08.25,1.62.4,2.31.64,4.56.61,6.94.1,2.72-.58,5.2-1.7,7.77-2.64,1.62-.59,3.13-1.46,4.69-2.22.21-.1.37-.32.56-.47.32-.25.62-.61.98-.7,1.44-.35,2.28-1.63,3.56-2.22.17-.08.32-.2.48-.29,1.37-.76,2.71-1.55,3.91-2.57.45-.38.94-.75,1.46-1.02,1.47-.76,2.74-1.8,4.11-2.7,1.07-.7,2.11-1.45,3.17-2.17,1.55-1.06,3.08-2.15,4.67-3.14.49-.3.63-1.1,1.4-.97.27-.57.89-.71,1.35-1.04.71-.51,1.42-1.03,2.17-1.47,2.58-1.49,4.98-3.29,7.8-4.36.76-.29,1.38-.92,2.11-1.33,1.04-.59,2.13-1.11,3.18-1.68.43-.23.86-.48,1.23-.79,1.41-1.17,4.22-.25,4.82,1.18.43,1.04.37,2.14-.12,3.18-.24.51-.38,1.09-.73,1.51-.37.45-.91.77-1.41,1.09-.94.61-1.84,1.26-2.7,1.99-.96.83-1.99,1.6-3.08,2.23-.7.4-1.29.93-1.98,1.34-.69.41-1.26,1.03-1.96,1.42-.91.5-1.51,1.46-2.6,1.66-.24.62-1.06.56-1.3.96-.33.56-.89.71-1.29,1.11-.4.39-.94.62-1.38.98-1.82,1.46-3.82,2.66-5.63,4.14-.89.73-1.75,1.5-2.68,2.19-.88.65-1.77,1.29-2.67,1.92-.84.58-1.7,1.13-2.52,1.73-.13.1-.14.36-.22.54-.12.28-.27.49-.64.42-.12-.02-.35.06-.4.16-.55,1.17-1.69,1.64-2.67,2.3-.16.11-.29.25-.46.34-.72.4-1.09,1.3-2,1.41-.46.68-1.05,1.15-1.82,1.5-.56.25-1.04.74-1.46,1.22-.83.94-1.83,1.7-2.84,2.38-2.05,1.39-3.97,2.95-6.06,4.28-1.09.69-2.21,1.32-3.35,1.92-.93.48-1.82.99-2.66,1.63-.87.66-1.92,1.09-2.9,1.62-.87.47-1.73.95-2.62,1.37-2.08.98-4,2.32-6.27,2.88-.08.02-.16.06-.21.11-.51.55-1.24.64-1.88.92-.63.27-1.33.42-1.88.8-1.15.77-2.5,1.03-3.73,1.59-.72.33-1.57.4-2.35.61-1.29.36-2.56.8-3.87,1.09-1.38.3-2.77.54-4.18.7-2.02.23-4.02.1-6-.04-1.15-.08-2.43-.2-3.42-1.12-.39-.36-1.04-.41-1.54-.67-.95-.5-1.94-.96-2.46-2.01-.15-.3-.55-.47-.75-.77-.75-1.11-1.46-2.24-2.13-3.42-.8-1.43-.99-2.99-1.49-4.47-.27-.81-.32-1.67-.66-2.47-.23-.54-.11-1.23-.12-1.86-.03-1.24.02-2.48-.08-3.71-.05-.57.49-1.07.13-1.64.49-.69-.07-1.58.44-2.26.02-.03.04-.08.04-.11-.27-1.93.56-3.7.85-5.54.28-1.78.85-3.48,1.38-5.19.21-.68.61-1.3.88-1.97.55-1.37.99-2.78,1.6-4.13.69-1.54,1.49-3.04,2.29-4.53.63-1.16,1.31-2.3,2-3.42.72-1.19,1.55-2.32,2.2-3.55.55-1.03,1.44-1.79,1.92-2.89.42-.97,1.11-1.9,1.88-2.62.56-.53.78-1.19,1.16-1.77.79-1.2,1.72-2.31,2.58-3.44,1.47-1.94,2.9-3.93,4.59-5.7.08-.09.24-.15.26-.25.23-1,1.09-1.52,1.66-2.26.58-.75,1.09-1.54,1.76-2.22.53-.54.88-1.26,1.39-1.82,1.27-1.4,2.36-2.95,3.73-4.26.31-.3.48-.73.73-1.09.83-1.21,2.11-2.09,2.68-3.5,1.9-1.84,3.42-4.04,5.39-5.82.45-.41,1.1-.71,1.7-.8.73-.11,1.41.23,1.86.93Zm-12,19.78c.05-.2.1-.39.16-.65-.57.18-.26.41-.16.62l-.16-.02c.05.02.1.03.15.05Zm-11.52,66.9c.07-.11.14-.21.21-.32-.03-.02-.07-.04-.1-.06-.02.14-.05.27-.07.41-.07.03-.15.06-.22.1.04.03.07.06.11.09.02-.07.05-.14.07-.21Zm30.44-16.91c.19.01.38.02.57.04,0-.06,0-.12-.01-.19-.18.05-.36.11-.54.16,0,.07.01.15.02.22,0,.03.03.07.04.1.02-.05.07-.12.05-.16-.02-.07-.09-.12-.14-.18Zm1.68,1.36c0-.13-.01-.26-.02-.39-.03,0-.07.02-.1.03.04.12.09.24.13.35-.22.09-.45.18-.67.27-.15.38-.29.77-.44,1.15-.19.14-.4.25-.55.43-.14.16-.25.38-.3.59-.04.17.03.37.06.62.6-.49.73-1.05.76-1.66.64-.24.71-.41.45-1.15l.69-.25Zm-47.03-12.24c-.07.03-.15.05-.2.09-.07.06-.13.14-.18.21,0,0,.06.08.07.07.09-.05.19-.09.24-.16.04-.05.02-.15.03-.22.07-.03.16-.04.21-.1.05-.05.06-.14.08-.21-.05.04-.11.08-.14.13-.04.06-.07.12-.11.19Zm16.93,16.26c.3.04.63.12.68-.43-.27.17-.47.3-.68.44l.11.43s.04-.02.06-.02c-.06-.14-.11-.27-.17-.41Zm-4.26,11.41l-.32.33c.07.02.13.04.2.06.03-.14.06-.27.08-.41.01-.13.03-.26.04-.39-.06,0-.12.02-.18.03.03.1.06.2.09.3.01.03.05.06.08.08Zm11.62-26.28c-.48.07-.52.1-.44.45l.44-.45c0-.23,0-.46,0-.69-.07.01-.14.02-.21.03.07.22.14.44.2.66Zm13.15,19.49c.24-.12.46-.25.11-.85-.04.46-.06.67-.08.88-.1.02-.21.05-.31.07.03.05.06.1.09.15.06-.08.13-.16.19-.24Zm-14.41-55.16c.16-.33.67-.57.32-1.05,1.03-.39,1.3-.84,1.05-1.78q.7-.06.69-.94c-.29.41-.48.69-.67.97-.35.59-.7,1.19-1.05,1.78-.02.37-.72.55-.31,1.04-.11.02-.22.04-.33.06.01.03.02.07.03.1l.27-.18Zm-21.25,24.02q-.46.03-.3.67c.12-.32.2-.5.27-.69.06-.07.13-.13.19-.2l-.09-.04c-.02.09-.04.17-.07.26Zm10.11,39.1c-.16.22-.57.37-.27.77.55-.16.49-.45.23-.8.06-.03.12-.06.18-.08-.03-.03-.06-.05-.09-.08-.02.06-.03.13-.05.19Zm-6.06-13.92c.03.28-.42.53.05.82-.03-.28-.06-.57-.09-.85.11-.06.22-.13.32-.19-.02-.03-.05-.06-.07-.09l-.21.31Zm50.28-15.79q.51-.21.48-.9c-.15.31-.3.62-.45.93-.13.27-.56.42-.35.88.42-.21.4-.55.32-.9Zm18.16-4.91c.94-.14.97-.17.83-.87.5-.23.88-.53.76-1.16.67-.58,1.11-1.32,1.47-2.13.43-.95.91-1.87,1.38-2.81.45-.89.89-1.79,1.36-2.67.42-.8.88-1.58,1.35-2.41-.43-.24-.56-.12-.73.2-.46.88-.78,1.86-1.57,2.54-.08.07-.18.22-.16.31.17.67-.45,1.01-.67,1.5-.57,1.28-1.28,2.49-1.92,3.74-.19.37-.16.81-.66,1.06-.34.17-.04.48.17.68-.28-.03-.43.09-.49.38-.05.27-.18.52-.27.77-.3.29-.6.59-.9.88.02.05.04.1.07.14-.01-.06-.03-.11-.04-.17Zm-70.08,24.15c.57-.38.62-.59.3-1.15.14-.05.28-.1.42-.15,0-.02-.02-.03-.02-.05l-.39.19c0,.41-.54.71-.27,1.19-.35.07-.49.24-.24.65.08-.26.14-.47.2-.67Zm28.08-9.87q.41-.42.53-1.14c-.55.26-.66.65-.5,1.16-.23.13-.57.2-.36.6-.63.62-.69.71-.88,1.61.55-.41.78-.97.85-1.63.37-.05.35-.33.36-.6Zm-26.75-14.71l-.83,1.51c-.14.06-.34.08-.41.19-.68,1.08-1.36,2.16-1.98,3.27-1.51,2.7-2.98,5.42-4.48,8.13-.31.56-.75,1.07-.99,1.66-.41,1.03-.86,2.02-1.47,2.97-.4.62-.56,1.4-.81,2.11-.06.18-.06.39-.09.59.63-.58,1.19-1.18,1.49-1.88.54-1.26,1.35-2.35,1.97-3.55.25-.48.52-.95.77-1.42.47-.89.86-1.82,1.42-2.64.47-.69.81-1.43,1.18-2.16.61-1.22,1.23-2.44,1.87-3.63.54-.99.91-2.07,1.59-2.99.09-.12-.06-.42-.1-.64.7-.27.86-.83.82-1.51.17-.12.34-.24.51-.36-.04-.04-.09-.08-.13-.13-.12.17-.23.33-.35.5Zm-9.92,13.24c-.11.4-.23.79-.35,1.22.73-.52.76-.65.34-1.22.23-.06.46-.12.69-.19-.12-.14-.23-.27-.35-.41.67.15.8-.44,1.05-.8.47-.69.89-1.43,1.3-2.16.42-.75.81-1.51,1.34-2.52-.46.25-.75.31-.84.47-.85,1.63-1.77,3.23-2.74,4.79-.04.07-.06.15-.09.22.13.35,0,.54-.36.59Zm59.12-4.9c-.54.24-.91.62-.99,1.23.33-.4.96-.58.96-1.24.04-.12.08-.24.12-.36-.03,0-.07,0-.1-.01,0,.13.02.26.02.39Zm1.39.85c-.14.14-.41.3-.4.43.05.53-.3.78-.67,1.04.89-.29,1.05-.54,1.03-1.49.57-.18.54-.77.8-1.16.11-.03.3-.05.32-.1.28-1.36,1.47-2.23,1.88-3.54.24-.76.76-1.43,1.21-2.25-.78.12-1.02.6-1.22,1.14-.13.34-.25.69-.46.98-.7,1.01-1.28,2.07-1.7,3.22-.06.17,0,.38,0,.57-.5.23-.73.64-.79,1.17Zm-31.75,9.91c-.79.3-.97,1-1.14,1.71-.44.59-.97,1.14-1.32,1.79-.81,1.51-1.66,3-2.53,4.48-.28.47-.32,1.08-.48,1.63-.6.43-1,.96-.8,1.76-.73.71-1.35,1.47-1.39,2.55l-.43.31.17.12c.08-.15.16-.31.23-.46.18-.1.41-.16.52-.3.15-.2.13-.58.3-.7.59-.4.59-.96.56-1.55.51-.47.89-1.01.8-1.75.6-.12.78-.62,1.01-1.09.55-1.14.99-2.37,1.74-3.36.64-.83.88-1.83,1.49-2.65.14-.18.06-.53.08-.8.14-.05.35-.06.4-.16.27-.51.49-1.04.74-1.56.27-.45.54-.9.81-1.35-.65.26-1.03.67-.78,1.38Zm64.46-33.47c.23-.05.48-.06.67-.17.14-.08.3-.32.27-.45-.03-.13-.27-.22-.5-.38-.17.39-.31.69-.44.99.08.16.17.32.25.48.05-.05.11-.09.16-.14l-.42-.34Zm-1.03,2.74c.37-.55.74-1.09,1.16-1.71-1.11.21-1.24.45-1.12,1.74q-.36.12-.3.5c.09-.18.18-.35.26-.52Zm-68.36,45.51c.21-.1.54-.16.61-.32.35-.85.63-1.73.93-2.61.5-.14.39-.63.78-1.06q-.69.28-.75,1.08c-.76.32-.92,1.12-1.26,1.73-.17.31-.56.72-.28,1.19q-.8.34-.72,1.34c.43-.41.97-.65.69-1.36Zm71.15-46.6c-.2.02-.51-.03-.58.07-.57.85-1.09,1.74-1.62,2.61.38.02.67-.07.79-.26.5-.79.94-1.62,1.4-2.44.05-.25.1-.5.15-.76-.06,0-.13,0-.19,0,.01.26.03.52.04.78Zm-91.84,13.69c-.16.12-.39.2-.47.36-.7,1.35-1.4,2.7-2.05,4.07-.14.3-.09.7-.12,1.05-.1.1-.19.21-.29.31.06.03.12.06.18.09.03-.14.05-.28.08-.42.13-.14.3-.26.39-.42.71-1.24,1.44-2.46,2.09-3.73.19-.37.65-.8.19-1.3.15-.04.37-.04.44-.14.83-1.18,1.53-2.45,2.11-3.78.01-.03-.08-.12-.18-.26-.21.14-.54.23-.63.43-.52,1.09-1.09,2.15-1.75,3.16-.09.13,0,.38.02.58Zm13.73,14.25c-.66.07-.93.64-1.18,1.1-.81,1.47-1.54,2.98-2.28,4.48-.04.07.04.2.09.38.18-.16.33-.24.4-.37.75-1.28,1.51-2.56,2.22-3.86.3-.55.49-1.16.72-1.75.93-.65,1.02-1.8,1.66-2.63-.8.49-1.58,1.57-1.7,2.29-.02.11.04.24.07.35Zm-10.08,9.3c-.19.14-.44.24-.56.42-1.09,1.69-2.03,3.47-3.33,5.03-.42.5-.99,1.14-.41,1.93.32.02.49-.02.67-.36,1.03-1.94,2.13-3.85,3.19-5.78.21-.38.33-.8.5-1.21.68-.47.7-1.22.91-1.9-.32.3-.63.6-.82.96-.13.26-.11.6-.15.91Zm11.39,3.97c-.97.21-1.08,1.19-1.52,1.83-1.02,1.51-1.89,3.12-2.82,4.7-.32.54-.62,1.08-.94,1.64.58.28,1.07.31,1.38-.16.48-.73.88-1.51,1.29-2.29.28-.52.49-1.08.76-1.61.2-.39.49-.73.66-1.12.34-.8.77-1.53,1.34-2.19.31-.36.09-.58-.18-.8.15-.06.33-.08.44-.18.32-.28,1.36-2.45,1.48-3.03-.36.34-.99.66-1.04,1.05-.09.73-.59,1.1-.92,1.62-.08.12.02.36.04.54Zm2.13-20.94c.71-.66,1.03-1.58,1.57-2.36,1.22-1.78,2.52-3.51,3.76-5.29.68-.98.6-2.03.21-3.14-.14.1-.19.11-.21.14-1,1.81-1.99,3.62-2.98,5.43-.42.76-.86,1.51-1.27,2.28-.49.92-1.01,1.84-1.07,2.92-.06.02-.12.04-.17.06.02-.02.04-.06.06-.06.03,0,.07.02.1.03Zm5.28-17.14c-.18.08-.42.12-.52.26-.52.71-1.04,1.43-1.49,2.18-.71,1.17-1.35,2.38-2.05,3.55-.8,1.34-1.39,2.77-2.05,4.18-.44.94-.82,1.9-1.45,2.76-.55.76-.76,1.71-.98,2.63,0,.03.05.06.07.1-.66-.03-.42.43-.55.8.58-.15.46-.52.51-.82.1-.07.23-.12.29-.22,1.07-1.79,2.2-3.54,3.18-5.39.45-.85,1.06-1.64,1.26-2.65.12-.6.46-1.22.86-1.69.71-.84.9-1.93,1.53-2.82.61-.86.94-1.92,1.4-2.89-.03-.09-.07-.18-.1-.26.03.09.06.18.09.27Zm7.9,36.71c.14-.03.41-.06.41-.08-.02-.56.41-.86.68-1.25.2-.3.39-.61.57-.92.8-1.37,1.55-2.77,2.39-4.12,1.27-2.04,2.62-4.02,3.89-6.06.41-.66.65-1.44.98-2.21-.79,0-1.42-.03-2.04-.02-.48.01-.8.21-.99.72-.3.78-.58,1.56-1.08,2.28-.31.45-.53,1.04-.82,1.56-.11.2-.1.46-.14.7-.02.15.02.37-.06.45-.65.61-.8,1.42-1.02,2.23-.14.52-.57.96-.75,1.47-.29.81-.86,1.51-.88,2.42-.76.62-.53,1.69-1.1,2.4-.07.09.01.3.02.46q-.44.25-.13.75c.04-.32.07-.55.09-.77Zm-24.33-31.44c.33.11.4-.15.53-.35.41-.65.84-1.28,1.24-1.94.86-1.42,1.73-2.84,2.54-4.29.86-1.54,1.64-3.11,2.46-4.67.15-.28.32-.55.49-.82.48-.81,1-1.61,1.44-2.44.67-1.26,1.16-2.64,1.96-3.81.56-.82,1.08-1.69,1.54-2.53.81-1.48,1.65-2.93,2.5-4.39.36-.62.79-1.2.99-1.9.04-.15.14-.29.23-.42.54-.89,1.11-1.76,1.63-2.66.88-1.53,1.73-3.08,2.6-4.61-.41.23-.82.5-1.09.86-.72.98-1.08,2.2-1.98,3.06-.25,1.31-1.4,2.12-1.83,3.34-.13.37-.35.72-.56,1.05-.27.44-.65.83-.85,1.3-.46,1.11-1.11,2.12-1.71,3.15-.81,1.38-1.73,2.68-2.53,4.06-.27.46-.43.95-.84,1.34-.2.19-.12.67-.3.91-.72.95-.87,2.24-1.84,3.03-.37,1.25-1.12,2.27-1.83,3.35-.93,1.42-1.59,3.01-2.41,4.5-.76,1.38-1.61,2.71-2.38,4.09-.11.2-.04.51-.05.78-.67.58-1.12,1.27-1.15,2.2.51-.56.91-1.19,1.29-1.82.04-.07-.05-.22-.08-.34Zm12.13-7.88c-.97.58-1.43,1.61-1.94,2.52-.56.99-1.15,1.98-1.76,2.94-1.24,1.98-2.6,3.88-3.61,6-.07.14-.21.24-.3.37-.57.86-1.16,1.71-1.7,2.59-.58.95-.98,2.05-1.71,2.86-.45.5-.53,1.06-.84,1.56-.9,1.47-2.13,2.76-2.67,4.45-.68.58-.94,1.43-1.34,2.17-.61,1.14-1.36,2.19-1.89,3.38-.45,1.01-.99,1.99-1.49,2.98-.21.41-.35.86-.61,1.23-.61.86-.6,1.96-1.33,2.81-.63.74-.82,1.78-.25,2.9.64-1.1,1.19-2.07,1.76-3.03.31-.51.68-.99.96-1.51.34-.63.57-1.31.92-1.93.81-1.43,1.76-2.79,2.47-4.26.66-1.37,1.4-2.68,2.16-3.99.42-.72.86-1.42,1.29-2.13.97-1.58,1.75-3.27,2.62-4.91.3-.56.62-1.11.94-1.66.5-.86,1.01-1.71,1.5-2.58.66-1.19,1.29-2.4,1.95-3.59.64-1.15,1.3-2.3,1.95-3.45.59-1.06,1.11-2.16,1.77-3.17.49-.74.65-1.63,1.16-2.34.03-.04-.04-.15-.07-.22.46-.47.97-.9.95-1.65-.4.41-.73.87-1.03,1.34-.04.06.07.21.11.32Zm-.32,28.97s-.1-.1-.15-.14c-.15.08-.35.12-.43.25-.6.88-1.16,1.79-1.78,2.67-.43.61-1.05,1.11-1.39,1.76-.67,1.28-1.45,2.48-2.19,3.71-.54.89-1.17,1.73-1.75,2.59-.34.5-.71.99-1.02,1.51-1.05,1.76-2.07,3.54-3.11,5.31-.22.38-.48.74-.68,1.13-.17.33-.1.67.28.8.73.25,1.4.3,1.78-.47.41-.82.9-1.59,1.35-2.39.88-1.61,1.76-3.22,2.64-4.83.23-.42.51-.81.73-1.24.89-1.73,1.75-3.47,2.64-5.2.46-.89.97-1.76,1.46-2.64.15-.27.28-.55.44-.82.39-.67.79-1.33,1.19-2Zm57.36-24.08c-.08-.02-.17-.08-.22-.06-1.24.56-2.22,1.39-3.02,2.52-.91,1.29-1.16,2.93-2.27,4.09-.02.93-1.09,1.43-.99,2.41-.83,1-.91,2.4-1.78,3.39-.28.31-.39.77-.58,1.15-.36.71-.54,1.5-1.07,2.12-.08.09-.06.27-.09.41.58-.22,1-.57,1.4-.94.76-.7,1.16-1.62,1.63-2.52.54-1.02,1.24-1.95,1.82-2.95.59-1.02,1.1-2.08,1.66-3.11.53-.97,1.09-1.91,1.63-2.87.33-.59.68-1.18.99-1.78.32-.61.6-1.24.9-1.86Zm-57.92,37.01c.36-.27.61-.35.66-.51.25-.68.69-1.23,1.12-1.81.73-1,1.07-2.22,1.84-3.22.59-.77,1-1.7,1.48-2.56.85-1.54,1.72-3.07,2.47-4.67.49-1.05.9-2.22,1.86-3.01.14-.12.25-.34.28-.53.15-.98.64-1.77,1.22-2.55.58-.77.48-1.05-.41-1.78-.48.85-.96,1.7-1.43,2.55-1.05,1.93-1.83,4.01-3.18,5.78.18.53-.43.65-.56,1.05-.26.84-.55,1.68-.94,2.46-.99,1.95-2.04,3.87-3.07,5.8-.38.71-.63,1.5-1.25,2.08-.13.12-.06.44-.1.93Zm-15.64-4.65c.11-.1.18-.18.26-.25,1.03-.9,1.22-2.43,2.39-3.23.09-.06.13-.21.16-.32.23-.85.74-1.53,1.23-2.24.45-.65.82-1.35,1.45-1.86.12-1.28,1.27-2.01,1.63-3.21.36-1.22,1.1-2.33,1.69-3.47.43-.82.91-1.61,1.34-2.42.09-.17.09-.4.16-.76-.34.21-.58.27-.67.42-.36.62-.67,1.28-1.02,1.91-.31.56-.53,1.24-.99,1.63-.73.63-1.07,1.48-1.56,2.23-.65,1.01-1.18,2.1-1.75,3.15-1,1.84-2,3.69-3,5.53-.46.84-.94,1.67-1.39,2.51-.04.08.03.23.07.39Zm13.65-35.64c.08.05.16.1.25.15.17-.19.36-.37.5-.59.17-.26.29-.57.45-.84.52-.85,1.08-1.68,1.58-2.55.42-.73.75-1.51,1.5-2,.22-.14.43-.44.47-.69.14-.93.78-1.57,1.27-2.29.43-.62.96-1.18,1.33-1.83,1.08-1.95,2.36-3.8,3.2-5.88.06-.15-.08-.38-.18-.77-.61,1.03-1.04,1.93-1.64,2.71-1.35,1.78-2.28,3.82-3.5,5.67-.42.63-.78,1.3-1.11,1.98-.56,1.15-1.57,2.02-1.94,3.29-.06.21-.31.36-.48.53-.17.17-.42.3-.52.51-.42.85-.79,1.73-1.18,2.6Zm16.73,22.21c-.1-.07-.2-.13-.29-.2-.29.2-.67.33-.84.6-.59.92-1.18,1.85-1.62,2.84-.56,1.25-1.26,2.42-1.85,3.65-.82,1.7-1.74,3.35-2.59,5.04-.1.2-.03.49-.03.78.21-.06.32-.06.35-.11.66-1.12,1.24-2.28,2.03-3.33.76-1.02,1.31-2.19,1.93-3.31.59-1.06,1.18-2.12,1.74-3.19.35-.67.66-1.36.97-2.05.1-.23.15-.48.22-.72Zm-16.12-15.74c.22-.26.48-.49.66-.78,1.33-2.06,2.67-4.11,3.95-6.19.77-1.24,1.48-2.52,2.15-3.82.32-.63.5-1.35.7-2.04.05-.17-.08-.39-.15-.66-.4.56-.75.98-1.03,1.44-.41.69-.72,1.44-1.15,2.13-1.18,1.91-2.28,3.86-3.28,5.87-.33.65-.53,1.38-.95,1.95-.48.63-.75,1.31-.9,2.1Zm1.44,18.06c.09.08.18.15.27.23.2-.22.42-.42.59-.66.21-.29.4-.59.57-.91.6-1.16,1.51-2.13,2.15-3.26.77-1.35,1.65-2.62,2.54-3.89.27-.39.52-.81.72-1.24.21-.44.31-.9.03-1.39-.15-.26-.1-.67-.64-.59-.09.32-.15.69-.29,1.01-.29.66-.65,1.29-.95,1.94-.29.65-.97.99-1.17,1.74-.41,1.5-1.62,2.6-2.19,4.06-.41,1.04-1.08,1.98-1.63,2.97Zm-.78-33.33c.13-.16.29-.31.38-.48.26-.49.47-1.02.76-1.5.45-.76.98-1.48,1.43-2.24,1.14-1.93,2.41-3.8,3.34-5.82.62-1.35,1.5-2.52,2.09-3.88.47-1.07,1.05-2.15,1.86-3.05.09-.1.01-.35.01-.73-.37.22-.68.3-.79.49-.44.75-.8,1.55-1.22,2.32-.25.47-.37.98-.81,1.4-.46.44-.86,1.08-.99,1.7-.14.63-.47,1.08-.81,1.55-.42.57-.56,1.32-1.17,1.76.13.69-.41,1.08-.7,1.58-.56.97-1.12,1.93-1.68,2.89-.44.77-.8,1.6-1.34,2.29-.4.52-.41,1.06-.39,1.7Zm7.7,53.01c1.39.12,1.94-.58,2.31-1.48.46-1.11.89-2.24,1.34-3.36.15-.35.38-.67.52-1.02.16-.4.25-.83.38-1.24.21-.66.43-1.31.65-1.96-.54.66-.88,1.4-1.25,2.12-.51.96-1.33,1.74-1.65,2.82-.03.11-.14.2-.2.3-.68,1.23-1.35,2.46-2.1,3.82Zm23.66-17.37c.27-.59.4-.96.6-1.28.16-.26.45-.44.58-.7.42-.81.8-1.64,1.19-2.46.53-1.1,1.54-1.92,1.86-3.15.02-.07.08-.17.14-.19.63-.23.46-.79.61-1.28-1.5.61-1.55.67-1.96,2.02-.07.22-.21.42-.35.62-.29.41-.58.79-.7,1.33-.15.68-.59,1.3-.91,1.94-.41.81-.85,1.61-1.24,2.44-.06.12.07.32.17.72Zm47.01-29.92c.11.06.22.13.34.19.31-.5.64-.98.94-1.49.23-.4.32-.96.65-1.21.7-.53.67-1.51,1.38-2.01.15-.11.15-.43.23-.64.17-.42,0-.73-.38-.87-.41-.15-.7.05-.87.44-.3.74-.59,1.49-.9,2.23-.34.81-.7,1.61-1.05,2.42-.13.31-.23.63-.35.95Zm-81.26.65c-.07-.04-.14-.07-.21-.11-.31.3-.73.54-.91.9-.49.99-.8,2.08-1.74,2.8-.11.09-.14.29-.22.43-.53.9-1.07,1.79-1.59,2.7-.3.51-.57,1.04-.91,1.67.28.03.47.05.5.05.43-.71.8-1.32,1.18-1.91.32-.49.68-.96.99-1.46.68-1.09,1.35-2.18,1.99-3.29.33-.57.61-1.18.92-1.77Zm15.46-26.35l.27.06c1.21-2.55,3.13-4.69,4.16-7.38-.33.07-.65.18-.81.4-.36.51-.66,1.08-.95,1.64-.38.73-.64,1.56-1.14,2.2-.3.39-.52.79-.73,1.21-.25.49-.54.96-.79,1.45-.06.11,0,.28,0,.43Zm-26.5,73.86c.61-1.21,1.34-2.37,1.79-3.63.43-1.22,1.41-2.26,1.32-3.66-.43.79-1.23,1.38-1.28,2.37-.69.6-.63,1.56-1.09,2.31-.46.75-.9,1.61-.74,2.62Zm44.22-23.52c-.46-.14-.78.02-1.02.41-.55.92-1.14,1.82-1.65,2.76-.3.56-.48,1.18-.71,1.77,1.41-1.48,2.3-3.27,3.38-4.95Zm15.17.2c.09.05.17.1.26.15.73-.73,1.33-1.55,1.69-2.55.16-.45.4-.87.61-1.3.29-.59.58-1.18.95-1.92-.55.1-.79.27-.95.65-.26.61-.57,1.2-.88,1.79-.56,1.06-1.13,2.11-1.69,3.17Zm10.65-10.86c-.07-.05-.14-.09-.21-.14-.29.31-.66.59-.87.95-.58,1.01-1.08,2.07-1.65,3.08-.21.37-.2.66,0,1.22.97-1.83,1.85-3.47,2.73-5.11Zm-67.74-7.72c-.07-.04-.14-.08-.21-.12-.56.82-1.13,1.64-1.67,2.47-.05.08.07.28.1.42.14-.04.36-.03.42-.13.31-.45.61-.92.87-1.41.2-.39.33-.82.5-1.23Zm89.98-11.63q-.57-.21-1.72,1.41c.24.03.48.05.57.06.41-.52.76-.97,1.15-1.47Zm-49.89,42.59c1.11-.41.83-1.21,1.06-1.77-.63.33-.78.92-1.06,1.77Zm-30.13-33.9c-.12.29-.16.63-.36.82-.23.22-.6.31-.26.71q1.13-.88.61-1.53Zm-3.4,25.34c-.31.51-.81.91-.76,1.61.61-.34.51-1.07.76-1.61Zm17.15-55.98c-.26.45-1.13.5-.83,1.31.28-.45,1.02-.55.83-1.31Zm-15.69,34.18c.5-.33.82-.57.92-1.12-.67.03-.94.33-.92,1.12Zm3.42,42.33c.69-.06.86-.15.85-.47,0-.1-.1-.24-.19-.27-.36-.12-.5.14-.61.41-.03.07-.03.15-.05.33Zm18.99-82.51c.06.01.16.05.17.03.25-.41.5-.83.74-1.25-.36.37-1.19.4-.91,1.22Zm38.42,44.58c-.43.22-.54.56-.42,1.02.61-.2.43-.64.42-1.02Zm-34.07,27.33c-.24.46-.4.76-.61,1.16.62-.18.75-.5.61-1.16Zm-33.85-34.16l-.31-.13c-.14.38-.28.76-.42,1.15.06.03.13.05.19.08.18-.36.36-.73.54-1.09Zm61.24,11.68c-.45.12-.92.23-.45.92.18-.37.32-.64.45-.92Zm-60.44,28.04q.51-.16.45-.64c-.1.08-.21.13-.26.22-.07.11-.11.24-.19.43Zm84.85-47.32c-.32.36-.53.64-.31,1.12.46-.28.55-.6.31-1.12Zm-25.27,21.45q-.45-.1-.56.42c.21-.16.39-.29.56-.42Zm-4.54,4.6c.09.03.18.06.27.09.04-.22.45-.36.03-.8-.12.3-.21.51-.29.71Zm27.83-24.49c.14-.25.26-.45.36-.66.01-.03-.1-.17-.14-.17-.42.04-.26.42-.36.64,0,.01.04.05.14.18Zm-54.43,42.29c-.1-.04-.2-.08-.3-.13l-.22.83c.05.02.11.04.16.05.12-.25.24-.51.35-.76Zm-20.87,5.49c-.07.19-.14.32-.14.44,0,.06.17.11.26.16.07-.13.16-.25.2-.38,0-.03-.16-.11-.32-.22Zm73.1-44.33c.09.04.19.08.28.12.06-.19.13-.38.19-.57l-.2-.08c-.09.17-.18.35-.27.52Zm-83.64,11.33c.06.05.12.1.18.15.13-.2.25-.4.38-.6-.1-.06-.21-.11-.31-.17-.08.21-.16.41-.24.62Zm30.38,13.69c.08.03.15.06.23.09.08-.22.16-.45.24-.67-.07-.03-.15-.06-.22-.08-.08.22-.17.45-.25.67Zm17.02,6.55c.03-.5.05-.79.08-1.23-.51.42-.38.71-.08,1.23Zm37.79-34.05c.06,0,.13,0,.19,0,.02-.17.05-.33.07-.5-.1,0-.2,0-.3.01.01.16.02.32.04.48Zm-72.18,45.44c-.08-.05-.15-.11-.23-.16-.1.18-.2.36-.3.55.06.03.17.09.18.08.12-.15.23-.31.34-.46Zm-1.02-7.69c-.07.12-.15.21-.15.31,0,.04.18.15.23.12.09-.04.14-.16.21-.24-.09-.06-.18-.12-.29-.19Zm27.56-6.55s.09.02.14.03l.06-.38s-.1-.02-.1-.01c-.04.12-.07.24-.1.36Zm16.64-4.69c.03.06.05.11.08.17.18-.08.35-.16.53-.24-.03-.06-.06-.12-.09-.18-.17.08-.34.17-.52.25Zm-49.94,13.02c-.06-.02-.11-.03-.17-.05-.03.06-.09.13-.09.19-.01.09.01.19.02.28l.24-.43Zm-5.1.79c-.07-.03-.13-.06-.2-.1-.12.22-.23.44-.35.66l.22.11c.11-.22.22-.45.33-.67Zm56-15.2c.05.01.1.02.15.04.05-.17.09-.34.14-.5-.07,0-.2-.01-.21,0-.04.15-.06.31-.08.46Zm25.75-25.33c-.09-.05-.17-.1-.26-.15-.06.18-.12.36-.18.54.05.02.1.04.15.06l.29-.45Zm-70.41,30.53c.09.02.18.04.26.06.04-.21.08-.43.12-.64l-.19-.04c-.06.21-.13.42-.19.63Zm-1.51,19.71c-.06.18-.14.31-.14.45,0,.05.19.09.3.14.05-.12.14-.24.14-.36,0-.06-.16-.12-.3-.22Zm19.44-80.85c.08.03.15.06.23.09.07-.18.14-.37.21-.55-.07-.03-.14-.05-.21-.08-.08.18-.15.36-.23.54Zm-21.54,73.91q.52-.11.59-.62c-.22.23-.37.39-.59.62Zm18.83-69.6c.08.05.16.09.24.14.09-.18.19-.36.28-.55-.04-.03-.09-.06-.13-.09-.13.17-.26.33-.39.5Zm53.52,28.98l.26.04c0-.16.02-.32.02-.48,0-.01-.19-.04-.19-.03-.04.15-.06.31-.09.47Zm-28.01,18.63l-.05-.17c-.15.04-.3.07-.45.12,0,0,.03.13.05.19.15-.05.3-.09.45-.14Zm16.17-7.36c-.07-.06-.13-.12-.2-.18-.06.12-.12.24-.19.37.13-.06.26-.12.39-.19Zm-50.23,11.89c-.07.02-.13.03-.2.05l.16.46c.06-.02.12-.04.18-.06-.05-.15-.09-.3-.14-.45Zm14.07-62.85c.05-.11.11-.2.15-.3,0-.01-.07-.07-.07-.07-.08.06-.15.12-.23.19.04.05.08.09.16.18Zm-23.98,71.77c-.08-.08-.12-.14-.17-.19-.08.08-.17.16-.22.25-.01.02.12.12.19.19.07-.08.14-.17.2-.24Zm10.13-11.23s.04-.06.07-.09c-.05-.02-.11-.03-.16-.05,0,.06,0,.11,0,.17.03-.01.07-.02.1-.04Zm11.85-55.37c-.05.05-.12.08-.14.14-.01.04.04.11.06.17.05-.05.12-.09.15-.14.02-.04-.04-.11-.06-.16Zm-6.46,8.49l-.27-.02c.02.18.03.35.05.53.05,0,.1,0,.15,0,.02-.17.05-.34.07-.51Zm-17.2,59.92c-.03.1-.07.2-.1.3.07.02.18.07.19.05.06-.07.09-.17.13-.26-.07-.03-.13-.05-.22-.09Zm.81-15.53c-.05.09-.1.19-.15.28.07,0,.15.04.2,0,.06-.03.1-.11.14-.17-.05-.03-.11-.07-.19-.12Zm1.89-20.08c.09-.16.16-.24.17-.33,0-.05-.11-.16-.12-.16-.09.05-.2.11-.23.19-.02.05.09.15.18.29Zm-1.13,19.15c-.1-.04-.19-.1-.22-.08-.06.05-.1.13-.11.2,0,.04.07.09.12.13.07-.08.13-.16.21-.25Zm-6.37,20.88c-.16.02-.28.02-.28.04-.02.11,0,.23,0,.34.08-.11.17-.22.29-.38Zm8.44-10.09c.06-.05.14-.09.16-.14.01-.04-.06-.11-.1-.17-.05.05-.14.08-.15.14-.01.05.06.12.09.18Zm-7.28,12.58c-.05.05-.15.09-.15.14,0,.06.08.12.12.18.07-.07.13-.14.2-.21-.06-.04-.11-.08-.17-.11Zm-5-27.06s-.08-.12-.14-.14c-.03-.01-.09.07-.14.11.06.07.12.13.19.2.03-.06.06-.12.1-.18Zm30.99,23.49c-.04-.05-.08-.14-.13-.15-.05,0-.12.06-.17.1.05.05.08.14.14.15.05.01.11-.07.17-.1Zm7.72-2.86s-.05-.04-.07-.04c-.03,0-.07.01-.1.02.03.03.05.07.09.08.02,0,.05-.03.08-.05Zm-30.37-25.77c.05-.04.1-.08.15-.12-.05-.03-.09-.07-.14-.09-.02,0-.08.04-.08.05.01.06.04.11.06.17Zm13.17,29.13c0-.07.01-.14.02-.2-.05.01-.11.01-.15.03-.02.01-.04.09-.03.1.05.03.1.05.16.07Zm-9.4-.22l.02-.21c-.06,0-.12,0-.17.03-.02,0-.03.09-.01.1.04.04.1.05.15.08Zm3.18-1.62c.01-.06.03-.12.04-.18,0,0-.08-.04-.09-.03-.04.04-.07.09-.1.14.05.02.1.05.15.07Zm41.88-11.11c-.07,0-.16-.04-.21-.01-.05.03-.07.12-.1.19.09.01.19.03.28.02.02,0,.02-.13.03-.2Zm-54.25-23.65c-.05-.02-.1-.04-.15-.05-.02,0-.07.06-.06.08.02.05.06.08.1.12.04-.05.08-.1.12-.15Zm77.11-1.45c.05.04.1.12.15.12.06,0,.12-.06.18-.1-.07-.05-.13-.12-.2-.15-.02,0-.09.09-.13.14Zm-66.32,35.13c0-.07.01-.13,0-.2,0-.02-.08-.05-.09-.04-.04.04-.07.1-.1.15.06.03.12.06.19.09Zm3.47-38.15c.04-.07.1-.13.13-.2.01-.04-.04-.1-.06-.16-.05.05-.13.1-.15.17-.01.05.05.13.08.19Zm-9.49,22.99c-.07,0-.14-.02-.2-.01-.03,0-.06.09-.06.09.04.04.09.07.14.1.04-.06.07-.12.11-.18Zm45.82,3.7l.07.06.02-.1-.09.04Zm-42.83-3.79c-.04-.05-.07-.11-.11-.16,0,0-.09.03-.09.05,0,.06.02.12.03.19.06-.03.11-.05.17-.08Zm64.95-16.14c.06.02.13.05.19.06,0,0,.05-.09.04-.1-.04-.05-.09-.09-.14-.14-.03.06-.06.12-.09.18Zm-51.29-29.49c-.08-.08-.12-.12-.17-.17-.06.07-.14.13-.17.21-.01.04.08.11.13.16.07-.07.14-.14.22-.21Zm.88-1.12c-.07-.02-.15-.07-.21-.06-.06.02-.1.1-.15.16.09.03.18.07.27.07.03,0,.06-.11.09-.17Zm-15.05,75.33c-.06-.03-.14-.08-.19-.07-.06.02-.1.1-.15.15.06.03.14.09.19.07.06-.02.1-.1.15-.15Zm4.03-27.98c-.06,0-.12-.02-.18-.02,0,0-.03.08-.01.11.03.05.09.08.13.12.02-.07.04-.14.06-.21Zm9.86-48.65s-.01-.06-.02-.1c-.03.04-.07.07-.09.11,0,.01.03.05.05.07.02-.03.04-.06.06-.09Zm49,34.69s-.1-.02-.1-.02c-.02.04-.02.09-.03.13.04-.01.08-.02.11-.04.02-.01.02-.05.03-.08Zm-23.51,16.38c.06-.04.11-.07.17-.11-.04-.03-.11-.1-.12-.09-.05.04-.09.1-.13.15.03.02.05.03.08.05Zm-15.58-61.39c-.04-.08-.07-.14-.1-.19-.07.06-.17.11-.21.19-.02.03.06.12.09.19.08-.06.15-.12.22-.18Zm-24.41,64.52c-.06-.02-.11-.03-.17-.05,0,.03-.01.07,0,.1.01.03.04.05.07.08.03-.05.07-.09.1-.14Zm63.33-14.97c-.06,0-.14-.04-.18-.02-.05.03-.07.11-.1.18.09.01.17.03.26.04,0-.07.02-.13.02-.2Zm-7.84,1.94c-.1.21-.17.31-.15.34.06.09.16.15.24.23-.02-.14-.05-.29-.09-.57Zm-47.91,15.67c0,.07-.03.15,0,.21.02.04.11.04.18.05.01-.07.06-.16.03-.2-.03-.04-.13-.04-.2-.06Zm-4.04.79s-.06-.05-.07-.04c-.03.01-.05.05-.07.07.04.02.08.04.12.07,0-.03.01-.06.02-.1Zm2.17-1.36c-.06.04-.15.08-.16.13,0,.05.07.11.11.17.05-.04.14-.08.14-.13,0-.06-.06-.12-.1-.18Zm56.91-15.4c-.05-.05-.09-.14-.15-.15-.05,0-.12.07-.18.1.05.05.1.14.16.15.05.01.12-.06.18-.1Zm-9.79,2.81s.02.06.04.07c.03.01.07,0,.1,0-.02-.04-.04-.08-.07-.12-.03.02-.05.04-.08.06Zm9.05-1.72s0,.06,0,.09c.03-.03.06-.05.08-.08-.03,0-.05,0-.08-.01Zm-63.9,16.43s-.02-.07-.05-.07c-.03-.01-.07,0-.1,0,.03.05.05.09.08.14.03-.02.05-.05.08-.07Zm11.25-4.13s.07,0,.1,0c-.03-.03-.06-.06-.09-.09,0,.03,0,.05-.01.08Zm-4.25.93s-.07-.04-.11-.06c-.02.07-.05.14-.06.21,0,0,.07.03.11.05.02-.07.04-.13.06-.2Zm4.09,1.48l-.05-.07v.08s.05-.02.05-.02Zm9.77-56.52s-.05-.05-.08-.08c-.02.03-.07.07-.06.08.04.04.08.08.12.12,0-.04.01-.07.02-.11Zm-7.12,50.2s-.04.06-.04.08c0,.03.04.05.06.07.02-.03.05-.06.04-.08,0-.03-.04-.05-.06-.08Zm1.54-.66c-.06.01-.11.02-.17.03.03.01.06.04.09.03.03,0,.05-.04.08-.06Zm-6.51,8.82l-.05-.06-.02.08.07-.02Zm50.53-20.49s-.06,0-.09,0c-.01,0,0,.04-.01.07.03,0,.06,0,.09,0,.01,0,.01-.04.01-.07Zm5.55-1.5s-.04-.06-.05-.1c0,.05-.02.1-.03.15.03-.02.05-.03.08-.05Zm-58.72,14.59c-.02.05-.04.11-.06.16.06.01.13.05.18.03.04-.01.05-.09.08-.15-.07-.02-.13-.03-.2-.05Zm.51-.72s-.08-.08-.09-.07c-.06.04-.11.09-.16.13.07.02.13.04.2.04.02,0,.03-.07.05-.1Zm37.94-.04c-.01.06-.03.12-.04.19,0,.02.05.04.08.06.01-.06.04-.12.04-.19,0-.02-.05-.04-.08-.06Zm7.65-1.95v.05s.08-.04.08-.04h-.08Zm25.27-17.43c0-.08.01-.12.02-.17-.03.01-.06.03-.09.04.02.03.03.06.07.13Zm-75.36,30.67v-.08s-.11.06-.11.06l.11.02Zm74.36-31.15s-.05-.05-.08-.08c-.02.03-.05.05-.07.08.04.04.09.08.13.11,0-.04.01-.08.02-.11Zm-46.68,24.37s0-.06.01-.09l-.09.07s.05,0,.08.01Zm48.24-25.07c-.07,0-.14-.03-.2-.02-.02,0-.05.05-.07.08.05.03.11.09.15.08.05-.01.08-.08.12-.13Zm-33.87,21.82c.05-.04.11-.09.16-.13-.04-.04-.09-.12-.13-.11-.06,0-.11.07-.16.11.04.04.08.08.13.13Zm-37.44,10.73s-.05-.05-.07-.07c-.02.03-.05.08-.05.08.03.03.07.06.11.08,0-.03,0-.06.01-.1Zm36.61-9.35s.05-.04.07-.05c-.05,0-.1.01-.15.02.03.01.05.02.08.03Zm-46.25,11.94s-.03-.06-.04-.06c-.03,0-.06.02-.07.04,0,.01.02.04.04.07.02-.02.05-.03.07-.05Zm3.4-.87s-.04-.05-.07-.05c-.03,0-.06.02-.09.04.03.03.06.06.09.09.02-.02.05-.05.07-.07Zm8.47-2.2s.02.07.05.07c.03,0,.07,0,.11,0l-.07-.14s-.05.05-.08.07Zm36.72-9.13s.06-.04.06-.06c0-.03-.02-.06-.03-.08-.03.03-.07.06-.1.09.02.02.05.04.07.05Zm37.17-27.34s.04-.06.06-.09c-.07-.02-.13-.04-.2-.04-.02,0-.04.06-.06.09.07.02.13.03.2.05Zm-79.6,18.98l-.07.05h.08s-.02-.05-.02-.05Zm38.99,10.52l-.08-.07s-.06.08-.05.09c.03.03.07.06.11.08,0-.03,0-.07.01-.1Zm-34.57,8.82s-.07-.01-.11,0c-.01,0,0,.06,0,.09.03,0,.07,0,.1,0,.01,0,0-.05.01-.08Zm75.17-40.1s-.06-.04-.09-.07c-.02.07-.04.13-.04.2,0,.02.06.04.09.06.01-.06.03-.13.04-.19Zm-94.71,23.99c-.04-.05-.08-.11-.12-.16-.02.03-.08.08-.07.09.03.06.08.11.13.17.02-.03.04-.07.06-.1Zm30.72,13.77s.03.07.05.07c.03,0,.08,0,.11,0-.02-.04-.04-.09-.07-.13-.03.02-.06.04-.09.06Zm-11.63,3.74c-.06-.01-.12-.03-.18-.03-.02,0-.04.05-.06.08.04.03.1.09.13.08.05-.02.08-.08.11-.13Zm-9.11,3.32s-.06,0-.09,0c.03.03.05.06.08.09,0-.03,0-.06.01-.08Zm16.14-3.17c.01-.07.03-.14.03-.21,0-.01-.07-.02-.11-.03-.01.07-.03.14-.03.21,0,.01.07.02.11.04Zm-16.58-22.76l.02.08.09-.06-.1-.02Zm-4.37.48s.05-.05.08-.08c-.03-.02-.08-.06-.09-.05-.04.04-.06.08-.09.12.03,0,.07,0,.1,0Zm4.13-3.93s-.06,0-.09,0c.03.02.05.05.08.07,0-.02,0-.05.01-.07Zm33.4,24.68c-.06-.02-.12-.05-.17-.05-.01,0-.06.06-.05.09,0,.03.06.08.08.07.05-.03.1-.07.15-.11Zm-16.96,4.88s.06-.06.06-.09c0-.03-.05-.05-.08-.07-.03.05-.06.09-.08.14.03,0,.07.02.1.02Zm-6.92,1.9s-.06-.04-.09-.03c-.03,0-.05.04-.08.06.03.01.06.04.09.03.03,0,.05-.04.08-.06Zm-9.22-34.08s.02.06.04.06c.03,0,.06,0,.1,0-.02-.04-.04-.08-.06-.12l-.08.06Zm4.8-1.73c-.04-.05-.07-.11-.11-.16-.02.03-.06.07-.05.09.02.06.06.11.1.16.02-.03.04-.06.06-.09Zm-8.35-3.65s.06.07.08.06c.06-.03.11-.07.16-.1-.03-.02-.06-.07-.08-.06-.06.02-.11.06-.16.1Zm21.88-19.23s-.06.03-.08.05c0,0,.02.04.03.07.03-.02.06-.03.08-.05,0,0-.02-.04-.04-.06Zm-8.07.15s.05-.05.07-.08c-.03-.02-.08-.05-.09-.05-.04.03-.06.08-.09.12h.1Zm-.93,62.61l.17-.12s-.07-.07-.09-.06c-.06.03-.11.08-.17.12.03.02.06.04.09.07Zm10.13-70.33s-.07,0-.1,0c.03.03.06.06.09.09,0-.03,0-.06.01-.08Zm-7.24,4.11s-.04.05-.04.07c0,.03.03.05.05.07.01-.03.04-.05.04-.08,0-.03-.03-.05-.05-.07Z"/>
      <path class="cls-1" d="m93.28,64.71c-.87-.97-.94-1.99-.31-3.06.76-1.3,1.85-2.24,3.04-3.09.29-.21.52-.49.77-.75.26-.26.47-.57.76-.78,1.44-.99,2.58-2.3,3.8-3.53,1.35-1.36,2.52-2.86,3.7-4.36,1.12-1.43,2.06-2.95,3-4.49.41-.68,1.03-1.25,1.21-2.05.17-.75.89-1.24.92-2.04,1.07-.85.7-2.24,1.25-3.32.5-.96.89-2.07.73-3.24.69-1.41-.22-2.88.15-4.3-.39-1.26-.44-2.59-.91-3.86-.48-1.28-1.1-2.49-1.77-3.63-.83-1.43-1.87-2.82-3.21-3.81-1.17-.86-2.48-1.75-3.97-1.86-1.34-.11-2.7-.08-3.96.79-1.24.87-2.18,1.98-3.09,3.13-.31.39-.39.95-.67,1.38-1.17,1.78-2.25,3.64-3.6,5.27-1.38,1.67-2.88,3.33-5.14,3.91-.85.81-2.08.55-3.03,1.09-.19.11-.49.09-.72.04-1.39-.28-2.81-.49-4.15-.93-1.09-.36-2.03-1.09-2.56-2.21-.4-.83-.84-1.64-1.22-2.48-.09-.19-.01-.46-.02-.69-.11-2.93.01-4.05.76-6.3.07-.22.28-.39.4-.59.18-.3.53-.53.38-.97-.03-.1.01-.25.08-.34.92-1.2,1.5-2.63,2.61-3.7.69-.66,1.12-1.55,1.87-2.17.82-.68,1.57-1.45,2.34-2.19.46-.44.83-1.01,1.35-1.35.82-.53,1.54-1.18,2.35-1.71,1.17-.78,2.44-1.4,3.65-2.11,1.89-1.11,3.91-1.91,6.02-2.5.65-.18,1.26-.53,1.92-.7,1.74-.45,3.51-.89,5.31-.95.85-.03,1.69,0,2.52-.22.12-.03.25-.04.36-.01,1.69.35,3.46.19,5.13.69.25.08.48.24.73.35.18.08.37.18.56.19,1.29.07,2.38.57,3.3,1.47.67-.13.86.54,1.32.78.6.31,1.2.64,1.71,1.08.54.47.95,1.09,1.45,1.61.84.88,1.32,1.93,1.73,3.07.25.69.82,1.26.91,2.04.06.47,0,1.01.22,1.38.29.48.24.92.25,1.4,0,.31.12.61.18.92.05.28.14.55.14.83,0,1.25.12,2.52-.07,3.75-.16,1.02.03,2.11-.52,3.06.18.87-.14,1.67-.34,2.48-.38,1.57-.56,3.19-1.12,4.73-.45,1.25-.62,2.6-1.29,3.79-.14,1.9-1.34,3.38-2.04,5.05-.52,1.25-1.05,2.5-1.68,3.69-.85,1.6-1.57,3.28-2.82,4.65-.53.58-.8,1.39-1.24,2.05-.58.87-1.18,1.74-1.86,2.54-1.21,1.45-2.46,2.85-3.72,4.26-1.13,1.26-2.26,2.54-3.73,3.44-.42,1.11-1.63,1.35-2.37,2.14-.56.6-1.35,1.01-2.07,1.44-.82.49-1.68.9-2.51,1.35-1,.54-2.06.63-3.16.48l-.1-.4s-.05.02-.08.03c.06.12.12.25.18.37Zm19.76-21.14c.06-.07.11-.14.17-.21-.05-.02-.09-.05-.14-.07,0,.1,0,.2,0,.3l-.03.3c0-.11,0-.21,0-.32Zm6.74-24c-.06-.15-.12-.31-.18-.46-.03.02-.05.03-.08.05.09.13.18.26.26.39-.1.01-.19.02-.29.03.1,0,.19-.01.29-.02Zm-31.16-6.46c.54-.04.62-.42.62-.85.19-.17.37-.35.63-.6q-.76.01-.6.61c-.2.29-.41.57-.61.86-.09.16-.17.32-.26.48.07.02.14.03.22.05,0-.18,0-.37,0-.55Zm17.03,37.16c.29-.15.49-.34.4-.87-.32.33-.5.54-.37.89-.38.01-.6.14-.39.56.35-.05.51-.23.36-.58Zm-15.16-40.1l-.59.32c.05.06.1.12.15.18.13-.17.27-.34.4-.52l.3-.22c-.09-.05-.17-.1-.26-.15v.39Zm26.39-4.42q.52-.43.05-.84c0,.33-.01.59-.02.85-.26.12-.52.23-.36.6-.24.11-.65.18-.7.35-.24.82-.95,1.26-1.38,1.92-.81,1.24-1.5,2.59-2.43,3.73-1.13,1.4-1.81,3.04-2.73,4.55-.29.48-.5,1.02-.71,1.55-.14.36-.04.63.44.71.25-.38.49-.78.75-1.16.62-.91,1.16-1.87,1.79-2.78.81-1.17,1.34-2.53,2.06-3.77.87-1.5,1.83-2.95,2.73-4.43.11-.19.1-.45.14-.68.12-.2.24-.4.37-.6Zm-26.39,20.95c.11-.25.22-.5.33-.75.08-.17.15-.35.23-.52.83-1.26,1.67-2.51,2.5-3.77.42-.64.84-1.29,1.2-1.97.65-1.23,1.88-2.1,2.18-3.54.87-.94,1.21-2.19,1.91-3.21,1.1-1.59,1.92-3.32,2.95-4.93.64-1,1.34-1.96,2.01-2.93.16-.23.45-.48.44-.71-.04-.53.32-.81.59-1.14.4-.5.72-1.01.75-1.89-.37.58-.86.65-1.23,1.07-.66.74-1.17,1.58-1.77,2.36-.75.98-1.49,1.97-1.92,3.17-.27.74-.74,1.42-1.16,2.1-.23.37-.64.64-.8,1.02-.56,1.37-1.58,2.52-1.98,3.97-.04.14-.15.35-.26.37-.48.1-.46.49-.59.82-.13.33-.31.65-.49.96-.75,1.27-1.55,2.51-2.27,3.8-.68,1.2-1.29,2.43-1.91,3.67-.11.23-.08.53-.11.8-.7.29-.77.45-.59,1.22-.05.03-.11.05-.16.08,0-.03,0-.06-.01-.1.06.02.11.03.17.05Zm26.02-5.84c.26-.29.39-.6.1-.95.37,0,.77.02.57-.56.84-.47,1.14-1.35,1.6-2.11.73-1.21,1.39-2.46,2.25-3.57.39-.51.92-.91,1.2-1.55-.18-.4-.37-.82-.63-1.39-.26.59-.43,1.03-.65,1.45-.3.56-.84,1.07-.94,1.66-.11.66-.78.79-.91,1.41-.13.61-.55,1.16-.84,1.73-.05.11-.08.27-.17.31-.74.39-.62,1.26-1.04,1.82-.02.03.11.18.17.27-.19.18-.39.37-.58.55-.54.19-.56.32-.1.95-.54-.15-.7.11-.72.78.31-.36.5-.58.69-.8Zm-.34-9.89q.71-.35.21-.89c-.06.34-.12.62-.17.91-.25.12-.5.24-.37.59-.85.43-1,1.3-1.29,2.08-.29.21-.67.35-.85.63-.54.84-.98,1.74-1.5,2.59-.43.71-.92,1.38-1.37,2.08-.38.59-.76,1.18-.68,2.14.33-.31.57-.46.69-.67.36-.6.65-1.24,1-1.85.75-1.34,1.72-2.54,2.34-3.95.14-.32.22-.67.33-1,.75-.4,1.04-1.15,1.37-1.85.02-.05-.04-.15-.06-.22.47.01.43-.29.36-.6Zm-22.37-6.31c-.87.13-1.15.52-.93,1.35.31-.46.62-.9.92-1.35.01-.18.02-.36.04-.62-.44.27-.25.44-.03.62Zm24.24,4.23c-.26,0-.65-.11-.74.01-.28.36-.37.81-.21,1.34.35-.51.64-.94.94-1.38,0-.27-.02-.54-.03-.81-.08.02-.15.03-.23.05l.28.78Zm-12.4,44.38c.43-.63.87-1.27,1.41-2.05-.45.14-.7.22-1,.31-.12.6-.25,1.18-.37,1.76-.4.1-.59.32-.53.88.44-.25.65-.47.49-.9Zm-3.21,3.12c-.86.31-1.13.98-1.18,1.86.77-.57.89-.77,1.14-1.87.21-.48.43-.95.64-1.43.13-.07.33-.11.39-.22.58-1.13,1.14-2.27,1.77-3.54-.29.07-.47.07-.5.13-.57,1.09-1.13,2.2-1.68,3.3-.04.09.03.23.05.35-.76.36-.78.42-.64,1.42Zm8.22-45.7c-.4.19-.67.5-.98.84-.99,1.13-1.36,2.58-2.21,3.77-.02.04.05.14.11.3.52-.58,1.11-1.02,1.35-1.78.12-.38.42-.69.58-1.06.31-.73,1.04-1.24,1.11-2.09.08-.17.17-.34.34-.68-.51.25-.57.44-.3.7Zm-2.42-6.85c-.63.96-1.29,1.9-1.89,2.87-.49.79-.98,1.59-1.17,2.52q-.61.24-.43.94c.16-.4.28-.68.39-.96.16-.09.38-.14.47-.28.2-.29.31-.65.5-.95.72-1.15,1.44-2.29,2.18-3.41.2-.3.11-.52-.09-.74.86-.47,1.23-1.07.85-1.69-.3.62-.56,1.16-.82,1.7Zm9.72,9.21c.7-.29.9-1,1.27-1.56.49-.73.97-1.46,1.47-2.18.28-.4.26-.74-.19-1.15-.18.2-.38.38-.51.6-.22.38-.35.82-.58,1.2-.52.89-1.09,1.75-1.61,2.65-.05.09.11.3.17.46-.84.22-.84.22-.73,1.08.2-.51.82-.51.7-1.1Zm-41.32,7.99c.45.16.8.04,1.03-.38.14-.25.23-.53.39-.76,1.12-1.54,2.26-3.05,3.36-4.59.45-.62.81-1.3,1.23-1.95.84-1.29,1.69-2.57,2.52-3.86.13-.21.2-.46.37-.88-1.92,1.16-3.34,2.51-4.43,4.19-.63.98-1.18,2.01-1.74,3.04-.3.55-.51,1.15-.81,1.7-.63,1.17-1.29,2.33-1.94,3.49-.02.25-.04.5-.06.78.62-.23.18-.52.06-.78Zm44.43,2.12c-.08,0-.2-.05-.23-.01-.62.71-1.28,1.4-1.82,2.18-.22.32-.33.67-.69.93-.29.21-.39.66-.61.97-.26.36-.59.67-.83,1.05-.47.75-.83,1.58-1.34,2.29-.53.74-.97,1.53-1.42,2.3-.95,1.6-1.29,3.46-1.83,5.44.3-.17.48-.21.54-.32.45-.79.86-1.61,1.33-2.39.67-1.11,1.33-2.2,1.88-3.38.56-1.19,1.42-2.23,2.04-3.39.9-1.67,1.77-3.34,2.9-4.86.14-.18.04-.54.05-.82.61-.49.99-1.11,1.24-2.1-.44.47-.76.72-.95,1.04-.19.31-.52.64-.25,1.08Zm-32.38-13.44c-.67,1.09-1.35,2.16-2,3.26-.66,1.11-1.21,2.29-1.94,3.36-.72,1.05-1.13,2.26-1.88,3.3-.76,1.05-1.26,2.28-1.87,3.43-.59,1.11-1.34,2.11-1.89,3.26-.55,1.14-1.29,2.18-1.71,3.39q.65.32,1.31.07c.4-.71.74-1.29,1.06-1.89.32-.6.67-1.2.92-1.83.18-.45.35-.87.66-1.26.39-.49.9-1.03.98-1.6.11-.78.48-1.43.79-2.08.75-1.55,1.68-3.01,2.51-4.52.71-1.28,1.53-2.51,1.99-3.92.04-.11.12-.22.21-.29.75-.59.7-1.57,1.14-2.31.03-.05-.18-.23-.29-.36.07,0,.15,0,.22-.02.04-.01.07-.06.1-.1-.03.02-.07.04-.1.05-.07.02-.14.04-.21.05Zm-6.32,17.7c.15-.01.33.03.44-.05.86-.59.94-1.74,1.73-2.39.44-1.46,1.62-2.49,2.24-3.86.53-1.15,1.38-2.16,2.06-3.24.59-.93,1.16-1.86,1.71-2.8.54-.92.93-1.95,1.58-2.77.68-.85,1.06-1.86,1.67-2.75.97-1.42,1.62-3.05,2.61-4.46.57-.82.95-1.7,1.5-2.6-.4.04-.68.08-.96.1-.57.04-.96.34-1.23.83-.72,1.29-1.45,2.58-2.17,3.87-.76,1.37-1.53,2.75-2.28,4.13-.81,1.49-1.54,3.03-2.45,4.45-.53.83-.88,1.75-1.37,2.58-.43.73-.83,1.45-1.18,2.22-.39.83-.96,1.57-1.43,2.37-.84,1.45-1.66,2.92-2.49,4.38.03.15.05.29.08.44.01,0,.03,0,.04-.01l-.11-.44ZM112.95,2.19c-.45.01-.72.16-.97.47-.78,1.01-1.58,2.01-2.39,3-1.13,1.39-2.29,2.76-3.2,4.31-.63,1.08-1.27,2.16-1.91,3.23-.12.21-.22.48-.4.59-.61.39-.78,1-.91,1.64.13.13.23.27.35.37.64.48,1.43.32,1.84-.37.39-.65.78-1.29,1.18-1.93.12-.2.37-.36.4-.57.19-1.25,1.09-2.13,1.66-3.18.73-1.33,1.72-2.53,2.37-3.89.54-1.13,1.14-2.2,1.89-3.2.08-.1.05-.29.08-.49Zm-27.51,27.9c.82-.39,1.64-.61,2.17-1.32.29-.39.52-.82.8-1.22.24-.36.51-.7.76-1.05-.39-.61.61-.7.45-1.22.97-1.65,1.94-3.29,2.91-4.94.1-.17.2-.35.29-.53.36-.76.67-1.54,1.09-2.27.9-1.57,1.87-3.09,2.78-4.65.15-.25.16-.57.24-.86-.6.6-1.27,1.02-1.67,1.77-.42.8-1.17,1.41-1.7,2.16-.59.84-1.08,1.76-1.64,2.63-.21.33-.61.57-.72.91-.38,1.18-1.07,2.19-1.69,3.24-.67,1.13-1.26,2.33-2.04,3.38-.81,1.1-1.12,2.45-1.96,3.51-.06.08-.04.23-.08.46Zm13.16-22.75c.7-.12,1.01-.38,1.25-.79.33-.56.6-1.2,1.06-1.62.99-.89,1.37-2.13,2.09-3.17.05-.08.02-.21.03-.32-.65.04-.67.03-.85.28-.38.53-.75,1.06-1.09,1.62-.4.64-.74,1.31-1.14,1.95-.4.64-.82,1.26-1.35,2.06Zm12.39,2.12c.07.08.13.15.2.23.19-.11.43-.19.55-.35.6-.78.76-1.87,1.71-2.4.05-.03.03-.16.08-.22.47-.74.49-1.7,1.29-2.3.2-.15.54-.69.25-1.3-1.25,1.28-1.89,2.83-2.8,4.2-.46.7-.86,1.43-1.29,2.15Zm-16.42,54.14c1.13-1.37,1.98-2.88,2.73-4.45.02-.05-.12-.18-.2-.28-1.37,1.32-2.41,2.78-2.53,4.74Zm14.53-13.97c1.21-1.08,1.91-2.51,2.8-3.82.16-.23.14-.57.21-.87-.2,0-.33-.04-.35,0-.81,1.61-2.05,2.97-2.67,4.69Zm5.13-29.8c-.73.16-.68.88-1.03,1.27-.34.37-.51.89-.82,1.29-.34.43-.7.82-.37,1.54.78-1.31,1.5-2.52,2.21-3.73.05-.08,0-.21,0-.37Zm-22.12-12.45c-.95.58-1.11.89-1.17,1.88.16-.1.35-.16.41-.28.27-.52.51-1.06.76-1.6Zm11.91,49.01c-.71.44-.92,1.21-1.23,1.92.68-.45.99-1.16,1.23-1.92Zm-3.02,2.34c-.52.37-.57.95-.86,1.64.96-.35.53-1.18.86-1.64Zm3.07-2.73c.71-.15.51-.87.91-1.16-.79,0-.78.59-.91,1.16Zm2.65-5.2q.56.11.78-.88c-.31.35-.53.6-.78.88Zm-31.25-23.78c.92-.02.44-.77.75-1.03-.54.12-.5.59-.75,1.03Zm45.32,1s.1.05.15.07c.14-.21.29-.4.4-.62.02-.04-.11-.16-.25-.34-.12.36-.21.62-.3.88Zm-32.73-13.22l-.16-.14c-.15.11-.33.19-.44.33-.09.12-.1.3-.14.45.07.03.15.07.22.1l.52-.74Zm22.55,34.63c.05.08.09.14.12.19.08-.06.19-.11.22-.19.02-.05-.09-.15-.14-.22-.07.08-.14.15-.21.22Zm-25.25-29.95c-.09-.04-.18-.08-.27-.12-.08.2-.16.41-.23.61l.17.08c.11-.19.23-.38.34-.57Zm29.1,22.02c-.08-.1-.12-.15-.16-.21-.07.08-.15.15-.2.24,0,.02.12.15.15.14.08-.03.15-.11.22-.17Zm-34.79-22.37s-.07-.02-.1-.03c-.04.12-.07.23-.11.35.03,0,.06.02.1.03.04-.12.07-.23.11-.35ZM109.77,1.62c-.07,0-.15,0-.22.01l.14.54s.08-.01.12-.02c-.01-.18-.02-.35-.04-.53Zm4.78,41.19c0,.11-.02.21,0,.3,0,.02.19.04.2.02.04-.09.05-.19.04-.28,0-.01-.13-.02-.24-.04Zm1.03-28.06c-.17-.06-.3-.15-.36-.12-.08.05-.11.19-.16.29.1.03.2.09.28.07.08-.02.13-.13.23-.24Zm5.06,13.91c-.07,0-.17-.04-.21-.01-.05.03-.04.13-.06.2.08.01.18.06.22.03.05-.04.04-.14.06-.22Zm-13.59-12.36s-.09.04-.09.06c0,.06.03.11.05.17.04-.05.08-.1.11-.16,0,0-.05-.05-.08-.08Zm-9.02,44.07c-.02.11-.04.22-.06.32.07,0,.16.04.2.01.05-.04.08-.14.07-.21,0-.04-.11-.07-.2-.12Zm-21.24-35.1c-.07,0-.16-.05-.2-.02-.05.03-.05.13-.07.2.07,0,.16.04.22,0,.04-.02.04-.12.06-.19Zm24.35-11.58c-.1-.04-.21-.1-.22-.09-.06.07-.1.16-.13.25,0,.02.14.1.15.09.07-.07.13-.16.2-.25Zm9.49,36.6c-.05-.04-.1-.09-.16-.12-.01,0-.06.04-.09.06.06.04.12.09.18.13,0,0,.04-.05.07-.07Zm1.02-2.16s.05-.04.08-.06c-.02-.03-.04-.05-.06-.08-.04.03-.07.06-.11.1.03.01.06.03.09.04Zm7.47-41.38s-.04-.05-.06-.07c0,.04,0,.08,0,.11.02-.01.04-.03.06-.04Zm-4.29,9.27c-.06,0-.13-.03-.19-.01-.03,0-.02.1-.03.16.03,0,.08.03.1.01.05-.04.08-.1.12-.16Zm-11.53-6.05c-.05-.09-.08-.15-.12-.21-.07.07-.16.14-.21.23-.02.03.05.11.09.17.08-.06.17-.13.25-.19Zm.63-1.33s-.12.09-.13.14c0,.05.06.12.09.17.04-.05.12-.09.12-.14,0-.05-.05-.12-.08-.17Zm9.16,10.16c-.04-.06-.08-.11-.12-.17-.06.04-.12.09-.18.13.05.06.09.11.14.17.05-.04.11-.09.16-.13Zm-20.48-12.12c-.1-.12-.15-.17-.19-.22-.08.11-.17.23-.23.35,0,.02.12.14.13.13.1-.08.2-.17.29-.25Zm12.98-.55c-.06,0-.15-.04-.19,0-.05.04-.05.13-.07.19.07,0,.16.03.21,0,.04-.02.03-.12.05-.18Zm13.17,14.06c-.06.09-.14.17-.17.27-.01.05.08.12.12.18.07-.09.15-.17.2-.26.01-.02-.08-.1-.16-.18Zm-3.31,1.75c0,.07-.04.16,0,.2.03.04.13.04.19.06,0-.07.03-.15,0-.2-.03-.04-.12-.04-.19-.06Zm1.81.62c-.05-.07-.11-.17-.13-.16-.09.04-.17.1-.25.16.04.05.1.16.12.16.09-.03.17-.1.26-.15Zm-1.88,17.13c-.06-.02-.13-.04-.19-.06,0,.04-.04.09-.02.11.03.05.08.1.13.15.03-.07.06-.13.09-.2Zm-9.14-34.76s-.05-.06-.08-.09c-.05.06-.1.12-.15.18.05.03.09.07.14.1.03-.06.06-.13.09-.19Zm14.03,24.36s-.06-.08-.07-.07c-.06.02-.11.06-.17.1.02.02.06.07.07.07.06-.02.11-.06.16-.09Zm-5.69-1.54s-.07-.04-.1-.05c-.01.07-.03.14-.03.21,0,.02.06.04.09.06.01-.07.03-.14.04-.22Zm4.78,2.82s-.03-.07-.04-.07c-.03,0-.06.03-.08.05,0,0,.03.05.04.07.03-.02.06-.04.09-.06Zm-6.82-5.58s-.07.08-.06.1c.03.06.08.11.13.16.01-.07.03-.14.03-.2,0-.02-.06-.04-.1-.06Zm8.03-6.92l-.07.05h.09s-.01-.05-.01-.05Zm1.37-1.98l-.05-.07v.09s.05-.02.05-.02Zm-8.3,28.81s.05-.04.08-.06c-.03-.01-.06-.04-.09-.03-.03,0-.05.04-.07.06.03.01.06.03.09.04Zm-.95,1.45s.07.06.08.05c.05-.03.1-.08.15-.12-.03-.02-.07-.07-.08-.06-.05.04-.1.08-.15.13Zm-35.25-24.06l.06.08v-.1s-.06.02-.06.02Zm1.29-1.53c-.04-.05-.09-.1-.13-.15-.02.03-.07.06-.06.08.02.06.05.12.08.18.04-.03.08-.07.11-.1Zm.52-.76s-.04-.06-.07-.06c-.02,0-.04.04-.07.06.04.03.07.06.11.09,0-.03.01-.06.02-.09Zm17.65,42.71l.1.03v-.09s-.1.05-.1.05Zm1.69-57.51l-.08.06.1.02-.02-.08Zm3.46,7c-.06-.02-.13-.07-.19-.06-.06.01-.1.09-.15.14.06.02.14.07.19.06.06-.01.1-.09.15-.14Zm-21.15,5.09s.07,0,.1,0c0-.03,0-.06,0-.09-.03,0-.07-.01-.1,0-.01,0,0,.05,0,.08Zm37.85-9.64c.02-.07.03-.13.04-.2,0,0-.07-.04-.08-.03-.04.04-.07.09-.11.13.05.03.1.07.15.1Zm-15.92,3.16s.04-.07.06-.1c-.07-.01-.14-.03-.21-.03-.02,0-.05.06-.07.09.07.01.14.03.21.04Zm-7.53.31s-.07-.06-.08-.06c-.05.03-.09.08-.14.12.06.01.12.03.18.03.02,0,.03-.06.05-.09Zm2.36-3.98s.05-.05.05-.07c0-.03-.02-.07-.03-.1-.03.03-.07.07-.1.1.02.02.05.05.07.07Zm-7.98,1.83s-.06,0-.09,0c0,0,0,.04,0,.07.03,0,.06,0,.08,0,.01,0,0-.04.01-.06Z"/>
      <path class="cls-1" d="m148.34,33.34c.29-.36.45-.69.51-1.18.09-.74.35-1.54.78-2.13.41-.57.35-1.44,1.13-1.74.06-.85.83-1.11,1.31-1.62.42-.46.66-1.05,1.24-1.43,1.58-1.04,3.34-1.49,5.16-1.79.17-.03.37.11.56.17.22.06.46.17.68.16,1.26-.06,2.33.29,3.34,1.11.6.49,1.25.95,1.83,1.45.54.47,1.32.78,1.28,1.76-.01.31.45.63.66.97.69,1.07.89,2.31,1.19,3.5.2.81.12,1.68.3,2.49.22,1.02-.06,1.99-.15,2.97-.14,1.43-.57,2.84-1.23,4.14-.46.91-.97,1.84-1.63,2.6-.68.78-1.55,1.4-2.37,2.05-.3.24-.7.38-1.07.51-.73.24-.7.22-.69,1.07.02,1.99-.05,3.96-.41,5.93-.26,1.43-.58,2.81-1.25,4.07-.56,1.04-.78,2.23-1.57,3.16-.74.88-1.34,1.89-2.13,2.72-.83.88-1.71,1.81-2.76,2.36-1.93,1-3.91,1.97-6.15,2.12-.43.03-.88-.07-1.32-.1-1.51-.09-3.03-.16-4.42-.82-1.19-.56-2.49-.95-3.41-2-.34-.39-.84-.64-1.27-.93-1.27-.87-1.74-2.35-2.66-3.49-1.3-1.6-1.69-3.59-2.27-5.49-.18-.57-.14-1.21-.22-1.81-.07-.56-.13-1.11-.21-1.67-.08-.53.19-1.03-.03-1.61-.15-.41.35-.98.03-1.51.43-.38.22-.9.32-1.35.37-1.59.55-3.25,1.58-4.62.1-.14.06-.38.11-.57.07-.27.1-.58.25-.81,1-1.54,1.89-3.17,3.27-4.43.73-.67,1.54-1.26,2.32-1.88.13-.1.26-.2.39-.3.8-.63,1.68-1.08,2.66-1.4,1.78-.57,3.56-1.03,5.45-.84.26.03.52.12.88.21Zm2.05,10.59l-.42.04s0,.06.01.1c.14-.05.27-.1.41-.14-.02-.06-.04-.13-.06-.19-.02-.03-.05-.06-.08-.08.02.03.04.06.05.09.03.06.05.12.08.18Zm12.96-2.77c-.17.08-.33.16-.5.24.03.04.06.09.09.13.14-.13.27-.25.41-.38l-.11-.42s-.07.03-.1.04c.07.13.14.26.21.39Zm-5.84-9.11c-.2-.04-.4-.09-.88-.19.33.23.77.24.88.18l-.13-.51s-.06.02-.09.03c.07.16.15.32.22.49Zm-1.13-3.96c.18-.21.68-.34.12-.82-.03.33-.05.59-.07.84-.82.3.06.41.07.62-.65.1-.95.53-.97,1.21.32-.4.64-.81.97-1.21-.04-.21-.07-.43-.11-.64Zm-20.06,26.36c-.36.13-.38.37-.11.69.02-.24.05-.47.07-.71.03-.06.06-.13.09-.19,0-.01-.04-.04-.06-.06,0,.09,0,.18,0,.27Zm12.18-12.71c.64-.19.33-.64.29-1.01-.19.32-.62.58-.26,1.02-.4.02-.68.12-.38.59-.37-.03-.62.09-.73.48-.08.3-.2.61-.35.89-.43.82-.89,1.62-1.31,2.43-.74,1.43-1.47,2.87-2.2,4.3-.09.18-.25.33-.29.52-.29,1.14-.74,2.19-1.44,3.14-.18.25-.23.59-.34.9-.06.18-.06.43-.19.55-.59.57-.71,1.33-1,2.04-.49,1.2-1.13,2.35-1.7,3.52-.48,1.01-.95,2.02-1.48,3.13.46.16.76.27,1.08.39.72-1.45,1.37-2.78,2.03-4.11.37-.74.91-1.45,1.08-2.23.31-1.42,1.09-2.61,1.62-3.92.29-.71.9-1.28.87-2.14,0-.26.17-.53.29-.79.73-1.59,1.64-3.08,2.21-4.76.37-1.11,1.13-2.09,1.66-3.16.18-.35.43-.76.14-1.2.13-.2.26-.39.39-.59Zm-4.61,16.4c.48-.64.58-1.33.24-2.07.15-.01.3-.02.45-.03-.02-.05-.03-.11-.05-.16-.13.07-.25.14-.38.21-.1.29-.13.63-.3.87-.28.43-.33.81.05,1.19-.47-.11-.49.2-.5.53-.74.57-1.29,1.24-1.12,2.31.36-.78.72-1.55,1.08-2.33.17-.17.35-.35.52-.52Zm13.48-5.05c-.16.1-.48.22-.47.3.08.64-.13,1.08-.66,1.45-.36.25-.28.63.07,1.2.27-1.11.99-1.85,1.1-2.86,0-.03-.05-.06-.07-.09.72-.41.71-1.2.99-1.84-.71.43-.87,1.12-.95,1.86Zm-2.85,5.75c-.47.62-.8,1.32-1.02,2.07-.06.2-.04.43-.07.69.19-.07.31-.08.33-.12.28-.66.58-1.31.81-1.98.07-.19-.06-.45-.1-.68.18-.12.43-.2.53-.36.31-.5.56-1.04.82-1.57.07-.14.06-.32.09-.48-.81.66-1.19,1.5-1.39,2.44Zm5.45-32.65c-.11.05-.28.08-.31.15-.18.58-.45,1.07-.91,1.52-.37.36-.49.96-.8,1.61.91-.19,1.26-.69,1.47-1.31.07-.21.07-.47.2-.62.34-.42.4-.87.31-1.37.66.04.62-.63.92-.95.07-.07-.07-.34-.12-.52-.75.13-.72.81-1,1.24-.01.02.15.16.23.24Zm-10.71,33.54c-.47.06-.93.27-1.03.71-.09.41-.35.59-.57.87-.48.64-.93,1.31-1.31,2.02-.51.94-.96,1.91-1.39,2.88-.2.46-.3.97-.45,1.48,1.62-.08,1.6-.09,2.09-1.4.42-1.12.87-2.23,1.31-3.34.43-1.08.87-2.16,1.31-3.24.4-.14.43-.47.42-1.05-.28.45-.75.58-.39,1.07Zm7.93-13.41c.28-.21.63-.37.82-.65,1.23-1.77,2.34-3.61,3.21-5.6.74-1.69,1.6-3.32,2.39-4.99.54-1.13,1.07-2.26,1.58-3.4.09-.2.05-.46.07-.69-.08-.02-.17-.05-.25-.07-.6.93-1.26,1.82-1.8,2.79-.66,1.18-1.08,2.51-1.86,3.59-.48.67-.56,1.45-1.02,2.1-.38.53-.44,1.26-1.04,1.68-.11.08-.15.29-.17.44-.12,1.18-.82,2.08-1.4,3.04-.16.26-.49,1.32-.48,1.77-.28.06-.54.13-.41.52.39,0,.42-.25.37-.54Zm.43-5.38c-.22.03-.62.02-.63.09-.19.87-.91,1.42-1.3,2.16-.75,1.47-1.52,2.93-2.22,4.42-.83,1.75-1.61,3.53-2.42,5.29-.24.51-.53,1-.76,1.52-.34.76-.65,1.54-.97,2.3.31-.04.49-.18.64-.34,1.22-1.4,2.16-2.97,2.91-4.66.29-.65.79-1.22.97-1.89.2-.74.43-1.45.76-2.13.33-.68,1-1.22.91-2.08.87-1.32,1.35-2.81,2.02-4.23.06-.13.04-.31.05-.47.08-.12.15-.23.23-.35-.04-.02-.07-.03-.11-.05-.03.14-.06.28-.09.41Zm-6.98,9.97c-.3-.01-.52.06-.7.36-.61,1.01-1.34,1.94-2.01,2.9-1.37,1.95-2.29,4.14-3.51,6.16-.06.1-.08.23-.14.34-.72,1.57-1.45,3.12-2.13,4.71-.18.43-.5.89-.23,1.56.29-.34.51-.56.7-.81.59-.78,1.19-1.55,1.75-2.34.41-.59.83-1.19,1.14-1.84.88-1.83,1.66-3.7,2.56-5.51.46-.93.81-1.91,1.39-2.79.53-.82.79-1.81,1.16-2.73,0-.2-.01-.4-.02-.6-.07.02-.14.03-.22.05.08.19.17.38.25.57Zm-.02-3.21c.97-.09,1.19-1.03,1.66-1.6.74-.88,1.26-1.96,1.81-2.99.79-1.48,1.6-2.97,2.28-4.5.63-1.42,1.55-2.71,1.92-4.25.04-.15.18-.27.25-.42.41-.85.82-1.69,1.23-2.54.11-.22.19-.46.34-.64.4-.48.62-1.03.86-1.59.42-.96.93-1.89,1.43-2.82.17-.33.23-.65-.13-.84-.32-.17-.63-.06-.79.31-.13.3-.26.6-.42.88-.42.72-.51,1.56-1.12,2.24-.64.71-1.05,1.68-1.36,2.61-.18.56-.44,1.01-.82,1.39-.22.22-.25.47-.37.69-.52.93-.61,2.09-1.46,2.85-.16.14-.21.41-.3.62-.26.61-.49,1.24-.79,1.84-.33.66-.78,1.27-1.05,1.96-.45,1.16-1,2.25-1.65,3.31-.61,1-1.06,2.09-1.56,3.15-.04.09.04.23.07.35-.59.73-.67,1.04-.33,1.49.23-.42.45-.82.76-1.39-.16-.04-.32-.08-.47-.12Zm6.38,1.3c-.09,0-.19-.02-.28-.02-.26.49-.4,1.16-.81,1.42-.96.62-1.42,1.61-1.92,2.48-1.17,2.02-2.13,4.16-3.09,6.29-.95,2.1-1.79,4.24-2.68,6.37-.25.61-.5,1.23-.83,2.03.38-.13.56-.25.74-.24,1.04.05,1.49-.55,1.72-1.46.1-.39.2-.79.39-1.14.61-1.11.94-2.35,1.48-3.48.82-1.7,1.44-3.49,2.38-5.14.12-.21.17-.45.25-.67.11-.34.19-.7.33-1.03.31-.72.81-1.32,1-2.15.22-.92.92-1.73,1.37-2.61.08-.16-.03-.42-.06-.64Zm-24.62,2.61c.47-.27.6-.69.76-1.1.1-.26.12-.57.27-.8,1.17-1.74,1.86-3.72,2.67-5.62.62-1.46,1.39-2.86,1.91-4.37.33-.95.86-1.83,1.41-2.99-.65.36-1.27.5-1.51.89-.66,1.06-1.77,1.82-2.04,3.18-.15.74-.68,1.4-1,2.11-.32.71-.46,1.52-.8,2.19-.64,1.24-1.18,2.49-1.54,3.83-.23.87-.31,1.73-.12,2.67Zm3.37-4.53c.11.07.21.14.32.21.18-.24.4-.47.54-.73.61-1.12,1.2-2.25,1.81-3.37.38-.69.69-1.48,1.24-2.02.46-.45.72-.91.91-1.48.04-.11.1-.22.16-.32.46-.83.94-1.66,1.38-2.5.31-.58.58-1.19.92-1.87-1.03,0-1.69.58-2.42.95-.11.06-.16.25-.22.39-.42.92-.53,1.96-1.2,2.77-.07.09-.11.22-.15.33-.7,2.35-1.77,4.54-2.81,6.75-.14.31-.33.6-.49.89Zm9.32-10.17c-.09-.05-.18-.11-.27-.16-.52,1.16-1.39,2.09-1.91,3.26-.5,1.13-1.21,2.16-1.81,3.24-.62,1.12-1.44,2.2-1.77,3.41-.34,1.23-.86,2.35-1.4,3.48-.54,1.12-.99,2.27-1.22,3.51.36-.35.64-.74.86-1.15.69-1.31,1.36-2.63,2.04-3.94.47-.9,1.02-1.76,1.4-2.69.88-2.17,1.94-4.25,2.91-6.37.4-.86.78-1.72,1.17-2.58Zm-1.35,9.78c.55-.06.74-.35.91-.75.39-.92.78-1.84,1.26-2.72,1.01-1.87,2.17-3.66,2.84-5.7.05-.15.15-.29.23-.43.33-.56.7-1.1.99-1.69.23-.47.24-1.11.58-1.44.43-.41.51-.9.77-1.35.99-1.75,1.85-3.56,2.81-5.32.1-.18.11-.42.19-.76-.24.13-.38.16-.43.24-.38.69-.73,1.4-1.11,2.09-.13.24-.32.45-.49.67-.12.15-.3.26-.39.43-.54,1.06-.95,2.2-1.61,3.18-1.42,2.11-1.99,4.65-3.55,6.67-.1,1.13-.81,2.01-1.27,2.98-.54,1.13-.72,2.44-1.66,3.38-.08.08-.05.28-.08.5Zm-7.88,15.51c.26-.74.37-1.36.66-1.87,1.1-1.9,1.89-3.94,2.84-5.91.25-.52.36-1.1.53-1.65-.51.33-.91.71-1.07,1.18-.22.66-.55,1.21-1.01,1.72-.1.11-.24.26-.24.4,0,.65-.43,1.11-.69,1.65-.63,1.33-1.21,2.67-1.84,4.06.29.15.49.26.81.43Zm27.89-35.18c-.67,1.37-1.34,2.59-2.03,3.8-.78,1.34-1.47,2.75-2.21,4.13-.26.49-.5,1.12-.34,1.74.92-1.01,1.61-2.12,2.11-3.37.23-.59.68-1.1.9-1.69.45-1.2.85-2.42,1.61-3.48.24-.34.29-.65-.04-1.13Zm-7.95,35.02c.05.04.1.08.16.13.22-.13.64-.25.64-.39.01-.44.23-.55.58-.63.09-.02.22-.16.22-.25.03-1.03.84-1.68,1.19-2.56.62-1.58.67-1.56.67-3.01-.61,1.25-1.34,2.27-1.88,3.41-.52,1.1-1.04,2.2-1.56,3.31Zm2.36-37.36c-.53.6-.94,1.25-.91,2.12.54-.58.8-1.32.91-2.12Zm-3.1,5.73c-.38.43-.34.75-.1,1.15.37-.35.52-.66.1-1.15Zm-21.45,27.68c.1-.35.21-.71.38-1.29-.63.42-.86.73-.38,1.29Zm11.83-4.61q.65-.19.79-.97c-.32.4-.53.66-.79.97Zm9.08-27.51c.06.01.13.03.19.04.04-.2.09-.4.13-.6-.07-.01-.14-.03-.2-.04-.04.2-.08.4-.12.6Zm-5.06,14.09c.12-.35.19-.59.3-.93-.63.2-.52.48-.3.93Zm14.88-10.99c.06.03.12.07.18.1.1-.2.2-.41.3-.61-.04-.02-.08-.03-.12-.05-.12.19-.24.37-.36.56Zm1.21,3.69c0,.28-.02.46,0,.64,0,.02.27.05.29.02.06-.13.1-.29.08-.44,0-.06-.17-.11-.37-.22Zm.94-.82c-.06-.05-.13-.11-.19-.16-.1.12-.21.24-.31.36.05.05.1.09.14.14.12-.11.24-.22.36-.33Zm-1.59,2.69c.09.04.18.08.26.12.1-.24.2-.48.3-.71-.06-.03-.13-.06-.19-.09-.12.23-.25.45-.37.68Zm-19.52,19.73c-.07,0-.14-.01-.22-.02-.02.18-.04.36-.06.54.07,0,.21.01.21,0,.03-.17.04-.35.06-.52Zm16.17-9.99l.27.02c0-.22-.01-.43-.02-.65-.05,0-.09,0-.14,0-.04.21-.07.42-.11.64Zm2.94-8.58c-.18.03-.3.04-.31.06-.03.17-.03.34-.04.51.1-.17.21-.34.35-.58Zm-6.79-5.68c.03.06.07.11.1.17.14-.09.28-.18.42-.27-.03-.05-.06-.1-.09-.14-.14.08-.29.17-.43.25Zm-3.09,2.15c-.06-.08-.1-.14-.14-.2-.07.09-.15.17-.19.28-.01.04.07.11.11.17.07-.08.15-.17.22-.25Zm-2.58,32.61c-.07-.08-.12-.14-.16-.19-.06.09-.13.18-.17.28-.01.03.08.1.13.15.07-.08.14-.16.21-.23Zm-17.65-8.72c-.05-.08-.09-.13-.13-.19-.08.06-.17.12-.24.19,0,0,.1.16.11.16.09-.04.17-.11.26-.16Zm31.33-26.31c-.02.06-.04.12-.05.19.07.01.15.05.19.02.04-.04.05-.13.07-.19-.07,0-.13-.01-.2-.02Zm-19.07,21.39s.08.03.12.05c.04-.12.09-.24.13-.36,0,0-.06-.04-.08-.06-.06.12-.11.25-.17.37Zm-12.81,2.67c-.08-.06-.14-.14-.2-.14-.06,0-.15.08-.16.13-.01.06.05.13.08.2.09-.06.18-.12.28-.19Zm18.35-16.47c-.08-.06-.13-.1-.18-.14-.06.08-.11.17-.17.25.08.05.16.1.23.16.04-.09.08-.18.12-.27Zm-12.14,14.22c0,.09-.02.19,0,.27,0,.03.18.05.19.03.04-.08.05-.18.07-.27-.07,0-.14-.02-.26-.03Zm-4.35-3.92s-.1-.13-.14-.12c-.06.01-.1.09-.15.14.07.06.13.11.2.17.03-.06.06-.12.1-.19Zm7.92-.45c-.06.05-.16.08-.17.14-.01.05.06.13.09.2.05-.06.12-.11.15-.18.01-.04-.04-.11-.07-.16Zm4.61.61c-.06-.02-.12-.04-.19-.04-.02,0-.06.08-.05.09.04.04.09.08.14.11.03-.05.06-.11.1-.16Zm-6.98,1.93s-.06.02-.1.04l.08.13s.06-.05.06-.08c0-.03-.03-.06-.05-.09Zm-.47.89c-.05-.02-.1-.05-.16-.05-.02,0-.06.07-.05.08.02.05.07.09.1.14.04-.06.07-.11.11-.17Zm9.59-12.67c-.07-.02-.15-.07-.2-.05-.06.02-.1.11-.14.17.09.03.18.06.27.07.02,0,.05-.12.07-.18Zm5.61-3.79c-.07-.02-.14-.03-.21-.05-.01.08-.02.15-.04.23.07.01.16.05.21.02.04-.03.03-.13.04-.2Zm-2.65.6c-.06-.02-.13-.04-.2-.05,0,0-.04.08-.03.11.03.06.09.1.14.15.03-.07.06-.14.09-.2Zm3.13-1.61s-.06-.09-.07-.08c-.06.02-.11.06-.15.1,0,0,.05.08.05.08.06-.03.12-.06.17-.1Zm-10.89,2.62c-.06-.06-.12-.15-.15-.14-.06.02-.14.08-.15.13-.01.06.05.13.07.2.07-.06.15-.12.23-.2Zm8.07-2.03c.09-.06.18-.09.19-.14.01-.05-.05-.13-.1-.17-.04-.02-.11,0-.17.02l.07.3Zm-5.77.56s-.07.02-.1.03c.04.01.08.02.12.04,0-.02-.01-.04-.02-.07Zm11.77,13.8c-.06-.02-.12-.04-.18-.06,0,.06-.04.15,0,.19.03.05.12.06.18.08,0-.07,0-.14,0-.21Zm-26.83,6.88c-.02.12-.03.21-.05.3.06,0,.15.05.18.02.04-.04.07-.13.06-.19,0-.04-.1-.07-.19-.13Zm3,.58c-.07,0-.14-.02-.2-.01-.02,0-.05.08-.05.08.06.04.12.08.18.12.03-.06.05-.12.08-.19Zm23.23-5.84c-.1-.04-.2-.09-.21-.07-.06.07-.1.16-.13.25,0,.01.14.1.15.09.07-.08.13-.17.19-.26Zm-6.51,13.36c-.02.05-.04.12-.05.19,0,.02.08.07.08.06.05-.05.1-.1.14-.16-.06-.03-.12-.06-.17-.09Zm5.23-32.43c-.06-.03-.11-.07-.17-.09-.01,0-.07.07-.07.08.04.06.09.12.13.17.03-.05.07-.11.1-.17Zm-4.87,31.99c.05-.05.13-.1.15-.17.01-.04-.06-.11-.09-.17-.06.05-.15.09-.16.15-.01.06.06.13.1.19Zm10.84-32.63s.03.07.05.08c.03.01.07,0,.11,0-.03-.05-.05-.1-.08-.15-.03.03-.05.05-.08.08Zm-4.88,6.87s-.06-.08-.07-.07c-.06.03-.11.07-.16.1.03.02.06.07.08.06.05-.02.1-.06.15-.09Zm5.08,2.5c-.05,0-.11.01-.16.02.03.01.06.04.09.03.03,0,.05-.03.08-.05Zm-28.6,8.96c.06.02.11.05.17.06.01,0,.03-.06.05-.09-.06-.02-.12-.05-.18-.07,0,0-.02.06-.04.09Zm.14.5s-.06-.04-.09-.03c-.03,0-.05.04-.08.05.03.01.06.04.09.03.03,0,.05-.04.08-.05Zm13.77-3.2v-.06s-.07.04-.07.04l.07.02Zm-7.49,2.74s-.1.09-.14.14c.03.02.08.06.09.06.05-.03.09-.08.14-.13-.03-.02-.06-.05-.08-.07Zm-6.79,3.01s-.05-.04-.07-.06c-.02.02-.04.04-.06.06.04.03.07.06.11.09,0-.03,0-.06.01-.09Zm-.88,1.82c-.07-.02-.14-.07-.19-.06-.05.02-.09.1-.14.15.06.02.13.08.18.06.06-.02.1-.1.15-.15Zm13.08-3.36s-.07.06-.06.08c.03.06.07.12.11.17.02-.07.04-.13.05-.2,0-.01-.06-.03-.09-.05Zm2.32-.08v.08s.1-.06.1-.06l-.1-.02Zm1.43,0c0,.06.02.11.02.17.01-.03.04-.06.04-.09,0-.03-.04-.05-.06-.08Zm4.85-1.24v-.07s-.09.05-.09.05l.09.02Zm1.5-.11s.07.01.09,0c.01,0,0-.05,0-.08-.03,0-.07-.01-.09,0-.01,0,0,.05,0,.08Zm-15.98,14.39s0,.07-.01.11c.05,0,.09-.02.14-.02-.02-.03-.03-.07-.05-.1-.01-.01-.05,0-.08.01Zm-5.28,1.03s-.02.07,0,.09c0,.01.05.01.08.02,0-.03.02-.07,0-.09,0-.01-.05-.01-.08-.02Z"/>
      <path class="cls-1" d="m173.39,64.18c-1.19.17-2.36.41-3.44-.33-.25-.17-.51-.36-.72-.58-.55-.6-1.04-1.24-1.3-2.03-.1-.29-.27-.62-.22-.9.13-.7,0-1.36-.14-2.03-.04-.2-.07-.42-.02-.61.5-2.22,1.48-4.21,3.14-5.79,1.33-1.25,2.99-1.77,4.8-1.66.44.03.91.26,1.28.52.4.28.63.84,1.05,1.04.54.27.54.75.75,1.16.87,1.62.6,3.23.17,4.92-.4,1.57-1.1,2.96-2.2,4.09-.44.45-.77,1.04-1.32,1.36-.57.34-1.22.56-1.84.83Zm3.31-10.25c-.22.05-.55.04-.63.17-.26.46-.59.95-.28,1.53-.38.05-.51.35-.65.65-.72,1.58-1.47,3.14-2.17,4.73-.31.69-.52,1.42-.82,2.27.82-.51.96-.58,1.27-1.54.41-1.27,1.27-2.36,1.38-3.73.57-.7.67-1.59.95-2.4.16-.27.33-.53.48-.8.16-.29.29-.58.44-.88.08-.44.17-.89.27-1.41q-.59.55-.24,1.42Zm-1.45,7.41c.92-.06,1.45-.65,1.8-1.4.38-.79.64-1.63,1.01-2.42.19-.42.01-.67-.21-.96-.61.12-.56.66-.72,1.04-.46,1.09-.88,2.2-1.35,3.28-.08.19-.33.31-.5.46,0,.11.02.22.03.33.05-.02.1-.03.16-.05-.07-.1-.14-.19-.21-.29Zm.44-10.19c-.56.14-.87.43-1.08.91-.52,1.22-1,2.47-1.67,3.6-1.16,1.96-1.71,4.2-2.88,6.16-.47.78-.37.87.67,1.27,1.75-3.78,3.46-7.59,5.01-11.46.05-.12-.03-.3-.06-.48Zm-6.83,8.51c.46-.92.92-1.79,1.35-2.68.43-.89.77-1.82,1.24-2.68.46-.84.91-1.67,1-2.67-.64.54-1.27,1.08-1.7,1.74-.69,1.05-1.28,2.15-1.72,3.36-.25.69-.38,1.39-.53,2.09-.07.32,0,.63.36.84Z"/>
      <path class="cls-1" d="m152.36,151.13c-.95,0-1.92.12-2.84-.03-.74-.12-1.43-.55-2.14-.85-.11-.05-.21-.14-.32-.16-1.4-.25-2.1-1.34-2.71-2.41-.3-.53-.35-1.25-.22-1.97.32-1.8,1.74-2.62,3-3.58.24-.18.61-.19.93-.26.28-.06.59-.03.84-.14,1.49-.69,2.97-.29,4.47-.03.89.15,1.65.63,2.27,1.12.65.5,1.03,1.42,1.36,2.23.51,1.22.06,2.94-.88,3.93-.74.78-2.63,1.8-3.75,2.15Zm.93-6.56c0-.06,0-.11,0-.17.01.06.03.12.04.19l-.38.1s.05.09.08.13l.27-.25Zm.17,2.74c-.07.02-.18.02-.21.07-.05.09-.08.2-.08.31,0,.03.16.1.17.09.07-.08.14-.17.16-.27.02-.06-.05-.14-.07-.21.05-.11.11-.22.16-.33-.06-.01-.11-.03-.17-.04l.04.38Zm-3.61-.1c-.11.46-.77.79-.32,1.39-.73.45-.74.47-.49,1.42.16-.61.59-.9.46-1.44.27-.43.83-.79.32-1.39q.75-.45.41-1.22c.15.05.3.09.51.15.16-.43.32-.84.47-1.25-.06-.02-.12-.05-.17-.07-.26.4-.52.8-.77,1.19-.14.4-.27.81-.41,1.21Zm6.02-2.18c-.99,1.19-1.32,2.68-1.85,4.09,1.03-1.16,1.63-2.53,1.85-4.09Zm-4.54-1.02c.34-.37.97-.63.57-1.31-.75.21-.45.87-.57,1.31Zm-.17,4.55c-.18.34-.37.68-.54,1.03-.04.08-.01.2-.03.59.49-.6.85-.96.57-1.62Zm.94,1c.28-.11.38-.12.39-.16.05-.14.46-.2.11-.41-.03-.02-.24.27-.5.57Zm-5.37-4.46c.07-.23.14-.37.14-.51,0-.06-.15-.11-.24-.17-.06.14-.16.27-.18.41,0,.06.13.14.28.28Zm5.92,1.23c.05-.11.1-.2.14-.3,0,0-.08-.06-.09-.05-.08.06-.15.13-.22.2.05.04.09.09.17.15Zm1.3-.73c-.01.09-.03.18-.04.27.06,0,.17.04.19.01.05-.07.07-.17.1-.25-.07,0-.14-.02-.25-.03Zm-6.81-1.89s-.04-.07-.06-.08c-.03,0-.06.03-.09.04.03.04.06.07.09.11.02-.03.04-.05.06-.08Zm7.54.73s-.08-.1-.12-.15c-.02.03-.06.06-.06.09.01.06.05.12.07.17.03-.04.07-.07.1-.11Zm-.2.71s-.02-.06-.04-.07c-.03,0-.07,0-.1.01.02.04.04.07.06.11.03-.02.06-.04.08-.06Zm-2.67,2.15s-.03.07-.04.1c.04,0,.08,0,.11-.01-.02-.03-.05-.06-.07-.09Z"/>
      <path class="cls-1" d="m42.4,31.71c.83-.12,1.63-.22,2.45.18,1.3.63,1.77,1.57,1.85,3.03.07,1.31-.51,2.21-1.29,2.91-.82.74-1.92,1.2-3.13.92-.95-.22-1.65-.78-2.1-1.65-.19-.35-.5-.66-.6-1.04-.45-1.67,1.09-3.99,2.83-4.35Zm-.79,2.12c.08.05.16.1.24.15.21-.29.41-.58.75-1.06-.92.05-.85.56-.99.91Zm3.07.38c-.37.02-.65.1-.37.54.14-.21.26-.38.37-.54Zm-2.9,1.96c-.06-.01-.12-.03-.19-.04,0,0-.04.08-.03.09.04.04.09.07.14.1.03-.05.05-.11.07-.16Zm1.76.43s.05-.04.08-.06c-.03-.01-.06-.04-.09-.04-.03,0-.05.04-.08.05.03.02.06.03.09.05Zm.09-.61s-.06,0-.09-.01c0,.04,0,.09,0,.13.03-.01.07-.02.08-.04.01-.02,0-.05,0-.08Zm.47-.22s-.06-.04-.09-.06c-.02.06-.04.13-.04.19,0,.02.06.04.09.06.01-.06.03-.12.04-.19Zm.83-2.2l.05.06v-.08s-.05.02-.05.02Z"/>
    </g>
  </g>
</svg>