<?xml version="1.0" encoding="UTF-8"?>
<svg id="_レイヤー_2" data-name="レイヤー 2" xmlns="http://www.w3.org/2000/svg" viewBox="0 0 223.36 177.43">
  <defs>
    <style>
      .cls-1 {
        fill: #987b5a;
      }
    </style>
  </defs>
  <g id="_レイアウト" data-name="レイアウト">
    <g>
      <path class="cls-1" d="m130.91,75.47c-.29-.51-.27-.53.11-.85,1.43-1.19,2.82-2.44,4.19-3.71.63-.58.81-1.5,1.56-1.97-.2-.82.45-1.11.93-1.51.26-.21.52-.58.77-.57.4,0,.83.21,1.18.43.8.5,1.71.78,2.41,1.53.66.69,1.59,1.13,2.42,1.65.35.22.76.34,1.14.52.16.07.37.11.45.24.45.68,1.25.83,1.86,1.25,1.14.77,2.27,1.54,3.42,2.29.42.27.89.47,1.34.7.15.08.39.12.42.23.32,1.02,1.33,1.18,2.07,1.57,1.28.68,2.5,1.49,3.81,2.12,1-.17,1.46.95,2.39.98.22,0,.42.28.63.42.43.28.65.99,1.38.67.91,1.07,2.69.83,3.37,2.26.05.1.23.25.29.22.9-.35,1.14.54,1.65.89.47.31.94.51,1.47.69.47.17.77.98,1.2,1.02.79.09,1.1.83,1.78.97.47.1.32.54.44.84.17.43-.16.47-.42.62-.52.33-.83.8-.99,1.42-.15.56-.63,1.06-.67,1.61-.05.78-.87,1.19-.71,2.14.12.65-.47,1.42-.72,2.15-.21.61-.43,1.21-.56,1.84-.2.97-.87,1.77-1.07,2.7-.32,1.56-1.09,3-1.28,4.57-.09.71-.12,1.39-.46,2.03-.04.07-.06.19-.02.25.41.71-.13,1.27-.33,1.86-.12.36-.19.67-.21,1.05-.07,1.26-.25,2.52-.42,3.78-.12.87-.37,1.7-.15,2.62.12.5.1,1.25-.2,1.58-.67.73.18,1.6-.39,2.25.46.67.14,1.43.03,2.05-.15.82.16,1.58-.02,2.41-.17.78.22,1.67.1,2.48-.13.88.41,1.66.16,2.53-.08.29.16.66.16.99,0,.26-.11.58-.29.75-.09.08-.45-.08-.67-.17-.1-.04-.15-.22-.25-.28-.38-.22-.76-.44-1.15,0-.08.09-.27.21-.31.19-.6-.42-1.1.06-1.65.16-.53.09-1.07.28-1.59.23-.97-.09-1.91.05-2.86.18-.83.11-1.65.3-2.52.14-.36-.06-.78.22-1.18.32-.24.06-.49.06-.73.09-.08-.45-.3-.94.39-1.14.05-.01.1-.18.09-.2-.08-.07-.21-.17-.28-.14-.34.12-.68.28-1.01.43.18.27.35.54.55.79.07.1.2.15.31.22-.32.06-.66.07-.97.19-.49.19-.61-.04-.66-.46-.02-.21-.07-.42-.13-.62-.02-.05-.13-.08-.2-.12-.02.07-.08.17-.06.2.4.6-.11.85-.48.93-1.02.2-1.97.92-3.1.43-.11-.05-.32.15-.48.24-.07.04-.12.11-.18.16-.62-.75-1.31.22-2.04-.1-.43-.19-1.12.25-1.69.37-.49.1-.99.12-1.49.2-.33.05-.8.03-.96.23-.34.44-.72.22-1.04.18-1.18-.18-2.3.2-3.44.31-.92.09-1.85.17-2.78.22-.34.02-.65.19-.93.25-1.14.22-2.28.81-3.48.34-.13-.05-.27-.33-.24-.46.04-.15.33-.39.4-.35,1.21.62,2.25-.31,3.38-.36.17,0,.39-.2.47-.36.05-.11-.12-.46-.18-.46-1.1.04-2.26-.07-3.28.24-.64.2-1.46-.14-1.95.54-.67-.33-1.31.11-1.98.07-.55-.03-1.12,0-1.67.08-.32.05-.62.24-.89.43-.06.05,0,.47.08.5.46.17.91.52,1.46.2.4-.23.84-.4,1.27-.56.31-.12.51.07.43.39-.04.17-.1.33-.18.48-.19.35-.38.48-.49-.05-.07.03-.15.1-.21.08-.67-.14-1.1.63-1.88.42-.52-.14-1.19.26-1.8.4-.48.11-.55.53-.62.88-.07.36.49.72.88.54.99-.46,2.16-.25,3.13-.84.15-.09.48.15.72.14.63-.03,1.29,0,1.87-.2.58-.21,1.3.18,1.77-.43,1.01.26,1.89-.2,2.8-.5.04-.01.09-.04.12-.03,1.64.43,3.15-.49,4.75-.43.83.03,1.64.14,2.48,0,.22-.04.46-.11.67-.11.47-.01.93-.8,1.41-.04.02.02.1.04.12.02.68-.56,1.48-.26,2.22-.36.42-.06.78-.19,1.19.03.09.05.43-.11.47-.24.1-.33.24-.27.46-.15.17.09.47.24.52.18.42-.48.96-.23,1.45-.29,1.09-.13,2.19-.24,3.28-.39.44-.06.87-.18,1.31-.29.79-.21,1.59-.23,2.4-.12.2.03.43-.02.63-.08.48-.15.91-.51,1.46-.17.08.05.26,0,.37-.05.97-.49,1.99-.18,2.99-.25,1-.07,1.99-.34,2.98-.53.16-.03.34-.19.48-.15.75.19,1.29-.01,1.74-.68.22-.32.67-.1.7.3.02.21.09.47,0,.63-.24.43-.51.8.14,1.12.09.04.08.3.11.47.21,1.09,0,2.24.54,3.3.2.39-.56,1.02-.87.73-.66-.62-1.47-.15-2.18-.45-.37-.16-.93.14-1.25-.36-.02-.03-.08-.04-.12-.04-1.24.26-2.49-.31-3.75.11-.54.18-1.18.04-1.75.16-.59.12-1.17-.18-1.82.29-.58.42-1.52.4-2.31.49-1.49.15-2.95.34-4.24,1.19-.21.14-.52.28-.72.22-.58-.17-.84.52-1.17.46-.56-.1-.76.25-1.08.5-.13.1-.29.22-.44.23-1.19.07-2.04.9-3.05,1.37-.6.28-1.18.63-1.78.92-1.25.61-2.52,1.2-3.43,2.32-.08.1-.2.24-.29.23-.52-.07-.91-.02-1.27.48-.27.37-.85.5-1.24.8-.5.38-.94.83-1.41,1.24-.13.11-.26.28-.4.3-.75.09-1.17.68-1.71,1.08-1.03.76-2.15,1.44-3.07,2.32-.84.8-1.69,1.54-2.7,2.1-.17.09-.17.46-.33.6-.52.46-.95.99-1.54,1.41-.84.61-1.6,1.42-2.19,2.32-.11.17-.28.32-.43.46-.64.6-1.36,1.08-1.93,1.8-.56.72-1.22,1.38-1.78,2.12-.83,1.07-1.69,2.11-2.54,3.17-.14-.07-.35-.09-.42-.21-.48-.78-1.13-.87-1.93-.57-.27.1-.49.21-.4.51.09.28.33.4.6.21.56-.38,1.06-.45,1.57.11.08.08.39-.04.59-.07-.46.58-1.08,1.05-1.44,1.65-.38.63-.96,1.08-1.29,1.71-.77,1.45-1.85,2.71-2.61,4.16-.18.35-.38.55-.89.53-.51-.01-.59-.27-.64-.59-.06-.35-.15-.36-.47-.25-.15.05-.48-.16-.62-.34-.47-.58-.94-1.06-1.51-1.21-.58-.15-.67-1-1.38-.9-.08-.53-.58-.56-.92-.79-.5-.34-.53-.63-.09-1.01.06-.06.16-.08.22-.14.16-.18.32-.36.46-.55,0,0-.16-.15-.16-.15-.27.27-.83-.17-.97.39-.06.25-.12.5-.23.73-.15.31-.58.36-.69.06-.12-.35-.02-.77-.63-.69-.49.07-1.07-.1-1.46.11-1.26.68-2.44,1.49-3.67,2.24-.25.15-.53.27-.81.37-1.15.41-2.31.81-3.47,1.21-1.52.52-3.02,1.15-4.58,1.52-1.56.37-3.19.42-4.76.76-.73.16-1.56,0-2.23.63-.3.28-.96.21-1.45.27-1.93.23-3.87.44-5.81.66-.79-.54-1.5.34-2.3.12-1.01-.28-2.06-.02-3.09-.02-.92,0-1.85-.11-2.77-.16-1.15-.06-2.3-.08-3.44-.14-.47-.02-.93-.11-1.39-.15-1.18-.1-2.38-.09-3.53-.31-1.74-.33-3.5-.54-5.21-1.1-1.04-.34-2.13-.62-3.18-.96-1.27-.42-2.58-.83-3.74-1.49-1.08-.62-2.25-1-3.37-1.47-1.11-.46-2.13-1.04-3.16-1.62-.86-.49-1.71-1-2.6-1.44-.91-.45-1.93-.89-2.58-1.78-.05-.07-.09-.16-.16-.19-1.3-.58-2.34-1.56-3.55-2.27-.61-.36-1.03-.87-1.56-1.28-.77-.6-1.35-1.43-2.1-2.06-1-.84-1.94-1.71-2.58-2.87-1.65-1.03-2.62-2.71-3.81-4.15-.72-.87-1.21-1.94-2.13-2.67-.33-1.24-1.68-1.88-1.86-3.21-.02-.15-.1-.33-.21-.44-1.18-1.21-1.94-2.67-2.6-4.19-.39-.9-.55-1.95-1.12-2.7-.61-.8-.86-1.71-1.29-2.56-.32-.63-.44-1.37-.64-2.05-.04-.12-.04-.26-.09-.38-.58-1.47-1.17-2.95-1.76-4.42-.05-.12-.17-.22-.18-.34-.15-2.3-1.27-4.4-1.43-6.71-.03-.41-.22-.86-.24-1.32-.05-1.01-.56-1.45-1.57-1.41-.13,0-.25.08-.37.09-1.77.24-1.92.2-1.77-1.57.18-2.24-.01-4.48.11-6.72.03-.57-.17-1.15-.21-1.72-.05-.81.24-1.14,1.09-1.25.37-.05.76-.03,1.13,0,.45.05.64-.15.66-.57.02-.3.08-.6.05-.89-.18-1.96.47-3.83.54-5.77.02-.62.4-1.23.49-1.86.3-2.12.96-4.15,1.61-6.17.33-1.03.7-2.06,1.09-3.07.37-.98.79-1.94,1.19-2.91.3-.73.53-1.51.93-2.18.49-.82,1.02-1.61,1.48-2.45,1.32-2.42,2.71-4.81,4.09-7.19.21-.36.52-.66.8-.99.3-.36.63-.69.91-1.07.56-.77,1.09-1.56,1.65-2.32.09-.13.28-.19.41-.29.26-.2.61-.37.73-.64.34-.73.97-1.16,1.5-1.71.79-.83,1.75-1.5,2.41-2.47.22-.33.72-.46,1.01-.77.85-.89,1.9-1.52,2.82-2.31,1.41-1.23,3.15-1.99,4.49-3.3.15-.14.38-.19.57-.3.69-.4,1.44-.66,2.11-1.16.56-.43,1.32-.61,1.9-1.08.2-.16.43-.3.67-.4,2.99-1.26,5.87-2.74,9.03-3.63,1.83-.52,3.66-1.06,5.5-1.57,1.09-.31,2.22-.44,3.3-.76.4-.12.85-.17,1.26-.11,1.12.15,2.16-.5,3.29-.31.09.01.37-.45.37-.69,0-.63-.1-1.25-.17-1.88-.07-.59.27-.9.89-.84.79.08,1.67.38,2.34.12,1.01-.39,1.99-.23,2.98-.29.83-.05,1.66.15,2.5.19.57.03,1.15-.04,1.72-.05.24,0,.49.02.73.06.27.06.3.22.37.52.14.63.03,1.22,0,1.82-.03.41.06.6.54.65,1.82.18,3.64.39,5.45.64,1.76.25,3.55.44,5.15,1.32.14.08.32.09.49.13,1.1.27,2.19.69,3.3.76,1.74.11,3.18,1.19,4.9,1.29,1.76,1.05,3.96.98,5.68,2.16.16.11.4.1.6.16,1.4.42,2.76.93,4.01,1.7.11.07.22.16.34.18,1.38.21,2.52,1.01,3.72,1.61,1.63.82,3.18,1.81,4.79,2.67.96.51,1.7,1.41,2.85,1.56.04,0,.09.03.11.06.63,1.15,2.01,1.13,2.91,1.87.16.14.39.2.53.35.96,1.01,2.2,1.61,3.39,2.29.18.1.39.17.56.3,1.9,1.43,3.8,2.86,5.7,4.3.81.61.84.84.07,1.52-1.02.89-1.95,1.88-3.15,2.55-.86.48-1.03.55-1.81-.06-1.12-.88-2.2-1.83-3.31-2.73-.63-.51-1.3-.97-1.96-1.43-1.05-.73-2.18-1.35-3.15-2.17-1.19-1.01-2.68-1.56-3.84-2.62-.58-.53-1.5-.69-2.1-1.21-.72-.61-1.65-.78-2.37-1.33-.85-.66-1.98-.73-2.82-1.33-2.27-1.64-4.95-2.41-7.44-3.57-1.64-.76-3.42-1.23-5.14-1.83-.79-.28-1.6-.52-2.36-.87-.54-.25-1.31.19-1.67-.57-.62-.08-1.24-.27-1.83-.35-1.59-.23-3.05-.85-4.59-1.19-.32-.07-.66,0-.99-.05-1.08-.18-2.15-.4-3.22-.58-.37-.06-.75-.06-1.12-.1-.38-.04-.78-.04-1.13-.16-.8-.29-.79-.18-.87.53-.03.25-.02.51-.04.76-.06.76-.46,1.09-1.21,1.2-1.97.3-3.96.11-5.93.29-.83.08-1.66-.29-2.51.15-.34.17-.99-.18-1.45-.4-.23-.11-.45-.43-.51-.7-.08-.35-.02-.74,0-1.12.02-.4-.11-.53-.53-.43-2.23.54-4.44,1.14-6.69,1.56-2.08.39-3.94,1.42-5.97,1.87-1.05.23-1.77,1.2-2.91,1.07-.42.69-1.33.35-1.79.8-.5.5-1.15.66-1.71,1.01-.58.36-1.28.55-1.81.95-1.87,1.43-4.1,2.28-5.93,3.77-.83.03-.91.9-1.45,1.28-1.3.94-2.69,1.78-3.72,3.05-.83.04-.77.98-1.31,1.32-.57.36-.95.89-1.38,1.4-.65.77-1.26,1.57-1.91,2.34-.75.88-1.64,1.64-2.27,2.62-.64.99-1.26,1.99-1.94,2.96-2.04,2.92-3.33,6.21-4.71,9.45-.48,1.13-.67,2.37-1.18,3.47-.68,1.47-.98,3.03-1.41,4.56-.18.65-.27,1.34-.4,2.01-.09.45-.19.9-.28,1.34,0,.03-.1.07-.09.08.5,1.05-.46,1.9-.4,2.89.01.2-.08.42-.18.6-.42.74-.15,1.61-.44,2.38-.05.12-.08.9.62.4.23-.17.75-.08,1.07.05.27.11.57.44.62.72.24,1.38.31,2.78.14,4.18-.07.52,0,1.07.02,1.6.01.42.05.84.07,1.26.04.71.09,1.41.1,2.12.01.7-.2.94-.83.97-.17,0-.34-.04-.51-.02-.82.08-.9.27-.78,1.07.15,1.03.71,2,.49,3.09.59,1.19.4,2.6,1.09,3.78.19.32.22.74.27,1.12.16,1.3.93,2.36,1.35,3.55.43,1.2.95,2.37,1.45,3.55.42.98.84,1.96,1.31,2.91.5,1,1.06,1.97,1.61,2.95.17.3.41.55.55.86.76,1.64,1.99,2.95,3.06,4.37.75,1,1.44,2.05,2.25,2.99.91,1.05,1.91,2.02,2.9,2.99.58.57,1.41.96,1.79,1.62.4.69,1,1.09,1.53,1.59.42.4,1,.62,1.43,1.01,1.51,1.4,3.2,2.56,4.85,3.78,2.03,1.51,4.25,2.7,6.48,3.87,1.53.8,3.15,1.44,4.84,1.88.56.15,1.12.34,1.63.6,1.54.77,3.27.79,4.88,1.27,1.13.34,2.31.54,3.48.67,1.33.15,2.67.29,4,.4,2.34.19,4.68-.07,7.01.16.5.05,1.02-.1,1.52-.16.21-.03.47-.18.62-.1.72.38,1.36-.05,2.03-.11.72-.07,1.45-.04,2.16-.15,1.14-.17,2.26-.5,3.4-.59,1.6-.13,3.07-.75,4.61-1.05,1.4-.27,2.73-.75,4.09-1.13,1.01-.28,1.98-.73,2.97-1.12.44-.17.89-.32,1.3-.54.96-.51,1.9-1.05,2.97-1.64-1.3-1.18-2.37-2.34-3.64-3.32-1.17-.9-2.42-1.73-3.44-2.82-.38-.41-.46-.76-.12-1.24.23-.33.61-.64.46-1.15-.02-.05.07-.18.13-.2.48-.21,1.04-.24,1.01-1.06-.02-.43.38-.92.69-1.31.51-.64.82-1.37,1.19-2.08.42-.79,1.1-1.5,1.31-2.33.19-.75.68-1.24.96-1.88.12-.27.23-.57.22-.86-.02-.29-.02-.47.28-.62.17-.08.37-.32.37-.48-.02-1.32.86-2.31,1.29-3.45.5-1.32,1.12-2.6,1.61-3.93.29-.79.87-1.46.77-2.43-.05-.5.37-1.09.68-1.56.56-.84.87-1.75,1.08-2.72.07-.35.31-.67.43-1.02.15-.44.27-.9.38-1.36.11-.43.18-.88.31-1.3.16-.5.39-.98.54-1.49.16-.53.23-1.08.38-1.61.29-1.02.7-2,.57-3.11-.04-.36.14-.74.21-1.11.11-.62.31-1.23.29-1.85-.03-1.04,0-2.04.45-3,.1-.21.06-.5.07-.75.05-1.25-.26-2.5-.04-3.76-.56-.95.07-2.13-.58-3.09-.1-.15.04-.46.08-.7.02-.12.17-.28.13-.33-.35-.44-.15-.95-.23-1.41-.11-.6-.61-1.13-.28-1.82.03-.06-.01-.19-.06-.24-.88-.88-.5-2.08-.73-3.11-.16-.7-.38-1.36-.56-2.05-.21-.78-.34-1.57-1-2.16-.21-.19-.3-.62-.28-.93.02-.31-.07-.39-.29-.58-.7-.59-.62-1.27.21-1.53,1.07-.35,2.07-.91,3.23-1,.21-.02.48-.23.6-.42.23-.38.53-.49.94-.51.67-.04,1.4,0,1.63-.87.71.12,1.07-.58,1.66-.73,1.05-.26,1.83-.63,2.59-1.33.12-.11.32-.3.42-.26,1.02.35,1.56-.52,2.22-.93.99-.61,1.91-1.29,3.09-1.49.08-.01.2-.03.24-.09.59-.84,1.58-.95,2.42-1.33.58-.26.9-.89,1.68-.93.6-.03.96-.85,1.68-.82.75-.77,1.86-.95,2.68-1.6.34-.27.63-.58,1.13-.46.11.03.39-.17.38-.25-.05-.94.98-.68,1.29-1.2.77.1,1.18-.54,1.73-.89.74-.47,1.5-.94,2.02-1.72.32-.48.74-.98,1.47-.82.21.57.59.88,1.18.57.52-.27,1.23.07,1.65-.53.03-.05.29-.04.35.03.38.46.99.21,1.13.02.47-.62,1.12-.23,1.63-.46.17-.08.46.03.58-.08.85-.74,1.92-.6,2.91-.81.65-.14,1.33-.16,1.97-.32.63-.16,1.28,0,1.45.51.31.91,1,.31,1.46.51.03.01.27-.43.41-.67-.17.06-.33.13-.5.18-.11.04-.28.11-.34.06-.31-.22-.6-.46-.87-.73-.03-.03.12-.33.18-.33.58,0,1.17.1,1.74.05.3-.03.81-.27.83-.45.04-.35-.32-.51-.73-.49-.33.01-.68-.21-.99-.15-.68.15-1.37.34-1.98.65-.36.18-.57.21-.91,0-.39-.24-.85-.44-1.27-.02-.89-.22-1.64.6-2.57.33-.32-.09-1.02.08-1.04.21-.12.76-.61.4-.97.41-1.01.03-2,.08-2.91.62-.2.12-.5.09-.75.14-.16.03-.4.04-.45.14-.28.5-.82.41-1.22.62ZM7.15,100.14c.59-.17,1.19-.33,1.78-.52.07-.02.14-.26.11-.3-.09-.11-.33-.26-.37-.22-.48.39-1.2.44-1.48,1.09-.47.18-.94.34-1.39.54-.09.04-.12.2-.18.31.1.04.21.13.29.11.36-.1.74-.18,1.05-.37.14-.09.14-.41.2-.62Zm13.67-27.21c-.4.15-.8.27-1.18.44-.38.17-.75.38-1.11.6-.05.03-.1.19-.07.21.08.08.23.21.29.18.69-.31,1.36-.64,2.03-1,.07-.04.02-.3.03-.45q.98.11,2.77-1.09c-1.12,0-1.83.82-2.75,1.11Zm115.64,70.1c-.7-.47-1.48-.51-2.28-.44-.12,0-.22.2-.33.31.11.11.22.31.33.31.75-.01,1.53.25,2.24-.22.72-.11,1.43-.21,2.15-.33.1-.02.18-.14.28-.21-.1-.06-.19-.16-.29-.18-.33-.04-.67-.11-.99-.06-.36.05-.72.19-1.05.35-.07.04-.04.31-.05.48Zm21.37-44.72c-.87.1-1.75.15-2.6.33-.71.15-1.61-.04-2.08.99,1.43-.16,2.74-.3,4.06-.46.52-.06.75-.37.6-.9.23.24.42.61.69.68.23.07.56-.2.85-.32-.17-.14-.34-.27-.5-.42-.38-.35-.69-.07-1.02.09Zm-31.25,4.78c-.8-.25-1.51-.18-2.05.56-.14.19-.32.12-.31-.11.01-.34-.02-.47-.41-.32-.59.23-1.19.42-1.81.55-.41.09-.84.02-1.27.05-.11,0-.32.12-.31.15.03.15.08.36.19.42.16.09.41.16.58.11,1.38-.41,2.81-.45,4.22-.64.63-.08.91-.34,1.15-.82.15.08.3.16.45.24.52.29,1.05.26,1.56,0,.1-.05.2-.21.2-.31,0-.08-.16-.2-.26-.23-.24-.06-.5-.1-.75-.12-.46-.04-.95-.14-1.17.45ZM51.66,56.8c-.79.28-1.58.55-2.37.83-.11.04-.2.13-.3.2,1.02-.08,1.93-.37,2.79-.82,1.17-.37,2.35-.73,3.52-1.1.04-.01.07-.05.1-.07.88-.4,1.76-.81,2.64-1.21.23-.11.48-.2.7-.32.09-.05.13-.18.19-.28-.1-.07-.21-.2-.31-.19-.24.01-.48.06-.7.15-.31.13-.59.34-.9.46-1.21.49-2.45.94-3.65,1.45-.59.25-1.14.6-1.71.91Zm47.89,95.45c.6-.16,1.19-.32,1.79-.46.16-.04.36-.08.5-.02.73.33,1.31-.21,1.96-.31.12-.02.25-.32.26-.51,0-.09-.24-.26-.38-.27-.29-.03-.64-.06-.88.07-.83.46-1.76.45-2.65.56-.7.09-.71.45-.6.96-.46-.82-1.23-.57-1.92-.55-.15,0-.29.22-.44.34.17.15.35.45.51.44.62-.03,1.24-.16,1.85-.26Zm46.69-24.56c.6.56,1.25.38,1.91.13.36-.14.76-.43,1.07-.36,1.41.33,2.7-.67,4.09-.3.59-.33,1.24-.19,1.86-.26.34-.04.66-.25.99-.39-.02-.08-.05-.17-.07-.25-.43.06-.89.24-1.29.15-.43-.09-.72-.21-1.1.16-.15.15-.65-.14-.97-.08-1.27.23-2.52.49-3.84.41-.71-.04-1.44.37-2.2.38-.14,0-.28.28-.42.43-.97-.42-1.9,0-2.85.14-.07.01-.11.21-.16.32.1.04.2.12.3.12.79.04,1.56-.37,2.38-.07.26.1.38-.25.3-.54Zm-14.99-25.15c-.37-.5-.78-.63-1.32-.3-.29.17-.78.23-.73.75.25-.05.5-.13.76-.15.11-.01.24.07.36.11.44.12.72-.13.97-.44.12.13.26.37.37.36.55-.07,1.13-.4,1.63-.29,1.16.26,2.17-.64,3.29-.28.36-.73.98-.3,1.47-.28.7.03,1.05-.49,1.55-.78.03-.02,0-.27-.07-.32-.34-.27-1.33-.21-1.37.12-.12.87-.31.43-.63.13-.1-.1-.41-.02-.61.02-.96.19-1.92.39-2.88.58-.34.07-.75.26-1,.14-.87-.44-1.32.05-1.76.64Zm12.27,30.08c-.21-.11-.43-.33-.63-.31-.76.08-1.42.64-2.29.36-.23-.07-.75.62-.91.54-.39-.21-.66-.4-1.12-.18-.65.32-1.45-.3-2.09.28-.67-.38-1.22-.14-1.76.3-.13.1-.41.03-.63.02-.37,0-.76-.08-1.12,0-.16.04-.34.34-.37.55-.02.12.23.33.39.4.14.06.34-.01.5-.05,1.6-.4,3.18-.86,4.86-.45.09.02.26-.06.3-.14.12-.24.24-.23.5-.21.4.04.82-.05,1.23-.12.25-.04.55-.27.72-.19.83.39,1.47-.35,2.23-.34.05,0,.1-.35.15-.53.23.5.71.61,1.16.59,1.02-.06,2.04-.17,3.05-.33.53-.08,1.04-.3,1.56-.48.09-.03.15-.17.23-.27-.13-.09-.26-.25-.39-.25-.25,0-.53.02-.75.14-.84.47-1.76.52-2.6.24-.73-.24-1.36.22-2.04.03-.02,0-.12.26-.19.4Zm6.68-55.49c-.01.17-.07.47-.03.48.39.12.78.21,1.18.26.06,0,.24-.28.2-.37-.07-.18-.22-.4-.39-.47-.14-.06-.35.09-.54.12-.15.02-.31,0-.46.01,0-.3-.45-.83.37-.71.25.04.5.05.75.02.09,0,.19-.14.25-.24.02-.04-.05-.19-.11-.21-.67-.21-1.35-.78-2.04-.37-.44.26-.98-.21-1.37.39-.18.28-.93-.15-1.31.3-1.05-.29-1.96.45-2.97.39-.53-.03-.52.39-.54.68-.03.39.33.32.57.29,1.57-.21,3.16-.37,4.71-.67.62-.12,1.16-.15,1.73.09Zm-41.52,26.19c1.09.79,2.28.64,3.42.24.87-.31,1.85-.1,2.66-.63.07-.05.24.1.36.09.72-.08,1.55.3,2.08-.52.84-.1,1.68-.2,2.53-.29.03,0,.07.04.1.08.24.31.44.26.74.01.21-.17.55-.19.84-.24,1.04-.17,2.08-.33,3.12-.48.62-.09,1.15-.59,1.85-.34.2.07.52-.03.73-.15.2-.12.32-.36.47-.55-.19-.06-.42-.08-.55-.2-.31-.28-.54-.37-.8.06-.07.11-.37.07-.57.1-.8.1-1.66.07-2.4.35-.65.24-1.3.01-1.95.29-.63.27-1.42.19-2.13.26-.2.02-.43-.01-.6.07-.85.44-1.85.1-2.69.57-.52-.5-.93-.11-1.37.15-.18.1-.41.19-.6.16-.8-.12-1.46.63-2.27.37-.23.74-.66-.12-1.05.13-.42.27-1,.47-1.55.13-.02-.01-.2.23-.3.35-.57.14-1.13.28-1.69.44-.08.02-.18.2-.17.3.01.09.16.21.26.22.34.01.68,0,1.02-.04.63-.08.63-.09.56-.94Zm14.3-15.23c-.27-.12-.56-.38-.79-.33-1.37.27-2.82.08-4.12.78-.38.2-.89.22-1.34.21-.66-.02-1.3-.11-1.93.21-.49.24-1.15-.1-1.54.09-1.33.62-2.79.65-4.17.96-1.88.43-3.66,1.15-5.5,1.68-.18.05-.3.35-.45.53.21.07.43.22.63.2.24-.02.46-.18.7-.28.19-.08.43-.27.58-.22.65.25,1.14-.06,1.72-.27.62-.23,1.32-.26,1.99-.36.63-.09,1.28.02,1.87-.37.39-.26,1,0,1.37-.43.75.22,1.5.45,1.99-.46.01-.02.09-.03.12,0,.72.49,1.3-.64,2.01-.17.71-.5,1.64-.09,2.33-.48.75-.43,1.54-.38,2.32-.51.49-.08.98-.99,1.53-.09,0,0,.23-.09.3-.18.14-.16.25-.35.37-.53,1.05.3,2.09.12,3.11-.15.1-.03.24-.26.21-.36-.04-.13-.2-.26-.34-.32-.08-.03-.26.05-.32.13-.25.35-.46.32-.68-.02-.31-.47-.67-.15-1.02-.07-.47.11-.96.16-.92.83Zm22.88,33.01c.17-.8.85-.75,1.43-.81.5-.06,1.04.05,1.52-.09.42-.12.79-.21,1.23-.11.26.06.57-.1.86-.17.37-.08.77-.3,1.11-.23.67.14.9-.27,1.21-.69-1.82-.54-3.5.37-5.25.39-.33,0-.65.03-.98.05-.24.01-.48.01-.71.06-.64.13-1.3.48-1.91.39-1.24-.18-2.2.31-3.39.9.41.18.7.42.84.35,1.13-.54,2.37,0,3.5-.42.29-.11.49.06.55.36-.91.63-1.99.57-3.02.68-.93.1-1.87.12-2.79.24-.3.04-.56.33-.86.48-.19.09-.4.2-.6.2-.88-.03-1.34.56-1.94,1.24.61-.06,1.24.07,1.49-.18.43-.43.81-.27,1.26-.31.67-.06,1.4.27,2.01-.28.08-.07.26-.08.37-.04.88.27,1.74.38,2.53-.23,1.15.17,2.24-.25,3.35-.39,1.76-.22,3.52-.44,5.28-.66.75-.09,1.49-.22,2.24-.28.74-.06,1.5-.01,2.24-.08.89-.07,1.8-.11,2.65-.35.87-.25,1.69-.51,2.63-.42.65.06,1.27-.16,1.65-.8.29-.49-.17-.71-.33-1.01-.19-.35-.37-.04-.59.06-.39.18-.81.52-1.3.21-.46.45-.83-.31-1.28-.08-.45.23-.92.41-1.39.61-.11.05-.32.11-.36.06-.45-.5-1.03.05-1.43-.16-.65-.35-1.06.29-1.58.24-.72-.07-1.3.33-1.97.41-1,.11-2,.22-3,.32-1.76.18-3.52.37-5.28.55Zm-1.72-13.95h-.01c-1.17.11-2.34.19-3.51.35-1.05.14-2.08.35-3.12.54-.13.02-.25.12-.38.19.14.13.28.38.42.38.62,0,1.33.11,1.85-.14.55-.26,1.26.43,1.64-.35,1.17,0,2.33-.06,3.45-.43.04-.01.08.01.13.02.83.17,1.62-.2,2.43-.28.4-.04.78-.16,1.22-.08.35.07.9.13,1.07-.07.78-.87,2.02-.08,2.77-.87.93.55,1.73-.23,2.62-.22-.05-.12-.07-.2-.11-.25-.17-.22-.35-.42-.53-.63.23-.18.43-.45.69-.53.73-.22,1.51-.28,2.21-.56,1.06-.43,2.3.34,3.27-.53,1.04.11,2.02-.12,3.03-.4.94-.26,1.96-.26,2.94-.39.25-.03.58-.07.71-.24.2-.24.27-.59.36-.9.02-.06-.13-.23-.22-.23-.7-.05-1.45-.31-2.01.36-.16.19-.31.26-.51.03-.08-.1-.25-.2-.36-.19-1.09.19-2.12.77-3.29.53-.12-.02-.25.05-.38.08-.5.11-1.02.16-1.5.34-1.24.46-2.57.38-3.84.7-1.46.36-2.98.42-4.47.66-.9.14-1.79.34-2.67.59-1.22.35-2.6-.14-3.71.72-1.01.04-2.06-.1-2.92.62-1.14-.22-2.19.49-3.33.32-.07-.01-.19.11-.24.2-.02.05.04.19.1.22.3.14.61.33.93.36.41.03.83-.05,1.24-.13.66-.12,1.41-.11,1.95-.44.49-.3.74-.26,1.12.02.31.23.64.43.96.64Zm-15.23,2.85s-.03-.08-.05-.12c-.21,0-.48-.08-.63.01-1.05.71-2.07,1.46-3.1,2.21-.09.06-.09.24-.14.35-.4.82-.78,1.66-1.21,2.46-.32.6-.74,1.14-.44,1.91.09.23-.09.57-.17.85-.06.23.03,1.74.18,1.84.73.47.78,1.4,1.39,1.99.3.29.67.92.32,1.48-.27.42-.6.83-.98,1.15-.8.68-1.22,1.72-2.2,2.23-.19.1-.21.5-.33.75-.13.29-.23.62-.45.83-.36.36-.89.47-1.09,1.11-.15.49-.77.83-1.16,1.26-.11.11-.13.3-.21.44-.37.67-.56,1.47-1.36,1.84-.21.1-.31.4-.47.6-.71.89-.57,2.31-1.8,2.88-.08.04-.07.24-.13.35-.2.42-.31.94-.63,1.24-.9.85-1.19,2.03-1.79,3.03-.26.43-.37.92-.99,1.08-.28.07-.73.25-.6.84.04.17-.65.63-.63.66.39.5-.05.67-.31.91-.19.18-.42.32-.56.53-.47.74-.95,1.46-1.49,2.16-.8,1.03-1.01,2.5-2.18,3.33-.05.04-.07.15-.08.22,0,.7-.59,1.05-.95,1.52-.7.9-1.55,1.68-2.19,2.62-.21.31-.59.69-.57,1.03.04.76-.54,1.19-.88,1.59-.64.76-.95,1.76-1.79,2.36-.09.07-.17.23-.17.34.01,1.13-.83,1.7-1.5,2.39-.16.16-.25.39-.39.57-.11.14-.25.26-.39.36-.15.11-.35.16-.48.29-.32.34-.58.73-.91,1.05-.58.58-.6.57.07,1.09.8.63,1.62,1.25,2.43,1.86.3.23.61.3.94.04.37-.3,1.11-.35.73-1.12.7-.73,1.06-1.65,1.41-2.57.05-.14.25-.21.38-.32.19-.17.46-.32.52-.53.11-.37.31-.44.65-.45.25,0,.54-.16.25-.5-.17-.2-.21-.32.04-.51.37-.28.79-.57,1.03-.95.25-.4.16-.99.7-1.23.27-1.39,1.82-1.91,2.19-3.23.86-.5.99-1.48,1.49-2.22.33-.48.56-1.06.95-1.48.49-.52,1.09-.93,1.68-1.35.24-.17.39-.29.28-.61-.04-.11.05-.36.15-.42.42-.24.44-.61.38-1.01-.04-.3-.05-.51.36-.46.1.01.24-.16.33-.27.25-.34.57-.66.7-1.04.29-.88,1.48-1.24,1.34-2.36,0-.07.19-.25.25-.23.77.24.73-.52.67-.74-.13-.51.16-.77.42-1,.45-.4.94-.73.8-1.45-.02-.08.12-.21.21-.3.52-.47,1.06-.93,1.57-1.42.1-.1.2-.33.15-.43-.27-.53.04-.81.42-1.05.38-.24.62-.54.73-.99.08-.33.21-.69.43-.93.82-.87,1.5-1.85,2.24-2.78.42-.53.83-1.1,1.13-1.71.33-.68,1.11-1.05,1.19-1.87.71-.14.75-.86,1.13-1.29.55-.63.72-1.52,1.48-2.01.26-.17.39-.56.55-.86.12-.23.18-.49.29-.71.34-.66.51-.73,1.22-.51.24.07.47.23.72.26.63.07,1.32.25,1.88.07.72-.22,1.55-.14,2.15-.71,1.42-.13,2.1-1.43,3.2-2.07.13-.08.22-.27.27-.43.27-.8.46-1.64.8-2.4.33-.73-.06-1.47.12-2.15.42-1.57-.92-2.57-1.17-3.91-.01-.06-.13-.13-.2-.14-.79-.17-.98-.88-1.37-1.43-.13-.19-.35-.52-.46-.49-.51.11-.7-.22-1.05-.47-.68-.5-1.63-.62-2.2-1.35-.06-.08-.24-.08-.37-.09-.63-.04-1.25,0-1.83.29-.29.14-.59.26-.88.39ZM60.03,57.14c0,.25,0,.51,0,.76.01.82.17.99.91.97.68-.02,1.35-.02,2.03-.06,1.65-.09,3.29-.26,4.96-.13,1.09.09,1.5-.56,1.47-1.72-.03-1.35.03-2.71.05-4.06,0-.84.03-1.68,0-2.52-.02-.53-.4-.82-.95-.8-.47.02-.94.07-1.41.1-1.49.07-2.98-.22-4.48.06-.53.1-1.09.02-1.63.07-.34.03-.68.13-.74.58-.04.34-.18.67-.18,1.01-.02,1.91,0,3.83,0,5.74Zm103.21,79.42s.02.09.03.13c.53-.14,1.07-.27,1.6-.42.06-.02.16-.13.15-.17-.1-.45-.11-.97-.36-1.33-.27-.39-.77-.46-1.29-.32-.73.2-1.5.45-2.23.41-.79-.04-1.49.19-2.23.29-.6.08-1.22,0-1.83.05-.76.07-1.52.17-2.27.32-.73.14-1.56-.3-2.21.35-.05.05-.18.05-.25.02-.96-.38-1.81.11-2.7.32-.55.13-1.05.67-1.64.07-.05-.05-.24.03-.36.05-.41.08-.82.17-1.23.23-.75.12-1.5.21-2.25.34-1.01.18-2.01.55-3.01.54-.99,0-1.91.19-2.83.44-.33.09-.67.18-1,.2-.67.04-1.34,0-2,.04-.55.03-1.21-.06-1.61.21-.91.63-2.04.29-2.93.85-.15.1-.43.05-.63,0-.51-.13-.96-.22-1.43.21-.21.19-.65.12-.99.15-.36.03-.82.18-1.07.02-.5-.32-.49.53-.83.28-.44-.31-.77-.37-1,.22-.02.06-.27.05-.41.03-.2-.03-.39-.17-.57-.14-1.02.13-2.04.27-3.05.46-.41.08-.81.27-1.19.46-.11.06-.13.29-.19.45.14.03.28.09.42.09.75,0,1.45-.84,2.24-.14,1.27-.15,2.57-.03,3.78-.58.41-.19.93-.39,1.33-.29.8.2,1.47-.18,2.2-.25.85-.08,1.67-.62,2.59-.16.32.16.85.07,1.23-.07.84-.31,1.66-.47,2.57-.47,1.04,0,2.12.04,3.09-.47.81.37,1.57-.19,2.4-.11.75.08,1.51-.24,2.33-.25,1.32-.01,2.63-.4,3.96-.6.59-.09,1.28-.31,1.77-.11.84.34,1.61-.38,2.39.03,1.16-.67,2.5-.26,3.71-.65.62-.2,1.32-.5,1.92-.39.82.15,1.57-.08,2.34-.1.67-.01,1.34.07,2,.03.52-.03,1.03-.18,1.55-.28Zm-64.08,1.45c-.18,0-.57-.12-.76.02-.52.4-1.11.41-1.69.55-.52.13-1.02.43-1.19,1.02-.12.39.04.6.42.55.46-.06.91-.18,1.37-.25.15-.02.38,0,.44.09.07.11.03.32-.01.47-.04.11-.18.18-.25.29-.3.51-.21.72.37.67,1.44-.13,2.94.06,4.29-.68.14-.07.36-.19.44-.14.61.4,1.26-.08,1.88.09.16.04.4-.21.61-.29.12-.05.32-.11.39-.05.3.23.54.18.81-.03.16-.13.39-.32.53-.29.58.15,1.09.19,1.56-.27.02-.02.49.28.59.5.08.18-.02.45-.41.47-.92.05-1.84.16-2.76.3-.49.08-.97.26-1.44.42-.77.27-1.53.5-2.36.18-.21-.08-.58-.07-.71.07-.47.47-.95.52-1.53.28-.14-.06-.35,0-.5.07-.29.13-.56.39-.86.43-.3.04-.64-.23-.93-.18-.69.12-1.44-.04-2.06.45-.18.14-1.57,1.06-1.62,1.23-.05.18-.07.4-.01.57.03.07.3.11.45.08,1.01-.22,2-.57,3.02-.66.99-.09,1.88-.5,2.93-.48,1.84.03,3.58-.82,5.42-1.1,1.29-.2,2.59-.31,3.88-.6.52-.11,1-.18,1.33-.63.11-.14.19-.31.28-.46-.18-.03-.36-.1-.53-.07-.81.15-1.17-.18-.91-.9.02-.07.28-.13.36-.08.85.46,1.56.01,2.21-.41.15-.1.15-.66.02-.9-.16-.27-.41-.02-.63.13-.3.2-.92.5-.97.43-.45-.58-.85.03-1.26,0-.5-.04-1,.05-1.51.11-.21.02-.42.14-.63.13-.12,0-.29-.17-.34-.3-.04-.13,0-.37.09-.44.2-.15.46-.29.69-.3.64-.03,1.3-.09,1.91.05.53.12.94.02,1.32-.27.42-.33.76-.55,1.38-.38.33.09.85-.29,1.21-.57.11-.09-.02-.52-.07-.78-.06-.3-.22-.27-.46-.16-.79.35-1.62.44-2.47.4-.17,0-.35-.05-.5.01-1.06.4-2.2.3-3.29.49-1,.17-2.13,0-3.01.4-1.33.61-2.76.28-4.05.79-.1.04-.25-.03-.49-.07Zm8.35-19.19s-.02-.08-.03-.12c-.04,0-.09,0-.13,0-1.76.3-3.52.56-5.27.91-.46.09-.65.57-.62,1.03.03.5.47.56.86.58.26.01.52,0,.77-.04.86-.16,1.72-.35,2.59-.5,1.64-.29,3.28-.57,4.92-.85.59-.1,1.17-.23,1.77-.31.1-.01.32.18.33.3.01.13-.12.38-.23.4-.74.16-1.49.27-2.24.39-.66.1-1.33.14-1.97.3-1.15.28-2.29.65-3.44.92-.27.06-.6-.12-.91-.19-.11.67-.51.21-.82.25-.63.08-1.28.28-1.63.91-.09.17-.08.39-.11.59.16.01.33,0,.48.04.69.18,1.31.03,1.97-.24.57-.24,1.23-.3,1.85-.39,1.2-.17,2.41-.29,3.61-.45.63-.09,1.25-.23,1.87-.36,2.04-.42,4.07-.83,6.1-1.28.38-.08.71-.22,1.09.04.18.12.54.19.7.09.96-.59,2.03-.82,3.1-1.1.51-.13.3-.55.32-.86.02-.32-.17-.48-.49-.4-.85.2-1.83-.2-2.55.59-.07.08-.28.14-.36.1-.77-.45-1.5.05-2.23.14-1.08.13-2.13.47-3.2.71-.1.02-.28.03-.32-.03-.09-.13-.18-.31-.16-.46.01-.1.19-.21.32-.25.74-.25,1.68.35,2.27-.56.04-.06.24,0,.37-.01.21-.01.43,0,.62-.07,1.17-.46,2.46-.22,3.64-.64.06-.02.17.09.24.07.43-.14.86-.28,1.27-.47.09-.04.14-.33.1-.46-.04-.13-.28-.31-.36-.28-.59.24-1.27-.23-1.86.27-.23.2-.72.31-.97.2-.48-.21-.82-.14-1.3,0-.43.13-1.1-.32-1.43-.13-.46.26-.86.45-1.38.44-.96-.01-1.87.5-2.86.23-.17-.05-.43.07-.6.19-.59.39-1.21.41-1.89.39-.59-.02-1.2.24-1.79.37Zm63.17-29.89c.32-.02.63,0,.91-.07.14-.03.3-.21.33-.35.02-.09-.17-.28-.3-.32-.53-.18-1.06-.62-1.62.03-.13.15-.56.08-.85.07-.25,0-.57-.2-.73-.1-.68.4-1.47.12-2.17.42-.5.21-1.18.42-1.63.24-1.07-.41-2.02.16-3,.23-.87.06-1.78.04-2.65.25-.86.2-1.71.43-2.59.48-.42.03-.85-.06-1.26,0-1.09.14-2.12.68-3.26.54-.27.43-.65-.07-.88.08-1.23.76-2.66.31-3.97.74-.94.31-2.05.03-2.93.71-.09.07-.29.14-.36.09-.61-.45-1.14.07-1.71.12-2.59.21-5.12.68-7.64,1.3-.12.03-.25.1-.37.08-1.66-.26-3.15.64-4.76.7-.41.01-.8.23-1.21.34-.75.19-1.51.36-2.25.57-.12.04-.3.31-.27.37.08.16.27.36.42.36,1.11.01,2.17-.51,3.31-.34,2.31-.74,4.68-1.19,7.1-1.4.79-.07,1.56-.24,2.35-.34.33-.04.75.14.98-.01,1.68-1.11,3.73-.42,5.48-1.16.05-.02.17.05.22.1.35.38.8.13,1.07,0,1.4-.62,2.97-.53,4.38-1.11.13-.05.32.05.49.06.25.02.5.06.74.02,1.46-.23,2.87-.82,4.39-.53.08.02.18,0,.26-.02,1.41-.52,2.96-.43,4.37-.96,1.25.51,2.34-.46,3.61-.36.98.08,2.01-.51,3.08-.23.17.05.39-.15.59-.16.81-.04,1.51-.73,2.35-.44Zm-61.35,20.43c-.02-.06-.03-.12-.05-.18-.27.08-.54.14-.8.23-.24.09-.46.27-.7.31-1.37.2-2.75.36-4.12.56-.42.06-.97.09-1.21.36-.22.24-.16.79-.13,1.2.02.25.77.41,1,.15.33-.38.63-.34,1.03-.22.19.06.42.05.63,0,.58-.12,1.15-.31,1.73-.4,1.21-.2,2.42-.35,3.46-1.09.15-.11.41-.11.61-.11,1.31.03,2.59-.07,3.82-.57.22-.09.59-.17.69-.06.29.3.35.12.56-.07.16-.15.47-.2.72-.19.91.01,1.75-.26,2.62-.46,1.86-.44,3.78-.63,5.62-1.15,1.52-.43,3.1-.48,4.64-.78,1.79-.36,3.57-.75,5.35-1.14.7-.15,1.44-.14,2.1-.53.2-.12.57.01.84.08.37.1.43-.59.88-.31.11.07.39-.05.52-.17.09-.08.11-.3.09-.45,0-.06-.24-.16-.32-.13-.77.34-1.58.29-2.39.33-.91.04-1.82.26-2.72.45-.3.06-.62.45-.86.39-.97-.23-1.8.07-2.69.38-.74.26-1.58.27-2.38.36-1.24.14-2.49.21-3.73.39-.83.12-1.65.35-2.47.53-.83.18-1.67.35-2.5.57-.76.2-1.64-.31-2.31.41-.02.03-.16-.04-.23-.08-.49-.24-.91-.11-1.31.23-.16.13-.43.29-.56.24-.81-.36-1.56.38-2.36.1-.15-.05-.38.14-.58.2-.23.07-.46.14-.69.19-.32.07-.64.12-.96.19-.28.07-.56.15-.85.23Zm7.2,17.37c.4-.32.79-.49.95-.79.4-.74.9-1.05,1.77-1.11,1.17-.08,2.2-.85,3.41-.88.21,0,.41-.12.61-.18.46-.13.85-.42.77-.88-.08-.48-.56-.41-.96-.36-.63.08-1.27.08-1.88.21-.58.13-1.12.44-1.71.07-.04-.02-.14.09-.22.11-.41.12-.81.25-1.23.33-1.04.19-2.09.34-3.13.52-.46.08-.92.23-1.38.31-.92.15-1.86.22-2.76.42-.89.2-1.84.12-2.69.55-.32.17-.68.39-1.04-.03-.06-.07-.39.03-.57.12-.23.11-.45.41-.65.38-1.17-.12-2.21.5-3.37.49-.78,0-1.57.29-2.15.93-.45.49-.43.6.03,1.02.28.26.5.22.8.05.24-.14.57-.32.8-.25.65.2,1.21.32,1.62-.42.06-.11.4-.08.61-.1.51-.07,1.01-.17,1.52-.19,1.05-.04,2.07-.55,3.15-.23.18.05.47-.13.64-.28.31-.28.58-.47,1.03-.3.21.08.49.02.73-.02.77-.15,1.54-.49,2.29-.44.95.06,1.79-.43,2.73-.35.31.03.76-.49.93.09.15.49-.43.38-.7.52-.08.05-.17.18-.17.27,0,.11.11.22.22.42Zm-.76,21.76s-.04-.09-.06-.14c-.25.08-.5.17-.76.25-.65.2-1.29.49-1.95.57-.62.07-.92.11-.79.9.05.3-.18.51.29.4,1.02-.23,2.04-.42,3.08-.53.81-.09,1.63-.11,2.41-.33.96-.27,1.91-.39,2.9-.36.52.02,1.07-.13,1.55-.24.37-.09.74-.25,1.16-.26.38,0,.85-.26,1.12-.11.47.26.88.14,1.23-.02.8-.36,1.79.2,2.49-.54.02-.02.09-.01.11,0,.56.61,1.13.07,1.67,0,.6-.09,1.24-.16,1.74-.58,1.17.22,1.93-.62,2.81-1.13.08-.05.14-.23.11-.32-.03-.1-.17-.19-.28-.23-.11-.04-.27-.05-.38,0-.54.25-1.06.54-1.67.26-.53.63-1.21.1-1.81.24-.22.05-.53.01-.72-.11-.77-.49-1.34.91-2.11.2-.03-.02-.2.05-.21.09-.09.66-.43.33-.79.27-.36-.06-.79.02-1.12.18-.43.21-.83.36-1.34.35-.66-.02-1.38-.05-1.98.18-.46.18-.89.23-1.34.25-.54.02-1.18-.18-1.62.04-.85.43-1.73.45-2.61.56-.38.05-.76.1-1.14.16Zm41.95-40.28c.44,0,.67.07.78-.01.89-.66,1.96-.14,2.94-.51.66-.25,1.51-.01,2.16-.54.06-.04.22.04.34.08,1.06.37,2-.16,2.11-1.21.01-.1-.04-.25-.12-.32-.43-.36-1.15-.36-1.62,0-.31.24-.58.51-1.03.26-.12-.07-.36-.05-.49.02-.77.41-1.64.43-2.47.57-1.6.28-3.2.58-4.8.81-1.33.19-2.67.33-4.02.43-1.43.1-2.77.58-4.16.85-.98.2-2,.24-3.01.25-1.04.01-1.93.9-3.03.47-1.52.26-3.04.51-4.56.79-.17.03-.3.25-.45.39.14.1.28.3.42.3.5-.02,1.1.46,1.5-.24.04-.07.23-.06.35-.08,1.05-.1,2.1-.19,3.16-.29.9-.08,1.8-.08,2.65-.59.38-.23.99-.03,1.49-.08.8-.08,1.59-.2,2.38-.31.16-.02.39-.22.45-.17.96.74,1.96-.63,2.91.08.03.02.18-.05.19-.1.14-.63.6-.29.94-.32.8-.07,1.74.09,2.37-.28.99-.59,1.94-.07,2.61-.28Zm-33.86-10.41c-.5,0-.94.08-1.33-.02-1.02-.25-1.98.1-2.93.26-1.2.21-2.38.56-3.61.61-.55.02-1.15-.03-1.63.18-.69.31-1.39.35-2.1.4-.8.06-1.68-.04-2.38.27-.57.25-1.09.07-1.61.24-.71.23-1.45.48-2.18.48-1.1-.01-2.06.35-3.07.65-.55.16-1.06.58-1.71.38-.32-.1-.45.12-.45.44-.01.61.18.93.78.95.45.02.91-.15,1.36-.25.29-.06.63-.31.84-.22.66.31,1.24.08,1.86-.09.86-.23,1.73-.41,2.61-.57.4-.07.83.05,1.23-.03.83-.17,1.7-.32,2.47-.66,1.62-.71,3.5-.37,5.06-1.27.06-.04.17.01.26,0,1.46-.29,2.92-.59,4.39-.88.75-.15,1.51-.24,2.16-.87Zm35.49,11.02c.19.42.3.67.41.93-.23,0-.47-.01-.7,0-.21.01-.41.05-.62.08-1.38.17-2.75.33-4.1.68-1.4.36-2.86.6-4.29.64-.64.02-1.12.33-1.69.37-.86.06-1.71.11-2.57.11-.36,0-.66-.03-.92.3-.07.1-.45.12-.52.04-.21-.25-.09-.49.22-.58.45-.13.91-.24,1.38-.32.37-.07.39-.31.29-.57-.1-.26-.3-.41-.6-.19-.21.16-.33.49-.74.22-.45-.3-1.3.13-1.17.58.23.83-.23,1.05-.83,1.26-.36.12-.73.23-1.09.37-.09.04-.16.15-.24.22.09.08.18.23.27.23.25.01.51-.01.76-.07.58-.13,1.13-.41,1.75-.17.18.07.47.04.63-.06.57-.39,1.13-.25,1.72-.11.25.06.52.11.76.05.61-.15,1.28-.62,1.79-.48.74.21,1.14-.18,1.67-.39.23-.09.5-.09.75-.08,1.12.05,2.24-.01,3.32-.28.53-.13,1.17.06,1.6-.46.83.36,1.63.05,2.44-.07.84-.12,1.72-.08,2.51-.33.88-.27,1.75-.04,2.62-.24.82-.18,1.06-.19,1.21-.95.06-.28.13-.63-.42-.52-.86.18-1.74.29-2.61.46-.85.17-1.68.4-2.36-.41-.1-.12-.31-.14-.65-.28Zm-38.43,3.34c.02.07.04.13.06.2.42-.08.84-.12,1.25-.24.25-.07.27-.64.08-.62-.55.06-1.05-.55-1.59-.17-.89.62-1.92.33-2.87.41-1.12.1-2.23.66-3.39.26-.03,0-.08.03-.11.05-.84.44-1.71.7-2.67.48-.15-.03-.39-.02-.49.08-.57.55-1.4-.06-1.96.47-1.71-.24-3.3.52-4.96.66-.47.04-.93.17-1.39.26-.63.12-.68.2-.54.88.03.13.06.25.1.38.22.81.23.81,1.02.55.16-.05.33-.14.49-.14,1.6,0,3.05-.89,4.69-.78.43.03.89-.36,1.33-.56.14-.06.33-.21.42-.16,1.07.57,1.96-.26,2.91-.43.9-.16,1.81-.02,2.68-.29.56.45.98,0,1.34-.3.42-.33.71-.66,1.34-.39.29.12.73-.1,1.1-.2.39-.11.77-.25,1.16-.38Zm42.21-29.17c-.8-1.35-.88-1.41-2.06-.95-.62.24-1.21.41-1.87.27-.24-.05-.51,0-.76.05-1.35.27-2.69.62-4.05.81-1.77.24-3.52.51-5.22,1.05-.54.17-1.15-.06-1.57.09-.55.2-1.08.38-1.64.38-1.3,0-2.4.82-3.77.7-.83-.07-1.72.47-2.57.76-.09.03-.14.19-.2.29.1.06.2.18.29.17,1.06-.11,2.19-.06,3.17-.41,1.24-.44,2.54-.15,3.78-.68.97-.41,2.16-.32,3.25-.45.57-.07,1.15-.1,1.72-.18.48-.07,1.03-.1,1.42-.35.54-.34.97-.1,1.46-.03.17.02.37-.18.57-.23.57-.16,1.18-.48,1.7-.37.37.08.6.07.9-.05.23-.1.48-.15.73-.2.83-.16,1.66-.3,2.49-.46.28-.05.56-.18.85-.2.44-.04.88,0,1.4,0Zm3.56,2c-.33-.24-.66-.41-.9-.66-.4-.42-.76-.31-1.12.01-.22.2-.35.5-.59.66-.18.11-.38-.21-.73.05-.34.26-1,.12-1.52.11-.15,0-.31-.12-.46-.18.06.16.17.33.18.49,0,.07-.19.23-.28.22-.41-.04-.84-.24-1.23-.17-.67.12-1.33.22-2.01.3-1.8.2-3.58.57-5.37.86-1.04.17-2.15.14-3.11.5-.89.34-1.76.19-2.62.39-.54.12-1.09.29-1.63.26-.65-.03-1.17.25-1.56.62-.28.26-.4.22-.71.21-.66-.03-1.34.06-2,.19-.18.03-.47.33-.22.61.23.26.42.19.55-.15.03-.07.26-.11.39-.09.2.04.39.23.57.2,1.17-.19,2.34-.41,3.5-.63,1.44-.28,2.87-.61,4.32-.83.99-.15,2.01-.08,3-.23,1.64-.24,3.22-.75,4.88-.9.63-.06,1.25-.16,1.88-.26,1.06-.17,2.11-.4,3.17-.51.75-.08,1.47-.32,2.19-.41.62-.08,1.02-.27,1.44-.66Zm-52.53,49.44c.82.1,1.18-.53,1.68-.91.03-.03-.08-.37-.14-.37-.41-.04-.84,0-1.25-.05-1.19-.18-2.27.73-3.48.32-.89.62-1.98.48-2.97.71-1.1.25-2.23.49-3.41.41-.72-.05-1.47.28-2.2.44-.28.06-.61.25-.84.17-.46-.16-.79-.12-1.18.17-.18.14-.5.18-.74.13-.92-.16-1.63.43-2.43.65-.57.16-.54.52-.07.86.32.23.61.26.96.15.82-.25,1.68-.28,2.51-.56,1.43-.47,2.96-.47,4.44-.76,1.6-.32,3.23-.67,4.9-.49.08,0,.22.01.23-.02.45-1.05,1.25-.5,1.94-.43.11.01.28-.02.34-.1.5-.63,1.12-.51,1.7-.32Zm46.61-40.12c-.57.04-1.1.04-1.62.12-1.08.17-2.22.07-3.2.72-.59.39-1.21.51-1.9.1-.35-.21-.78-.26-1.15.17-.32.38-.78.45-1.28.15-.39-.23-.82-.24-1.16.17-.07.08-.22.12-.34.13-.5.03-.98,0-1.5-.1-.42-.09-.93.38-1.41.41-.53.03-1.03-.03-1.41.42-.71-.44-1.25.02-1.83.33-.09.05-.27.03-.36-.03-.36-.22-.63-.1-.93.13-.15.11-.39.11-.59.14-1.26.23-2.52.34-3.81.27-.43-.02-.93.44-1.3.79-.16.15.6.45,1.31.35.08-.01.17-.01.25-.04.91-.28,1.84-.24,2.78-.17.28.02.58,0,.86-.06,1.29-.25,2.57-.55,3.86-.78.79-.14,1.61-.12,2.39-.31.79-.19,1.7.05,2.37-.66.14-.15.57,0,.86-.02.42-.01.99.12,1.23-.1.59-.56,1.4-.02,1.94-.53,1.73,0,3.4-.46,5.09-.75.6-.1.81-.38.88-.85Zm-20.29,21.19c-.54-.53-.7.07-.96.25-.15.1-.21.31-.32.47.15.07.3.19.45.21.88.09,1.77.15,2.54-.43,1.16.23,2.22-.16,3.28-.54.15-.05.33-.03.49-.03.21,0,.45.08.62,0,1.06-.51,2.23-.71,3.34-.74.95-.02,1.82-.26,2.72-.43.62-.12,1.18-.55,1.84-.14.07.04.25-.03.35-.1.3-.2.68-.12.93-.21.69-.25,1.46.07,2.15-.49.37-.3,1.22.17,1.68-.45.02-.02.17.02.23.07.3.27.6.15.95.08.83-.17,1.68-.23,2.51-.37.23-.04.46-.2.66-.35.07-.05.08-.26.04-.36-.03-.07-.2-.15-.29-.13-.75.15-1.54.57-2.22.44-.96-.19-1.81.06-2.65.25-1.33.31-2.69.3-4.02.57-1.7.35-3.45.48-5.17.71-.66.09-1.45.49-1.95.26-.8-.37-1.21.26-1.81.32-.04,0-.08-.02-.13-.02-.85.01-1.65.23-2.46.48-.93.28-1.9.45-2.82.67Zm-21.94-.22l.05.14c.94-.06,1.87-.16,2.81-.18.6-.01,1.02-.31,1.38-.72.11-.12.12-.34.17-.51-.19-.05-.4-.19-.55-.14-1.01.3-2.02.55-3.1.52-.66-.02-1.44-.01-1.96.31-.63.39-1.3.02-1.9.38-.44.26-.98.33-1.58.31-.83-.03-1.67.3-2.51.47-.33.06-.67.16-.99.14-.99-.05-1.95-.07-2.82.53-.16.11-.39.15-.6.18-1.31.16-2.62.3-3.92.46-.2.03-.45.12-.56.27-.13.18-.2.46-.18.68,0,.09.33.19.52.21,1.25.1,2.38-.62,3.63-.54,1.34-.81,2.91-.39,4.35-.78.6-.16,1.23-.25,1.84-.44.5-.16,1.12-.03,1.56-.26.69-.36,1.55.09,2.13-.57.4.48.74.07,1.1-.06.37-.14.75-.26,1.13-.38Zm-3.5-19.19s.03.1.04.15c.29,0,.65.11.87-.02.59-.36,1.22-.34,1.86-.43.61-.09,1.2-.35,1.78-.58.17-.07.28-.28.41-.43-.17-.08-.33-.22-.49-.21-.25.01-.49.13-.73.21-.63.2-1.26.43-1.94.42-1.18,0-2.32.29-3.47.52-1,.2-2,.4-3.01.56-1.09.17-2.2.25-3.28.45-1.08.2-2.25.04-3.22.74-.11.08-.33-.02-.49-.02-.34.02-.68,0-1,.09-.63.17-1.27.19-1.88-.02-.07-.02-.21-.05-.23-.02-.34.55.04,1.56.65,1.52.6-.04,1.33.5,1.86-.3.1-.16.56-.09.85-.12.67-.08,1.37-.06,2.01-.25,1.46-.45,2.87-1.1,4.46-.94.19.02.39-.14.59-.21.26-.09.53-.18.8-.23.73-.16,1.39-.68,2.21-.4.06.02.15-.08.23-.1.38-.13.77-.26,1.15-.39Zm-9.26,49.68c.51.16.76.09,1.03-.24.22-.27.61-.39.92-.58-.39-.5-.79.07-1.16,0-.27-.05-.68-.4-.73-.35-.47.5-1.07.16-1.59.33-.64.21-1.34.26-2.02.34-.68.09-1.4.32-2.03.17-.69-.17-1.25.62-1.89.09-.05-.04-.18-.03-.25,0-.98.51-2.12.12-3.11.56-.14.06-.36.08-.48.01-.51-.28-.95-.05-1.32.21-.37.26-.66.65-.93,1.02-.19.26.24,1.04.54.99.49-.08,1.04-.13,1.41-.4.33-.24.55-.38.98-.35.53.03,1.08-.1,1.61-.2,1.09-.19,2.19-.58,3.27-.56,1.06.02,1.99-.99,3.09-.33.02,0,.08-.04.11-.07.75-.87,1.88-.01,2.55-.65Zm56.46-16.89c0,.05.02.11.03.16.47-.06.94-.07,1.39-.18.39-.09.83-1.05.57-1.39-.18-.24-.69-.42-.98-.35-1.11.28-2.19.6-3.37.54-.5-.03-.98.31-1.57.26-.64-.06-1.3.27-1.96.29-.61.02-1.15.22-1.73.37-.52.13-1.17.27-1.62.08-.7-.3-1.01.32-1.53.39-.04,0-.08.02-.13.02-.89.06-1.77.1-2.66.17-.19.02-.41.12-.54.25-.13.14-.16.37-.23.56.17-.05.36-.06.49-.15.26-.19.35,0,.52.13.15.12.38.26.54.23.53-.11,1.04-.3,1.56-.45.42-.12.83-.22,1.23.08.34.25.77.36,1.08.07.57-.54,1.15-.46,1.83-.3.37.09.8-.12,1.21-.16.75-.07,1.44-.51,2.26-.22.35.12.98.49,1.22-.31.02-.05.38-.01.58,0,.23.02.47.1.7.08.36-.03.72-.12,1.09-.19Zm-62.33,26.01c.94.11,1.49-.16,1.91-.7.25-.32.02-.86-.37-.86-.46,0-.93.05-1.39.11-.55.07-1.09.18-1.64.27-.59.09-1.19.29-1.75.2-.52-.09-.92.67-1.46.13-.04-.04-.3.11-.45.19-.52.25-.52.25-1.41.15-.2-.02-.44.02-.62.11-.91.44-1.87.45-2.85.44-.71,0-1.36.25-1.81.82-.41.51-.24.84.44.87.52.03,1.09.27,1.52-.3.08-.11.34-.08.52-.13.44-.13.81.4,1.34.04.35-.24.93-.15,1.4-.24.91-.17,1.81-.38,2.71-.55.26-.05.65.07.78-.08.4-.42.69-.67,1.05.01.02.04.25.03.32-.03.6-.49,1.25-.69,1.75-.43Zm3.92-25.48c-1.22-.18-2.92.04-3.8.4-.08.03-.18.14-.19.22-.12.6.04.79.61.71.88-.13,1.75-.27,2.62-.43.71-.13,1.42-.29,2.14-.41,1.21-.21,2.43-.39,3.65-.59.87-.14,1.74-.4,2.61-.37.91.04,1.72-.36,2.62-.31.71.04,1.44-.33,2.15-.3.66.03,1.04-.31,1.49-.63.12-.09.17-.27.25-.41-.17-.09-.36-.28-.52-.26-.84.13-1.67.31-2.5.46-.76.14-1.52.27-2.28.4-.71.12-1.41.23-2.12.31-.75.09-1.52.13-2.27.21-.67.08-1.22.52-1.96.52-.83,0-1.66.29-2.49.45Zm56.57-5.02c.95.02,1.86-.32,2.82-.31.56,0,.86-.43,1.01-.87.14-.4-.28-.43-.57-.51-.07-.02-.13-.09-.17-.16-.36-.54-.4-.56-.69-.08-.4.67-.95.8-1.67.67-.28-.05-.49-.05-.6-.35-.02-.05-.31-.05-.31-.04-.21.97-1.1.71-1.69.83-1.11.23-2.27.22-3.4.39-.75.11-1.46.48-2.21.52-.4.02-.64.17-.89.36-.14.1-.18.34-.26.52.22.07.6.25.65.19.35-.45.84-.34,1.28-.39.21-.02.42.06.63.03,2.02-.26,4.05-.53,6.07-.8Zm-48.87,31.81s-.02-.09-.03-.14c-1.24.27-2.49.52-3.72.81-.11.02-.27.31-.23.36.1.15.34.38.43.34,1.04-.44,2.14-.39,3.23-.42.37-.01.76-.3,1.11-.26,1.26.15,2.44-.1,3.6-.54.11-.04.25,0,.37-.01,1.03-.05,2.08,0,3.05-.47.22-.11.54-.21.74-.13.98.38,1.84-.16,2.74-.31.12-.02.3-.29.28-.42-.02-.13-.24-.31-.39-.33-1.04-.12-2.03.32-3.09.27-.5-.02-1.04.39-1.65.23-.16-.04-.38.15-.57.25-1.22.61-2.55.31-3.83.51-.37-.36-.69-.1-1.05.05-.31.13-.66.15-1,.23Zm-.39-49.42c-.02-.07-.04-.15-.07-.22-.39.11-.77.21-1.16.32-.37.1-.72.27-1.09.3-1.51.11-3,.27-4.44.79-.5.18-1.1.06-1.64.14-.28.04-.58.22-.46.62.1.35.3.5.67.35.81-.31,1.65-.43,2.52-.33.17.02.4.03.5-.06.62-.62,1.46-.59,2.22-.76.76-.16,1.55-.4,2.31-.33,2.1.2,3.85-1.05,5.84-1.25.12-.01.2-.3.3-.46-.15-.03-.32-.13-.45-.09-.77.28-1.55.36-2.37.36-.42,0-.84.13-1.26.22-.48.11-.96.26-1.43.39Zm37.18,19.14c.77-.08,1.4-.16,2.04-.19.44-.02.73-.25.87-.62.09-.23.12-.52-.25-.62-.1-.03-.18-.11-.26-.17-.35.78-1.07.26-1.56.46-1.01.42-2.07.37-3.12.47-1.24.11-2.38.72-3.65.62-.42.48-.97.23-1.47.31-.62.1-1.18.34-1.82,0-.18-.1-.55.13-.82.25-.1.04-.15.19-.22.3-.54-.64-1.09.12-1.65,0-.25-.06-.57.13-.83.27-.08.04-.08.3-.05.45,0,.05.21.12.31.1,1.79-.29,3.52-1.03,5.39-.79.12.02.26-.02.38-.06.92-.39,1.89-.24,2.85-.28.39-.02.82.09,1.15-.05.92-.41,1.84-.64,2.71-.43Zm-23.84,16.07c1.28.47,2.52.21,3.77.04,1.22-.16,2.43-.43,3.65-.44.88,0,1.68-.1,2.43-.56.06-.04.19-.09.2-.08.35.57.72.14,1.11.06.53-.11,1.09-.11,1.63-.18.14-.02.27-.11.41-.17-.1-.17-.21-.49-.3-.49-.45.03-.9.15-1.34.23-.18.03-.46.16-.53.09-.62-.62-1.18-.11-1.75.06-.19.06-.37.2-.56.19-.67-.03-1.35-.17-2.02-.13-.33.02-.92-.2-.99.49,0,.05-.21.14-.23.12-.31-.35-.55-.24-.98-.08-.68.26-1.49.37-2.22.29-.86-.09-1.53.31-2.28.52Zm-5.88,9.86c.63.22,1.04,0,1.41-.31.09-.07.16-.23.15-.33-.01-.09-.16-.23-.25-.23-.83.02-1.68-.01-2.5.13-.49.09-.97.16-1.47.22-1.96.22-3.99.14-5.73,1.29-.15.1-.25.29-.37.44.19.06.39.2.56.18.36-.04.74-.3,1.07-.23.47.1.74.07,1.12-.28.21-.19.8.07,1.22.09.1,0,.25-.09.32-.18.22-.31.48-.25.8-.18.23.05.49-.03.73-.07.33-.06.64-.17.97-.22.41-.06.83-.06,1.24-.12.28-.04.55-.15.73-.2Zm27.93-51.27s0,.05,0,.08c.21.02.44.11.62.05,1.31-.45,2.7-.41,4.03-.68.29-.06.55-.31.82-.47-.28-.17-.54-.35-.83-.5-.1-.05-.3-.06-.37,0-.51.52-1.09.62-1.82.58-.66-.04-2,.33-2.4.13-.44-.23-.75-.01-1.1.08-.84.23-1.66.51-2.5.73-.24.06-.56.11-.75,0-.65-.37-1.25-.02-1.85.08-.13.02-.35.31-.32.41.05.16.28.4.42.39.85-.07,1.69-.18,2.53-.31,1.17-.18,2.34-.39,3.51-.58Zm-33.99,59.18c-.03-.08-.05-.16-.08-.23-.25.1-.5.2-.74.29.2.2.37.46.6.6.19.11.48.11.71.07.46-.06.93-.14,1.36-.29.64-.21,1.29.04,1.88-.05,1.04-.17,2.03-.57,3.04-.9.31-.1.36-.31.16-.6-.19-.27-.36-.49-.72-.29-.79.44-1.8-.14-2.54.54-.96-.48-1.68.26-2.51.48-.39.1-.77.25-1.16.38Zm16.75-26.99s0-.06,0-.1c-.15,0-.37-.06-.44.01-.14.14-.19.36-.27.55.14,0,.28,0,.42,0,.94-.04,1.88-.09,2.82-.14.2-.01.4-.06.59-.12,1.16-.34,2.33-.47,3.55-.33.27.03.61-.25.84-.47.12-.12-.49-.39-.94-.35-.58.05-1.17.08-1.75.12-.25.02-.55-.03-.75.08-.68.38-1.41.21-2.12.28-.51.05-1.16-.51-1.46.39-.02.07-.31.05-.48.07Zm-31.74,18.31c-.72-.65-1.19-.81-1.9-.54-.94.35-1.99.62-2.98.58-.68-.03-1.24.14-1.82.35-.19.07-.3.33-.45.5.2.13.38.34.59.38.34.06.68.01.88-.36.04-.08.27-.17.29-.15.57.7,1.12.13,1.61-.08.63-.27,1.23-.49,1.94-.47.53.01,1.06-.11,1.84-.2Zm26.29-9.02l-.1-.29c-.79-.04-1.53.52-2.35.21-.72.64-1.59.07-2.39.32-.56.17-1.24.02-1.81.32-.13.07-.21.22-.31.33.14.08.29.23.42.22,1.6-.12,3.21-.22,4.8-.43.6-.08,1.16-.45,1.73-.68Zm-14.73,26.59c-.31.14-.74.37-1.19.53-.48.17-.98.27-1.47.4-.04.01-.08.04-.1.08-.08.14-.24.35-.19.41.11.15.32.33.47.31.67-.08,1.34-.16,1.99-.35.77-.22,1.52-.52,2.27-.82.1-.04.13-.27.16-.42,0-.02-.16-.13-.19-.11-.53.34-1.05.1-1.75-.02Zm6.31-95.3l.04.12c1.17-.38,2.33-.75,3.49-1.16.12-.04.23-.35.2-.5-.05-.23-.18-.49-.54-.39-.36.1-.73.21-1.11.25-.86.1-1.53.9-2.49.71-.09-.02-.31.34-.36.55-.02.09.23.27.39.36.1.06.25.03.38.05Zm24.5-4.2c-1.25,0-1.87.12-2.72.54-.17.08-.27.3-.41.45.19.12.37.32.57.34.72.06,1.42.08,2.14-.2.33-.13.7-.44,1.2-.22.35.15.6-.32.65-.59.08-.36-.31-.3-.55-.31-.3-.01-.6,0-.9,0Zm-45.62,92.77c-.53.1-1.22-.42-1.6.33-.08.17-.52.15-.28.52.16.25.36.39.63.19.35-.25.67-.33,1.04-.02.09.08.36.07.45,0,.37-.33.79-.43,1.28-.49.29-.03.56-.34.81-.55.08-.07.13-.31.11-.32-.14-.08-.31-.19-.45-.16-.67.15-1.34.33-2.01.51Zm1.72-9.3c.18.07.23.1.26.09.18-.08.37-.14.51-.26.06-.05.05-.31,0-.35-.15-.1-.37-.2-.52-.17-1.48.34-2.95.7-4.43,1.06-.2.05-.38.18-.55.29-.05.03-.06.17-.04.23.02.06.13.14.19.13.88-.14,1.76-.25,2.62-.45.71-.16,1.39-.41,1.97-.58Zm2.69-18.25s0,.06,0,.08c.46-.08.94-.11,1.38-.26.48-.16.91-.32,1.46-.32.47,0,.92-.52,1.51-.45.06,0,.22-.17.2-.23-.03-.11-.15-.27-.24-.27-.29,0-.59.07-.88.1-1.15.12-2.33.08-3.42.54-.31.13-.59.33-.87.52-.02.01.05.26.1.27.25.03.5.01.75.01Zm21.76,4.97c-.33-.04-.53-.12-.66-.06-.17.09-.36.29-.38.45-.03.33.22.18.42.21.68.1,1.31-.05,1.82-.41.47-.32,1.06-.38,1.42-.28,1.13.33,2-.16,2.91-.6.08-.04.13-.16.19-.24-.12-.04-.26-.15-.35-.11-.59.24-1.17.34-1.82.37-1.03.05-2.05.37-3.08.58-.21.04-.42.07-.47.08Zm-3.1,14.84c.02-.1.04-.2.05-.3-.4-.08-.8-.27-1.19-.23-1.27.14-2.53.35-3.8.56-.12.02-.2.22-.3.33.13.08.27.22.39.22.47-.02,1.07.06,1.37-.19.51-.43.79.09,1.14.06.79-.07,1.56-.3,2.34-.46Zm-14.67,12.36c-.49.08-.99.17-1.49.24-.36.05-.65.32-.54.57.12.27.52.38.89.18.3-.16.63-.26.96-.35.29-.08.63-.2.88-.11.99.37,1.65-.44,2.48-.63.06-.01.14-.25.11-.29-.07-.08-.25-.18-.32-.14-.56.31-1.12.47-1.75.24-.03-.01-.1.02-.11.05-.24.6-.73.18-1.1.24Zm1.41-103.74c-.25-.11-.54-.34-.64-.27-.64.41-1.57-.04-2.09.71-.05.07-.24.05-.36.08-.47.12-.95.23-1.42.37-.06.02-.13.28-.12.28.33.16.72.5.99.42,1.13-.34,2.22-.8,3.33-1.22.1-.04.16-.18.31-.37Zm60.02,33.27c-.58-.04-.89-.14-1.16-.07-.19.05-.32.33-.47.51.13.07.25.15.38.21,1.31.58,2.45-.38,3.69-.4.05,0,.15-.13.14-.19-.01-.11-.06-.27-.14-.3-.19-.06-.41-.04-.61-.09-.74-.17-1.37.57-1.84.32ZM22.27,75.42c-.25-.1-.4-.22-.52-.19-1.2.28-2.19,1.02-3.3,1.53-.34.16-.63.41-.93.64-.08.06-.07.23-.11.35.11.02.24.1.33.07,1.03-.36,1.89-1.09,3-1.3.34-.07.65-.36.96-.57.16-.11.29-.27.56-.53Zm-13.99,29.48c-.68.42-1.32.81-1.94,1.21-.56.37-1.12.75-1.67,1.14-.19.14-.32.34-.48.52.23.02.51.14.67.05.67-.35,1.31-.77,1.95-1.17.21-.13.37-.41.58-.44.84-.12.79-.73.87-1.31Zm.59,22.72c.02-.53-.34-.8-.68-.55-.68.48-1.29,1.05-1.9,1.63-.09.08-.03.4.05.56.04.07.33.08.46.02.41-.18.79-.44,1.2-.62.51-.23.73-.67.87-1.04Zm111.6,25.76c1.38.53,2.5-.17,3.67-.25.46-.03.91-.21,1.35-.34.06-.02.13-.22.1-.3-.03-.08-.22-.19-.28-.16-.83.39-1.7.24-2.57.27-.72.03-1.51.14-2.26.78Zm20.7-49.57c-.54.1-.96.17-1.36.28-.08.02-.2.21-.17.27.03.09.25.21.27.19.54-.43,1.14-.11,1.69-.11.65,0,1.25.11,1.79-.41.12-.12.51-.11.67,0,.57.4.56-.24.65-.41.16-.33-.18-.24-.36-.26-.29-.03-.65-.2-.84-.08-.76.49-1.51.89-2.32.53Zm19.86,10.56c.78.02,1.36-.76,2.12-.24.07.05.24-.05.35-.09.39-.13.79-.26,1.17-.41.1-.04.25-.18.24-.21-.07-.14-.18-.36-.28-.36-.33-.01-.67.05-1,.1-.46.07-.93.28-1.37.21-.78-.11-1.07.27-1.23.98Zm4.54-10.13c-.1-.19-.17-.39-.22-.39-.6.04-1.24-.03-1.79.06-.43.07-.84.4-1.39.34-.37-.04-.44.37-.38.66.02.09.33.2.48.18.95-.15,1.9-.33,2.84-.53.16-.03.3-.21.46-.32Zm-65.65-8.16c.75-.25,1.58-.51,2.41-.79.06-.02.15-.14.13-.18-.05-.11-.12-.23-.22-.29-.1-.06-.26-.1-.36-.06-.79.33-1.6.43-2.46.31-.19-.03-.42.18-.63.28.17.22.32.46.53.64.11.09.32.06.59.1Zm31.16-9.36c.31-.11,1.12.53,1.19-.57,0-.03.24-.02.35-.07.1-.05.18-.15.26-.23-.09-.07-.17-.21-.26-.21-.31,0-.62-.18-.9.24-.22.32-.32.21-1.25.27-.49.03-.98.23-1.45.41-.09.04-.15.42-.07.53.09.13.35.14.54.2.17-.93.88-.52,1.58-.58Zm6.28,20.38c-.62-.19-1.23-.58-1.8-.02-.54.53-1.13,1.01-1.66,1.56-.1.11-.08.4-.02.57.03.08.31.13.45.1.25-.05.48-.17.71-.27.24-.11.29-.26.1-.49-.37-.44-.08-.71.31-.86.62-.22,1.26-.39,1.89-.58Zm-16.23-11.59c-.12.03-.34.03-.5.13-.1.06-.15.4-.13.4.49.21.99.56,1.47.54.56-.03,1.1-.39,1.64-.62.08-.04.16-.23.13-.3-.03-.08-.22-.19-.29-.17-.74.25-1.49.15-2.32.03Zm8.63,4.43c-.31,0-.74-.02-1.17.01-.14.01-.27.15-.41.23.1.12.18.28.31.34,1.15.54,2.2-.07,3.28-.31.12-.02.19-.24.28-.37-.18-.06-.49-.22-.53-.17-.48.59-1.08.34-1.77.27Zm-105.73,54.88c-.21-.1-.45-.33-.61-.28-.94.26-1.64.94-2.44,1.46-.1.06-.08.3-.12.46.19.01.42.1.56.03.82-.44,1.62-.92,2.43-1.39.06-.03.08-.12.18-.28Zm135.16-50.09c-.47.11-1.06.2-1.62.4-.16.05-.21.4-.32.61.19.06.39.19.56.15.57-.11,1.14-.26,1.69-.42.28-.08.79.2.79-.33,0-.13-.56-.26-.86-.38-.04-.02-.08,0-.24-.02Zm-21.19,35.87c.13.08.24.2.34.19.79-.11,1.55-.5,2.39-.33.01,0,.1-.37.15-.57-.12-.02-.24-.04-.35-.05-.2,0-.45.07-.61-.01-.72-.39-1.21.03-1.69.45-.08.07-.13.19-.22.32Zm9.76-1.83c-.1-.04-.22-.13-.3-.1-.28.08-.53.22-.81.3-.64.18-1.3.33-1.94.52-.15.05-.25.23-.38.35.17.07.37.23.52.2.69-.16,1.38-.36,2.06-.59.27-.09.52-.26.76-.41.05-.03.05-.15.09-.28Zm-4.82-60.86c-.17-.24-.26-.43-.41-.56-.12-.1-.32-.17-.46-.15-.71.11-1.42.25-2.13.39-.1.02-.25.14-.26.22-.01.09.11.29.18.3.71.05,1.51.22,2.08-.27.41-.35.42-.15.57.13.02.03.21-.02.43-.06Zm-15.04,1.52c.75-.5,1.35-.65,2.02-.53.24.04.54-.2.79-.35.08-.05.14-.24.11-.33-.03-.09-.19-.18-.29-.18-1-.01-1.93.16-2.63,1.38ZM16.84,145.98c-.06-.12-.1-.27-.19-.32-.09-.05-.26-.02-.34.04-.69.48-1.36.98-2.04,1.48-.06.04-.1.2-.09.21.09.06.23.17.3.14.71-.3,1.42-.61,2.1-.97.14-.08.17-.37.25-.58Zm143.61-31.68c-.03-.3-.7-.73-.96-.6-.56.28-1.07.73-1.77.41-.04-.02-.2.16-.25.27-.02.05.09.22.17.24.29.06.59.06.88.12.59.12,1.09-.63,1.71-.18,0,0,.15-.18.22-.26Zm-41.18-18.11c-.07-.04-.18-.12-.19-.11-.74.64-1.79.11-2.57.68-.13.1-.55-.15-.48.27.02.11.41.25.61.23.53-.06,1.07-.16,1.58-.31.35-.11.67-.34.99-.53.05-.03.04-.15.06-.23ZM14.49,141.34c-.28-.11-.5-.27-.59-.22-.73.44-1.44.92-2.13,1.42-.11.08-.06.37-.08.56.19-.01.49.05.55-.04.43-.66,1.05-.96,1.77-1.17.16-.05.26-.29.48-.55Zm-4.02-9.02c-.12-.27-.13-.37-.19-.41-.06-.04-.17-.05-.23-.02-.68.41-1.37.82-2.03,1.27-.14.1-.28.47-.21.55.25.31.39-.02.59-.16.51-.35,1.05-.64,1.59-.96.18-.11.37-.21.49-.28Zm115.32,1.33c.36.03.65.14.77.04.2-.17.46-.52.4-.7-.13-.38-.36,0-.55.03-.64.07-1.2.56-1.88.34-.1-.03-.22,0-.33.01.01.11-.02.29.04.33.34.25.69,1.15,1.09.02.03-.09.39-.07.45-.08Zm5.8-52.01c-.02-.06-.04-.13-.06-.19-.16,0-.34-.05-.47.01-.19.1-.33.29-.5.44.17.12.32.3.5.34.19.04.42-.03.62-.08.4-.1.8-.24,1.21-.33.27-.06.53-.12.4-.47-.1-.28-.32-.36-.61-.22-.36.18-.73.34-1.1.5Zm27.24,44.2c-.46.05-1.18.13-1.89.24-.11.02-.19.19-.28.3.12.11.23.25.37.32.1.04.27,0,.37-.06.63-.39,1.4-.15,2.05-.45.23-.11.56.41.73-.11-.27-.07-.55-.15-.82-.22-.08-.02-.17,0-.52,0Zm11.25-34.99c-.34.04-.64,0-.83.13-.21.14-.32.44-.48.67.22.05.44.15.66.14.34-.01.67-.08,1-.16.13-.03.25-.13.37-.2-.1-.16-.18-.36-.32-.48-.12-.1-.32-.09-.4-.11Zm-76.32,70.31c-.16-.2-.22-.33-.32-.38-.88-.37-1.68.26-2.54.24-.03,0-.11.23-.09.34.02.08.18.18.27.17.49-.08,1-.14,1.46-.33.31-.12.52-.23.78.05.04.05.24-.05.45-.1Zm19.59-29.47c.96-.47,1.73-.59,2.52-.33.08.02.19.04.24,0,.09-.07.2-.18.21-.27,0-.08-.13-.22-.22-.23-.4-.06-.81-.1-1.22-.13-.6-.04-1.17.02-1.53.97Zm-94.54,21.99c.13-.02.22-.02.3-.05.86-.31,1.34-1.22,2.27-1.44.01,0-.01-.32-.04-.32-.27-.04-.62-.16-.8-.04-.59.39-1.11.88-1.66,1.33-.06.05-.13.13-.14.21,0,.1.05.2.08.3Zm-7.61-62.08c-.07-.04-.16-.14-.2-.12-.83.37-1.72.64-2.38,1.3-.07.07-.06.21-.09.32.12.02.32.09.35.05.33-.45.85-.48,1.31-.67.34-.14.61-.43.91-.66.06-.04.07-.14.1-.22Zm151.58,23.49c-.32-.14-.5-.29-.65-.26-.95.15-1.84.78-2.87.39-.04-.01-.18.13-.17.15.04.1.12.26.19.26.55,0,1.13.11,1.63-.06.46-.15.83-.38,1.3-.08.06.04.28-.19.57-.4Zm-60.69,35.28c-.54-.9-1.37-.09-1.96-.41-.13-.07-.47.24-.71.38-.03.02-.07.09-.06.1.05.09.12.24.17.24.83-.09,1.65-.2,2.56-.31Zm22.11-66.59c-.91-.3-1.68-.19-2.42.15-.11.05-.16.25-.24.38.13.08.37.24.39.21.5-.58,1.22-.19,1.79-.42.14-.06.26-.18.48-.33Zm-17.89,77.55c.4.05.7.1.99.1.07,0,.18-.18.21-.29.02-.09-.09-.29-.1-.29-.5.14-.92-.46-1.45-.15-.23.14-.75.21-.74.26.06.5.53.24.81.35.11.04.25,0,.27,0Zm38.32-83.02c.47.35.85.71.02,1.06-.01,0,.02.25.07.27.34.1.67.15.82-.3.09-.28.2-.55.27-.83.05-.21.06-.43-.29-.34-.28.07-.57.1-.89.15ZM5.99,109.86c.63-.02,1.63-.75,1.76-1.2.02-.07,0-.16-.01-.24-.5.2-.99.39-1.48.6-.15.07-.29.19-.41.31-.08.08-.17.26-.13.32.07.12.23.18.27.21Zm115.14-36.31c-.71.22-1.36.41-2,.63-.06.02-.11.25-.07.33.05.08.22.15.32.13.59-.11,1.17-.23,1.75-.4.17-.05.29-.25.44-.39-.15-.1-.31-.21-.44-.3Zm17.25,47.94c.03.05.05.1.08.15.15-.05.32-.07.46-.15.48-.28.95-.62,1.48-.08.03.03.38-.13.38-.2,0-.18-.07-.46-.19-.51-.38-.16-.82-.36-1.18-.28-.3.07-.52.51-.77.79-.08.09-.17.19-.25.28Zm-27.96,38.44s0-.03,0-.04c-.17-.01-.34-.05-.51-.03-.18.02-.49.09-.49.16-.03.3.05.64.43.66.4.02.81-.01,1.21-.08.11-.02.27-.23.27-.35,0-.12-.16-.31-.28-.34-.19-.05-.41,0-.62.02Zm-2.75-54.53c-.93.21-1.61.36-2.29.53-.08.02-.19.2-.18.28.02.09.18.22.26.21.72-.05,1.5.03,2.2-1.02Zm11.04,48.58c.56-.07,1.08-.12,1.28-.71.03-.1,0-.26-.06-.33-.06-.06-.26-.06-.32-.01-.36.35-.78.47-1.28.43-.13-.01-.27.1-.4.16.11.11.2.26.33.33.14.08.32.1.44.13Zm21.62-22.59s0,.02,0,.02c-.25-.02-.52-.09-.75-.03-.17.04-.37.23-.43.39-.11.33.22.32.38.3.49-.05.98-.14,1.46-.24.07-.02.13-.19.15-.3,0-.03-.11-.13-.18-.14-.21-.02-.42,0-.63,0Zm-36.12,33.72c.39-.22.75-.41,1.09-.62.04-.03-.02-.3-.04-.3-.36,0-.72,0-1.08.02-.04,0-.1,0-.12.02-.12.15-.33.31-.31.45.02.14.25.26.46.44Zm14.58-37.07c.33-.21.67-.38.95-.61.13-.11.18-.32.26-.49-.19-.06-.39-.2-.57-.17-.27.05-.57.17-.78.35-.13.11-.14.39-.15.6,0,.08.14.17.27.32Zm9.11,15.65c-.77.04-1.37.05-1.97.12-.13.01-.24.2-.36.31.15.11.31.32.45.31.67-.07,1.34-.2,2.01-.32.06-.01.15-.1.16-.17,0-.06-.05-.17-.1-.2-.11-.05-.24-.06-.19-.05Zm14.81-33.14c-.31.19-.63.37-.92.59-.14.1-.22.27-.32.41.21.11.48.36.63.3.34-.12.65-.38.93-.62.09-.08.08-.31.04-.45-.02-.09-.2-.13-.36-.23Zm3.92-8.28c-.4.36-.77.67-1.1,1.02-.09.09-.12.41-.08.44.25.13.53.21.8.27.07.01.23-.14.24-.24.06-.46.09-.93.13-1.48Zm11.65,15.27c-.5.38-.91.7-1.33,1.01.12.14.23.39.35.4.38.03,1.11-.58,1.19-.96.02-.11-.11-.25-.21-.46ZM51.89,54.68c.77.25,1.19.05,1.6-.29.24-.19.56-.28.84-.42-.4-.37-.78-.06-1.14.08-.39.14-.75.35-1.31.62Zm82.41,27.19c.43-.12.88-.19,1.27-.38.16-.08.17-.44.25-.68-.19-.04-.38-.14-.56-.12-.66.06-.71.68-.95,1.18Zm.75,17.02c.13-.03.5-.12.86-.23.14-.04.27-.11.41-.17-.15-.13-.33-.4-.45-.38-.58.09-1.14.26-1.71.41-.04.01-.06.13-.07.19,0,.03.05.09.08.09.21.03.42.04.88.08Zm3.36-20.34c.07,0,.2.02.32,0,.34-.06.52-.24.4-.62-.11-.33-.29-.35-.57-.21-.18.09-.41.07-.59.15-.17.07-.31.22-.46.33.16.1.3.22.47.29.11.05.25.04.42.06Zm25.52,19.13c-.82.14-1.54.26-2.56.43.52.19.88.45,1.07.36.5-.24,1.34.14,1.49-.79Zm-45.08-13.27c-.35.01-1.13.54-1.16.8,0,.04.03.12.04.11.35-.06.71-.12,1.06-.21.16-.04.32-.12.46-.22.09-.06.12-.2.18-.3-.11-.06-.21-.13-.32-.17-.08-.03-.17-.02-.25-.02Zm31.67,32.41c-.03-.07-.06-.14-.09-.21-.14.04-.28.08-.42.12.14.1.3.31.42.29.53-.08,1.06-.19,1.58-.35.12-.04.16-.3.24-.46-.15-.01-.33-.08-.45-.03-.44.19-.86.42-1.29.63Zm-54.14,24.13c-.33.04-.59,0-.75.1-.22.15-.55.48-.5.61.18.47.42.11.67-.02.12-.06.34.1.48.06.18-.05.34-.2.5-.31-.15-.16-.3-.32-.41-.43Zm-57.29,27.37c.04.07.08.15.11.22.45-.16.9-.3,1.34-.47.12-.05.22-.17.32-.26-.16-.11-.38-.34-.47-.3-.46.23-.88.53-1.31.81Zm106.67-38.61c-.01.06-.02.12-.03.17.33.14.64.32.98.4.15.04.38-.09.51-.21.09-.09.07-.3.1-.45-.15-.02-.31-.07-.46-.06-.37.03-.73.1-1.1.15Zm-110.21,34.66c-.22-.03-.39-.12-.5-.06-.38.19-.74.42-1.08.66-.11.08-.15.25-.22.38.16.02.35.11.46.05.37-.18.72-.41,1.07-.64.09-.06.14-.19.27-.39Zm93.9-20.91l-.03.24c.45.09.9.2,1.36.25.3.03.67-.51.51-.72-.08-.1-.36-.11-.53-.08-.44.08-.87.2-1.31.3Zm-2.83,1.93c0-.08-.02-.15-.03-.23-.51,0-1.02-.02-1.53.01-.16,0-.32.14-.48.21.18.14.38.42.54.4.51-.07,1.01-.25,1.51-.39Zm-34.89,14.05c-.01.07-.02.14-.03.21.38.12.75.31,1.14.34.14.01.31-.33.46-.52-.16-.07-.32-.19-.48-.19-.36.02-.72.1-1.08.15Zm5.84-97.83c-.06-.06-.12-.12-.17-.19-.28.08-.56.17-.84.23-.43.09-.96,0-1.15.57.41-.01.84.05,1.22-.06.34-.09.63-.37.94-.56Zm26.81,89.05c-.2-.09-.39-.24-.53-.21-.31.07-.61.23-.91.36-.16.06-.32.12-.48.18.17.11.35.31.51.3.41-.02.81-.12,1.21-.22.07-.02.1-.2.2-.4Zm44.04-64.12s.17-.09.37-.19c-.17-.09-.34-.17-.51-.26-.11-.06-.23-.11-.34-.16-.27-.11-.62-.31-.72.11-.03.14.35.4.57.56.07.05.24-.02.63-.07ZM7.36,121.56c-.08.05-.18.09-.26.15-.36.27-.73.53-1.08.81-.1.08-.13.25-.19.38.11.03.26.11.33.07.49-.26.97-.55,1.44-.85.08-.05.14-.24.1-.33-.04-.09-.2-.14-.34-.23Zm146.6-2.55c.03.08.04.15.06.15.35.07.74.24,1.05.15.25-.07.4-.47.6-.72-.06-.03-.13-.07-.19-.1-.28.58-.83.18-1.23.34-.1.04-.19.12-.28.17Zm-10.3-44.16c-.36-.22-.58-.46-.75-.43-.23.04-.54.25-.6.45-.09.28.2.45.48.39.25-.06.47-.22.86-.42Zm-2.67,37.62c-.55.12-.95.19-1.33.31-.15.05-.29.21-.35.36-.02.06.17.28.29.31.74.21,1.05-.29,1.39-.97Zm-.12,16.21c.19-.02.28-.02.36-.04.3-.1.88-.25.87-.29-.11-.57-.53-.02-.79-.18-.1-.06-.26-.15-.35-.11-.17.06-.3.2-.45.31.14.12.28.25.37.32Zm-16.52-17.46c-.05-.06-.1-.17-.14-.17-.37.03-.73.07-1.09.13-.05,0-.14.11-.13.15.03.16.05.37.16.46.32.28,1.15-.14,1.2-.57Zm12.93-24.77c-.12,0-.21.02-.29,0-.34-.11-.75,0-.73.29.04.55.43.12.67.11.13,0,.26-.03.38,0,.34.08.79.24.76-.29-.03-.49-.45-.18-.71-.13-.04,0-.08.02-.09.02Zm-3.42-7.61c-.22-.56-.34-.91-.5-1.25-.04-.09-.26-.19-.29-.17-.25.22-.48.46-.7.71,0,0,.15.16.23.24.54-.58.77.04,1.27.47Zm-22.75,75.98c-.05-.06-.1-.16-.13-.16-.56.09-1.12.19-1.68.32-.06.01-.15.21-.12.28.03.1.19.24.26.22.52-.13,1.03-.29,1.53-.46.06-.02.09-.13.14-.2Zm29.49-78.26c-.42-.23-.68-.38-.94-.51-.27-.13-.4.02-.42.28-.03.42.18.6.59.5.2-.05.4-.13.78-.26Zm7.56,26.65c-.12-.19-.24-.39-.25-.38-.32.15-.63.32-.94.5-.01,0,0,.11.02.12.19.06.4.18.58.14.21-.05.39-.24.6-.37Zm8.64,2.44c-.43-.2-.68-.42-.92-.4-.22.02-.43.29-.64.44.23.16.45.44.68.45.23,0,.48-.25.89-.49Zm-37.87.49c.26-.14.72-.29.7-.39-.06-.57-.41-.08-.63-.11-.28-.04-.55-.13-.82-.18-.07-.01-.16.05-.24.07.05.1.07.24.14.28.26.13.53.22.84.33Zm3.2-11.31c.56.05.87-.14.99-.57.02-.06-.2-.26-.32-.27-.43-.04-.75.19-.88.59-.02.07.18.21.21.25Zm-13.38,65.53c-.21.01-.35,0-.47.04-.1.04-.25.18-.23.23.05.14.16.36.27.37.33.04.66,0,1-.01-.02-.12,0-.29-.08-.35-.16-.13-.36-.21-.49-.27Zm-1.39,12.52c.09-.07.24-.18.38-.29-.15-.03-.3-.06-.44-.1-.16-.05-.31-.15-.46-.16-.21,0-.43.06-.64.09.18.14.35.31.56.41.14.07.33.03.6.05Zm14.1-26.83c-.12-.15-.2-.31-.26-.3-.28.04-.55.12-.82.2-.03.01-.05.16-.03.23.13.36.44.37.73.27.15-.05.25-.25.39-.41Zm11.88-58.67c.07.06.15.2.24.21.25.02.5,0,.75-.04.09-.02.23-.19.21-.24-.06-.14-.18-.35-.28-.35-.29,0-.57.1-.85.17-.04,0-.04.13-.07.24Zm15.8,14.52c.59.25.95-.12,1.36-.23.05-.01.1-.15.08-.21-.02-.06-.12-.13-.19-.13-.46.03-.84.22-1.26.57Zm-54.22,59.18c.27-.11.76-.25.75-.33-.05-.45-.42-.22-.68-.22-.12,0-.24-.08-.36-.09-.1,0-.21.04-.31.06.05.11.07.24.15.31.12.11.27.17.45.27Zm28.61-66.39c.35-.06.64-.07.91-.16.11-.04.23-.27.2-.37-.04-.13-.22-.29-.35-.3-.49-.03-.62.33-.76.84Zm30.76,6.59c.01.08.02.16.03.23.39-.09.79-.15,1.16-.28.1-.04.14-.27.21-.41-.14-.02-.3-.1-.41-.06-.34.15-.66.34-.99.51Zm10.52-6.96c.1-.06.32-.19.53-.31-.22-.07-.43-.16-.65-.21-.12-.03-.26-.03-.38,0-.1.03-.19.12-.28.18.07.09.13.22.22.27.1.05.25.04.55.07Zm-16.85,16.36c-.2-.22-.35-.49-.47-.48-.23.02-.44.21-.66.32.23.15.46.33.71.44.07.03.23-.15.41-.28Zm-5.91-30.48c.66,0,1.12.02,1.57-.01.12,0,.23-.19.34-.29-.13-.05-.28-.16-.4-.13-.44.1-.87.24-1.51.43Zm2.7,48.75c-.02-.07-.04-.13-.05-.2-.43.09-.86.17-1.29.29-.08.02-.13.18-.19.28.11.05.24.17.32.14.41-.15.8-.33,1.2-.5Z"/>
      <path class="cls-1" d="m223.36,50.09c-.03.79-.06,1.39-.09,1.99-.05,1.15-.13,2.29-.16,3.44-.01.46-.22.65-.65.81-.71.26-1.41.26-2.13.19-.7-.07-.98.28-.92.97.19,2.21.41,4.43.3,6.66-.02.42.11.86.07,1.28-.07.88.2,1.75-.07,2.65-.13.42.12.97.21,1.45.13.72.19,1.4.04,2.16-.15.77-.01,1.61.04,2.42.05.68.32,1.38.22,2.03-.21,1.34.13,2.66,0,3.96-.22,2.42.19,4.82.13,7.24-.03,1.29.03,2.57.03,3.86,0,.53.47.79.75.82.95.09.69.84.86,1.34.17.5-.09.79-.51,1.04-.3.18-.52.63-.82.67-.57.09-1.17,0-1.76-.05-.12-.01-.25-.2-.34-.33-.12-.17-.16-.39-.3-.54-.48-.53-.57-.85-.31-1.38.06-.12.11-.24.18-.34.42-.56,1.24-.86,1.27-1.66.03-.71-.14-1.42-.15-2.13,0-.5.16-1,.14-1.5-.05-1.23-.18-2.45-.25-3.68-.07-1.23-.21-2.46-.15-3.68.06-1.14-.02-2.28,0-3.41.02-.88-.01-1.77-.03-2.65,0-.15-.1-.33-.05-.45.4-.97-.08-1.92-.03-2.88.03-.67-.23-1.38-.09-2.01.15-.68-.15-1.29-.07-1.96.11-.92-.02-1.87-.06-2.8,0-.1-.11-.21-.2-.28-.03-.03-.2.03-.21.08-.13.34-.44.5-.54.93-.37,1.61-.61,3.27-1.43,4.76-.46.83-.86,1.78-.96,2.71-.07.61-.51.74-.71,1.13-.76,1.43-1.47,2.89-2.34,4.28-1.1,1.75-2.38,3.31-3.67,4.89-.43.53-.97.97-1.46,1.45-.12.12-.31.2-.38.35-.67,1.36-1.89,2.21-2.97,3.15-2.22,1.92-4.46,3.83-6.95,5.42-.85.54-1.84.84-2.57,1.61-.23.24-.71.22-1.05.38-1.19.56-2.38,1.14-3.56,1.7-.15.07-.3.16-.46.18-.89.16-1.69.56-2.52.89-1.38.56-2.85.95-4.32,1.18-.71.11-1.35.44-2.05.49-.71.06-1.36.14-2.05.45-.74.32-1.64.29-2.48.36-1.49.11-2.98.18-4.47.27-.4.02-.58-.16-.49-.54.32-1.37.55-2.78,1.27-4.01.15-.26.51-.48.81-.54.79-.14,1.59-.19,2.39-.27,2.02-.21,4.04-.33,6-1,1.11-.38,2.32-.45,3.47-.74.47-.12.86-.57,1.33-.66,1.7-.34,3.14-1.25,4.64-2.01,1.51-.77,3.06-1.49,4.43-2.52.53-.4,1.21-.56,1.76-.99,1.24-.95,2.24-2.2,3.61-3.01.44-.26.69-.83,1.09-1.2,1.5-1.43,2.77-3.07,4.07-4.67,1.48-1.82,2.78-3.78,3.84-5.87.35-.69.95-1.27,1.01-2.18.04-.62.57-1.21.91-1.8.54-.96.82-2.01,1.16-3.05.43-1.34.9-2.66,1.15-4.06.23-1.28.58-2.54.86-3.81.09-.38-.07-.58-.48-.52-.3.04-.59.11-.89.15-.51.06-.9-.28-.9-.8.01-.98,0-1.96.1-2.93.09-1.01-.22-2-.06-3.03.14-.94-.1-1.94-.14-2.92-.05-1.17.1-1.34,1.25-1.49.17-.02.34-.02.52-.03.81-.08.84-.09.56-.79-.12-.29-.16-.51-.06-.83.11-.35.02-.7-.17-1.08-.28-.56-.32-1.24-.45-1.88-.26-1.32-.58-2.63-1.16-3.86-.07-.15-.05-.33-.09-.49-.54-1.93-1.4-3.72-2.44-5.43-.19-.31-.27-.69-.45-1.02-.61-1.16-1.23-2.3-1.87-3.45-.12-.21-.33-.36-.48-.56-.26-.34-.51-.68-.75-1.03-.07-.1-.06-.3-.15-.35-.95-.57-1.25-1.66-2-2.42-1.3-1.33-2.81-2.44-3.95-3.93-.29-.38-.77-.62-1.17-.91-.78-.56-1.66-.99-2.22-1.82-.04-.07-.12-.16-.18-.16-1.13.06-1.74-.92-2.57-1.4-1.67-.96-3.44-1.73-5.07-2.76-.6-.38-1.35-.53-2.02-.82-1.23-.53-2.57-.71-3.81-1.27-.48-.22-1.07-.46-1.61-.52-.56-.06-1.14.08-1.72-.08-.82-.22-1.66-.41-2.5-.57-.49-.09-1-.14-1.5-.12-.17,0-.44.27-.47.45-.06.37.02.77.01,1.15-.03,1.02-.24,1.3-1.27,1.43-1.05.13-2.11.21-3.16.22-1.23.02-2.46-.1-3.69-.06-.34.01-.62,0-.95-.07-.42-.08-.98.41-1.3-.1-.22-.37-.19-.9-.26-1.35-.18-1.21-.25-2.4-.12-3.63.13-1.24-.02-2.5-.05-3.75,0-.21-.06-.42-.04-.62.12-1.08.16-1.2,1.25-1.29,1.36-.11,2.74-.08,4.11-.1.13,0,.28.1.38.05.91-.45,1.86-.14,2.79-.17.33-.01.78-.17.96,0,.34.29.55.75.77,1.17.1.18.07.42.13.63.14.48.16,1.18.48,1.38.47.29,1.16.22,1.75.3,1.18.17,2.36.32,3.53.52,1.51.26,3.02.51,4.5.88,1.23.31,2.44.71,3.61,1.19,1.79.74,3.57,1.53,5.3,2.4,2.23,1.12,4.29,2.51,6.32,3.94,1.13.8,2.18,1.69,3.13,2.71.42.45,1.06.7,1.49,1.14,1.36,1.39,2.74,2.78,3.97,4.29.81,1,1.69,1.98,2.35,3.06,1.21,1.96,2.55,3.82,3.58,5.91.7,1.42,1,2.98,1.8,4.34.18.31.09.76.19,1.12.04.16.27.27.41.4.06-.14.15-.28.17-.43.02-.29.01-.59,0-.88-.08-1.97-.19-3.93-.25-5.9-.03-1.11.08-2.23-.02-3.32-.08-.92.09-1.82.01-2.74-.08-.93-.03-1.87-.14-2.79-.21-1.69-.22-3.37-.06-5.06.07-.73-.29-1.32-.7-1.87-.25-.33-.59-.61-.89-.9-.57-.55-.72-1.03-.39-1.7.2-.41.43-.9.79-1.13.45-.29,1.03-.41,1.57-.49.6-.09.87.47,1.24.82.76.73,1,2.02.2,2.6-1.13.81-.79,1.87-.88,2.86-.05.54.06,1.1.1,1.65.02.24.07.49.03.73-.06.37-.28.71.04,1.08.11.13.11.44.04.61-.32.76-.13,1.53-.1,2.29.05,1.35.18,2.7.22,4.06.04,1.68.01,3.36.03,5.05.03,1.95,0,3.91.14,5.85.08,1.12.3,2.24.24,3.36-.06,1.26.18,2.52-.08,3.8-.13.63.37,1.31.08,2.01-.02.06.31.38.5.39.51.05,1.03-.02,1.54-.01,1.31,0,1.76.37,1.92,1.68.13,1.05.19,2.12.26,2.98Zm-45.79,46.79c-1.05-.33-1.79.46-2.68.73-.06.02-.1.19-.11.3,0,.03.14.09.21.11.12.03.28.08.38.03.73-.38,1.45-.79,2.17-1.19.94.02,1.72-.38,2.46-.92-.73.07-1.44.22-2.12.44-.14.04-.21.34-.31.51Zm44.56-47.92s.05,0,.08,0c-.02-.3-.02-.59-.05-.89-.13-1.35-.26-1.48-1.64-1.51-1.58-.04-3.15-.12-4.73-.11-.67,0-1.33.19-1.99.28-.3.04-.45.16-.43.49.06,1.15.15,2.3.14,3.46,0,1.35-.09,2.7-.16,4.05-.03.54.23.83.82.81.33-.01.66,0,.99-.03.76-.05,1.51.03,2.29-.07,1.2-.15,2.45-.01,3.67.09.59.05.93,0,1.02-.51.1-.61.16-1.24.15-1.86-.03-1.4-.11-2.81-.16-4.21ZM174.56,5.4c-.06-.89-.17-2.37-.27-3.84-.02-.32-.17-.45-.49-.45-.51,0-1.02-.02-1.54-.02-.74,0-1.49-.04-2.23-.06-1.04-.03-2.09.22-3.15.31-.93.08-1.02.13-.94,1.05.1,1.17.1,2.34.07,3.5-.02,1.22.09,2.43.05,3.64-.01.45.19.63.63.57,1.28-.17,2.57.02,3.86-.11,1.1-.11,2.27-.06,3.39.19.33.07.61,0,.61-.43,0-1.25,0-2.5,0-4.34Zm36.04,23.06c.63-.28,1.28-.56,1.93-.86.05-.03.11-.18.08-.22-.06-.09-.17-.2-.26-.2-.76.01-1.34.45-1.94.85-.04.03-.05.17-.02.24.02.07.11.11.21.19Zm-16.7-16c.6-.13,1.14-.24,1.67-.38.12-.03.2-.2.3-.3-.13-.09-.29-.28-.39-.25-.57.16-1.12.36-1.67.56-.06.02-.14.17-.12.19.07.09.17.15.21.19Zm12.06,6.22c-.03-.09-.06-.17-.1-.26-.78.25-1.55.5-2.32.76-.05.02-.1.18-.08.22.07.08.21.21.28.18.75-.29,1.48-.59,2.22-.9Zm-9.21-5.35c-.22-.03-.39-.08-.55-.06-.09.01-.23.14-.23.23,0,.08.11.21.2.26.46.21.8-.08,1.15-.31.05-.03.05-.14.07-.22-.07-.02-.15-.06-.22-.04-.16.04-.32.11-.43.15Z"/>
      <path class="cls-1" d="m188.11,60.76c.59.25,1.2.47,1.78.76.73.37.76.94.07,1.42-.41.28-.54.92-1.18.87-.03.48-.39.77-.59,1.15-.39.75-.93,1.4-1.28,2.16-.35.76-.65,1.59-1.5,2.01-.16.08-.25.34-.35.53-.06.11-.02.29-.1.37-.35.32-.82.55-1.05.94-.22.36-.11.85-.53,1.23-.34.31-.4.86-.92,1.14-.3.16-.49.65-.59,1.03-.38,1.41-1.45,2.36-2.31,3.43-.41.51-.85.96-.94,1.64-.05.42-.33.62-.73.51-.7-.19-1.45-.31-2.05-.67-1.45-.87-2.82-1.86-4.23-2.79-.11-.07-.3-.03-.46-.05-.13-.01-.37,0-.39-.05-.2-.57-.75-.64-1.17-.89-.42-.25-.75-.68-1.11-.94-.64-.46-1.5-.62-2.28-.88-.15-.05-.47-.02-.47-.06-.17-1.41-1.62-.75-2.29-1.44-.96-.98-2.29-1.53-3.35-2.42-.31-.26-.72-.45-1.12-.56-.82-.23-1.61-.46-1.98-1.34-.05-.12-.14-.22-.22-.32-.08-.1-2.55-1.33-2.74-1.38-.04,0-.12.01-.12.01-.15-.69-.75-.74-1.27-.9-.57-.18-1.15-.33-1.72-.52-.14-.05-.33-.17-.36-.28-.18-.87-.88-1.13-1.57-1.42-.21-.09-.42-.21-.59-.36-.61-.53-1.26-.99-2.09-1.09-.3-.03-.54-.01-.75-.34-.15-.24-.54-.33-.84-.46-.64-.28-.78-.53-.45-1.17.27-.54.23-1.28.95-1.56.09-.04.14-.21.19-.33.21-.56,1.04-1.85,1.35-2.25.38-.49.86-.99,1.01-1.56.33-1.22,1.37-1.94,1.9-3,.13-.25.32-.51.35-.78.05-.42.02-.81.63-.7.06.01.18-.05.19-.1.27-1.42,1.6-2.29,1.94-3.63.27-1.06,1.24-1.65,1.5-2.67.06-.23.25-.43.31-.66.2-.71.72-1.23,1.4-1.21.26,0,.72.2.74.36.1.7.69.62,1.1.85.4.23.74.56,1.15.76.4.2.77.35,1.12.71.44.45,1.2.58,1.81.86.22.1.44.22.61.38.38.35.57,1.02,1.33.64.09-.05.46.26.55.46.3.67.89.92,1.51,1.09.67.18,1.16.63,1.74.94.74.4,1.18,1.31,2.17,1.31.15,0,.29.28.46.39.49.31.84.87,1.52.86.16,0,.38.06.47.18.8,1.02,2.34.89,3.09,2,.08.12.42.02.61.11.25.12.55.26.69.48.18.28.47.32.67.48.57.44,1.2.6,1.86.75.19.04.36.2.52.33.13.11.19.32.33.38.38.18.91-.08,1.17.55.1.23.8.05,1,.59.04.11.52,0,.72.13.44.26.84.6,1.24.91.34.26.64.56,1.01.77.83.48,1.5,1.22,2.52,1.41.35.07.64.44.45.91-.31.28-.62.54-.92.84-.1.1-.13.27-.19.4.19.04.39.14.58.11.23-.03.45-.17.69-.23.28-.07.32-.1.1-.35-.17-.2-.19-.53-.28-.81Zm-7.94,6.58c.59.27,1.16.3,1.81.11.77-.23,1.59-.39,2.38-.36.84.03,1.58.13,1.83-.92.01-.06.13-.13.19-.13.24.03.5,0,.37-.29-.08-.19-.37-.31-.59-.42-.06-.03-.2.13-.32.17-1.42.51-2.82,1.08-4.34,1.22-.38.04-.77.07-1.14.17-.09.03-.11.31-.17.47-.33.07-.68.09-.98.22-.31.14-.81-.19-.94.37.31,0,.63-.04.92.03.59.14.88-.09.96-.65Zm-13.72-4.91c-.7-.38-1.41-.53-2.18-.14-.18.09-.43.03-.62.1-.79.3-1.64.25-2.45.45-1.28.32-2.58.6-3.87.88-.61.13-1.24.37-1.83.3-.72-.09-1.11.33-1.6.63-.29.18-.14.41.08.47.26.08.56.09.82.04.33-.06.64-.25.97-.32,1.62-.34,3.25-.65,4.87-.99.78-.16,1.59-.18,2.36-.48.36-.14.8-.07,1.17-.36.16-.13.46-.12.7-.12.57-.01,1.14.03,1.55-.49.7-.12,1.4-.24,2.1-.36.04,0,.08-.04.11-.07.16-.17.32-.34.48-.51-.25-.13-.55-.42-.74-.36-.63.21-1.23.54-1.82.86-.09.05-.07.31-.1.47Zm-1.74-4.13c.84.23,1.02-.21,1.23-.56.05-.08.01-.26-.05-.36-.03-.05-.21-.05-.31-.01-1.28.46-2.73.27-3.96.97-.14.08-.36.11-.5.06-1.05-.35-1.99.34-3.07.26-1.27-.09-2.58.41-3.86.67-.17.03-.31.19-.46.29.15.13.33.38.46.37,1.09-.14,2.18-.31,3.27-.51.6-.11,1.18-.32,1.78-.39,1.42-.19,2.87-.08,4.25-.54.47-.16.97-.19,1.21-.24Zm-7.06,8.56c.09,0,.18.03.26.01,1.01-.25,2.08-.4,3.02-.82.51-.23,1.03-.5,1.55-.49.77.01,1.4-.28,2.05-.58.12-.05.19-.21.28-.32-.15-.1-.35-.31-.46-.27-.83.27-1.74.11-2.54.51-.34.17-.75.19-1.13.25-1.07.17-2.22,0-3.16.73-.06.05-.17.08-.24.06-.51-.18-.81.07-1.02.49.34.14.67.28,1.01.41.12.04.26.02.38.03Zm12.87,6.78c.67-.11,1.39,0,1.96-.48.15-.12.32-.23.5-.29.48-.15.97-.26,1.46-.4.11-.03.2-.11.3-.17-.06-.1-.1-.26-.19-.3-.77-.36-1.61-.29-2.3.02-.65.29-1.32.53-1.98.51-.83-.02-1.48.32-2.16.67-.39.21-.2.43.03.55.29.15.63.17.93.3.43.19.85.51,1.06-.26.02-.08.27-.1.41-.15Zm16.08-9.46c.38,0,.77.03,1.14-.02.12-.01.3-.23.29-.34-.01-.13-.17-.31-.31-.36-.13-.05-.39-.03-.47.06-.32.42-.69.22-1.05.13-.24-.06-.53-.24-.72-.17-.75.27-1.57.24-2.28.65-.24.14-.52.21-.79.27-1.49.32-2.98.62-4.47.95-.15.03-.26.27-.39.41.17.08.35.25.5.22,1.85-.41,3.75-.58,5.57-1.15.51-.16,1.2-.02,1.55-.32.48-.42.93-.33,1.43-.35Zm-11.34-9.07l-.05-.36c-.53.07-1.13,0-1.57.24-.6.32-1.15-.06-1.7.1-.04.01-.08.04-.11.07-.36.29-.76.27-1.21.27-.58,0-1.16.2-1.74.29-.45.07-.95.25-1.35.13-.9-.25-1.74-.11-2.6.11-.83.21-.84.2-.87,1.22.08-.02.2-.02.24-.07.45-.61.96-.91,1.7-.43.12.08.36.06.49-.02.63-.37,1.3-.28,1.99-.28.74,0,1.53.08,2.17-.49.1-.09.32-.13.46-.09.48.13.87.06,1.34-.17.46-.23,1.05-.17,1.58-.26.41-.07.81-.16,1.22-.24Zm-27.84,5.66c.33.33.63.83,1.06.98.3.11.76-.26,1.15-.4.08-.03.17-.03.25-.06,1-.31,2-.62,3-.94.13-.04.22-.18.33-.28-.54-.25-.31-.93-.67-1.25-.19-.17-.19-.71-.62-.43-.09.06.03.44.05.67.02.21.02.42.05.63.07.54-.06.71-.63.47-.58-.24-1.26.41-1.84-.16-.04-.04-.22.07-.33.11-.58.21-1.15.42-1.81.67Zm5.75-4.07c-.84.13-1.68.22-2.51.41-.84.2-1.86-.18-2.48.74-.02.03-.1.04-.12.03-.67-.62-1.06.2-1.57.34-.33.09-.6.41-.9.62.39.48.75.11,1.11-.05.04-.02.09-.03.13-.02.26.12.55.39.77.34.23-.05.36-.52.6-.6.84-.28,1.71-.48,2.57-.67.45-.1.92-.16,1.38-.21.5-.06.85-.32,1.01-.93Zm21.55-.26c-.43.09-1.01.19-1.58.35-.14.04-.21.3-.32.46.15.06.31.19.45.17,1.38-.2,2.76-.41,4.14-.63.54-.09,1.08-.19,1.6-.33.32-.09.38-.45.16-.68-.46-.5-.76-.49-1.34.03-.19.17-.44.47-.61.43-.82-.17-1.52.53-2.51.21Zm-2.52-2.63c.51.03.94.1,1.36.06.27-.02.53-.19.78-.33.06-.04.1-.25.06-.33-.22-.39-1.54-.79-1.93-.56-.68.41-1.38.66-2.19.53-.24-.04-.51.03-.76.1-.08.02-.17.2-.17.3,0,.1.1.25.18.28.25.07.56.19.75.1.66-.34,1.34.03,1.92-.15Zm-6.4,16.3s.01.06.02.1c.04,0,.09,0,.13,0,.52-.03,1.04-.05,1.32-.59.03-.06.03-.21-.01-.24-.43-.34-.91-.35-1.43-.21-.57.15-1.2.12-1.74.32-.55.2-1.03.57-1.53.88-.05.03-.07.18-.03.23.06.09.18.22.27.21.2-.02.4-.13.6-.17.8-.18,1.61-.35,2.41-.53Zm18.64-1.95c-1.04.12-1.92.07-2.67.37-.52.2-1.06.22-1.56.42-.29.12-.67.17-.67.64,0,.07-.17.14-.27.21.1.02.22.08.31.06.39-.11.77-.29,1.17-.35.99-.16,2-.25,3-.4.28-.04.58-.11.8-.27.13-.09.15-.39.15-.59,0-.05-.3-.09-.27-.08Zm-22.05-.2c-.62.16-1.24.32-1.85.49-.37.1-.36.41-.15.56.51.36,1.07.65,1.63.93.1.05.3-.08.46-.12-.09-.1-.2-.2-.26-.31-.06-.13-.13-.33-.07-.41.12-.16.36-.24.49-.4.11-.14.18-.35.19-.54,0-.06-.26-.13-.43-.21Zm-2.03-11.09c-.13-.05-.22-.12-.29-.11-.95.14-1.81.76-2.85.49-.17-.04-.44.23-.63.39-.08.07-.16.25-.13.31.08.12.24.29.35.28,1.32-.06,2.63-.15,3.54-1.36Zm19.79.57c.02.07.02.22.1.31.19.21.45.58.62.55.52-.09,1.07.28,1.54-.12.16-.13.29-.31.39-.49.04-.07-.04-.27-.11-.3-.55-.2-1.09-.42-1.66-.55-.42-.1-.85.22-.88.6Zm-19.56.21c.66.16,1.32,0,1.71-.35.33-.3.65-.37,1-.49.17-.06.32-.19.48-.29-.17-.07-.34-.19-.52-.22-.38-.06-.77-.1-1.15-.08-.17,0-.46.19-.46.3-.01.69-.7.71-1.06,1.14Zm-3.63-1.09c.02.06.05.11.07.17.15-.09.3-.17.45-.26-.12-.1-.23-.22-.37-.29-.27-.13-.52-.23-.82.02-.16.13-.44.13-.67.16-.45.06-.9.08-1.35.16-.12.02-.3.23-.29.34.01.14.18.34.3.36.23.03.48-.03.72-.09.66-.18,1.31-.37,1.96-.56Zm13.79,18.43c.23.29.45.59.69.87.07.08.26.19.31.16.38-.26.77-.52,1.1-.84.1-.1.07-.45-.03-.59-.08-.1-.38-.09-.56-.05-.49.12-.96.29-1.51.46Zm-6.26-7.43c-.13-.04-.22-.06-.29-.1-.57-.32-.6.27-.82.51-.07.07-.07.36-.04.37.27.08.54.15.82.18.12.01.25-.05.36-.11.42-.23.78-.66,1.35-.37.02,0,.24-.29.28-.46.01-.06-.24-.27-.35-.26-.46.05-.91.16-1.31.24Zm-11.93-14.31c-.06-.06-.1-.15-.16-.17-1.11-.25-2.13.32-3.2.41-.06,0-.14.1-.17.18-.04.11-.09.26-.06.36.03.07.21.14.3.11.96-.33,1.91-.62,2.94-.59.07,0,.16-.05.22-.1.06-.05.09-.14.13-.2Zm16.4-2.96c.23.53.37.8.46,1.08.23.71.22.72.9.51.19-.06.51-.19.51-.26-.03-.23-.11-.55-.29-.65-.42-.25-.91-.39-1.58-.67Zm-17.4,9.06c.04-.4-.2-.71-.55-.67-.38.04-.76.1-1.14.17-.1.02-.23.13-.25.22-.02.1.03.28.12.34.21.14.55.39.65.32.36-.24.69-.28,1.07-.17.01,0,.06-.14.09-.21Zm30.17,13.23c-.05-.05-.11-.1-.16-.15-.54.66-1.36.81-2.07,1.17-.05.02-.01.39.06.42.21.09.49.18.69.12.72-.22,1.01-.94,1.49-1.44.02-.02,0-.08,0-.12Zm-34.15-16.04c.5,0,.67-.23.82-.88.07-.32-.07-.38-.32-.35-.44.05-.8.42-.78.84.01.15.21.3.28.39Zm30.38,15.18c-.06.06-.24.16-.31.32-.03.08.12.28.23.37.13.1.33.19.47.16.19-.03.36-.17.54-.27-.14-.18-.25-.38-.42-.53-.08-.07-.25-.03-.52-.06Zm-2.77,2.35c.03.06.06.13.08.19.15-.08.3-.16.45-.23-.17-.14-.35-.42-.51-.41-.37.03-.73.17-1.07.32-.1.04-.12.26-.17.4.11.02.23.08.32.05.31-.09.6-.21.9-.31Zm-5.33-7.44s-.05-.1-.07-.1c-.44.06-.89.11-1.32.2-.05.01-.11.24-.08.34.03.09.16.19.27.22.47.12.81-.16,1.14-.43.05-.04.05-.15.07-.23Zm-3.9-2.64c-.14.1-.35.25-.57.41.23.08.45.2.69.23.15.02.31-.13.47-.16.16-.03.34.01.51.02-.15-.13-.29-.29-.46-.38-.14-.07-.33-.07-.64-.12Zm10.89-5.44c-.64.09-1.28.17-1.92.26q.95.35,1.92-.26Zm-23.75-7.4c-.07-.09-.17-.27-.2-.26-.3.11-.58.25-.87.39.09.13.15.35.27.38.41.12.63-.15.81-.51Zm31.42,8.1c.07-.02.21-.07.35-.12-.11-.13-.19-.29-.33-.37-.14-.07-.33-.03-.49-.06-.16-.04-.31-.11-.46-.16.07.19.1.44.24.55.14.12.39.1.69.17Zm-19.46-10.2c.4.03.51.04.63.05.17,0,.34.03.5.01.22-.03.51-.02.64-.16.15-.16-.25-.45-.63-.36-.31.07-.6.24-1.14.46Zm1.7,4.22c-.14.33-.29.51-.25.62.09.25.27.46.42.68.12-.15.34-.31.33-.45,0-.19-.2-.37-.49-.85Z"/>
      <path class="cls-1" d="m127.74,136.23c-.04.07-.06.13-.08.14-.51.1-1.03.25-1.55.28-.26.02-.55-.69-.35-.81.38-.24.82-.4,1.26-.49.12-.03.33.29.48.47.1.13.17.29.25.41Z"/>
      <path class="cls-1" d="m104.48,139.37c-.42.16-.83.33-1.26.47-.32.1-.65.18-.99.22-.79.11-1.59.06-2.36.43-.41.2-.98.08-1.47.06-.07,0-.22-.31-.18-.37.14-.18.33-.36.54-.46.35-.16.78-.18,1.07-.4.5-.39.38.53.76.3.1-.06.24-.08.37-.11.66-.17,1.36-.25,1.98-.51.83-.35,1.7-.32,2.54-.49.12-.02.25.01.38.02.32.01.44.19.45.5,0,.28-.11.35-.38.37-.25.02-.48.2-.72.2-.22,0-.44-.14-.72-.24Z"/>
      <path class="cls-1" d="m153.91,104.67c-.33.56-.65.97-1.45,1.03-.51.04-1,.16-1.55.13-.52-.03-1.12.51-1.57.39-.98-.26-1.79.05-2.66.34-.09.03-.31-.15-.36-.28-.03-.09.12-.33.22-.36.97-.23,1.96-.62,2.92-.58,1.52.06,2.86-.56,4.29-.76.03,0,.07.04.15.09Z"/>
      <path class="cls-1" d="m144.14,107.16c-.11-.18-.24-.36-.33-.55-.14-.29-.08-.48.29-.5.5-.02,1-.07,1.5-.09.1,0,.27.09.3.18.05.15.08.43,0,.48-.37.23-.72.63-1.22.24-.29-.23-.55-.25-.56.24h.01Z"/>
    </g>
  </g>
</svg>