<?xml version="1.0" encoding="UTF-8"?>
<svg id="_レイヤー_2" data-name="レイヤー 2" xmlns="http://www.w3.org/2000/svg" viewBox="0 0 40 40">
  <defs>
    <style>
      .cls-1 {
        fill: #333;
      }
    </style>
  </defs>
  <g id="_レイアウト" data-name="レイアウト">
    <path class="cls-1" d="m11.72.14c-2.13.1-3.58.44-4.85.94-1.31.51-2.43,1.2-3.54,2.31-1.11,1.11-1.79,2.23-2.3,3.55-.49,1.27-.83,2.73-.92,4.86C.01,13.93,0,14.61,0,20.04c.01,5.43.03,6.11.14,8.25.1,2.13.44,3.58.94,4.85.51,1.31,1.2,2.43,2.31,3.54,1.11,1.11,2.23,1.79,3.55,2.3,1.27.49,2.73.83,4.86.92,2.13.09,2.81.11,8.24.1,5.43-.01,6.11-.03,8.25-.14,2.13-.1,3.58-.44,4.85-.94,1.31-.51,2.43-1.2,3.54-2.31,1.11-1.11,1.79-2.23,2.3-3.55.49-1.27.83-2.73.92-4.85.09-2.13.12-2.82.1-8.25-.01-5.43-.03-6.11-.14-8.24-.1-2.13-.44-3.58-.94-4.85-.51-1.31-1.2-2.43-2.31-3.54-1.11-1.11-2.23-1.79-3.55-2.3-1.27-.49-2.73-.83-4.86-.92C26.07.01,25.39,0,19.96,0c-5.43.01-6.11.03-8.24.14m.23,36.16c-1.95-.08-3.01-.41-3.71-.68-.93-.36-1.6-.8-2.3-1.49-.7-.7-1.14-1.36-1.5-2.3-.27-.71-.6-1.76-.7-3.71-.1-2.11-.12-2.74-.13-8.08-.01-5.34,0-5.97.1-8.08.08-1.95.41-3.01.68-3.71.36-.94.79-1.6,1.49-2.3.7-.7,1.36-1.14,2.3-1.5.71-.28,1.76-.6,3.71-.7,2.11-.1,2.74-.12,8.08-.13,5.34-.01,5.97,0,8.08.1,1.95.08,3.01.41,3.71.68.94.36,1.6.79,2.3,1.49.7.7,1.14,1.36,1.5,2.3.28.7.6,1.76.69,3.71.1,2.11.12,2.74.13,8.08.01,5.34,0,5.97-.1,8.08-.08,1.95-.41,3.01-.68,3.72-.36.93-.79,1.6-1.49,2.3-.7.7-1.36,1.14-2.3,1.5-.7.27-1.76.6-3.71.7-2.11.1-2.74.12-8.08.13-5.34.01-5.97,0-8.08-.1M28.25,9.31c0,1.32,1.08,2.4,2.4,2.39,1.33,0,2.4-1.08,2.4-2.4,0-1.32-1.08-2.4-2.4-2.4-1.33,0-2.4,1.08-2.4,2.4m-18.52,10.71c.01,5.67,4.62,10.26,10.29,10.25,5.67-.01,10.26-4.62,10.25-10.29-.01-5.67-4.62-10.26-10.29-10.25-5.67.01-10.26,4.62-10.25,10.29m3.6,0c0-3.68,2.97-6.67,6.65-6.68,3.68,0,6.67,2.97,6.68,6.65,0,3.68-2.97,6.67-6.65,6.68-3.68,0-6.67-2.97-6.68-6.65"/>
  </g>
</svg>