<?xml version="1.0" encoding="UTF-8"?>
<svg id="_レイヤー_2" data-name="レイヤー 2" xmlns="http://www.w3.org/2000/svg" viewBox="0 0 95 220">
  <defs>
    <style>
      .cls-1 {
        fill: #00808a;
      }

      .cls-2 {
        fill: #beb4a0;
      }
    </style>
  </defs>
  <g id="_レイアウト" data-name="レイアウト">
    <g>
      <path class="cls-2" d="m94.97,185.86c0-3.59-.23-3.59-.23-7.17s-.35-3.59-.35-7.17.28-3.59.28-7.17-.07-3.59-.07-7.17.37-3.59.37-7.17-.11-3.59-.11-7.17-.52-3.59-.52-7.17.37-3.59.37-7.17-.12-3.59-.12-7.17-.14-3.59-.14-7.17-.26-3.59-.26-7.17.53-3.59.53-7.17.28-3.59.28-7.17-.78-3.59-.78-7.17.45-3.59.45-7.17.09-3.59.09-7.17.15-3.59.15-7.17-.56-3.58-.56-7.17-.05-3.59-.05-7.17c0-2.73-1.93-5.08-4.64-5.08-3.52,0-3.52.23-7.04.23s-3.52-.21-7.04-.21-3.52.22-7.03.22-3.51-.12-7.02-.12-3.51-.02-7.03-.02-3.51-.17-7.03-.17-3.51-.21-7.03-.21-3.51.78-7.03.78-3.51-.72-7.02-.72-3.51.24-7.03.24-3.51.43-7.03.43-3.51-.54-7.03-.54c-2.71,0-4.59,2.44-4.59,5.16,0,3.59-.27,3.59-.27,7.18s.37,3.59.37,7.18-.43,3.59-.43,7.18.36,3.59.36,7.17-.76,3.59-.76,7.17.55,3.59.55,7.17.32,3.59.32,7.17-.74,3.59-.74,7.17.16,3.59.16,7.17-.11,3.59-.11,7.17.68,3.59.68,7.17-.63,3.59-.63,7.17-.02,3.59-.02,7.17.32,3.59.32,7.17-.42,3.59-.42,7.17.25,3.59.25,7.17.14,3.59.14,7.17.25,3.59.25,7.17-.6,3.59-.6,7.17-.04,3.58-.04,7.17.66,3.59.66,7.17.08,3.58.08,7.17-.14,3.59-.14,7.17c0,2.73,1.93,5.42,4.64,5.42,3.52,0,3.52-.32,7.04-.32s3.52-.25,7.04-.25,3.52-.4,7.03-.4,3.51.42,7.02.42,3.51.33,7.03.33,3.51-.7,7.03-.7,3.51-.04,7.03-.04,3.51.71,7.03.71,3.51-.01,7.02-.01,3.51-.13,7.03-.13,3.51-.22,7.03-.22,3.51.1,7.03.1c2.71,0,5.04-2.18,5.04-4.91,0-3.59.2-3.59.2-7.18s-.72-3.59-.72-7.18.54-3.59.54-7.18.25-3.59.25-7.17Zm-47.48-115.55c-4.64,0-8.4-3.79-8.4-8.47s3.76-8.47,8.4-8.47,8.4,3.79,8.4,8.47-3.76,8.47-8.4,8.47Z"/>
      <rect class="cls-1" x="42.26" y="42.2" width="10.48" height="14.19"/>
      <g>
        <polygon class="cls-1" points="24.13 4.72 38.49 0 47.5 55.91 24.13 4.72"/>
        <polygon class="cls-1" points="70.77 4.93 56.51 0 47.5 55.91 70.77 4.93"/>
      </g>
    </g>
  </g>
</svg>