<?xml version="1.0" encoding="utf-8"?>
<!-- Generator: Adobe Illustrator 27.4.0, SVG Export Plug-In . SVG Version: 6.00 Build 0)  -->
<svg version="1.1" id="_レイヤー_2" xmlns="http://www.w3.org/2000/svg" xmlns:xlink="http://www.w3.org/1999/xlink" x="0px"
	 y="0px" viewBox="0 0 208.1 208.1" style="enable-background:new 0 0 208.1 208.1;" xml:space="preserve">
<style type="text/css">
	.st0{fill:#BCA98F;}
	.st1{fill:#FFFFFF;}
	.st2{font-family:'DNPShueiMGoStd-B-83pv-RKSJ-H';}
	.st3{font-size:10.51px;}
	.st4{letter-spacing:-1;}
	.st5{letter-spacing:-5;}
	.st6{fill:none;}
	.st7{fill:#BBA88E;}
	.st8{fill:none;stroke:#FFFFFF;stroke-width:2.45;stroke-miterlimit:10;}
	.st9{fill:#007F87;}
	.st10{font-family:'Baloo2-Regular';}
	.st11{font-size:28.21px;}
	.st12{letter-spacing:1;}
</style>
<g>
	<path class="st0" d="M169.1,199.1H39c0-16.6-13.4-30-30-30V39c16.6,0,30-13.4,30-30h130.1c0,16.6,13.4,30,30,30v130.1
		C182.5,169.1,169.1,182.5,169.1,199.1L169.1,199.1z"/>
	<path class="st0" d="M173.8,4.2V9c0,13.9,11.3,25.2,25.2,25.2h4.8v139.6h-4.8c-13.9,0-25.2,11.3-25.2,25.2v4.8H34.2v-4.8
		c0-13.9-11.3-25.2-25.2-25.2H4.2V34.2H9c13.9,0,25.2-11.3,25.2-25.2V4.2L173.8,4.2 M178.1,0H30v9c0,11.6-9.4,21-21,21H0v148h9
		c11.6,0,21,9.4,21,21v9h148.1v-9c0-11.6,9.4-21,21-21h9V30h-9c-11.6,0-21-9.4-21-21L178.1,0L178.1,0L178.1,0z"/>
</g>
<text transform="matrix(1 0 0 1 65.04 170.43)" class="st1 st2 st3">つ</text>
<text transform="matrix(1 0 0 1 76.2 170.43)" class="st1 st2 st3 st4">む</text>
<text transform="matrix(1 0 0 1 85.7 170.43)" class="st1 st2 st3">ぐ</text>
<text transform="matrix(1 0 0 1 95.7 170.43)" class="st1 st2 st3 st5">。</text>
<text transform="matrix(1 0 0 1 101.21 170.43)" class="st1 st2 st3">デ</text>
<text transform="matrix(1 0 0 1 112.44 170.43)" class="st1 st2 st3">ザ</text>
<text transform="matrix(1 0 0 1 122.78 170.43)" class="st1 st2 st3 st4">イ</text>
<text transform="matrix(1 0 0 1 131.65 170.43)" class="st1 st2 st3">ン</text>
<path class="st6" d="M70.9,65l-1.3,0.8c-0.7-0.3-1.4-0.7-2-1c-2.9-1.7-5.5-4.1-6.8-7.2L60.5,57C60.2,56,59.7,55,60,54.1
	c0.1-0.3,0.5-1.2,1-0.8c1,0.8,0.9,1.9,1.3,3c0.8,2.2,2.3,4.1,4.1,5.6C67.7,63.1,69.2,64.1,70.9,65L70.9,65z"/>
<path class="st6" d="M133.1,98c-3.2,2-6.7,3.4-10.5,4.1c-3.8,0.7-7.6,0.6-11.3-0.2l0.6-1.7c0.2-0.6-0.1-1.3-0.7-1.5l-0.6-0.2
	l3.1-8.4l0.7-0.9c0.4-0.5,0.4-1.1,0.2-1.6l3-8.3c0.3,0,0.6,0,0.9-0.1c0.3-0.1,0.6-0.1,0.8-0.2l13.2,15.7l-0.5,0.4
	c-0.5,0.4-0.6,1.1-0.1,1.6L133.1,98L133.1,98z"/>
<path class="st6" d="M75.4,67.7c-1-0.2-2-0.5-3-0.8l1-0.7c0.7,0.3,1.4,0.6,2.1,0.9C75.8,67.3,75.7,67.8,75.4,67.7z"/>
<path class="st6" d="M87.7,56.9c-2.2,4-3.7,8.5-4.2,13.1c-1.5-0.8-2.6-1.4-2.9-1.6c-0.1-0.1-0.2-0.1-0.2-0.2
	c-0.1-0.6-0.5-2.9-1.5-5.6C78.9,62.6,87.7,56.9,87.7,56.9z"/>
<path class="st6" d="M109.6,89.4l-2.8,7.6l-0.6-0.2c-0.6-0.2-1.3,0.1-1.5,0.7l-0.6,1.7c-1.1-0.6-2.2-1.2-3.2-2
	c-5.3-3.7-9.1-8.9-11-15l1.8-0.3c0.6-0.1,1.1-0.7,0.9-1.3L92.6,80l1.1-0.2C99.8,83.5,106.1,87.3,109.6,89.4L109.6,89.4z"/>
<path class="st6" d="M65.2,75.5c0.2-0.6,0.3-1.3,0.3-1.9s-0.1-1.3-0.3-1.9l1.8-1.2c3.6,0.1,6.7-0.8,8-1.2c0.5-0.2,1-0.1,1.5,0.2
	c1.2,0.7,3.6,2.2,6.7,4.1c0,1.3,0.1,2.7,0.2,4.1L82,77.8c-0.6,0.1-1.1,0.7-0.9,1.3l0.3,1.6c0.1,0.6,0.7,1.1,1.3,0.9l1.5-0.3
	c0.7,3.1,1.9,6,3.4,8.7L65.2,75.5L65.2,75.5z"/>
<path class="st6" d="M124.4,48.7l-7,19.3c-0.3,0-0.6,0-0.9,0.1c-0.3,0.1-0.6,0.1-0.8,0.2l-13.2-15.7l0.5-0.4
	c0.5-0.4,0.6-1.1,0.1-1.6l-1.2-1.4c3.1-2,6.7-3.4,10.5-4.1c1.7-0.3,3.4-0.5,5.1-0.5c2.1,0,4.2,0.2,6.2,0.7l-0.6,1.7
	c-0.2,0.6,0.1,1.3,0.7,1.5L124.4,48.7L124.4,48.7z"/>
<path class="st6" d="M145.1,64.9l-1.8,0.3c-0.6,0.1-1.1,0.7-0.9,1.3l0.1,0.6l-20.2,3.6c-0.3-0.5-0.7-0.9-1.1-1.3l7-19.3l0.6,0.2
	c0.6,0.2,1.3-0.1,1.5-0.7l0.6-1.7c1.1,0.6,2.2,1.2,3.2,2C139.4,53.5,143.2,58.8,145.1,64.9L145.1,64.9z"/>
<path class="st6" d="M141.2,90.2c-0.7,1-1.5,2-2.4,2.9l-1.2-1.4c-0.4-0.5-1.1-0.6-1.6-0.1l-0.5,0.4l-13.2-15.7
	c0.3-0.5,0.5-1.1,0.6-1.6l20.2-3.6l0.1,0.6c0.1,0.6,0.7,1.1,1.3,0.9l1.8-0.3C146.7,78.7,144.9,84.9,141.2,90.2L141.2,90.2z"/>
<path class="st6" d="M113.9,77.7l-2.7,7.3c-3-1.6-7.3-3.9-11.7-6.3l13.3-2.3C113.1,76.9,113.5,77.4,113.9,77.7L113.9,77.7z"/>
<path class="st6" d="M112.7,70.9c-0.3,0.5-0.5,1.1-0.6,1.6l-18.2,3.2c-1.9-1-3.7-2-5.3-2.9c0.2-7.1,3-13.7,7.6-18.8l1.2,1.4
	c0.4,0.5,1.1,0.5,1.6,0.1l0.5-0.4L112.7,70.9L112.7,70.9z"/>
<path class="st7" d="M88.6,76.7L88.6,76.7L88.6,76.7C88.5,76.7,88.6,76.7,88.6,76.7z"/>
<path class="st1" d="M153.9,68l-0.3-1.6c-0.1-0.6-0.7-1.1-1.3-0.9l-1.5,0.3c-1.9-8.2-6.7-15.3-13.7-20.1c-1.9-1.3-4-2.5-6.1-3.4
	l0.5-1.4c0.2-0.6-0.1-1.3-0.7-1.5l-1.6-0.6c-0.6-0.2-1.3,0.1-1.5,0.7l-0.5,1.4c-5.1-1.5-10.4-1.8-15.8-0.9c-2.7,0.5-5.3,1.3-7.7,2.3
	s-4.7,2.4-6.8,3.9l-1-1.2c-0.4-0.5-1.1-0.5-1.6-0.1l-1.3,1.1c-0.5,0.4-0.6,1.1-0.1,1.6l1,1.2c-1,0.9-1.9,1.9-2.7,2.9l-13.4,8.8
	c0.2,0.4,0.4,0.7,0.5,1.1c0.2,0.4,0.3,0.8,0.5,1.2l8.7-5.7c-2.2,4-3.7,8.5-4.2,13.1c1.4,0.7,3.1,1.7,5.1,2.8
	c0.2-7.1,3-13.7,7.6-18.8l1.2,1.4c0.4,0.5,1.1,0.5,1.6,0.1l0.5-0.4l13.2,15.7c-0.3,0.5-0.5,1.1-0.6,1.6l-18.2,3.2c1.8,1,3.7,2,5.6,3
	l13.3-2.3c0.3,0.5,0.7,0.9,1.1,1.3l-2.7,7.3c1,0.6,1.9,1,2.6,1.4c0.4,0.2,0.7,0.5,0.8,0.9l3-8.3c0.3,0,0.6,0,0.9-0.1
	c0.3-0.1,0.6-0.1,0.8-0.2l13.2,15.7l-0.5,0.4c-0.5,0.4-0.6,1.1-0.1,1.6l1.2,1.4c-3.2,2-6.7,3.4-10.5,4.1c-3.8,0.7-7.6,0.6-11.3-0.2
	l0.6-1.7c0.2-0.6-0.1-1.3-0.7-1.5l-0.6-0.2l3.1-8.4l-0.1,0.1c-0.5,0.7-1.5,0.9-2.3,0.4c-0.5-0.3-1-0.6-1.7-1l-2.8,7.6l-0.6-0.2
	c-0.6-0.2-1.3,0.1-1.5,0.7l-0.6,1.7c-1.1-0.6-2.2-1.2-3.2-2c-5.3-3.7-9.1-8.9-11-15l1.8-0.3c0.6-0.1,1.1-0.7,0.9-1.3L92.5,80
	l1.1-0.2c-0.4-0.3-0.9-0.5-1.3-0.8c-1.2-0.7-2.4-1.5-3.6-2.2c-0.1,0-0.1-0.1-0.2-0.1h0v0c-1.9-1.1-3.6-2.2-5.2-3.2
	c0,1.3,0.1,2.7,0.2,4.1L82,77.8c-0.6,0.1-1.1,0.7-0.9,1.3l0.3,1.6c0.1,0.6,0.7,1.1,1.3,0.9l1.5-0.3c0.7,3.1,1.9,6,3.4,8.7L65.2,75.5
	c0.2-0.6,0.3-1.3,0.3-1.9s-0.1-1.3-0.3-1.9l1.8-1.2c-0.6,0-1.3-0.1-2-0.2c-0.2,0-0.5-0.1-0.7-0.1c-0.3-0.1-0.7-0.1-1-0.2
	c-1-0.2-1.9-0.6-2.9-1c-0.5-0.2-1-0.5-1.4-0.8c-2.6,0.5-4.6,2.7-4.6,5.4c0,3.1,2.5,5.5,5.5,5.5c1.5,0,2.8-0.6,3.8-1.6l27.4,18
	c1.9,2.3,4.1,4.3,6.7,6.1c1.9,1.3,4,2.5,6.1,3.4l-0.5,1.4c-0.2,0.6,0.1,1.3,0.7,1.5l1.6,0.6c0.6,0.2,1.3-0.1,1.5-0.7l0.5-1.4
	c3.2,0.9,6.4,1.4,9.8,1.4c2,0,4-0.2,6-0.5c5.3-0.9,10.3-3.1,14.5-6.2l1,1.2c0.4,0.5,1.1,0.6,1.6,0.1l1.3-1.1
	c0.5-0.4,0.6-1.1,0.1-1.6l-1-1.2c1.7-1.6,3.2-3.3,4.6-5.3c4.9-6.9,6.9-15.3,5.9-23.6l1.5-0.3C153.6,69.2,154,68.6,153.9,68L153.9,68
	z M117.4,68c-0.3,0-0.6,0-0.9,0.1c-0.3,0.1-0.6,0.1-0.8,0.2l-13.2-15.7l0.5-0.4c0.5-0.4,0.6-1.1,0.1-1.6l-1.2-1.4
	c3.1-2,6.7-3.4,10.5-4.1c1.7-0.3,3.4-0.5,5.1-0.5c2.1,0,4.2,0.2,6.2,0.7l-0.6,1.7c-0.2,0.6,0.1,1.3,0.7,1.5l0.6,0.2L117.4,68
	L117.4,68z M121.2,69.4l7-19.3l0.6,0.2c0.6,0.2,1.3-0.1,1.5-0.7l0.6-1.7c1.1,0.6,2.2,1.2,3.2,2c5.3,3.7,9.1,8.9,11,15l-1.8,0.3
	c-0.6,0.1-1.1,0.7-0.9,1.3l0.1,0.6l-20.2,3.6C121.9,70.2,121.6,69.8,121.2,69.4L121.2,69.4z M141.2,90.2c-0.7,1-1.5,2-2.4,2.9
	l-1.2-1.4c-0.4-0.5-1.1-0.6-1.6-0.1l-0.5,0.4l-13.2-15.7c0.3-0.5,0.5-1.1,0.6-1.6l20.2-3.6l0.1,0.6c0.1,0.6,0.7,1.1,1.3,0.9l1.8-0.3
	C146.7,78.7,144.9,84.9,141.2,90.2L141.2,90.2z"/>
<path class="st8" d="M114.6,87.4c-0.1-0.4-0.4-0.7-0.8-0.9c-0.7-0.4-1.6-0.8-2.6-1.4c-3-1.6-7.3-3.9-11.7-6.3c-1.9-1-3.8-2.1-5.6-3
	c-1.9-1-3.7-2-5.3-2.9c-2-1.1-3.7-2-5.1-2.8c-1.5-0.8-2.6-1.4-2.9-1.6c-0.1-0.1-0.2-0.1-0.2-0.2c-0.1-0.6-0.5-2.9-1.5-5.6
	c-0.1-0.4-0.3-0.8-0.5-1.2c-0.2-0.4-0.3-0.7-0.5-1.1c-0.9-1.8-2.2-3.6-3.8-5.1c-4-3.4-6.7-4.8-7.8-5.4c-0.2-0.1-0.3-0.4-0.1-0.6
	c0.8-0.6,2.2-1.9,2.8-3.6c0-0.2,0.2-0.2,0.3-0.2h3.5c0.3,0,0.3-0.4,0.1-0.5c-1.2-0.4-2.9-1-3.5-1.2c-0.1,0-0.2-0.2-0.2-0.3
	c-0.4-2.8-2.7-5.2-6.1-5.2c-3.8,0-7.7,1.9-9.7,9.7c-1.9,7.2-0.6,16.1,5.7,20.1c0.5,0.3,0.9,0.6,1.4,0.8c1,0.4,1.9,0.8,2.9,1
	c0.3,0.1,0.6,0.2,1,0.2c0.2,0,0.5,0.1,0.7,0.1c0.7,0.1,1.3,0.2,2,0.2c3.6,0.1,6.7-0.8,8-1.2c0.5-0.2,1-0.1,1.5,0.2
	c1.2,0.7,3.6,2.2,6.7,4.1c1.6,1,3.4,2.1,5.2,3.2c0,0,0,0,0,0l0.2,0c0,0.1,0,0.1,0,0.2c1.2,0.7,2.4,1.4,3.6,2.2
	c0.4,0.3,0.9,0.5,1.3,0.8c6.1,3.7,12.4,7.5,15.9,9.7c0.7,0.4,1.2,0.8,1.7,1c0.8,0.5,1.7,0.3,2.3-0.4l0.1-0.1l0.7-0.9
	C114.7,88.5,114.8,87.9,114.6,87.4L114.6,87.4z M65,42.6c0.5,0,0.9,0.4,0.9,0.9s-0.4,0.9-0.9,0.9S64,44.1,64,43.6S64.4,42.6,65,42.6
	z M75.4,67.7c-1-0.2-2-0.5-3-0.8c-0.5-0.2-1-0.3-1.4-0.5c-0.3-0.1-0.6-0.2-0.9-0.3c-0.2-0.1-0.3-0.1-0.5-0.2c-0.7-0.3-1.4-0.7-2-1
	c-2.9-1.7-5.5-4.1-6.8-7.2l-0.3-0.7C60.2,56,59.7,55,60,54c0.1-0.3,0.5-1.2,1-0.8c1,0.8,0.9,1.9,1.3,3c0.8,2.2,2.3,4.1,4.1,5.6
	c1.4,1.2,2.9,2.2,4.5,3.1c0.4,0.2,0.8,0.4,1.2,0.7c0.4,0.2,0.9,0.4,1.3,0.6c0.7,0.3,1.4,0.6,2.1,0.9C75.8,67.3,75.7,67.8,75.4,67.7
	L75.4,67.7z"/>
<path class="st9" d="M114.6,87.4c-0.1-0.4-0.4-0.7-0.8-0.9c-0.7-0.4-1.6-0.8-2.6-1.4c-3-1.6-7.3-3.9-11.7-6.3c-1.9-1-3.8-2.1-5.6-3
	c-1.9-1-3.7-2-5.3-2.9c-2-1.1-3.7-2-5.1-2.8c-1.5-0.8-2.6-1.4-2.9-1.6c-0.1-0.1-0.2-0.1-0.2-0.2c-0.1-0.6-0.5-2.9-1.5-5.6
	c-0.1-0.4-0.3-0.8-0.5-1.2c-0.2-0.4-0.3-0.7-0.5-1.1c-0.9-1.8-2.2-3.6-3.8-5.1c-4-3.4-6.7-4.8-7.8-5.4c-0.2-0.1-0.3-0.4-0.1-0.6
	c0.8-0.6,2.2-1.9,2.8-3.6c0-0.2,0.2-0.2,0.3-0.2h3.5c0.3,0,0.3-0.4,0.1-0.5c-1.2-0.4-2.9-1-3.5-1.2c-0.1,0-0.2-0.2-0.2-0.3
	c-0.4-2.8-2.7-5.2-6.1-5.2c-3.8,0-7.7,1.9-9.7,9.7c-1.9,7.2-0.6,16.1,5.7,20.1c0.5,0.3,0.9,0.6,1.4,0.8c1,0.4,1.9,0.8,2.9,1
	c0.3,0.1,0.6,0.2,1,0.2c0.2,0,0.5,0.1,0.7,0.1c0.7,0.1,1.3,0.2,2,0.2c3.6,0.1,6.7-0.8,8-1.2c0.5-0.2,1-0.1,1.5,0.2
	c1.2,0.7,3.6,2.2,6.7,4.1c1.6,1,3.4,2.1,5.2,3.2c0,0,0,0,0,0l0.2,0c0,0.1,0,0.1,0,0.2c1.2,0.7,2.4,1.4,3.6,2.2
	c0.4,0.3,0.9,0.5,1.3,0.8c6.1,3.7,12.4,7.5,15.9,9.7c0.7,0.4,1.2,0.8,1.7,1c0.8,0.5,1.7,0.3,2.3-0.4l0.1-0.1l0.7-0.9
	C114.7,88.5,114.8,87.9,114.6,87.4L114.6,87.4z M65,42.6c0.5,0,0.9,0.4,0.9,0.9s-0.4,0.9-0.9,0.9S64,44.1,64,43.6S64.4,42.6,65,42.6
	z M75.4,67.7c-1-0.2-2-0.5-3-0.8c-0.5-0.2-1-0.3-1.4-0.5c-0.3-0.1-0.6-0.2-0.9-0.3c-0.2-0.1-0.3-0.1-0.5-0.2c-0.7-0.3-1.4-0.7-2-1
	c-2.9-1.7-5.5-4.1-6.8-7.2l-0.3-0.7C60.2,56,59.7,55,60,54c0.1-0.3,0.5-1.2,1-0.8c1,0.8,0.9,1.9,1.3,3c0.8,2.2,2.3,4.1,4.1,5.6
	c1.4,1.2,2.9,2.2,4.5,3.1c0.4,0.2,0.8,0.4,1.2,0.7c0.4,0.2,0.9,0.4,1.3,0.6c0.7,0.3,1.4,0.6,2.1,0.9C75.8,67.3,75.7,67.8,75.4,67.7
	L75.4,67.7z"/>
<path class="st9" d="M88.8,76.8c-0.1,0-0.1-0.1-0.2-0.1l0.2,0C88.8,76.7,88.8,76.7,88.8,76.8L88.8,76.8z"/>
<text transform="matrix(1 0 0 1 41.66 149.58)" class="st1 st10 st11">T</text>
<text transform="matrix(1 0 0 1 56.56 149.58)" class="st1 st10 st11 st12">sumugu.</text>
</svg>
