<?xml version="1.0" encoding="UTF-8"?>
<svg id="_レイヤー_2" data-name="レイヤー 2" xmlns="http://www.w3.org/2000/svg" viewBox="0 0 154.95 154.95">
  <defs>
    <style>
      .cls-1, .cls-2 {
        fill: none;
      }

      .cls-3 {
        fill: #007f87;
      }

      .cls-4 {
        fill: #fff;
      }

      .cls-5 {
        fill: #bba88e;
      }

      .cls-6 {
        fill: #bca98f;
      }

      .cls-2 {
        stroke: #fff;
        stroke-miterlimit: 10;
        stroke-width: 2.11px;
      }
    </style>
  </defs>
  <g id="_レイヤー_1-2" data-name="レイヤー 1">
    <g>
      <path class="cls-6" d="m125.9,148.25H29.05c0-12.34-10.01-22.35-22.35-22.35V29.05c12.34,0,22.35-10.01,22.35-22.35h96.85c0,12.34,10.01,22.35,22.35,22.35v96.85c-12.34,0-22.35,10.01-22.35,22.35Z"/>
      <path class="cls-6" d="m129.45,3.15v3.55c0,10.37,8.43,18.8,18.8,18.8h3.55v103.95h-3.55c-10.37,0-18.8,8.43-18.8,18.8v3.55H25.5v-3.55c0-10.37-8.43-18.8-18.8-18.8h-3.55V25.5h3.55c10.37,0,18.8-8.43,18.8-18.8v-3.55h103.95m3.15-3.15H22.35v6.7c0,8.63-7.02,15.65-15.65,15.65H0v110.26h6.7c8.63,0,15.65,7.02,15.65,15.65v6.7h110.26v-6.7c0-8.63,7.02-15.65,15.65-15.65h6.7V22.35h-6.7c-8.63,0-15.65-7.02-15.65-15.65V0h0Z"/>
    </g>
    <g>
      <path class="cls-1" d="m50.33,57.36l-1.1.72c-.57-.27-1.25-.62-1.73-.89-2.46-1.47-4.7-3.5-5.88-6.19l-.25-.58c-.24-.79-.67-1.66-.41-2.5.09-.3.39-1.02.82-.68.88.74.8,1.63,1.16,2.58.72,1.88,2,3.52,3.5,4.85,1.18,1.05,2.5,1.93,3.89,2.69Z"/>
      <path class="cls-1" d="m103.88,85.73c-2.72,1.73-5.79,2.93-9.06,3.51-3.28.58-6.56.5-9.72-.2l.55-1.49c.19-.51-.08-1.08-.6-1.27l-.52-.19,2.64-7.25.61-.8c.32-.42.37-.96.2-1.41l2.6-7.16c.25,0,.49-.02.74-.07.25-.04.49-.11.72-.19l11.36,13.55-.42.35c-.42.35-.48.98-.12,1.4l1.02,1.22Z"/>
      <path class="cls-1" d="m54.21,59.71c-.86-.18-1.72-.42-2.57-.69l.86-.57c.61.28,1.23.55,1.84.8.26.11.14.53-.14.46Z"/>
      <path class="cls-1" d="m64.78,50.39c-1.93,3.45-3.16,7.29-3.58,11.32-1.3-.7-2.2-1.19-2.51-1.36-.08-.05-.13-.12-.15-.21-.07-.53-.4-2.52-1.27-4.82l7.52-4.93Z"/>
      <path class="cls-1" d="m83.7,78.4l-2.37,6.53-.52-.19c-.51-.19-1.09.08-1.27.59l-.54,1.48c-.96-.5-1.89-1.06-2.79-1.68-4.55-3.19-7.83-7.7-9.46-12.91l1.55-.27c.54-.09.9-.61.81-1.15l-.09-.54.98-.18c5.28,3.21,10.64,6.46,13.71,8.33Z"/>
      <path class="cls-1" d="m45.49,66.39c.19-.52.3-1.08.3-1.67s-.11-1.15-.3-1.67l1.58-1.04c3.12.12,5.75-.64,6.91-1.05.42-.15.89-.1,1.27.14.99.61,3.11,1.9,5.8,3.53,0,1.16.06,2.34.2,3.52l-1.3.23c-.54.09-.9.61-.81,1.15l.25,1.41c.09.54.61.9,1.15.81l1.29-.23c.63,2.66,1.6,5.18,2.9,7.52l-19.25-12.64Z"/>
      <path class="cls-1" d="m96.46,43.35l-6.05,16.62c-.25,0-.49.02-.74.07-.25.04-.49.11-.72.19l-11.37-13.54.42-.36c.42-.35.47-.98.12-1.4l-1.01-1.2c2.68-1.71,5.73-2.94,9.05-3.52,1.46-.26,2.93-.39,4.38-.39,1.8,0,3.59.2,5.34.58l-.54,1.49c-.19.51.08,1.09.6,1.27l.52.19Z"/>
      <path class="cls-1" d="m114.24,57.23l-1.55.27c-.54.09-.9.61-.81,1.15l.09.55-17.41,3.07c-.26-.43-.58-.81-.95-1.14l6.05-16.61.52.19c.51.19,1.09-.08,1.27-.59l.54-1.48c.96.5,1.89,1.06,2.78,1.69,4.55,3.19,7.83,7.7,9.46,12.91Z"/>
      <path class="cls-1" d="m110.89,79c-.63.9-1.31,1.74-2.04,2.54l-1.01-1.2c-.35-.42-.98-.48-1.4-.12l-.42.35-11.36-13.54c.24-.43.41-.9.5-1.4l17.41-3.07.1.54c.09.54.61.9,1.15.81l1.55-.27c.25,5.46-1.29,10.81-4.47,15.37Z"/>
      <path class="cls-1" d="m87.37,68.31l-2.3,6.32c-2.61-1.41-6.28-3.4-10.07-5.45l11.41-2.01c.26.43.58.81.95,1.14Z"/>
      <path class="cls-1" d="m86.33,62.41c-.24.43-.41.9-.5,1.4l-15.65,2.76c-1.61-.87-3.16-1.71-4.58-2.48.15-6.11,2.56-11.83,6.54-16.18l1,1.2c.35.42.98.47,1.4.12l.42-.35,11.36,13.54Z"/>
      <path class="cls-5" d="m65.57,67.38h-.01s0-.01,0-.01c0,0,.01,0,.02.01Z"/>
      <path class="cls-4" d="m121.84,59.92l-.25-1.41c-.09-.54-.61-.9-1.15-.81l-1.29.23c-1.66-7.04-5.79-13.15-11.76-17.34-1.66-1.16-3.41-2.14-5.23-2.93l.44-1.23c.19-.51-.08-1.08-.59-1.27l-1.34-.49c-.51-.19-1.08.08-1.27.6l-.44,1.23c-4.35-1.31-8.97-1.6-13.57-.79-2.34.41-4.56,1.1-6.65,2.01-2.09.91-4.04,2.06-5.82,3.39l-.85-1.01c-.35-.42-.98-.48-1.4-.12l-1.09.92c-.42.35-.48.98-.12,1.4l.85,1.02c-.83.79-1.62,1.62-2.35,2.49l-11.54,7.58c.16.32.31.64.45.96.15.33.28.67.41.99l7.52-4.93c-1.93,3.45-3.16,7.29-3.58,11.32,1.18.64,2.69,1.46,4.4,2.38.15-6.11,2.56-11.83,6.54-16.18l1,1.2c.35.42.98.47,1.4.12l.42-.35,11.36,13.54c-.24.43-.41.9-.5,1.4l-15.65,2.76c1.58.85,3.21,1.74,4.83,2.62l11.41-2.01c.26.43.58.81.95,1.14l-2.3,6.32c.87.47,1.63.88,2.22,1.21.33.18.56.47.68.79l2.6-7.16c.25,0,.49-.02.74-.07.25-.04.49-.11.72-.19l11.36,13.55-.42.35c-.42.35-.48.98-.12,1.4l1.02,1.22c-2.72,1.73-5.79,2.93-9.06,3.51-3.28.58-6.56.5-9.72-.2l.55-1.49c.19-.51-.08-1.08-.6-1.27l-.52-.19,2.64-7.25-.05.06c-.46.61-1.31.77-1.96.38-.4-.24-.89-.54-1.46-.89l-2.37,6.53-.52-.19c-.51-.19-1.09.08-1.27.59l-.54,1.48c-.96-.5-1.89-1.06-2.79-1.68-4.55-3.19-7.83-7.7-9.46-12.91l1.55-.27c.54-.09.9-.61.81-1.15l-.09-.54.98-.18c-.38-.23-.76-.46-1.13-.69-1.05-.64-2.09-1.27-3.1-1.88-.06-.04-.12-.08-.18-.11h-.01s0-.01,0-.01c-1.6-.97-3.13-1.9-4.5-2.74,0,1.16.06,2.34.2,3.52l-1.3.23c-.54.09-.9.61-.81,1.15l.25,1.41c.09.54.61.9,1.15.81l1.29-.23c.63,2.66,1.6,5.18,2.9,7.52l-19.25-12.64c.19-.52.3-1.08.3-1.67s-.11-1.15-.3-1.67l1.58-1.04c-.55-.02-1.11-.07-1.68-.15-.21-.03-.42-.07-.63-.11-.28-.05-.56-.11-.84-.18-.82-.2-1.64-.48-2.46-.86-.44-.2-.85-.43-1.24-.68-2.23.39-3.94,2.34-3.94,4.68,0,2.63,2.13,4.76,4.76,4.76,1.28,0,2.44-.51,3.3-1.34l23.54,15.46c1.65,1.97,3.56,3.74,5.72,5.24,1.66,1.17,3.41,2.14,5.23,2.93l-.44,1.23c-.19.51.08,1.09.59,1.27l1.34.49c.51.19,1.09-.08,1.27-.6l.44-1.22c2.71.82,5.54,1.24,8.39,1.24,1.72,0,3.45-.15,5.18-.46,4.6-.81,8.84-2.66,12.48-5.38l.84,1c.35.42.98.47,1.4.12l1.1-.92c.42-.35.47-.98.12-1.4l-.84-1c1.44-1.36,2.76-2.88,3.92-4.54,4.18-5.98,5.97-13.13,5.12-20.32l1.29-.23c.54-.09.9-.61.81-1.15Zm-31.43.05c-.25,0-.49.02-.74.07-.25.04-.49.11-.72.19l-11.37-13.54.42-.36c.42-.35.47-.98.12-1.4l-1.01-1.2c2.68-1.71,5.73-2.94,9.05-3.52,1.46-.26,2.93-.39,4.38-.39,1.8,0,3.59.2,5.34.58l-.54,1.49c-.19.51.08,1.09.6,1.27l.52.19-6.05,16.62Zm3.21,1.16l6.05-16.61.52.19c.51.19,1.09-.08,1.27-.59l.54-1.48c.96.5,1.89,1.06,2.78,1.69,4.55,3.19,7.83,7.7,9.46,12.91l-1.55.27c-.54.09-.9.61-.81,1.15l.09.55-17.41,3.07c-.26-.43-.58-.81-.95-1.14Zm17.27,17.87c-.63.9-1.31,1.74-2.04,2.54l-1.01-1.2c-.35-.42-.98-.48-1.4-.12l-.42.35-11.36-13.54c.24-.43.41-.9.5-1.4l17.41-3.07.1.54c.09.54.61.9,1.15.81l1.55-.27c.25,5.46-1.29,10.81-4.47,15.37Z"/>
      <g>
        <path class="cls-2" d="m87.98,76.63c-.12-.33-.35-.61-.68-.79-.6-.33-1.35-.74-2.22-1.21-2.61-1.41-6.28-3.4-10.07-5.45-1.61-.88-3.25-1.76-4.83-2.62-1.61-.87-3.16-1.71-4.58-2.48-1.71-.92-3.22-1.74-4.4-2.38-1.3-.7-2.2-1.19-2.51-1.36-.08-.05-.13-.12-.15-.21-.07-.53-.4-2.52-1.27-4.82-.12-.32-.26-.65-.41-.99-.14-.32-.29-.64-.45-.96-.79-1.57-1.86-3.13-3.29-4.36-3.43-2.94-5.76-4.18-6.71-4.61-.2-.09-.24-.36-.06-.5.67-.51,1.93-1.63,2.41-3.13.04-.13.15-.21.28-.21h3.02c.22,0,.28-.32.06-.39-1.05-.36-2.53-.86-3.03-1.02-.11-.04-.18-.13-.19-.24-.31-2.44-2.28-4.45-5.25-4.45-3.24,0-6.62,1.66-8.34,8.31-1.6,6.19-.48,13.86,4.9,17.26.39.25.8.48,1.24.68.82.38,1.65.66,2.46.86.28.07.56.13.84.18.21.04.42.08.63.11.57.08,1.14.13,1.68.15,3.12.12,5.75-.64,6.91-1.05.42-.15.89-.1,1.27.14.99.61,3.11,1.9,5.8,3.53,1.38.84,2.9,1.77,4.5,2.74,0,0,.01,0,.02.01l.17-.03s.01.09.01.14c1.01.61,2.05,1.25,3.1,1.88.38.23.76.46,1.13.69,5.28,3.21,10.64,6.46,13.71,8.33.57.34,1.06.64,1.46.89.65.4,1.5.23,1.96-.38l.05-.06.61-.8c.32-.42.37-.96.2-1.41Zm-42.71-38.55c.45,0,.81.36.81.81s-.36.81-.81.81-.81-.36-.81-.81.36-.81.81-.81Zm8.95,21.63c-.86-.18-1.72-.42-2.57-.69-.41-.14-.83-.29-1.24-.44-.25-.1-.5-.19-.75-.3-.13-.06-.28-.12-.42-.19-.57-.27-1.25-.62-1.73-.89-2.46-1.47-4.7-3.5-5.88-6.19l-.25-.58c-.24-.79-.67-1.66-.41-2.5.09-.3.39-1.02.82-.68.88.74.8,1.63,1.16,2.58.72,1.88,2,3.52,3.5,4.85,1.18,1.05,2.5,1.93,3.89,2.69.35.19.71.38,1.06.56.37.18.74.36,1.11.53.61.28,1.23.55,1.84.8.26.11.14.53-.14.46Z"/>
        <path class="cls-3" d="m87.98,76.63c-.12-.33-.35-.61-.68-.79-.6-.33-1.35-.74-2.22-1.21-2.61-1.41-6.28-3.4-10.07-5.45-1.61-.88-3.25-1.76-4.83-2.62-1.61-.87-3.16-1.71-4.58-2.48-1.71-.92-3.22-1.74-4.4-2.38-1.3-.7-2.2-1.19-2.51-1.36-.08-.05-.13-.12-.15-.21-.07-.53-.4-2.52-1.27-4.82-.12-.32-.26-.65-.41-.99-.14-.32-.29-.64-.45-.96-.79-1.57-1.86-3.13-3.29-4.36-3.43-2.94-5.76-4.18-6.71-4.61-.2-.09-.24-.36-.06-.5.67-.51,1.93-1.63,2.41-3.13.04-.13.15-.21.28-.21h3.02c.22,0,.28-.32.06-.39-1.05-.36-2.53-.86-3.03-1.02-.11-.04-.18-.13-.19-.24-.31-2.44-2.28-4.45-5.25-4.45-3.24,0-6.62,1.66-8.34,8.31-1.6,6.19-.48,13.86,4.9,17.26.39.25.8.48,1.24.68.82.38,1.65.66,2.46.86.28.07.56.13.84.18.21.04.42.08.63.11.57.08,1.14.13,1.68.15,3.12.12,5.75-.64,6.91-1.05.42-.15.89-.1,1.27.14.99.61,3.11,1.9,5.8,3.53,1.38.84,2.9,1.77,4.5,2.74,0,0,.01,0,.02.01l.17-.03s.01.09.01.14c1.01.61,2.05,1.25,3.1,1.88.38.23.76.46,1.13.69,5.28,3.21,10.64,6.46,13.71,8.33.57.34,1.06.64,1.46.89.65.4,1.5.23,1.96-.38l.05-.06.61-.8c.32-.42.37-.96.2-1.41Zm-42.71-38.55c.45,0,.81.36.81.81s-.36.81-.81.81-.81-.36-.81-.81.36-.81.81-.81Zm8.95,21.63c-.86-.18-1.72-.42-2.57-.69-.41-.14-.83-.29-1.24-.44-.25-.1-.5-.19-.75-.3-.13-.06-.28-.12-.42-.19-.57-.27-1.25-.62-1.73-.89-2.46-1.47-4.7-3.5-5.88-6.19l-.25-.58c-.24-.79-.67-1.66-.41-2.5.09-.3.39-1.02.82-.68.88.74.8,1.63,1.16,2.58.72,1.88,2,3.52,3.5,4.85,1.18,1.05,2.5,1.93,3.89,2.69.35.19.71.38,1.06.56.37.18.74.36,1.11.53.61.28,1.23.55,1.84.8.26.11.14.53-.14.46Z"/>
      </g>
      <path class="cls-3" d="m65.75,67.49c-.06-.04-.12-.08-.18-.11l.17-.03s.01.09.01.14Z"/>
    </g>
    <g>
      <path class="cls-4" d="m31.95,104.09v13.04c-.08.03-.21.07-.38.11s-.34.06-.52.06c-.71,0-1.07-.3-1.07-.9v-12.31h-4.54c-.05-.08-.1-.19-.15-.33-.05-.14-.07-.29-.07-.47,0-.27.06-.49.19-.64.13-.15.32-.23.56-.23h10.52c.05.08.1.19.15.33.05.14.07.29.07.45,0,.28-.07.49-.19.66-.13.16-.32.24-.56.24h-4.01Z"/>
      <path class="cls-4" d="m47.17,114.19c0,1.04-.38,1.85-1.14,2.43-.76.58-1.86.87-3.3.87-.62,0-1.18-.05-1.7-.16-.52-.11-.96-.24-1.32-.41s-.65-.36-.85-.58c-.2-.22-.3-.44-.3-.67,0-.19.05-.38.16-.56.1-.18.26-.33.47-.46.44.32.95.61,1.53.86s1.25.38,1.99.38c1.68,0,2.53-.57,2.53-1.7,0-.92-.56-1.52-1.68-1.8l-2.02-.53c-.99-.26-1.71-.64-2.16-1.13-.45-.49-.68-1.13-.68-1.91,0-.42.08-.83.25-1.21.17-.39.43-.73.79-1.02.36-.29.8-.52,1.32-.69.53-.17,1.15-.25,1.86-.25,1.13,0,2.05.17,2.74.5.7.33,1.04.72,1.04,1.15,0,.21-.05.4-.16.56-.11.16-.25.28-.42.36-.29-.19-.7-.4-1.24-.63-.53-.23-1.17-.34-1.89-.34s-1.31.14-1.74.41c-.43.28-.64.66-.64,1.17,0,.37.12.69.36.95.24.26.65.45,1.21.58l1.68.41c1.1.28,1.93.68,2.48,1.23.55.54.83,1.27.83,2.2Z"/>
      <path class="cls-4" d="m51.57,106.01c.08-.03.21-.07.38-.11.17-.04.35-.06.55-.06.68,0,1.02.3,1.02.9v6.24c0,1.05.27,1.8.83,2.25.55.45,1.31.67,2.28.67.65,0,1.2-.07,1.65-.21.45-.14.81-.28,1.07-.42v-9.25c.08-.03.21-.07.38-.11.17-.04.34-.06.52-.06.7,0,1.04.3,1.04.9v8.45c0,.34-.04.61-.13.81-.09.2-.3.4-.64.59-.37.21-.89.41-1.54.61-.66.19-1.45.29-2.37.29-1.62,0-2.86-.36-3.73-1.07-.87-.71-1.3-1.83-1.3-3.35v-7.07Z"/>
      <path class="cls-4" d="m79.93,107.8c-.45-.37-1.06-.56-1.82-.56-1.05,0-1.99.37-2.82,1.12.1.32.15.67.15,1.04v7.72c-.08.03-.21.07-.38.11s-.34.06-.52.06c-.7,0-1.04-.29-1.04-.87v-6.87c0-.79-.23-1.38-.68-1.75-.45-.37-1.07-.56-1.85-.56-.52,0-1.01.08-1.47.24-.46.16-.85.35-1.18.56v9.08c-.08.03-.2.07-.36.11-.16.04-.34.06-.54.06-.7,0-1.04-.29-1.04-.87v-8.28c0-.32.07-.6.21-.81.14-.22.38-.44.72-.67.44-.28.99-.51,1.66-.72.67-.2,1.35-.3,2.03-.3.79,0,1.5.12,2.11.35.62.23,1.08.55,1.41.96.42-.37.95-.68,1.58-.94.63-.25,1.35-.38,2.16-.38,1.31,0,2.36.31,3.13.94.78.62,1.17,1.58,1.17,2.88v7.67c-.08.03-.21.07-.38.11s-.34.06-.52.06c-.7,0-1.04-.29-1.04-.87v-6.87c0-.79-.23-1.38-.68-1.75Z"/>
      <path class="cls-4" d="m87.66,106.01c.08-.03.21-.07.38-.11.17-.04.35-.06.55-.06.68,0,1.02.3,1.02.9v6.24c0,1.05.27,1.8.83,2.25.55.45,1.31.67,2.28.67.65,0,1.2-.07,1.65-.21.45-.14.81-.28,1.07-.42v-9.25c.08-.03.21-.07.38-.11.17-.04.34-.06.52-.06.7,0,1.04.3,1.04.9v8.45c0,.34-.04.61-.13.81-.09.2-.3.4-.64.59-.37.21-.89.41-1.54.61-.66.19-1.45.29-2.37.29-1.62,0-2.86-.36-3.73-1.07-.87-.71-1.3-1.83-1.3-3.35v-7.07Z"/>
      <path class="cls-4" d="m109.98,116.01c-.28.23-.65.42-1.13.58-.48.16-1.05.24-1.71.24-.71,0-1.38-.1-2.02-.3-.63-.2-1.19-.53-1.66-.97-.48-.44-.86-1.02-1.14-1.74-.28-.71-.42-1.58-.42-2.6,0-.92.14-1.73.41-2.43s.66-1.28,1.15-1.75,1.08-.82,1.76-1.06c.68-.23,1.43-.35,2.26-.35.74,0,1.43.09,2.05.28s1.15.42,1.57.69c.24.16.44.34.6.55.15.2.23.45.23.74v9.76c0,.81-.13,1.49-.4,2.05-.27.56-.64,1.01-1.12,1.36-.48.35-1.04.6-1.69.77-.65.16-1.34.24-2.09.24-.83,0-1.53-.08-2.1-.25-.58-.17-.97-.32-1.18-.45-.49-.28-.73-.62-.73-1.04,0-.23.05-.42.16-.57.11-.15.24-.27.4-.35.34.26.82.5,1.43.72.61.22,1.29.33,2.02.33,1.08,0,1.91-.23,2.49-.69.57-.46.86-1.2.86-2.22v-1.53Zm-2.62-.78c.65,0,1.18-.1,1.59-.3.41-.2.76-.43,1.03-.69v-6.31c-.28-.18-.62-.34-1.03-.47-.41-.14-.9-.21-1.47-.21-1.1,0-1.98.33-2.63,1-.66.66-.98,1.65-.98,2.96,0,.73.09,1.35.27,1.86.18.51.42.93.74,1.25.32.32.69.56,1.12.7.43.15.89.22,1.37.22Z"/>
      <path class="cls-4" d="m116.97,106.01c.08-.03.21-.07.38-.11.17-.04.35-.06.55-.06.68,0,1.02.3,1.02.9v6.24c0,1.05.27,1.8.83,2.25.55.45,1.31.67,2.28.67.65,0,1.2-.07,1.65-.21.45-.14.81-.28,1.07-.42v-9.25c.08-.03.21-.07.38-.11.17-.04.34-.06.52-.06.7,0,1.04.3,1.04.9v8.45c0,.34-.04.61-.13.81-.09.2-.3.4-.64.59-.37.21-.89.41-1.54.61-.66.19-1.45.29-2.37.29-1.62,0-2.86-.36-3.73-1.07-.87-.71-1.3-1.83-1.3-3.35v-7.07Z"/>
      <path class="cls-4" d="m130.35,116.16c0-.39.12-.71.35-.97.24-.26.56-.39.98-.39s.74.13.97.39.34.58.34.97-.11.69-.34.95-.55.39-.97.39-.75-.13-.98-.39c-.23-.26-.35-.57-.35-.95Z"/>
    </g>
  </g>
</svg>